%TF.GenerationSoftware,KiCad,Pcbnew,7.0.9*%
%TF.CreationDate,2025-04-01T10:19:45-06:00*%
%TF.ProjectId,2023-24_Power_Supply,32303233-2d32-4345-9f50-6f7765725f53,rev?*%
%TF.SameCoordinates,Original*%
%TF.FileFunction,Soldermask,Bot*%
%TF.FilePolarity,Negative*%
%FSLAX46Y46*%
G04 Gerber Fmt 4.6, Leading zero omitted, Abs format (unit mm)*
G04 Created by KiCad (PCBNEW 7.0.9) date 2025-04-01 10:19:45*
%MOMM*%
%LPD*%
G01*
G04 APERTURE LIST*
G04 Aperture macros list*
%AMRoundRect*
0 Rectangle with rounded corners*
0 $1 Rounding radius*
0 $2 $3 $4 $5 $6 $7 $8 $9 X,Y pos of 4 corners*
0 Add a 4 corners polygon primitive as box body*
4,1,4,$2,$3,$4,$5,$6,$7,$8,$9,$2,$3,0*
0 Add four circle primitives for the rounded corners*
1,1,$1+$1,$2,$3*
1,1,$1+$1,$4,$5*
1,1,$1+$1,$6,$7*
1,1,$1+$1,$8,$9*
0 Add four rect primitives between the rounded corners*
20,1,$1+$1,$2,$3,$4,$5,0*
20,1,$1+$1,$4,$5,$6,$7,0*
20,1,$1+$1,$6,$7,$8,$9,0*
20,1,$1+$1,$8,$9,$2,$3,0*%
G04 Aperture macros list end*
%ADD10C,2.075000*%
%ADD11C,2.050000*%
%ADD12C,3.575000*%
%ADD13C,3.200000*%
%ADD14RoundRect,0.102000X0.975000X-0.975000X0.975000X0.975000X-0.975000X0.975000X-0.975000X-0.975000X0*%
%ADD15C,2.154000*%
%ADD16R,2.400000X2.400000*%
%ADD17C,2.400000*%
%ADD18O,6.500000X3.500000*%
%ADD19RoundRect,1.525000X1.525000X-2.375000X1.525000X2.375000X-1.525000X2.375000X-1.525000X-2.375000X0*%
%ADD20R,1.700000X1.700000*%
%ADD21O,1.700000X1.700000*%
%ADD22R,2.600000X2.600000*%
%ADD23C,2.600000*%
%ADD24R,2.000000X2.000000*%
%ADD25C,2.000000*%
%ADD26RoundRect,0.200000X0.200000X0.275000X-0.200000X0.275000X-0.200000X-0.275000X0.200000X-0.275000X0*%
%ADD27RoundRect,0.200000X-0.200000X-0.275000X0.200000X-0.275000X0.200000X0.275000X-0.200000X0.275000X0*%
%ADD28RoundRect,0.200000X-0.275000X0.200000X-0.275000X-0.200000X0.275000X-0.200000X0.275000X0.200000X0*%
%ADD29RoundRect,0.200000X0.275000X-0.200000X0.275000X0.200000X-0.275000X0.200000X-0.275000X-0.200000X0*%
%ADD30RoundRect,0.150000X0.150000X-0.512500X0.150000X0.512500X-0.150000X0.512500X-0.150000X-0.512500X0*%
%ADD31RoundRect,0.150000X-0.587500X-0.150000X0.587500X-0.150000X0.587500X0.150000X-0.587500X0.150000X0*%
%ADD32RoundRect,0.140000X-0.140000X-0.170000X0.140000X-0.170000X0.140000X0.170000X-0.140000X0.170000X0*%
%ADD33RoundRect,0.150000X0.150000X-0.587500X0.150000X0.587500X-0.150000X0.587500X-0.150000X-0.587500X0*%
%ADD34RoundRect,0.225000X-0.375000X0.225000X-0.375000X-0.225000X0.375000X-0.225000X0.375000X0.225000X0*%
G04 APERTURE END LIST*
D10*
X368037500Y-168000000D02*
G75*
G03*
X368037500Y-168000000I-1037500J0D01*
G01*
X223037500Y-168000000D02*
G75*
G03*
X223037500Y-168000000I-1037500J0D01*
G01*
X399037500Y-168000000D02*
G75*
G03*
X399037500Y-168000000I-1037500J0D01*
G01*
D11*
X192025000Y-184000000D02*
G75*
G03*
X192025000Y-184000000I-1025000J0D01*
G01*
D10*
X311037500Y-168000000D02*
G75*
G03*
X311037500Y-168000000I-1037500J0D01*
G01*
X399037500Y-184000000D02*
G75*
G03*
X399037500Y-184000000I-1037500J0D01*
G01*
X192037500Y-168000000D02*
G75*
G03*
X192037500Y-168000000I-1037500J0D01*
G01*
X280037500Y-168000000D02*
G75*
G03*
X280037500Y-168000000I-1037500J0D01*
G01*
D12*
X412287500Y-250500000D02*
G75*
G03*
X412287500Y-250500000I-1787500J0D01*
G01*
D10*
X311037500Y-184000000D02*
G75*
G03*
X311037500Y-184000000I-1037500J0D01*
G01*
D12*
X462287500Y-250500000D02*
G75*
G03*
X462287500Y-250500000I-1787500J0D01*
G01*
D11*
X280025000Y-184000000D02*
G75*
G03*
X280025000Y-184000000I-1025000J0D01*
G01*
X368025000Y-184000000D02*
G75*
G03*
X368025000Y-184000000I-1025000J0D01*
G01*
D10*
X223037500Y-184000000D02*
G75*
G03*
X223037500Y-184000000I-1037500J0D01*
G01*
D12*
X462287500Y-315500000D02*
G75*
G03*
X462287500Y-315500000I-1787500J0D01*
G01*
X412287500Y-325500000D02*
G75*
G03*
X412287500Y-325500000I-1787500J0D01*
G01*
D13*
%TO.C,J6*%
X301935000Y-107935000D03*
X301935000Y-102065000D03*
X296065000Y-107935000D03*
X296065000Y-102065000D03*
%TD*%
D14*
%TO.C,J8*%
X454412500Y-185240000D03*
X459412500Y-185240000D03*
D15*
X454412500Y-180160000D03*
X459412500Y-180160000D03*
X454412500Y-175080000D03*
X459412500Y-175080000D03*
X454412500Y-170000000D03*
X459412500Y-170000000D03*
X454412500Y-164920000D03*
X459412500Y-164920000D03*
X454412500Y-159840000D03*
X459412500Y-159840000D03*
%TD*%
D16*
%TO.C,C25*%
X252000000Y-201977780D03*
D17*
X252000000Y-194477780D03*
%TD*%
D18*
%TO.C,K1*%
X442350000Y-235000000D03*
X442350000Y-195000000D03*
D19*
X423600000Y-230200000D03*
X423600000Y-225700000D03*
X423600000Y-204300000D03*
X423600000Y-199800000D03*
%TD*%
D20*
%TO.C,J12*%
X456725000Y-228000000D03*
D21*
X459265000Y-228000000D03*
%TD*%
D13*
%TO.C,J5*%
X216935000Y-107935000D03*
X216935000Y-102065000D03*
X211065000Y-107935000D03*
X211065000Y-102065000D03*
%TD*%
D16*
%TO.C,C27*%
X164000000Y-201977780D03*
D17*
X164000000Y-194477780D03*
%TD*%
D22*
%TO.C,J15*%
X354400000Y-324305000D03*
D23*
X359480000Y-324305000D03*
X364560000Y-324305000D03*
X369640000Y-324305000D03*
X374720000Y-324305000D03*
X379800000Y-324305000D03*
%TD*%
D16*
%TO.C,C23*%
X340000000Y-201977780D03*
D17*
X340000000Y-194477780D03*
%TD*%
D22*
%TO.C,J13*%
X178300000Y-324305000D03*
D23*
X183380000Y-324305000D03*
X188460000Y-324305000D03*
X193540000Y-324305000D03*
X198620000Y-324305000D03*
X203700000Y-324305000D03*
%TD*%
D24*
%TO.C,C28*%
X455632323Y-212000000D03*
D25*
X460632323Y-212000000D03*
%TD*%
D16*
%TO.C,C26*%
X186000000Y-201977780D03*
D17*
X186000000Y-194477780D03*
%TD*%
D16*
%TO.C,C24*%
X274000000Y-201977780D03*
D17*
X274000000Y-194477780D03*
%TD*%
D13*
%TO.C,J10*%
X426935000Y-107935000D03*
X426935000Y-102065000D03*
X421065000Y-107935000D03*
X421065000Y-102065000D03*
%TD*%
%TO.C,J4*%
X196935000Y-107935000D03*
X196935000Y-102065000D03*
X191065000Y-107935000D03*
X191065000Y-102065000D03*
%TD*%
%TO.C,J9*%
X406935000Y-107935000D03*
X406935000Y-102065000D03*
X401065000Y-107935000D03*
X401065000Y-102065000D03*
%TD*%
D14*
%TO.C,J11*%
X454412500Y-147590000D03*
X459412500Y-147590000D03*
D15*
X454412500Y-142510000D03*
X459412500Y-142510000D03*
X454412500Y-137430000D03*
X459412500Y-137430000D03*
X454412500Y-132350000D03*
X459412500Y-132350000D03*
X454412500Y-127270000D03*
X459412500Y-127270000D03*
X454412500Y-122190000D03*
X459412500Y-122190000D03*
%TD*%
D22*
%TO.C,J14*%
X266400000Y-324305000D03*
D23*
X271480000Y-324305000D03*
X276560000Y-324305000D03*
X281640000Y-324305000D03*
X286720000Y-324305000D03*
X291800000Y-324305000D03*
%TD*%
D13*
%TO.C,J7*%
X321935000Y-107935000D03*
X321935000Y-102065000D03*
X316065000Y-107935000D03*
X316065000Y-102065000D03*
%TD*%
D16*
%TO.C,C22*%
X362000000Y-201977780D03*
D17*
X362000000Y-194477780D03*
%TD*%
D26*
%TO.C,R23*%
X185825000Y-168400000D03*
X184175000Y-168400000D03*
%TD*%
D27*
%TO.C,R119*%
X270750000Y-237500000D03*
X272400000Y-237500000D03*
%TD*%
D28*
%TO.C,R58*%
X391500000Y-178275000D03*
X391500000Y-179925000D03*
%TD*%
D29*
%TO.C,R56*%
X374500000Y-184125000D03*
X374500000Y-182475000D03*
%TD*%
D30*
%TO.C,Q26*%
X363950000Y-166037500D03*
X362050000Y-166037500D03*
X363000000Y-163762500D03*
%TD*%
D28*
%TO.C,R38*%
X303500000Y-178275000D03*
X303500000Y-179925000D03*
%TD*%
%TO.C,R18*%
X215500000Y-182475000D03*
X215500000Y-184125000D03*
%TD*%
D31*
%TO.C,Q33*%
X172637500Y-234950000D03*
X172637500Y-233050000D03*
X174512500Y-234000000D03*
%TD*%
%TO.C,Q41*%
X348637501Y-234950000D03*
X348637501Y-233050000D03*
X350512501Y-234000000D03*
%TD*%
D27*
%TO.C,R101*%
X174350000Y-237500000D03*
X176000000Y-237500000D03*
%TD*%
D26*
%TO.C,R65*%
X361825000Y-168400000D03*
X360175000Y-168400000D03*
%TD*%
D28*
%TO.C,R40*%
X303500000Y-182475000D03*
X303500000Y-184125000D03*
%TD*%
D26*
%TO.C,R45*%
X273825000Y-168400000D03*
X272175000Y-168400000D03*
%TD*%
D32*
%TO.C,C31*%
X187040000Y-161900000D03*
X188000000Y-161900000D03*
%TD*%
D27*
%TO.C,R133*%
X350350001Y-237500000D03*
X352000001Y-237500000D03*
%TD*%
D33*
%TO.C,Q22*%
X371950000Y-184337500D03*
X370050000Y-184337500D03*
X371000000Y-182462500D03*
%TD*%
D29*
%TO.C,R34*%
X286500000Y-175725000D03*
X286500000Y-174075000D03*
%TD*%
D27*
%TO.C,R104*%
X178550000Y-237500000D03*
X180200000Y-237500000D03*
%TD*%
D32*
%TO.C,C43*%
X363040000Y-161900000D03*
X364000000Y-161900000D03*
%TD*%
D29*
%TO.C,R35*%
X286500000Y-179925000D03*
X286500000Y-178275000D03*
%TD*%
%TO.C,R13*%
X198500000Y-179925000D03*
X198500000Y-178275000D03*
%TD*%
D28*
%TO.C,R60*%
X391500000Y-182475000D03*
X391500000Y-184125000D03*
%TD*%
D34*
%TO.C,D8*%
X183800000Y-163250000D03*
X183800000Y-166550000D03*
%TD*%
D28*
%TO.C,R16*%
X215500000Y-178275000D03*
X215500000Y-179925000D03*
%TD*%
D33*
%TO.C,Q4*%
X195950000Y-184337500D03*
X194050000Y-184337500D03*
X195000000Y-182462500D03*
%TD*%
%TO.C,Q13*%
X283950000Y-184337500D03*
X282050000Y-184337500D03*
X283000000Y-182462500D03*
%TD*%
D29*
%TO.C,R55*%
X374500000Y-179925000D03*
X374500000Y-178275000D03*
%TD*%
D27*
%TO.C,R121*%
X266550001Y-237500000D03*
X268200001Y-237500000D03*
%TD*%
%TO.C,R102*%
X182750000Y-237500000D03*
X184400000Y-237500000D03*
%TD*%
D28*
%TO.C,R37*%
X303500000Y-174075000D03*
X303500000Y-175725000D03*
%TD*%
D29*
%TO.C,R36*%
X286500000Y-184125000D03*
X286500000Y-182475000D03*
%TD*%
D32*
%TO.C,C37*%
X275040000Y-161900000D03*
X276000000Y-161900000D03*
%TD*%
D34*
%TO.C,D11*%
X271800000Y-163250000D03*
X271800000Y-166550000D03*
%TD*%
D29*
%TO.C,R54*%
X374500000Y-175725000D03*
X374500000Y-174075000D03*
%TD*%
D27*
%TO.C,R134*%
X358750000Y-237500000D03*
X360400000Y-237500000D03*
%TD*%
%TO.C,R136*%
X354550001Y-237500000D03*
X356200001Y-237500000D03*
%TD*%
D29*
%TO.C,R12*%
X198500000Y-175725000D03*
X198500000Y-174075000D03*
%TD*%
D34*
%TO.C,D14*%
X359800000Y-163250000D03*
X359800000Y-166550000D03*
%TD*%
D30*
%TO.C,Q17*%
X275950000Y-166037500D03*
X274050000Y-166037500D03*
X275000000Y-163762500D03*
%TD*%
D28*
%TO.C,R15*%
X215500000Y-174075000D03*
X215500000Y-175725000D03*
%TD*%
%TO.C,R57*%
X391500000Y-174075000D03*
X391500000Y-175725000D03*
%TD*%
D29*
%TO.C,R14*%
X198500000Y-184125000D03*
X198500000Y-182475000D03*
%TD*%
D30*
%TO.C,Q8*%
X187950000Y-166037500D03*
X186050000Y-166037500D03*
X187000000Y-163762500D03*
%TD*%
D27*
%TO.C,R118*%
X262350001Y-237500000D03*
X264000001Y-237500000D03*
%TD*%
D31*
%TO.C,Q37*%
X260637501Y-234950000D03*
X260637501Y-233050000D03*
X262512501Y-234000000D03*
%TD*%
G36*
X198500802Y-114000052D02*
G01*
X198824706Y-114021282D01*
X198827887Y-114021701D01*
X199145470Y-114084871D01*
X199148569Y-114085702D01*
X199455188Y-114189785D01*
X199458152Y-114191013D01*
X199748559Y-114334225D01*
X199751337Y-114335829D01*
X200020568Y-114515724D01*
X200023113Y-114517677D01*
X200266558Y-114731172D01*
X200268827Y-114733441D01*
X200482322Y-114976886D01*
X200484275Y-114979431D01*
X200664170Y-115248662D01*
X200665774Y-115251440D01*
X200808986Y-115541847D01*
X200810214Y-115544811D01*
X200914297Y-115851430D01*
X200915128Y-115854529D01*
X200978298Y-116172112D01*
X200978717Y-116175293D01*
X200999948Y-116499198D01*
X201000000Y-116500801D01*
X201000000Y-131278758D01*
X201000013Y-131286796D01*
X201000052Y-131294835D01*
X201002157Y-131622101D01*
X201003185Y-131679501D01*
X201005531Y-131736862D01*
X201040207Y-132398513D01*
X201044487Y-132463822D01*
X201050476Y-132528996D01*
X201118892Y-133179927D01*
X201126585Y-133244919D01*
X201135976Y-133309688D01*
X201238364Y-133956147D01*
X201249448Y-134020650D01*
X201262216Y-134084841D01*
X201398297Y-134725054D01*
X201412741Y-134788888D01*
X201428852Y-134852322D01*
X201598252Y-135484535D01*
X201616018Y-135547527D01*
X201635426Y-135610031D01*
X201837682Y-136232513D01*
X201858720Y-136294487D01*
X201881372Y-136355888D01*
X202115930Y-136966932D01*
X202140182Y-137027721D01*
X202166018Y-137087855D01*
X202432234Y-137685786D01*
X202459633Y-137745220D01*
X202488579Y-137803917D01*
X202785723Y-138387095D01*
X202816197Y-138445017D01*
X202848177Y-138502121D01*
X203175435Y-139068948D01*
X203208898Y-139125194D01*
X203243821Y-139180545D01*
X203600296Y-139729469D01*
X203636657Y-139783887D01*
X203674430Y-139837334D01*
X204059144Y-140366848D01*
X204098304Y-140419289D01*
X204138823Y-140470686D01*
X204550723Y-140979341D01*
X204592573Y-141029660D01*
X204635726Y-141078867D01*
X205079061Y-141571241D01*
X205117966Y-141613464D01*
X205157830Y-141654782D01*
X205387753Y-141887680D01*
X205393409Y-141893391D01*
X205399080Y-141899080D01*
X205600912Y-142100912D01*
X205606591Y-142106609D01*
X205612252Y-142112324D01*
X205842174Y-142345225D01*
X205882031Y-142386537D01*
X205920930Y-142428754D01*
X206364271Y-142921134D01*
X206407424Y-142970341D01*
X206449274Y-143020660D01*
X206861174Y-143529314D01*
X206901693Y-143580712D01*
X206940853Y-143633153D01*
X207325567Y-144162667D01*
X207363340Y-144216114D01*
X207399701Y-144270532D01*
X207756176Y-144819457D01*
X207791099Y-144874807D01*
X207824562Y-144931052D01*
X208151820Y-145497878D01*
X208183800Y-145554983D01*
X208214274Y-145612905D01*
X208511418Y-146196083D01*
X208540363Y-146254780D01*
X208567763Y-146314214D01*
X208833979Y-146912144D01*
X208859815Y-146972279D01*
X208884068Y-147033068D01*
X209118625Y-147644113D01*
X209141277Y-147705514D01*
X209162314Y-147767487D01*
X209364571Y-148389968D01*
X209383979Y-148452473D01*
X209401745Y-148515465D01*
X209571145Y-149147678D01*
X209587256Y-149211112D01*
X209601700Y-149274946D01*
X209737781Y-149915159D01*
X209750549Y-149979350D01*
X209761633Y-150043853D01*
X209864021Y-150690312D01*
X209873412Y-150755081D01*
X209881105Y-150820073D01*
X209949521Y-151471005D01*
X209955510Y-151536179D01*
X209959790Y-151601489D01*
X209994466Y-152263148D01*
X209996812Y-152320499D01*
X209997841Y-152377889D01*
X209999948Y-152705155D01*
X209999987Y-152713203D01*
X210000000Y-152721252D01*
X210000000Y-156499198D01*
X209999948Y-156500801D01*
X209978717Y-156824706D01*
X209978298Y-156827887D01*
X209915128Y-157145470D01*
X209914297Y-157148569D01*
X209810214Y-157455188D01*
X209808986Y-157458152D01*
X209665774Y-157748559D01*
X209664170Y-157751337D01*
X209484275Y-158020568D01*
X209482322Y-158023113D01*
X209268827Y-158266558D01*
X209266558Y-158268827D01*
X209023113Y-158482322D01*
X209020568Y-158484275D01*
X208751337Y-158664170D01*
X208748559Y-158665774D01*
X208458152Y-158808986D01*
X208455188Y-158810214D01*
X208148569Y-158914297D01*
X208145470Y-158915128D01*
X207827887Y-158978298D01*
X207824706Y-158978717D01*
X207500802Y-158999948D01*
X207499199Y-159000000D01*
X198500801Y-159000000D01*
X198499198Y-158999948D01*
X198175293Y-158978717D01*
X198172112Y-158978298D01*
X197854529Y-158915128D01*
X197851430Y-158914297D01*
X197544811Y-158810214D01*
X197541847Y-158808986D01*
X197251440Y-158665774D01*
X197248662Y-158664170D01*
X196979431Y-158484275D01*
X196976886Y-158482322D01*
X196733441Y-158268827D01*
X196731172Y-158266558D01*
X196517677Y-158023113D01*
X196515724Y-158020568D01*
X196335829Y-157751337D01*
X196334225Y-157748559D01*
X196191013Y-157458152D01*
X196189785Y-157455188D01*
X196085702Y-157148569D01*
X196084871Y-157145470D01*
X196021701Y-156827887D01*
X196021282Y-156824706D01*
X196000052Y-156500801D01*
X196000000Y-156499198D01*
X196000000Y-153721242D01*
X195999987Y-153713204D01*
X195999948Y-153705165D01*
X195997843Y-153377899D01*
X195996815Y-153320499D01*
X195994469Y-153263138D01*
X195959793Y-152601487D01*
X195955513Y-152536178D01*
X195949524Y-152471004D01*
X195881108Y-151820073D01*
X195873415Y-151755081D01*
X195864024Y-151690312D01*
X195761636Y-151043853D01*
X195750552Y-150979350D01*
X195737784Y-150915159D01*
X195601703Y-150274946D01*
X195587259Y-150211112D01*
X195571148Y-150147678D01*
X195401748Y-149515465D01*
X195383982Y-149452473D01*
X195364574Y-149389969D01*
X195162318Y-148767487D01*
X195141280Y-148705513D01*
X195118628Y-148644112D01*
X194884070Y-148033068D01*
X194859818Y-147972279D01*
X194833982Y-147912145D01*
X194567766Y-147314214D01*
X194540367Y-147254780D01*
X194511421Y-147196083D01*
X194214277Y-146612905D01*
X194183803Y-146554983D01*
X194151823Y-146497879D01*
X193824565Y-145931052D01*
X193791102Y-145874806D01*
X193756179Y-145819455D01*
X193399704Y-145270531D01*
X193363343Y-145216113D01*
X193325570Y-145162666D01*
X192940856Y-144633152D01*
X192901696Y-144580711D01*
X192861177Y-144529314D01*
X192449277Y-144020659D01*
X192407427Y-143970340D01*
X192364274Y-143921133D01*
X191920939Y-143428759D01*
X191882034Y-143386536D01*
X191842170Y-143345218D01*
X191612247Y-143112320D01*
X191606591Y-143106609D01*
X191600920Y-143100920D01*
X191399088Y-142899088D01*
X191393409Y-142893391D01*
X191387748Y-142887676D01*
X191157826Y-142654775D01*
X191117969Y-142613463D01*
X191079070Y-142571246D01*
X190635729Y-142078866D01*
X190592576Y-142029659D01*
X190550726Y-141979340D01*
X190138826Y-141470686D01*
X190098307Y-141419288D01*
X190059147Y-141366847D01*
X189674433Y-140837333D01*
X189636660Y-140783886D01*
X189600299Y-140729468D01*
X189243824Y-140180543D01*
X189208901Y-140125193D01*
X189175438Y-140068948D01*
X188848180Y-139502122D01*
X188816200Y-139445017D01*
X188785726Y-139387095D01*
X188488582Y-138803917D01*
X188459637Y-138745220D01*
X188432237Y-138685786D01*
X188166021Y-138087856D01*
X188140185Y-138027721D01*
X188115932Y-137966932D01*
X187881375Y-137355887D01*
X187858723Y-137294486D01*
X187837686Y-137232513D01*
X187635429Y-136610032D01*
X187616021Y-136547527D01*
X187598255Y-136484535D01*
X187428855Y-135852322D01*
X187412744Y-135788888D01*
X187398300Y-135725054D01*
X187262219Y-135084841D01*
X187249451Y-135020650D01*
X187238367Y-134956147D01*
X187135979Y-134309688D01*
X187126588Y-134244919D01*
X187118895Y-134179927D01*
X187050479Y-133528995D01*
X187044490Y-133463821D01*
X187040210Y-133398511D01*
X187005534Y-132736852D01*
X187003188Y-132679501D01*
X187002159Y-132622111D01*
X187000052Y-132294845D01*
X187000013Y-132286797D01*
X187000000Y-132278748D01*
X187000000Y-116500801D01*
X187000052Y-116499198D01*
X187021282Y-116175293D01*
X187021701Y-116172112D01*
X187084871Y-115854529D01*
X187085702Y-115851430D01*
X187189785Y-115544811D01*
X187191013Y-115541847D01*
X187334225Y-115251440D01*
X187335829Y-115248662D01*
X187515724Y-114979431D01*
X187517677Y-114976886D01*
X187731172Y-114733441D01*
X187733441Y-114731172D01*
X187976886Y-114517677D01*
X187979431Y-114515724D01*
X188248662Y-114335829D01*
X188251440Y-114334225D01*
X188541847Y-114191013D01*
X188544811Y-114189785D01*
X188851430Y-114085702D01*
X188854529Y-114084871D01*
X189172112Y-114021701D01*
X189175293Y-114021282D01*
X189499198Y-114000052D01*
X189500801Y-114000000D01*
X198499199Y-114000000D01*
X198500802Y-114000052D01*
G37*
G36*
X160921633Y-202003662D02*
G01*
X160956290Y-202017870D01*
X160982766Y-202043964D01*
X160997731Y-202079006D01*
X161001629Y-202096291D01*
X161004756Y-202174429D01*
X161012673Y-202261292D01*
X161026169Y-202376760D01*
X161047247Y-202520657D01*
X161047247Y-202520656D01*
X161076653Y-202663072D01*
X161090016Y-202719453D01*
X161127653Y-202859919D01*
X161173398Y-202997968D01*
X161193219Y-203052424D01*
X161246906Y-203187562D01*
X161246906Y-203187563D01*
X161308364Y-203319362D01*
X161334372Y-203371149D01*
X161403387Y-203499146D01*
X161479735Y-203622927D01*
X161511576Y-203671337D01*
X161594989Y-203790463D01*
X161685188Y-203904539D01*
X161722437Y-203948930D01*
X161819115Y-204057565D01*
X161921938Y-204160389D01*
X161964089Y-204200156D01*
X162072723Y-204296832D01*
X162186803Y-204387035D01*
X162233282Y-204421638D01*
X162352412Y-204505052D01*
X162352413Y-204505053D01*
X162476174Y-204581390D01*
X162526361Y-204610365D01*
X162654365Y-204679385D01*
X162654366Y-204679385D01*
X162786162Y-204740843D01*
X162839368Y-204763793D01*
X162974523Y-204817488D01*
X163112564Y-204863228D01*
X163168077Y-204879848D01*
X163308547Y-204917487D01*
X163450959Y-204946892D01*
X163508029Y-204956955D01*
X163651909Y-204978031D01*
X163796789Y-204990706D01*
X163854639Y-204994076D01*
X164000000Y-204998305D01*
X164145361Y-204994076D01*
X164203211Y-204990706D01*
X164348091Y-204978031D01*
X164491971Y-204956955D01*
X164549041Y-204946892D01*
X164691453Y-204917487D01*
X164831923Y-204879848D01*
X164887436Y-204863228D01*
X165025477Y-204817488D01*
X165160632Y-204763793D01*
X165213838Y-204740843D01*
X165345634Y-204679385D01*
X165345635Y-204679385D01*
X165473639Y-204610365D01*
X165523826Y-204581390D01*
X165647587Y-204505053D01*
X165647588Y-204505052D01*
X165766718Y-204421638D01*
X165813197Y-204387035D01*
X165927277Y-204296832D01*
X166035911Y-204200156D01*
X166078062Y-204160389D01*
X166180885Y-204057565D01*
X166277563Y-203948930D01*
X166314812Y-203904539D01*
X166405011Y-203790463D01*
X166488424Y-203671337D01*
X166520265Y-203622927D01*
X166596613Y-203499146D01*
X166665628Y-203371149D01*
X166691636Y-203319362D01*
X166753094Y-203187563D01*
X166753094Y-203187562D01*
X166806781Y-203052424D01*
X166826602Y-202997968D01*
X166872347Y-202859919D01*
X166909984Y-202719453D01*
X166923347Y-202663072D01*
X166952753Y-202520656D01*
X166952753Y-202520657D01*
X166973831Y-202376760D01*
X166987327Y-202261292D01*
X166995244Y-202174429D01*
X166998370Y-202096291D01*
X167002268Y-202079006D01*
X167017233Y-202043964D01*
X167043710Y-202017870D01*
X167078368Y-202003662D01*
X167096954Y-202000000D01*
X182903046Y-202000000D01*
X182921633Y-202003662D01*
X182956290Y-202017870D01*
X182982766Y-202043964D01*
X182997731Y-202079006D01*
X183001629Y-202096291D01*
X183004756Y-202174429D01*
X183012673Y-202261292D01*
X183026169Y-202376760D01*
X183047247Y-202520657D01*
X183047247Y-202520656D01*
X183076653Y-202663072D01*
X183090016Y-202719453D01*
X183127653Y-202859919D01*
X183173398Y-202997968D01*
X183193219Y-203052424D01*
X183246906Y-203187562D01*
X183246906Y-203187563D01*
X183308364Y-203319362D01*
X183334372Y-203371149D01*
X183403387Y-203499146D01*
X183479735Y-203622927D01*
X183511576Y-203671337D01*
X183594989Y-203790463D01*
X183685188Y-203904539D01*
X183722437Y-203948930D01*
X183819115Y-204057565D01*
X183921938Y-204160389D01*
X183964089Y-204200156D01*
X184072723Y-204296832D01*
X184186803Y-204387035D01*
X184233282Y-204421638D01*
X184352412Y-204505052D01*
X184352413Y-204505053D01*
X184476174Y-204581390D01*
X184526361Y-204610365D01*
X184654365Y-204679385D01*
X184654366Y-204679385D01*
X184786162Y-204740843D01*
X184839368Y-204763793D01*
X184974523Y-204817488D01*
X185112564Y-204863228D01*
X185168077Y-204879848D01*
X185308547Y-204917487D01*
X185450959Y-204946892D01*
X185508029Y-204956955D01*
X185651909Y-204978031D01*
X185796789Y-204990706D01*
X185854639Y-204994076D01*
X186000000Y-204998305D01*
X186145361Y-204994076D01*
X186203211Y-204990706D01*
X186348091Y-204978031D01*
X186491971Y-204956955D01*
X186549041Y-204946892D01*
X186691453Y-204917487D01*
X186831923Y-204879848D01*
X186887436Y-204863228D01*
X187025477Y-204817488D01*
X187160632Y-204763793D01*
X187213838Y-204740843D01*
X187345634Y-204679385D01*
X187345635Y-204679385D01*
X187473639Y-204610365D01*
X187523826Y-204581390D01*
X187647587Y-204505053D01*
X187647588Y-204505052D01*
X187766718Y-204421638D01*
X187813197Y-204387035D01*
X187927277Y-204296832D01*
X188035911Y-204200156D01*
X188078062Y-204160389D01*
X188180885Y-204057565D01*
X188277563Y-203948930D01*
X188314812Y-203904539D01*
X188405011Y-203790463D01*
X188488424Y-203671337D01*
X188520265Y-203622927D01*
X188596613Y-203499146D01*
X188665628Y-203371149D01*
X188691636Y-203319362D01*
X188753094Y-203187563D01*
X188753094Y-203187562D01*
X188806781Y-203052424D01*
X188826602Y-202997968D01*
X188872347Y-202859919D01*
X188909984Y-202719453D01*
X188923347Y-202663072D01*
X188952753Y-202520656D01*
X188952753Y-202520657D01*
X188973831Y-202376760D01*
X188987327Y-202261292D01*
X188995244Y-202174429D01*
X188998370Y-202096291D01*
X189002268Y-202079006D01*
X189017233Y-202043964D01*
X189043710Y-202017870D01*
X189078368Y-202003662D01*
X189096954Y-202000000D01*
X248903046Y-202000000D01*
X248921633Y-202003662D01*
X248956290Y-202017870D01*
X248982766Y-202043964D01*
X248997731Y-202079006D01*
X249001629Y-202096291D01*
X249004756Y-202174429D01*
X249012673Y-202261292D01*
X249026169Y-202376760D01*
X249047247Y-202520657D01*
X249047247Y-202520656D01*
X249076653Y-202663072D01*
X249090016Y-202719453D01*
X249127653Y-202859919D01*
X249173398Y-202997968D01*
X249193219Y-203052424D01*
X249246906Y-203187562D01*
X249246906Y-203187563D01*
X249308364Y-203319362D01*
X249334372Y-203371149D01*
X249403387Y-203499146D01*
X249479735Y-203622927D01*
X249511576Y-203671337D01*
X249594989Y-203790463D01*
X249685188Y-203904539D01*
X249722437Y-203948930D01*
X249819115Y-204057565D01*
X249921938Y-204160389D01*
X249964089Y-204200156D01*
X250072723Y-204296832D01*
X250186803Y-204387035D01*
X250233282Y-204421638D01*
X250352412Y-204505052D01*
X250352413Y-204505053D01*
X250476174Y-204581390D01*
X250526361Y-204610365D01*
X250654365Y-204679385D01*
X250654366Y-204679385D01*
X250786162Y-204740843D01*
X250839368Y-204763793D01*
X250974523Y-204817488D01*
X251112564Y-204863228D01*
X251168077Y-204879848D01*
X251308547Y-204917487D01*
X251450959Y-204946892D01*
X251508029Y-204956955D01*
X251651909Y-204978031D01*
X251796789Y-204990706D01*
X251854639Y-204994076D01*
X252000000Y-204998305D01*
X252145361Y-204994076D01*
X252203211Y-204990706D01*
X252348091Y-204978031D01*
X252491971Y-204956955D01*
X252549041Y-204946892D01*
X252691453Y-204917487D01*
X252831923Y-204879848D01*
X252887436Y-204863228D01*
X253025477Y-204817488D01*
X253160632Y-204763793D01*
X253213838Y-204740843D01*
X253345634Y-204679385D01*
X253345635Y-204679385D01*
X253473639Y-204610365D01*
X253523826Y-204581390D01*
X253647587Y-204505053D01*
X253647588Y-204505052D01*
X253766718Y-204421638D01*
X253813197Y-204387035D01*
X253927277Y-204296832D01*
X254035911Y-204200156D01*
X254078062Y-204160389D01*
X254180885Y-204057565D01*
X254277563Y-203948930D01*
X254314812Y-203904539D01*
X254405011Y-203790463D01*
X254488424Y-203671337D01*
X254520265Y-203622927D01*
X254596613Y-203499146D01*
X254665628Y-203371149D01*
X254691636Y-203319362D01*
X254753094Y-203187563D01*
X254753094Y-203187562D01*
X254806781Y-203052424D01*
X254826602Y-202997968D01*
X254872347Y-202859919D01*
X254909984Y-202719453D01*
X254923347Y-202663072D01*
X254952753Y-202520656D01*
X254952753Y-202520657D01*
X254973831Y-202376760D01*
X254987327Y-202261292D01*
X254995244Y-202174429D01*
X254998370Y-202096291D01*
X255002268Y-202079006D01*
X255017233Y-202043964D01*
X255043710Y-202017870D01*
X255078368Y-202003662D01*
X255096954Y-202000000D01*
X270903046Y-202000000D01*
X270921633Y-202003662D01*
X270956290Y-202017870D01*
X270982766Y-202043964D01*
X270997731Y-202079006D01*
X271001629Y-202096291D01*
X271004756Y-202174429D01*
X271012673Y-202261292D01*
X271026169Y-202376760D01*
X271047247Y-202520657D01*
X271047247Y-202520656D01*
X271076653Y-202663072D01*
X271090016Y-202719453D01*
X271127653Y-202859919D01*
X271173398Y-202997968D01*
X271193219Y-203052424D01*
X271246906Y-203187562D01*
X271246906Y-203187563D01*
X271308364Y-203319362D01*
X271334372Y-203371149D01*
X271403387Y-203499146D01*
X271479735Y-203622927D01*
X271511576Y-203671337D01*
X271594989Y-203790463D01*
X271685188Y-203904539D01*
X271722437Y-203948930D01*
X271819115Y-204057565D01*
X271921938Y-204160389D01*
X271964089Y-204200156D01*
X272072723Y-204296832D01*
X272186803Y-204387035D01*
X272233282Y-204421638D01*
X272352412Y-204505052D01*
X272352413Y-204505053D01*
X272476174Y-204581390D01*
X272526361Y-204610365D01*
X272654365Y-204679385D01*
X272654366Y-204679385D01*
X272786162Y-204740843D01*
X272839368Y-204763793D01*
X272974523Y-204817488D01*
X273112564Y-204863228D01*
X273168077Y-204879848D01*
X273308547Y-204917487D01*
X273450959Y-204946892D01*
X273508029Y-204956955D01*
X273651909Y-204978031D01*
X273796789Y-204990706D01*
X273854639Y-204994076D01*
X274000000Y-204998305D01*
X274145361Y-204994076D01*
X274203211Y-204990706D01*
X274348091Y-204978031D01*
X274491971Y-204956955D01*
X274549041Y-204946892D01*
X274691453Y-204917487D01*
X274831923Y-204879848D01*
X274887436Y-204863228D01*
X275025477Y-204817488D01*
X275160632Y-204763793D01*
X275213838Y-204740843D01*
X275345634Y-204679385D01*
X275345635Y-204679385D01*
X275473639Y-204610365D01*
X275523826Y-204581390D01*
X275647587Y-204505053D01*
X275647588Y-204505052D01*
X275766718Y-204421638D01*
X275813197Y-204387035D01*
X275927277Y-204296832D01*
X276035911Y-204200156D01*
X276078062Y-204160389D01*
X276180885Y-204057565D01*
X276277563Y-203948930D01*
X276314812Y-203904539D01*
X276405011Y-203790463D01*
X276488424Y-203671337D01*
X276520265Y-203622927D01*
X276596613Y-203499146D01*
X276665628Y-203371149D01*
X276691636Y-203319362D01*
X276753094Y-203187563D01*
X276753094Y-203187562D01*
X276806781Y-203052424D01*
X276826602Y-202997968D01*
X276872347Y-202859919D01*
X276909984Y-202719453D01*
X276923347Y-202663072D01*
X276952753Y-202520656D01*
X276952753Y-202520657D01*
X276973831Y-202376760D01*
X276987327Y-202261292D01*
X276995244Y-202174429D01*
X276998370Y-202096291D01*
X277002268Y-202079006D01*
X277017233Y-202043964D01*
X277043710Y-202017870D01*
X277078368Y-202003662D01*
X277096954Y-202000000D01*
X336903046Y-202000000D01*
X336921633Y-202003662D01*
X336956290Y-202017870D01*
X336982766Y-202043964D01*
X336997731Y-202079006D01*
X337001629Y-202096291D01*
X337004756Y-202174429D01*
X337012673Y-202261292D01*
X337026169Y-202376760D01*
X337047247Y-202520657D01*
X337047247Y-202520656D01*
X337076653Y-202663072D01*
X337090016Y-202719453D01*
X337127653Y-202859919D01*
X337173398Y-202997968D01*
X337193219Y-203052424D01*
X337246906Y-203187562D01*
X337246906Y-203187563D01*
X337308364Y-203319362D01*
X337334372Y-203371149D01*
X337403387Y-203499146D01*
X337479735Y-203622927D01*
X337511576Y-203671337D01*
X337594989Y-203790463D01*
X337685188Y-203904539D01*
X337722437Y-203948930D01*
X337819115Y-204057565D01*
X337921938Y-204160389D01*
X337964089Y-204200156D01*
X338072723Y-204296832D01*
X338186803Y-204387035D01*
X338233282Y-204421638D01*
X338352412Y-204505052D01*
X338352413Y-204505053D01*
X338476174Y-204581390D01*
X338526361Y-204610365D01*
X338654365Y-204679385D01*
X338654366Y-204679385D01*
X338786162Y-204740843D01*
X338839368Y-204763793D01*
X338974523Y-204817488D01*
X339112564Y-204863228D01*
X339168077Y-204879848D01*
X339308547Y-204917487D01*
X339450959Y-204946892D01*
X339508029Y-204956955D01*
X339651909Y-204978031D01*
X339796789Y-204990706D01*
X339854639Y-204994076D01*
X340000000Y-204998305D01*
X340145361Y-204994076D01*
X340203211Y-204990706D01*
X340348091Y-204978031D01*
X340491971Y-204956955D01*
X340549041Y-204946892D01*
X340691453Y-204917487D01*
X340831923Y-204879848D01*
X340887436Y-204863228D01*
X341025477Y-204817488D01*
X341160632Y-204763793D01*
X341213838Y-204740843D01*
X341345634Y-204679385D01*
X341345635Y-204679385D01*
X341473639Y-204610365D01*
X341523826Y-204581390D01*
X341647587Y-204505053D01*
X341647588Y-204505052D01*
X341766718Y-204421638D01*
X341813197Y-204387035D01*
X341927277Y-204296832D01*
X342035911Y-204200156D01*
X342078062Y-204160389D01*
X342180885Y-204057565D01*
X342277563Y-203948930D01*
X342314812Y-203904539D01*
X342405011Y-203790463D01*
X342488424Y-203671337D01*
X342520265Y-203622927D01*
X342596613Y-203499146D01*
X342665628Y-203371149D01*
X342691636Y-203319362D01*
X342753094Y-203187563D01*
X342753094Y-203187562D01*
X342806781Y-203052424D01*
X342826602Y-202997968D01*
X342872347Y-202859919D01*
X342909984Y-202719453D01*
X342923347Y-202663072D01*
X342952753Y-202520656D01*
X342952753Y-202520657D01*
X342973831Y-202376760D01*
X342987327Y-202261292D01*
X342995244Y-202174429D01*
X342998370Y-202096291D01*
X343002268Y-202079006D01*
X343017233Y-202043964D01*
X343043710Y-202017870D01*
X343078368Y-202003662D01*
X343096954Y-202000000D01*
X358903046Y-202000000D01*
X358921633Y-202003662D01*
X358956290Y-202017870D01*
X358982766Y-202043964D01*
X358997731Y-202079006D01*
X359001629Y-202096291D01*
X359004756Y-202174429D01*
X359012673Y-202261292D01*
X359026169Y-202376760D01*
X359047247Y-202520657D01*
X359047247Y-202520656D01*
X359076653Y-202663072D01*
X359090016Y-202719453D01*
X359127653Y-202859919D01*
X359173398Y-202997968D01*
X359193219Y-203052424D01*
X359246906Y-203187562D01*
X359246906Y-203187563D01*
X359308364Y-203319362D01*
X359334372Y-203371149D01*
X359403387Y-203499146D01*
X359479735Y-203622927D01*
X359511576Y-203671337D01*
X359594989Y-203790463D01*
X359685188Y-203904539D01*
X359722437Y-203948930D01*
X359819115Y-204057565D01*
X359921938Y-204160389D01*
X359964089Y-204200156D01*
X360072723Y-204296832D01*
X360186803Y-204387035D01*
X360233282Y-204421638D01*
X360352412Y-204505052D01*
X360352413Y-204505053D01*
X360476174Y-204581390D01*
X360526361Y-204610365D01*
X360654365Y-204679385D01*
X360654366Y-204679385D01*
X360786162Y-204740843D01*
X360839368Y-204763793D01*
X360974523Y-204817488D01*
X361112564Y-204863228D01*
X361168077Y-204879848D01*
X361308547Y-204917487D01*
X361450959Y-204946892D01*
X361508029Y-204956955D01*
X361651909Y-204978031D01*
X361796789Y-204990706D01*
X361854639Y-204994076D01*
X362000000Y-204998305D01*
X362145361Y-204994076D01*
X362203211Y-204990706D01*
X362348091Y-204978031D01*
X362491971Y-204956955D01*
X362549041Y-204946892D01*
X362691453Y-204917487D01*
X362831923Y-204879848D01*
X362887436Y-204863228D01*
X363025477Y-204817488D01*
X363160632Y-204763793D01*
X363213838Y-204740843D01*
X363345634Y-204679385D01*
X363345635Y-204679385D01*
X363473639Y-204610365D01*
X363523826Y-204581390D01*
X363647587Y-204505053D01*
X363647588Y-204505052D01*
X363766718Y-204421638D01*
X363813197Y-204387035D01*
X363927277Y-204296832D01*
X364035911Y-204200156D01*
X364078062Y-204160389D01*
X364180885Y-204057565D01*
X364277563Y-203948930D01*
X364314812Y-203904539D01*
X364405011Y-203790463D01*
X364488424Y-203671337D01*
X364520265Y-203622927D01*
X364596613Y-203499146D01*
X364665628Y-203371149D01*
X364691636Y-203319362D01*
X364753094Y-203187563D01*
X364753094Y-203187562D01*
X364806781Y-203052424D01*
X364826602Y-202997968D01*
X364872347Y-202859919D01*
X364909984Y-202719453D01*
X364923347Y-202663072D01*
X364952753Y-202520656D01*
X364952753Y-202520657D01*
X364973831Y-202376760D01*
X364987327Y-202261292D01*
X364995244Y-202174429D01*
X364998370Y-202096291D01*
X365002268Y-202079006D01*
X365017233Y-202043964D01*
X365043710Y-202017870D01*
X365078368Y-202003662D01*
X365096954Y-202000000D01*
X385499199Y-202000000D01*
X385500802Y-202000052D01*
X385824706Y-202021282D01*
X385827887Y-202021701D01*
X386145470Y-202084871D01*
X386148569Y-202085702D01*
X386455188Y-202189785D01*
X386458152Y-202191013D01*
X386748559Y-202334225D01*
X386751337Y-202335829D01*
X387020568Y-202515724D01*
X387023113Y-202517677D01*
X387266558Y-202731172D01*
X387268827Y-202733441D01*
X387482322Y-202976886D01*
X387484275Y-202979431D01*
X387664170Y-203248662D01*
X387665774Y-203251440D01*
X387808986Y-203541847D01*
X387810214Y-203544811D01*
X387914297Y-203851430D01*
X387915128Y-203854529D01*
X387978298Y-204172112D01*
X387978717Y-204175293D01*
X387999948Y-204499198D01*
X388000000Y-204500801D01*
X388000000Y-209999198D01*
X387999948Y-210000801D01*
X387978717Y-210324706D01*
X387978298Y-210327887D01*
X387915128Y-210645470D01*
X387914297Y-210648569D01*
X387810214Y-210955188D01*
X387808986Y-210958152D01*
X387665774Y-211248559D01*
X387664170Y-211251337D01*
X387484275Y-211520568D01*
X387482322Y-211523113D01*
X387268827Y-211766558D01*
X387266558Y-211768827D01*
X387023113Y-211982322D01*
X387020568Y-211984275D01*
X386751337Y-212164170D01*
X386748559Y-212165774D01*
X386458152Y-212308986D01*
X386455188Y-212310214D01*
X386148569Y-212414297D01*
X386145470Y-212415128D01*
X385827887Y-212478298D01*
X385824706Y-212478717D01*
X385500802Y-212499948D01*
X385499199Y-212500000D01*
X159000801Y-212500000D01*
X158999198Y-212499948D01*
X158675293Y-212478717D01*
X158672112Y-212478298D01*
X158354529Y-212415128D01*
X158351430Y-212414297D01*
X158044811Y-212310214D01*
X158041847Y-212308986D01*
X157751440Y-212165774D01*
X157748662Y-212164170D01*
X157479431Y-211984275D01*
X157476886Y-211982322D01*
X157233441Y-211768827D01*
X157231172Y-211766558D01*
X157017677Y-211523113D01*
X157015724Y-211520568D01*
X156835829Y-211251337D01*
X156834225Y-211248559D01*
X156691013Y-210958152D01*
X156689785Y-210955188D01*
X156585702Y-210648569D01*
X156584871Y-210645470D01*
X156521701Y-210327887D01*
X156521282Y-210324706D01*
X156500052Y-210000801D01*
X156500000Y-209999198D01*
X156500000Y-204250801D01*
X156500052Y-204249198D01*
X156519144Y-203957916D01*
X156519563Y-203954735D01*
X156576350Y-203669241D01*
X156577181Y-203666142D01*
X156670755Y-203390482D01*
X156671983Y-203387518D01*
X156800732Y-203126440D01*
X156802336Y-203123662D01*
X156964062Y-202881622D01*
X156966015Y-202879077D01*
X157157950Y-202660218D01*
X157160218Y-202657950D01*
X157379077Y-202466015D01*
X157381622Y-202464062D01*
X157623662Y-202302336D01*
X157626440Y-202300732D01*
X157887518Y-202171983D01*
X157890482Y-202170755D01*
X158166142Y-202077181D01*
X158169241Y-202076350D01*
X158454735Y-202019563D01*
X158457916Y-202019144D01*
X158749198Y-202000052D01*
X158750801Y-202000000D01*
X160903046Y-202000000D01*
X160921633Y-202003662D01*
G37*
G36*
X408403185Y-113919870D02*
G01*
X408727089Y-113941100D01*
X408730270Y-113941519D01*
X409047853Y-114004689D01*
X409050952Y-114005520D01*
X409357571Y-114109603D01*
X409360535Y-114110831D01*
X409650942Y-114254043D01*
X409653720Y-114255647D01*
X409922951Y-114435542D01*
X409925496Y-114437495D01*
X410168941Y-114650990D01*
X410171210Y-114653259D01*
X410384705Y-114896704D01*
X410386658Y-114899249D01*
X410566553Y-115168480D01*
X410568157Y-115171258D01*
X410711369Y-115461665D01*
X410712597Y-115464629D01*
X410816680Y-115771248D01*
X410817511Y-115774347D01*
X410880681Y-116091930D01*
X410881100Y-116095111D01*
X410902331Y-116419016D01*
X410902383Y-116420619D01*
X410902383Y-132198620D01*
X410902370Y-132206614D01*
X410902332Y-132214609D01*
X410900239Y-132541873D01*
X410899211Y-132599319D01*
X410896863Y-132656725D01*
X410862189Y-133318333D01*
X410857909Y-133383640D01*
X410851920Y-133448813D01*
X410783504Y-134099743D01*
X410775811Y-134164738D01*
X410766420Y-134229510D01*
X410664030Y-134875968D01*
X410652946Y-134940470D01*
X410640178Y-135004660D01*
X410504096Y-135644873D01*
X410489652Y-135708707D01*
X410473541Y-135772141D01*
X410304140Y-136404355D01*
X410286374Y-136467346D01*
X410266966Y-136529850D01*
X410064709Y-137152331D01*
X410043671Y-137214307D01*
X410021018Y-137275711D01*
X409786459Y-137886754D01*
X409762207Y-137947541D01*
X409736373Y-138007673D01*
X409470156Y-138605603D01*
X409442755Y-138665040D01*
X409413808Y-138723739D01*
X409116664Y-139306916D01*
X409086190Y-139364837D01*
X409054210Y-139421941D01*
X408726951Y-139988768D01*
X408693488Y-140045013D01*
X408658565Y-140100363D01*
X408302090Y-140649286D01*
X408265728Y-140703706D01*
X408227953Y-140757155D01*
X407843237Y-141286668D01*
X407804079Y-141339107D01*
X407763562Y-141390503D01*
X407351659Y-141899159D01*
X407309809Y-141949478D01*
X407266656Y-141998685D01*
X406823316Y-142491063D01*
X406784415Y-142533282D01*
X406744555Y-142574596D01*
X406514632Y-142807497D01*
X406508974Y-142813209D01*
X406503298Y-142818903D01*
X406301521Y-143020680D01*
X406295788Y-143026431D01*
X406290076Y-143032198D01*
X406060172Y-143265108D01*
X406020366Y-143306371D01*
X405981517Y-143348535D01*
X405538130Y-143840969D01*
X405494977Y-143890176D01*
X405453126Y-143940495D01*
X405041229Y-144449150D01*
X405000711Y-144500546D01*
X404961552Y-144552986D01*
X404576839Y-145082500D01*
X404539066Y-145135947D01*
X404502705Y-145190365D01*
X404146232Y-145739288D01*
X404111309Y-145794639D01*
X404077846Y-145850885D01*
X403750589Y-146417712D01*
X403718610Y-146474814D01*
X403688137Y-146532736D01*
X403390995Y-147115911D01*
X403362048Y-147174611D01*
X403334647Y-147234048D01*
X403068433Y-147831977D01*
X403042599Y-147892109D01*
X403018348Y-147952895D01*
X402783791Y-148563939D01*
X402761138Y-148625342D01*
X402740100Y-148687317D01*
X402537845Y-149309796D01*
X402518438Y-149372299D01*
X402500673Y-149435291D01*
X402331273Y-150067503D01*
X402315162Y-150130938D01*
X402300718Y-150194774D01*
X402164638Y-150834986D01*
X402151871Y-150899174D01*
X402140787Y-150963674D01*
X402038399Y-151610131D01*
X402029008Y-151674903D01*
X402021315Y-151739899D01*
X401952901Y-152390826D01*
X401946912Y-152455999D01*
X401942632Y-152521307D01*
X401907950Y-153183096D01*
X401905608Y-153240318D01*
X401904577Y-153297579D01*
X401902436Y-153624845D01*
X401902396Y-153633021D01*
X401902383Y-153641197D01*
X401902383Y-156419016D01*
X401902331Y-156420619D01*
X401881100Y-156744524D01*
X401880681Y-156747705D01*
X401817511Y-157065288D01*
X401816680Y-157068387D01*
X401712597Y-157375006D01*
X401711369Y-157377970D01*
X401568157Y-157668377D01*
X401566553Y-157671155D01*
X401386658Y-157940386D01*
X401384705Y-157942931D01*
X401171210Y-158186376D01*
X401168941Y-158188645D01*
X400925496Y-158402140D01*
X400922951Y-158404093D01*
X400653720Y-158583988D01*
X400650942Y-158585592D01*
X400360535Y-158728804D01*
X400357571Y-158730032D01*
X400050952Y-158834115D01*
X400047853Y-158834946D01*
X399730270Y-158898116D01*
X399727089Y-158898535D01*
X399403185Y-158919766D01*
X399401582Y-158919818D01*
X390403184Y-158919818D01*
X390401581Y-158919766D01*
X390077676Y-158898535D01*
X390074495Y-158898116D01*
X389756912Y-158834946D01*
X389753813Y-158834115D01*
X389447194Y-158730032D01*
X389444230Y-158728804D01*
X389153823Y-158585592D01*
X389151045Y-158583988D01*
X388881814Y-158404093D01*
X388879269Y-158402140D01*
X388635824Y-158188645D01*
X388633555Y-158186376D01*
X388420060Y-157942931D01*
X388418107Y-157940386D01*
X388238212Y-157671155D01*
X388236608Y-157668377D01*
X388093396Y-157377970D01*
X388092168Y-157375006D01*
X387988085Y-157068387D01*
X387987254Y-157065288D01*
X387924084Y-156747705D01*
X387923665Y-156744524D01*
X387902435Y-156420619D01*
X387902383Y-156419016D01*
X387902383Y-152641265D01*
X387902397Y-152633021D01*
X387902437Y-152624780D01*
X387904596Y-152297514D01*
X387905627Y-152240319D01*
X387907967Y-152183164D01*
X387942653Y-151521310D01*
X387946933Y-151456001D01*
X387952922Y-151390828D01*
X388021336Y-150739900D01*
X388029029Y-150674906D01*
X388038420Y-150610136D01*
X388140807Y-149963681D01*
X388151891Y-149899177D01*
X388164659Y-149834986D01*
X388300739Y-149194775D01*
X388315183Y-149130942D01*
X388331293Y-149067509D01*
X388500693Y-148435297D01*
X388518458Y-148372306D01*
X388537866Y-148309802D01*
X388740120Y-147687323D01*
X388761157Y-147625348D01*
X388783810Y-147563946D01*
X389018366Y-146952905D01*
X389042618Y-146892116D01*
X389068453Y-146831983D01*
X389334666Y-146234056D01*
X389362068Y-146174619D01*
X389391014Y-146115920D01*
X389688156Y-145532743D01*
X389718629Y-145474824D01*
X389750608Y-145417722D01*
X390077864Y-144850895D01*
X390111327Y-144794649D01*
X390146250Y-144739298D01*
X390502722Y-144190378D01*
X390539083Y-144135958D01*
X390576857Y-144082510D01*
X390961569Y-143552998D01*
X391000728Y-143500558D01*
X391041246Y-143449161D01*
X391453144Y-142940507D01*
X391494994Y-142890189D01*
X391538146Y-142840982D01*
X391981580Y-142348498D01*
X392020382Y-142306383D01*
X392060140Y-142265168D01*
X392290032Y-142032245D01*
X392295794Y-142026426D01*
X392301571Y-142020630D01*
X392503266Y-141818934D01*
X392508976Y-141813207D01*
X392514665Y-141807460D01*
X392744582Y-141574550D01*
X392784406Y-141533271D01*
X392823272Y-141491089D01*
X393266645Y-140998675D01*
X393309799Y-140949467D01*
X393351650Y-140899147D01*
X393763551Y-140390492D01*
X393804068Y-140339097D01*
X393843226Y-140286658D01*
X394227942Y-139757145D01*
X394265716Y-139703697D01*
X394302077Y-139649278D01*
X394658552Y-139100357D01*
X394693476Y-139045005D01*
X394726940Y-138988758D01*
X395054198Y-138421931D01*
X395086177Y-138364829D01*
X395116650Y-138306910D01*
X395413795Y-137723732D01*
X395442741Y-137665033D01*
X395470143Y-137605596D01*
X395736359Y-137007668D01*
X395762194Y-136947535D01*
X395786447Y-136886746D01*
X396021005Y-136275704D01*
X396043657Y-136214301D01*
X396064695Y-136152327D01*
X396266952Y-135529846D01*
X396286360Y-135467342D01*
X396304126Y-135404350D01*
X396473528Y-134772137D01*
X396489638Y-134708703D01*
X396504082Y-134644868D01*
X396640164Y-134004658D01*
X396652932Y-133940467D01*
X396664016Y-133875963D01*
X396766405Y-133229506D01*
X396775796Y-133164736D01*
X396783489Y-133099742D01*
X396851905Y-132448812D01*
X396857894Y-132383639D01*
X396862174Y-132318331D01*
X396896851Y-131656678D01*
X396899197Y-131599318D01*
X396900225Y-131541920D01*
X396902331Y-131214656D01*
X396902370Y-131206614D01*
X396902383Y-131198573D01*
X396902383Y-116420619D01*
X396902435Y-116419016D01*
X396923665Y-116095111D01*
X396924084Y-116091930D01*
X396987254Y-115774347D01*
X396988085Y-115771248D01*
X397092168Y-115464629D01*
X397093396Y-115461665D01*
X397236608Y-115171258D01*
X397238212Y-115168480D01*
X397418107Y-114899249D01*
X397420060Y-114896704D01*
X397633555Y-114653259D01*
X397635824Y-114650990D01*
X397879269Y-114437495D01*
X397881814Y-114435542D01*
X398151045Y-114255647D01*
X398153823Y-114254043D01*
X398444230Y-114110831D01*
X398447194Y-114109603D01*
X398753813Y-114005520D01*
X398756912Y-114004689D01*
X399074495Y-113941519D01*
X399077676Y-113941100D01*
X399401581Y-113919870D01*
X399403184Y-113919818D01*
X408401582Y-113919818D01*
X408403185Y-113919870D01*
G37*
G36*
X303502018Y-114011451D02*
G01*
X303822261Y-114032440D01*
X303830311Y-114033500D01*
X304143056Y-114095709D01*
X304150897Y-114097810D01*
X304452856Y-114200310D01*
X304460357Y-114203417D01*
X304746351Y-114344454D01*
X304753382Y-114348514D01*
X305018521Y-114525674D01*
X305024962Y-114530616D01*
X305264708Y-114740868D01*
X305270449Y-114746609D01*
X305480701Y-114986355D01*
X305485643Y-114992796D01*
X305662803Y-115257935D01*
X305666863Y-115264966D01*
X305807900Y-115550960D01*
X305811007Y-115558461D01*
X305913507Y-115860420D01*
X305915608Y-115868261D01*
X305977817Y-116181006D01*
X305978877Y-116189055D01*
X305999867Y-116509299D01*
X306000000Y-116513355D01*
X306000000Y-156497962D01*
X305999867Y-156502018D01*
X305978877Y-156822262D01*
X305977817Y-156830311D01*
X305915608Y-157143056D01*
X305913507Y-157150897D01*
X305811007Y-157452856D01*
X305807900Y-157460357D01*
X305666863Y-157746351D01*
X305662803Y-157753382D01*
X305485643Y-158018521D01*
X305480701Y-158024962D01*
X305270449Y-158264708D01*
X305264708Y-158270449D01*
X305024962Y-158480701D01*
X305018521Y-158485643D01*
X304753382Y-158662803D01*
X304746351Y-158666863D01*
X304460357Y-158807900D01*
X304452856Y-158811007D01*
X304150897Y-158913507D01*
X304143056Y-158915608D01*
X303830311Y-158977817D01*
X303822262Y-158978877D01*
X303502018Y-158999867D01*
X303497962Y-159000000D01*
X294502038Y-159000000D01*
X294497982Y-158999867D01*
X294177737Y-158978877D01*
X294169688Y-158977817D01*
X293856943Y-158915608D01*
X293849102Y-158913507D01*
X293547143Y-158811007D01*
X293539642Y-158807900D01*
X293253648Y-158666863D01*
X293246617Y-158662803D01*
X292981478Y-158485643D01*
X292975037Y-158480701D01*
X292735291Y-158270449D01*
X292729550Y-158264708D01*
X292519298Y-158024962D01*
X292514356Y-158018521D01*
X292337196Y-157753382D01*
X292333136Y-157746351D01*
X292192099Y-157460357D01*
X292188992Y-157452856D01*
X292086492Y-157150897D01*
X292084391Y-157143056D01*
X292022182Y-156830311D01*
X292021122Y-156822261D01*
X292000133Y-156502018D01*
X292000000Y-156497962D01*
X292000000Y-116513355D01*
X292000133Y-116509299D01*
X292021122Y-116189056D01*
X292022182Y-116181006D01*
X292084391Y-115868261D01*
X292086492Y-115860420D01*
X292188992Y-115558461D01*
X292192099Y-115550960D01*
X292333136Y-115264966D01*
X292337196Y-115257935D01*
X292514356Y-114992796D01*
X292519298Y-114986355D01*
X292729550Y-114746609D01*
X292735291Y-114740868D01*
X292975037Y-114530616D01*
X292981478Y-114525674D01*
X293246617Y-114348514D01*
X293253648Y-114344454D01*
X293539642Y-114203417D01*
X293547143Y-114200310D01*
X293849102Y-114097810D01*
X293856943Y-114095709D01*
X294169688Y-114033500D01*
X294177738Y-114032440D01*
X294497982Y-114011451D01*
X294502038Y-114011318D01*
X303497962Y-114011318D01*
X303502018Y-114011451D01*
G37*
M02*
