%TF.GenerationSoftware,KiCad,Pcbnew,7.0.9*%
%TF.CreationDate,2025-04-01T10:19:45-06:00*%
%TF.ProjectId,2023-24_Power_Supply,32303233-2d32-4345-9f50-6f7765725f53,rev?*%
%TF.SameCoordinates,Original*%
%TF.FileFunction,Paste,Bot*%
%TF.FilePolarity,Positive*%
%FSLAX46Y46*%
G04 Gerber Fmt 4.6, Leading zero omitted, Abs format (unit mm)*
G04 Created by KiCad (PCBNEW 7.0.9) date 2025-04-01 10:19:45*
%MOMM*%
%LPD*%
G01*
G04 APERTURE LIST*
G04 Aperture macros list*
%AMRoundRect*
0 Rectangle with rounded corners*
0 $1 Rounding radius*
0 $2 $3 $4 $5 $6 $7 $8 $9 X,Y pos of 4 corners*
0 Add a 4 corners polygon primitive as box body*
4,1,4,$2,$3,$4,$5,$6,$7,$8,$9,$2,$3,0*
0 Add four circle primitives for the rounded corners*
1,1,$1+$1,$2,$3*
1,1,$1+$1,$4,$5*
1,1,$1+$1,$6,$7*
1,1,$1+$1,$8,$9*
0 Add four rect primitives between the rounded corners*
20,1,$1+$1,$2,$3,$4,$5,0*
20,1,$1+$1,$4,$5,$6,$7,0*
20,1,$1+$1,$6,$7,$8,$9,0*
20,1,$1+$1,$8,$9,$2,$3,0*%
G04 Aperture macros list end*
%ADD10RoundRect,0.200000X0.200000X0.275000X-0.200000X0.275000X-0.200000X-0.275000X0.200000X-0.275000X0*%
%ADD11RoundRect,0.200000X-0.200000X-0.275000X0.200000X-0.275000X0.200000X0.275000X-0.200000X0.275000X0*%
%ADD12RoundRect,0.200000X-0.275000X0.200000X-0.275000X-0.200000X0.275000X-0.200000X0.275000X0.200000X0*%
%ADD13RoundRect,0.200000X0.275000X-0.200000X0.275000X0.200000X-0.275000X0.200000X-0.275000X-0.200000X0*%
%ADD14RoundRect,0.150000X0.150000X-0.512500X0.150000X0.512500X-0.150000X0.512500X-0.150000X-0.512500X0*%
%ADD15RoundRect,0.150000X-0.587500X-0.150000X0.587500X-0.150000X0.587500X0.150000X-0.587500X0.150000X0*%
%ADD16RoundRect,0.140000X-0.140000X-0.170000X0.140000X-0.170000X0.140000X0.170000X-0.140000X0.170000X0*%
%ADD17RoundRect,0.150000X0.150000X-0.587500X0.150000X0.587500X-0.150000X0.587500X-0.150000X-0.587500X0*%
%ADD18RoundRect,0.225000X-0.375000X0.225000X-0.375000X-0.225000X0.375000X-0.225000X0.375000X0.225000X0*%
G04 APERTURE END LIST*
D10*
%TO.C,R23*%
X185825000Y-168400000D03*
X184175000Y-168400000D03*
%TD*%
D11*
%TO.C,R119*%
X270750000Y-237500000D03*
X272400000Y-237500000D03*
%TD*%
D12*
%TO.C,R58*%
X391500000Y-178275000D03*
X391500000Y-179925000D03*
%TD*%
D13*
%TO.C,R56*%
X374500000Y-184125000D03*
X374500000Y-182475000D03*
%TD*%
D14*
%TO.C,Q26*%
X363950000Y-166037500D03*
X362050000Y-166037500D03*
X363000000Y-163762500D03*
%TD*%
D12*
%TO.C,R38*%
X303500000Y-178275000D03*
X303500000Y-179925000D03*
%TD*%
%TO.C,R18*%
X215500000Y-182475000D03*
X215500000Y-184125000D03*
%TD*%
D15*
%TO.C,Q33*%
X172637500Y-234950000D03*
X172637500Y-233050000D03*
X174512500Y-234000000D03*
%TD*%
%TO.C,Q41*%
X348637501Y-234950000D03*
X348637501Y-233050000D03*
X350512501Y-234000000D03*
%TD*%
D11*
%TO.C,R101*%
X174350000Y-237500000D03*
X176000000Y-237500000D03*
%TD*%
D10*
%TO.C,R65*%
X361825000Y-168400000D03*
X360175000Y-168400000D03*
%TD*%
D12*
%TO.C,R40*%
X303500000Y-182475000D03*
X303500000Y-184125000D03*
%TD*%
D10*
%TO.C,R45*%
X273825000Y-168400000D03*
X272175000Y-168400000D03*
%TD*%
D16*
%TO.C,C31*%
X187040000Y-161900000D03*
X188000000Y-161900000D03*
%TD*%
D11*
%TO.C,R133*%
X350350001Y-237500000D03*
X352000001Y-237500000D03*
%TD*%
D17*
%TO.C,Q22*%
X371950000Y-184337500D03*
X370050000Y-184337500D03*
X371000000Y-182462500D03*
%TD*%
D13*
%TO.C,R34*%
X286500000Y-175725000D03*
X286500000Y-174075000D03*
%TD*%
D11*
%TO.C,R104*%
X178550000Y-237500000D03*
X180200000Y-237500000D03*
%TD*%
D16*
%TO.C,C43*%
X363040000Y-161900000D03*
X364000000Y-161900000D03*
%TD*%
D13*
%TO.C,R35*%
X286500000Y-179925000D03*
X286500000Y-178275000D03*
%TD*%
%TO.C,R13*%
X198500000Y-179925000D03*
X198500000Y-178275000D03*
%TD*%
D12*
%TO.C,R60*%
X391500000Y-182475000D03*
X391500000Y-184125000D03*
%TD*%
D18*
%TO.C,D8*%
X183800000Y-163250000D03*
X183800000Y-166550000D03*
%TD*%
D12*
%TO.C,R16*%
X215500000Y-178275000D03*
X215500000Y-179925000D03*
%TD*%
D17*
%TO.C,Q4*%
X195950000Y-184337500D03*
X194050000Y-184337500D03*
X195000000Y-182462500D03*
%TD*%
%TO.C,Q13*%
X283950000Y-184337500D03*
X282050000Y-184337500D03*
X283000000Y-182462500D03*
%TD*%
D13*
%TO.C,R55*%
X374500000Y-179925000D03*
X374500000Y-178275000D03*
%TD*%
D11*
%TO.C,R121*%
X266550001Y-237500000D03*
X268200001Y-237500000D03*
%TD*%
%TO.C,R102*%
X182750000Y-237500000D03*
X184400000Y-237500000D03*
%TD*%
D12*
%TO.C,R37*%
X303500000Y-174075000D03*
X303500000Y-175725000D03*
%TD*%
D13*
%TO.C,R36*%
X286500000Y-184125000D03*
X286500000Y-182475000D03*
%TD*%
D16*
%TO.C,C37*%
X275040000Y-161900000D03*
X276000000Y-161900000D03*
%TD*%
D18*
%TO.C,D11*%
X271800000Y-163250000D03*
X271800000Y-166550000D03*
%TD*%
D13*
%TO.C,R54*%
X374500000Y-175725000D03*
X374500000Y-174075000D03*
%TD*%
D11*
%TO.C,R134*%
X358750000Y-237500000D03*
X360400000Y-237500000D03*
%TD*%
%TO.C,R136*%
X354550001Y-237500000D03*
X356200001Y-237500000D03*
%TD*%
D13*
%TO.C,R12*%
X198500000Y-175725000D03*
X198500000Y-174075000D03*
%TD*%
D18*
%TO.C,D14*%
X359800000Y-163250000D03*
X359800000Y-166550000D03*
%TD*%
D14*
%TO.C,Q17*%
X275950000Y-166037500D03*
X274050000Y-166037500D03*
X275000000Y-163762500D03*
%TD*%
D12*
%TO.C,R15*%
X215500000Y-174075000D03*
X215500000Y-175725000D03*
%TD*%
%TO.C,R57*%
X391500000Y-174075000D03*
X391500000Y-175725000D03*
%TD*%
D13*
%TO.C,R14*%
X198500000Y-184125000D03*
X198500000Y-182475000D03*
%TD*%
D14*
%TO.C,Q8*%
X187950000Y-166037500D03*
X186050000Y-166037500D03*
X187000000Y-163762500D03*
%TD*%
D11*
%TO.C,R118*%
X262350001Y-237500000D03*
X264000001Y-237500000D03*
%TD*%
D15*
%TO.C,Q37*%
X260637501Y-234950000D03*
X260637501Y-233050000D03*
X262512501Y-234000000D03*
%TD*%
M02*
