M48
; DRILL file {KiCad 7.0.9} date Tue Apr  1 10:21:15 2025
; FORMAT={-:-/ absolute / metric / decimal}
; #@! TF.CreationDate,2025-04-01T10:21:15-06:00
; #@! TF.GenerationSoftware,Kicad,Pcbnew,7.0.9
; #@! TF.FileFunction,Plated,1,2,PTH
FMAT,2
METRIC
; #@! TA.AperFunction,Plated,PTH,ViaDrill
T1C0.300
; #@! TA.AperFunction,Plated,PTH,ViaDrill
T2C0.350
; #@! TA.AperFunction,Plated,PTH,ViaDrill
T3C0.400
; #@! TA.AperFunction,Plated,PTH,ComponentDrill
T4C1.000
; #@! TA.AperFunction,Plated,PTH,ComponentDrill
T5C1.200
; #@! TA.AperFunction,Plated,PTH,ComponentDrill
T6C1.300
; #@! TA.AperFunction,Plated,PTH,ComponentDrill
T7C1.500
; #@! TA.AperFunction,Plated,PTH,ComponentDrill
T8C1.850
; #@! TA.AperFunction,Plated,PTH,ViaDrill
T9C2.500
; #@! TA.AperFunction,Plated,PTH,ComponentDrill
T10C3.100
%
G90
G05
T1
X173.275Y-237.6
X174.0Y-174.2
X174.0Y-175.4
X174.0Y-176.6
X174.0Y-181.5
X175.2Y-174.2
X175.2Y-175.4
X175.2Y-176.6
X175.5Y-216.5
X176.4Y-174.2
X176.4Y-175.4
X176.4Y-176.6
X177.475Y-237.7
X177.5Y-180.4
X177.6Y-174.2
X177.6Y-176.6
X179.4Y-214.9
X179.4Y-216.1
X179.4Y-217.3
X179.4Y-222.1
X179.4Y-223.1
X179.4Y-224.3
X180.6Y-214.9
X180.6Y-216.1
X180.6Y-223.1
X180.6Y-224.3
X181.675Y-237.7
X181.8Y-214.9
X181.8Y-216.1
X181.8Y-217.3
X181.8Y-222.1
X181.8Y-223.1
X181.8Y-224.3
X182.4Y-174.2
X182.4Y-176.6
X183.4Y-174.2
X183.4Y-175.4
X183.4Y-176.6
X184.2Y-170.2
X184.211Y-181.454
X184.6Y-174.2
X184.6Y-175.4
X184.6Y-176.6
X198.6Y-176.8
X198.6Y-181.0
X198.6Y-185.2
X215.4Y-173.2
X215.4Y-177.4
X215.4Y-181.6
X226.7Y-256.2
X226.7Y-258.0
X228.3Y-256.2
X228.3Y-258.0
X242.2Y-256.6
X242.2Y-258.0
X243.8Y-256.6
X243.8Y-258.0
X261.275Y-237.6
X262.0Y-174.2
X262.0Y-175.4
X262.0Y-176.6
X262.0Y-181.5
X263.2Y-174.2
X263.2Y-175.4
X263.2Y-176.6
X263.5Y-216.5
X264.4Y-174.2
X264.4Y-175.4
X264.4Y-176.6
X265.475Y-237.7
X265.5Y-180.4
X265.6Y-174.2
X265.6Y-176.6
X267.4Y-214.9
X267.4Y-216.1
X267.4Y-217.3
X267.4Y-222.1
X267.4Y-223.1
X267.4Y-224.3
X268.6Y-214.9
X268.6Y-216.1
X268.6Y-223.1
X268.6Y-224.3
X269.675Y-237.7
X269.8Y-214.9
X269.8Y-216.1
X269.8Y-217.3
X269.8Y-222.1
X269.8Y-223.1
X269.8Y-224.3
X270.4Y-174.2
X270.4Y-176.6
X271.4Y-174.2
X271.4Y-175.4
X271.4Y-176.6
X272.2Y-170.2
X272.211Y-181.454
X272.6Y-174.2
X272.6Y-175.4
X272.6Y-176.6
X286.6Y-176.8
X286.6Y-181.0
X286.6Y-185.2
X303.4Y-173.2
X303.4Y-177.4
X303.4Y-181.6
X321.0Y-243.5
X329.0Y-241.0
X330.7Y-256.6
X330.7Y-258.0
X332.3Y-256.6
X332.3Y-258.0
X349.275Y-237.6
X350.0Y-174.2
X350.0Y-175.4
X350.0Y-176.6
X350.0Y-181.5
X351.2Y-174.2
X351.2Y-175.4
X351.2Y-176.6
X351.5Y-216.5
X352.4Y-174.2
X352.4Y-175.4
X352.4Y-176.6
X353.475Y-237.7
X353.5Y-180.4
X353.6Y-174.2
X353.6Y-176.6
X355.4Y-214.9
X355.4Y-216.1
X355.4Y-217.3
X355.4Y-222.1
X355.4Y-223.1
X355.4Y-224.3
X356.6Y-214.9
X356.6Y-216.1
X356.6Y-223.1
X356.6Y-224.3
X357.675Y-237.7
X357.8Y-214.9
X357.8Y-216.1
X357.8Y-217.3
X357.8Y-222.1
X357.8Y-223.1
X357.8Y-224.3
X358.4Y-174.2
X358.4Y-176.6
X359.4Y-174.2
X359.4Y-175.4
X359.4Y-176.6
X360.2Y-170.2
X360.211Y-181.454
X360.6Y-174.2
X360.6Y-175.4
X360.6Y-176.6
X374.6Y-176.8
X374.6Y-181.0
X374.6Y-185.2
X391.4Y-173.2
X391.4Y-177.4
X391.4Y-181.6
T2
X172.0Y-221.6
X172.2Y-224.6
X172.4Y-216.8
X172.4Y-218.0
X177.1Y-183.6
X178.3Y-183.6
X182.0Y-184.3
X183.2Y-184.7
X187.6Y-155.8
X190.0Y-220.05
X191.0Y-218.0
X226.4Y-234.3
X231.1Y-234.3
X231.5Y-245.0
X231.5Y-246.0
X239.0Y-243.5
X240.0Y-243.5
X260.0Y-221.8
X260.2Y-224.6
X260.4Y-216.8
X260.4Y-218.0
X265.1Y-183.6
X266.1Y-183.6
X270.0Y-184.2
X271.2Y-184.8
X275.6Y-155.8
X278.0Y-220.05
X279.0Y-218.0
X314.7Y-234.4
X319.1Y-234.4
X319.5Y-246.0
X327.0Y-243.5
X328.0Y-243.5
X348.0Y-221.8
X348.2Y-216.8
X348.2Y-218.0
X348.2Y-224.6
X353.1Y-183.6
X354.0Y-183.6
X358.0Y-184.2
X359.2Y-184.6
X363.7Y-155.8
X366.0Y-220.05
X367.0Y-218.0
T3
X167.2Y-225.4
X173.6Y-231.4
X173.8Y-224.8
X175.1Y-167.7
X176.0Y-231.4
X178.65Y-168.8
X180.6Y-169.3
X185.056Y-232.3
X186.8Y-182.0
X188.0Y-116.5
X188.0Y-119.5
X188.0Y-122.5
X188.0Y-128.0
X188.0Y-131.0
X188.0Y-134.0
X188.6Y-182.0
X191.0Y-116.5
X191.0Y-119.5
X191.0Y-122.5
X191.0Y-128.0
X191.0Y-131.0
X191.0Y-134.0
X192.938Y-170.9
X194.0Y-116.5
X194.0Y-119.5
X194.0Y-122.5
X197.0Y-116.5
X197.0Y-119.5
X197.0Y-122.5
X198.0Y-238.0
X198.0Y-240.0
X198.0Y-242.0
X198.5Y-148.5
X198.5Y-150.75
X198.5Y-153.0
X198.5Y-155.25
X198.5Y-157.5
X200.75Y-148.5
X200.75Y-150.75
X200.75Y-153.0
X200.75Y-155.25
X200.75Y-157.5
X201.0Y-238.0
X201.0Y-240.0
X201.0Y-242.0
X203.0Y-148.5
X203.0Y-150.75
X203.0Y-153.0
X203.0Y-155.25
X203.0Y-157.5
X204.0Y-175.4
X204.0Y-179.4
X204.0Y-183.4
X204.0Y-238.0
X204.0Y-240.0
X204.0Y-242.0
X205.0Y-177.4
X205.0Y-181.4
X205.25Y-148.5
X205.25Y-150.75
X205.25Y-153.0
X205.25Y-155.25
X205.25Y-157.5
X207.0Y-175.4
X207.0Y-179.4
X207.0Y-183.4
X207.0Y-238.0
X207.0Y-240.0
X207.0Y-242.0
X207.5Y-148.5
X207.5Y-150.75
X207.5Y-153.0
X207.5Y-155.25
X207.5Y-157.5
X209.0Y-177.4
X209.0Y-181.4
X210.0Y-175.4
X210.0Y-179.4
X210.0Y-183.4
X211.0Y-116.5
X211.0Y-119.5
X211.0Y-122.5
X214.0Y-116.5
X214.0Y-119.5
X214.0Y-122.5
X217.0Y-116.5
X217.0Y-119.5
X217.0Y-122.5
X217.0Y-128.0
X217.0Y-131.0
X217.0Y-134.0
X220.0Y-116.5
X220.0Y-119.5
X220.0Y-122.5
X220.0Y-128.0
X220.0Y-131.0
X220.0Y-134.0
X221.5Y-252.5
X223.5Y-252.5
X227.075Y-268.0
X228.125Y-268.0
X232.0Y-252.5
X235.0Y-252.5
X238.0Y-252.5
X242.525Y-268.0
X243.575Y-268.0
X247.0Y-252.5
X249.0Y-252.5
X255.2Y-225.4
X261.6Y-231.4
X261.925Y-224.725
X263.4Y-165.0
X264.0Y-231.4
X266.5Y-169.0
X268.45Y-169.5
X273.056Y-232.3
X274.8Y-182.0
X276.6Y-182.0
X280.2Y-170.9
X286.0Y-238.0
X286.0Y-240.0
X286.0Y-242.0
X289.0Y-238.0
X289.0Y-240.0
X289.0Y-242.0
X292.0Y-175.4
X292.0Y-179.4
X292.0Y-183.4
X292.0Y-238.0
X292.0Y-240.0
X292.0Y-242.0
X293.0Y-116.5
X293.0Y-119.5
X293.0Y-122.5
X293.0Y-128.0
X293.0Y-131.0
X293.0Y-134.0
X293.0Y-177.4
X293.0Y-181.4
X294.5Y-148.5
X294.5Y-150.75
X294.5Y-153.0
X294.5Y-155.25
X294.5Y-157.5
X295.0Y-175.4
X295.0Y-179.4
X295.0Y-183.4
X295.0Y-238.0
X295.0Y-240.0
X295.0Y-242.0
X296.0Y-116.5
X296.0Y-119.5
X296.0Y-122.5
X296.0Y-128.0
X296.0Y-131.0
X296.0Y-134.0
X296.75Y-148.5
X296.75Y-150.75
X296.75Y-153.0
X296.75Y-155.25
X296.75Y-157.5
X297.0Y-177.4
X297.0Y-181.4
X298.0Y-175.4
X298.0Y-179.4
X298.0Y-183.4
X299.0Y-116.5
X299.0Y-119.5
X299.0Y-122.5
X299.0Y-148.5
X299.0Y-150.75
X299.0Y-153.0
X299.0Y-155.25
X299.0Y-157.5
X301.25Y-148.5
X301.25Y-150.75
X301.25Y-153.0
X301.25Y-155.25
X301.25Y-157.5
X302.0Y-116.5
X302.0Y-119.5
X302.0Y-122.5
X303.5Y-148.5
X303.5Y-150.75
X303.5Y-153.0
X303.5Y-155.25
X303.5Y-157.5
X309.5Y-252.5
X311.5Y-252.5
X313.5Y-252.5
X315.5Y-252.5
X316.0Y-116.5
X316.0Y-119.5
X316.0Y-122.5
X317.5Y-252.5
X319.0Y-116.5
X319.0Y-119.5
X319.0Y-122.5
X319.5Y-252.5
X321.5Y-252.5
X322.0Y-116.5
X322.0Y-119.5
X322.0Y-122.5
X322.0Y-128.0
X322.0Y-131.0
X322.0Y-134.0
X323.5Y-252.5
X325.0Y-116.5
X325.0Y-119.5
X325.0Y-122.5
X325.0Y-128.0
X325.0Y-131.0
X325.0Y-134.0
X330.975Y-268.0
X332.025Y-268.0
X343.2Y-225.4
X349.6Y-231.4
X349.925Y-224.725
X351.5Y-167.5
X352.0Y-231.4
X354.4Y-168.0
X356.45Y-168.6
X361.056Y-232.3
X362.8Y-182.0
X364.6Y-182.0
X368.2Y-170.9
X374.0Y-238.0
X374.0Y-240.0
X374.0Y-242.0
X377.0Y-238.0
X377.0Y-240.0
X377.0Y-242.0
X380.0Y-175.4
X380.0Y-179.4
X380.0Y-183.4
X380.0Y-238.0
X380.0Y-240.0
X380.0Y-242.0
X381.0Y-177.4
X381.0Y-181.4
X383.0Y-175.4
X383.0Y-179.4
X383.0Y-183.4
X383.0Y-238.0
X383.0Y-240.0
X383.0Y-242.0
X385.0Y-177.4
X385.0Y-181.4
X386.0Y-175.4
X386.0Y-179.4
X386.0Y-183.4
X390.5Y-148.5
X390.5Y-150.75
X390.5Y-153.0
X390.5Y-155.25
X390.5Y-157.5
X392.75Y-148.5
X392.75Y-150.75
X392.75Y-153.0
X392.75Y-155.25
X392.75Y-157.5
X395.0Y-148.5
X395.0Y-150.75
X395.0Y-153.0
X395.0Y-155.25
X395.0Y-157.5
X397.25Y-148.5
X397.25Y-150.75
X397.25Y-153.0
X397.25Y-155.25
X397.25Y-157.5
X398.0Y-116.5
X398.0Y-119.5
X398.0Y-122.5
X398.0Y-128.0
X398.0Y-131.0
X398.0Y-134.0
X399.5Y-148.5
X399.5Y-150.75
X399.5Y-153.0
X399.5Y-155.25
X399.5Y-157.5
X401.0Y-116.5
X401.0Y-119.5
X401.0Y-122.5
X401.0Y-128.0
X401.0Y-131.0
X401.0Y-134.0
X404.0Y-116.5
X404.0Y-119.5
X404.0Y-122.5
X407.0Y-116.5
X407.0Y-119.5
X407.0Y-122.5
X421.0Y-116.5
X421.0Y-119.5
X421.0Y-122.5
X424.0Y-116.5
X424.0Y-119.5
X424.0Y-122.5
X427.0Y-116.5
X427.0Y-119.5
X427.0Y-122.5
X427.0Y-128.0
X427.0Y-131.0
X427.0Y-134.0
X430.0Y-116.5
X430.0Y-119.5
X430.0Y-122.5
X430.0Y-128.0
X430.0Y-131.0
X430.0Y-134.0
X461.0Y-205.0
T4
X455.632Y-212.0
X456.725Y-228.0
X459.265Y-228.0
X460.632Y-212.0
T5
X164.0Y-194.478
X164.0Y-201.978
X186.0Y-194.478
X186.0Y-201.978
X252.0Y-194.478
X252.0Y-201.978
X274.0Y-194.478
X274.0Y-201.978
X340.0Y-194.478
X340.0Y-201.978
X362.0Y-194.478
X362.0Y-201.978
T6
X178.3Y-324.305
X183.38Y-324.305
X188.46Y-324.305
X193.54Y-324.305
X198.62Y-324.305
X203.7Y-324.305
X266.4Y-324.305
X271.48Y-324.305
X276.56Y-324.305
X281.64Y-324.305
X286.72Y-324.305
X291.8Y-324.305
X354.4Y-324.305
X359.48Y-324.305
X364.56Y-324.305
X369.64Y-324.305
X374.72Y-324.305
X379.8Y-324.305
X454.412Y-122.19
X454.412Y-127.27
X454.412Y-132.35
X454.412Y-137.43
X454.412Y-142.51
X454.412Y-147.59
X454.412Y-159.84
X454.412Y-164.92
X454.412Y-170.0
X454.412Y-175.08
X454.412Y-180.16
X454.412Y-185.24
X459.412Y-122.19
X459.412Y-127.27
X459.412Y-132.35
X459.412Y-137.43
X459.412Y-142.51
X459.412Y-147.59
X459.412Y-159.84
X459.412Y-164.92
X459.412Y-170.0
X459.412Y-175.08
X459.412Y-180.16
X459.412Y-185.24
T8
X191.065Y-102.065
X191.065Y-107.935
X196.935Y-102.065
X196.935Y-107.935
X211.065Y-102.065
X211.065Y-107.935
X216.935Y-102.065
X216.935Y-107.935
X296.065Y-102.065
X296.065Y-107.935
X301.935Y-102.065
X301.935Y-107.935
X316.065Y-102.065
X316.065Y-107.935
X321.935Y-102.065
X321.935Y-107.935
X401.065Y-102.065
X401.065Y-107.935
X406.935Y-102.065
X406.935Y-107.935
X421.065Y-102.065
X421.065Y-107.935
X426.935Y-102.065
X426.935Y-107.935
T9
X383.5Y-143.5
X413.0Y-145.0
T7
X441.35Y-195.0G85X443.35Y-195.0
G05
X441.35Y-235.0G85X443.35Y-235.0
G05
T10
X423.6Y-199.65G85X423.6Y-198.95
G05
X423.6Y-205.15G85X423.6Y-204.45
G05
X423.6Y-225.55G85X423.6Y-224.85
G05
X423.6Y-231.05G85X423.6Y-230.35
G05
T0
M30
