%TF.GenerationSoftware,KiCad,Pcbnew,7.0.9*%
%TF.CreationDate,2025-04-01T10:19:45-06:00*%
%TF.ProjectId,2023-24_Power_Supply,32303233-2d32-4345-9f50-6f7765725f53,rev?*%
%TF.SameCoordinates,Original*%
%TF.FileFunction,Legend,Bot*%
%TF.FilePolarity,Positive*%
%FSLAX46Y46*%
G04 Gerber Fmt 4.6, Leading zero omitted, Abs format (unit mm)*
G04 Created by KiCad (PCBNEW 7.0.9) date 2025-04-01 10:19:45*
%MOMM*%
%LPD*%
G01*
G04 APERTURE LIST*
G04 Aperture macros list*
%AMRoundRect*
0 Rectangle with rounded corners*
0 $1 Rounding radius*
0 $2 $3 $4 $5 $6 $7 $8 $9 X,Y pos of 4 corners*
0 Add a 4 corners polygon primitive as box body*
4,1,4,$2,$3,$4,$5,$6,$7,$8,$9,$2,$3,0*
0 Add four circle primitives for the rounded corners*
1,1,$1+$1,$2,$3*
1,1,$1+$1,$4,$5*
1,1,$1+$1,$6,$7*
1,1,$1+$1,$8,$9*
0 Add four rect primitives between the rounded corners*
20,1,$1+$1,$2,$3,$4,$5,0*
20,1,$1+$1,$4,$5,$6,$7,0*
20,1,$1+$1,$6,$7,$8,$9,0*
20,1,$1+$1,$8,$9,$2,$3,0*%
G04 Aperture macros list end*
%ADD10C,0.150000*%
%ADD11C,0.120000*%
%ADD12C,2.075000*%
%ADD13C,2.050000*%
%ADD14C,3.575000*%
%ADD15C,3.200000*%
%ADD16RoundRect,0.102000X0.975000X-0.975000X0.975000X0.975000X-0.975000X0.975000X-0.975000X-0.975000X0*%
%ADD17C,2.154000*%
%ADD18R,2.400000X2.400000*%
%ADD19C,2.400000*%
%ADD20O,6.500000X3.500000*%
%ADD21RoundRect,1.525000X1.525000X-2.375000X1.525000X2.375000X-1.525000X2.375000X-1.525000X-2.375000X0*%
%ADD22R,1.700000X1.700000*%
%ADD23O,1.700000X1.700000*%
%ADD24R,2.600000X2.600000*%
%ADD25C,2.600000*%
%ADD26R,2.000000X2.000000*%
%ADD27C,2.000000*%
%ADD28RoundRect,0.200000X0.200000X0.275000X-0.200000X0.275000X-0.200000X-0.275000X0.200000X-0.275000X0*%
%ADD29RoundRect,0.200000X-0.200000X-0.275000X0.200000X-0.275000X0.200000X0.275000X-0.200000X0.275000X0*%
%ADD30RoundRect,0.200000X-0.275000X0.200000X-0.275000X-0.200000X0.275000X-0.200000X0.275000X0.200000X0*%
%ADD31RoundRect,0.200000X0.275000X-0.200000X0.275000X0.200000X-0.275000X0.200000X-0.275000X-0.200000X0*%
%ADD32RoundRect,0.150000X0.150000X-0.512500X0.150000X0.512500X-0.150000X0.512500X-0.150000X-0.512500X0*%
%ADD33RoundRect,0.150000X-0.587500X-0.150000X0.587500X-0.150000X0.587500X0.150000X-0.587500X0.150000X0*%
%ADD34RoundRect,0.140000X-0.140000X-0.170000X0.140000X-0.170000X0.140000X0.170000X-0.140000X0.170000X0*%
%ADD35RoundRect,0.150000X0.150000X-0.587500X0.150000X0.587500X-0.150000X0.587500X-0.150000X-0.587500X0*%
%ADD36RoundRect,0.225000X-0.375000X0.225000X-0.375000X-0.225000X0.375000X-0.225000X0.375000X0.225000X0*%
G04 APERTURE END LIST*
D10*
X185642857Y-167424819D02*
X185976190Y-166948628D01*
X186214285Y-167424819D02*
X186214285Y-166424819D01*
X186214285Y-166424819D02*
X185833333Y-166424819D01*
X185833333Y-166424819D02*
X185738095Y-166472438D01*
X185738095Y-166472438D02*
X185690476Y-166520057D01*
X185690476Y-166520057D02*
X185642857Y-166615295D01*
X185642857Y-166615295D02*
X185642857Y-166758152D01*
X185642857Y-166758152D02*
X185690476Y-166853390D01*
X185690476Y-166853390D02*
X185738095Y-166901009D01*
X185738095Y-166901009D02*
X185833333Y-166948628D01*
X185833333Y-166948628D02*
X186214285Y-166948628D01*
X185261904Y-166520057D02*
X185214285Y-166472438D01*
X185214285Y-166472438D02*
X185119047Y-166424819D01*
X185119047Y-166424819D02*
X184880952Y-166424819D01*
X184880952Y-166424819D02*
X184785714Y-166472438D01*
X184785714Y-166472438D02*
X184738095Y-166520057D01*
X184738095Y-166520057D02*
X184690476Y-166615295D01*
X184690476Y-166615295D02*
X184690476Y-166710533D01*
X184690476Y-166710533D02*
X184738095Y-166853390D01*
X184738095Y-166853390D02*
X185309523Y-167424819D01*
X185309523Y-167424819D02*
X184690476Y-167424819D01*
X184357142Y-166424819D02*
X183738095Y-166424819D01*
X183738095Y-166424819D02*
X184071428Y-166805771D01*
X184071428Y-166805771D02*
X183928571Y-166805771D01*
X183928571Y-166805771D02*
X183833333Y-166853390D01*
X183833333Y-166853390D02*
X183785714Y-166901009D01*
X183785714Y-166901009D02*
X183738095Y-166996247D01*
X183738095Y-166996247D02*
X183738095Y-167234342D01*
X183738095Y-167234342D02*
X183785714Y-167329580D01*
X183785714Y-167329580D02*
X183833333Y-167377200D01*
X183833333Y-167377200D02*
X183928571Y-167424819D01*
X183928571Y-167424819D02*
X184214285Y-167424819D01*
X184214285Y-167424819D02*
X184309523Y-167377200D01*
X184309523Y-167377200D02*
X184357142Y-167329580D01*
X272694047Y-239384819D02*
X273027380Y-238908628D01*
X273265475Y-239384819D02*
X273265475Y-238384819D01*
X273265475Y-238384819D02*
X272884523Y-238384819D01*
X272884523Y-238384819D02*
X272789285Y-238432438D01*
X272789285Y-238432438D02*
X272741666Y-238480057D01*
X272741666Y-238480057D02*
X272694047Y-238575295D01*
X272694047Y-238575295D02*
X272694047Y-238718152D01*
X272694047Y-238718152D02*
X272741666Y-238813390D01*
X272741666Y-238813390D02*
X272789285Y-238861009D01*
X272789285Y-238861009D02*
X272884523Y-238908628D01*
X272884523Y-238908628D02*
X273265475Y-238908628D01*
X271741666Y-239384819D02*
X272313094Y-239384819D01*
X272027380Y-239384819D02*
X272027380Y-238384819D01*
X272027380Y-238384819D02*
X272122618Y-238527676D01*
X272122618Y-238527676D02*
X272217856Y-238622914D01*
X272217856Y-238622914D02*
X272313094Y-238670533D01*
X270789285Y-239384819D02*
X271360713Y-239384819D01*
X271074999Y-239384819D02*
X271074999Y-238384819D01*
X271074999Y-238384819D02*
X271170237Y-238527676D01*
X271170237Y-238527676D02*
X271265475Y-238622914D01*
X271265475Y-238622914D02*
X271360713Y-238670533D01*
X270313094Y-239384819D02*
X270122618Y-239384819D01*
X270122618Y-239384819D02*
X270027380Y-239337200D01*
X270027380Y-239337200D02*
X269979761Y-239289580D01*
X269979761Y-239289580D02*
X269884523Y-239146723D01*
X269884523Y-239146723D02*
X269836904Y-238956247D01*
X269836904Y-238956247D02*
X269836904Y-238575295D01*
X269836904Y-238575295D02*
X269884523Y-238480057D01*
X269884523Y-238480057D02*
X269932142Y-238432438D01*
X269932142Y-238432438D02*
X270027380Y-238384819D01*
X270027380Y-238384819D02*
X270217856Y-238384819D01*
X270217856Y-238384819D02*
X270313094Y-238432438D01*
X270313094Y-238432438D02*
X270360713Y-238480057D01*
X270360713Y-238480057D02*
X270408332Y-238575295D01*
X270408332Y-238575295D02*
X270408332Y-238813390D01*
X270408332Y-238813390D02*
X270360713Y-238908628D01*
X270360713Y-238908628D02*
X270313094Y-238956247D01*
X270313094Y-238956247D02*
X270217856Y-239003866D01*
X270217856Y-239003866D02*
X270027380Y-239003866D01*
X270027380Y-239003866D02*
X269932142Y-238956247D01*
X269932142Y-238956247D02*
X269884523Y-238908628D01*
X269884523Y-238908628D02*
X269836904Y-238813390D01*
X390524819Y-178457142D02*
X390048628Y-178123809D01*
X390524819Y-177885714D02*
X389524819Y-177885714D01*
X389524819Y-177885714D02*
X389524819Y-178266666D01*
X389524819Y-178266666D02*
X389572438Y-178361904D01*
X389572438Y-178361904D02*
X389620057Y-178409523D01*
X389620057Y-178409523D02*
X389715295Y-178457142D01*
X389715295Y-178457142D02*
X389858152Y-178457142D01*
X389858152Y-178457142D02*
X389953390Y-178409523D01*
X389953390Y-178409523D02*
X390001009Y-178361904D01*
X390001009Y-178361904D02*
X390048628Y-178266666D01*
X390048628Y-178266666D02*
X390048628Y-177885714D01*
X389524819Y-179361904D02*
X389524819Y-178885714D01*
X389524819Y-178885714D02*
X390001009Y-178838095D01*
X390001009Y-178838095D02*
X389953390Y-178885714D01*
X389953390Y-178885714D02*
X389905771Y-178980952D01*
X389905771Y-178980952D02*
X389905771Y-179219047D01*
X389905771Y-179219047D02*
X389953390Y-179314285D01*
X389953390Y-179314285D02*
X390001009Y-179361904D01*
X390001009Y-179361904D02*
X390096247Y-179409523D01*
X390096247Y-179409523D02*
X390334342Y-179409523D01*
X390334342Y-179409523D02*
X390429580Y-179361904D01*
X390429580Y-179361904D02*
X390477200Y-179314285D01*
X390477200Y-179314285D02*
X390524819Y-179219047D01*
X390524819Y-179219047D02*
X390524819Y-178980952D01*
X390524819Y-178980952D02*
X390477200Y-178885714D01*
X390477200Y-178885714D02*
X390429580Y-178838095D01*
X389953390Y-179980952D02*
X389905771Y-179885714D01*
X389905771Y-179885714D02*
X389858152Y-179838095D01*
X389858152Y-179838095D02*
X389762914Y-179790476D01*
X389762914Y-179790476D02*
X389715295Y-179790476D01*
X389715295Y-179790476D02*
X389620057Y-179838095D01*
X389620057Y-179838095D02*
X389572438Y-179885714D01*
X389572438Y-179885714D02*
X389524819Y-179980952D01*
X389524819Y-179980952D02*
X389524819Y-180171428D01*
X389524819Y-180171428D02*
X389572438Y-180266666D01*
X389572438Y-180266666D02*
X389620057Y-180314285D01*
X389620057Y-180314285D02*
X389715295Y-180361904D01*
X389715295Y-180361904D02*
X389762914Y-180361904D01*
X389762914Y-180361904D02*
X389858152Y-180314285D01*
X389858152Y-180314285D02*
X389905771Y-180266666D01*
X389905771Y-180266666D02*
X389953390Y-180171428D01*
X389953390Y-180171428D02*
X389953390Y-179980952D01*
X389953390Y-179980952D02*
X390001009Y-179885714D01*
X390001009Y-179885714D02*
X390048628Y-179838095D01*
X390048628Y-179838095D02*
X390143866Y-179790476D01*
X390143866Y-179790476D02*
X390334342Y-179790476D01*
X390334342Y-179790476D02*
X390429580Y-179838095D01*
X390429580Y-179838095D02*
X390477200Y-179885714D01*
X390477200Y-179885714D02*
X390524819Y-179980952D01*
X390524819Y-179980952D02*
X390524819Y-180171428D01*
X390524819Y-180171428D02*
X390477200Y-180266666D01*
X390477200Y-180266666D02*
X390429580Y-180314285D01*
X390429580Y-180314285D02*
X390334342Y-180361904D01*
X390334342Y-180361904D02*
X390143866Y-180361904D01*
X390143866Y-180361904D02*
X390048628Y-180314285D01*
X390048628Y-180314285D02*
X390001009Y-180266666D01*
X390001009Y-180266666D02*
X389953390Y-180171428D01*
X376384819Y-182657142D02*
X375908628Y-182323809D01*
X376384819Y-182085714D02*
X375384819Y-182085714D01*
X375384819Y-182085714D02*
X375384819Y-182466666D01*
X375384819Y-182466666D02*
X375432438Y-182561904D01*
X375432438Y-182561904D02*
X375480057Y-182609523D01*
X375480057Y-182609523D02*
X375575295Y-182657142D01*
X375575295Y-182657142D02*
X375718152Y-182657142D01*
X375718152Y-182657142D02*
X375813390Y-182609523D01*
X375813390Y-182609523D02*
X375861009Y-182561904D01*
X375861009Y-182561904D02*
X375908628Y-182466666D01*
X375908628Y-182466666D02*
X375908628Y-182085714D01*
X375384819Y-183561904D02*
X375384819Y-183085714D01*
X375384819Y-183085714D02*
X375861009Y-183038095D01*
X375861009Y-183038095D02*
X375813390Y-183085714D01*
X375813390Y-183085714D02*
X375765771Y-183180952D01*
X375765771Y-183180952D02*
X375765771Y-183419047D01*
X375765771Y-183419047D02*
X375813390Y-183514285D01*
X375813390Y-183514285D02*
X375861009Y-183561904D01*
X375861009Y-183561904D02*
X375956247Y-183609523D01*
X375956247Y-183609523D02*
X376194342Y-183609523D01*
X376194342Y-183609523D02*
X376289580Y-183561904D01*
X376289580Y-183561904D02*
X376337200Y-183514285D01*
X376337200Y-183514285D02*
X376384819Y-183419047D01*
X376384819Y-183419047D02*
X376384819Y-183180952D01*
X376384819Y-183180952D02*
X376337200Y-183085714D01*
X376337200Y-183085714D02*
X376289580Y-183038095D01*
X375384819Y-184466666D02*
X375384819Y-184276190D01*
X375384819Y-184276190D02*
X375432438Y-184180952D01*
X375432438Y-184180952D02*
X375480057Y-184133333D01*
X375480057Y-184133333D02*
X375622914Y-184038095D01*
X375622914Y-184038095D02*
X375813390Y-183990476D01*
X375813390Y-183990476D02*
X376194342Y-183990476D01*
X376194342Y-183990476D02*
X376289580Y-184038095D01*
X376289580Y-184038095D02*
X376337200Y-184085714D01*
X376337200Y-184085714D02*
X376384819Y-184180952D01*
X376384819Y-184180952D02*
X376384819Y-184371428D01*
X376384819Y-184371428D02*
X376337200Y-184466666D01*
X376337200Y-184466666D02*
X376289580Y-184514285D01*
X376289580Y-184514285D02*
X376194342Y-184561904D01*
X376194342Y-184561904D02*
X375956247Y-184561904D01*
X375956247Y-184561904D02*
X375861009Y-184514285D01*
X375861009Y-184514285D02*
X375813390Y-184466666D01*
X375813390Y-184466666D02*
X375765771Y-184371428D01*
X375765771Y-184371428D02*
X375765771Y-184180952D01*
X375765771Y-184180952D02*
X375813390Y-184085714D01*
X375813390Y-184085714D02*
X375861009Y-184038095D01*
X375861009Y-184038095D02*
X375956247Y-183990476D01*
X365950057Y-164328571D02*
X365902438Y-164233333D01*
X365902438Y-164233333D02*
X365807200Y-164138095D01*
X365807200Y-164138095D02*
X365664342Y-163995238D01*
X365664342Y-163995238D02*
X365616723Y-163900000D01*
X365616723Y-163900000D02*
X365616723Y-163804762D01*
X365854819Y-163852381D02*
X365807200Y-163757143D01*
X365807200Y-163757143D02*
X365711961Y-163661905D01*
X365711961Y-163661905D02*
X365521485Y-163614286D01*
X365521485Y-163614286D02*
X365188152Y-163614286D01*
X365188152Y-163614286D02*
X364997676Y-163661905D01*
X364997676Y-163661905D02*
X364902438Y-163757143D01*
X364902438Y-163757143D02*
X364854819Y-163852381D01*
X364854819Y-163852381D02*
X364854819Y-164042857D01*
X364854819Y-164042857D02*
X364902438Y-164138095D01*
X364902438Y-164138095D02*
X364997676Y-164233333D01*
X364997676Y-164233333D02*
X365188152Y-164280952D01*
X365188152Y-164280952D02*
X365521485Y-164280952D01*
X365521485Y-164280952D02*
X365711961Y-164233333D01*
X365711961Y-164233333D02*
X365807200Y-164138095D01*
X365807200Y-164138095D02*
X365854819Y-164042857D01*
X365854819Y-164042857D02*
X365854819Y-163852381D01*
X364950057Y-164661905D02*
X364902438Y-164709524D01*
X364902438Y-164709524D02*
X364854819Y-164804762D01*
X364854819Y-164804762D02*
X364854819Y-165042857D01*
X364854819Y-165042857D02*
X364902438Y-165138095D01*
X364902438Y-165138095D02*
X364950057Y-165185714D01*
X364950057Y-165185714D02*
X365045295Y-165233333D01*
X365045295Y-165233333D02*
X365140533Y-165233333D01*
X365140533Y-165233333D02*
X365283390Y-165185714D01*
X365283390Y-165185714D02*
X365854819Y-164614286D01*
X365854819Y-164614286D02*
X365854819Y-165233333D01*
X364854819Y-166090476D02*
X364854819Y-165900000D01*
X364854819Y-165900000D02*
X364902438Y-165804762D01*
X364902438Y-165804762D02*
X364950057Y-165757143D01*
X364950057Y-165757143D02*
X365092914Y-165661905D01*
X365092914Y-165661905D02*
X365283390Y-165614286D01*
X365283390Y-165614286D02*
X365664342Y-165614286D01*
X365664342Y-165614286D02*
X365759580Y-165661905D01*
X365759580Y-165661905D02*
X365807200Y-165709524D01*
X365807200Y-165709524D02*
X365854819Y-165804762D01*
X365854819Y-165804762D02*
X365854819Y-165995238D01*
X365854819Y-165995238D02*
X365807200Y-166090476D01*
X365807200Y-166090476D02*
X365759580Y-166138095D01*
X365759580Y-166138095D02*
X365664342Y-166185714D01*
X365664342Y-166185714D02*
X365426247Y-166185714D01*
X365426247Y-166185714D02*
X365331009Y-166138095D01*
X365331009Y-166138095D02*
X365283390Y-166090476D01*
X365283390Y-166090476D02*
X365235771Y-165995238D01*
X365235771Y-165995238D02*
X365235771Y-165804762D01*
X365235771Y-165804762D02*
X365283390Y-165709524D01*
X365283390Y-165709524D02*
X365331009Y-165661905D01*
X365331009Y-165661905D02*
X365426247Y-165614286D01*
X302524819Y-178457142D02*
X302048628Y-178123809D01*
X302524819Y-177885714D02*
X301524819Y-177885714D01*
X301524819Y-177885714D02*
X301524819Y-178266666D01*
X301524819Y-178266666D02*
X301572438Y-178361904D01*
X301572438Y-178361904D02*
X301620057Y-178409523D01*
X301620057Y-178409523D02*
X301715295Y-178457142D01*
X301715295Y-178457142D02*
X301858152Y-178457142D01*
X301858152Y-178457142D02*
X301953390Y-178409523D01*
X301953390Y-178409523D02*
X302001009Y-178361904D01*
X302001009Y-178361904D02*
X302048628Y-178266666D01*
X302048628Y-178266666D02*
X302048628Y-177885714D01*
X301524819Y-178790476D02*
X301524819Y-179409523D01*
X301524819Y-179409523D02*
X301905771Y-179076190D01*
X301905771Y-179076190D02*
X301905771Y-179219047D01*
X301905771Y-179219047D02*
X301953390Y-179314285D01*
X301953390Y-179314285D02*
X302001009Y-179361904D01*
X302001009Y-179361904D02*
X302096247Y-179409523D01*
X302096247Y-179409523D02*
X302334342Y-179409523D01*
X302334342Y-179409523D02*
X302429580Y-179361904D01*
X302429580Y-179361904D02*
X302477200Y-179314285D01*
X302477200Y-179314285D02*
X302524819Y-179219047D01*
X302524819Y-179219047D02*
X302524819Y-178933333D01*
X302524819Y-178933333D02*
X302477200Y-178838095D01*
X302477200Y-178838095D02*
X302429580Y-178790476D01*
X301953390Y-179980952D02*
X301905771Y-179885714D01*
X301905771Y-179885714D02*
X301858152Y-179838095D01*
X301858152Y-179838095D02*
X301762914Y-179790476D01*
X301762914Y-179790476D02*
X301715295Y-179790476D01*
X301715295Y-179790476D02*
X301620057Y-179838095D01*
X301620057Y-179838095D02*
X301572438Y-179885714D01*
X301572438Y-179885714D02*
X301524819Y-179980952D01*
X301524819Y-179980952D02*
X301524819Y-180171428D01*
X301524819Y-180171428D02*
X301572438Y-180266666D01*
X301572438Y-180266666D02*
X301620057Y-180314285D01*
X301620057Y-180314285D02*
X301715295Y-180361904D01*
X301715295Y-180361904D02*
X301762914Y-180361904D01*
X301762914Y-180361904D02*
X301858152Y-180314285D01*
X301858152Y-180314285D02*
X301905771Y-180266666D01*
X301905771Y-180266666D02*
X301953390Y-180171428D01*
X301953390Y-180171428D02*
X301953390Y-179980952D01*
X301953390Y-179980952D02*
X302001009Y-179885714D01*
X302001009Y-179885714D02*
X302048628Y-179838095D01*
X302048628Y-179838095D02*
X302143866Y-179790476D01*
X302143866Y-179790476D02*
X302334342Y-179790476D01*
X302334342Y-179790476D02*
X302429580Y-179838095D01*
X302429580Y-179838095D02*
X302477200Y-179885714D01*
X302477200Y-179885714D02*
X302524819Y-179980952D01*
X302524819Y-179980952D02*
X302524819Y-180171428D01*
X302524819Y-180171428D02*
X302477200Y-180266666D01*
X302477200Y-180266666D02*
X302429580Y-180314285D01*
X302429580Y-180314285D02*
X302334342Y-180361904D01*
X302334342Y-180361904D02*
X302143866Y-180361904D01*
X302143866Y-180361904D02*
X302048628Y-180314285D01*
X302048628Y-180314285D02*
X302001009Y-180266666D01*
X302001009Y-180266666D02*
X301953390Y-180171428D01*
X214524819Y-182657142D02*
X214048628Y-182323809D01*
X214524819Y-182085714D02*
X213524819Y-182085714D01*
X213524819Y-182085714D02*
X213524819Y-182466666D01*
X213524819Y-182466666D02*
X213572438Y-182561904D01*
X213572438Y-182561904D02*
X213620057Y-182609523D01*
X213620057Y-182609523D02*
X213715295Y-182657142D01*
X213715295Y-182657142D02*
X213858152Y-182657142D01*
X213858152Y-182657142D02*
X213953390Y-182609523D01*
X213953390Y-182609523D02*
X214001009Y-182561904D01*
X214001009Y-182561904D02*
X214048628Y-182466666D01*
X214048628Y-182466666D02*
X214048628Y-182085714D01*
X214524819Y-183609523D02*
X214524819Y-183038095D01*
X214524819Y-183323809D02*
X213524819Y-183323809D01*
X213524819Y-183323809D02*
X213667676Y-183228571D01*
X213667676Y-183228571D02*
X213762914Y-183133333D01*
X213762914Y-183133333D02*
X213810533Y-183038095D01*
X213953390Y-184180952D02*
X213905771Y-184085714D01*
X213905771Y-184085714D02*
X213858152Y-184038095D01*
X213858152Y-184038095D02*
X213762914Y-183990476D01*
X213762914Y-183990476D02*
X213715295Y-183990476D01*
X213715295Y-183990476D02*
X213620057Y-184038095D01*
X213620057Y-184038095D02*
X213572438Y-184085714D01*
X213572438Y-184085714D02*
X213524819Y-184180952D01*
X213524819Y-184180952D02*
X213524819Y-184371428D01*
X213524819Y-184371428D02*
X213572438Y-184466666D01*
X213572438Y-184466666D02*
X213620057Y-184514285D01*
X213620057Y-184514285D02*
X213715295Y-184561904D01*
X213715295Y-184561904D02*
X213762914Y-184561904D01*
X213762914Y-184561904D02*
X213858152Y-184514285D01*
X213858152Y-184514285D02*
X213905771Y-184466666D01*
X213905771Y-184466666D02*
X213953390Y-184371428D01*
X213953390Y-184371428D02*
X213953390Y-184180952D01*
X213953390Y-184180952D02*
X214001009Y-184085714D01*
X214001009Y-184085714D02*
X214048628Y-184038095D01*
X214048628Y-184038095D02*
X214143866Y-183990476D01*
X214143866Y-183990476D02*
X214334342Y-183990476D01*
X214334342Y-183990476D02*
X214429580Y-184038095D01*
X214429580Y-184038095D02*
X214477200Y-184085714D01*
X214477200Y-184085714D02*
X214524819Y-184180952D01*
X214524819Y-184180952D02*
X214524819Y-184371428D01*
X214524819Y-184371428D02*
X214477200Y-184466666D01*
X214477200Y-184466666D02*
X214429580Y-184514285D01*
X214429580Y-184514285D02*
X214334342Y-184561904D01*
X214334342Y-184561904D02*
X214143866Y-184561904D01*
X214143866Y-184561904D02*
X214048628Y-184514285D01*
X214048628Y-184514285D02*
X214001009Y-184466666D01*
X214001009Y-184466666D02*
X213953390Y-184371428D01*
X174146428Y-236950057D02*
X174241666Y-236902438D01*
X174241666Y-236902438D02*
X174336904Y-236807200D01*
X174336904Y-236807200D02*
X174479761Y-236664342D01*
X174479761Y-236664342D02*
X174574999Y-236616723D01*
X174574999Y-236616723D02*
X174670237Y-236616723D01*
X174622618Y-236854819D02*
X174717856Y-236807200D01*
X174717856Y-236807200D02*
X174813094Y-236711961D01*
X174813094Y-236711961D02*
X174860713Y-236521485D01*
X174860713Y-236521485D02*
X174860713Y-236188152D01*
X174860713Y-236188152D02*
X174813094Y-235997676D01*
X174813094Y-235997676D02*
X174717856Y-235902438D01*
X174717856Y-235902438D02*
X174622618Y-235854819D01*
X174622618Y-235854819D02*
X174432142Y-235854819D01*
X174432142Y-235854819D02*
X174336904Y-235902438D01*
X174336904Y-235902438D02*
X174241666Y-235997676D01*
X174241666Y-235997676D02*
X174194047Y-236188152D01*
X174194047Y-236188152D02*
X174194047Y-236521485D01*
X174194047Y-236521485D02*
X174241666Y-236711961D01*
X174241666Y-236711961D02*
X174336904Y-236807200D01*
X174336904Y-236807200D02*
X174432142Y-236854819D01*
X174432142Y-236854819D02*
X174622618Y-236854819D01*
X173860713Y-235854819D02*
X173241666Y-235854819D01*
X173241666Y-235854819D02*
X173574999Y-236235771D01*
X173574999Y-236235771D02*
X173432142Y-236235771D01*
X173432142Y-236235771D02*
X173336904Y-236283390D01*
X173336904Y-236283390D02*
X173289285Y-236331009D01*
X173289285Y-236331009D02*
X173241666Y-236426247D01*
X173241666Y-236426247D02*
X173241666Y-236664342D01*
X173241666Y-236664342D02*
X173289285Y-236759580D01*
X173289285Y-236759580D02*
X173336904Y-236807200D01*
X173336904Y-236807200D02*
X173432142Y-236854819D01*
X173432142Y-236854819D02*
X173717856Y-236854819D01*
X173717856Y-236854819D02*
X173813094Y-236807200D01*
X173813094Y-236807200D02*
X173860713Y-236759580D01*
X172908332Y-235854819D02*
X172289285Y-235854819D01*
X172289285Y-235854819D02*
X172622618Y-236235771D01*
X172622618Y-236235771D02*
X172479761Y-236235771D01*
X172479761Y-236235771D02*
X172384523Y-236283390D01*
X172384523Y-236283390D02*
X172336904Y-236331009D01*
X172336904Y-236331009D02*
X172289285Y-236426247D01*
X172289285Y-236426247D02*
X172289285Y-236664342D01*
X172289285Y-236664342D02*
X172336904Y-236759580D01*
X172336904Y-236759580D02*
X172384523Y-236807200D01*
X172384523Y-236807200D02*
X172479761Y-236854819D01*
X172479761Y-236854819D02*
X172765475Y-236854819D01*
X172765475Y-236854819D02*
X172860713Y-236807200D01*
X172860713Y-236807200D02*
X172908332Y-236759580D01*
X350146429Y-236950057D02*
X350241667Y-236902438D01*
X350241667Y-236902438D02*
X350336905Y-236807200D01*
X350336905Y-236807200D02*
X350479762Y-236664342D01*
X350479762Y-236664342D02*
X350575000Y-236616723D01*
X350575000Y-236616723D02*
X350670238Y-236616723D01*
X350622619Y-236854819D02*
X350717857Y-236807200D01*
X350717857Y-236807200D02*
X350813095Y-236711961D01*
X350813095Y-236711961D02*
X350860714Y-236521485D01*
X350860714Y-236521485D02*
X350860714Y-236188152D01*
X350860714Y-236188152D02*
X350813095Y-235997676D01*
X350813095Y-235997676D02*
X350717857Y-235902438D01*
X350717857Y-235902438D02*
X350622619Y-235854819D01*
X350622619Y-235854819D02*
X350432143Y-235854819D01*
X350432143Y-235854819D02*
X350336905Y-235902438D01*
X350336905Y-235902438D02*
X350241667Y-235997676D01*
X350241667Y-235997676D02*
X350194048Y-236188152D01*
X350194048Y-236188152D02*
X350194048Y-236521485D01*
X350194048Y-236521485D02*
X350241667Y-236711961D01*
X350241667Y-236711961D02*
X350336905Y-236807200D01*
X350336905Y-236807200D02*
X350432143Y-236854819D01*
X350432143Y-236854819D02*
X350622619Y-236854819D01*
X349336905Y-236188152D02*
X349336905Y-236854819D01*
X349575000Y-235807200D02*
X349813095Y-236521485D01*
X349813095Y-236521485D02*
X349194048Y-236521485D01*
X348289286Y-236854819D02*
X348860714Y-236854819D01*
X348575000Y-236854819D02*
X348575000Y-235854819D01*
X348575000Y-235854819D02*
X348670238Y-235997676D01*
X348670238Y-235997676D02*
X348765476Y-236092914D01*
X348765476Y-236092914D02*
X348860714Y-236140533D01*
X176294047Y-239384819D02*
X176627380Y-238908628D01*
X176865475Y-239384819D02*
X176865475Y-238384819D01*
X176865475Y-238384819D02*
X176484523Y-238384819D01*
X176484523Y-238384819D02*
X176389285Y-238432438D01*
X176389285Y-238432438D02*
X176341666Y-238480057D01*
X176341666Y-238480057D02*
X176294047Y-238575295D01*
X176294047Y-238575295D02*
X176294047Y-238718152D01*
X176294047Y-238718152D02*
X176341666Y-238813390D01*
X176341666Y-238813390D02*
X176389285Y-238861009D01*
X176389285Y-238861009D02*
X176484523Y-238908628D01*
X176484523Y-238908628D02*
X176865475Y-238908628D01*
X175341666Y-239384819D02*
X175913094Y-239384819D01*
X175627380Y-239384819D02*
X175627380Y-238384819D01*
X175627380Y-238384819D02*
X175722618Y-238527676D01*
X175722618Y-238527676D02*
X175817856Y-238622914D01*
X175817856Y-238622914D02*
X175913094Y-238670533D01*
X174722618Y-238384819D02*
X174627380Y-238384819D01*
X174627380Y-238384819D02*
X174532142Y-238432438D01*
X174532142Y-238432438D02*
X174484523Y-238480057D01*
X174484523Y-238480057D02*
X174436904Y-238575295D01*
X174436904Y-238575295D02*
X174389285Y-238765771D01*
X174389285Y-238765771D02*
X174389285Y-239003866D01*
X174389285Y-239003866D02*
X174436904Y-239194342D01*
X174436904Y-239194342D02*
X174484523Y-239289580D01*
X174484523Y-239289580D02*
X174532142Y-239337200D01*
X174532142Y-239337200D02*
X174627380Y-239384819D01*
X174627380Y-239384819D02*
X174722618Y-239384819D01*
X174722618Y-239384819D02*
X174817856Y-239337200D01*
X174817856Y-239337200D02*
X174865475Y-239289580D01*
X174865475Y-239289580D02*
X174913094Y-239194342D01*
X174913094Y-239194342D02*
X174960713Y-239003866D01*
X174960713Y-239003866D02*
X174960713Y-238765771D01*
X174960713Y-238765771D02*
X174913094Y-238575295D01*
X174913094Y-238575295D02*
X174865475Y-238480057D01*
X174865475Y-238480057D02*
X174817856Y-238432438D01*
X174817856Y-238432438D02*
X174722618Y-238384819D01*
X173436904Y-239384819D02*
X174008332Y-239384819D01*
X173722618Y-239384819D02*
X173722618Y-238384819D01*
X173722618Y-238384819D02*
X173817856Y-238527676D01*
X173817856Y-238527676D02*
X173913094Y-238622914D01*
X173913094Y-238622914D02*
X174008332Y-238670533D01*
X361642857Y-167424819D02*
X361976190Y-166948628D01*
X362214285Y-167424819D02*
X362214285Y-166424819D01*
X362214285Y-166424819D02*
X361833333Y-166424819D01*
X361833333Y-166424819D02*
X361738095Y-166472438D01*
X361738095Y-166472438D02*
X361690476Y-166520057D01*
X361690476Y-166520057D02*
X361642857Y-166615295D01*
X361642857Y-166615295D02*
X361642857Y-166758152D01*
X361642857Y-166758152D02*
X361690476Y-166853390D01*
X361690476Y-166853390D02*
X361738095Y-166901009D01*
X361738095Y-166901009D02*
X361833333Y-166948628D01*
X361833333Y-166948628D02*
X362214285Y-166948628D01*
X360785714Y-166424819D02*
X360976190Y-166424819D01*
X360976190Y-166424819D02*
X361071428Y-166472438D01*
X361071428Y-166472438D02*
X361119047Y-166520057D01*
X361119047Y-166520057D02*
X361214285Y-166662914D01*
X361214285Y-166662914D02*
X361261904Y-166853390D01*
X361261904Y-166853390D02*
X361261904Y-167234342D01*
X361261904Y-167234342D02*
X361214285Y-167329580D01*
X361214285Y-167329580D02*
X361166666Y-167377200D01*
X361166666Y-167377200D02*
X361071428Y-167424819D01*
X361071428Y-167424819D02*
X360880952Y-167424819D01*
X360880952Y-167424819D02*
X360785714Y-167377200D01*
X360785714Y-167377200D02*
X360738095Y-167329580D01*
X360738095Y-167329580D02*
X360690476Y-167234342D01*
X360690476Y-167234342D02*
X360690476Y-166996247D01*
X360690476Y-166996247D02*
X360738095Y-166901009D01*
X360738095Y-166901009D02*
X360785714Y-166853390D01*
X360785714Y-166853390D02*
X360880952Y-166805771D01*
X360880952Y-166805771D02*
X361071428Y-166805771D01*
X361071428Y-166805771D02*
X361166666Y-166853390D01*
X361166666Y-166853390D02*
X361214285Y-166901009D01*
X361214285Y-166901009D02*
X361261904Y-166996247D01*
X359785714Y-166424819D02*
X360261904Y-166424819D01*
X360261904Y-166424819D02*
X360309523Y-166901009D01*
X360309523Y-166901009D02*
X360261904Y-166853390D01*
X360261904Y-166853390D02*
X360166666Y-166805771D01*
X360166666Y-166805771D02*
X359928571Y-166805771D01*
X359928571Y-166805771D02*
X359833333Y-166853390D01*
X359833333Y-166853390D02*
X359785714Y-166901009D01*
X359785714Y-166901009D02*
X359738095Y-166996247D01*
X359738095Y-166996247D02*
X359738095Y-167234342D01*
X359738095Y-167234342D02*
X359785714Y-167329580D01*
X359785714Y-167329580D02*
X359833333Y-167377200D01*
X359833333Y-167377200D02*
X359928571Y-167424819D01*
X359928571Y-167424819D02*
X360166666Y-167424819D01*
X360166666Y-167424819D02*
X360261904Y-167377200D01*
X360261904Y-167377200D02*
X360309523Y-167329580D01*
X302524819Y-182657142D02*
X302048628Y-182323809D01*
X302524819Y-182085714D02*
X301524819Y-182085714D01*
X301524819Y-182085714D02*
X301524819Y-182466666D01*
X301524819Y-182466666D02*
X301572438Y-182561904D01*
X301572438Y-182561904D02*
X301620057Y-182609523D01*
X301620057Y-182609523D02*
X301715295Y-182657142D01*
X301715295Y-182657142D02*
X301858152Y-182657142D01*
X301858152Y-182657142D02*
X301953390Y-182609523D01*
X301953390Y-182609523D02*
X302001009Y-182561904D01*
X302001009Y-182561904D02*
X302048628Y-182466666D01*
X302048628Y-182466666D02*
X302048628Y-182085714D01*
X301858152Y-183514285D02*
X302524819Y-183514285D01*
X301477200Y-183276190D02*
X302191485Y-183038095D01*
X302191485Y-183038095D02*
X302191485Y-183657142D01*
X301524819Y-184228571D02*
X301524819Y-184323809D01*
X301524819Y-184323809D02*
X301572438Y-184419047D01*
X301572438Y-184419047D02*
X301620057Y-184466666D01*
X301620057Y-184466666D02*
X301715295Y-184514285D01*
X301715295Y-184514285D02*
X301905771Y-184561904D01*
X301905771Y-184561904D02*
X302143866Y-184561904D01*
X302143866Y-184561904D02*
X302334342Y-184514285D01*
X302334342Y-184514285D02*
X302429580Y-184466666D01*
X302429580Y-184466666D02*
X302477200Y-184419047D01*
X302477200Y-184419047D02*
X302524819Y-184323809D01*
X302524819Y-184323809D02*
X302524819Y-184228571D01*
X302524819Y-184228571D02*
X302477200Y-184133333D01*
X302477200Y-184133333D02*
X302429580Y-184085714D01*
X302429580Y-184085714D02*
X302334342Y-184038095D01*
X302334342Y-184038095D02*
X302143866Y-183990476D01*
X302143866Y-183990476D02*
X301905771Y-183990476D01*
X301905771Y-183990476D02*
X301715295Y-184038095D01*
X301715295Y-184038095D02*
X301620057Y-184085714D01*
X301620057Y-184085714D02*
X301572438Y-184133333D01*
X301572438Y-184133333D02*
X301524819Y-184228571D01*
X273642857Y-167424819D02*
X273976190Y-166948628D01*
X274214285Y-167424819D02*
X274214285Y-166424819D01*
X274214285Y-166424819D02*
X273833333Y-166424819D01*
X273833333Y-166424819D02*
X273738095Y-166472438D01*
X273738095Y-166472438D02*
X273690476Y-166520057D01*
X273690476Y-166520057D02*
X273642857Y-166615295D01*
X273642857Y-166615295D02*
X273642857Y-166758152D01*
X273642857Y-166758152D02*
X273690476Y-166853390D01*
X273690476Y-166853390D02*
X273738095Y-166901009D01*
X273738095Y-166901009D02*
X273833333Y-166948628D01*
X273833333Y-166948628D02*
X274214285Y-166948628D01*
X272785714Y-166758152D02*
X272785714Y-167424819D01*
X273023809Y-166377200D02*
X273261904Y-167091485D01*
X273261904Y-167091485D02*
X272642857Y-167091485D01*
X271785714Y-166424819D02*
X272261904Y-166424819D01*
X272261904Y-166424819D02*
X272309523Y-166901009D01*
X272309523Y-166901009D02*
X272261904Y-166853390D01*
X272261904Y-166853390D02*
X272166666Y-166805771D01*
X272166666Y-166805771D02*
X271928571Y-166805771D01*
X271928571Y-166805771D02*
X271833333Y-166853390D01*
X271833333Y-166853390D02*
X271785714Y-166901009D01*
X271785714Y-166901009D02*
X271738095Y-166996247D01*
X271738095Y-166996247D02*
X271738095Y-167234342D01*
X271738095Y-167234342D02*
X271785714Y-167329580D01*
X271785714Y-167329580D02*
X271833333Y-167377200D01*
X271833333Y-167377200D02*
X271928571Y-167424819D01*
X271928571Y-167424819D02*
X272166666Y-167424819D01*
X272166666Y-167424819D02*
X272261904Y-167377200D01*
X272261904Y-167377200D02*
X272309523Y-167329580D01*
X188162857Y-163419580D02*
X188210476Y-163467200D01*
X188210476Y-163467200D02*
X188353333Y-163514819D01*
X188353333Y-163514819D02*
X188448571Y-163514819D01*
X188448571Y-163514819D02*
X188591428Y-163467200D01*
X188591428Y-163467200D02*
X188686666Y-163371961D01*
X188686666Y-163371961D02*
X188734285Y-163276723D01*
X188734285Y-163276723D02*
X188781904Y-163086247D01*
X188781904Y-163086247D02*
X188781904Y-162943390D01*
X188781904Y-162943390D02*
X188734285Y-162752914D01*
X188734285Y-162752914D02*
X188686666Y-162657676D01*
X188686666Y-162657676D02*
X188591428Y-162562438D01*
X188591428Y-162562438D02*
X188448571Y-162514819D01*
X188448571Y-162514819D02*
X188353333Y-162514819D01*
X188353333Y-162514819D02*
X188210476Y-162562438D01*
X188210476Y-162562438D02*
X188162857Y-162610057D01*
X187829523Y-162514819D02*
X187210476Y-162514819D01*
X187210476Y-162514819D02*
X187543809Y-162895771D01*
X187543809Y-162895771D02*
X187400952Y-162895771D01*
X187400952Y-162895771D02*
X187305714Y-162943390D01*
X187305714Y-162943390D02*
X187258095Y-162991009D01*
X187258095Y-162991009D02*
X187210476Y-163086247D01*
X187210476Y-163086247D02*
X187210476Y-163324342D01*
X187210476Y-163324342D02*
X187258095Y-163419580D01*
X187258095Y-163419580D02*
X187305714Y-163467200D01*
X187305714Y-163467200D02*
X187400952Y-163514819D01*
X187400952Y-163514819D02*
X187686666Y-163514819D01*
X187686666Y-163514819D02*
X187781904Y-163467200D01*
X187781904Y-163467200D02*
X187829523Y-163419580D01*
X186258095Y-163514819D02*
X186829523Y-163514819D01*
X186543809Y-163514819D02*
X186543809Y-162514819D01*
X186543809Y-162514819D02*
X186639047Y-162657676D01*
X186639047Y-162657676D02*
X186734285Y-162752914D01*
X186734285Y-162752914D02*
X186829523Y-162800533D01*
X352294048Y-239384819D02*
X352627381Y-238908628D01*
X352865476Y-239384819D02*
X352865476Y-238384819D01*
X352865476Y-238384819D02*
X352484524Y-238384819D01*
X352484524Y-238384819D02*
X352389286Y-238432438D01*
X352389286Y-238432438D02*
X352341667Y-238480057D01*
X352341667Y-238480057D02*
X352294048Y-238575295D01*
X352294048Y-238575295D02*
X352294048Y-238718152D01*
X352294048Y-238718152D02*
X352341667Y-238813390D01*
X352341667Y-238813390D02*
X352389286Y-238861009D01*
X352389286Y-238861009D02*
X352484524Y-238908628D01*
X352484524Y-238908628D02*
X352865476Y-238908628D01*
X351341667Y-239384819D02*
X351913095Y-239384819D01*
X351627381Y-239384819D02*
X351627381Y-238384819D01*
X351627381Y-238384819D02*
X351722619Y-238527676D01*
X351722619Y-238527676D02*
X351817857Y-238622914D01*
X351817857Y-238622914D02*
X351913095Y-238670533D01*
X351008333Y-238384819D02*
X350389286Y-238384819D01*
X350389286Y-238384819D02*
X350722619Y-238765771D01*
X350722619Y-238765771D02*
X350579762Y-238765771D01*
X350579762Y-238765771D02*
X350484524Y-238813390D01*
X350484524Y-238813390D02*
X350436905Y-238861009D01*
X350436905Y-238861009D02*
X350389286Y-238956247D01*
X350389286Y-238956247D02*
X350389286Y-239194342D01*
X350389286Y-239194342D02*
X350436905Y-239289580D01*
X350436905Y-239289580D02*
X350484524Y-239337200D01*
X350484524Y-239337200D02*
X350579762Y-239384819D01*
X350579762Y-239384819D02*
X350865476Y-239384819D01*
X350865476Y-239384819D02*
X350960714Y-239337200D01*
X350960714Y-239337200D02*
X351008333Y-239289580D01*
X350055952Y-238384819D02*
X349436905Y-238384819D01*
X349436905Y-238384819D02*
X349770238Y-238765771D01*
X349770238Y-238765771D02*
X349627381Y-238765771D01*
X349627381Y-238765771D02*
X349532143Y-238813390D01*
X349532143Y-238813390D02*
X349484524Y-238861009D01*
X349484524Y-238861009D02*
X349436905Y-238956247D01*
X349436905Y-238956247D02*
X349436905Y-239194342D01*
X349436905Y-239194342D02*
X349484524Y-239289580D01*
X349484524Y-239289580D02*
X349532143Y-239337200D01*
X349532143Y-239337200D02*
X349627381Y-239384819D01*
X349627381Y-239384819D02*
X349913095Y-239384819D01*
X349913095Y-239384819D02*
X350008333Y-239337200D01*
X350008333Y-239337200D02*
X350055952Y-239289580D01*
X373950057Y-182828571D02*
X373902438Y-182733333D01*
X373902438Y-182733333D02*
X373807200Y-182638095D01*
X373807200Y-182638095D02*
X373664342Y-182495238D01*
X373664342Y-182495238D02*
X373616723Y-182400000D01*
X373616723Y-182400000D02*
X373616723Y-182304762D01*
X373854819Y-182352381D02*
X373807200Y-182257143D01*
X373807200Y-182257143D02*
X373711961Y-182161905D01*
X373711961Y-182161905D02*
X373521485Y-182114286D01*
X373521485Y-182114286D02*
X373188152Y-182114286D01*
X373188152Y-182114286D02*
X372997676Y-182161905D01*
X372997676Y-182161905D02*
X372902438Y-182257143D01*
X372902438Y-182257143D02*
X372854819Y-182352381D01*
X372854819Y-182352381D02*
X372854819Y-182542857D01*
X372854819Y-182542857D02*
X372902438Y-182638095D01*
X372902438Y-182638095D02*
X372997676Y-182733333D01*
X372997676Y-182733333D02*
X373188152Y-182780952D01*
X373188152Y-182780952D02*
X373521485Y-182780952D01*
X373521485Y-182780952D02*
X373711961Y-182733333D01*
X373711961Y-182733333D02*
X373807200Y-182638095D01*
X373807200Y-182638095D02*
X373854819Y-182542857D01*
X373854819Y-182542857D02*
X373854819Y-182352381D01*
X372950057Y-183161905D02*
X372902438Y-183209524D01*
X372902438Y-183209524D02*
X372854819Y-183304762D01*
X372854819Y-183304762D02*
X372854819Y-183542857D01*
X372854819Y-183542857D02*
X372902438Y-183638095D01*
X372902438Y-183638095D02*
X372950057Y-183685714D01*
X372950057Y-183685714D02*
X373045295Y-183733333D01*
X373045295Y-183733333D02*
X373140533Y-183733333D01*
X373140533Y-183733333D02*
X373283390Y-183685714D01*
X373283390Y-183685714D02*
X373854819Y-183114286D01*
X373854819Y-183114286D02*
X373854819Y-183733333D01*
X372950057Y-184114286D02*
X372902438Y-184161905D01*
X372902438Y-184161905D02*
X372854819Y-184257143D01*
X372854819Y-184257143D02*
X372854819Y-184495238D01*
X372854819Y-184495238D02*
X372902438Y-184590476D01*
X372902438Y-184590476D02*
X372950057Y-184638095D01*
X372950057Y-184638095D02*
X373045295Y-184685714D01*
X373045295Y-184685714D02*
X373140533Y-184685714D01*
X373140533Y-184685714D02*
X373283390Y-184638095D01*
X373283390Y-184638095D02*
X373854819Y-184066667D01*
X373854819Y-184066667D02*
X373854819Y-184685714D01*
X288384819Y-174257142D02*
X287908628Y-173923809D01*
X288384819Y-173685714D02*
X287384819Y-173685714D01*
X287384819Y-173685714D02*
X287384819Y-174066666D01*
X287384819Y-174066666D02*
X287432438Y-174161904D01*
X287432438Y-174161904D02*
X287480057Y-174209523D01*
X287480057Y-174209523D02*
X287575295Y-174257142D01*
X287575295Y-174257142D02*
X287718152Y-174257142D01*
X287718152Y-174257142D02*
X287813390Y-174209523D01*
X287813390Y-174209523D02*
X287861009Y-174161904D01*
X287861009Y-174161904D02*
X287908628Y-174066666D01*
X287908628Y-174066666D02*
X287908628Y-173685714D01*
X287384819Y-174590476D02*
X287384819Y-175209523D01*
X287384819Y-175209523D02*
X287765771Y-174876190D01*
X287765771Y-174876190D02*
X287765771Y-175019047D01*
X287765771Y-175019047D02*
X287813390Y-175114285D01*
X287813390Y-175114285D02*
X287861009Y-175161904D01*
X287861009Y-175161904D02*
X287956247Y-175209523D01*
X287956247Y-175209523D02*
X288194342Y-175209523D01*
X288194342Y-175209523D02*
X288289580Y-175161904D01*
X288289580Y-175161904D02*
X288337200Y-175114285D01*
X288337200Y-175114285D02*
X288384819Y-175019047D01*
X288384819Y-175019047D02*
X288384819Y-174733333D01*
X288384819Y-174733333D02*
X288337200Y-174638095D01*
X288337200Y-174638095D02*
X288289580Y-174590476D01*
X287718152Y-176066666D02*
X288384819Y-176066666D01*
X287337200Y-175828571D02*
X288051485Y-175590476D01*
X288051485Y-175590476D02*
X288051485Y-176209523D01*
X180494047Y-239384819D02*
X180827380Y-238908628D01*
X181065475Y-239384819D02*
X181065475Y-238384819D01*
X181065475Y-238384819D02*
X180684523Y-238384819D01*
X180684523Y-238384819D02*
X180589285Y-238432438D01*
X180589285Y-238432438D02*
X180541666Y-238480057D01*
X180541666Y-238480057D02*
X180494047Y-238575295D01*
X180494047Y-238575295D02*
X180494047Y-238718152D01*
X180494047Y-238718152D02*
X180541666Y-238813390D01*
X180541666Y-238813390D02*
X180589285Y-238861009D01*
X180589285Y-238861009D02*
X180684523Y-238908628D01*
X180684523Y-238908628D02*
X181065475Y-238908628D01*
X179541666Y-239384819D02*
X180113094Y-239384819D01*
X179827380Y-239384819D02*
X179827380Y-238384819D01*
X179827380Y-238384819D02*
X179922618Y-238527676D01*
X179922618Y-238527676D02*
X180017856Y-238622914D01*
X180017856Y-238622914D02*
X180113094Y-238670533D01*
X178922618Y-238384819D02*
X178827380Y-238384819D01*
X178827380Y-238384819D02*
X178732142Y-238432438D01*
X178732142Y-238432438D02*
X178684523Y-238480057D01*
X178684523Y-238480057D02*
X178636904Y-238575295D01*
X178636904Y-238575295D02*
X178589285Y-238765771D01*
X178589285Y-238765771D02*
X178589285Y-239003866D01*
X178589285Y-239003866D02*
X178636904Y-239194342D01*
X178636904Y-239194342D02*
X178684523Y-239289580D01*
X178684523Y-239289580D02*
X178732142Y-239337200D01*
X178732142Y-239337200D02*
X178827380Y-239384819D01*
X178827380Y-239384819D02*
X178922618Y-239384819D01*
X178922618Y-239384819D02*
X179017856Y-239337200D01*
X179017856Y-239337200D02*
X179065475Y-239289580D01*
X179065475Y-239289580D02*
X179113094Y-239194342D01*
X179113094Y-239194342D02*
X179160713Y-239003866D01*
X179160713Y-239003866D02*
X179160713Y-238765771D01*
X179160713Y-238765771D02*
X179113094Y-238575295D01*
X179113094Y-238575295D02*
X179065475Y-238480057D01*
X179065475Y-238480057D02*
X179017856Y-238432438D01*
X179017856Y-238432438D02*
X178922618Y-238384819D01*
X177732142Y-238718152D02*
X177732142Y-239384819D01*
X177970237Y-238337200D02*
X178208332Y-239051485D01*
X178208332Y-239051485D02*
X177589285Y-239051485D01*
X364162857Y-163419580D02*
X364210476Y-163467200D01*
X364210476Y-163467200D02*
X364353333Y-163514819D01*
X364353333Y-163514819D02*
X364448571Y-163514819D01*
X364448571Y-163514819D02*
X364591428Y-163467200D01*
X364591428Y-163467200D02*
X364686666Y-163371961D01*
X364686666Y-163371961D02*
X364734285Y-163276723D01*
X364734285Y-163276723D02*
X364781904Y-163086247D01*
X364781904Y-163086247D02*
X364781904Y-162943390D01*
X364781904Y-162943390D02*
X364734285Y-162752914D01*
X364734285Y-162752914D02*
X364686666Y-162657676D01*
X364686666Y-162657676D02*
X364591428Y-162562438D01*
X364591428Y-162562438D02*
X364448571Y-162514819D01*
X364448571Y-162514819D02*
X364353333Y-162514819D01*
X364353333Y-162514819D02*
X364210476Y-162562438D01*
X364210476Y-162562438D02*
X364162857Y-162610057D01*
X363305714Y-162848152D02*
X363305714Y-163514819D01*
X363543809Y-162467200D02*
X363781904Y-163181485D01*
X363781904Y-163181485D02*
X363162857Y-163181485D01*
X362877142Y-162514819D02*
X362258095Y-162514819D01*
X362258095Y-162514819D02*
X362591428Y-162895771D01*
X362591428Y-162895771D02*
X362448571Y-162895771D01*
X362448571Y-162895771D02*
X362353333Y-162943390D01*
X362353333Y-162943390D02*
X362305714Y-162991009D01*
X362305714Y-162991009D02*
X362258095Y-163086247D01*
X362258095Y-163086247D02*
X362258095Y-163324342D01*
X362258095Y-163324342D02*
X362305714Y-163419580D01*
X362305714Y-163419580D02*
X362353333Y-163467200D01*
X362353333Y-163467200D02*
X362448571Y-163514819D01*
X362448571Y-163514819D02*
X362734285Y-163514819D01*
X362734285Y-163514819D02*
X362829523Y-163467200D01*
X362829523Y-163467200D02*
X362877142Y-163419580D01*
X288384819Y-178457142D02*
X287908628Y-178123809D01*
X288384819Y-177885714D02*
X287384819Y-177885714D01*
X287384819Y-177885714D02*
X287384819Y-178266666D01*
X287384819Y-178266666D02*
X287432438Y-178361904D01*
X287432438Y-178361904D02*
X287480057Y-178409523D01*
X287480057Y-178409523D02*
X287575295Y-178457142D01*
X287575295Y-178457142D02*
X287718152Y-178457142D01*
X287718152Y-178457142D02*
X287813390Y-178409523D01*
X287813390Y-178409523D02*
X287861009Y-178361904D01*
X287861009Y-178361904D02*
X287908628Y-178266666D01*
X287908628Y-178266666D02*
X287908628Y-177885714D01*
X287384819Y-178790476D02*
X287384819Y-179409523D01*
X287384819Y-179409523D02*
X287765771Y-179076190D01*
X287765771Y-179076190D02*
X287765771Y-179219047D01*
X287765771Y-179219047D02*
X287813390Y-179314285D01*
X287813390Y-179314285D02*
X287861009Y-179361904D01*
X287861009Y-179361904D02*
X287956247Y-179409523D01*
X287956247Y-179409523D02*
X288194342Y-179409523D01*
X288194342Y-179409523D02*
X288289580Y-179361904D01*
X288289580Y-179361904D02*
X288337200Y-179314285D01*
X288337200Y-179314285D02*
X288384819Y-179219047D01*
X288384819Y-179219047D02*
X288384819Y-178933333D01*
X288384819Y-178933333D02*
X288337200Y-178838095D01*
X288337200Y-178838095D02*
X288289580Y-178790476D01*
X287384819Y-180314285D02*
X287384819Y-179838095D01*
X287384819Y-179838095D02*
X287861009Y-179790476D01*
X287861009Y-179790476D02*
X287813390Y-179838095D01*
X287813390Y-179838095D02*
X287765771Y-179933333D01*
X287765771Y-179933333D02*
X287765771Y-180171428D01*
X287765771Y-180171428D02*
X287813390Y-180266666D01*
X287813390Y-180266666D02*
X287861009Y-180314285D01*
X287861009Y-180314285D02*
X287956247Y-180361904D01*
X287956247Y-180361904D02*
X288194342Y-180361904D01*
X288194342Y-180361904D02*
X288289580Y-180314285D01*
X288289580Y-180314285D02*
X288337200Y-180266666D01*
X288337200Y-180266666D02*
X288384819Y-180171428D01*
X288384819Y-180171428D02*
X288384819Y-179933333D01*
X288384819Y-179933333D02*
X288337200Y-179838095D01*
X288337200Y-179838095D02*
X288289580Y-179790476D01*
X200384819Y-178457142D02*
X199908628Y-178123809D01*
X200384819Y-177885714D02*
X199384819Y-177885714D01*
X199384819Y-177885714D02*
X199384819Y-178266666D01*
X199384819Y-178266666D02*
X199432438Y-178361904D01*
X199432438Y-178361904D02*
X199480057Y-178409523D01*
X199480057Y-178409523D02*
X199575295Y-178457142D01*
X199575295Y-178457142D02*
X199718152Y-178457142D01*
X199718152Y-178457142D02*
X199813390Y-178409523D01*
X199813390Y-178409523D02*
X199861009Y-178361904D01*
X199861009Y-178361904D02*
X199908628Y-178266666D01*
X199908628Y-178266666D02*
X199908628Y-177885714D01*
X200384819Y-179409523D02*
X200384819Y-178838095D01*
X200384819Y-179123809D02*
X199384819Y-179123809D01*
X199384819Y-179123809D02*
X199527676Y-179028571D01*
X199527676Y-179028571D02*
X199622914Y-178933333D01*
X199622914Y-178933333D02*
X199670533Y-178838095D01*
X199384819Y-179742857D02*
X199384819Y-180361904D01*
X199384819Y-180361904D02*
X199765771Y-180028571D01*
X199765771Y-180028571D02*
X199765771Y-180171428D01*
X199765771Y-180171428D02*
X199813390Y-180266666D01*
X199813390Y-180266666D02*
X199861009Y-180314285D01*
X199861009Y-180314285D02*
X199956247Y-180361904D01*
X199956247Y-180361904D02*
X200194342Y-180361904D01*
X200194342Y-180361904D02*
X200289580Y-180314285D01*
X200289580Y-180314285D02*
X200337200Y-180266666D01*
X200337200Y-180266666D02*
X200384819Y-180171428D01*
X200384819Y-180171428D02*
X200384819Y-179885714D01*
X200384819Y-179885714D02*
X200337200Y-179790476D01*
X200337200Y-179790476D02*
X200289580Y-179742857D01*
X390524819Y-182657142D02*
X390048628Y-182323809D01*
X390524819Y-182085714D02*
X389524819Y-182085714D01*
X389524819Y-182085714D02*
X389524819Y-182466666D01*
X389524819Y-182466666D02*
X389572438Y-182561904D01*
X389572438Y-182561904D02*
X389620057Y-182609523D01*
X389620057Y-182609523D02*
X389715295Y-182657142D01*
X389715295Y-182657142D02*
X389858152Y-182657142D01*
X389858152Y-182657142D02*
X389953390Y-182609523D01*
X389953390Y-182609523D02*
X390001009Y-182561904D01*
X390001009Y-182561904D02*
X390048628Y-182466666D01*
X390048628Y-182466666D02*
X390048628Y-182085714D01*
X389524819Y-183514285D02*
X389524819Y-183323809D01*
X389524819Y-183323809D02*
X389572438Y-183228571D01*
X389572438Y-183228571D02*
X389620057Y-183180952D01*
X389620057Y-183180952D02*
X389762914Y-183085714D01*
X389762914Y-183085714D02*
X389953390Y-183038095D01*
X389953390Y-183038095D02*
X390334342Y-183038095D01*
X390334342Y-183038095D02*
X390429580Y-183085714D01*
X390429580Y-183085714D02*
X390477200Y-183133333D01*
X390477200Y-183133333D02*
X390524819Y-183228571D01*
X390524819Y-183228571D02*
X390524819Y-183419047D01*
X390524819Y-183419047D02*
X390477200Y-183514285D01*
X390477200Y-183514285D02*
X390429580Y-183561904D01*
X390429580Y-183561904D02*
X390334342Y-183609523D01*
X390334342Y-183609523D02*
X390096247Y-183609523D01*
X390096247Y-183609523D02*
X390001009Y-183561904D01*
X390001009Y-183561904D02*
X389953390Y-183514285D01*
X389953390Y-183514285D02*
X389905771Y-183419047D01*
X389905771Y-183419047D02*
X389905771Y-183228571D01*
X389905771Y-183228571D02*
X389953390Y-183133333D01*
X389953390Y-183133333D02*
X390001009Y-183085714D01*
X390001009Y-183085714D02*
X390096247Y-183038095D01*
X389524819Y-184228571D02*
X389524819Y-184323809D01*
X389524819Y-184323809D02*
X389572438Y-184419047D01*
X389572438Y-184419047D02*
X389620057Y-184466666D01*
X389620057Y-184466666D02*
X389715295Y-184514285D01*
X389715295Y-184514285D02*
X389905771Y-184561904D01*
X389905771Y-184561904D02*
X390143866Y-184561904D01*
X390143866Y-184561904D02*
X390334342Y-184514285D01*
X390334342Y-184514285D02*
X390429580Y-184466666D01*
X390429580Y-184466666D02*
X390477200Y-184419047D01*
X390477200Y-184419047D02*
X390524819Y-184323809D01*
X390524819Y-184323809D02*
X390524819Y-184228571D01*
X390524819Y-184228571D02*
X390477200Y-184133333D01*
X390477200Y-184133333D02*
X390429580Y-184085714D01*
X390429580Y-184085714D02*
X390334342Y-184038095D01*
X390334342Y-184038095D02*
X390143866Y-183990476D01*
X390143866Y-183990476D02*
X389905771Y-183990476D01*
X389905771Y-183990476D02*
X389715295Y-184038095D01*
X389715295Y-184038095D02*
X389620057Y-184085714D01*
X389620057Y-184085714D02*
X389572438Y-184133333D01*
X389572438Y-184133333D02*
X389524819Y-184228571D01*
X182254819Y-164161905D02*
X181254819Y-164161905D01*
X181254819Y-164161905D02*
X181254819Y-164400000D01*
X181254819Y-164400000D02*
X181302438Y-164542857D01*
X181302438Y-164542857D02*
X181397676Y-164638095D01*
X181397676Y-164638095D02*
X181492914Y-164685714D01*
X181492914Y-164685714D02*
X181683390Y-164733333D01*
X181683390Y-164733333D02*
X181826247Y-164733333D01*
X181826247Y-164733333D02*
X182016723Y-164685714D01*
X182016723Y-164685714D02*
X182111961Y-164638095D01*
X182111961Y-164638095D02*
X182207200Y-164542857D01*
X182207200Y-164542857D02*
X182254819Y-164400000D01*
X182254819Y-164400000D02*
X182254819Y-164161905D01*
X181683390Y-165304762D02*
X181635771Y-165209524D01*
X181635771Y-165209524D02*
X181588152Y-165161905D01*
X181588152Y-165161905D02*
X181492914Y-165114286D01*
X181492914Y-165114286D02*
X181445295Y-165114286D01*
X181445295Y-165114286D02*
X181350057Y-165161905D01*
X181350057Y-165161905D02*
X181302438Y-165209524D01*
X181302438Y-165209524D02*
X181254819Y-165304762D01*
X181254819Y-165304762D02*
X181254819Y-165495238D01*
X181254819Y-165495238D02*
X181302438Y-165590476D01*
X181302438Y-165590476D02*
X181350057Y-165638095D01*
X181350057Y-165638095D02*
X181445295Y-165685714D01*
X181445295Y-165685714D02*
X181492914Y-165685714D01*
X181492914Y-165685714D02*
X181588152Y-165638095D01*
X181588152Y-165638095D02*
X181635771Y-165590476D01*
X181635771Y-165590476D02*
X181683390Y-165495238D01*
X181683390Y-165495238D02*
X181683390Y-165304762D01*
X181683390Y-165304762D02*
X181731009Y-165209524D01*
X181731009Y-165209524D02*
X181778628Y-165161905D01*
X181778628Y-165161905D02*
X181873866Y-165114286D01*
X181873866Y-165114286D02*
X182064342Y-165114286D01*
X182064342Y-165114286D02*
X182159580Y-165161905D01*
X182159580Y-165161905D02*
X182207200Y-165209524D01*
X182207200Y-165209524D02*
X182254819Y-165304762D01*
X182254819Y-165304762D02*
X182254819Y-165495238D01*
X182254819Y-165495238D02*
X182207200Y-165590476D01*
X182207200Y-165590476D02*
X182159580Y-165638095D01*
X182159580Y-165638095D02*
X182064342Y-165685714D01*
X182064342Y-165685714D02*
X181873866Y-165685714D01*
X181873866Y-165685714D02*
X181778628Y-165638095D01*
X181778628Y-165638095D02*
X181731009Y-165590476D01*
X181731009Y-165590476D02*
X181683390Y-165495238D01*
X214524819Y-178457142D02*
X214048628Y-178123809D01*
X214524819Y-177885714D02*
X213524819Y-177885714D01*
X213524819Y-177885714D02*
X213524819Y-178266666D01*
X213524819Y-178266666D02*
X213572438Y-178361904D01*
X213572438Y-178361904D02*
X213620057Y-178409523D01*
X213620057Y-178409523D02*
X213715295Y-178457142D01*
X213715295Y-178457142D02*
X213858152Y-178457142D01*
X213858152Y-178457142D02*
X213953390Y-178409523D01*
X213953390Y-178409523D02*
X214001009Y-178361904D01*
X214001009Y-178361904D02*
X214048628Y-178266666D01*
X214048628Y-178266666D02*
X214048628Y-177885714D01*
X214524819Y-179409523D02*
X214524819Y-178838095D01*
X214524819Y-179123809D02*
X213524819Y-179123809D01*
X213524819Y-179123809D02*
X213667676Y-179028571D01*
X213667676Y-179028571D02*
X213762914Y-178933333D01*
X213762914Y-178933333D02*
X213810533Y-178838095D01*
X213524819Y-180266666D02*
X213524819Y-180076190D01*
X213524819Y-180076190D02*
X213572438Y-179980952D01*
X213572438Y-179980952D02*
X213620057Y-179933333D01*
X213620057Y-179933333D02*
X213762914Y-179838095D01*
X213762914Y-179838095D02*
X213953390Y-179790476D01*
X213953390Y-179790476D02*
X214334342Y-179790476D01*
X214334342Y-179790476D02*
X214429580Y-179838095D01*
X214429580Y-179838095D02*
X214477200Y-179885714D01*
X214477200Y-179885714D02*
X214524819Y-179980952D01*
X214524819Y-179980952D02*
X214524819Y-180171428D01*
X214524819Y-180171428D02*
X214477200Y-180266666D01*
X214477200Y-180266666D02*
X214429580Y-180314285D01*
X214429580Y-180314285D02*
X214334342Y-180361904D01*
X214334342Y-180361904D02*
X214096247Y-180361904D01*
X214096247Y-180361904D02*
X214001009Y-180314285D01*
X214001009Y-180314285D02*
X213953390Y-180266666D01*
X213953390Y-180266666D02*
X213905771Y-180171428D01*
X213905771Y-180171428D02*
X213905771Y-179980952D01*
X213905771Y-179980952D02*
X213953390Y-179885714D01*
X213953390Y-179885714D02*
X214001009Y-179838095D01*
X214001009Y-179838095D02*
X214096247Y-179790476D01*
X197950057Y-183304761D02*
X197902438Y-183209523D01*
X197902438Y-183209523D02*
X197807200Y-183114285D01*
X197807200Y-183114285D02*
X197664342Y-182971428D01*
X197664342Y-182971428D02*
X197616723Y-182876190D01*
X197616723Y-182876190D02*
X197616723Y-182780952D01*
X197854819Y-182828571D02*
X197807200Y-182733333D01*
X197807200Y-182733333D02*
X197711961Y-182638095D01*
X197711961Y-182638095D02*
X197521485Y-182590476D01*
X197521485Y-182590476D02*
X197188152Y-182590476D01*
X197188152Y-182590476D02*
X196997676Y-182638095D01*
X196997676Y-182638095D02*
X196902438Y-182733333D01*
X196902438Y-182733333D02*
X196854819Y-182828571D01*
X196854819Y-182828571D02*
X196854819Y-183019047D01*
X196854819Y-183019047D02*
X196902438Y-183114285D01*
X196902438Y-183114285D02*
X196997676Y-183209523D01*
X196997676Y-183209523D02*
X197188152Y-183257142D01*
X197188152Y-183257142D02*
X197521485Y-183257142D01*
X197521485Y-183257142D02*
X197711961Y-183209523D01*
X197711961Y-183209523D02*
X197807200Y-183114285D01*
X197807200Y-183114285D02*
X197854819Y-183019047D01*
X197854819Y-183019047D02*
X197854819Y-182828571D01*
X197188152Y-184114285D02*
X197854819Y-184114285D01*
X196807200Y-183876190D02*
X197521485Y-183638095D01*
X197521485Y-183638095D02*
X197521485Y-184257142D01*
X285950057Y-182828571D02*
X285902438Y-182733333D01*
X285902438Y-182733333D02*
X285807200Y-182638095D01*
X285807200Y-182638095D02*
X285664342Y-182495238D01*
X285664342Y-182495238D02*
X285616723Y-182400000D01*
X285616723Y-182400000D02*
X285616723Y-182304762D01*
X285854819Y-182352381D02*
X285807200Y-182257143D01*
X285807200Y-182257143D02*
X285711961Y-182161905D01*
X285711961Y-182161905D02*
X285521485Y-182114286D01*
X285521485Y-182114286D02*
X285188152Y-182114286D01*
X285188152Y-182114286D02*
X284997676Y-182161905D01*
X284997676Y-182161905D02*
X284902438Y-182257143D01*
X284902438Y-182257143D02*
X284854819Y-182352381D01*
X284854819Y-182352381D02*
X284854819Y-182542857D01*
X284854819Y-182542857D02*
X284902438Y-182638095D01*
X284902438Y-182638095D02*
X284997676Y-182733333D01*
X284997676Y-182733333D02*
X285188152Y-182780952D01*
X285188152Y-182780952D02*
X285521485Y-182780952D01*
X285521485Y-182780952D02*
X285711961Y-182733333D01*
X285711961Y-182733333D02*
X285807200Y-182638095D01*
X285807200Y-182638095D02*
X285854819Y-182542857D01*
X285854819Y-182542857D02*
X285854819Y-182352381D01*
X285854819Y-183733333D02*
X285854819Y-183161905D01*
X285854819Y-183447619D02*
X284854819Y-183447619D01*
X284854819Y-183447619D02*
X284997676Y-183352381D01*
X284997676Y-183352381D02*
X285092914Y-183257143D01*
X285092914Y-183257143D02*
X285140533Y-183161905D01*
X284854819Y-184066667D02*
X284854819Y-184685714D01*
X284854819Y-184685714D02*
X285235771Y-184352381D01*
X285235771Y-184352381D02*
X285235771Y-184495238D01*
X285235771Y-184495238D02*
X285283390Y-184590476D01*
X285283390Y-184590476D02*
X285331009Y-184638095D01*
X285331009Y-184638095D02*
X285426247Y-184685714D01*
X285426247Y-184685714D02*
X285664342Y-184685714D01*
X285664342Y-184685714D02*
X285759580Y-184638095D01*
X285759580Y-184638095D02*
X285807200Y-184590476D01*
X285807200Y-184590476D02*
X285854819Y-184495238D01*
X285854819Y-184495238D02*
X285854819Y-184209524D01*
X285854819Y-184209524D02*
X285807200Y-184114286D01*
X285807200Y-184114286D02*
X285759580Y-184066667D01*
X376384819Y-178457142D02*
X375908628Y-178123809D01*
X376384819Y-177885714D02*
X375384819Y-177885714D01*
X375384819Y-177885714D02*
X375384819Y-178266666D01*
X375384819Y-178266666D02*
X375432438Y-178361904D01*
X375432438Y-178361904D02*
X375480057Y-178409523D01*
X375480057Y-178409523D02*
X375575295Y-178457142D01*
X375575295Y-178457142D02*
X375718152Y-178457142D01*
X375718152Y-178457142D02*
X375813390Y-178409523D01*
X375813390Y-178409523D02*
X375861009Y-178361904D01*
X375861009Y-178361904D02*
X375908628Y-178266666D01*
X375908628Y-178266666D02*
X375908628Y-177885714D01*
X375384819Y-179361904D02*
X375384819Y-178885714D01*
X375384819Y-178885714D02*
X375861009Y-178838095D01*
X375861009Y-178838095D02*
X375813390Y-178885714D01*
X375813390Y-178885714D02*
X375765771Y-178980952D01*
X375765771Y-178980952D02*
X375765771Y-179219047D01*
X375765771Y-179219047D02*
X375813390Y-179314285D01*
X375813390Y-179314285D02*
X375861009Y-179361904D01*
X375861009Y-179361904D02*
X375956247Y-179409523D01*
X375956247Y-179409523D02*
X376194342Y-179409523D01*
X376194342Y-179409523D02*
X376289580Y-179361904D01*
X376289580Y-179361904D02*
X376337200Y-179314285D01*
X376337200Y-179314285D02*
X376384819Y-179219047D01*
X376384819Y-179219047D02*
X376384819Y-178980952D01*
X376384819Y-178980952D02*
X376337200Y-178885714D01*
X376337200Y-178885714D02*
X376289580Y-178838095D01*
X375384819Y-180314285D02*
X375384819Y-179838095D01*
X375384819Y-179838095D02*
X375861009Y-179790476D01*
X375861009Y-179790476D02*
X375813390Y-179838095D01*
X375813390Y-179838095D02*
X375765771Y-179933333D01*
X375765771Y-179933333D02*
X375765771Y-180171428D01*
X375765771Y-180171428D02*
X375813390Y-180266666D01*
X375813390Y-180266666D02*
X375861009Y-180314285D01*
X375861009Y-180314285D02*
X375956247Y-180361904D01*
X375956247Y-180361904D02*
X376194342Y-180361904D01*
X376194342Y-180361904D02*
X376289580Y-180314285D01*
X376289580Y-180314285D02*
X376337200Y-180266666D01*
X376337200Y-180266666D02*
X376384819Y-180171428D01*
X376384819Y-180171428D02*
X376384819Y-179933333D01*
X376384819Y-179933333D02*
X376337200Y-179838095D01*
X376337200Y-179838095D02*
X376289580Y-179790476D01*
X268494048Y-239384819D02*
X268827381Y-238908628D01*
X269065476Y-239384819D02*
X269065476Y-238384819D01*
X269065476Y-238384819D02*
X268684524Y-238384819D01*
X268684524Y-238384819D02*
X268589286Y-238432438D01*
X268589286Y-238432438D02*
X268541667Y-238480057D01*
X268541667Y-238480057D02*
X268494048Y-238575295D01*
X268494048Y-238575295D02*
X268494048Y-238718152D01*
X268494048Y-238718152D02*
X268541667Y-238813390D01*
X268541667Y-238813390D02*
X268589286Y-238861009D01*
X268589286Y-238861009D02*
X268684524Y-238908628D01*
X268684524Y-238908628D02*
X269065476Y-238908628D01*
X267541667Y-239384819D02*
X268113095Y-239384819D01*
X267827381Y-239384819D02*
X267827381Y-238384819D01*
X267827381Y-238384819D02*
X267922619Y-238527676D01*
X267922619Y-238527676D02*
X268017857Y-238622914D01*
X268017857Y-238622914D02*
X268113095Y-238670533D01*
X267160714Y-238480057D02*
X267113095Y-238432438D01*
X267113095Y-238432438D02*
X267017857Y-238384819D01*
X267017857Y-238384819D02*
X266779762Y-238384819D01*
X266779762Y-238384819D02*
X266684524Y-238432438D01*
X266684524Y-238432438D02*
X266636905Y-238480057D01*
X266636905Y-238480057D02*
X266589286Y-238575295D01*
X266589286Y-238575295D02*
X266589286Y-238670533D01*
X266589286Y-238670533D02*
X266636905Y-238813390D01*
X266636905Y-238813390D02*
X267208333Y-239384819D01*
X267208333Y-239384819D02*
X266589286Y-239384819D01*
X265636905Y-239384819D02*
X266208333Y-239384819D01*
X265922619Y-239384819D02*
X265922619Y-238384819D01*
X265922619Y-238384819D02*
X266017857Y-238527676D01*
X266017857Y-238527676D02*
X266113095Y-238622914D01*
X266113095Y-238622914D02*
X266208333Y-238670533D01*
X184694047Y-239384819D02*
X185027380Y-238908628D01*
X185265475Y-239384819D02*
X185265475Y-238384819D01*
X185265475Y-238384819D02*
X184884523Y-238384819D01*
X184884523Y-238384819D02*
X184789285Y-238432438D01*
X184789285Y-238432438D02*
X184741666Y-238480057D01*
X184741666Y-238480057D02*
X184694047Y-238575295D01*
X184694047Y-238575295D02*
X184694047Y-238718152D01*
X184694047Y-238718152D02*
X184741666Y-238813390D01*
X184741666Y-238813390D02*
X184789285Y-238861009D01*
X184789285Y-238861009D02*
X184884523Y-238908628D01*
X184884523Y-238908628D02*
X185265475Y-238908628D01*
X183741666Y-239384819D02*
X184313094Y-239384819D01*
X184027380Y-239384819D02*
X184027380Y-238384819D01*
X184027380Y-238384819D02*
X184122618Y-238527676D01*
X184122618Y-238527676D02*
X184217856Y-238622914D01*
X184217856Y-238622914D02*
X184313094Y-238670533D01*
X183122618Y-238384819D02*
X183027380Y-238384819D01*
X183027380Y-238384819D02*
X182932142Y-238432438D01*
X182932142Y-238432438D02*
X182884523Y-238480057D01*
X182884523Y-238480057D02*
X182836904Y-238575295D01*
X182836904Y-238575295D02*
X182789285Y-238765771D01*
X182789285Y-238765771D02*
X182789285Y-239003866D01*
X182789285Y-239003866D02*
X182836904Y-239194342D01*
X182836904Y-239194342D02*
X182884523Y-239289580D01*
X182884523Y-239289580D02*
X182932142Y-239337200D01*
X182932142Y-239337200D02*
X183027380Y-239384819D01*
X183027380Y-239384819D02*
X183122618Y-239384819D01*
X183122618Y-239384819D02*
X183217856Y-239337200D01*
X183217856Y-239337200D02*
X183265475Y-239289580D01*
X183265475Y-239289580D02*
X183313094Y-239194342D01*
X183313094Y-239194342D02*
X183360713Y-239003866D01*
X183360713Y-239003866D02*
X183360713Y-238765771D01*
X183360713Y-238765771D02*
X183313094Y-238575295D01*
X183313094Y-238575295D02*
X183265475Y-238480057D01*
X183265475Y-238480057D02*
X183217856Y-238432438D01*
X183217856Y-238432438D02*
X183122618Y-238384819D01*
X182408332Y-238480057D02*
X182360713Y-238432438D01*
X182360713Y-238432438D02*
X182265475Y-238384819D01*
X182265475Y-238384819D02*
X182027380Y-238384819D01*
X182027380Y-238384819D02*
X181932142Y-238432438D01*
X181932142Y-238432438D02*
X181884523Y-238480057D01*
X181884523Y-238480057D02*
X181836904Y-238575295D01*
X181836904Y-238575295D02*
X181836904Y-238670533D01*
X181836904Y-238670533D02*
X181884523Y-238813390D01*
X181884523Y-238813390D02*
X182455951Y-239384819D01*
X182455951Y-239384819D02*
X181836904Y-239384819D01*
X302524819Y-174257142D02*
X302048628Y-173923809D01*
X302524819Y-173685714D02*
X301524819Y-173685714D01*
X301524819Y-173685714D02*
X301524819Y-174066666D01*
X301524819Y-174066666D02*
X301572438Y-174161904D01*
X301572438Y-174161904D02*
X301620057Y-174209523D01*
X301620057Y-174209523D02*
X301715295Y-174257142D01*
X301715295Y-174257142D02*
X301858152Y-174257142D01*
X301858152Y-174257142D02*
X301953390Y-174209523D01*
X301953390Y-174209523D02*
X302001009Y-174161904D01*
X302001009Y-174161904D02*
X302048628Y-174066666D01*
X302048628Y-174066666D02*
X302048628Y-173685714D01*
X301524819Y-174590476D02*
X301524819Y-175209523D01*
X301524819Y-175209523D02*
X301905771Y-174876190D01*
X301905771Y-174876190D02*
X301905771Y-175019047D01*
X301905771Y-175019047D02*
X301953390Y-175114285D01*
X301953390Y-175114285D02*
X302001009Y-175161904D01*
X302001009Y-175161904D02*
X302096247Y-175209523D01*
X302096247Y-175209523D02*
X302334342Y-175209523D01*
X302334342Y-175209523D02*
X302429580Y-175161904D01*
X302429580Y-175161904D02*
X302477200Y-175114285D01*
X302477200Y-175114285D02*
X302524819Y-175019047D01*
X302524819Y-175019047D02*
X302524819Y-174733333D01*
X302524819Y-174733333D02*
X302477200Y-174638095D01*
X302477200Y-174638095D02*
X302429580Y-174590476D01*
X301524819Y-175542857D02*
X301524819Y-176209523D01*
X301524819Y-176209523D02*
X302524819Y-175780952D01*
X288384819Y-182657142D02*
X287908628Y-182323809D01*
X288384819Y-182085714D02*
X287384819Y-182085714D01*
X287384819Y-182085714D02*
X287384819Y-182466666D01*
X287384819Y-182466666D02*
X287432438Y-182561904D01*
X287432438Y-182561904D02*
X287480057Y-182609523D01*
X287480057Y-182609523D02*
X287575295Y-182657142D01*
X287575295Y-182657142D02*
X287718152Y-182657142D01*
X287718152Y-182657142D02*
X287813390Y-182609523D01*
X287813390Y-182609523D02*
X287861009Y-182561904D01*
X287861009Y-182561904D02*
X287908628Y-182466666D01*
X287908628Y-182466666D02*
X287908628Y-182085714D01*
X287384819Y-182990476D02*
X287384819Y-183609523D01*
X287384819Y-183609523D02*
X287765771Y-183276190D01*
X287765771Y-183276190D02*
X287765771Y-183419047D01*
X287765771Y-183419047D02*
X287813390Y-183514285D01*
X287813390Y-183514285D02*
X287861009Y-183561904D01*
X287861009Y-183561904D02*
X287956247Y-183609523D01*
X287956247Y-183609523D02*
X288194342Y-183609523D01*
X288194342Y-183609523D02*
X288289580Y-183561904D01*
X288289580Y-183561904D02*
X288337200Y-183514285D01*
X288337200Y-183514285D02*
X288384819Y-183419047D01*
X288384819Y-183419047D02*
X288384819Y-183133333D01*
X288384819Y-183133333D02*
X288337200Y-183038095D01*
X288337200Y-183038095D02*
X288289580Y-182990476D01*
X287384819Y-184466666D02*
X287384819Y-184276190D01*
X287384819Y-184276190D02*
X287432438Y-184180952D01*
X287432438Y-184180952D02*
X287480057Y-184133333D01*
X287480057Y-184133333D02*
X287622914Y-184038095D01*
X287622914Y-184038095D02*
X287813390Y-183990476D01*
X287813390Y-183990476D02*
X288194342Y-183990476D01*
X288194342Y-183990476D02*
X288289580Y-184038095D01*
X288289580Y-184038095D02*
X288337200Y-184085714D01*
X288337200Y-184085714D02*
X288384819Y-184180952D01*
X288384819Y-184180952D02*
X288384819Y-184371428D01*
X288384819Y-184371428D02*
X288337200Y-184466666D01*
X288337200Y-184466666D02*
X288289580Y-184514285D01*
X288289580Y-184514285D02*
X288194342Y-184561904D01*
X288194342Y-184561904D02*
X287956247Y-184561904D01*
X287956247Y-184561904D02*
X287861009Y-184514285D01*
X287861009Y-184514285D02*
X287813390Y-184466666D01*
X287813390Y-184466666D02*
X287765771Y-184371428D01*
X287765771Y-184371428D02*
X287765771Y-184180952D01*
X287765771Y-184180952D02*
X287813390Y-184085714D01*
X287813390Y-184085714D02*
X287861009Y-184038095D01*
X287861009Y-184038095D02*
X287956247Y-183990476D01*
X276162857Y-163419580D02*
X276210476Y-163467200D01*
X276210476Y-163467200D02*
X276353333Y-163514819D01*
X276353333Y-163514819D02*
X276448571Y-163514819D01*
X276448571Y-163514819D02*
X276591428Y-163467200D01*
X276591428Y-163467200D02*
X276686666Y-163371961D01*
X276686666Y-163371961D02*
X276734285Y-163276723D01*
X276734285Y-163276723D02*
X276781904Y-163086247D01*
X276781904Y-163086247D02*
X276781904Y-162943390D01*
X276781904Y-162943390D02*
X276734285Y-162752914D01*
X276734285Y-162752914D02*
X276686666Y-162657676D01*
X276686666Y-162657676D02*
X276591428Y-162562438D01*
X276591428Y-162562438D02*
X276448571Y-162514819D01*
X276448571Y-162514819D02*
X276353333Y-162514819D01*
X276353333Y-162514819D02*
X276210476Y-162562438D01*
X276210476Y-162562438D02*
X276162857Y-162610057D01*
X275829523Y-162514819D02*
X275210476Y-162514819D01*
X275210476Y-162514819D02*
X275543809Y-162895771D01*
X275543809Y-162895771D02*
X275400952Y-162895771D01*
X275400952Y-162895771D02*
X275305714Y-162943390D01*
X275305714Y-162943390D02*
X275258095Y-162991009D01*
X275258095Y-162991009D02*
X275210476Y-163086247D01*
X275210476Y-163086247D02*
X275210476Y-163324342D01*
X275210476Y-163324342D02*
X275258095Y-163419580D01*
X275258095Y-163419580D02*
X275305714Y-163467200D01*
X275305714Y-163467200D02*
X275400952Y-163514819D01*
X275400952Y-163514819D02*
X275686666Y-163514819D01*
X275686666Y-163514819D02*
X275781904Y-163467200D01*
X275781904Y-163467200D02*
X275829523Y-163419580D01*
X274877142Y-162514819D02*
X274210476Y-162514819D01*
X274210476Y-162514819D02*
X274639047Y-163514819D01*
X270254819Y-163685714D02*
X269254819Y-163685714D01*
X269254819Y-163685714D02*
X269254819Y-163923809D01*
X269254819Y-163923809D02*
X269302438Y-164066666D01*
X269302438Y-164066666D02*
X269397676Y-164161904D01*
X269397676Y-164161904D02*
X269492914Y-164209523D01*
X269492914Y-164209523D02*
X269683390Y-164257142D01*
X269683390Y-164257142D02*
X269826247Y-164257142D01*
X269826247Y-164257142D02*
X270016723Y-164209523D01*
X270016723Y-164209523D02*
X270111961Y-164161904D01*
X270111961Y-164161904D02*
X270207200Y-164066666D01*
X270207200Y-164066666D02*
X270254819Y-163923809D01*
X270254819Y-163923809D02*
X270254819Y-163685714D01*
X270254819Y-165209523D02*
X270254819Y-164638095D01*
X270254819Y-164923809D02*
X269254819Y-164923809D01*
X269254819Y-164923809D02*
X269397676Y-164828571D01*
X269397676Y-164828571D02*
X269492914Y-164733333D01*
X269492914Y-164733333D02*
X269540533Y-164638095D01*
X270254819Y-166161904D02*
X270254819Y-165590476D01*
X270254819Y-165876190D02*
X269254819Y-165876190D01*
X269254819Y-165876190D02*
X269397676Y-165780952D01*
X269397676Y-165780952D02*
X269492914Y-165685714D01*
X269492914Y-165685714D02*
X269540533Y-165590476D01*
X376384819Y-174257142D02*
X375908628Y-173923809D01*
X376384819Y-173685714D02*
X375384819Y-173685714D01*
X375384819Y-173685714D02*
X375384819Y-174066666D01*
X375384819Y-174066666D02*
X375432438Y-174161904D01*
X375432438Y-174161904D02*
X375480057Y-174209523D01*
X375480057Y-174209523D02*
X375575295Y-174257142D01*
X375575295Y-174257142D02*
X375718152Y-174257142D01*
X375718152Y-174257142D02*
X375813390Y-174209523D01*
X375813390Y-174209523D02*
X375861009Y-174161904D01*
X375861009Y-174161904D02*
X375908628Y-174066666D01*
X375908628Y-174066666D02*
X375908628Y-173685714D01*
X375384819Y-175161904D02*
X375384819Y-174685714D01*
X375384819Y-174685714D02*
X375861009Y-174638095D01*
X375861009Y-174638095D02*
X375813390Y-174685714D01*
X375813390Y-174685714D02*
X375765771Y-174780952D01*
X375765771Y-174780952D02*
X375765771Y-175019047D01*
X375765771Y-175019047D02*
X375813390Y-175114285D01*
X375813390Y-175114285D02*
X375861009Y-175161904D01*
X375861009Y-175161904D02*
X375956247Y-175209523D01*
X375956247Y-175209523D02*
X376194342Y-175209523D01*
X376194342Y-175209523D02*
X376289580Y-175161904D01*
X376289580Y-175161904D02*
X376337200Y-175114285D01*
X376337200Y-175114285D02*
X376384819Y-175019047D01*
X376384819Y-175019047D02*
X376384819Y-174780952D01*
X376384819Y-174780952D02*
X376337200Y-174685714D01*
X376337200Y-174685714D02*
X376289580Y-174638095D01*
X375718152Y-176066666D02*
X376384819Y-176066666D01*
X375337200Y-175828571D02*
X376051485Y-175590476D01*
X376051485Y-175590476D02*
X376051485Y-176209523D01*
X360694047Y-239384819D02*
X361027380Y-238908628D01*
X361265475Y-239384819D02*
X361265475Y-238384819D01*
X361265475Y-238384819D02*
X360884523Y-238384819D01*
X360884523Y-238384819D02*
X360789285Y-238432438D01*
X360789285Y-238432438D02*
X360741666Y-238480057D01*
X360741666Y-238480057D02*
X360694047Y-238575295D01*
X360694047Y-238575295D02*
X360694047Y-238718152D01*
X360694047Y-238718152D02*
X360741666Y-238813390D01*
X360741666Y-238813390D02*
X360789285Y-238861009D01*
X360789285Y-238861009D02*
X360884523Y-238908628D01*
X360884523Y-238908628D02*
X361265475Y-238908628D01*
X359741666Y-239384819D02*
X360313094Y-239384819D01*
X360027380Y-239384819D02*
X360027380Y-238384819D01*
X360027380Y-238384819D02*
X360122618Y-238527676D01*
X360122618Y-238527676D02*
X360217856Y-238622914D01*
X360217856Y-238622914D02*
X360313094Y-238670533D01*
X359408332Y-238384819D02*
X358789285Y-238384819D01*
X358789285Y-238384819D02*
X359122618Y-238765771D01*
X359122618Y-238765771D02*
X358979761Y-238765771D01*
X358979761Y-238765771D02*
X358884523Y-238813390D01*
X358884523Y-238813390D02*
X358836904Y-238861009D01*
X358836904Y-238861009D02*
X358789285Y-238956247D01*
X358789285Y-238956247D02*
X358789285Y-239194342D01*
X358789285Y-239194342D02*
X358836904Y-239289580D01*
X358836904Y-239289580D02*
X358884523Y-239337200D01*
X358884523Y-239337200D02*
X358979761Y-239384819D01*
X358979761Y-239384819D02*
X359265475Y-239384819D01*
X359265475Y-239384819D02*
X359360713Y-239337200D01*
X359360713Y-239337200D02*
X359408332Y-239289580D01*
X357932142Y-238718152D02*
X357932142Y-239384819D01*
X358170237Y-238337200D02*
X358408332Y-239051485D01*
X358408332Y-239051485D02*
X357789285Y-239051485D01*
X356494048Y-239384819D02*
X356827381Y-238908628D01*
X357065476Y-239384819D02*
X357065476Y-238384819D01*
X357065476Y-238384819D02*
X356684524Y-238384819D01*
X356684524Y-238384819D02*
X356589286Y-238432438D01*
X356589286Y-238432438D02*
X356541667Y-238480057D01*
X356541667Y-238480057D02*
X356494048Y-238575295D01*
X356494048Y-238575295D02*
X356494048Y-238718152D01*
X356494048Y-238718152D02*
X356541667Y-238813390D01*
X356541667Y-238813390D02*
X356589286Y-238861009D01*
X356589286Y-238861009D02*
X356684524Y-238908628D01*
X356684524Y-238908628D02*
X357065476Y-238908628D01*
X355541667Y-239384819D02*
X356113095Y-239384819D01*
X355827381Y-239384819D02*
X355827381Y-238384819D01*
X355827381Y-238384819D02*
X355922619Y-238527676D01*
X355922619Y-238527676D02*
X356017857Y-238622914D01*
X356017857Y-238622914D02*
X356113095Y-238670533D01*
X355208333Y-238384819D02*
X354589286Y-238384819D01*
X354589286Y-238384819D02*
X354922619Y-238765771D01*
X354922619Y-238765771D02*
X354779762Y-238765771D01*
X354779762Y-238765771D02*
X354684524Y-238813390D01*
X354684524Y-238813390D02*
X354636905Y-238861009D01*
X354636905Y-238861009D02*
X354589286Y-238956247D01*
X354589286Y-238956247D02*
X354589286Y-239194342D01*
X354589286Y-239194342D02*
X354636905Y-239289580D01*
X354636905Y-239289580D02*
X354684524Y-239337200D01*
X354684524Y-239337200D02*
X354779762Y-239384819D01*
X354779762Y-239384819D02*
X355065476Y-239384819D01*
X355065476Y-239384819D02*
X355160714Y-239337200D01*
X355160714Y-239337200D02*
X355208333Y-239289580D01*
X353732143Y-238384819D02*
X353922619Y-238384819D01*
X353922619Y-238384819D02*
X354017857Y-238432438D01*
X354017857Y-238432438D02*
X354065476Y-238480057D01*
X354065476Y-238480057D02*
X354160714Y-238622914D01*
X354160714Y-238622914D02*
X354208333Y-238813390D01*
X354208333Y-238813390D02*
X354208333Y-239194342D01*
X354208333Y-239194342D02*
X354160714Y-239289580D01*
X354160714Y-239289580D02*
X354113095Y-239337200D01*
X354113095Y-239337200D02*
X354017857Y-239384819D01*
X354017857Y-239384819D02*
X353827381Y-239384819D01*
X353827381Y-239384819D02*
X353732143Y-239337200D01*
X353732143Y-239337200D02*
X353684524Y-239289580D01*
X353684524Y-239289580D02*
X353636905Y-239194342D01*
X353636905Y-239194342D02*
X353636905Y-238956247D01*
X353636905Y-238956247D02*
X353684524Y-238861009D01*
X353684524Y-238861009D02*
X353732143Y-238813390D01*
X353732143Y-238813390D02*
X353827381Y-238765771D01*
X353827381Y-238765771D02*
X354017857Y-238765771D01*
X354017857Y-238765771D02*
X354113095Y-238813390D01*
X354113095Y-238813390D02*
X354160714Y-238861009D01*
X354160714Y-238861009D02*
X354208333Y-238956247D01*
X200384819Y-174257142D02*
X199908628Y-173923809D01*
X200384819Y-173685714D02*
X199384819Y-173685714D01*
X199384819Y-173685714D02*
X199384819Y-174066666D01*
X199384819Y-174066666D02*
X199432438Y-174161904D01*
X199432438Y-174161904D02*
X199480057Y-174209523D01*
X199480057Y-174209523D02*
X199575295Y-174257142D01*
X199575295Y-174257142D02*
X199718152Y-174257142D01*
X199718152Y-174257142D02*
X199813390Y-174209523D01*
X199813390Y-174209523D02*
X199861009Y-174161904D01*
X199861009Y-174161904D02*
X199908628Y-174066666D01*
X199908628Y-174066666D02*
X199908628Y-173685714D01*
X200384819Y-175209523D02*
X200384819Y-174638095D01*
X200384819Y-174923809D02*
X199384819Y-174923809D01*
X199384819Y-174923809D02*
X199527676Y-174828571D01*
X199527676Y-174828571D02*
X199622914Y-174733333D01*
X199622914Y-174733333D02*
X199670533Y-174638095D01*
X199480057Y-175590476D02*
X199432438Y-175638095D01*
X199432438Y-175638095D02*
X199384819Y-175733333D01*
X199384819Y-175733333D02*
X199384819Y-175971428D01*
X199384819Y-175971428D02*
X199432438Y-176066666D01*
X199432438Y-176066666D02*
X199480057Y-176114285D01*
X199480057Y-176114285D02*
X199575295Y-176161904D01*
X199575295Y-176161904D02*
X199670533Y-176161904D01*
X199670533Y-176161904D02*
X199813390Y-176114285D01*
X199813390Y-176114285D02*
X200384819Y-175542857D01*
X200384819Y-175542857D02*
X200384819Y-176161904D01*
X358254819Y-163685714D02*
X357254819Y-163685714D01*
X357254819Y-163685714D02*
X357254819Y-163923809D01*
X357254819Y-163923809D02*
X357302438Y-164066666D01*
X357302438Y-164066666D02*
X357397676Y-164161904D01*
X357397676Y-164161904D02*
X357492914Y-164209523D01*
X357492914Y-164209523D02*
X357683390Y-164257142D01*
X357683390Y-164257142D02*
X357826247Y-164257142D01*
X357826247Y-164257142D02*
X358016723Y-164209523D01*
X358016723Y-164209523D02*
X358111961Y-164161904D01*
X358111961Y-164161904D02*
X358207200Y-164066666D01*
X358207200Y-164066666D02*
X358254819Y-163923809D01*
X358254819Y-163923809D02*
X358254819Y-163685714D01*
X358254819Y-165209523D02*
X358254819Y-164638095D01*
X358254819Y-164923809D02*
X357254819Y-164923809D01*
X357254819Y-164923809D02*
X357397676Y-164828571D01*
X357397676Y-164828571D02*
X357492914Y-164733333D01*
X357492914Y-164733333D02*
X357540533Y-164638095D01*
X357588152Y-166066666D02*
X358254819Y-166066666D01*
X357207200Y-165828571D02*
X357921485Y-165590476D01*
X357921485Y-165590476D02*
X357921485Y-166209523D01*
X277950057Y-164328571D02*
X277902438Y-164233333D01*
X277902438Y-164233333D02*
X277807200Y-164138095D01*
X277807200Y-164138095D02*
X277664342Y-163995238D01*
X277664342Y-163995238D02*
X277616723Y-163900000D01*
X277616723Y-163900000D02*
X277616723Y-163804762D01*
X277854819Y-163852381D02*
X277807200Y-163757143D01*
X277807200Y-163757143D02*
X277711961Y-163661905D01*
X277711961Y-163661905D02*
X277521485Y-163614286D01*
X277521485Y-163614286D02*
X277188152Y-163614286D01*
X277188152Y-163614286D02*
X276997676Y-163661905D01*
X276997676Y-163661905D02*
X276902438Y-163757143D01*
X276902438Y-163757143D02*
X276854819Y-163852381D01*
X276854819Y-163852381D02*
X276854819Y-164042857D01*
X276854819Y-164042857D02*
X276902438Y-164138095D01*
X276902438Y-164138095D02*
X276997676Y-164233333D01*
X276997676Y-164233333D02*
X277188152Y-164280952D01*
X277188152Y-164280952D02*
X277521485Y-164280952D01*
X277521485Y-164280952D02*
X277711961Y-164233333D01*
X277711961Y-164233333D02*
X277807200Y-164138095D01*
X277807200Y-164138095D02*
X277854819Y-164042857D01*
X277854819Y-164042857D02*
X277854819Y-163852381D01*
X277854819Y-165233333D02*
X277854819Y-164661905D01*
X277854819Y-164947619D02*
X276854819Y-164947619D01*
X276854819Y-164947619D02*
X276997676Y-164852381D01*
X276997676Y-164852381D02*
X277092914Y-164757143D01*
X277092914Y-164757143D02*
X277140533Y-164661905D01*
X276854819Y-165566667D02*
X276854819Y-166233333D01*
X276854819Y-166233333D02*
X277854819Y-165804762D01*
X214524819Y-174257142D02*
X214048628Y-173923809D01*
X214524819Y-173685714D02*
X213524819Y-173685714D01*
X213524819Y-173685714D02*
X213524819Y-174066666D01*
X213524819Y-174066666D02*
X213572438Y-174161904D01*
X213572438Y-174161904D02*
X213620057Y-174209523D01*
X213620057Y-174209523D02*
X213715295Y-174257142D01*
X213715295Y-174257142D02*
X213858152Y-174257142D01*
X213858152Y-174257142D02*
X213953390Y-174209523D01*
X213953390Y-174209523D02*
X214001009Y-174161904D01*
X214001009Y-174161904D02*
X214048628Y-174066666D01*
X214048628Y-174066666D02*
X214048628Y-173685714D01*
X214524819Y-175209523D02*
X214524819Y-174638095D01*
X214524819Y-174923809D02*
X213524819Y-174923809D01*
X213524819Y-174923809D02*
X213667676Y-174828571D01*
X213667676Y-174828571D02*
X213762914Y-174733333D01*
X213762914Y-174733333D02*
X213810533Y-174638095D01*
X213524819Y-176114285D02*
X213524819Y-175638095D01*
X213524819Y-175638095D02*
X214001009Y-175590476D01*
X214001009Y-175590476D02*
X213953390Y-175638095D01*
X213953390Y-175638095D02*
X213905771Y-175733333D01*
X213905771Y-175733333D02*
X213905771Y-175971428D01*
X213905771Y-175971428D02*
X213953390Y-176066666D01*
X213953390Y-176066666D02*
X214001009Y-176114285D01*
X214001009Y-176114285D02*
X214096247Y-176161904D01*
X214096247Y-176161904D02*
X214334342Y-176161904D01*
X214334342Y-176161904D02*
X214429580Y-176114285D01*
X214429580Y-176114285D02*
X214477200Y-176066666D01*
X214477200Y-176066666D02*
X214524819Y-175971428D01*
X214524819Y-175971428D02*
X214524819Y-175733333D01*
X214524819Y-175733333D02*
X214477200Y-175638095D01*
X214477200Y-175638095D02*
X214429580Y-175590476D01*
X390524819Y-174257142D02*
X390048628Y-173923809D01*
X390524819Y-173685714D02*
X389524819Y-173685714D01*
X389524819Y-173685714D02*
X389524819Y-174066666D01*
X389524819Y-174066666D02*
X389572438Y-174161904D01*
X389572438Y-174161904D02*
X389620057Y-174209523D01*
X389620057Y-174209523D02*
X389715295Y-174257142D01*
X389715295Y-174257142D02*
X389858152Y-174257142D01*
X389858152Y-174257142D02*
X389953390Y-174209523D01*
X389953390Y-174209523D02*
X390001009Y-174161904D01*
X390001009Y-174161904D02*
X390048628Y-174066666D01*
X390048628Y-174066666D02*
X390048628Y-173685714D01*
X389524819Y-175161904D02*
X389524819Y-174685714D01*
X389524819Y-174685714D02*
X390001009Y-174638095D01*
X390001009Y-174638095D02*
X389953390Y-174685714D01*
X389953390Y-174685714D02*
X389905771Y-174780952D01*
X389905771Y-174780952D02*
X389905771Y-175019047D01*
X389905771Y-175019047D02*
X389953390Y-175114285D01*
X389953390Y-175114285D02*
X390001009Y-175161904D01*
X390001009Y-175161904D02*
X390096247Y-175209523D01*
X390096247Y-175209523D02*
X390334342Y-175209523D01*
X390334342Y-175209523D02*
X390429580Y-175161904D01*
X390429580Y-175161904D02*
X390477200Y-175114285D01*
X390477200Y-175114285D02*
X390524819Y-175019047D01*
X390524819Y-175019047D02*
X390524819Y-174780952D01*
X390524819Y-174780952D02*
X390477200Y-174685714D01*
X390477200Y-174685714D02*
X390429580Y-174638095D01*
X389524819Y-175542857D02*
X389524819Y-176209523D01*
X389524819Y-176209523D02*
X390524819Y-175780952D01*
X200384819Y-182657142D02*
X199908628Y-182323809D01*
X200384819Y-182085714D02*
X199384819Y-182085714D01*
X199384819Y-182085714D02*
X199384819Y-182466666D01*
X199384819Y-182466666D02*
X199432438Y-182561904D01*
X199432438Y-182561904D02*
X199480057Y-182609523D01*
X199480057Y-182609523D02*
X199575295Y-182657142D01*
X199575295Y-182657142D02*
X199718152Y-182657142D01*
X199718152Y-182657142D02*
X199813390Y-182609523D01*
X199813390Y-182609523D02*
X199861009Y-182561904D01*
X199861009Y-182561904D02*
X199908628Y-182466666D01*
X199908628Y-182466666D02*
X199908628Y-182085714D01*
X200384819Y-183609523D02*
X200384819Y-183038095D01*
X200384819Y-183323809D02*
X199384819Y-183323809D01*
X199384819Y-183323809D02*
X199527676Y-183228571D01*
X199527676Y-183228571D02*
X199622914Y-183133333D01*
X199622914Y-183133333D02*
X199670533Y-183038095D01*
X199718152Y-184466666D02*
X200384819Y-184466666D01*
X199337200Y-184228571D02*
X200051485Y-183990476D01*
X200051485Y-183990476D02*
X200051485Y-184609523D01*
X189950057Y-164804761D02*
X189902438Y-164709523D01*
X189902438Y-164709523D02*
X189807200Y-164614285D01*
X189807200Y-164614285D02*
X189664342Y-164471428D01*
X189664342Y-164471428D02*
X189616723Y-164376190D01*
X189616723Y-164376190D02*
X189616723Y-164280952D01*
X189854819Y-164328571D02*
X189807200Y-164233333D01*
X189807200Y-164233333D02*
X189711961Y-164138095D01*
X189711961Y-164138095D02*
X189521485Y-164090476D01*
X189521485Y-164090476D02*
X189188152Y-164090476D01*
X189188152Y-164090476D02*
X188997676Y-164138095D01*
X188997676Y-164138095D02*
X188902438Y-164233333D01*
X188902438Y-164233333D02*
X188854819Y-164328571D01*
X188854819Y-164328571D02*
X188854819Y-164519047D01*
X188854819Y-164519047D02*
X188902438Y-164614285D01*
X188902438Y-164614285D02*
X188997676Y-164709523D01*
X188997676Y-164709523D02*
X189188152Y-164757142D01*
X189188152Y-164757142D02*
X189521485Y-164757142D01*
X189521485Y-164757142D02*
X189711961Y-164709523D01*
X189711961Y-164709523D02*
X189807200Y-164614285D01*
X189807200Y-164614285D02*
X189854819Y-164519047D01*
X189854819Y-164519047D02*
X189854819Y-164328571D01*
X189283390Y-165328571D02*
X189235771Y-165233333D01*
X189235771Y-165233333D02*
X189188152Y-165185714D01*
X189188152Y-165185714D02*
X189092914Y-165138095D01*
X189092914Y-165138095D02*
X189045295Y-165138095D01*
X189045295Y-165138095D02*
X188950057Y-165185714D01*
X188950057Y-165185714D02*
X188902438Y-165233333D01*
X188902438Y-165233333D02*
X188854819Y-165328571D01*
X188854819Y-165328571D02*
X188854819Y-165519047D01*
X188854819Y-165519047D02*
X188902438Y-165614285D01*
X188902438Y-165614285D02*
X188950057Y-165661904D01*
X188950057Y-165661904D02*
X189045295Y-165709523D01*
X189045295Y-165709523D02*
X189092914Y-165709523D01*
X189092914Y-165709523D02*
X189188152Y-165661904D01*
X189188152Y-165661904D02*
X189235771Y-165614285D01*
X189235771Y-165614285D02*
X189283390Y-165519047D01*
X189283390Y-165519047D02*
X189283390Y-165328571D01*
X189283390Y-165328571D02*
X189331009Y-165233333D01*
X189331009Y-165233333D02*
X189378628Y-165185714D01*
X189378628Y-165185714D02*
X189473866Y-165138095D01*
X189473866Y-165138095D02*
X189664342Y-165138095D01*
X189664342Y-165138095D02*
X189759580Y-165185714D01*
X189759580Y-165185714D02*
X189807200Y-165233333D01*
X189807200Y-165233333D02*
X189854819Y-165328571D01*
X189854819Y-165328571D02*
X189854819Y-165519047D01*
X189854819Y-165519047D02*
X189807200Y-165614285D01*
X189807200Y-165614285D02*
X189759580Y-165661904D01*
X189759580Y-165661904D02*
X189664342Y-165709523D01*
X189664342Y-165709523D02*
X189473866Y-165709523D01*
X189473866Y-165709523D02*
X189378628Y-165661904D01*
X189378628Y-165661904D02*
X189331009Y-165614285D01*
X189331009Y-165614285D02*
X189283390Y-165519047D01*
X264294048Y-239384819D02*
X264627381Y-238908628D01*
X264865476Y-239384819D02*
X264865476Y-238384819D01*
X264865476Y-238384819D02*
X264484524Y-238384819D01*
X264484524Y-238384819D02*
X264389286Y-238432438D01*
X264389286Y-238432438D02*
X264341667Y-238480057D01*
X264341667Y-238480057D02*
X264294048Y-238575295D01*
X264294048Y-238575295D02*
X264294048Y-238718152D01*
X264294048Y-238718152D02*
X264341667Y-238813390D01*
X264341667Y-238813390D02*
X264389286Y-238861009D01*
X264389286Y-238861009D02*
X264484524Y-238908628D01*
X264484524Y-238908628D02*
X264865476Y-238908628D01*
X263341667Y-239384819D02*
X263913095Y-239384819D01*
X263627381Y-239384819D02*
X263627381Y-238384819D01*
X263627381Y-238384819D02*
X263722619Y-238527676D01*
X263722619Y-238527676D02*
X263817857Y-238622914D01*
X263817857Y-238622914D02*
X263913095Y-238670533D01*
X262389286Y-239384819D02*
X262960714Y-239384819D01*
X262675000Y-239384819D02*
X262675000Y-238384819D01*
X262675000Y-238384819D02*
X262770238Y-238527676D01*
X262770238Y-238527676D02*
X262865476Y-238622914D01*
X262865476Y-238622914D02*
X262960714Y-238670533D01*
X261817857Y-238813390D02*
X261913095Y-238765771D01*
X261913095Y-238765771D02*
X261960714Y-238718152D01*
X261960714Y-238718152D02*
X262008333Y-238622914D01*
X262008333Y-238622914D02*
X262008333Y-238575295D01*
X262008333Y-238575295D02*
X261960714Y-238480057D01*
X261960714Y-238480057D02*
X261913095Y-238432438D01*
X261913095Y-238432438D02*
X261817857Y-238384819D01*
X261817857Y-238384819D02*
X261627381Y-238384819D01*
X261627381Y-238384819D02*
X261532143Y-238432438D01*
X261532143Y-238432438D02*
X261484524Y-238480057D01*
X261484524Y-238480057D02*
X261436905Y-238575295D01*
X261436905Y-238575295D02*
X261436905Y-238622914D01*
X261436905Y-238622914D02*
X261484524Y-238718152D01*
X261484524Y-238718152D02*
X261532143Y-238765771D01*
X261532143Y-238765771D02*
X261627381Y-238813390D01*
X261627381Y-238813390D02*
X261817857Y-238813390D01*
X261817857Y-238813390D02*
X261913095Y-238861009D01*
X261913095Y-238861009D02*
X261960714Y-238908628D01*
X261960714Y-238908628D02*
X262008333Y-239003866D01*
X262008333Y-239003866D02*
X262008333Y-239194342D01*
X262008333Y-239194342D02*
X261960714Y-239289580D01*
X261960714Y-239289580D02*
X261913095Y-239337200D01*
X261913095Y-239337200D02*
X261817857Y-239384819D01*
X261817857Y-239384819D02*
X261627381Y-239384819D01*
X261627381Y-239384819D02*
X261532143Y-239337200D01*
X261532143Y-239337200D02*
X261484524Y-239289580D01*
X261484524Y-239289580D02*
X261436905Y-239194342D01*
X261436905Y-239194342D02*
X261436905Y-239003866D01*
X261436905Y-239003866D02*
X261484524Y-238908628D01*
X261484524Y-238908628D02*
X261532143Y-238861009D01*
X261532143Y-238861009D02*
X261627381Y-238813390D01*
X262146429Y-236950057D02*
X262241667Y-236902438D01*
X262241667Y-236902438D02*
X262336905Y-236807200D01*
X262336905Y-236807200D02*
X262479762Y-236664342D01*
X262479762Y-236664342D02*
X262575000Y-236616723D01*
X262575000Y-236616723D02*
X262670238Y-236616723D01*
X262622619Y-236854819D02*
X262717857Y-236807200D01*
X262717857Y-236807200D02*
X262813095Y-236711961D01*
X262813095Y-236711961D02*
X262860714Y-236521485D01*
X262860714Y-236521485D02*
X262860714Y-236188152D01*
X262860714Y-236188152D02*
X262813095Y-235997676D01*
X262813095Y-235997676D02*
X262717857Y-235902438D01*
X262717857Y-235902438D02*
X262622619Y-235854819D01*
X262622619Y-235854819D02*
X262432143Y-235854819D01*
X262432143Y-235854819D02*
X262336905Y-235902438D01*
X262336905Y-235902438D02*
X262241667Y-235997676D01*
X262241667Y-235997676D02*
X262194048Y-236188152D01*
X262194048Y-236188152D02*
X262194048Y-236521485D01*
X262194048Y-236521485D02*
X262241667Y-236711961D01*
X262241667Y-236711961D02*
X262336905Y-236807200D01*
X262336905Y-236807200D02*
X262432143Y-236854819D01*
X262432143Y-236854819D02*
X262622619Y-236854819D01*
X261860714Y-235854819D02*
X261241667Y-235854819D01*
X261241667Y-235854819D02*
X261575000Y-236235771D01*
X261575000Y-236235771D02*
X261432143Y-236235771D01*
X261432143Y-236235771D02*
X261336905Y-236283390D01*
X261336905Y-236283390D02*
X261289286Y-236331009D01*
X261289286Y-236331009D02*
X261241667Y-236426247D01*
X261241667Y-236426247D02*
X261241667Y-236664342D01*
X261241667Y-236664342D02*
X261289286Y-236759580D01*
X261289286Y-236759580D02*
X261336905Y-236807200D01*
X261336905Y-236807200D02*
X261432143Y-236854819D01*
X261432143Y-236854819D02*
X261717857Y-236854819D01*
X261717857Y-236854819D02*
X261813095Y-236807200D01*
X261813095Y-236807200D02*
X261860714Y-236759580D01*
X260908333Y-235854819D02*
X260241667Y-235854819D01*
X260241667Y-235854819D02*
X260670238Y-236854819D01*
D11*
%TO.C,R23*%
X185237258Y-168922500D02*
X184762742Y-168922500D01*
X185237258Y-167877500D02*
X184762742Y-167877500D01*
%TO.C,R119*%
X271337742Y-236977500D02*
X271812258Y-236977500D01*
X271337742Y-238022500D02*
X271812258Y-238022500D01*
%TO.C,R58*%
X392022500Y-178862742D02*
X392022500Y-179337258D01*
X390977500Y-178862742D02*
X390977500Y-179337258D01*
%TO.C,R56*%
X373977500Y-183537258D02*
X373977500Y-183062742D01*
X375022500Y-183537258D02*
X375022500Y-183062742D01*
%TO.C,Q26*%
X361440000Y-164900000D02*
X361440000Y-165700000D01*
X361440000Y-164900000D02*
X361440000Y-164100000D01*
X364560000Y-164900000D02*
X364560000Y-166700000D01*
X364560000Y-164900000D02*
X364560000Y-164100000D01*
%TO.C,R38*%
X304022500Y-178862742D02*
X304022500Y-179337258D01*
X302977500Y-178862742D02*
X302977500Y-179337258D01*
%TO.C,R18*%
X216022500Y-183062742D02*
X216022500Y-183537258D01*
X214977500Y-183062742D02*
X214977500Y-183537258D01*
%TO.C,Q33*%
X173575000Y-232440000D02*
X172925000Y-232440000D01*
X173575000Y-232440000D02*
X174225000Y-232440000D01*
X173575000Y-235560000D02*
X171900000Y-235560000D01*
X173575000Y-235560000D02*
X174225000Y-235560000D01*
%TO.C,Q41*%
X349575001Y-232440000D02*
X348925001Y-232440000D01*
X349575001Y-232440000D02*
X350225001Y-232440000D01*
X349575001Y-235560000D02*
X347900001Y-235560000D01*
X349575001Y-235560000D02*
X350225001Y-235560000D01*
%TO.C,R101*%
X174937742Y-236977500D02*
X175412258Y-236977500D01*
X174937742Y-238022500D02*
X175412258Y-238022500D01*
%TO.C,R65*%
X361237258Y-168922500D02*
X360762742Y-168922500D01*
X361237258Y-167877500D02*
X360762742Y-167877500D01*
%TO.C,R40*%
X304022500Y-183062742D02*
X304022500Y-183537258D01*
X302977500Y-183062742D02*
X302977500Y-183537258D01*
%TO.C,R45*%
X273237258Y-168922500D02*
X272762742Y-168922500D01*
X273237258Y-167877500D02*
X272762742Y-167877500D01*
%TO.C,C31*%
X187412164Y-161540000D02*
X187627836Y-161540000D01*
X187412164Y-162260000D02*
X187627836Y-162260000D01*
%TO.C,R133*%
X350937743Y-236977500D02*
X351412259Y-236977500D01*
X350937743Y-238022500D02*
X351412259Y-238022500D01*
%TO.C,Q22*%
X369440000Y-183400000D02*
X369440000Y-184050000D01*
X369440000Y-183400000D02*
X369440000Y-182750000D01*
X372560000Y-183400000D02*
X372560000Y-185075000D01*
X372560000Y-183400000D02*
X372560000Y-182750000D01*
%TO.C,R34*%
X285977500Y-175137258D02*
X285977500Y-174662742D01*
X287022500Y-175137258D02*
X287022500Y-174662742D01*
%TO.C,R104*%
X179137742Y-236977500D02*
X179612258Y-236977500D01*
X179137742Y-238022500D02*
X179612258Y-238022500D01*
%TO.C,C43*%
X363412164Y-161540000D02*
X363627836Y-161540000D01*
X363412164Y-162260000D02*
X363627836Y-162260000D01*
%TO.C,R35*%
X285977500Y-179337258D02*
X285977500Y-178862742D01*
X287022500Y-179337258D02*
X287022500Y-178862742D01*
%TO.C,R13*%
X197977500Y-179337258D02*
X197977500Y-178862742D01*
X199022500Y-179337258D02*
X199022500Y-178862742D01*
%TO.C,R60*%
X392022500Y-183062742D02*
X392022500Y-183537258D01*
X390977500Y-183062742D02*
X390977500Y-183537258D01*
%TO.C,D8*%
X184800000Y-162540000D02*
X184800000Y-166550000D01*
X182800000Y-162540000D02*
X184800000Y-162540000D01*
X182800000Y-162540000D02*
X182800000Y-166550000D01*
%TO.C,R16*%
X216022500Y-178862742D02*
X216022500Y-179337258D01*
X214977500Y-178862742D02*
X214977500Y-179337258D01*
%TO.C,Q4*%
X193440000Y-183400000D02*
X193440000Y-184050000D01*
X193440000Y-183400000D02*
X193440000Y-182750000D01*
X196560000Y-183400000D02*
X196560000Y-185075000D01*
X196560000Y-183400000D02*
X196560000Y-182750000D01*
%TO.C,Q13*%
X281440000Y-183400000D02*
X281440000Y-184050000D01*
X281440000Y-183400000D02*
X281440000Y-182750000D01*
X284560000Y-183400000D02*
X284560000Y-185075000D01*
X284560000Y-183400000D02*
X284560000Y-182750000D01*
%TO.C,R55*%
X373977500Y-179337258D02*
X373977500Y-178862742D01*
X375022500Y-179337258D02*
X375022500Y-178862742D01*
%TO.C,R121*%
X267137743Y-236977500D02*
X267612259Y-236977500D01*
X267137743Y-238022500D02*
X267612259Y-238022500D01*
%TO.C,R102*%
X183337742Y-236977500D02*
X183812258Y-236977500D01*
X183337742Y-238022500D02*
X183812258Y-238022500D01*
%TO.C,R37*%
X304022500Y-174662742D02*
X304022500Y-175137258D01*
X302977500Y-174662742D02*
X302977500Y-175137258D01*
%TO.C,R36*%
X285977500Y-183537258D02*
X285977500Y-183062742D01*
X287022500Y-183537258D02*
X287022500Y-183062742D01*
%TO.C,C37*%
X275412164Y-161540000D02*
X275627836Y-161540000D01*
X275412164Y-162260000D02*
X275627836Y-162260000D01*
%TO.C,D11*%
X272800000Y-162540000D02*
X272800000Y-166550000D01*
X270800000Y-162540000D02*
X272800000Y-162540000D01*
X270800000Y-162540000D02*
X270800000Y-166550000D01*
%TO.C,R54*%
X373977500Y-175137258D02*
X373977500Y-174662742D01*
X375022500Y-175137258D02*
X375022500Y-174662742D01*
%TO.C,R134*%
X359337742Y-236977500D02*
X359812258Y-236977500D01*
X359337742Y-238022500D02*
X359812258Y-238022500D01*
%TO.C,R136*%
X355137743Y-236977500D02*
X355612259Y-236977500D01*
X355137743Y-238022500D02*
X355612259Y-238022500D01*
%TO.C,R12*%
X197977500Y-175137258D02*
X197977500Y-174662742D01*
X199022500Y-175137258D02*
X199022500Y-174662742D01*
%TO.C,D14*%
X360800000Y-162540000D02*
X360800000Y-166550000D01*
X358800000Y-162540000D02*
X360800000Y-162540000D01*
X358800000Y-162540000D02*
X358800000Y-166550000D01*
%TO.C,Q17*%
X273440000Y-164900000D02*
X273440000Y-165700000D01*
X273440000Y-164900000D02*
X273440000Y-164100000D01*
X276560000Y-164900000D02*
X276560000Y-166700000D01*
X276560000Y-164900000D02*
X276560000Y-164100000D01*
%TO.C,R15*%
X216022500Y-174662742D02*
X216022500Y-175137258D01*
X214977500Y-174662742D02*
X214977500Y-175137258D01*
%TO.C,R57*%
X392022500Y-174662742D02*
X392022500Y-175137258D01*
X390977500Y-174662742D02*
X390977500Y-175137258D01*
%TO.C,R14*%
X197977500Y-183537258D02*
X197977500Y-183062742D01*
X199022500Y-183537258D02*
X199022500Y-183062742D01*
%TO.C,Q8*%
X185440000Y-164900000D02*
X185440000Y-165700000D01*
X185440000Y-164900000D02*
X185440000Y-164100000D01*
X188560000Y-164900000D02*
X188560000Y-166700000D01*
X188560000Y-164900000D02*
X188560000Y-164100000D01*
%TO.C,R118*%
X262937743Y-236977500D02*
X263412259Y-236977500D01*
X262937743Y-238022500D02*
X263412259Y-238022500D01*
%TO.C,Q37*%
X261575001Y-232440000D02*
X260925001Y-232440000D01*
X261575001Y-232440000D02*
X262225001Y-232440000D01*
X261575001Y-235560000D02*
X259900001Y-235560000D01*
X261575001Y-235560000D02*
X262225001Y-235560000D01*
%TD*%
%LPC*%
D12*
X368037500Y-168000000D02*
G75*
G03*
X368037500Y-168000000I-1037500J0D01*
G01*
X223037500Y-168000000D02*
G75*
G03*
X223037500Y-168000000I-1037500J0D01*
G01*
X399037500Y-168000000D02*
G75*
G03*
X399037500Y-168000000I-1037500J0D01*
G01*
D13*
X192025000Y-184000000D02*
G75*
G03*
X192025000Y-184000000I-1025000J0D01*
G01*
D12*
X311037500Y-168000000D02*
G75*
G03*
X311037500Y-168000000I-1037500J0D01*
G01*
X399037500Y-184000000D02*
G75*
G03*
X399037500Y-184000000I-1037500J0D01*
G01*
X192037500Y-168000000D02*
G75*
G03*
X192037500Y-168000000I-1037500J0D01*
G01*
X280037500Y-168000000D02*
G75*
G03*
X280037500Y-168000000I-1037500J0D01*
G01*
D14*
X412287500Y-250500000D02*
G75*
G03*
X412287500Y-250500000I-1787500J0D01*
G01*
D12*
X311037500Y-184000000D02*
G75*
G03*
X311037500Y-184000000I-1037500J0D01*
G01*
D14*
X462287500Y-250500000D02*
G75*
G03*
X462287500Y-250500000I-1787500J0D01*
G01*
D13*
X280025000Y-184000000D02*
G75*
G03*
X280025000Y-184000000I-1025000J0D01*
G01*
X368025000Y-184000000D02*
G75*
G03*
X368025000Y-184000000I-1025000J0D01*
G01*
D12*
X223037500Y-184000000D02*
G75*
G03*
X223037500Y-184000000I-1037500J0D01*
G01*
D14*
X462287500Y-315500000D02*
G75*
G03*
X462287500Y-315500000I-1787500J0D01*
G01*
X412287500Y-325500000D02*
G75*
G03*
X412287500Y-325500000I-1787500J0D01*
G01*
D15*
%TO.C,J6*%
X301935000Y-107935000D03*
X301935000Y-102065000D03*
X296065000Y-107935000D03*
X296065000Y-102065000D03*
%TD*%
D16*
%TO.C,J8*%
X454412500Y-185240000D03*
X459412500Y-185240000D03*
D17*
X454412500Y-180160000D03*
X459412500Y-180160000D03*
X454412500Y-175080000D03*
X459412500Y-175080000D03*
X454412500Y-170000000D03*
X459412500Y-170000000D03*
X454412500Y-164920000D03*
X459412500Y-164920000D03*
X454412500Y-159840000D03*
X459412500Y-159840000D03*
%TD*%
D18*
%TO.C,C25*%
X252000000Y-201977780D03*
D19*
X252000000Y-194477780D03*
%TD*%
D20*
%TO.C,K1*%
X442350000Y-235000000D03*
X442350000Y-195000000D03*
D21*
X423600000Y-230200000D03*
X423600000Y-225700000D03*
X423600000Y-204300000D03*
X423600000Y-199800000D03*
%TD*%
D22*
%TO.C,J12*%
X456725000Y-228000000D03*
D23*
X459265000Y-228000000D03*
%TD*%
D15*
%TO.C,J5*%
X216935000Y-107935000D03*
X216935000Y-102065000D03*
X211065000Y-107935000D03*
X211065000Y-102065000D03*
%TD*%
D18*
%TO.C,C27*%
X164000000Y-201977780D03*
D19*
X164000000Y-194477780D03*
%TD*%
D24*
%TO.C,J15*%
X354400000Y-324305000D03*
D25*
X359480000Y-324305000D03*
X364560000Y-324305000D03*
X369640000Y-324305000D03*
X374720000Y-324305000D03*
X379800000Y-324305000D03*
%TD*%
D18*
%TO.C,C23*%
X340000000Y-201977780D03*
D19*
X340000000Y-194477780D03*
%TD*%
D24*
%TO.C,J13*%
X178300000Y-324305000D03*
D25*
X183380000Y-324305000D03*
X188460000Y-324305000D03*
X193540000Y-324305000D03*
X198620000Y-324305000D03*
X203700000Y-324305000D03*
%TD*%
D26*
%TO.C,C28*%
X455632323Y-212000000D03*
D27*
X460632323Y-212000000D03*
%TD*%
D18*
%TO.C,C26*%
X186000000Y-201977780D03*
D19*
X186000000Y-194477780D03*
%TD*%
D18*
%TO.C,C24*%
X274000000Y-201977780D03*
D19*
X274000000Y-194477780D03*
%TD*%
D15*
%TO.C,J10*%
X426935000Y-107935000D03*
X426935000Y-102065000D03*
X421065000Y-107935000D03*
X421065000Y-102065000D03*
%TD*%
%TO.C,J4*%
X196935000Y-107935000D03*
X196935000Y-102065000D03*
X191065000Y-107935000D03*
X191065000Y-102065000D03*
%TD*%
%TO.C,J9*%
X406935000Y-107935000D03*
X406935000Y-102065000D03*
X401065000Y-107935000D03*
X401065000Y-102065000D03*
%TD*%
D16*
%TO.C,J11*%
X454412500Y-147590000D03*
X459412500Y-147590000D03*
D17*
X454412500Y-142510000D03*
X459412500Y-142510000D03*
X454412500Y-137430000D03*
X459412500Y-137430000D03*
X454412500Y-132350000D03*
X459412500Y-132350000D03*
X454412500Y-127270000D03*
X459412500Y-127270000D03*
X454412500Y-122190000D03*
X459412500Y-122190000D03*
%TD*%
D24*
%TO.C,J14*%
X266400000Y-324305000D03*
D25*
X271480000Y-324305000D03*
X276560000Y-324305000D03*
X281640000Y-324305000D03*
X286720000Y-324305000D03*
X291800000Y-324305000D03*
%TD*%
D15*
%TO.C,J7*%
X321935000Y-107935000D03*
X321935000Y-102065000D03*
X316065000Y-107935000D03*
X316065000Y-102065000D03*
%TD*%
D18*
%TO.C,C22*%
X362000000Y-201977780D03*
D19*
X362000000Y-194477780D03*
%TD*%
D28*
%TO.C,R23*%
X185825000Y-168400000D03*
X184175000Y-168400000D03*
%TD*%
D29*
%TO.C,R119*%
X270750000Y-237500000D03*
X272400000Y-237500000D03*
%TD*%
D30*
%TO.C,R58*%
X391500000Y-178275000D03*
X391500000Y-179925000D03*
%TD*%
D31*
%TO.C,R56*%
X374500000Y-184125000D03*
X374500000Y-182475000D03*
%TD*%
D32*
%TO.C,Q26*%
X363950000Y-166037500D03*
X362050000Y-166037500D03*
X363000000Y-163762500D03*
%TD*%
D30*
%TO.C,R38*%
X303500000Y-178275000D03*
X303500000Y-179925000D03*
%TD*%
%TO.C,R18*%
X215500000Y-182475000D03*
X215500000Y-184125000D03*
%TD*%
D33*
%TO.C,Q33*%
X172637500Y-234950000D03*
X172637500Y-233050000D03*
X174512500Y-234000000D03*
%TD*%
%TO.C,Q41*%
X348637501Y-234950000D03*
X348637501Y-233050000D03*
X350512501Y-234000000D03*
%TD*%
D29*
%TO.C,R101*%
X174350000Y-237500000D03*
X176000000Y-237500000D03*
%TD*%
D28*
%TO.C,R65*%
X361825000Y-168400000D03*
X360175000Y-168400000D03*
%TD*%
D30*
%TO.C,R40*%
X303500000Y-182475000D03*
X303500000Y-184125000D03*
%TD*%
D28*
%TO.C,R45*%
X273825000Y-168400000D03*
X272175000Y-168400000D03*
%TD*%
D34*
%TO.C,C31*%
X187040000Y-161900000D03*
X188000000Y-161900000D03*
%TD*%
D29*
%TO.C,R133*%
X350350001Y-237500000D03*
X352000001Y-237500000D03*
%TD*%
D35*
%TO.C,Q22*%
X371950000Y-184337500D03*
X370050000Y-184337500D03*
X371000000Y-182462500D03*
%TD*%
D31*
%TO.C,R34*%
X286500000Y-175725000D03*
X286500000Y-174075000D03*
%TD*%
D29*
%TO.C,R104*%
X178550000Y-237500000D03*
X180200000Y-237500000D03*
%TD*%
D34*
%TO.C,C43*%
X363040000Y-161900000D03*
X364000000Y-161900000D03*
%TD*%
D31*
%TO.C,R35*%
X286500000Y-179925000D03*
X286500000Y-178275000D03*
%TD*%
%TO.C,R13*%
X198500000Y-179925000D03*
X198500000Y-178275000D03*
%TD*%
D30*
%TO.C,R60*%
X391500000Y-182475000D03*
X391500000Y-184125000D03*
%TD*%
D36*
%TO.C,D8*%
X183800000Y-163250000D03*
X183800000Y-166550000D03*
%TD*%
D30*
%TO.C,R16*%
X215500000Y-178275000D03*
X215500000Y-179925000D03*
%TD*%
D35*
%TO.C,Q4*%
X195950000Y-184337500D03*
X194050000Y-184337500D03*
X195000000Y-182462500D03*
%TD*%
%TO.C,Q13*%
X283950000Y-184337500D03*
X282050000Y-184337500D03*
X283000000Y-182462500D03*
%TD*%
D31*
%TO.C,R55*%
X374500000Y-179925000D03*
X374500000Y-178275000D03*
%TD*%
D29*
%TO.C,R121*%
X266550001Y-237500000D03*
X268200001Y-237500000D03*
%TD*%
%TO.C,R102*%
X182750000Y-237500000D03*
X184400000Y-237500000D03*
%TD*%
D30*
%TO.C,R37*%
X303500000Y-174075000D03*
X303500000Y-175725000D03*
%TD*%
D31*
%TO.C,R36*%
X286500000Y-184125000D03*
X286500000Y-182475000D03*
%TD*%
D34*
%TO.C,C37*%
X275040000Y-161900000D03*
X276000000Y-161900000D03*
%TD*%
D36*
%TO.C,D11*%
X271800000Y-163250000D03*
X271800000Y-166550000D03*
%TD*%
D31*
%TO.C,R54*%
X374500000Y-175725000D03*
X374500000Y-174075000D03*
%TD*%
D29*
%TO.C,R134*%
X358750000Y-237500000D03*
X360400000Y-237500000D03*
%TD*%
%TO.C,R136*%
X354550001Y-237500000D03*
X356200001Y-237500000D03*
%TD*%
D31*
%TO.C,R12*%
X198500000Y-175725000D03*
X198500000Y-174075000D03*
%TD*%
D36*
%TO.C,D14*%
X359800000Y-163250000D03*
X359800000Y-166550000D03*
%TD*%
D32*
%TO.C,Q17*%
X275950000Y-166037500D03*
X274050000Y-166037500D03*
X275000000Y-163762500D03*
%TD*%
D30*
%TO.C,R15*%
X215500000Y-174075000D03*
X215500000Y-175725000D03*
%TD*%
%TO.C,R57*%
X391500000Y-174075000D03*
X391500000Y-175725000D03*
%TD*%
D31*
%TO.C,R14*%
X198500000Y-184125000D03*
X198500000Y-182475000D03*
%TD*%
D32*
%TO.C,Q8*%
X187950000Y-166037500D03*
X186050000Y-166037500D03*
X187000000Y-163762500D03*
%TD*%
D29*
%TO.C,R118*%
X262350001Y-237500000D03*
X264000001Y-237500000D03*
%TD*%
D33*
%TO.C,Q37*%
X260637501Y-234950000D03*
X260637501Y-233050000D03*
X262512501Y-234000000D03*
%TD*%
G36*
X198500802Y-114000052D02*
G01*
X198824706Y-114021282D01*
X198827887Y-114021701D01*
X199145470Y-114084871D01*
X199148569Y-114085702D01*
X199455188Y-114189785D01*
X199458152Y-114191013D01*
X199748559Y-114334225D01*
X199751337Y-114335829D01*
X200020568Y-114515724D01*
X200023113Y-114517677D01*
X200266558Y-114731172D01*
X200268827Y-114733441D01*
X200482322Y-114976886D01*
X200484275Y-114979431D01*
X200664170Y-115248662D01*
X200665774Y-115251440D01*
X200808986Y-115541847D01*
X200810214Y-115544811D01*
X200914297Y-115851430D01*
X200915128Y-115854529D01*
X200978298Y-116172112D01*
X200978717Y-116175293D01*
X200999948Y-116499198D01*
X201000000Y-116500801D01*
X201000000Y-131278758D01*
X201000013Y-131286796D01*
X201000052Y-131294835D01*
X201002157Y-131622101D01*
X201003185Y-131679501D01*
X201005531Y-131736862D01*
X201040207Y-132398513D01*
X201044487Y-132463822D01*
X201050476Y-132528996D01*
X201118892Y-133179927D01*
X201126585Y-133244919D01*
X201135976Y-133309688D01*
X201238364Y-133956147D01*
X201249448Y-134020650D01*
X201262216Y-134084841D01*
X201398297Y-134725054D01*
X201412741Y-134788888D01*
X201428852Y-134852322D01*
X201598252Y-135484535D01*
X201616018Y-135547527D01*
X201635426Y-135610031D01*
X201837682Y-136232513D01*
X201858720Y-136294487D01*
X201881372Y-136355888D01*
X202115930Y-136966932D01*
X202140182Y-137027721D01*
X202166018Y-137087855D01*
X202432234Y-137685786D01*
X202459633Y-137745220D01*
X202488579Y-137803917D01*
X202785723Y-138387095D01*
X202816197Y-138445017D01*
X202848177Y-138502121D01*
X203175435Y-139068948D01*
X203208898Y-139125194D01*
X203243821Y-139180545D01*
X203600296Y-139729469D01*
X203636657Y-139783887D01*
X203674430Y-139837334D01*
X204059144Y-140366848D01*
X204098304Y-140419289D01*
X204138823Y-140470686D01*
X204550723Y-140979341D01*
X204592573Y-141029660D01*
X204635726Y-141078867D01*
X205079061Y-141571241D01*
X205117966Y-141613464D01*
X205157830Y-141654782D01*
X205387753Y-141887680D01*
X205393409Y-141893391D01*
X205399080Y-141899080D01*
X205600912Y-142100912D01*
X205606591Y-142106609D01*
X205612252Y-142112324D01*
X205842174Y-142345225D01*
X205882031Y-142386537D01*
X205920930Y-142428754D01*
X206364271Y-142921134D01*
X206407424Y-142970341D01*
X206449274Y-143020660D01*
X206861174Y-143529314D01*
X206901693Y-143580712D01*
X206940853Y-143633153D01*
X207325567Y-144162667D01*
X207363340Y-144216114D01*
X207399701Y-144270532D01*
X207756176Y-144819457D01*
X207791099Y-144874807D01*
X207824562Y-144931052D01*
X208151820Y-145497878D01*
X208183800Y-145554983D01*
X208214274Y-145612905D01*
X208511418Y-146196083D01*
X208540363Y-146254780D01*
X208567763Y-146314214D01*
X208833979Y-146912144D01*
X208859815Y-146972279D01*
X208884068Y-147033068D01*
X209118625Y-147644113D01*
X209141277Y-147705514D01*
X209162314Y-147767487D01*
X209364571Y-148389968D01*
X209383979Y-148452473D01*
X209401745Y-148515465D01*
X209571145Y-149147678D01*
X209587256Y-149211112D01*
X209601700Y-149274946D01*
X209737781Y-149915159D01*
X209750549Y-149979350D01*
X209761633Y-150043853D01*
X209864021Y-150690312D01*
X209873412Y-150755081D01*
X209881105Y-150820073D01*
X209949521Y-151471005D01*
X209955510Y-151536179D01*
X209959790Y-151601489D01*
X209994466Y-152263148D01*
X209996812Y-152320499D01*
X209997841Y-152377889D01*
X209999948Y-152705155D01*
X209999987Y-152713203D01*
X210000000Y-152721252D01*
X210000000Y-156499198D01*
X209999948Y-156500801D01*
X209978717Y-156824706D01*
X209978298Y-156827887D01*
X209915128Y-157145470D01*
X209914297Y-157148569D01*
X209810214Y-157455188D01*
X209808986Y-157458152D01*
X209665774Y-157748559D01*
X209664170Y-157751337D01*
X209484275Y-158020568D01*
X209482322Y-158023113D01*
X209268827Y-158266558D01*
X209266558Y-158268827D01*
X209023113Y-158482322D01*
X209020568Y-158484275D01*
X208751337Y-158664170D01*
X208748559Y-158665774D01*
X208458152Y-158808986D01*
X208455188Y-158810214D01*
X208148569Y-158914297D01*
X208145470Y-158915128D01*
X207827887Y-158978298D01*
X207824706Y-158978717D01*
X207500802Y-158999948D01*
X207499199Y-159000000D01*
X198500801Y-159000000D01*
X198499198Y-158999948D01*
X198175293Y-158978717D01*
X198172112Y-158978298D01*
X197854529Y-158915128D01*
X197851430Y-158914297D01*
X197544811Y-158810214D01*
X197541847Y-158808986D01*
X197251440Y-158665774D01*
X197248662Y-158664170D01*
X196979431Y-158484275D01*
X196976886Y-158482322D01*
X196733441Y-158268827D01*
X196731172Y-158266558D01*
X196517677Y-158023113D01*
X196515724Y-158020568D01*
X196335829Y-157751337D01*
X196334225Y-157748559D01*
X196191013Y-157458152D01*
X196189785Y-157455188D01*
X196085702Y-157148569D01*
X196084871Y-157145470D01*
X196021701Y-156827887D01*
X196021282Y-156824706D01*
X196000052Y-156500801D01*
X196000000Y-156499198D01*
X196000000Y-153721242D01*
X195999987Y-153713204D01*
X195999948Y-153705165D01*
X195997843Y-153377899D01*
X195996815Y-153320499D01*
X195994469Y-153263138D01*
X195959793Y-152601487D01*
X195955513Y-152536178D01*
X195949524Y-152471004D01*
X195881108Y-151820073D01*
X195873415Y-151755081D01*
X195864024Y-151690312D01*
X195761636Y-151043853D01*
X195750552Y-150979350D01*
X195737784Y-150915159D01*
X195601703Y-150274946D01*
X195587259Y-150211112D01*
X195571148Y-150147678D01*
X195401748Y-149515465D01*
X195383982Y-149452473D01*
X195364574Y-149389969D01*
X195162318Y-148767487D01*
X195141280Y-148705513D01*
X195118628Y-148644112D01*
X194884070Y-148033068D01*
X194859818Y-147972279D01*
X194833982Y-147912145D01*
X194567766Y-147314214D01*
X194540367Y-147254780D01*
X194511421Y-147196083D01*
X194214277Y-146612905D01*
X194183803Y-146554983D01*
X194151823Y-146497879D01*
X193824565Y-145931052D01*
X193791102Y-145874806D01*
X193756179Y-145819455D01*
X193399704Y-145270531D01*
X193363343Y-145216113D01*
X193325570Y-145162666D01*
X192940856Y-144633152D01*
X192901696Y-144580711D01*
X192861177Y-144529314D01*
X192449277Y-144020659D01*
X192407427Y-143970340D01*
X192364274Y-143921133D01*
X191920939Y-143428759D01*
X191882034Y-143386536D01*
X191842170Y-143345218D01*
X191612247Y-143112320D01*
X191606591Y-143106609D01*
X191600920Y-143100920D01*
X191399088Y-142899088D01*
X191393409Y-142893391D01*
X191387748Y-142887676D01*
X191157826Y-142654775D01*
X191117969Y-142613463D01*
X191079070Y-142571246D01*
X190635729Y-142078866D01*
X190592576Y-142029659D01*
X190550726Y-141979340D01*
X190138826Y-141470686D01*
X190098307Y-141419288D01*
X190059147Y-141366847D01*
X189674433Y-140837333D01*
X189636660Y-140783886D01*
X189600299Y-140729468D01*
X189243824Y-140180543D01*
X189208901Y-140125193D01*
X189175438Y-140068948D01*
X188848180Y-139502122D01*
X188816200Y-139445017D01*
X188785726Y-139387095D01*
X188488582Y-138803917D01*
X188459637Y-138745220D01*
X188432237Y-138685786D01*
X188166021Y-138087856D01*
X188140185Y-138027721D01*
X188115932Y-137966932D01*
X187881375Y-137355887D01*
X187858723Y-137294486D01*
X187837686Y-137232513D01*
X187635429Y-136610032D01*
X187616021Y-136547527D01*
X187598255Y-136484535D01*
X187428855Y-135852322D01*
X187412744Y-135788888D01*
X187398300Y-135725054D01*
X187262219Y-135084841D01*
X187249451Y-135020650D01*
X187238367Y-134956147D01*
X187135979Y-134309688D01*
X187126588Y-134244919D01*
X187118895Y-134179927D01*
X187050479Y-133528995D01*
X187044490Y-133463821D01*
X187040210Y-133398511D01*
X187005534Y-132736852D01*
X187003188Y-132679501D01*
X187002159Y-132622111D01*
X187000052Y-132294845D01*
X187000013Y-132286797D01*
X187000000Y-132278748D01*
X187000000Y-116500801D01*
X187000052Y-116499198D01*
X187021282Y-116175293D01*
X187021701Y-116172112D01*
X187084871Y-115854529D01*
X187085702Y-115851430D01*
X187189785Y-115544811D01*
X187191013Y-115541847D01*
X187334225Y-115251440D01*
X187335829Y-115248662D01*
X187515724Y-114979431D01*
X187517677Y-114976886D01*
X187731172Y-114733441D01*
X187733441Y-114731172D01*
X187976886Y-114517677D01*
X187979431Y-114515724D01*
X188248662Y-114335829D01*
X188251440Y-114334225D01*
X188541847Y-114191013D01*
X188544811Y-114189785D01*
X188851430Y-114085702D01*
X188854529Y-114084871D01*
X189172112Y-114021701D01*
X189175293Y-114021282D01*
X189499198Y-114000052D01*
X189500801Y-114000000D01*
X198499199Y-114000000D01*
X198500802Y-114000052D01*
G37*
G36*
X160921633Y-202003662D02*
G01*
X160956290Y-202017870D01*
X160982766Y-202043964D01*
X160997731Y-202079006D01*
X161001629Y-202096291D01*
X161004756Y-202174429D01*
X161012673Y-202261292D01*
X161026169Y-202376760D01*
X161047247Y-202520657D01*
X161047247Y-202520656D01*
X161076653Y-202663072D01*
X161090016Y-202719453D01*
X161127653Y-202859919D01*
X161173398Y-202997968D01*
X161193219Y-203052424D01*
X161246906Y-203187562D01*
X161246906Y-203187563D01*
X161308364Y-203319362D01*
X161334372Y-203371149D01*
X161403387Y-203499146D01*
X161479735Y-203622927D01*
X161511576Y-203671337D01*
X161594989Y-203790463D01*
X161685188Y-203904539D01*
X161722437Y-203948930D01*
X161819115Y-204057565D01*
X161921938Y-204160389D01*
X161964089Y-204200156D01*
X162072723Y-204296832D01*
X162186803Y-204387035D01*
X162233282Y-204421638D01*
X162352412Y-204505052D01*
X162352413Y-204505053D01*
X162476174Y-204581390D01*
X162526361Y-204610365D01*
X162654365Y-204679385D01*
X162654366Y-204679385D01*
X162786162Y-204740843D01*
X162839368Y-204763793D01*
X162974523Y-204817488D01*
X163112564Y-204863228D01*
X163168077Y-204879848D01*
X163308547Y-204917487D01*
X163450959Y-204946892D01*
X163508029Y-204956955D01*
X163651909Y-204978031D01*
X163796789Y-204990706D01*
X163854639Y-204994076D01*
X164000000Y-204998305D01*
X164145361Y-204994076D01*
X164203211Y-204990706D01*
X164348091Y-204978031D01*
X164491971Y-204956955D01*
X164549041Y-204946892D01*
X164691453Y-204917487D01*
X164831923Y-204879848D01*
X164887436Y-204863228D01*
X165025477Y-204817488D01*
X165160632Y-204763793D01*
X165213838Y-204740843D01*
X165345634Y-204679385D01*
X165345635Y-204679385D01*
X165473639Y-204610365D01*
X165523826Y-204581390D01*
X165647587Y-204505053D01*
X165647588Y-204505052D01*
X165766718Y-204421638D01*
X165813197Y-204387035D01*
X165927277Y-204296832D01*
X166035911Y-204200156D01*
X166078062Y-204160389D01*
X166180885Y-204057565D01*
X166277563Y-203948930D01*
X166314812Y-203904539D01*
X166405011Y-203790463D01*
X166488424Y-203671337D01*
X166520265Y-203622927D01*
X166596613Y-203499146D01*
X166665628Y-203371149D01*
X166691636Y-203319362D01*
X166753094Y-203187563D01*
X166753094Y-203187562D01*
X166806781Y-203052424D01*
X166826602Y-202997968D01*
X166872347Y-202859919D01*
X166909984Y-202719453D01*
X166923347Y-202663072D01*
X166952753Y-202520656D01*
X166952753Y-202520657D01*
X166973831Y-202376760D01*
X166987327Y-202261292D01*
X166995244Y-202174429D01*
X166998370Y-202096291D01*
X167002268Y-202079006D01*
X167017233Y-202043964D01*
X167043710Y-202017870D01*
X167078368Y-202003662D01*
X167096954Y-202000000D01*
X182903046Y-202000000D01*
X182921633Y-202003662D01*
X182956290Y-202017870D01*
X182982766Y-202043964D01*
X182997731Y-202079006D01*
X183001629Y-202096291D01*
X183004756Y-202174429D01*
X183012673Y-202261292D01*
X183026169Y-202376760D01*
X183047247Y-202520657D01*
X183047247Y-202520656D01*
X183076653Y-202663072D01*
X183090016Y-202719453D01*
X183127653Y-202859919D01*
X183173398Y-202997968D01*
X183193219Y-203052424D01*
X183246906Y-203187562D01*
X183246906Y-203187563D01*
X183308364Y-203319362D01*
X183334372Y-203371149D01*
X183403387Y-203499146D01*
X183479735Y-203622927D01*
X183511576Y-203671337D01*
X183594989Y-203790463D01*
X183685188Y-203904539D01*
X183722437Y-203948930D01*
X183819115Y-204057565D01*
X183921938Y-204160389D01*
X183964089Y-204200156D01*
X184072723Y-204296832D01*
X184186803Y-204387035D01*
X184233282Y-204421638D01*
X184352412Y-204505052D01*
X184352413Y-204505053D01*
X184476174Y-204581390D01*
X184526361Y-204610365D01*
X184654365Y-204679385D01*
X184654366Y-204679385D01*
X184786162Y-204740843D01*
X184839368Y-204763793D01*
X184974523Y-204817488D01*
X185112564Y-204863228D01*
X185168077Y-204879848D01*
X185308547Y-204917487D01*
X185450959Y-204946892D01*
X185508029Y-204956955D01*
X185651909Y-204978031D01*
X185796789Y-204990706D01*
X185854639Y-204994076D01*
X186000000Y-204998305D01*
X186145361Y-204994076D01*
X186203211Y-204990706D01*
X186348091Y-204978031D01*
X186491971Y-204956955D01*
X186549041Y-204946892D01*
X186691453Y-204917487D01*
X186831923Y-204879848D01*
X186887436Y-204863228D01*
X187025477Y-204817488D01*
X187160632Y-204763793D01*
X187213838Y-204740843D01*
X187345634Y-204679385D01*
X187345635Y-204679385D01*
X187473639Y-204610365D01*
X187523826Y-204581390D01*
X187647587Y-204505053D01*
X187647588Y-204505052D01*
X187766718Y-204421638D01*
X187813197Y-204387035D01*
X187927277Y-204296832D01*
X188035911Y-204200156D01*
X188078062Y-204160389D01*
X188180885Y-204057565D01*
X188277563Y-203948930D01*
X188314812Y-203904539D01*
X188405011Y-203790463D01*
X188488424Y-203671337D01*
X188520265Y-203622927D01*
X188596613Y-203499146D01*
X188665628Y-203371149D01*
X188691636Y-203319362D01*
X188753094Y-203187563D01*
X188753094Y-203187562D01*
X188806781Y-203052424D01*
X188826602Y-202997968D01*
X188872347Y-202859919D01*
X188909984Y-202719453D01*
X188923347Y-202663072D01*
X188952753Y-202520656D01*
X188952753Y-202520657D01*
X188973831Y-202376760D01*
X188987327Y-202261292D01*
X188995244Y-202174429D01*
X188998370Y-202096291D01*
X189002268Y-202079006D01*
X189017233Y-202043964D01*
X189043710Y-202017870D01*
X189078368Y-202003662D01*
X189096954Y-202000000D01*
X248903046Y-202000000D01*
X248921633Y-202003662D01*
X248956290Y-202017870D01*
X248982766Y-202043964D01*
X248997731Y-202079006D01*
X249001629Y-202096291D01*
X249004756Y-202174429D01*
X249012673Y-202261292D01*
X249026169Y-202376760D01*
X249047247Y-202520657D01*
X249047247Y-202520656D01*
X249076653Y-202663072D01*
X249090016Y-202719453D01*
X249127653Y-202859919D01*
X249173398Y-202997968D01*
X249193219Y-203052424D01*
X249246906Y-203187562D01*
X249246906Y-203187563D01*
X249308364Y-203319362D01*
X249334372Y-203371149D01*
X249403387Y-203499146D01*
X249479735Y-203622927D01*
X249511576Y-203671337D01*
X249594989Y-203790463D01*
X249685188Y-203904539D01*
X249722437Y-203948930D01*
X249819115Y-204057565D01*
X249921938Y-204160389D01*
X249964089Y-204200156D01*
X250072723Y-204296832D01*
X250186803Y-204387035D01*
X250233282Y-204421638D01*
X250352412Y-204505052D01*
X250352413Y-204505053D01*
X250476174Y-204581390D01*
X250526361Y-204610365D01*
X250654365Y-204679385D01*
X250654366Y-204679385D01*
X250786162Y-204740843D01*
X250839368Y-204763793D01*
X250974523Y-204817488D01*
X251112564Y-204863228D01*
X251168077Y-204879848D01*
X251308547Y-204917487D01*
X251450959Y-204946892D01*
X251508029Y-204956955D01*
X251651909Y-204978031D01*
X251796789Y-204990706D01*
X251854639Y-204994076D01*
X252000000Y-204998305D01*
X252145361Y-204994076D01*
X252203211Y-204990706D01*
X252348091Y-204978031D01*
X252491971Y-204956955D01*
X252549041Y-204946892D01*
X252691453Y-204917487D01*
X252831923Y-204879848D01*
X252887436Y-204863228D01*
X253025477Y-204817488D01*
X253160632Y-204763793D01*
X253213838Y-204740843D01*
X253345634Y-204679385D01*
X253345635Y-204679385D01*
X253473639Y-204610365D01*
X253523826Y-204581390D01*
X253647587Y-204505053D01*
X253647588Y-204505052D01*
X253766718Y-204421638D01*
X253813197Y-204387035D01*
X253927277Y-204296832D01*
X254035911Y-204200156D01*
X254078062Y-204160389D01*
X254180885Y-204057565D01*
X254277563Y-203948930D01*
X254314812Y-203904539D01*
X254405011Y-203790463D01*
X254488424Y-203671337D01*
X254520265Y-203622927D01*
X254596613Y-203499146D01*
X254665628Y-203371149D01*
X254691636Y-203319362D01*
X254753094Y-203187563D01*
X254753094Y-203187562D01*
X254806781Y-203052424D01*
X254826602Y-202997968D01*
X254872347Y-202859919D01*
X254909984Y-202719453D01*
X254923347Y-202663072D01*
X254952753Y-202520656D01*
X254952753Y-202520657D01*
X254973831Y-202376760D01*
X254987327Y-202261292D01*
X254995244Y-202174429D01*
X254998370Y-202096291D01*
X255002268Y-202079006D01*
X255017233Y-202043964D01*
X255043710Y-202017870D01*
X255078368Y-202003662D01*
X255096954Y-202000000D01*
X270903046Y-202000000D01*
X270921633Y-202003662D01*
X270956290Y-202017870D01*
X270982766Y-202043964D01*
X270997731Y-202079006D01*
X271001629Y-202096291D01*
X271004756Y-202174429D01*
X271012673Y-202261292D01*
X271026169Y-202376760D01*
X271047247Y-202520657D01*
X271047247Y-202520656D01*
X271076653Y-202663072D01*
X271090016Y-202719453D01*
X271127653Y-202859919D01*
X271173398Y-202997968D01*
X271193219Y-203052424D01*
X271246906Y-203187562D01*
X271246906Y-203187563D01*
X271308364Y-203319362D01*
X271334372Y-203371149D01*
X271403387Y-203499146D01*
X271479735Y-203622927D01*
X271511576Y-203671337D01*
X271594989Y-203790463D01*
X271685188Y-203904539D01*
X271722437Y-203948930D01*
X271819115Y-204057565D01*
X271921938Y-204160389D01*
X271964089Y-204200156D01*
X272072723Y-204296832D01*
X272186803Y-204387035D01*
X272233282Y-204421638D01*
X272352412Y-204505052D01*
X272352413Y-204505053D01*
X272476174Y-204581390D01*
X272526361Y-204610365D01*
X272654365Y-204679385D01*
X272654366Y-204679385D01*
X272786162Y-204740843D01*
X272839368Y-204763793D01*
X272974523Y-204817488D01*
X273112564Y-204863228D01*
X273168077Y-204879848D01*
X273308547Y-204917487D01*
X273450959Y-204946892D01*
X273508029Y-204956955D01*
X273651909Y-204978031D01*
X273796789Y-204990706D01*
X273854639Y-204994076D01*
X274000000Y-204998305D01*
X274145361Y-204994076D01*
X274203211Y-204990706D01*
X274348091Y-204978031D01*
X274491971Y-204956955D01*
X274549041Y-204946892D01*
X274691453Y-204917487D01*
X274831923Y-204879848D01*
X274887436Y-204863228D01*
X275025477Y-204817488D01*
X275160632Y-204763793D01*
X275213838Y-204740843D01*
X275345634Y-204679385D01*
X275345635Y-204679385D01*
X275473639Y-204610365D01*
X275523826Y-204581390D01*
X275647587Y-204505053D01*
X275647588Y-204505052D01*
X275766718Y-204421638D01*
X275813197Y-204387035D01*
X275927277Y-204296832D01*
X276035911Y-204200156D01*
X276078062Y-204160389D01*
X276180885Y-204057565D01*
X276277563Y-203948930D01*
X276314812Y-203904539D01*
X276405011Y-203790463D01*
X276488424Y-203671337D01*
X276520265Y-203622927D01*
X276596613Y-203499146D01*
X276665628Y-203371149D01*
X276691636Y-203319362D01*
X276753094Y-203187563D01*
X276753094Y-203187562D01*
X276806781Y-203052424D01*
X276826602Y-202997968D01*
X276872347Y-202859919D01*
X276909984Y-202719453D01*
X276923347Y-202663072D01*
X276952753Y-202520656D01*
X276952753Y-202520657D01*
X276973831Y-202376760D01*
X276987327Y-202261292D01*
X276995244Y-202174429D01*
X276998370Y-202096291D01*
X277002268Y-202079006D01*
X277017233Y-202043964D01*
X277043710Y-202017870D01*
X277078368Y-202003662D01*
X277096954Y-202000000D01*
X336903046Y-202000000D01*
X336921633Y-202003662D01*
X336956290Y-202017870D01*
X336982766Y-202043964D01*
X336997731Y-202079006D01*
X337001629Y-202096291D01*
X337004756Y-202174429D01*
X337012673Y-202261292D01*
X337026169Y-202376760D01*
X337047247Y-202520657D01*
X337047247Y-202520656D01*
X337076653Y-202663072D01*
X337090016Y-202719453D01*
X337127653Y-202859919D01*
X337173398Y-202997968D01*
X337193219Y-203052424D01*
X337246906Y-203187562D01*
X337246906Y-203187563D01*
X337308364Y-203319362D01*
X337334372Y-203371149D01*
X337403387Y-203499146D01*
X337479735Y-203622927D01*
X337511576Y-203671337D01*
X337594989Y-203790463D01*
X337685188Y-203904539D01*
X337722437Y-203948930D01*
X337819115Y-204057565D01*
X337921938Y-204160389D01*
X337964089Y-204200156D01*
X338072723Y-204296832D01*
X338186803Y-204387035D01*
X338233282Y-204421638D01*
X338352412Y-204505052D01*
X338352413Y-204505053D01*
X338476174Y-204581390D01*
X338526361Y-204610365D01*
X338654365Y-204679385D01*
X338654366Y-204679385D01*
X338786162Y-204740843D01*
X338839368Y-204763793D01*
X338974523Y-204817488D01*
X339112564Y-204863228D01*
X339168077Y-204879848D01*
X339308547Y-204917487D01*
X339450959Y-204946892D01*
X339508029Y-204956955D01*
X339651909Y-204978031D01*
X339796789Y-204990706D01*
X339854639Y-204994076D01*
X340000000Y-204998305D01*
X340145361Y-204994076D01*
X340203211Y-204990706D01*
X340348091Y-204978031D01*
X340491971Y-204956955D01*
X340549041Y-204946892D01*
X340691453Y-204917487D01*
X340831923Y-204879848D01*
X340887436Y-204863228D01*
X341025477Y-204817488D01*
X341160632Y-204763793D01*
X341213838Y-204740843D01*
X341345634Y-204679385D01*
X341345635Y-204679385D01*
X341473639Y-204610365D01*
X341523826Y-204581390D01*
X341647587Y-204505053D01*
X341647588Y-204505052D01*
X341766718Y-204421638D01*
X341813197Y-204387035D01*
X341927277Y-204296832D01*
X342035911Y-204200156D01*
X342078062Y-204160389D01*
X342180885Y-204057565D01*
X342277563Y-203948930D01*
X342314812Y-203904539D01*
X342405011Y-203790463D01*
X342488424Y-203671337D01*
X342520265Y-203622927D01*
X342596613Y-203499146D01*
X342665628Y-203371149D01*
X342691636Y-203319362D01*
X342753094Y-203187563D01*
X342753094Y-203187562D01*
X342806781Y-203052424D01*
X342826602Y-202997968D01*
X342872347Y-202859919D01*
X342909984Y-202719453D01*
X342923347Y-202663072D01*
X342952753Y-202520656D01*
X342952753Y-202520657D01*
X342973831Y-202376760D01*
X342987327Y-202261292D01*
X342995244Y-202174429D01*
X342998370Y-202096291D01*
X343002268Y-202079006D01*
X343017233Y-202043964D01*
X343043710Y-202017870D01*
X343078368Y-202003662D01*
X343096954Y-202000000D01*
X358903046Y-202000000D01*
X358921633Y-202003662D01*
X358956290Y-202017870D01*
X358982766Y-202043964D01*
X358997731Y-202079006D01*
X359001629Y-202096291D01*
X359004756Y-202174429D01*
X359012673Y-202261292D01*
X359026169Y-202376760D01*
X359047247Y-202520657D01*
X359047247Y-202520656D01*
X359076653Y-202663072D01*
X359090016Y-202719453D01*
X359127653Y-202859919D01*
X359173398Y-202997968D01*
X359193219Y-203052424D01*
X359246906Y-203187562D01*
X359246906Y-203187563D01*
X359308364Y-203319362D01*
X359334372Y-203371149D01*
X359403387Y-203499146D01*
X359479735Y-203622927D01*
X359511576Y-203671337D01*
X359594989Y-203790463D01*
X359685188Y-203904539D01*
X359722437Y-203948930D01*
X359819115Y-204057565D01*
X359921938Y-204160389D01*
X359964089Y-204200156D01*
X360072723Y-204296832D01*
X360186803Y-204387035D01*
X360233282Y-204421638D01*
X360352412Y-204505052D01*
X360352413Y-204505053D01*
X360476174Y-204581390D01*
X360526361Y-204610365D01*
X360654365Y-204679385D01*
X360654366Y-204679385D01*
X360786162Y-204740843D01*
X360839368Y-204763793D01*
X360974523Y-204817488D01*
X361112564Y-204863228D01*
X361168077Y-204879848D01*
X361308547Y-204917487D01*
X361450959Y-204946892D01*
X361508029Y-204956955D01*
X361651909Y-204978031D01*
X361796789Y-204990706D01*
X361854639Y-204994076D01*
X362000000Y-204998305D01*
X362145361Y-204994076D01*
X362203211Y-204990706D01*
X362348091Y-204978031D01*
X362491971Y-204956955D01*
X362549041Y-204946892D01*
X362691453Y-204917487D01*
X362831923Y-204879848D01*
X362887436Y-204863228D01*
X363025477Y-204817488D01*
X363160632Y-204763793D01*
X363213838Y-204740843D01*
X363345634Y-204679385D01*
X363345635Y-204679385D01*
X363473639Y-204610365D01*
X363523826Y-204581390D01*
X363647587Y-204505053D01*
X363647588Y-204505052D01*
X363766718Y-204421638D01*
X363813197Y-204387035D01*
X363927277Y-204296832D01*
X364035911Y-204200156D01*
X364078062Y-204160389D01*
X364180885Y-204057565D01*
X364277563Y-203948930D01*
X364314812Y-203904539D01*
X364405011Y-203790463D01*
X364488424Y-203671337D01*
X364520265Y-203622927D01*
X364596613Y-203499146D01*
X364665628Y-203371149D01*
X364691636Y-203319362D01*
X364753094Y-203187563D01*
X364753094Y-203187562D01*
X364806781Y-203052424D01*
X364826602Y-202997968D01*
X364872347Y-202859919D01*
X364909984Y-202719453D01*
X364923347Y-202663072D01*
X364952753Y-202520656D01*
X364952753Y-202520657D01*
X364973831Y-202376760D01*
X364987327Y-202261292D01*
X364995244Y-202174429D01*
X364998370Y-202096291D01*
X365002268Y-202079006D01*
X365017233Y-202043964D01*
X365043710Y-202017870D01*
X365078368Y-202003662D01*
X365096954Y-202000000D01*
X385499199Y-202000000D01*
X385500802Y-202000052D01*
X385824706Y-202021282D01*
X385827887Y-202021701D01*
X386145470Y-202084871D01*
X386148569Y-202085702D01*
X386455188Y-202189785D01*
X386458152Y-202191013D01*
X386748559Y-202334225D01*
X386751337Y-202335829D01*
X387020568Y-202515724D01*
X387023113Y-202517677D01*
X387266558Y-202731172D01*
X387268827Y-202733441D01*
X387482322Y-202976886D01*
X387484275Y-202979431D01*
X387664170Y-203248662D01*
X387665774Y-203251440D01*
X387808986Y-203541847D01*
X387810214Y-203544811D01*
X387914297Y-203851430D01*
X387915128Y-203854529D01*
X387978298Y-204172112D01*
X387978717Y-204175293D01*
X387999948Y-204499198D01*
X388000000Y-204500801D01*
X388000000Y-209999198D01*
X387999948Y-210000801D01*
X387978717Y-210324706D01*
X387978298Y-210327887D01*
X387915128Y-210645470D01*
X387914297Y-210648569D01*
X387810214Y-210955188D01*
X387808986Y-210958152D01*
X387665774Y-211248559D01*
X387664170Y-211251337D01*
X387484275Y-211520568D01*
X387482322Y-211523113D01*
X387268827Y-211766558D01*
X387266558Y-211768827D01*
X387023113Y-211982322D01*
X387020568Y-211984275D01*
X386751337Y-212164170D01*
X386748559Y-212165774D01*
X386458152Y-212308986D01*
X386455188Y-212310214D01*
X386148569Y-212414297D01*
X386145470Y-212415128D01*
X385827887Y-212478298D01*
X385824706Y-212478717D01*
X385500802Y-212499948D01*
X385499199Y-212500000D01*
X159000801Y-212500000D01*
X158999198Y-212499948D01*
X158675293Y-212478717D01*
X158672112Y-212478298D01*
X158354529Y-212415128D01*
X158351430Y-212414297D01*
X158044811Y-212310214D01*
X158041847Y-212308986D01*
X157751440Y-212165774D01*
X157748662Y-212164170D01*
X157479431Y-211984275D01*
X157476886Y-211982322D01*
X157233441Y-211768827D01*
X157231172Y-211766558D01*
X157017677Y-211523113D01*
X157015724Y-211520568D01*
X156835829Y-211251337D01*
X156834225Y-211248559D01*
X156691013Y-210958152D01*
X156689785Y-210955188D01*
X156585702Y-210648569D01*
X156584871Y-210645470D01*
X156521701Y-210327887D01*
X156521282Y-210324706D01*
X156500052Y-210000801D01*
X156500000Y-209999198D01*
X156500000Y-204250801D01*
X156500052Y-204249198D01*
X156519144Y-203957916D01*
X156519563Y-203954735D01*
X156576350Y-203669241D01*
X156577181Y-203666142D01*
X156670755Y-203390482D01*
X156671983Y-203387518D01*
X156800732Y-203126440D01*
X156802336Y-203123662D01*
X156964062Y-202881622D01*
X156966015Y-202879077D01*
X157157950Y-202660218D01*
X157160218Y-202657950D01*
X157379077Y-202466015D01*
X157381622Y-202464062D01*
X157623662Y-202302336D01*
X157626440Y-202300732D01*
X157887518Y-202171983D01*
X157890482Y-202170755D01*
X158166142Y-202077181D01*
X158169241Y-202076350D01*
X158454735Y-202019563D01*
X158457916Y-202019144D01*
X158749198Y-202000052D01*
X158750801Y-202000000D01*
X160903046Y-202000000D01*
X160921633Y-202003662D01*
G37*
G36*
X408403185Y-113919870D02*
G01*
X408727089Y-113941100D01*
X408730270Y-113941519D01*
X409047853Y-114004689D01*
X409050952Y-114005520D01*
X409357571Y-114109603D01*
X409360535Y-114110831D01*
X409650942Y-114254043D01*
X409653720Y-114255647D01*
X409922951Y-114435542D01*
X409925496Y-114437495D01*
X410168941Y-114650990D01*
X410171210Y-114653259D01*
X410384705Y-114896704D01*
X410386658Y-114899249D01*
X410566553Y-115168480D01*
X410568157Y-115171258D01*
X410711369Y-115461665D01*
X410712597Y-115464629D01*
X410816680Y-115771248D01*
X410817511Y-115774347D01*
X410880681Y-116091930D01*
X410881100Y-116095111D01*
X410902331Y-116419016D01*
X410902383Y-116420619D01*
X410902383Y-132198620D01*
X410902370Y-132206614D01*
X410902332Y-132214609D01*
X410900239Y-132541873D01*
X410899211Y-132599319D01*
X410896863Y-132656725D01*
X410862189Y-133318333D01*
X410857909Y-133383640D01*
X410851920Y-133448813D01*
X410783504Y-134099743D01*
X410775811Y-134164738D01*
X410766420Y-134229510D01*
X410664030Y-134875968D01*
X410652946Y-134940470D01*
X410640178Y-135004660D01*
X410504096Y-135644873D01*
X410489652Y-135708707D01*
X410473541Y-135772141D01*
X410304140Y-136404355D01*
X410286374Y-136467346D01*
X410266966Y-136529850D01*
X410064709Y-137152331D01*
X410043671Y-137214307D01*
X410021018Y-137275711D01*
X409786459Y-137886754D01*
X409762207Y-137947541D01*
X409736373Y-138007673D01*
X409470156Y-138605603D01*
X409442755Y-138665040D01*
X409413808Y-138723739D01*
X409116664Y-139306916D01*
X409086190Y-139364837D01*
X409054210Y-139421941D01*
X408726951Y-139988768D01*
X408693488Y-140045013D01*
X408658565Y-140100363D01*
X408302090Y-140649286D01*
X408265728Y-140703706D01*
X408227953Y-140757155D01*
X407843237Y-141286668D01*
X407804079Y-141339107D01*
X407763562Y-141390503D01*
X407351659Y-141899159D01*
X407309809Y-141949478D01*
X407266656Y-141998685D01*
X406823316Y-142491063D01*
X406784415Y-142533282D01*
X406744555Y-142574596D01*
X406514632Y-142807497D01*
X406508974Y-142813209D01*
X406503298Y-142818903D01*
X406301521Y-143020680D01*
X406295788Y-143026431D01*
X406290076Y-143032198D01*
X406060172Y-143265108D01*
X406020366Y-143306371D01*
X405981517Y-143348535D01*
X405538130Y-143840969D01*
X405494977Y-143890176D01*
X405453126Y-143940495D01*
X405041229Y-144449150D01*
X405000711Y-144500546D01*
X404961552Y-144552986D01*
X404576839Y-145082500D01*
X404539066Y-145135947D01*
X404502705Y-145190365D01*
X404146232Y-145739288D01*
X404111309Y-145794639D01*
X404077846Y-145850885D01*
X403750589Y-146417712D01*
X403718610Y-146474814D01*
X403688137Y-146532736D01*
X403390995Y-147115911D01*
X403362048Y-147174611D01*
X403334647Y-147234048D01*
X403068433Y-147831977D01*
X403042599Y-147892109D01*
X403018348Y-147952895D01*
X402783791Y-148563939D01*
X402761138Y-148625342D01*
X402740100Y-148687317D01*
X402537845Y-149309796D01*
X402518438Y-149372299D01*
X402500673Y-149435291D01*
X402331273Y-150067503D01*
X402315162Y-150130938D01*
X402300718Y-150194774D01*
X402164638Y-150834986D01*
X402151871Y-150899174D01*
X402140787Y-150963674D01*
X402038399Y-151610131D01*
X402029008Y-151674903D01*
X402021315Y-151739899D01*
X401952901Y-152390826D01*
X401946912Y-152455999D01*
X401942632Y-152521307D01*
X401907950Y-153183096D01*
X401905608Y-153240318D01*
X401904577Y-153297579D01*
X401902436Y-153624845D01*
X401902396Y-153633021D01*
X401902383Y-153641197D01*
X401902383Y-156419016D01*
X401902331Y-156420619D01*
X401881100Y-156744524D01*
X401880681Y-156747705D01*
X401817511Y-157065288D01*
X401816680Y-157068387D01*
X401712597Y-157375006D01*
X401711369Y-157377970D01*
X401568157Y-157668377D01*
X401566553Y-157671155D01*
X401386658Y-157940386D01*
X401384705Y-157942931D01*
X401171210Y-158186376D01*
X401168941Y-158188645D01*
X400925496Y-158402140D01*
X400922951Y-158404093D01*
X400653720Y-158583988D01*
X400650942Y-158585592D01*
X400360535Y-158728804D01*
X400357571Y-158730032D01*
X400050952Y-158834115D01*
X400047853Y-158834946D01*
X399730270Y-158898116D01*
X399727089Y-158898535D01*
X399403185Y-158919766D01*
X399401582Y-158919818D01*
X390403184Y-158919818D01*
X390401581Y-158919766D01*
X390077676Y-158898535D01*
X390074495Y-158898116D01*
X389756912Y-158834946D01*
X389753813Y-158834115D01*
X389447194Y-158730032D01*
X389444230Y-158728804D01*
X389153823Y-158585592D01*
X389151045Y-158583988D01*
X388881814Y-158404093D01*
X388879269Y-158402140D01*
X388635824Y-158188645D01*
X388633555Y-158186376D01*
X388420060Y-157942931D01*
X388418107Y-157940386D01*
X388238212Y-157671155D01*
X388236608Y-157668377D01*
X388093396Y-157377970D01*
X388092168Y-157375006D01*
X387988085Y-157068387D01*
X387987254Y-157065288D01*
X387924084Y-156747705D01*
X387923665Y-156744524D01*
X387902435Y-156420619D01*
X387902383Y-156419016D01*
X387902383Y-152641265D01*
X387902397Y-152633021D01*
X387902437Y-152624780D01*
X387904596Y-152297514D01*
X387905627Y-152240319D01*
X387907967Y-152183164D01*
X387942653Y-151521310D01*
X387946933Y-151456001D01*
X387952922Y-151390828D01*
X388021336Y-150739900D01*
X388029029Y-150674906D01*
X388038420Y-150610136D01*
X388140807Y-149963681D01*
X388151891Y-149899177D01*
X388164659Y-149834986D01*
X388300739Y-149194775D01*
X388315183Y-149130942D01*
X388331293Y-149067509D01*
X388500693Y-148435297D01*
X388518458Y-148372306D01*
X388537866Y-148309802D01*
X388740120Y-147687323D01*
X388761157Y-147625348D01*
X388783810Y-147563946D01*
X389018366Y-146952905D01*
X389042618Y-146892116D01*
X389068453Y-146831983D01*
X389334666Y-146234056D01*
X389362068Y-146174619D01*
X389391014Y-146115920D01*
X389688156Y-145532743D01*
X389718629Y-145474824D01*
X389750608Y-145417722D01*
X390077864Y-144850895D01*
X390111327Y-144794649D01*
X390146250Y-144739298D01*
X390502722Y-144190378D01*
X390539083Y-144135958D01*
X390576857Y-144082510D01*
X390961569Y-143552998D01*
X391000728Y-143500558D01*
X391041246Y-143449161D01*
X391453144Y-142940507D01*
X391494994Y-142890189D01*
X391538146Y-142840982D01*
X391981580Y-142348498D01*
X392020382Y-142306383D01*
X392060140Y-142265168D01*
X392290032Y-142032245D01*
X392295794Y-142026426D01*
X392301571Y-142020630D01*
X392503266Y-141818934D01*
X392508976Y-141813207D01*
X392514665Y-141807460D01*
X392744582Y-141574550D01*
X392784406Y-141533271D01*
X392823272Y-141491089D01*
X393266645Y-140998675D01*
X393309799Y-140949467D01*
X393351650Y-140899147D01*
X393763551Y-140390492D01*
X393804068Y-140339097D01*
X393843226Y-140286658D01*
X394227942Y-139757145D01*
X394265716Y-139703697D01*
X394302077Y-139649278D01*
X394658552Y-139100357D01*
X394693476Y-139045005D01*
X394726940Y-138988758D01*
X395054198Y-138421931D01*
X395086177Y-138364829D01*
X395116650Y-138306910D01*
X395413795Y-137723732D01*
X395442741Y-137665033D01*
X395470143Y-137605596D01*
X395736359Y-137007668D01*
X395762194Y-136947535D01*
X395786447Y-136886746D01*
X396021005Y-136275704D01*
X396043657Y-136214301D01*
X396064695Y-136152327D01*
X396266952Y-135529846D01*
X396286360Y-135467342D01*
X396304126Y-135404350D01*
X396473528Y-134772137D01*
X396489638Y-134708703D01*
X396504082Y-134644868D01*
X396640164Y-134004658D01*
X396652932Y-133940467D01*
X396664016Y-133875963D01*
X396766405Y-133229506D01*
X396775796Y-133164736D01*
X396783489Y-133099742D01*
X396851905Y-132448812D01*
X396857894Y-132383639D01*
X396862174Y-132318331D01*
X396896851Y-131656678D01*
X396899197Y-131599318D01*
X396900225Y-131541920D01*
X396902331Y-131214656D01*
X396902370Y-131206614D01*
X396902383Y-131198573D01*
X396902383Y-116420619D01*
X396902435Y-116419016D01*
X396923665Y-116095111D01*
X396924084Y-116091930D01*
X396987254Y-115774347D01*
X396988085Y-115771248D01*
X397092168Y-115464629D01*
X397093396Y-115461665D01*
X397236608Y-115171258D01*
X397238212Y-115168480D01*
X397418107Y-114899249D01*
X397420060Y-114896704D01*
X397633555Y-114653259D01*
X397635824Y-114650990D01*
X397879269Y-114437495D01*
X397881814Y-114435542D01*
X398151045Y-114255647D01*
X398153823Y-114254043D01*
X398444230Y-114110831D01*
X398447194Y-114109603D01*
X398753813Y-114005520D01*
X398756912Y-114004689D01*
X399074495Y-113941519D01*
X399077676Y-113941100D01*
X399401581Y-113919870D01*
X399403184Y-113919818D01*
X408401582Y-113919818D01*
X408403185Y-113919870D01*
G37*
G36*
X303502018Y-114011451D02*
G01*
X303822261Y-114032440D01*
X303830311Y-114033500D01*
X304143056Y-114095709D01*
X304150897Y-114097810D01*
X304452856Y-114200310D01*
X304460357Y-114203417D01*
X304746351Y-114344454D01*
X304753382Y-114348514D01*
X305018521Y-114525674D01*
X305024962Y-114530616D01*
X305264708Y-114740868D01*
X305270449Y-114746609D01*
X305480701Y-114986355D01*
X305485643Y-114992796D01*
X305662803Y-115257935D01*
X305666863Y-115264966D01*
X305807900Y-115550960D01*
X305811007Y-115558461D01*
X305913507Y-115860420D01*
X305915608Y-115868261D01*
X305977817Y-116181006D01*
X305978877Y-116189055D01*
X305999867Y-116509299D01*
X306000000Y-116513355D01*
X306000000Y-156497962D01*
X305999867Y-156502018D01*
X305978877Y-156822262D01*
X305977817Y-156830311D01*
X305915608Y-157143056D01*
X305913507Y-157150897D01*
X305811007Y-157452856D01*
X305807900Y-157460357D01*
X305666863Y-157746351D01*
X305662803Y-157753382D01*
X305485643Y-158018521D01*
X305480701Y-158024962D01*
X305270449Y-158264708D01*
X305264708Y-158270449D01*
X305024962Y-158480701D01*
X305018521Y-158485643D01*
X304753382Y-158662803D01*
X304746351Y-158666863D01*
X304460357Y-158807900D01*
X304452856Y-158811007D01*
X304150897Y-158913507D01*
X304143056Y-158915608D01*
X303830311Y-158977817D01*
X303822262Y-158978877D01*
X303502018Y-158999867D01*
X303497962Y-159000000D01*
X294502038Y-159000000D01*
X294497982Y-158999867D01*
X294177737Y-158978877D01*
X294169688Y-158977817D01*
X293856943Y-158915608D01*
X293849102Y-158913507D01*
X293547143Y-158811007D01*
X293539642Y-158807900D01*
X293253648Y-158666863D01*
X293246617Y-158662803D01*
X292981478Y-158485643D01*
X292975037Y-158480701D01*
X292735291Y-158270449D01*
X292729550Y-158264708D01*
X292519298Y-158024962D01*
X292514356Y-158018521D01*
X292337196Y-157753382D01*
X292333136Y-157746351D01*
X292192099Y-157460357D01*
X292188992Y-157452856D01*
X292086492Y-157150897D01*
X292084391Y-157143056D01*
X292022182Y-156830311D01*
X292021122Y-156822261D01*
X292000133Y-156502018D01*
X292000000Y-156497962D01*
X292000000Y-116513355D01*
X292000133Y-116509299D01*
X292021122Y-116189056D01*
X292022182Y-116181006D01*
X292084391Y-115868261D01*
X292086492Y-115860420D01*
X292188992Y-115558461D01*
X292192099Y-115550960D01*
X292333136Y-115264966D01*
X292337196Y-115257935D01*
X292514356Y-114992796D01*
X292519298Y-114986355D01*
X292729550Y-114746609D01*
X292735291Y-114740868D01*
X292975037Y-114530616D01*
X292981478Y-114525674D01*
X293246617Y-114348514D01*
X293253648Y-114344454D01*
X293539642Y-114203417D01*
X293547143Y-114200310D01*
X293849102Y-114097810D01*
X293856943Y-114095709D01*
X294169688Y-114033500D01*
X294177738Y-114032440D01*
X294497982Y-114011451D01*
X294502038Y-114011318D01*
X303497962Y-114011318D01*
X303502018Y-114011451D01*
G37*
%LPD*%
M02*
