%TF.GenerationSoftware,KiCad,Pcbnew,7.0.9*%
%TF.CreationDate,2025-04-01T10:19:45-06:00*%
%TF.ProjectId,2023-24_Power_Supply,32303233-2d32-4345-9f50-6f7765725f53,rev?*%
%TF.SameCoordinates,Original*%
%TF.FileFunction,Soldermask,Top*%
%TF.FilePolarity,Negative*%
%FSLAX46Y46*%
G04 Gerber Fmt 4.6, Leading zero omitted, Abs format (unit mm)*
G04 Created by KiCad (PCBNEW 7.0.9) date 2025-04-01 10:19:45*
%MOMM*%
%LPD*%
G01*
G04 APERTURE LIST*
G04 Aperture macros list*
%AMRoundRect*
0 Rectangle with rounded corners*
0 $1 Rounding radius*
0 $2 $3 $4 $5 $6 $7 $8 $9 X,Y pos of 4 corners*
0 Add a 4 corners polygon primitive as box body*
4,1,4,$2,$3,$4,$5,$6,$7,$8,$9,$2,$3,0*
0 Add four circle primitives for the rounded corners*
1,1,$1+$1,$2,$3*
1,1,$1+$1,$4,$5*
1,1,$1+$1,$6,$7*
1,1,$1+$1,$8,$9*
0 Add four rect primitives between the rounded corners*
20,1,$1+$1,$2,$3,$4,$5,0*
20,1,$1+$1,$4,$5,$6,$7,0*
20,1,$1+$1,$6,$7,$8,$9,0*
20,1,$1+$1,$8,$9,$2,$3,0*%
G04 Aperture macros list end*
%ADD10C,2.075000*%
%ADD11C,3.575000*%
%ADD12C,0.200000*%
%ADD13RoundRect,0.140000X0.170000X-0.140000X0.170000X0.140000X-0.170000X0.140000X-0.170000X-0.140000X0*%
%ADD14RoundRect,0.250000X-1.425000X0.362500X-1.425000X-0.362500X1.425000X-0.362500X1.425000X0.362500X0*%
%ADD15RoundRect,0.200000X-0.200000X-0.275000X0.200000X-0.275000X0.200000X0.275000X-0.200000X0.275000X0*%
%ADD16RoundRect,0.200000X0.200000X0.275000X-0.200000X0.275000X-0.200000X-0.275000X0.200000X-0.275000X0*%
%ADD17RoundRect,0.250000X0.362500X1.425000X-0.362500X1.425000X-0.362500X-1.425000X0.362500X-1.425000X0*%
%ADD18C,3.200000*%
%ADD19RoundRect,0.200000X0.275000X-0.200000X0.275000X0.200000X-0.275000X0.200000X-0.275000X-0.200000X0*%
%ADD20RoundRect,0.250000X1.000000X-1.500000X1.000000X1.500000X-1.000000X1.500000X-1.000000X-1.500000X0*%
%ADD21RoundRect,0.050000X0.125000X-0.387500X0.125000X0.387500X-0.125000X0.387500X-0.125000X-0.387500X0*%
%ADD22RoundRect,0.050000X0.125000X-0.900000X0.125000X0.900000X-0.125000X0.900000X-0.125000X-0.900000X0*%
%ADD23RoundRect,0.050000X0.125000X-0.812500X0.125000X0.812500X-0.125000X0.812500X-0.125000X-0.812500X0*%
%ADD24RoundRect,0.200000X-0.275000X0.200000X-0.275000X-0.200000X0.275000X-0.200000X0.275000X0.200000X0*%
%ADD25R,2.510000X1.000000*%
%ADD26RoundRect,0.250000X1.500000X1.000000X-1.500000X1.000000X-1.500000X-1.000000X1.500000X-1.000000X0*%
%ADD27RoundRect,0.102000X0.975000X-0.975000X0.975000X0.975000X-0.975000X0.975000X-0.975000X-0.975000X0*%
%ADD28C,2.154000*%
%ADD29RoundRect,0.250000X-1.400000X-1.000000X1.400000X-1.000000X1.400000X1.000000X-1.400000X1.000000X0*%
%ADD30R,0.450000X1.500000*%
%ADD31R,5.500000X3.000000*%
%ADD32RoundRect,0.225000X0.225000X0.250000X-0.225000X0.250000X-0.225000X-0.250000X0.225000X-0.250000X0*%
%ADD33R,2.400000X2.400000*%
%ADD34C,2.400000*%
%ADD35O,6.500000X3.500000*%
%ADD36RoundRect,1.525000X1.525000X-2.375000X1.525000X2.375000X-1.525000X2.375000X-1.525000X-2.375000X0*%
%ADD37RoundRect,0.050000X0.387500X0.125000X-0.387500X0.125000X-0.387500X-0.125000X0.387500X-0.125000X0*%
%ADD38RoundRect,0.050000X0.900000X0.125000X-0.900000X0.125000X-0.900000X-0.125000X0.900000X-0.125000X0*%
%ADD39RoundRect,0.050000X0.812500X0.125000X-0.812500X0.125000X-0.812500X-0.125000X0.812500X-0.125000X0*%
%ADD40RoundRect,0.225000X0.375000X-0.225000X0.375000X0.225000X-0.375000X0.225000X-0.375000X-0.225000X0*%
%ADD41R,1.700000X1.700000*%
%ADD42O,1.700000X1.700000*%
%ADD43RoundRect,0.249999X-4.550001X4.150001X-4.550001X-4.150001X4.550001X-4.150001X4.550001X4.150001X0*%
%ADD44RoundRect,0.225000X-0.250000X0.225000X-0.250000X-0.225000X0.250000X-0.225000X0.250000X0.225000X0*%
%ADD45R,1.100000X0.250000*%
%ADD46RoundRect,0.249999X-4.150001X-4.550001X4.150001X-4.550001X4.150001X4.550001X-4.150001X4.550001X0*%
%ADD47R,1.500000X0.450000*%
%ADD48R,3.000000X5.500000*%
%ADD49RoundRect,0.150000X0.512500X0.150000X-0.512500X0.150000X-0.512500X-0.150000X0.512500X-0.150000X0*%
%ADD50RoundRect,0.250000X1.000000X-1.400000X1.000000X1.400000X-1.000000X1.400000X-1.000000X-1.400000X0*%
%ADD51RoundRect,0.140000X0.140000X0.170000X-0.140000X0.170000X-0.140000X-0.170000X0.140000X-0.170000X0*%
%ADD52RoundRect,0.140000X-0.140000X-0.170000X0.140000X-0.170000X0.140000X0.170000X-0.140000X0.170000X0*%
%ADD53R,1.000000X2.510000*%
%ADD54RoundRect,0.140000X-0.170000X0.140000X-0.170000X-0.140000X0.170000X-0.140000X0.170000X0.140000X0*%
%ADD55RoundRect,0.050000X-0.387500X-0.125000X0.387500X-0.125000X0.387500X0.125000X-0.387500X0.125000X0*%
%ADD56RoundRect,0.050000X-0.900000X-0.125000X0.900000X-0.125000X0.900000X0.125000X-0.900000X0.125000X0*%
%ADD57RoundRect,0.050000X-0.812500X-0.125000X0.812500X-0.125000X0.812500X0.125000X-0.812500X0.125000X0*%
%ADD58R,2.600000X2.600000*%
%ADD59C,2.600000*%
%ADD60R,1.600000X1.500000*%
%ADD61R,1.500000X1.600000*%
%ADD62R,1.200000X1.600000*%
%ADD63R,1.600000X1.200000*%
%ADD64R,2.000000X2.000000*%
%ADD65C,2.000000*%
%ADD66RoundRect,0.250000X-0.362500X-1.425000X0.362500X-1.425000X0.362500X1.425000X-0.362500X1.425000X0*%
%ADD67RoundRect,0.225000X-0.375000X0.225000X-0.375000X-0.225000X0.375000X-0.225000X0.375000X0.225000X0*%
G04 APERTURE END LIST*
D10*
X223037500Y-168000000D02*
G75*
G03*
X223037500Y-168000000I-1037500J0D01*
G01*
X192037500Y-184000000D02*
G75*
G03*
X192037500Y-184000000I-1037500J0D01*
G01*
D11*
X462287500Y-315500000D02*
G75*
G03*
X462287500Y-315500000I-1787500J0D01*
G01*
D10*
X399037500Y-168000000D02*
G75*
G03*
X399037500Y-168000000I-1037500J0D01*
G01*
D11*
X412287500Y-250500000D02*
G75*
G03*
X412287500Y-250500000I-1787500J0D01*
G01*
D10*
X368037500Y-168000000D02*
G75*
G03*
X368037500Y-168000000I-1037500J0D01*
G01*
D11*
X412287500Y-325500000D02*
G75*
G03*
X412287500Y-325500000I-1787500J0D01*
G01*
D10*
X280037500Y-168000000D02*
G75*
G03*
X280037500Y-168000000I-1037500J0D01*
G01*
X311037500Y-168000000D02*
G75*
G03*
X311037500Y-168000000I-1037500J0D01*
G01*
D11*
X462287500Y-250500000D02*
G75*
G03*
X462287500Y-250500000I-1787500J0D01*
G01*
D10*
X399037500Y-184000000D02*
G75*
G03*
X399037500Y-184000000I-1037500J0D01*
G01*
X223037500Y-184000000D02*
G75*
G03*
X223037500Y-184000000I-1037500J0D01*
G01*
X280037500Y-184000000D02*
G75*
G03*
X280037500Y-184000000I-1037500J0D01*
G01*
X311037500Y-184000000D02*
G75*
G03*
X311037500Y-184000000I-1037500J0D01*
G01*
X192037500Y-168000000D02*
G75*
G03*
X192037500Y-168000000I-1037500J0D01*
G01*
X368037500Y-184000000D02*
G75*
G03*
X368037500Y-184000000I-1037500J0D01*
G01*
D12*
G36*
X417621424Y-301340108D02*
G01*
X417350314Y-301882327D01*
X416822750Y-302152215D01*
X416144976Y-302321964D01*
X416589498Y-302472173D01*
X416867935Y-302745725D01*
X417129275Y-303274511D01*
X417129275Y-304053646D01*
X416870377Y-304831559D01*
X416598046Y-305112438D01*
X416072924Y-305375000D01*
X415518493Y-305375000D01*
X415214411Y-305069696D01*
X415214411Y-304529919D01*
X415475751Y-303728803D01*
X415662596Y-303800854D01*
X415404920Y-304555565D01*
X415404920Y-304997644D01*
X415591766Y-305183269D01*
X416009421Y-305183269D01*
X416458828Y-304737526D01*
X416690859Y-304035327D01*
X416690859Y-303333129D01*
X416461270Y-302876395D01*
X416236567Y-302650471D01*
X415778612Y-302420882D01*
X415382938Y-302420882D01*
X415157014Y-303334351D01*
X414905444Y-304082955D01*
X414652652Y-304599528D01*
X414126309Y-305116102D01*
X413359386Y-305375000D01*
X412812282Y-305375000D01*
X412506979Y-305068475D01*
X412506979Y-304498168D01*
X412848919Y-304155006D01*
X413226274Y-304537247D01*
X412890440Y-304884071D01*
X412747558Y-304739968D01*
X412961270Y-304536025D01*
X412848919Y-304420010D01*
X412695046Y-304573883D01*
X412695046Y-304995202D01*
X412885555Y-305183269D01*
X413317865Y-305183269D01*
X413769714Y-304959787D01*
X414239882Y-304241713D01*
X414485346Y-303755669D01*
X414968947Y-302270673D01*
X415472087Y-301031140D01*
X415722436Y-300513346D01*
X416005758Y-300228803D01*
X416147418Y-300366800D01*
X415884857Y-300622034D01*
X415651605Y-301341329D01*
X415430566Y-302210833D01*
X415790824Y-302210833D01*
X416737265Y-301972697D01*
X416952199Y-301752878D01*
X417185451Y-301293702D01*
X417185451Y-300843073D01*
X416952199Y-300382676D01*
X416748256Y-300173848D01*
X415324320Y-300173848D01*
X414608688Y-300410764D01*
X414136079Y-300653785D01*
X413667132Y-301126395D01*
X413433880Y-301589235D01*
X413433880Y-302023988D01*
X413623169Y-302210833D01*
X414040824Y-302210833D01*
X414242324Y-302002006D01*
X414506106Y-301479326D01*
X414672192Y-301578244D01*
X414405967Y-302118021D01*
X414115318Y-302403785D01*
X413551117Y-302403785D01*
X413245813Y-302096039D01*
X413245813Y-301540387D01*
X413503490Y-301010380D01*
X414021284Y-300490143D01*
X414534194Y-300239794D01*
X415295011Y-299982117D01*
X416811759Y-299982117D01*
X417350314Y-300254448D01*
X417621424Y-300795446D01*
X417621424Y-301340108D01*
G37*
G36*
X419885555Y-302064288D02*
G01*
X419508200Y-302441643D01*
X419129624Y-302064288D01*
X419508200Y-301685711D01*
X419885555Y-302064288D01*
G37*
G36*
X420350838Y-304052424D02*
G01*
X419826937Y-304835223D01*
X419565597Y-305103890D01*
X418997732Y-305379884D01*
X418427425Y-305081908D01*
X418427425Y-304520150D01*
X418930566Y-302992411D01*
X419212666Y-302992411D01*
X419364097Y-303054692D01*
X418863399Y-304545795D01*
X418863399Y-304986653D01*
X419038033Y-305151517D01*
X419449582Y-304943911D01*
X419680391Y-304717986D01*
X420182310Y-303959612D01*
X420350838Y-304052424D01*
G37*
G36*
X422352408Y-300117672D02*
G01*
X421725925Y-301988572D01*
X422287684Y-301988572D01*
X422287684Y-302179082D01*
X421658758Y-302179082D01*
X420866190Y-304554344D01*
X420866190Y-304993981D01*
X421040824Y-305158845D01*
X421449931Y-304959787D01*
X422202199Y-303957170D01*
X422343859Y-304076849D01*
X421570831Y-305102669D01*
X421016400Y-305379884D01*
X420430217Y-305089235D01*
X420430217Y-304528698D01*
X420961445Y-303058356D01*
X420853978Y-303358775D01*
X420341068Y-304128140D01*
X420176204Y-304034106D01*
X420686672Y-303264741D01*
X421178821Y-302293876D01*
X421216679Y-302179082D01*
X420733078Y-302179082D01*
X420733078Y-301988572D01*
X421276518Y-301988572D01*
X421918877Y-300060275D01*
X422197314Y-300060275D01*
X422352408Y-300117672D01*
G37*
G36*
X425341940Y-304053646D02*
G01*
X424811933Y-304855983D01*
X424030356Y-305375000D01*
X423242673Y-305375000D01*
X422700454Y-305102669D01*
X422433008Y-304559228D01*
X422433008Y-304017009D01*
X422691906Y-303487002D01*
X422960573Y-303215893D01*
X423489358Y-302952110D01*
X423797104Y-302952110D01*
X424102408Y-303258635D01*
X424102408Y-303815509D01*
X423839847Y-304345516D01*
X423571180Y-304616625D01*
X423035067Y-304885293D01*
X422936148Y-304717986D01*
X423455164Y-304452983D01*
X423677425Y-304230722D01*
X423910677Y-303766660D01*
X423910677Y-303331908D01*
X423720168Y-303143841D01*
X423549198Y-303143841D01*
X423102233Y-303601796D01*
X422868982Y-304062194D01*
X422868982Y-304746074D01*
X423302513Y-305183269D01*
X423979065Y-305183269D01*
X424673936Y-304713101D01*
X425173413Y-303959612D01*
X425341940Y-304053646D01*
G37*
G36*
X434287335Y-304048761D02*
G01*
X433759770Y-304834002D01*
X433502094Y-305102669D01*
X432931787Y-305382327D01*
X432893929Y-305351796D01*
X432361480Y-305081908D01*
X432361480Y-304520150D01*
X432609386Y-303777651D01*
X432609386Y-303336793D01*
X432418877Y-303149947D01*
X432235695Y-303149947D01*
X431777739Y-303383199D01*
X431311236Y-303842376D01*
X430817865Y-305329815D01*
X430538207Y-305329815D01*
X430383113Y-305269975D01*
X430885032Y-303777651D01*
X430885032Y-303336793D01*
X430698186Y-303149947D01*
X430511340Y-303149947D01*
X430053385Y-303383199D01*
X429586881Y-303842376D01*
X429093511Y-305329815D01*
X428813852Y-305329815D01*
X428659979Y-305269975D01*
X429160677Y-303777651D01*
X429160677Y-303338014D01*
X428989707Y-303173150D01*
X428580601Y-303372208D01*
X428088451Y-304118370D01*
X427923587Y-304024337D01*
X428458479Y-303228105D01*
X429010468Y-302947226D01*
X429599093Y-303234211D01*
X429599093Y-303559054D01*
X429938591Y-303213450D01*
X430463713Y-302952110D01*
X430758026Y-302952110D01*
X431323448Y-303234211D01*
X431323448Y-303557833D01*
X431659282Y-303213450D01*
X432189289Y-302952110D01*
X432482380Y-302952110D01*
X433044139Y-303235432D01*
X433044139Y-303803297D01*
X432799896Y-304543353D01*
X432799896Y-304985432D01*
X432970866Y-305150296D01*
X433383636Y-304942690D01*
X433616888Y-304714323D01*
X434120028Y-303955949D01*
X434287335Y-304048761D01*
G37*
G36*
X435283845Y-303091329D02*
G01*
X434783148Y-304565334D01*
X434783148Y-305000087D01*
X434972436Y-305184490D01*
X435156839Y-305184490D01*
X435613573Y-304958565D01*
X436094732Y-304489619D01*
X436573448Y-303775209D01*
X436817691Y-303030268D01*
X437101012Y-303030268D01*
X437254885Y-303090108D01*
X436751745Y-304598307D01*
X436409805Y-305437281D01*
X436856769Y-305213799D01*
X437573622Y-304737526D01*
X438073099Y-303992585D01*
X438241626Y-304085397D01*
X437711619Y-304879187D01*
X436950803Y-305381106D01*
X436302338Y-305699842D01*
X435757677Y-307049284D01*
X435250873Y-308061671D01*
X434667132Y-308353541D01*
X434347174Y-308026256D01*
X434347174Y-307946877D01*
X434535241Y-307946877D01*
X434709875Y-308111741D01*
X435107991Y-307915125D01*
X435586707Y-306720778D01*
X435851710Y-305908670D01*
X435485346Y-306095516D01*
X434770936Y-306802599D01*
X434535241Y-307506018D01*
X434535241Y-307946877D01*
X434347174Y-307946877D01*
X434347174Y-307484036D01*
X434603629Y-306708565D01*
X435369330Y-305934316D01*
X435872471Y-305687630D01*
X435933531Y-305650994D01*
X436474529Y-304181873D01*
X436237614Y-304600750D01*
X435732031Y-305113660D01*
X435202024Y-305375000D01*
X434902827Y-305375000D01*
X434880845Y-305364009D01*
X434347174Y-305095341D01*
X434347174Y-304539689D01*
X434850314Y-303030268D01*
X435132415Y-303030268D01*
X435283845Y-303091329D01*
G37*
G36*
X444715283Y-304070743D02*
G01*
X444185276Y-304863311D01*
X443403699Y-305375000D01*
X442125088Y-305375000D01*
X441574320Y-305101448D01*
X441668354Y-304936584D01*
X442170273Y-305184490D01*
X442602582Y-305184490D01*
X443036113Y-304754623D01*
X443036113Y-304327198D01*
X442802862Y-303874127D01*
X442298500Y-303368545D01*
X442298500Y-303236653D01*
X442230112Y-303372208D01*
X441717202Y-304136688D01*
X441552338Y-304045097D01*
X442062806Y-303279396D01*
X442489009Y-302436758D01*
X442489009Y-303278175D01*
X443205862Y-303752006D01*
X443475751Y-304280792D01*
X443475751Y-304826674D01*
X443191208Y-305116102D01*
X443050768Y-305184490D01*
X443352408Y-305184490D01*
X444047279Y-304721650D01*
X444546755Y-303980373D01*
X444715283Y-304070743D01*
G37*
G36*
X448433880Y-304051203D02*
G01*
X447909979Y-304838886D01*
X447648640Y-305108775D01*
X447095430Y-305379884D01*
X446506804Y-305089235D01*
X446506804Y-304528698D01*
X446754711Y-303788642D01*
X446754711Y-303347784D01*
X446567865Y-303162159D01*
X446381019Y-303162159D01*
X445924285Y-303395411D01*
X445457781Y-303853367D01*
X444963190Y-305337142D01*
X444684753Y-305337142D01*
X444533322Y-305276081D01*
X445317342Y-303058356D01*
X445209875Y-303358775D01*
X444696965Y-304128140D01*
X444532101Y-304034106D01*
X445042568Y-303264741D01*
X445534718Y-302293876D01*
X446274774Y-300060275D01*
X446553210Y-300060275D01*
X446708305Y-300115230D01*
X445589672Y-303430826D01*
X445808270Y-303213450D01*
X446335834Y-302952110D01*
X446635032Y-302952110D01*
X446657014Y-302964323D01*
X447193127Y-303236653D01*
X447193127Y-303805739D01*
X446946441Y-304548237D01*
X446946441Y-304991538D01*
X447117411Y-305157623D01*
X447530182Y-304948796D01*
X447762213Y-304720429D01*
X448265353Y-303958391D01*
X448433880Y-304051203D01*
G37*
G36*
X449961619Y-302064288D02*
G01*
X449584264Y-302441643D01*
X449205688Y-302064288D01*
X449584264Y-301685711D01*
X449961619Y-302064288D01*
G37*
G36*
X450426902Y-304052424D02*
G01*
X449903001Y-304835223D01*
X449641661Y-305103890D01*
X449073797Y-305379884D01*
X448503490Y-305081908D01*
X448503490Y-304520150D01*
X449006630Y-302992411D01*
X449288730Y-302992411D01*
X449440161Y-303054692D01*
X448939463Y-304545795D01*
X448939463Y-304986653D01*
X449114097Y-305151517D01*
X449525646Y-304943911D01*
X449756455Y-304717986D01*
X450258374Y-303959612D01*
X450426902Y-304052424D01*
G37*
G36*
X454891661Y-304048761D02*
G01*
X454367760Y-304834002D01*
X454106421Y-305102669D01*
X453548326Y-305379884D01*
X452965806Y-305081908D01*
X452965806Y-304520150D01*
X453213713Y-303777651D01*
X453213713Y-303336793D01*
X453026867Y-303149947D01*
X452840021Y-303149947D01*
X452382066Y-303383199D01*
X451915562Y-303842376D01*
X451422192Y-305329815D01*
X451142534Y-305329815D01*
X450988661Y-305269975D01*
X451489358Y-303777651D01*
X451489358Y-303338014D01*
X451318388Y-303173150D01*
X450909282Y-303372208D01*
X450417132Y-304118370D01*
X450252268Y-304024337D01*
X450787160Y-303228105D01*
X451339149Y-302947226D01*
X451927774Y-303234211D01*
X451927774Y-303559054D01*
X452267272Y-303213450D01*
X452792394Y-302952110D01*
X453086707Y-302952110D01*
X453652129Y-303235432D01*
X453652129Y-303803297D01*
X453404222Y-304551901D01*
X453378577Y-304985432D01*
X453567865Y-305151517D01*
X453987963Y-304942690D01*
X454221215Y-304714323D01*
X454724355Y-303955949D01*
X454891661Y-304048761D01*
G37*
G36*
X455893057Y-303091329D02*
G01*
X455392359Y-304565334D01*
X455392359Y-305000087D01*
X455581647Y-305184490D01*
X455766051Y-305184490D01*
X456222785Y-304958565D01*
X456703943Y-304489619D01*
X457182659Y-303775209D01*
X457426902Y-303030268D01*
X457710224Y-303030268D01*
X457864097Y-303090108D01*
X457360956Y-304598307D01*
X457019016Y-305437281D01*
X457465981Y-305213799D01*
X458182834Y-304737526D01*
X458682310Y-303992585D01*
X458850838Y-304085397D01*
X458320831Y-304879187D01*
X457560014Y-305381106D01*
X456911550Y-305699842D01*
X456366888Y-307049284D01*
X455860084Y-308061671D01*
X455276344Y-308353541D01*
X454956386Y-308026256D01*
X454956386Y-307946877D01*
X455144453Y-307946877D01*
X455319086Y-308111741D01*
X455717202Y-307915125D01*
X456195918Y-306720778D01*
X456460922Y-305908670D01*
X456094557Y-306095516D01*
X455380147Y-306802599D01*
X455144453Y-307506018D01*
X455144453Y-307946877D01*
X454956386Y-307946877D01*
X454956386Y-307484036D01*
X455212841Y-306708565D01*
X455978542Y-305934316D01*
X456481682Y-305687630D01*
X456542743Y-305650994D01*
X457083741Y-304181873D01*
X456846825Y-304600750D01*
X456341243Y-305113660D01*
X455811236Y-305375000D01*
X455512038Y-305375000D01*
X455490056Y-305364009D01*
X454956386Y-305095341D01*
X454956386Y-304539689D01*
X455459526Y-303030268D01*
X455741626Y-303030268D01*
X455893057Y-303091329D01*
G37*
G36*
X425553210Y-312448761D02*
G01*
X425025645Y-313234002D01*
X424767969Y-313502669D01*
X424197662Y-313782327D01*
X424159804Y-313751796D01*
X423627355Y-313481908D01*
X423627355Y-312920150D01*
X423875261Y-312177651D01*
X423875261Y-311736793D01*
X423684752Y-311549947D01*
X423501570Y-311549947D01*
X423043614Y-311783199D01*
X422577111Y-312242376D01*
X422083740Y-313729815D01*
X421804082Y-313729815D01*
X421648988Y-313669975D01*
X422150907Y-312177651D01*
X422150907Y-311736793D01*
X421964061Y-311549947D01*
X421777215Y-311549947D01*
X421319260Y-311783199D01*
X420852756Y-312242376D01*
X420359385Y-313729815D01*
X420079727Y-313729815D01*
X419925854Y-313669975D01*
X420426552Y-312177651D01*
X420426552Y-311738014D01*
X420255582Y-311573150D01*
X419846475Y-311772208D01*
X419354326Y-312518370D01*
X419189462Y-312424337D01*
X419724354Y-311628105D01*
X420276343Y-311347226D01*
X420864968Y-311634211D01*
X420864968Y-311959054D01*
X421204466Y-311613450D01*
X421729588Y-311352110D01*
X422023900Y-311352110D01*
X422589323Y-311634211D01*
X422589323Y-311957833D01*
X422925157Y-311613450D01*
X423455164Y-311352110D01*
X423748255Y-311352110D01*
X424310014Y-311635432D01*
X424310014Y-312203297D01*
X424065771Y-312943353D01*
X424065771Y-313385432D01*
X424236741Y-313550296D01*
X424649511Y-313342690D01*
X424882763Y-313114323D01*
X425385903Y-312355949D01*
X425553210Y-312448761D01*
G37*
G36*
X428521981Y-312453646D02*
G01*
X427991974Y-313255983D01*
X427210397Y-313775000D01*
X426422714Y-313775000D01*
X425880495Y-313502669D01*
X425613049Y-312959228D01*
X425613049Y-312417009D01*
X425871947Y-311887002D01*
X426140614Y-311615893D01*
X426669399Y-311352110D01*
X426977145Y-311352110D01*
X427282449Y-311658635D01*
X427282449Y-312215509D01*
X427019888Y-312745516D01*
X426751221Y-313016625D01*
X426215108Y-313285293D01*
X426116189Y-313117986D01*
X426635205Y-312852983D01*
X426857466Y-312630722D01*
X427090718Y-312166660D01*
X427090718Y-311731908D01*
X426900209Y-311543841D01*
X426729239Y-311543841D01*
X426282274Y-312001796D01*
X426049023Y-312462194D01*
X426049023Y-313146074D01*
X426482554Y-313583269D01*
X427159106Y-313583269D01*
X427853977Y-313113101D01*
X428353454Y-312359612D01*
X428521981Y-312453646D01*
G37*
G36*
X429782274Y-308517672D02*
G01*
X429155792Y-310388572D01*
X429717550Y-310388572D01*
X429717550Y-310579082D01*
X429088625Y-310579082D01*
X428296057Y-312954344D01*
X428296057Y-313393981D01*
X428470690Y-313558845D01*
X428879797Y-313359787D01*
X429632065Y-312357170D01*
X429773726Y-312476849D01*
X429000697Y-313502669D01*
X428446266Y-313779884D01*
X427860083Y-313489235D01*
X427860083Y-312928698D01*
X428391311Y-311458356D01*
X428283845Y-311758775D01*
X427770935Y-312528140D01*
X427606071Y-312434106D01*
X428116538Y-311664741D01*
X428608688Y-310693876D01*
X428646545Y-310579082D01*
X428162944Y-310579082D01*
X428162944Y-310388572D01*
X428706385Y-310388572D01*
X429348743Y-308460275D01*
X429627180Y-308460275D01*
X429782274Y-308517672D01*
G37*
G36*
X432000000Y-311623220D02*
G01*
X432157536Y-311938293D01*
X432333391Y-311386304D01*
X432616713Y-311386304D01*
X432770586Y-311448586D01*
X432269888Y-312943353D01*
X432269888Y-313385432D01*
X432440858Y-313550296D01*
X432853628Y-313342690D01*
X433086880Y-313114323D01*
X433588799Y-312355949D01*
X433757327Y-312448761D01*
X433229762Y-313234002D01*
X432968422Y-313502669D01*
X432409106Y-313778663D01*
X432370027Y-313764009D01*
X431831472Y-313492899D01*
X431831472Y-313345132D01*
X431752093Y-313503890D01*
X431213538Y-313775000D01*
X430665212Y-313775000D01*
X430643231Y-313762787D01*
X430130321Y-313502669D01*
X429956632Y-313149738D01*
X430298848Y-313149738D01*
X430732379Y-313583269D01*
X431164689Y-313583269D01*
X431611653Y-313363450D01*
X431841242Y-312904274D01*
X432069609Y-312213066D01*
X431854675Y-311779535D01*
X431411374Y-311559717D01*
X430979064Y-311559717D01*
X430532100Y-312014009D01*
X430298848Y-312471964D01*
X430298848Y-313149738D01*
X429956632Y-313149738D01*
X429862875Y-312959228D01*
X429862875Y-312417009D01*
X430121772Y-311887002D01*
X430390439Y-311615893D01*
X430913119Y-311352110D01*
X431457780Y-311352110D01*
X432000000Y-311623220D01*
G37*
G36*
X435746685Y-308517672D02*
G01*
X434260467Y-312954344D01*
X434260467Y-313393981D01*
X434435101Y-313558845D01*
X434844208Y-313359787D01*
X435596475Y-312357170D01*
X435738136Y-312476849D01*
X434965108Y-313502669D01*
X434410676Y-313779884D01*
X433824494Y-313489235D01*
X433824494Y-312928698D01*
X434355722Y-311458356D01*
X434248255Y-311758775D01*
X433735345Y-312528140D01*
X433570481Y-312434106D01*
X434080949Y-311664741D01*
X434573098Y-310693876D01*
X435313154Y-308460275D01*
X435591591Y-308460275D01*
X435746685Y-308517672D01*
G37*
G36*
X441461967Y-311623220D02*
G01*
X441619504Y-311938293D01*
X441795359Y-311386304D01*
X442078681Y-311386304D01*
X442232554Y-311448586D01*
X441731856Y-312943353D01*
X441731856Y-313385432D01*
X441902826Y-313550296D01*
X442315596Y-313342690D01*
X442548848Y-313114323D01*
X443050767Y-312355949D01*
X443219295Y-312448761D01*
X442691730Y-313234002D01*
X442430390Y-313502669D01*
X441871074Y-313778663D01*
X441831995Y-313764009D01*
X441293440Y-313492899D01*
X441293440Y-313345132D01*
X441214061Y-313503890D01*
X440675505Y-313775000D01*
X440127180Y-313775000D01*
X440105198Y-313762787D01*
X439592288Y-313502669D01*
X439418599Y-313149738D01*
X439760816Y-313149738D01*
X440194347Y-313583269D01*
X440626657Y-313583269D01*
X441073621Y-313363450D01*
X441303210Y-312904274D01*
X441531577Y-312213066D01*
X441316643Y-311779535D01*
X440873342Y-311559717D01*
X440441032Y-311559717D01*
X439994068Y-312014009D01*
X439760816Y-312471964D01*
X439760816Y-313149738D01*
X439418599Y-313149738D01*
X439324843Y-312959228D01*
X439324843Y-312417009D01*
X439583740Y-311887002D01*
X439852407Y-311615893D01*
X440375087Y-311352110D01*
X440919748Y-311352110D01*
X441461967Y-311623220D01*
G37*
G36*
X446195394Y-312470743D02*
G01*
X445665387Y-313263311D01*
X444883810Y-313775000D01*
X443605198Y-313775000D01*
X443054431Y-313501448D01*
X443148464Y-313336584D01*
X443650383Y-313584490D01*
X444082693Y-313584490D01*
X444516224Y-313154623D01*
X444516224Y-312727198D01*
X444282972Y-312274127D01*
X443778611Y-311768545D01*
X443778611Y-311636653D01*
X443710223Y-311772208D01*
X443197313Y-312536688D01*
X443032449Y-312445097D01*
X443542917Y-311679396D01*
X443969120Y-310836758D01*
X443969120Y-311678175D01*
X444685973Y-312152006D01*
X444955861Y-312680792D01*
X444955861Y-313226674D01*
X444671318Y-313516102D01*
X444530879Y-313584490D01*
X444832519Y-313584490D01*
X445527390Y-313121650D01*
X446026866Y-312380373D01*
X446195394Y-312470743D01*
G37*
G36*
X449175157Y-312470743D02*
G01*
X448645150Y-313263311D01*
X447863572Y-313775000D01*
X446584961Y-313775000D01*
X446034194Y-313501448D01*
X446128227Y-313336584D01*
X446630146Y-313584490D01*
X447062456Y-313584490D01*
X447495987Y-313154623D01*
X447495987Y-312727198D01*
X447262735Y-312274127D01*
X446758374Y-311768545D01*
X446758374Y-311636653D01*
X446689986Y-311772208D01*
X446177076Y-312536688D01*
X446012212Y-312445097D01*
X446522679Y-311679396D01*
X446948883Y-310836758D01*
X446948883Y-311678175D01*
X447665736Y-312152006D01*
X447935624Y-312680792D01*
X447935624Y-313226674D01*
X447651081Y-313516102D01*
X447510642Y-313584490D01*
X447812281Y-313584490D01*
X448507152Y-313121650D01*
X449006629Y-312380373D01*
X449175157Y-312470743D01*
G37*
G36*
X451418527Y-308720394D02*
G01*
X450407362Y-311764881D01*
X450222958Y-311720917D01*
X450732205Y-308698412D01*
X451064375Y-308366242D01*
X451418527Y-308720394D01*
G37*
G36*
X450214410Y-313415963D02*
G01*
X449832170Y-313790875D01*
X449453593Y-313415963D01*
X449832170Y-313038607D01*
X450214410Y-313415963D01*
G37*
%TO.C,G\u002A\u002A\u002A*%
G36*
X436297132Y-274149239D02*
G01*
X436416925Y-274152089D01*
X436923045Y-274167653D01*
X436939081Y-274569769D01*
X436948827Y-274843064D01*
X436941366Y-275026296D01*
X436900424Y-275136796D01*
X436809727Y-275191898D01*
X436653000Y-275208934D01*
X436413969Y-275205235D01*
X436344282Y-275203236D01*
X435795349Y-275187949D01*
X435779897Y-274690319D01*
X435776116Y-274440627D01*
X435784673Y-274280749D01*
X435807442Y-274193608D01*
X435837625Y-274164606D01*
X435920979Y-274153898D01*
X436083517Y-274148573D01*
X436297132Y-274149239D01*
G37*
G36*
X430388455Y-273988377D02*
G01*
X430483320Y-273990904D01*
X430962368Y-274006554D01*
X430977656Y-274523376D01*
X430983336Y-274779238D01*
X430970356Y-274946514D01*
X430920884Y-275044015D01*
X430817087Y-275090552D01*
X430641130Y-275104936D01*
X430425370Y-275105933D01*
X430175614Y-275103824D01*
X430013221Y-275084823D01*
X429919400Y-275029920D01*
X429875355Y-274920105D01*
X429862293Y-274736369D01*
X429861523Y-274535603D01*
X429866274Y-274276227D01*
X429881776Y-274109894D01*
X429909903Y-274022616D01*
X429932897Y-274002644D01*
X430016191Y-273992028D01*
X430177724Y-273987066D01*
X430388455Y-273988377D01*
G37*
G36*
X433924174Y-292180150D02*
G01*
X434300275Y-292183724D01*
X434648361Y-292190146D01*
X434953390Y-292199440D01*
X435200320Y-292211632D01*
X435374108Y-292226747D01*
X436297688Y-292295057D01*
X436451125Y-292308405D01*
X436681396Y-292329943D01*
X436924234Y-292344851D01*
X437417570Y-292415879D01*
X437598768Y-292450000D01*
X437704730Y-292465707D01*
X437740000Y-292470731D01*
X438107731Y-292516620D01*
X438477577Y-292573840D01*
X438791994Y-292635461D01*
X439026274Y-292697142D01*
X439044186Y-292703092D01*
X439178436Y-292744409D01*
X439446935Y-292812194D01*
X439569516Y-292841644D01*
X439979294Y-292946825D01*
X440091332Y-292983416D01*
X440201499Y-293027943D01*
X440252432Y-293046208D01*
X440369950Y-293088350D01*
X440494081Y-293129918D01*
X440668664Y-293196745D01*
X440682030Y-293203629D01*
X441071354Y-293371429D01*
X441064515Y-293381402D01*
X440969243Y-293403216D01*
X440199992Y-293558854D01*
X439841621Y-293592394D01*
X439421087Y-293620000D01*
X439266203Y-293626914D01*
X437964123Y-293675997D01*
X437791650Y-293679149D01*
X437570724Y-293671684D01*
X437441380Y-293663209D01*
X437143506Y-293642024D01*
X436790912Y-293619543D01*
X436424450Y-293598152D01*
X436084973Y-293580242D01*
X435822199Y-293550000D01*
X435459971Y-293510000D01*
X435240691Y-293480000D01*
X434949578Y-293450000D01*
X434692682Y-293425828D01*
X434479736Y-293405667D01*
X434330845Y-293385207D01*
X434216084Y-293370000D01*
X434088739Y-293340000D01*
X433929282Y-293310000D01*
X433693088Y-293268034D01*
X433450803Y-293231130D01*
X433325159Y-293206984D01*
X433131777Y-293167681D01*
X432954099Y-293136119D01*
X432895561Y-293127460D01*
X432719816Y-293090633D01*
X432577526Y-293045740D01*
X432444559Y-293010738D01*
X432230113Y-292955214D01*
X432106543Y-292912051D01*
X431986453Y-292882816D01*
X431760855Y-292821617D01*
X431517138Y-292734528D01*
X431409180Y-292687858D01*
X431220448Y-292599270D01*
X431045547Y-292517521D01*
X430964541Y-292479864D01*
X430843189Y-292436420D01*
X430764885Y-292385812D01*
X430873135Y-292329667D01*
X430892431Y-292321347D01*
X431027867Y-292290000D01*
X431132983Y-292275564D01*
X431770632Y-292232754D01*
X431921645Y-292217098D01*
X431928965Y-292216682D01*
X432149941Y-292204114D01*
X432440477Y-292193827D01*
X432778210Y-292186262D01*
X433148100Y-292181444D01*
X433535102Y-292179398D01*
X433924174Y-292180150D01*
G37*
G36*
X432902938Y-271141909D02*
G01*
X433355146Y-271146489D01*
X433755557Y-271154794D01*
X434118061Y-271167048D01*
X434456550Y-271183478D01*
X434784916Y-271204310D01*
X434855603Y-271209390D01*
X435641188Y-271269759D01*
X436327973Y-271329050D01*
X436924526Y-271388701D01*
X437439418Y-271450144D01*
X437881218Y-271514815D01*
X438258496Y-271584148D01*
X438579821Y-271659577D01*
X438853763Y-271742539D01*
X438866036Y-271747337D01*
X439088891Y-271834466D01*
X439293774Y-271936794D01*
X439332187Y-271958817D01*
X439547603Y-272126310D01*
X439761623Y-272363548D01*
X439946259Y-272636220D01*
X440043414Y-272830713D01*
X440117881Y-273071499D01*
X440180285Y-273393958D01*
X440229240Y-273772897D01*
X440263361Y-274183122D01*
X440281260Y-274599439D01*
X440281550Y-274996655D01*
X440262846Y-275349575D01*
X440223760Y-275633006D01*
X440202440Y-275720139D01*
X440061433Y-276124840D01*
X439879614Y-276524407D01*
X439669493Y-276898564D01*
X439443578Y-277227031D01*
X439214379Y-277489530D01*
X439006907Y-277658139D01*
X438748838Y-277819239D01*
X432492812Y-277815480D01*
X431534816Y-277815204D01*
X430678067Y-277815318D01*
X429916417Y-277815415D01*
X429243715Y-277815084D01*
X428653813Y-277813917D01*
X428140562Y-277811506D01*
X427697812Y-277807441D01*
X427319414Y-277801315D01*
X426999219Y-277792718D01*
X426731077Y-277781242D01*
X426508840Y-277766477D01*
X426326358Y-277748015D01*
X426177483Y-277725448D01*
X426056064Y-277698367D01*
X425955952Y-277666363D01*
X425870999Y-277629026D01*
X425795055Y-277585950D01*
X425721971Y-277536724D01*
X425645597Y-277480940D01*
X425559785Y-277418190D01*
X425458385Y-277348064D01*
X425458140Y-277347901D01*
X425080734Y-277058686D01*
X424784850Y-276738677D01*
X424544621Y-276358354D01*
X424482879Y-276235095D01*
X424420097Y-276099460D01*
X424374964Y-275982230D01*
X424344078Y-275861197D01*
X424324035Y-275714155D01*
X424311432Y-275518895D01*
X424302866Y-275253210D01*
X424297736Y-275026850D01*
X424293612Y-274721720D01*
X426932220Y-274721720D01*
X426937602Y-275018299D01*
X426957853Y-275318113D01*
X426991817Y-275586968D01*
X427019707Y-275724947D01*
X427200167Y-276295126D01*
X427439032Y-276791925D01*
X427731502Y-277206977D01*
X428042800Y-277508647D01*
X428265643Y-277684989D01*
X430916226Y-277684989D01*
X431553132Y-277683954D01*
X432110858Y-277680904D01*
X432585005Y-277675927D01*
X432971171Y-277669107D01*
X433264957Y-277660532D01*
X433461963Y-277650287D01*
X433557788Y-277638459D01*
X433566808Y-277633158D01*
X433534010Y-277564470D01*
X433451311Y-277451847D01*
X433406650Y-277398917D01*
X433232256Y-277155761D01*
X433066303Y-276845452D01*
X432927496Y-276507744D01*
X432834798Y-276183617D01*
X432769081Y-275658152D01*
X432772478Y-275409457D01*
X432930841Y-275409457D01*
X432944263Y-275764555D01*
X432985175Y-276078198D01*
X432995534Y-276127695D01*
X433115935Y-276516052D01*
X433294814Y-276902319D01*
X433511570Y-277246064D01*
X433651653Y-277415526D01*
X433906620Y-277688107D01*
X436327729Y-277673123D01*
X438748838Y-277658139D01*
X438939512Y-277512253D01*
X439141775Y-277316829D01*
X439354722Y-277040877D01*
X439564546Y-276708437D01*
X439757443Y-276343553D01*
X439919606Y-275970265D01*
X440037229Y-275612615D01*
X440042949Y-275590697D01*
X440089936Y-275312389D01*
X440111701Y-274964223D01*
X440110254Y-274571122D01*
X440087606Y-274158010D01*
X440045766Y-273749813D01*
X439986745Y-273371453D01*
X439912553Y-273047855D01*
X439825200Y-272803943D01*
X439816819Y-272786866D01*
X439615165Y-272462885D01*
X439376692Y-272203705D01*
X439145385Y-272043348D01*
X439044327Y-271992927D01*
X438956289Y-271958364D01*
X438866036Y-271942307D01*
X438758335Y-271947403D01*
X438617950Y-271976298D01*
X438429647Y-272031640D01*
X438178190Y-272116076D01*
X437848346Y-272232253D01*
X437647992Y-272303525D01*
X437398340Y-272393959D01*
X437094472Y-272506394D01*
X436782223Y-272623784D01*
X436600846Y-272692990D01*
X436322596Y-272798748D01*
X435983255Y-272925917D01*
X435622814Y-273059604D01*
X435281258Y-273184914D01*
X435231502Y-273203021D01*
X434728943Y-273385975D01*
X434317612Y-273536988D01*
X433987689Y-273660518D01*
X433729359Y-273761022D01*
X433532803Y-273842957D01*
X433388205Y-273910780D01*
X433285746Y-273968949D01*
X433215610Y-274021920D01*
X433167980Y-274074152D01*
X433133037Y-274130101D01*
X433115939Y-274163527D01*
X433037457Y-274389937D01*
X432979243Y-274692696D01*
X432943103Y-275042353D01*
X432930841Y-275409457D01*
X432772478Y-275409457D01*
X432777237Y-275060974D01*
X432859344Y-274389409D01*
X432894295Y-274194503D01*
X432909238Y-274091481D01*
X432892699Y-274021379D01*
X432825483Y-273960124D01*
X432688393Y-273883643D01*
X432617477Y-273847358D01*
X432396457Y-273730888D01*
X432164316Y-273602609D01*
X432036364Y-273528666D01*
X431927891Y-273466481D01*
X431775315Y-273382958D01*
X431571316Y-273274289D01*
X431308579Y-273136665D01*
X430979787Y-272966278D01*
X430577622Y-272759319D01*
X430094766Y-272511981D01*
X429523904Y-272220454D01*
X429473171Y-272194577D01*
X428950570Y-271928038D01*
X428642780Y-272054399D01*
X428303652Y-272244396D01*
X427972834Y-272524683D01*
X427663136Y-272878246D01*
X427387371Y-273288072D01*
X427158349Y-273737144D01*
X426988882Y-274208450D01*
X426970687Y-274275053D01*
X426942863Y-274462573D01*
X426932220Y-274721720D01*
X424293612Y-274721720D01*
X424292764Y-274658934D01*
X424296827Y-274370985D01*
X424311653Y-274135821D01*
X424338970Y-273926258D01*
X424380506Y-273715112D01*
X424381377Y-273711205D01*
X424521467Y-273189653D01*
X424692508Y-272759887D01*
X424904110Y-272408433D01*
X425165883Y-272121821D01*
X425487437Y-271886576D01*
X425798687Y-271724265D01*
X426032256Y-271626179D01*
X426271198Y-271544298D01*
X426536366Y-271473673D01*
X426848609Y-271409355D01*
X427228779Y-271346393D01*
X427635559Y-271288249D01*
X427849101Y-271260549D01*
X428055928Y-271237258D01*
X428268425Y-271217875D01*
X428498977Y-271201900D01*
X428759967Y-271188830D01*
X428950570Y-271182140D01*
X429063780Y-271178167D01*
X429422799Y-271169407D01*
X429849410Y-271162051D01*
X430355995Y-271155598D01*
X430954939Y-271149546D01*
X431096618Y-271148252D01*
X431787566Y-271143016D01*
X432385042Y-271140827D01*
X432902938Y-271141909D01*
G37*
G36*
X433482176Y-291799842D02*
G01*
X433963815Y-291804075D01*
X434610586Y-291817500D01*
X435252713Y-291838458D01*
X435871592Y-291866618D01*
X436448618Y-291901651D01*
X436965190Y-291943224D01*
X437191544Y-291965985D01*
X437935485Y-292065746D01*
X438675285Y-292200797D01*
X439396567Y-292366674D01*
X440084952Y-292558911D01*
X440726063Y-292773043D01*
X441305522Y-293004605D01*
X441808952Y-293249131D01*
X442221976Y-293502157D01*
X442285093Y-293547875D01*
X442535620Y-293740659D01*
X442711925Y-293894662D01*
X442830438Y-294028692D01*
X442907590Y-294161560D01*
X442959809Y-294312074D01*
X442963004Y-294323940D01*
X442995915Y-294478221D01*
X442985297Y-294589476D01*
X442921743Y-294712702D01*
X442887485Y-294765466D01*
X442784627Y-294899073D01*
X442661177Y-295005762D01*
X442492194Y-295101628D01*
X442252741Y-295202767D01*
X442149723Y-295241631D01*
X441966774Y-295303375D01*
X441775507Y-295353755D01*
X441562309Y-295394073D01*
X441313563Y-295425633D01*
X441015655Y-295449736D01*
X440654971Y-295467685D01*
X440217895Y-295480782D01*
X439690813Y-295490332D01*
X439527485Y-295492519D01*
X438792656Y-295496929D01*
X438120625Y-295489490D01*
X437487358Y-295468482D01*
X436868822Y-295432187D01*
X436240985Y-295378888D01*
X435579814Y-295306865D01*
X434861275Y-295214401D01*
X434086348Y-295103495D01*
X433797088Y-295057284D01*
X433455279Y-294997412D01*
X433078089Y-294927408D01*
X432682689Y-294850798D01*
X432286246Y-294771109D01*
X431905931Y-294691867D01*
X431558913Y-294616600D01*
X431262361Y-294548834D01*
X431033443Y-294492096D01*
X430889330Y-294449913D01*
X430870792Y-294442969D01*
X430768771Y-294405969D01*
X430592457Y-294346231D01*
X430370029Y-294273187D01*
X430210571Y-294221927D01*
X429809061Y-294084553D01*
X429491296Y-293952213D01*
X429234869Y-293813614D01*
X429017374Y-293657462D01*
X428916932Y-293569928D01*
X428783461Y-293439534D01*
X428712895Y-293337051D01*
X428685741Y-293221499D01*
X428683598Y-293131838D01*
X428901943Y-293131838D01*
X428976484Y-293342176D01*
X429007782Y-293386917D01*
X429128921Y-293496252D01*
X429325454Y-293624661D01*
X429570875Y-293757289D01*
X429838677Y-293879282D01*
X429992935Y-293938997D01*
X430200193Y-294009222D01*
X430468994Y-294094416D01*
X430769935Y-294185888D01*
X431073613Y-294274947D01*
X431350626Y-294352902D01*
X431571570Y-294411063D01*
X431660466Y-294431880D01*
X431813168Y-294464775D01*
X432042299Y-294514343D01*
X432319345Y-294574406D01*
X432615795Y-294638788D01*
X432680762Y-294652913D01*
X433644684Y-294841339D01*
X434682057Y-295005054D01*
X435760869Y-295139651D01*
X436849108Y-295240721D01*
X437062965Y-295256377D01*
X437494333Y-295281057D01*
X437977861Y-295299420D01*
X438493657Y-295311487D01*
X439021830Y-295317275D01*
X439542488Y-295316805D01*
X440035741Y-295310096D01*
X440481697Y-295297168D01*
X440860465Y-295278040D01*
X441152153Y-295252731D01*
X441155201Y-295252371D01*
X441510788Y-295194078D01*
X441854985Y-295108347D01*
X442165983Y-295002999D01*
X442421976Y-294885853D01*
X442601158Y-294764732D01*
X442645735Y-294717819D01*
X442732659Y-294530258D01*
X442718532Y-294324826D01*
X442606681Y-294108958D01*
X442400431Y-293890092D01*
X442210841Y-293745308D01*
X441941225Y-293561441D01*
X441580126Y-293674597D01*
X440958205Y-293833760D01*
X440243120Y-293951890D01*
X439440991Y-294028909D01*
X438557938Y-294064737D01*
X437600082Y-294059295D01*
X436573544Y-294012502D01*
X435484445Y-293924281D01*
X434338904Y-293794552D01*
X434157506Y-293770832D01*
X433428477Y-293656926D01*
X432733595Y-293515234D01*
X432084915Y-293349574D01*
X431494489Y-293163769D01*
X430974373Y-292961638D01*
X430536619Y-292747003D01*
X430193281Y-292523682D01*
X430173396Y-292508063D01*
X430026109Y-292396333D01*
X429909656Y-292318078D01*
X429874384Y-292301459D01*
X430384774Y-292301459D01*
X430484151Y-292381537D01*
X430630388Y-292465120D01*
X431404855Y-292822366D01*
X432220968Y-293095764D01*
X432920174Y-293259549D01*
X433176099Y-293310666D01*
X433412298Y-293360279D01*
X433596537Y-293401495D01*
X433674208Y-293420802D01*
X433811799Y-293449719D01*
X434020250Y-293483579D01*
X434263543Y-293516765D01*
X434372305Y-293529701D01*
X434657900Y-293562846D01*
X434961689Y-293599467D01*
X435228420Y-293632874D01*
X435285201Y-293640249D01*
X435792203Y-293698137D01*
X436323161Y-293740664D01*
X436900034Y-293768979D01*
X437544782Y-293784232D01*
X438104440Y-293787800D01*
X438739089Y-293782456D01*
X439288376Y-293764765D01*
X439773823Y-293732851D01*
X440216957Y-293684837D01*
X440639302Y-293618846D01*
X441062383Y-293533001D01*
X441084778Y-293527966D01*
X441307380Y-293468218D01*
X441424001Y-293413602D01*
X441434181Y-293364427D01*
X441375682Y-293332682D01*
X441276007Y-293292831D01*
X441113964Y-293223233D01*
X440926064Y-293139596D01*
X440739615Y-293064499D01*
X440581109Y-293017160D01*
X440390098Y-292945591D01*
X440296718Y-292898940D01*
X440170599Y-292860555D01*
X439907938Y-292783326D01*
X439811605Y-292745542D01*
X439665264Y-292709953D01*
X439480358Y-292659892D01*
X439420085Y-292642567D01*
X438746832Y-292478632D01*
X438292389Y-292398516D01*
X438048656Y-292360161D01*
X437793288Y-292318488D01*
X437647992Y-292293928D01*
X437292662Y-292242598D01*
X436863062Y-292197185D01*
X436372698Y-292157874D01*
X435835077Y-292124847D01*
X435263707Y-292098288D01*
X434672096Y-292078382D01*
X434073749Y-292065311D01*
X433482176Y-292059259D01*
X432910882Y-292060410D01*
X432373375Y-292068947D01*
X431883163Y-292085054D01*
X431453753Y-292108915D01*
X431098652Y-292140713D01*
X430831367Y-292180632D01*
X430747569Y-292200129D01*
X430610547Y-292224109D01*
X430489326Y-292233523D01*
X430386689Y-292252433D01*
X430384774Y-292301459D01*
X429874384Y-292301459D01*
X429852890Y-292291332D01*
X429735031Y-292318140D01*
X429561866Y-292387129D01*
X429367610Y-292481143D01*
X429186479Y-292583029D01*
X429052688Y-292675631D01*
X429016018Y-292710916D01*
X428915275Y-292908793D01*
X428901943Y-293131838D01*
X428683598Y-293131838D01*
X428682277Y-293076564D01*
X428698728Y-292885175D01*
X428737922Y-292715906D01*
X428761444Y-292659719D01*
X428909067Y-292491249D01*
X429158851Y-292336651D01*
X429506281Y-292197337D01*
X429852890Y-292100870D01*
X429946843Y-292074721D01*
X430476022Y-291970215D01*
X431089305Y-291885233D01*
X431311417Y-291861511D01*
X431702357Y-291832313D01*
X432181670Y-291812302D01*
X432730753Y-291801145D01*
X433331003Y-291798513D01*
X433482176Y-291799842D01*
G37*
G36*
X441196585Y-253586453D02*
G01*
X441545568Y-253706515D01*
X441844388Y-253907975D01*
X441863279Y-253925442D01*
X441990567Y-254054578D01*
X442078162Y-254160461D01*
X442158774Y-254271881D01*
X442212474Y-254352431D01*
X442259058Y-254432981D01*
X442335677Y-254603104D01*
X442369165Y-254766039D01*
X442391120Y-254936695D01*
X442395302Y-255081926D01*
X442390015Y-255128656D01*
X442363561Y-255279793D01*
X442349554Y-255372727D01*
X442269484Y-255634761D01*
X442112223Y-255900062D01*
X441901887Y-256140510D01*
X441662596Y-256327984D01*
X441444946Y-256427461D01*
X441296726Y-256474687D01*
X441194561Y-256516510D01*
X441176837Y-256527501D01*
X441157117Y-256593021D01*
X441137158Y-256741692D01*
X441119675Y-256949310D01*
X441110106Y-257122571D01*
X441095856Y-257442953D01*
X441079393Y-257806518D01*
X441063628Y-258149176D01*
X441059124Y-258245666D01*
X441047685Y-258505960D01*
X441034260Y-258837224D01*
X441020263Y-259203079D01*
X441007112Y-259567149D01*
X441002694Y-259695560D01*
X440990613Y-260037052D01*
X440977503Y-260381897D01*
X440964646Y-260697937D01*
X440953326Y-260953014D01*
X440949141Y-261038055D01*
X440934760Y-261338112D01*
X440920244Y-261679174D01*
X440906182Y-262042856D01*
X440893164Y-262410773D01*
X440881779Y-262764539D01*
X440872616Y-263085768D01*
X440866266Y-263356077D01*
X440863319Y-263557078D01*
X440864363Y-263670388D01*
X440864589Y-263674365D01*
X440909199Y-263748492D01*
X441019366Y-263853292D01*
X441138374Y-263942864D01*
X441280249Y-264044484D01*
X441377569Y-264123604D01*
X441406873Y-264158226D01*
X441440073Y-264214870D01*
X441522214Y-264314493D01*
X441546984Y-264341729D01*
X441636189Y-264460551D01*
X441731577Y-264620930D01*
X441815719Y-264788679D01*
X441871184Y-264929613D01*
X441883081Y-265000919D01*
X441890000Y-265203556D01*
X441940623Y-265355495D01*
X442088878Y-265488832D01*
X442143780Y-265524704D01*
X442272746Y-265610375D01*
X442463945Y-265743569D01*
X442693798Y-265907226D01*
X442938725Y-266084286D01*
X443175148Y-266257687D01*
X443379487Y-266410371D01*
X443528163Y-266525277D01*
X443541404Y-266535927D01*
X443620440Y-266607638D01*
X443755143Y-266737409D01*
X443926460Y-266906153D01*
X444115340Y-267094780D01*
X444302733Y-267284203D01*
X444469585Y-267455333D01*
X444596846Y-267589082D01*
X444642389Y-267639034D01*
X444735007Y-267755549D01*
X444786383Y-267842996D01*
X444790064Y-267858856D01*
X444830956Y-267910101D01*
X444843764Y-267911628D01*
X444891405Y-267955122D01*
X444897463Y-267992177D01*
X444926460Y-268063639D01*
X444951163Y-268072727D01*
X444998805Y-268116222D01*
X445004863Y-268153277D01*
X445033859Y-268224739D01*
X445058563Y-268233826D01*
X445106204Y-268277321D01*
X445112263Y-268314376D01*
X445135760Y-268385914D01*
X445155633Y-268394926D01*
X445195626Y-268438959D01*
X445266201Y-268552486D01*
X445352588Y-268707643D01*
X445440018Y-268876568D01*
X445513721Y-269031401D01*
X445558928Y-269144278D01*
X445564999Y-269167172D01*
X445592642Y-269250678D01*
X445648050Y-269387907D01*
X445671546Y-269442072D01*
X445732523Y-269586126D01*
X445771889Y-269690567D01*
X445777597Y-269710571D01*
X445809873Y-269794161D01*
X445862291Y-269898520D01*
X445910994Y-269994408D01*
X445923059Y-270032769D01*
X445930543Y-270076214D01*
X445966507Y-270180843D01*
X445967063Y-270182307D01*
X446005442Y-270301315D01*
X446016013Y-270370256D01*
X446028589Y-270446497D01*
X446050118Y-270504958D01*
X446070966Y-270598701D01*
X446060532Y-270632844D01*
X446056381Y-270699492D01*
X446079513Y-270758939D01*
X446116663Y-270847055D01*
X446146214Y-270965499D01*
X446169089Y-271126674D01*
X446186210Y-271342984D01*
X446198498Y-271626833D01*
X446206875Y-271990624D01*
X446212263Y-272446762D01*
X446213110Y-272556659D01*
X446212153Y-273342428D01*
X446196866Y-274034820D01*
X446166582Y-274646986D01*
X446120631Y-275192077D01*
X446058343Y-275683245D01*
X446051961Y-275724947D01*
X446031394Y-275877549D01*
X446008816Y-276073743D01*
X446000496Y-276154545D01*
X445970810Y-276433267D01*
X445935227Y-276734556D01*
X445900206Y-277004700D01*
X445887464Y-277094292D01*
X445851828Y-277390165D01*
X445817004Y-277788826D01*
X445783392Y-278285663D01*
X445780775Y-278329387D01*
X445748307Y-278854956D01*
X445718956Y-279282118D01*
X445691960Y-279619794D01*
X445666556Y-279876906D01*
X445641980Y-280062376D01*
X445624680Y-280155180D01*
X445603961Y-280282387D01*
X445582003Y-280468812D01*
X445568813Y-280611628D01*
X445551193Y-280817482D01*
X445533534Y-281004496D01*
X445523899Y-281094926D01*
X445506559Y-281242470D01*
X445483324Y-281439758D01*
X445470161Y-281551374D01*
X445446213Y-281775504D01*
X445421911Y-282035879D01*
X445408758Y-282195771D01*
X445388726Y-282436685D01*
X445365415Y-282685424D01*
X445350747Y-282825586D01*
X445327916Y-283052368D01*
X445307999Y-283287930D01*
X445302734Y-283362583D01*
X445287028Y-283560760D01*
X445263933Y-283802372D01*
X445246041Y-283967865D01*
X445222398Y-284184819D01*
X445202402Y-284388123D01*
X445192588Y-284504862D01*
X445181397Y-284629103D01*
X445171123Y-284691193D01*
X445169762Y-284692812D01*
X445160723Y-284741486D01*
X445146806Y-284868026D01*
X445133588Y-285015010D01*
X445107894Y-285318786D01*
X445088795Y-285527532D01*
X445075058Y-285653329D01*
X445065450Y-285708261D01*
X445062362Y-285713108D01*
X445053547Y-285761594D01*
X445040781Y-285886686D01*
X445030865Y-286008456D01*
X445011898Y-286232495D01*
X444989205Y-286459519D01*
X444979354Y-286545454D01*
X444956205Y-286756239D01*
X444934263Y-286989097D01*
X444928778Y-287055602D01*
X444908350Y-287270888D01*
X444882571Y-287486384D01*
X444873961Y-287546897D01*
X444850996Y-287726216D01*
X444827445Y-287953223D01*
X444813844Y-288110744D01*
X444786725Y-288439095D01*
X444760484Y-288700451D01*
X444730806Y-288935089D01*
X444711150Y-289069344D01*
X444683814Y-289280237D01*
X444660258Y-289513183D01*
X444654978Y-289579492D01*
X444631587Y-289869509D01*
X444601168Y-290200866D01*
X444569087Y-290516888D01*
X444550708Y-290680338D01*
X444532269Y-290845925D01*
X444510475Y-291055802D01*
X444499814Y-291163636D01*
X444476931Y-291387426D01*
X444451852Y-291614275D01*
X444441617Y-291700634D01*
X444420048Y-291896252D01*
X444397364Y-292131734D01*
X444385955Y-292264482D01*
X444361610Y-292561550D01*
X444340845Y-292799256D01*
X444320269Y-293010019D01*
X444296491Y-293226262D01*
X444266120Y-293480408D01*
X444225765Y-293804877D01*
X444220273Y-293848626D01*
X444198534Y-294035057D01*
X444177401Y-294235796D01*
X444175880Y-294251374D01*
X444157569Y-294411343D01*
X444138674Y-294534298D01*
X444135161Y-294550915D01*
X444096298Y-294671730D01*
X444032416Y-294829731D01*
X443957464Y-294995051D01*
X443885394Y-295137825D01*
X443830158Y-295228185D01*
X443811017Y-295244820D01*
X443771673Y-295286750D01*
X443769768Y-295304702D01*
X443728667Y-295383751D01*
X443621684Y-295499277D01*
X443473296Y-295629707D01*
X443307983Y-295753471D01*
X443154803Y-295846648D01*
X442727778Y-296026102D01*
X442198589Y-296176736D01*
X441568613Y-296298263D01*
X440839228Y-296390398D01*
X440332981Y-296432965D01*
X439885232Y-296451727D01*
X439349433Y-296453321D01*
X438743315Y-296439165D01*
X438084609Y-296410678D01*
X437391045Y-296369277D01*
X436680352Y-296316381D01*
X435970261Y-296253408D01*
X435278502Y-296181778D01*
X434622805Y-296102907D01*
X434020900Y-296018215D01*
X433490517Y-295929119D01*
X433137210Y-295857331D01*
X432372669Y-295675778D01*
X431649197Y-295483977D01*
X430975485Y-295285066D01*
X430360223Y-295082183D01*
X429812101Y-294878464D01*
X429339811Y-294677049D01*
X428952043Y-294481074D01*
X428657486Y-294293677D01*
X428540999Y-294197855D01*
X428433501Y-294106377D01*
X428358620Y-294036910D01*
X428300000Y-293955050D01*
X428251871Y-293850419D01*
X428201027Y-293714376D01*
X428146826Y-293547685D01*
X428108452Y-293390344D01*
X428087996Y-293284778D01*
X428066687Y-293112458D01*
X428048246Y-292867672D01*
X428033062Y-292571348D01*
X428021526Y-292244413D01*
X428014026Y-291907794D01*
X428010952Y-291582419D01*
X428012694Y-291289215D01*
X428019640Y-291049109D01*
X428032180Y-290883029D01*
X428042288Y-290828476D01*
X428086897Y-290658258D01*
X428116123Y-290510145D01*
X428226568Y-290141780D01*
X428339803Y-289894479D01*
X428457374Y-289740225D01*
X428638838Y-289564135D01*
X428982378Y-289339353D01*
X429086443Y-289294019D01*
X429270396Y-289232120D01*
X429393517Y-289178063D01*
X429467817Y-289110113D01*
X429505308Y-289006538D01*
X429518005Y-288845602D01*
X429517977Y-288769097D01*
X429613419Y-288769097D01*
X429613498Y-288773996D01*
X429619874Y-289149894D01*
X429807823Y-289143053D01*
X430225003Y-289126987D01*
X430625189Y-289109937D01*
X430993140Y-289092689D01*
X431313616Y-289076034D01*
X431571377Y-289060760D01*
X431751182Y-289047656D01*
X431834990Y-289038126D01*
X431877933Y-289026558D01*
X431909264Y-289001897D01*
X431930814Y-288949143D01*
X431944413Y-288853301D01*
X431951890Y-288699373D01*
X431955077Y-288472360D01*
X431955803Y-288157266D01*
X431955811Y-288074875D01*
X432116914Y-288074875D01*
X432117295Y-288412657D01*
X432119713Y-288658270D01*
X432126076Y-288826943D01*
X432138294Y-288933906D01*
X432158276Y-288994390D01*
X432187932Y-289023623D01*
X432229170Y-289036837D01*
X432237738Y-289038641D01*
X432343353Y-289052313D01*
X432525027Y-289067953D01*
X432751515Y-289083044D01*
X432868711Y-289089443D01*
X433170730Y-289109111D01*
X433515240Y-289138227D01*
X433838384Y-289171264D01*
X433906706Y-289179288D01*
X434174327Y-289206017D01*
X434367696Y-289213096D01*
X434473091Y-289200195D01*
X434484770Y-289193158D01*
X434505398Y-289149155D01*
X434713977Y-289149155D01*
X434731834Y-289204860D01*
X434790315Y-289244887D01*
X434910521Y-289277256D01*
X435113554Y-289309985D01*
X435150952Y-289315213D01*
X435364713Y-289347296D01*
X435650393Y-289393724D01*
X435974388Y-289448864D01*
X436303090Y-289507088D01*
X436383543Y-289521736D01*
X436691399Y-289577410D01*
X436910767Y-289614001D01*
X437058659Y-289632522D01*
X437152090Y-289633986D01*
X437208073Y-289619403D01*
X437220466Y-289609078D01*
X437440072Y-289609078D01*
X437480656Y-289683038D01*
X437571114Y-289711618D01*
X437745699Y-289745139D01*
X437981419Y-289780790D01*
X438255282Y-289815762D01*
X438544296Y-289847244D01*
X438825470Y-289872425D01*
X439075810Y-289888495D01*
X439193939Y-289892466D01*
X439709621Y-289901691D01*
X439741838Y-289771629D01*
X439915105Y-289771629D01*
X439919559Y-289844109D01*
X439959461Y-289872082D01*
X439997358Y-289875275D01*
X440088392Y-289855804D01*
X440248293Y-289803608D01*
X440447377Y-289728659D01*
X440514453Y-289701524D01*
X440913303Y-289492543D01*
X441256185Y-289212128D01*
X441557480Y-288847008D01*
X441720241Y-288588775D01*
X441858059Y-288345036D01*
X441941513Y-288171122D01*
X441970683Y-288044284D01*
X441945650Y-287941769D01*
X441866494Y-287840827D01*
X441733294Y-287718708D01*
X441723345Y-287710000D01*
X441542681Y-287568712D01*
X441329100Y-287426964D01*
X441105251Y-287296815D01*
X440893781Y-287190322D01*
X440717337Y-287119544D01*
X440598566Y-287096538D01*
X440578414Y-287100420D01*
X440512225Y-287173670D01*
X440494081Y-287258011D01*
X440482569Y-287365355D01*
X440451810Y-287545385D01*
X440407467Y-287766317D01*
X440386119Y-287863819D01*
X440325294Y-288137973D01*
X440262119Y-288428190D01*
X440208522Y-288679568D01*
X440200014Y-288720296D01*
X440141285Y-288972958D01*
X440069523Y-289240872D01*
X440015514Y-289418393D01*
X439946843Y-289635953D01*
X439915105Y-289771629D01*
X439741838Y-289771629D01*
X439756177Y-289713742D01*
X439798639Y-289557777D01*
X439859292Y-289352788D01*
X439905817Y-289203594D01*
X439972902Y-288968510D01*
X440032383Y-288717556D01*
X440057594Y-288586046D01*
X440095636Y-288384490D01*
X440150031Y-288131399D01*
X440209506Y-287879025D01*
X440213978Y-287861099D01*
X440298193Y-287503256D01*
X440346644Y-287243395D01*
X440359777Y-287078391D01*
X440338040Y-287005114D01*
X440336472Y-287004060D01*
X440262515Y-286985430D01*
X440103575Y-286960852D01*
X439881752Y-286932616D01*
X439619148Y-286903009D01*
X439337863Y-286874320D01*
X439189210Y-286860687D01*
X440570884Y-286860687D01*
X440598566Y-286877945D01*
X440663173Y-286918223D01*
X440844462Y-286994428D01*
X440899696Y-287015499D01*
X441085284Y-287100102D01*
X441304542Y-287221451D01*
X441527060Y-287360264D01*
X441722428Y-287497258D01*
X441860237Y-287613150D01*
X441885589Y-287640653D01*
X441988186Y-287719719D01*
X442076259Y-287693482D01*
X442149165Y-287563135D01*
X442206266Y-287329875D01*
X442246919Y-286994896D01*
X442249607Y-286961628D01*
X442263962Y-286736591D01*
X442253349Y-286604181D01*
X442201921Y-286550011D01*
X442093827Y-286559695D01*
X441913219Y-286618848D01*
X441883602Y-286629416D01*
X441719199Y-286671544D01*
X441489685Y-286709385D01*
X441237327Y-286736358D01*
X441165328Y-286741241D01*
X440864818Y-286762096D01*
X440668027Y-286786422D01*
X440571276Y-286818020D01*
X440570884Y-286860687D01*
X439189210Y-286860687D01*
X439059998Y-286848837D01*
X438807652Y-286828848D01*
X438602927Y-286816642D01*
X438500381Y-286813953D01*
X438290384Y-286825523D01*
X438178849Y-286859599D01*
X438162308Y-286881078D01*
X438141608Y-286966988D01*
X438107652Y-287121202D01*
X438076134Y-287270402D01*
X437988698Y-287653748D01*
X437874611Y-288098606D01*
X437744804Y-288565880D01*
X437610207Y-289016471D01*
X437481751Y-289411284D01*
X437460589Y-289472093D01*
X437440072Y-289609078D01*
X437220466Y-289609078D01*
X437243623Y-289589786D01*
X437256164Y-289573639D01*
X437313427Y-289460832D01*
X437325793Y-289398718D01*
X437341296Y-289319727D01*
X437383690Y-289160442D01*
X437446807Y-288942757D01*
X437524478Y-288688563D01*
X437538539Y-288643760D01*
X437675993Y-288198958D01*
X437781185Y-287837521D01*
X437858692Y-287541928D01*
X437913089Y-287294661D01*
X437948955Y-287078200D01*
X437950505Y-287066652D01*
X437985958Y-286799394D01*
X437749850Y-286832251D01*
X437620962Y-286845848D01*
X437406765Y-286863601D01*
X437129196Y-286883900D01*
X436810193Y-286905136D01*
X436493447Y-286924438D01*
X436080458Y-286949262D01*
X435762155Y-286971532D01*
X435525956Y-286993983D01*
X435359277Y-287019349D01*
X435249535Y-287050365D01*
X435184148Y-287089766D01*
X435150531Y-287140286D01*
X435136103Y-287204661D01*
X435134374Y-287219805D01*
X435114162Y-287338701D01*
X435073224Y-287530458D01*
X435018394Y-287764132D01*
X434980852Y-287914799D01*
X434882028Y-288306468D01*
X434808773Y-288607493D01*
X434758290Y-288830816D01*
X434727781Y-288989378D01*
X434714446Y-289096122D01*
X434713977Y-289149155D01*
X434505398Y-289149155D01*
X434519870Y-289118284D01*
X434564334Y-288969345D01*
X434608754Y-288778022D01*
X434610279Y-288770519D01*
X434658436Y-288547735D01*
X434723286Y-288268187D01*
X434793803Y-287978870D01*
X434823652Y-287861099D01*
X434882295Y-287620103D01*
X434928707Y-287404791D01*
X434956805Y-287244776D01*
X434962368Y-287185575D01*
X434963003Y-287047049D01*
X434493129Y-287072733D01*
X434275381Y-287082393D01*
X433980997Y-287092294D01*
X433640735Y-287101561D01*
X433285353Y-287109320D01*
X433083510Y-287112799D01*
X432778125Y-287117705D01*
X432512653Y-287122412D01*
X432304606Y-287126573D01*
X432171496Y-287129843D01*
X432130339Y-287131666D01*
X432125988Y-287184006D01*
X432122226Y-287326440D01*
X432119298Y-287541663D01*
X432117451Y-287812371D01*
X432116914Y-288074875D01*
X431955811Y-288074875D01*
X431955814Y-288048025D01*
X431955067Y-287703375D01*
X431951879Y-287451692D01*
X431944835Y-287278547D01*
X431932516Y-287169514D01*
X431913506Y-287110164D01*
X431886387Y-287086070D01*
X431860971Y-287082452D01*
X431731722Y-287066490D01*
X431525251Y-287023205D01*
X431266138Y-286959502D01*
X430978960Y-286882286D01*
X430688296Y-286798463D01*
X430418725Y-286714935D01*
X430194825Y-286638609D01*
X430041174Y-286576388D01*
X430018422Y-286564835D01*
X429870361Y-286490193D01*
X429764234Y-286447777D01*
X429729885Y-286444393D01*
X429718537Y-286504670D01*
X429704613Y-286653450D01*
X429689054Y-286871894D01*
X429672801Y-287141162D01*
X429656795Y-287442416D01*
X429641978Y-287756816D01*
X429629291Y-288065523D01*
X429619674Y-288349698D01*
X429614070Y-288590503D01*
X429613419Y-288769097D01*
X429517977Y-288769097D01*
X429517918Y-288605573D01*
X429517194Y-288514678D01*
X429521082Y-287991101D01*
X429538113Y-287392706D01*
X429566635Y-286751047D01*
X429604998Y-286097682D01*
X429605636Y-286089006D01*
X429709928Y-286089006D01*
X429729885Y-286178567D01*
X429730124Y-286179640D01*
X429741520Y-286198804D01*
X429832147Y-286277919D01*
X429993538Y-286376124D01*
X430195128Y-286476909D01*
X430406354Y-286563766D01*
X430437524Y-286574759D01*
X430649154Y-286642339D01*
X430896074Y-286713208D01*
X431156107Y-286781999D01*
X431407074Y-286843347D01*
X431626796Y-286891886D01*
X431793096Y-286922248D01*
X431883796Y-286929070D01*
X431891818Y-286926628D01*
X431915468Y-286863714D01*
X431943655Y-286715257D01*
X431951327Y-286659704D01*
X432125018Y-286659704D01*
X432143621Y-286826902D01*
X432199751Y-286923251D01*
X432249704Y-286945330D01*
X432345662Y-286960663D01*
X432499107Y-286969519D01*
X432721519Y-286972171D01*
X433024382Y-286968889D01*
X433419175Y-286959945D01*
X433574416Y-286955718D01*
X433940860Y-286943438D01*
X434275096Y-286928467D01*
X434560964Y-286911834D01*
X434782301Y-286894565D01*
X434922948Y-286877690D01*
X434963003Y-286867517D01*
X434963485Y-286867395D01*
X435017175Y-286820447D01*
X435058732Y-286734699D01*
X435086933Y-286612579D01*
X435238883Y-286612579D01*
X435246805Y-286789397D01*
X435284166Y-286865297D01*
X435298626Y-286868811D01*
X435388827Y-286865499D01*
X435565235Y-286855099D01*
X435808844Y-286839027D01*
X436100648Y-286818696D01*
X436421641Y-286795524D01*
X436752818Y-286770923D01*
X437075174Y-286746311D01*
X437369703Y-286723101D01*
X437617398Y-286702709D01*
X437799255Y-286686550D01*
X437896268Y-286676040D01*
X437903066Y-286674894D01*
X437980424Y-286643050D01*
X437985958Y-286631191D01*
X438015660Y-286567543D01*
X438021403Y-286464905D01*
X438184990Y-286464905D01*
X438190377Y-286581261D01*
X438226232Y-286635754D01*
X438322094Y-286651856D01*
X438421531Y-286652854D01*
X438500381Y-286656370D01*
X438561901Y-286659113D01*
X438779523Y-286676017D01*
X439047793Y-286700751D01*
X439340108Y-286730505D01*
X439629863Y-286762465D01*
X439890453Y-286793819D01*
X440095276Y-286821755D01*
X440212157Y-286842149D01*
X440309558Y-286840927D01*
X440332981Y-286788127D01*
X440297942Y-286731091D01*
X440181320Y-286707914D01*
X440122906Y-286706554D01*
X439874018Y-286687910D01*
X439558328Y-286636521D01*
X439208881Y-286559197D01*
X438858724Y-286462749D01*
X438712520Y-286415865D01*
X438512970Y-286350891D01*
X438350509Y-286302174D01*
X438253605Y-286278128D01*
X438242646Y-286276955D01*
X438204542Y-286324148D01*
X438185490Y-286440197D01*
X438184990Y-286464905D01*
X438021403Y-286464905D01*
X438023891Y-286420432D01*
X438018717Y-286282247D01*
X437985593Y-286203129D01*
X437898113Y-286150347D01*
X437768817Y-286104274D01*
X437622631Y-286052054D01*
X437404418Y-285970309D01*
X437141810Y-285869548D01*
X436862438Y-285760278D01*
X436815645Y-285741763D01*
X436393242Y-285575269D01*
X436060071Y-285446390D01*
X435806126Y-285351678D01*
X435621401Y-285287682D01*
X435495889Y-285250955D01*
X435419583Y-285238047D01*
X435382477Y-285245510D01*
X435380618Y-285247162D01*
X435359899Y-285314855D01*
X435335257Y-285466552D01*
X435309099Y-285679048D01*
X435283836Y-285929134D01*
X435261876Y-286193603D01*
X435245628Y-286449247D01*
X435238883Y-286612579D01*
X435086933Y-286612579D01*
X435090904Y-286595382D01*
X435116441Y-286387728D01*
X435138092Y-286096968D01*
X435151276Y-285858520D01*
X435163480Y-285624565D01*
X435174168Y-285431791D01*
X435181945Y-285304666D01*
X435184915Y-285267822D01*
X435176456Y-285193677D01*
X435120478Y-285124198D01*
X435005711Y-285053964D01*
X434820884Y-284977556D01*
X434622183Y-284911856D01*
X435350972Y-284911856D01*
X435388707Y-284964620D01*
X435419583Y-284985061D01*
X435498523Y-285037322D01*
X435593975Y-285085247D01*
X435752821Y-285153192D01*
X435978110Y-285244508D01*
X436235507Y-285345447D01*
X436412897Y-285413148D01*
X436709627Y-285525921D01*
X437033911Y-285650698D01*
X437334456Y-285767689D01*
X437459673Y-285817031D01*
X437673577Y-285899506D01*
X437852327Y-285964147D01*
X437970913Y-286002124D01*
X438002024Y-286008456D01*
X438026825Y-285980585D01*
X438049809Y-285892000D01*
X438071631Y-285735245D01*
X438078243Y-285663159D01*
X438259547Y-285663159D01*
X438259894Y-285739958D01*
X438265540Y-286089006D01*
X438862213Y-286289599D01*
X439217157Y-286399756D01*
X439552316Y-286486710D01*
X439850940Y-286547507D01*
X440096277Y-286579195D01*
X440271577Y-286578821D01*
X440351770Y-286552144D01*
X440380513Y-286491755D01*
X440557286Y-286491755D01*
X440575050Y-286554460D01*
X440595854Y-286591889D01*
X440675848Y-286628829D01*
X440836918Y-286640493D01*
X441056313Y-286629071D01*
X441311280Y-286596753D01*
X441579067Y-286545726D01*
X441836923Y-286478182D01*
X441863425Y-286469926D01*
X442201921Y-286362581D01*
X442239324Y-286350720D01*
X442222910Y-286139313D01*
X442139004Y-285715701D01*
X441960930Y-285299514D01*
X441701174Y-284910799D01*
X441372223Y-284569606D01*
X441130109Y-284384745D01*
X440952440Y-284272529D01*
X440806974Y-284193018D01*
X440717122Y-284158536D01*
X440702608Y-284159690D01*
X440684827Y-284221276D01*
X440669023Y-284369785D01*
X440656654Y-284584741D01*
X440649179Y-284845667D01*
X440648161Y-284924205D01*
X440642449Y-285222514D01*
X440631609Y-285534471D01*
X440616955Y-285837420D01*
X440599801Y-286108701D01*
X440581460Y-286325657D01*
X440563245Y-286465630D01*
X440557286Y-286491755D01*
X440380513Y-286491755D01*
X440393305Y-286464880D01*
X440430879Y-286283426D01*
X440463277Y-286020959D01*
X440489286Y-285690653D01*
X440507689Y-285305684D01*
X440517273Y-284879227D01*
X440518242Y-284746511D01*
X440520931Y-284048414D01*
X440201844Y-283896441D01*
X440042051Y-283830438D01*
X439816659Y-283750486D01*
X439549810Y-283663718D01*
X439265645Y-283577266D01*
X438988306Y-283498264D01*
X438741936Y-283433845D01*
X438550677Y-283391142D01*
X438444335Y-283377167D01*
X438396715Y-283388321D01*
X438366811Y-283435354D01*
X438350092Y-283538622D01*
X438342030Y-283718480D01*
X438339782Y-283847040D01*
X438332353Y-284125404D01*
X438318147Y-284452135D01*
X438299837Y-284768617D01*
X438293862Y-284853911D01*
X438276651Y-285133003D01*
X438264611Y-285418460D01*
X438259547Y-285663159D01*
X438078243Y-285663159D01*
X438092946Y-285502862D01*
X438114408Y-285187396D01*
X438136671Y-284781390D01*
X438160390Y-284277386D01*
X438166819Y-284130701D01*
X438179316Y-283822237D01*
X438184800Y-283603844D01*
X438181898Y-283458342D01*
X438169243Y-283368550D01*
X438145462Y-283317288D01*
X438109188Y-283287375D01*
X438099130Y-283281813D01*
X438004196Y-283252178D01*
X437826402Y-283215196D01*
X437583686Y-283173175D01*
X437293992Y-283128421D01*
X436975259Y-283083242D01*
X436645430Y-283039946D01*
X436322445Y-283000839D01*
X436024245Y-282968230D01*
X435768771Y-282944426D01*
X435573965Y-282931734D01*
X435457768Y-282932462D01*
X435434196Y-282939073D01*
X435420643Y-283002741D01*
X435407253Y-283155665D01*
X435395050Y-283379705D01*
X435385055Y-283656720D01*
X435379141Y-283915530D01*
X435373230Y-284224661D01*
X435366860Y-284497681D01*
X435360558Y-284715948D01*
X435354852Y-284860822D01*
X435350972Y-284911856D01*
X434622183Y-284911856D01*
X434554725Y-284889551D01*
X434195964Y-284784531D01*
X434157506Y-284773711D01*
X433835325Y-284690912D01*
X433509184Y-284620518D01*
X433195660Y-284564623D01*
X432911332Y-284525320D01*
X432672777Y-284504706D01*
X432496574Y-284504875D01*
X432399300Y-284527920D01*
X432385413Y-284549816D01*
X432377300Y-284618972D01*
X432355445Y-284769127D01*
X432323571Y-284975314D01*
X432299320Y-285127089D01*
X432237370Y-285543970D01*
X432184945Y-285962577D01*
X432146107Y-286347170D01*
X432125018Y-286659704D01*
X431951327Y-286659704D01*
X431972992Y-286502820D01*
X432000091Y-286247969D01*
X432002343Y-286223256D01*
X432034132Y-285905306D01*
X432073053Y-285569130D01*
X432113615Y-285259965D01*
X432142521Y-285068710D01*
X432175206Y-284846506D01*
X432195164Y-284660383D01*
X432199679Y-284538671D01*
X432195884Y-284512283D01*
X432128474Y-284474610D01*
X431979141Y-284470444D01*
X431766494Y-284495499D01*
X431509141Y-284545489D01*
X431225689Y-284616127D01*
X430934747Y-284703126D01*
X430654922Y-284802201D01*
X430404823Y-284909064D01*
X430344821Y-284938689D01*
X430107288Y-285060585D01*
X429947532Y-285150995D01*
X429848912Y-285229624D01*
X429794791Y-285316179D01*
X429768531Y-285430365D01*
X429753494Y-285591891D01*
X429749381Y-285643928D01*
X429732878Y-285842735D01*
X429718936Y-286000575D01*
X429710356Y-286085871D01*
X429709928Y-286089006D01*
X429605636Y-286089006D01*
X429651551Y-285464168D01*
X429704642Y-284882061D01*
X429709911Y-284831100D01*
X429708072Y-284777836D01*
X429813373Y-284777836D01*
X429820773Y-284894528D01*
X429841074Y-284949812D01*
X429901352Y-284943325D01*
X430030586Y-284895914D01*
X430203028Y-284817303D01*
X430237970Y-284799935D01*
X430680232Y-284615031D01*
X431181443Y-284469509D01*
X431696475Y-284376248D01*
X431741015Y-284370966D01*
X431907775Y-284353445D01*
X431979141Y-284343004D01*
X432034401Y-284334919D01*
X432130284Y-284301931D01*
X432172076Y-284267781D01*
X432462728Y-284267781D01*
X432515304Y-284350928D01*
X432573362Y-284358682D01*
X432672777Y-284358911D01*
X432752759Y-284359095D01*
X433011195Y-284386454D01*
X433325118Y-284435937D01*
X433670973Y-284502722D01*
X434025206Y-284581987D01*
X434364264Y-284668911D01*
X434664593Y-284758671D01*
X434849411Y-284824620D01*
X435022963Y-284883068D01*
X435127042Y-284890137D01*
X435170660Y-284866422D01*
X435196724Y-284784556D01*
X435215514Y-284597883D01*
X435227076Y-284305646D01*
X435231456Y-283907088D01*
X435231502Y-283855470D01*
X435230113Y-283504860D01*
X435225203Y-283247657D01*
X435215651Y-283069896D01*
X435200340Y-282957612D01*
X435178150Y-282896839D01*
X435152976Y-282875226D01*
X435071059Y-282861247D01*
X434905680Y-282845340D01*
X434680708Y-282829442D01*
X434420011Y-282815493D01*
X434414604Y-282815247D01*
X434099692Y-282800186D01*
X433767719Y-282782960D01*
X433464105Y-282765990D01*
X433284750Y-282755044D01*
X433046077Y-282743486D01*
X432896230Y-282747126D01*
X432817516Y-282767435D01*
X432794101Y-282795852D01*
X432771623Y-282882324D01*
X432733156Y-283038387D01*
X432690420Y-283216067D01*
X432632144Y-283450884D01*
X432568759Y-283691156D01*
X432528779Y-283833615D01*
X432467250Y-284095701D01*
X432462728Y-284267781D01*
X432172076Y-284267781D01*
X432204819Y-284241025D01*
X432267397Y-284138746D01*
X432327411Y-283981637D01*
X432394254Y-283756243D01*
X432477317Y-283449108D01*
X432535328Y-283233027D01*
X432589860Y-283002652D01*
X432604339Y-282858572D01*
X432582267Y-282790004D01*
X432509830Y-282769869D01*
X432350111Y-282753842D01*
X432123155Y-282742153D01*
X431849011Y-282735031D01*
X431547724Y-282732706D01*
X431239341Y-282735407D01*
X430943909Y-282743364D01*
X430681475Y-282756805D01*
X430556332Y-282766820D01*
X430203996Y-282800106D01*
X430112858Y-283155761D01*
X430066047Y-283355902D01*
X430033323Y-283529216D01*
X430022171Y-283631470D01*
X430010354Y-283759648D01*
X429980373Y-283930915D01*
X429969462Y-283980519D01*
X429904892Y-284261175D01*
X429861246Y-284458959D01*
X429834308Y-284595413D01*
X429819860Y-284692080D01*
X429813684Y-284770503D01*
X429813373Y-284777836D01*
X429708072Y-284777836D01*
X429704422Y-284672099D01*
X429638279Y-284590472D01*
X429552749Y-284570108D01*
X429421919Y-284537391D01*
X429223284Y-284461250D01*
X428981276Y-284353277D01*
X428720329Y-284225065D01*
X428464874Y-284088205D01*
X428239345Y-283954289D01*
X428196829Y-283926808D01*
X427914743Y-283717166D01*
X427698061Y-283506565D01*
X427563522Y-283311676D01*
X427550861Y-283283369D01*
X427530159Y-283165508D01*
X427521160Y-282944012D01*
X427523736Y-282626846D01*
X427614177Y-282626846D01*
X427614210Y-282923975D01*
X427624531Y-283132321D01*
X427646926Y-283270163D01*
X427683176Y-283355781D01*
X427685634Y-283359376D01*
X427784161Y-283456817D01*
X427957781Y-283586499D01*
X428186532Y-283737147D01*
X428450451Y-283897484D01*
X428729576Y-284056234D01*
X429003944Y-284202119D01*
X429253592Y-284323864D01*
X429458559Y-284410192D01*
X429598881Y-284449827D01*
X429618414Y-284451163D01*
X429681265Y-284400833D01*
X429724431Y-284262481D01*
X429726483Y-284249788D01*
X429771296Y-283981872D01*
X429831792Y-283653264D01*
X429899751Y-283307981D01*
X429927092Y-283175492D01*
X429954167Y-283011964D01*
X429960369Y-282894263D01*
X429951596Y-282858643D01*
X429882163Y-282837987D01*
X429742383Y-282822998D01*
X429638859Y-282818669D01*
X429441836Y-282804143D01*
X429346347Y-282774423D01*
X429348727Y-282735926D01*
X429445305Y-282695069D01*
X429632416Y-282658269D01*
X429737840Y-282645492D01*
X429925976Y-282632433D01*
X430204605Y-282621628D01*
X430556840Y-282613106D01*
X430965798Y-282606895D01*
X431414595Y-282603024D01*
X431547724Y-282602600D01*
X431886344Y-282601521D01*
X432364163Y-282602416D01*
X432831165Y-282605736D01*
X433046077Y-282608562D01*
X433270467Y-282611512D01*
X433665183Y-282619770D01*
X433998430Y-282630541D01*
X434157506Y-282637983D01*
X434537080Y-282663313D01*
X434978845Y-282700508D01*
X435462183Y-282747163D01*
X435573965Y-282759068D01*
X435966473Y-282800873D01*
X436471097Y-282859235D01*
X436955434Y-282919843D01*
X437398865Y-282980293D01*
X437780770Y-283038181D01*
X438080531Y-283091101D01*
X438131290Y-283101395D01*
X438242646Y-283127009D01*
X438444335Y-283173401D01*
X438528830Y-283192836D01*
X438958918Y-283305988D01*
X439394843Y-283432669D01*
X439809896Y-283564699D01*
X440177365Y-283693897D01*
X440470541Y-283812080D01*
X440509964Y-283829973D01*
X440717122Y-283941492D01*
X440978709Y-284082311D01*
X441398515Y-284377651D01*
X441756436Y-284703462D01*
X442039525Y-285047215D01*
X442234835Y-285396378D01*
X442291248Y-285554022D01*
X442417862Y-286165474D01*
X442447669Y-286780200D01*
X442383859Y-287384693D01*
X442229626Y-287965446D01*
X441988162Y-288508952D01*
X441662658Y-289001702D01*
X441409128Y-289286771D01*
X441188871Y-289497272D01*
X441000397Y-289649003D01*
X440808331Y-289767004D01*
X440577298Y-289876317D01*
X440574630Y-289877468D01*
X440401471Y-289950779D01*
X440263011Y-290001424D01*
X440133066Y-290033318D01*
X439985450Y-290050378D01*
X439793979Y-290056518D01*
X439532467Y-290055654D01*
X439393235Y-290054119D01*
X439059428Y-290044687D01*
X438713174Y-290022759D01*
X438338480Y-289986367D01*
X437919349Y-289933544D01*
X437439788Y-289862321D01*
X436883802Y-289770733D01*
X436394299Y-289685227D01*
X435682888Y-289567325D01*
X434947017Y-289461381D01*
X434211794Y-289370227D01*
X433502325Y-289296694D01*
X432843718Y-289243614D01*
X432261081Y-289213818D01*
X432197463Y-289211942D01*
X431970919Y-289207440D01*
X431750162Y-289207049D01*
X431517637Y-289211503D01*
X431255786Y-289221538D01*
X430947053Y-289237888D01*
X430573880Y-289261289D01*
X430118710Y-289292476D01*
X429895511Y-289308312D01*
X429514800Y-289358297D01*
X429160634Y-289447594D01*
X428856077Y-289568039D01*
X428684822Y-289673966D01*
X428536657Y-289814485D01*
X428465815Y-289907432D01*
X428357598Y-290109291D01*
X428277433Y-290339288D01*
X428243349Y-290498313D01*
X428206508Y-290790298D01*
X428180633Y-291153604D01*
X428163483Y-291601091D01*
X428154562Y-292026738D01*
X428148435Y-292470539D01*
X428147342Y-292822161D01*
X428160000Y-293096795D01*
X428190000Y-293309634D01*
X428230000Y-293475866D01*
X428270000Y-293610685D01*
X428320000Y-293729280D01*
X428386020Y-293846842D01*
X428470851Y-293954863D01*
X428649989Y-294122994D01*
X428923156Y-294305123D01*
X429278629Y-294496500D01*
X429704687Y-294692376D01*
X430189607Y-294887999D01*
X430721669Y-295078620D01*
X431289149Y-295259489D01*
X431880327Y-295425856D01*
X432439113Y-295562943D01*
X432737023Y-295631516D01*
X433027702Y-295699852D01*
X433279770Y-295760485D01*
X433461850Y-295805948D01*
X433476207Y-295809689D01*
X433643716Y-295844207D01*
X433906311Y-295885993D01*
X434252028Y-295933641D01*
X434668905Y-295985743D01*
X435144978Y-296040892D01*
X435668285Y-296097679D01*
X436226862Y-296154696D01*
X436808748Y-296210538D01*
X437137844Y-296240548D01*
X437546572Y-296273269D01*
X437939834Y-296295782D01*
X438344649Y-296308779D01*
X438788033Y-296312949D01*
X439297003Y-296308985D01*
X439608034Y-296303717D01*
X440269343Y-296285415D01*
X440837203Y-296256538D01*
X441325252Y-296214717D01*
X441747126Y-296157580D01*
X442116464Y-296082758D01*
X442446901Y-295987880D01*
X442752076Y-295870575D01*
X443045625Y-295728473D01*
X443106416Y-295695618D01*
X443425661Y-295459942D01*
X443696448Y-295133149D01*
X443909554Y-294729704D01*
X443948393Y-294595240D01*
X443993363Y-294370679D01*
X444042138Y-294072989D01*
X444092388Y-293719139D01*
X444141786Y-293326097D01*
X444188004Y-292910831D01*
X444228713Y-292490310D01*
X444247788Y-292264482D01*
X444278747Y-291892574D01*
X444315319Y-291480416D01*
X444355693Y-291046044D01*
X444398055Y-290607497D01*
X444440594Y-290182812D01*
X444481498Y-289790027D01*
X444518953Y-289447180D01*
X444551149Y-289172308D01*
X444576273Y-288983449D01*
X444579590Y-288961945D01*
X444608949Y-288751353D01*
X444641262Y-288478326D01*
X444671414Y-288187524D01*
X444684114Y-288049048D01*
X444701703Y-287850701D01*
X444721414Y-287637561D01*
X444744600Y-287396091D01*
X444772611Y-287112751D01*
X444806796Y-286774003D01*
X444848508Y-286366311D01*
X444899097Y-285876134D01*
X444946633Y-285417759D01*
X445002020Y-284881823D01*
X445048271Y-284426602D01*
X445087788Y-284026034D01*
X445122974Y-283654056D01*
X445156232Y-283284606D01*
X445189965Y-282891620D01*
X445226575Y-282449038D01*
X445268465Y-281930794D01*
X445270902Y-281900423D01*
X445293465Y-281638925D01*
X445316210Y-281409127D01*
X445336422Y-281236551D01*
X445350865Y-281148626D01*
X445368455Y-281045419D01*
X445392696Y-280851079D01*
X445422107Y-280581564D01*
X445455206Y-280252833D01*
X445490511Y-279880844D01*
X445526540Y-279481554D01*
X445561813Y-279070924D01*
X445594847Y-278664910D01*
X445624160Y-278279471D01*
X445645019Y-277980338D01*
X445670134Y-277641331D01*
X445702693Y-277279350D01*
X445744619Y-276876648D01*
X445797833Y-276415478D01*
X445864258Y-275878091D01*
X445918427Y-275456448D01*
X445961001Y-275077884D01*
X445999429Y-274638863D01*
X446032706Y-274161775D01*
X446059830Y-273669014D01*
X446079795Y-273182974D01*
X446091598Y-272726045D01*
X446094235Y-272320622D01*
X446086703Y-271989096D01*
X446079403Y-271865695D01*
X446024858Y-271315082D01*
X445945741Y-270823696D01*
X445833671Y-270361450D01*
X445680269Y-269898258D01*
X445477153Y-269404032D01*
X445269692Y-268958774D01*
X445019562Y-268481149D01*
X444756582Y-268065445D01*
X444455041Y-267675527D01*
X444089226Y-267275265D01*
X444025518Y-267210378D01*
X443465137Y-266683177D01*
X442897127Y-266232001D01*
X442300345Y-265844047D01*
X441653648Y-265506512D01*
X440935890Y-265206592D01*
X440413531Y-265023214D01*
X440084865Y-264917398D01*
X439822747Y-264841104D01*
X439592733Y-264787310D01*
X439360380Y-264748993D01*
X439091247Y-264719130D01*
X438802537Y-264694730D01*
X438497269Y-264670675D01*
X438209718Y-264647922D01*
X437966526Y-264628587D01*
X437794331Y-264614783D01*
X437755392Y-264611619D01*
X437457489Y-264603777D01*
X437083421Y-264618965D01*
X436661112Y-264653763D01*
X436218488Y-264704749D01*
X435783473Y-264768504D01*
X435383994Y-264841606D01*
X435047975Y-264920635D01*
X434919397Y-264959021D01*
X434635781Y-265062028D01*
X434308961Y-265196513D01*
X433965357Y-265350045D01*
X433631389Y-265510194D01*
X433333477Y-265664528D01*
X433098042Y-265800616D01*
X433018015Y-265853653D01*
X432598373Y-266175783D01*
X432175239Y-266546082D01*
X431772035Y-266941314D01*
X431412180Y-267338245D01*
X431119095Y-267713641D01*
X431067398Y-267788794D01*
X430880242Y-268076605D01*
X430688503Y-268385947D01*
X430499615Y-268703225D01*
X430321014Y-269014843D01*
X430160134Y-269307205D01*
X430024410Y-269566714D01*
X429921277Y-269779775D01*
X429858169Y-269932792D01*
X429842520Y-270012170D01*
X429847653Y-270019346D01*
X429910004Y-270022867D01*
X430065473Y-270022593D01*
X430299860Y-270018814D01*
X430598960Y-270011821D01*
X430948571Y-270001904D01*
X431334491Y-269989354D01*
X431365117Y-269988293D01*
X431830130Y-269974112D01*
X432261796Y-269965767D01*
X432283542Y-269965651D01*
X432682525Y-269963516D01*
X433114724Y-269967613D01*
X433580804Y-269978315D01*
X434103172Y-269995877D01*
X434704238Y-270020556D01*
X434882453Y-270028451D01*
X435520064Y-270057764D01*
X436064546Y-270084668D01*
X436530109Y-270110310D01*
X436930966Y-270135838D01*
X437281327Y-270162398D01*
X437595403Y-270191138D01*
X437887406Y-270223204D01*
X438171547Y-270259744D01*
X438462037Y-270301905D01*
X438668288Y-270334027D01*
X439440464Y-270480275D01*
X440128281Y-270663891D01*
X440750932Y-270893766D01*
X441327612Y-271178790D01*
X441877518Y-271527855D01*
X442419845Y-271949852D01*
X442711511Y-272206799D01*
X443113335Y-272644791D01*
X443425197Y-273139386D01*
X443643371Y-273683170D01*
X443764130Y-274268733D01*
X443768749Y-274310239D01*
X443797534Y-274689402D01*
X443814000Y-275140810D01*
X443818085Y-275630013D01*
X443809729Y-276122558D01*
X443788871Y-276583995D01*
X443773171Y-276798943D01*
X443718684Y-277270476D01*
X443632335Y-277744617D01*
X443506908Y-278257294D01*
X443415646Y-278578896D01*
X443356297Y-278788383D01*
X443311325Y-278963302D01*
X443288104Y-279074376D01*
X443286470Y-279091885D01*
X443263967Y-279171918D01*
X443203886Y-279320844D01*
X443117369Y-279511844D01*
X443077782Y-279594172D01*
X442885091Y-279940392D01*
X442670756Y-280223660D01*
X442424443Y-280447760D01*
X442135817Y-280616476D01*
X441794543Y-280733592D01*
X441390288Y-280802890D01*
X440912718Y-280828155D01*
X440351497Y-280813170D01*
X439849683Y-280776033D01*
X439558404Y-280749845D01*
X439303234Y-280726525D01*
X439065606Y-280704224D01*
X438826954Y-280681097D01*
X438568709Y-280655296D01*
X438272307Y-280624973D01*
X437919177Y-280588282D01*
X437490755Y-280543375D01*
X437137844Y-280506245D01*
X435773120Y-280379413D01*
X434414992Y-280288245D01*
X433030123Y-280231063D01*
X431585173Y-280206188D01*
X431150318Y-280204778D01*
X430414432Y-280208167D01*
X429771342Y-280218738D01*
X429223811Y-280236368D01*
X428774598Y-280260934D01*
X428426464Y-280292311D01*
X428182171Y-280330377D01*
X428143129Y-280339511D01*
X428029415Y-280366713D01*
X427923062Y-280390813D01*
X427863419Y-280408339D01*
X427821375Y-280442401D01*
X427791177Y-280511849D01*
X427767075Y-280635534D01*
X427743316Y-280832304D01*
X427720830Y-281053627D01*
X427694289Y-281319434D01*
X427669928Y-281560448D01*
X427650644Y-281748175D01*
X427640170Y-281846723D01*
X427632225Y-281964977D01*
X427624505Y-282161448D01*
X427617983Y-282406958D01*
X427614177Y-282626846D01*
X427523736Y-282626846D01*
X427523775Y-282621994D01*
X427537916Y-282202570D01*
X427563493Y-281688854D01*
X427600417Y-281083961D01*
X427622917Y-280751033D01*
X427623035Y-280642453D01*
X427595749Y-280554780D01*
X427525562Y-280471514D01*
X427396978Y-280376152D01*
X427194500Y-280252196D01*
X427105882Y-280200495D01*
X426896789Y-280076666D01*
X426652554Y-279928043D01*
X426391563Y-279766280D01*
X426132205Y-279603030D01*
X425892864Y-279449949D01*
X425691927Y-279318689D01*
X425547782Y-279220906D01*
X425481603Y-279170969D01*
X425396252Y-279098955D01*
X425269608Y-278999185D01*
X425236292Y-278973784D01*
X425134415Y-278887820D01*
X424975845Y-278743448D01*
X424779603Y-278558432D01*
X424564708Y-278350533D01*
X424487072Y-278274129D01*
X424219201Y-278001203D01*
X424012793Y-277769213D01*
X423846165Y-277551114D01*
X423697634Y-277319858D01*
X423634432Y-277210526D01*
X423481478Y-276934771D01*
X423365077Y-276706123D01*
X423280373Y-276502627D01*
X423222508Y-276302330D01*
X423186624Y-276083278D01*
X423167864Y-275823519D01*
X423161369Y-275501099D01*
X423162282Y-275094064D01*
X423162394Y-275077237D01*
X423165226Y-274854721D01*
X423262983Y-274854721D01*
X423266381Y-275223262D01*
X423276566Y-275575478D01*
X423293427Y-275886676D01*
X423316851Y-276132160D01*
X423330863Y-276221881D01*
X423419003Y-276570874D01*
X423552178Y-276900351D01*
X423744315Y-277239395D01*
X423980835Y-277578999D01*
X424279905Y-277933226D01*
X424670481Y-278318215D01*
X425143630Y-278726693D01*
X425690418Y-279151385D01*
X426301913Y-279585019D01*
X426969181Y-280020319D01*
X427011714Y-280046904D01*
X427464442Y-280329179D01*
X427840868Y-280238324D01*
X428044753Y-280192473D01*
X428251157Y-280154165D01*
X428471019Y-280122909D01*
X428715279Y-280098213D01*
X428994875Y-280079586D01*
X429320748Y-280066536D01*
X429703836Y-280058571D01*
X430155079Y-280055201D01*
X430685416Y-280055933D01*
X431305786Y-280060275D01*
X431714165Y-280064287D01*
X432651163Y-280077457D01*
X433495751Y-280096567D01*
X434262795Y-280122383D01*
X434967160Y-280155670D01*
X435623712Y-280197196D01*
X436247314Y-280247726D01*
X436852834Y-280308027D01*
X437191544Y-280346583D01*
X437523929Y-280384528D01*
X437884420Y-280423194D01*
X438225086Y-280457559D01*
X438453489Y-280478786D01*
X438724585Y-280503222D01*
X439062173Y-280534747D01*
X439425902Y-280569540D01*
X439775421Y-280603778D01*
X439822833Y-280608500D01*
X440134780Y-280637689D01*
X440435957Y-280662390D01*
X440697443Y-280680464D01*
X440890319Y-280689773D01*
X440932767Y-280690551D01*
X441287920Y-280660906D01*
X441674032Y-280577057D01*
X442038117Y-280451796D01*
X442165974Y-280392831D01*
X442405155Y-280221918D01*
X442635173Y-279964799D01*
X442841793Y-279642545D01*
X443010783Y-279276230D01*
X443096126Y-279015697D01*
X443161032Y-278787818D01*
X443233238Y-278547189D01*
X443259405Y-278463636D01*
X443313472Y-278273375D01*
X443352836Y-278097376D01*
X443362509Y-278034038D01*
X443386721Y-277893911D01*
X443431015Y-277700177D01*
X443470400Y-277550740D01*
X443528159Y-277279483D01*
X443576133Y-276925111D01*
X443613039Y-276511573D01*
X443637592Y-276062818D01*
X443648510Y-275602794D01*
X443644509Y-275155448D01*
X443624305Y-274744729D01*
X443622239Y-274717814D01*
X443594036Y-274392756D01*
X443564727Y-274147154D01*
X443528784Y-273953152D01*
X443480681Y-273782897D01*
X443414890Y-273608536D01*
X443390636Y-273550699D01*
X443180337Y-273120730D01*
X442930582Y-272738985D01*
X442623638Y-272383824D01*
X442241774Y-272033608D01*
X441970825Y-271817999D01*
X441490153Y-271483267D01*
X440988521Y-271200143D01*
X440450852Y-270963298D01*
X439862070Y-270767401D01*
X439207097Y-270607121D01*
X438470855Y-270477128D01*
X437997041Y-270413066D01*
X437509300Y-270360649D01*
X436935361Y-270311196D01*
X436296406Y-270265648D01*
X435613616Y-270224949D01*
X434908176Y-270190043D01*
X434201266Y-270161873D01*
X433514069Y-270141382D01*
X432867767Y-270129513D01*
X432283542Y-270127210D01*
X431782577Y-270135416D01*
X431770650Y-270135785D01*
X431252076Y-270152884D01*
X430701267Y-270172591D01*
X430131405Y-270194313D01*
X429555674Y-270217460D01*
X428987254Y-270241440D01*
X428439331Y-270265663D01*
X427925085Y-270289538D01*
X427457700Y-270312474D01*
X427050358Y-270333879D01*
X426716243Y-270353163D01*
X426468536Y-270369735D01*
X426368593Y-270377969D01*
X425861188Y-270461762D01*
X425375895Y-270611326D01*
X424942994Y-270815986D01*
X424726192Y-270956948D01*
X424463946Y-271190130D01*
X424204871Y-271490380D01*
X423978054Y-271820540D01*
X423830488Y-272101166D01*
X423743957Y-272319404D01*
X423642664Y-272606911D01*
X423537706Y-272928715D01*
X423440183Y-273249846D01*
X423361193Y-273535333D01*
X423319498Y-273711205D01*
X423294629Y-273898098D01*
X423276995Y-274167445D01*
X423266483Y-274494551D01*
X423262983Y-274854721D01*
X423165226Y-274854721D01*
X423166899Y-274723269D01*
X423175112Y-274382715D01*
X423186177Y-274079032D01*
X423199238Y-273835677D01*
X423213439Y-273676108D01*
X423213535Y-273675378D01*
X423252712Y-273477452D01*
X423324010Y-273206993D01*
X423418895Y-272890874D01*
X423528831Y-272555968D01*
X423645283Y-272229148D01*
X423759714Y-271937287D01*
X423783273Y-271881596D01*
X423853373Y-271762216D01*
X423973028Y-271600852D01*
X424124982Y-271416522D01*
X424291974Y-271228241D01*
X424456746Y-271055029D01*
X424602041Y-270915902D01*
X424710599Y-270829877D01*
X424754470Y-270811416D01*
X424830916Y-270777123D01*
X424886769Y-270730719D01*
X424973142Y-270673371D01*
X425129894Y-270593597D01*
X425326775Y-270506497D01*
X425376567Y-270486209D01*
X425616142Y-270402992D01*
X425890453Y-270333532D01*
X426211536Y-270276371D01*
X426591423Y-270230047D01*
X427042150Y-270193103D01*
X427575751Y-270164079D01*
X428204260Y-270141515D01*
X428223679Y-270140953D01*
X428581824Y-270129619D01*
X428907544Y-270117387D01*
X429184276Y-270105034D01*
X429395460Y-270093339D01*
X429524535Y-270083077D01*
X429553856Y-270078524D01*
X429620131Y-270021918D01*
X429710416Y-269901283D01*
X429804049Y-269750261D01*
X429880372Y-269602490D01*
X429918724Y-269491614D01*
X429919769Y-269482711D01*
X429954668Y-269415595D01*
X430013024Y-269342459D01*
X430078182Y-269254413D01*
X430093396Y-269208210D01*
X430113443Y-269140482D01*
X430181340Y-268999428D01*
X430287295Y-268802342D01*
X430421521Y-268566520D01*
X430574229Y-268309258D01*
X430735628Y-268047852D01*
X430858468Y-267856462D01*
X431036401Y-267609418D01*
X431271713Y-267318012D01*
X431541708Y-267007347D01*
X431823690Y-266702525D01*
X432094964Y-266428648D01*
X432332834Y-266210819D01*
X432386504Y-266166385D01*
X432654369Y-265956285D01*
X432883620Y-265791818D01*
X433114846Y-265646078D01*
X433388635Y-265492161D01*
X433467814Y-265449611D01*
X434212060Y-265091044D01*
X434930911Y-264826481D01*
X435640806Y-264651008D01*
X436358181Y-264559710D01*
X436466597Y-264553017D01*
X436793340Y-264534861D01*
X437029770Y-264517307D01*
X437192810Y-264495077D01*
X437299386Y-264462893D01*
X437366421Y-264415477D01*
X437398788Y-264365983D01*
X437494056Y-264365983D01*
X437536598Y-264383954D01*
X437669984Y-264407471D01*
X437863450Y-264428856D01*
X437983616Y-264438177D01*
X438897094Y-264526783D01*
X439739605Y-264664814D01*
X440502849Y-264850505D01*
X441178527Y-265082093D01*
X441346534Y-265152995D01*
X441556936Y-265240023D01*
X441686877Y-265275331D01*
X441750404Y-265258212D01*
X441761566Y-265187963D01*
X441751892Y-265132664D01*
X441655281Y-264856217D01*
X441497282Y-264565426D01*
X441305276Y-264306396D01*
X441193934Y-264193136D01*
X440873747Y-263951791D01*
X440523800Y-263779104D01*
X440119894Y-263665540D01*
X439707557Y-263607580D01*
X439227791Y-263583648D01*
X438818728Y-263611081D01*
X438455018Y-263693199D01*
X438158654Y-263810332D01*
X437987298Y-263906190D01*
X437810426Y-264028535D01*
X437652088Y-264157618D01*
X437536337Y-264273689D01*
X437494180Y-264352821D01*
X437494056Y-264365983D01*
X437398788Y-264365983D01*
X437410842Y-264347550D01*
X437449571Y-264253834D01*
X437452775Y-264245470D01*
X437457489Y-264237304D01*
X437571964Y-264038989D01*
X437765907Y-263877421D01*
X437768407Y-263875859D01*
X438031932Y-263716317D01*
X438230775Y-263606019D01*
X438357125Y-263548979D01*
X438403171Y-263540000D01*
X438452933Y-263475383D01*
X438491718Y-263363564D01*
X438498816Y-263337585D01*
X438619431Y-263337585D01*
X438623373Y-263408746D01*
X438659747Y-263441100D01*
X438754504Y-263442901D01*
X438899580Y-263426666D01*
X439080818Y-263417040D01*
X439227791Y-263419765D01*
X439325127Y-263421569D01*
X439604537Y-263437743D01*
X439891081Y-263463052D01*
X440156790Y-263494987D01*
X440373696Y-263531037D01*
X440513830Y-263568694D01*
X440522125Y-263572260D01*
X440628238Y-263608661D01*
X440681132Y-263607593D01*
X440689851Y-263548666D01*
X440699673Y-263398541D01*
X440709894Y-263173406D01*
X440719811Y-262889448D01*
X440728720Y-262562853D01*
X440731118Y-262457749D01*
X440740399Y-262067703D01*
X440751360Y-261664790D01*
X440763080Y-261279322D01*
X440774641Y-260941613D01*
X440784800Y-260689006D01*
X440794434Y-260463873D01*
X440806944Y-260152515D01*
X440821526Y-259776043D01*
X440837373Y-259355570D01*
X440853680Y-258912206D01*
X440869643Y-258467062D01*
X440870824Y-258433615D01*
X440886042Y-258018492D01*
X440901374Y-257629891D01*
X440916132Y-257283119D01*
X440929627Y-256993483D01*
X440941172Y-256776292D01*
X440950077Y-256646852D01*
X440952002Y-256628427D01*
X440936239Y-256426865D01*
X440852186Y-256242827D01*
X440719921Y-256107412D01*
X440580728Y-256053293D01*
X440416870Y-256071870D01*
X440285588Y-256174559D01*
X440181248Y-256368623D01*
X440098215Y-256661322D01*
X440094164Y-256680379D01*
X439964105Y-257290610D01*
X439834712Y-257874413D01*
X439712627Y-258406765D01*
X439652027Y-258669146D01*
X439594680Y-258919990D01*
X439548649Y-259123908D01*
X439529108Y-259212262D01*
X439491944Y-259381074D01*
X439440797Y-259610802D01*
X439385433Y-259857623D01*
X439373545Y-259910359D01*
X439319490Y-260152630D01*
X439252315Y-260457693D01*
X439181286Y-260783302D01*
X439126223Y-261038055D01*
X439051193Y-261382968D01*
X438970424Y-261747368D01*
X438888958Y-262109149D01*
X438811838Y-262446203D01*
X438744106Y-262736422D01*
X438690806Y-262957700D01*
X438666895Y-263051797D01*
X438633674Y-263212601D01*
X438619431Y-263337585D01*
X438498816Y-263337585D01*
X438524176Y-263244774D01*
X438535393Y-263186046D01*
X438556799Y-263066310D01*
X438594337Y-262882095D01*
X438639300Y-262675898D01*
X438685602Y-262467303D01*
X438725192Y-262283549D01*
X438749235Y-262165750D01*
X438771194Y-262059786D01*
X438811097Y-261876813D01*
X438862852Y-261644499D01*
X438908900Y-261440803D01*
X438966572Y-261182416D01*
X439017626Y-260944704D01*
X439055662Y-260757982D01*
X439072034Y-260668132D01*
X439098409Y-260533127D01*
X439179651Y-260178138D01*
X439209409Y-260012147D01*
X439282939Y-259677357D01*
X439309268Y-259555929D01*
X439316546Y-259530904D01*
X439362439Y-259355412D01*
X439394334Y-259193243D01*
X439423138Y-259038746D01*
X439450407Y-258932823D01*
X439487234Y-258785261D01*
X439500389Y-258710193D01*
X439517390Y-258620197D01*
X439554055Y-258446071D01*
X439605927Y-258208340D01*
X439668550Y-257927529D01*
X439712021Y-257735518D01*
X439779215Y-257438717D01*
X439838705Y-257172680D01*
X439886011Y-256957704D01*
X439916650Y-256814084D01*
X439925455Y-256768922D01*
X439947912Y-256643435D01*
X439978868Y-256481280D01*
X439982015Y-256465305D01*
X439996268Y-256322061D01*
X439957877Y-256211106D01*
X439871972Y-256102053D01*
X439721154Y-255908934D01*
X439585755Y-255693744D01*
X439485487Y-255491085D01*
X439441269Y-255345877D01*
X439410526Y-254985543D01*
X439531278Y-254985543D01*
X439538279Y-255248858D01*
X439568894Y-255442533D01*
X439629104Y-255602869D01*
X439634851Y-255614312D01*
X439739850Y-255783860D01*
X439862707Y-255935086D01*
X439887061Y-255959074D01*
X440031904Y-256093380D01*
X440202206Y-255988128D01*
X440433863Y-255895643D01*
X440580728Y-255891901D01*
X440666306Y-255889721D01*
X440874736Y-255964202D01*
X441034353Y-256112922D01*
X441085863Y-256207692D01*
X441139838Y-256312582D01*
X441206053Y-256355058D01*
X441311639Y-256338921D01*
X441483727Y-256267976D01*
X441491326Y-256264530D01*
X441761872Y-256085008D01*
X441976451Y-255826917D01*
X442125589Y-255508501D01*
X442199816Y-255148003D01*
X442203030Y-254893666D01*
X442132242Y-254536661D01*
X441977039Y-254232386D01*
X441750405Y-253988315D01*
X441465321Y-253811919D01*
X441134772Y-253710671D01*
X440771739Y-253692043D01*
X440389207Y-253763507D01*
X440294721Y-253795341D01*
X439993601Y-253935660D01*
X439776661Y-254112413D01*
X439633921Y-254341160D01*
X439555401Y-254637460D01*
X439531278Y-254985543D01*
X439410526Y-254985543D01*
X439403627Y-254904681D01*
X439427713Y-254542826D01*
X439517936Y-254248829D01*
X439678705Y-254011206D01*
X439914431Y-253818473D01*
X440059157Y-253736677D01*
X440432331Y-253599332D01*
X440771739Y-253555965D01*
X440818490Y-253549991D01*
X441196585Y-253586453D01*
G37*
%TD*%
D13*
%TO.C,C52*%
X242500000Y-255280000D03*
X242500000Y-254320000D03*
%TD*%
D14*
%TO.C,R62*%
X367400000Y-172437500D03*
X367400000Y-178362500D03*
%TD*%
D15*
%TO.C,R51*%
X276875000Y-152600000D03*
X278525000Y-152600000D03*
%TD*%
D13*
%TO.C,C53*%
X243500000Y-255280000D03*
X243500000Y-254320000D03*
%TD*%
D16*
%TO.C,R107*%
X169075000Y-240800000D03*
X167425000Y-240800000D03*
%TD*%
D17*
%TO.C,R122*%
X271537501Y-227500000D03*
X265612501Y-227500000D03*
%TD*%
D18*
%TO.C,J6*%
X301935000Y-107935000D03*
X301935000Y-102065000D03*
X296065000Y-107935000D03*
X296065000Y-102065000D03*
%TD*%
D16*
%TO.C,R139*%
X345075001Y-240800000D03*
X343425001Y-240800000D03*
%TD*%
D15*
%TO.C,R70*%
X351675000Y-163200000D03*
X353325000Y-163200000D03*
%TD*%
D19*
%TO.C,R110*%
X197350000Y-224825000D03*
X197350000Y-223175000D03*
%TD*%
D20*
%TO.C,C64*%
X204100000Y-235250000D03*
X204100000Y-228750000D03*
%TD*%
D21*
%TO.C,Q31*%
X173675000Y-238988000D03*
X173675000Y-240012000D03*
D22*
X174675000Y-239500000D03*
X175675000Y-239500000D03*
X176675000Y-239500000D03*
D23*
X174175000Y-239500000D03*
X175175000Y-239500000D03*
X176175000Y-239500000D03*
%TD*%
D24*
%TO.C,R85*%
X225200000Y-254095000D03*
X225200000Y-255745000D03*
%TD*%
D19*
%TO.C,R81*%
X240100000Y-261125000D03*
X240100000Y-259475000D03*
%TD*%
D24*
%TO.C,R83*%
X244100000Y-259475000D03*
X244100000Y-261125000D03*
%TD*%
D17*
%TO.C,R123*%
X271537501Y-231500000D03*
X265612501Y-231500000D03*
%TD*%
D25*
%TO.C,J18*%
X344655000Y-175080000D03*
X341345000Y-172540000D03*
X344655000Y-170000000D03*
X341345000Y-167460000D03*
X344655000Y-164920000D03*
%TD*%
D21*
%TO.C,Q38*%
X265875001Y-239000000D03*
X265875001Y-240024000D03*
D22*
X266875001Y-239512000D03*
X267875001Y-239512000D03*
X268875001Y-239512000D03*
D23*
X266375001Y-239512000D03*
X267375001Y-239512000D03*
X268375001Y-239512000D03*
%TD*%
D26*
%TO.C,C63*%
X172325000Y-248000000D03*
X165825000Y-248000000D03*
%TD*%
D24*
%TO.C,R112*%
X199450000Y-223175000D03*
X199450000Y-224825000D03*
%TD*%
D17*
%TO.C,R108*%
X196037500Y-234725000D03*
X190112500Y-234725000D03*
%TD*%
D27*
%TO.C,J8*%
X454412500Y-185240000D03*
X459412500Y-185240000D03*
D28*
X454412500Y-180160000D03*
X459412500Y-180160000D03*
X454412500Y-175080000D03*
X459412500Y-175080000D03*
X454412500Y-170000000D03*
X459412500Y-170000000D03*
X454412500Y-164920000D03*
X459412500Y-164920000D03*
X454412500Y-159840000D03*
X459412500Y-159840000D03*
%TD*%
D19*
%TO.C,R93*%
X328500000Y-261125000D03*
X328500000Y-259475000D03*
%TD*%
D29*
%TO.C,D7*%
X221000000Y-189600000D03*
X221000000Y-196400000D03*
%TD*%
D13*
%TO.C,C61*%
X327000000Y-245980000D03*
X327000000Y-245020000D03*
%TD*%
D30*
%TO.C,U6*%
X272225000Y-172500000D03*
X271575000Y-172500000D03*
X270925000Y-172500000D03*
X270275000Y-172500000D03*
X269625000Y-172500000D03*
X268975000Y-172500000D03*
X268325000Y-172500000D03*
X267675000Y-172500000D03*
X267025000Y-172500000D03*
X266375000Y-172500000D03*
D31*
X268000000Y-175400000D03*
D30*
X265725000Y-172500000D03*
X265075000Y-172500000D03*
X264425000Y-172500000D03*
X263775000Y-172500000D03*
X263775000Y-178300000D03*
X264425000Y-178300000D03*
X265075000Y-178300000D03*
X265725000Y-178300000D03*
X266375000Y-178300000D03*
X267025000Y-178300000D03*
X267675000Y-178300000D03*
X268325000Y-178300000D03*
X268975000Y-178300000D03*
X269625000Y-178300000D03*
X270275000Y-178300000D03*
X270925000Y-178300000D03*
X271575000Y-178300000D03*
X272225000Y-178300000D03*
%TD*%
D13*
%TO.C,C57*%
X240000000Y-245980000D03*
X240000000Y-245020000D03*
%TD*%
D16*
%TO.C,R21*%
X180150000Y-186000000D03*
X178500000Y-186000000D03*
%TD*%
%TO.C,R148*%
X353325000Y-161500000D03*
X351675000Y-161500000D03*
%TD*%
D32*
%TO.C,C70*%
X261875000Y-219400001D03*
X260325000Y-219400001D03*
%TD*%
%TO.C,C76*%
X349875000Y-215400001D03*
X348325000Y-215400001D03*
%TD*%
D33*
%TO.C,C25*%
X252000000Y-201977780D03*
D34*
X252000000Y-194477780D03*
%TD*%
D15*
%TO.C,R76*%
X190175000Y-214000000D03*
X191825000Y-214000000D03*
%TD*%
D30*
%TO.C,U7*%
X360225000Y-172500000D03*
X359575000Y-172500000D03*
X358925000Y-172500000D03*
X358275000Y-172500000D03*
X357625000Y-172500000D03*
X356975000Y-172500000D03*
X356325000Y-172500000D03*
X355675000Y-172500000D03*
X355025000Y-172500000D03*
X354375000Y-172500000D03*
D31*
X356000000Y-175400000D03*
D30*
X353725000Y-172500000D03*
X353075000Y-172500000D03*
X352425000Y-172500000D03*
X351775000Y-172500000D03*
X351775000Y-178300000D03*
X352425000Y-178300000D03*
X353075000Y-178300000D03*
X353725000Y-178300000D03*
X354375000Y-178300000D03*
X355025000Y-178300000D03*
X355675000Y-178300000D03*
X356325000Y-178300000D03*
X356975000Y-178300000D03*
X357625000Y-178300000D03*
X358275000Y-178300000D03*
X358925000Y-178300000D03*
X359575000Y-178300000D03*
X360225000Y-178300000D03*
%TD*%
D24*
%TO.C,R79*%
X228600000Y-259495000D03*
X228600000Y-261145000D03*
%TD*%
D35*
%TO.C,K1*%
X442350000Y-235000000D03*
X442350000Y-195000000D03*
D36*
X423600000Y-230200000D03*
X423600000Y-225700000D03*
X423600000Y-204300000D03*
X423600000Y-199800000D03*
%TD*%
D37*
%TO.C,Q3*%
X199988000Y-184800000D03*
X201012000Y-184800000D03*
D38*
X200500000Y-183800000D03*
X200500000Y-182800000D03*
X200500000Y-181800000D03*
D39*
X200500000Y-184300000D03*
X200500000Y-183300000D03*
X200500000Y-182300000D03*
%TD*%
D21*
%TO.C,Q42*%
X353875001Y-239000000D03*
X353875001Y-240024000D03*
D22*
X354875001Y-239512000D03*
X355875001Y-239512000D03*
X356875001Y-239512000D03*
D23*
X354375001Y-239512000D03*
X355375001Y-239512000D03*
X356375001Y-239512000D03*
%TD*%
D24*
%TO.C,R143*%
X373350000Y-219674999D03*
X373350000Y-221324999D03*
%TD*%
D21*
%TO.C,Q39*%
X349675001Y-238988000D03*
X349675001Y-240012000D03*
D22*
X350675001Y-239500000D03*
X351675001Y-239500000D03*
X352675001Y-239500000D03*
D23*
X350175001Y-239500000D03*
X351175001Y-239500000D03*
X352175001Y-239500000D03*
%TD*%
D16*
%TO.C,R59*%
X359525000Y-186000000D03*
X357875000Y-186000000D03*
%TD*%
%TO.C,R151*%
X368325000Y-212500000D03*
X366675000Y-212500000D03*
%TD*%
D32*
%TO.C,C71*%
X261875000Y-215400001D03*
X260325000Y-215400001D03*
%TD*%
D20*
%TO.C,C69*%
X292100000Y-235249999D03*
X292100000Y-228749999D03*
%TD*%
D17*
%TO.C,R105*%
X183537500Y-227500000D03*
X177612500Y-227500000D03*
%TD*%
D40*
%TO.C,D5*%
X451000000Y-229650000D03*
X451000000Y-226350000D03*
%TD*%
D14*
%TO.C,R20*%
X191600000Y-172437500D03*
X191600000Y-178362500D03*
%TD*%
D21*
%TO.C,Q36*%
X270075000Y-239000000D03*
X270075000Y-240024000D03*
D22*
X271075000Y-239512000D03*
X272075000Y-239512000D03*
X273075000Y-239512000D03*
D23*
X270575000Y-239512000D03*
X271575000Y-239512000D03*
X272575000Y-239512000D03*
%TD*%
D16*
%TO.C,R124*%
X257075001Y-240800000D03*
X255425001Y-240800000D03*
%TD*%
D15*
%TO.C,R117*%
X172275000Y-223000000D03*
X173925000Y-223000000D03*
%TD*%
D41*
%TO.C,J12*%
X456725000Y-228000000D03*
D42*
X459265000Y-228000000D03*
%TD*%
D43*
%TO.C,C41*%
X383000000Y-191250000D03*
X383000000Y-204750000D03*
%TD*%
D15*
%TO.C,R132*%
X260275000Y-223225000D03*
X261925000Y-223225000D03*
%TD*%
D44*
%TO.C,C32*%
X179700000Y-182025000D03*
X179700000Y-183575000D03*
%TD*%
D29*
%TO.C,D19*%
X292075000Y-244599999D03*
X292075000Y-251399999D03*
%TD*%
D24*
%TO.C,R87*%
X240600000Y-254375000D03*
X240600000Y-256025000D03*
%TD*%
D16*
%TO.C,R24*%
X194025000Y-155800000D03*
X192375000Y-155800000D03*
%TD*%
D45*
%TO.C,U10*%
X320850000Y-245000000D03*
X320850000Y-245500000D03*
X320850000Y-246000000D03*
X320850000Y-246500000D03*
X320850000Y-247000000D03*
X325150000Y-247000000D03*
X325150000Y-246500000D03*
X325150000Y-246000000D03*
X325150000Y-245500000D03*
X325150000Y-245000000D03*
%TD*%
D46*
%TO.C,C42*%
X407250000Y-132000000D03*
X420750000Y-132000000D03*
%TD*%
D15*
%TO.C,R92*%
X278675000Y-214000000D03*
X280325000Y-214000000D03*
%TD*%
D29*
%TO.C,D10*%
X309000000Y-189600000D03*
X309000000Y-196400000D03*
%TD*%
D46*
%TO.C,C36*%
X302250000Y-132000000D03*
X315750000Y-132000000D03*
%TD*%
D24*
%TO.C,R128*%
X285350000Y-219674999D03*
X285350000Y-221324999D03*
%TD*%
D16*
%TO.C,R66*%
X370025000Y-155800000D03*
X368375000Y-155800000D03*
%TD*%
D47*
%TO.C,U12*%
X183500000Y-223950000D03*
X183500000Y-223300000D03*
X183500000Y-222650000D03*
X183500000Y-222000000D03*
X183500000Y-221350000D03*
X183500000Y-220700000D03*
X183500000Y-220050000D03*
X183500000Y-219400000D03*
X183500000Y-218750000D03*
X183500000Y-218100000D03*
D48*
X180600000Y-219725000D03*
D47*
X183500000Y-217450000D03*
X183500000Y-216800000D03*
X183500000Y-216150000D03*
X183500000Y-215500000D03*
X177700000Y-215500000D03*
X177700000Y-216150000D03*
X177700000Y-216800000D03*
X177700000Y-217450000D03*
X177700000Y-218100000D03*
X177700000Y-218750000D03*
X177700000Y-219400000D03*
X177700000Y-220050000D03*
X177700000Y-220700000D03*
X177700000Y-221350000D03*
X177700000Y-222000000D03*
X177700000Y-222650000D03*
X177700000Y-223300000D03*
X177700000Y-223950000D03*
%TD*%
D49*
%TO.C,Q18*%
X265637500Y-167450000D03*
X265637500Y-165550000D03*
X263362500Y-166500000D03*
%TD*%
D15*
%TO.C,R147*%
X348275000Y-223225000D03*
X349925000Y-223225000D03*
%TD*%
D18*
%TO.C,J5*%
X216935000Y-107935000D03*
X216935000Y-102065000D03*
X211065000Y-107935000D03*
X211065000Y-102065000D03*
%TD*%
D24*
%TO.C,R80*%
X230400000Y-259495000D03*
X230400000Y-261145000D03*
%TD*%
D50*
%TO.C,D9*%
X200600000Y-115500000D03*
X207400000Y-115500000D03*
%TD*%
D15*
%TO.C,R28*%
X176175000Y-163200000D03*
X177825000Y-163200000D03*
%TD*%
%TO.C,R68*%
X364875000Y-155800000D03*
X366525000Y-155800000D03*
%TD*%
D51*
%TO.C,C72*%
X262080000Y-221725000D03*
X261120000Y-221725000D03*
%TD*%
D33*
%TO.C,C27*%
X164000000Y-201977780D03*
D34*
X164000000Y-194477780D03*
%TD*%
D49*
%TO.C,Q28*%
X192137500Y-217950000D03*
X192137500Y-216050000D03*
X189862500Y-217000000D03*
%TD*%
D16*
%TO.C,R63*%
X356150000Y-186000000D03*
X354500000Y-186000000D03*
%TD*%
D52*
%TO.C,C54*%
X226990000Y-252850000D03*
X227950000Y-252850000D03*
%TD*%
D15*
%TO.C,R71*%
X364875000Y-152600000D03*
X366525000Y-152600000D03*
%TD*%
D14*
%TO.C,R22*%
X195500000Y-161637500D03*
X195500000Y-167562500D03*
%TD*%
D24*
%TO.C,R130*%
X287450000Y-219674999D03*
X287450000Y-221324999D03*
%TD*%
D43*
%TO.C,C35*%
X295000000Y-191250000D03*
X295000000Y-204750000D03*
%TD*%
D52*
%TO.C,C55*%
X242520000Y-253100000D03*
X243480000Y-253100000D03*
%TD*%
D13*
%TO.C,C62*%
X328000000Y-245980000D03*
X328000000Y-245020000D03*
%TD*%
D24*
%TO.C,R95*%
X332600000Y-259475000D03*
X332600000Y-261125000D03*
%TD*%
D26*
%TO.C,C73*%
X348325001Y-248000000D03*
X341825001Y-248000000D03*
%TD*%
D46*
%TO.C,C30*%
X197250000Y-132000000D03*
X210750000Y-132000000D03*
%TD*%
D53*
%TO.C,J21*%
X327080000Y-234345000D03*
X324540000Y-237655000D03*
X322000000Y-234345000D03*
X319460000Y-237655000D03*
X316920000Y-234345000D03*
%TD*%
D25*
%TO.C,J23*%
X249345000Y-212920000D03*
X252655000Y-215460000D03*
X249345000Y-218000000D03*
X252655000Y-220540000D03*
X249345000Y-223080000D03*
%TD*%
D16*
%TO.C,R116*%
X265425000Y-161500000D03*
X263775000Y-161500000D03*
%TD*%
D32*
%TO.C,C75*%
X349875000Y-219400001D03*
X348325000Y-219400001D03*
%TD*%
D54*
%TO.C,C34*%
X182000000Y-182320000D03*
X182000000Y-183280000D03*
%TD*%
D14*
%TO.C,R44*%
X283500000Y-161637500D03*
X283500000Y-167562500D03*
%TD*%
D55*
%TO.C,Q23*%
X390012000Y-173400000D03*
X388988000Y-173400000D03*
D56*
X389500000Y-174400000D03*
X389500000Y-175400000D03*
X389500000Y-176400000D03*
D57*
X389500000Y-173900000D03*
X389500000Y-174900000D03*
X389500000Y-175900000D03*
%TD*%
D58*
%TO.C,J15*%
X354400000Y-324305000D03*
D59*
X359480000Y-324305000D03*
X364560000Y-324305000D03*
X369640000Y-324305000D03*
X374720000Y-324305000D03*
X379800000Y-324305000D03*
%TD*%
D26*
%TO.C,C68*%
X260325001Y-248000000D03*
X253825001Y-248000000D03*
%TD*%
D50*
%TO.C,D12*%
X305600000Y-115500000D03*
X312400000Y-115500000D03*
%TD*%
D24*
%TO.C,R96*%
X334500000Y-259475000D03*
X334500000Y-261125000D03*
%TD*%
%TO.C,R88*%
X245400000Y-254375000D03*
X245400000Y-256025000D03*
%TD*%
D49*
%TO.C,Q9*%
X177737500Y-167150000D03*
X177737500Y-165250000D03*
X175462500Y-166200000D03*
%TD*%
D37*
%TO.C,Q11*%
X287988000Y-180600000D03*
X289012000Y-180600000D03*
D38*
X288500000Y-179600000D03*
X288500000Y-178600000D03*
X288500000Y-177600000D03*
D39*
X288500000Y-180100000D03*
X288500000Y-179100000D03*
X288500000Y-178100000D03*
%TD*%
D13*
%TO.C,C58*%
X331000000Y-255280000D03*
X331000000Y-254320000D03*
%TD*%
D25*
%TO.C,J17*%
X256655000Y-175080000D03*
X253345000Y-172540000D03*
X256655000Y-170000000D03*
X253345000Y-167460000D03*
X256655000Y-164920000D03*
%TD*%
D17*
%TO.C,R137*%
X359537501Y-227500000D03*
X353612501Y-227500000D03*
%TD*%
D50*
%TO.C,D20*%
X363675000Y-253000000D03*
X370475000Y-253000000D03*
%TD*%
D32*
%TO.C,C65*%
X173875000Y-219400000D03*
X172325000Y-219400000D03*
%TD*%
D50*
%TO.C,D16*%
X187675000Y-253000000D03*
X194475000Y-253000000D03*
%TD*%
D55*
%TO.C,Q25*%
X390012000Y-181800000D03*
X388988000Y-181800000D03*
D56*
X389500000Y-182800000D03*
X389500000Y-183800000D03*
X389500000Y-184800000D03*
D57*
X389500000Y-182300000D03*
X389500000Y-183300000D03*
X389500000Y-184300000D03*
%TD*%
D15*
%TO.C,R26*%
X188875000Y-155800000D03*
X190525000Y-155800000D03*
%TD*%
D13*
%TO.C,C56*%
X239000000Y-245980000D03*
X239000000Y-245020000D03*
%TD*%
%TO.C,C59*%
X332000000Y-255280000D03*
X332000000Y-254320000D03*
%TD*%
D29*
%TO.C,D21*%
X380075000Y-244599999D03*
X380075000Y-251399999D03*
%TD*%
D21*
%TO.C,Q40*%
X358075000Y-239000000D03*
X358075000Y-240024000D03*
D22*
X359075000Y-239512000D03*
X360075000Y-239512000D03*
X361075000Y-239512000D03*
D23*
X358575000Y-239512000D03*
X359575000Y-239512000D03*
X360575000Y-239512000D03*
%TD*%
D19*
%TO.C,R127*%
X285350000Y-224824999D03*
X285350000Y-223174999D03*
%TD*%
D25*
%TO.C,J16*%
X168655000Y-175080000D03*
X165345000Y-172540000D03*
X168655000Y-170000000D03*
X165345000Y-167460000D03*
X168655000Y-164920000D03*
%TD*%
D33*
%TO.C,C23*%
X340000000Y-201977780D03*
D34*
X340000000Y-194477780D03*
%TD*%
D14*
%TO.C,R41*%
X275600000Y-172437500D03*
X275600000Y-178362500D03*
%TD*%
D13*
%TO.C,C50*%
X227000000Y-255000000D03*
X227000000Y-254040000D03*
%TD*%
D55*
%TO.C,Q16*%
X302012000Y-181800000D03*
X300988000Y-181800000D03*
D56*
X301500000Y-182800000D03*
X301500000Y-183800000D03*
X301500000Y-184800000D03*
D57*
X301500000Y-182300000D03*
X301500000Y-183300000D03*
X301500000Y-184300000D03*
%TD*%
D21*
%TO.C,Q32*%
X182075000Y-239000000D03*
X182075000Y-240024000D03*
D22*
X183075000Y-239512000D03*
X184075000Y-239512000D03*
X185075000Y-239512000D03*
D23*
X182575000Y-239512000D03*
X183575000Y-239512000D03*
X184575000Y-239512000D03*
%TD*%
D19*
%TO.C,R77*%
X224800000Y-261145000D03*
X224800000Y-259495000D03*
%TD*%
D44*
%TO.C,C45*%
X351800000Y-182025000D03*
X351800000Y-183575000D03*
%TD*%
D52*
%TO.C,C60*%
X331040000Y-253000000D03*
X332000000Y-253000000D03*
%TD*%
D24*
%TO.C,R111*%
X197350000Y-219675000D03*
X197350000Y-221325000D03*
%TD*%
D19*
%TO.C,R53*%
X271200000Y-183625000D03*
X271200000Y-181975000D03*
%TD*%
D24*
%TO.C,R113*%
X199450000Y-219675000D03*
X199450000Y-221325000D03*
%TD*%
D21*
%TO.C,Q35*%
X261675001Y-238988000D03*
X261675001Y-240012000D03*
D22*
X262675001Y-239500000D03*
X263675001Y-239500000D03*
X264675001Y-239500000D03*
D23*
X262175001Y-239500000D03*
X263175001Y-239500000D03*
X264175001Y-239500000D03*
%TD*%
D50*
%TO.C,D18*%
X275675000Y-253000000D03*
X282475000Y-253000000D03*
%TD*%
D43*
%TO.C,C29*%
X207000000Y-191250000D03*
X207000000Y-204750000D03*
%TD*%
D47*
%TO.C,U16*%
X359500000Y-223950000D03*
X359500000Y-223300000D03*
X359500000Y-222650000D03*
X359500000Y-222000000D03*
X359500000Y-221350000D03*
X359500000Y-220700000D03*
X359500000Y-220050000D03*
X359500000Y-219400000D03*
X359500000Y-218750000D03*
X359500000Y-218100000D03*
D48*
X356600000Y-219725000D03*
D47*
X359500000Y-217450000D03*
X359500000Y-216800000D03*
X359500000Y-216150000D03*
X359500000Y-215500000D03*
X353700000Y-215500000D03*
X353700000Y-216150000D03*
X353700000Y-216800000D03*
X353700000Y-217450000D03*
X353700000Y-218100000D03*
X353700000Y-218750000D03*
X353700000Y-219400000D03*
X353700000Y-220050000D03*
X353700000Y-220700000D03*
X353700000Y-221350000D03*
X353700000Y-222000000D03*
X353700000Y-222650000D03*
X353700000Y-223300000D03*
X353700000Y-223950000D03*
%TD*%
D37*
%TO.C,Q2*%
X199988000Y-180600000D03*
X201012000Y-180600000D03*
D38*
X200500000Y-179600000D03*
X200500000Y-178600000D03*
X200500000Y-177600000D03*
D39*
X200500000Y-180100000D03*
X200500000Y-179100000D03*
X200500000Y-178100000D03*
%TD*%
D24*
%TO.C,R145*%
X375450000Y-219674999D03*
X375450000Y-221324999D03*
%TD*%
D16*
%TO.C,R149*%
X191825000Y-212500000D03*
X190175000Y-212500000D03*
%TD*%
D15*
%TO.C,R103*%
X167425000Y-242500000D03*
X169075000Y-242500000D03*
%TD*%
D14*
%TO.C,R19*%
X187600000Y-172437500D03*
X187600000Y-178362500D03*
%TD*%
D55*
%TO.C,Q7*%
X214012000Y-181800000D03*
X212988000Y-181800000D03*
D56*
X213500000Y-182800000D03*
X213500000Y-183800000D03*
X213500000Y-184800000D03*
D57*
X213500000Y-182300000D03*
X213500000Y-183300000D03*
X213500000Y-184300000D03*
%TD*%
D24*
%TO.C,R98*%
X334000000Y-254375000D03*
X334000000Y-256025000D03*
%TD*%
D45*
%TO.C,U9*%
X232850000Y-245000000D03*
X232850000Y-245500000D03*
X232850000Y-246000000D03*
X232850000Y-246500000D03*
X232850000Y-247000000D03*
X237150000Y-247000000D03*
X237150000Y-246500000D03*
X237150000Y-246000000D03*
X237150000Y-245500000D03*
X237150000Y-245000000D03*
%TD*%
D24*
%TO.C,R97*%
X329000000Y-254375000D03*
X329000000Y-256025000D03*
%TD*%
D19*
%TO.C,R82*%
X241900000Y-261125000D03*
X241900000Y-259475000D03*
%TD*%
%TO.C,R142*%
X373350000Y-224824999D03*
X373350000Y-223174999D03*
%TD*%
D60*
%TO.C,U15*%
X340800001Y-288475000D03*
X340800001Y-308475000D03*
D61*
X357050001Y-261225000D03*
X377050001Y-261225000D03*
D60*
X393300001Y-288475000D03*
X393300001Y-308475000D03*
D62*
X359550001Y-260275000D03*
X362550001Y-260275000D03*
X365550001Y-260275000D03*
X368550001Y-260275000D03*
X371550001Y-260275000D03*
X374550001Y-260275000D03*
D63*
X339850001Y-290975000D03*
X339850001Y-293975000D03*
X339850001Y-296975000D03*
X339850001Y-299975000D03*
X339850001Y-302975000D03*
X339850001Y-305975000D03*
X394250001Y-305975000D03*
X394250001Y-302975000D03*
X394250001Y-299975000D03*
X394250001Y-296975000D03*
X394250001Y-293975000D03*
X394250001Y-290975000D03*
%TD*%
D55*
%TO.C,Q6*%
X214012000Y-177600000D03*
X212988000Y-177600000D03*
D56*
X213500000Y-178600000D03*
X213500000Y-179600000D03*
X213500000Y-180600000D03*
D57*
X213500000Y-178100000D03*
X213500000Y-179100000D03*
X213500000Y-180100000D03*
%TD*%
D37*
%TO.C,Q10*%
X287988000Y-176400000D03*
X289012000Y-176400000D03*
D38*
X288500000Y-175400000D03*
X288500000Y-174400000D03*
X288500000Y-173400000D03*
D39*
X288500000Y-175900000D03*
X288500000Y-174900000D03*
X288500000Y-173900000D03*
%TD*%
D14*
%TO.C,R61*%
X363400000Y-172437500D03*
X363400000Y-178362500D03*
%TD*%
D49*
%TO.C,Q27*%
X354137500Y-166950000D03*
X354137500Y-165050000D03*
X351862500Y-166000000D03*
%TD*%
D21*
%TO.C,Q34*%
X177875000Y-239000000D03*
X177875000Y-240024000D03*
D22*
X178875000Y-239512000D03*
X179875000Y-239512000D03*
X180875000Y-239512000D03*
D23*
X178375000Y-239512000D03*
X179375000Y-239512000D03*
X180375000Y-239512000D03*
%TD*%
D29*
%TO.C,D13*%
X397000000Y-189600000D03*
X397000000Y-196400000D03*
%TD*%
D55*
%TO.C,Q5*%
X214012000Y-173400000D03*
X212988000Y-173400000D03*
D56*
X213500000Y-174400000D03*
X213500000Y-175400000D03*
X213500000Y-176400000D03*
D57*
X213500000Y-173900000D03*
X213500000Y-174900000D03*
X213500000Y-175900000D03*
%TD*%
D58*
%TO.C,J13*%
X178300000Y-324305000D03*
D59*
X183380000Y-324305000D03*
X188460000Y-324305000D03*
X193540000Y-324305000D03*
X198620000Y-324305000D03*
X203700000Y-324305000D03*
%TD*%
D24*
%TO.C,R84*%
X246000000Y-259475000D03*
X246000000Y-261125000D03*
%TD*%
D55*
%TO.C,Q15*%
X302012000Y-177600000D03*
X300988000Y-177600000D03*
D56*
X301500000Y-178600000D03*
X301500000Y-179600000D03*
X301500000Y-180600000D03*
D57*
X301500000Y-178100000D03*
X301500000Y-179100000D03*
X301500000Y-180100000D03*
%TD*%
D53*
%TO.C,J20*%
X239080000Y-234345000D03*
X236540000Y-237655000D03*
X234000000Y-234345000D03*
X231460000Y-237655000D03*
X228920000Y-234345000D03*
%TD*%
D44*
%TO.C,C33*%
X175800000Y-182025000D03*
X175800000Y-183575000D03*
%TD*%
D16*
%TO.C,R39*%
X271525000Y-186000000D03*
X269875000Y-186000000D03*
%TD*%
D64*
%TO.C,C28*%
X455632323Y-212000000D03*
D65*
X460632323Y-212000000D03*
%TD*%
D51*
%TO.C,C67*%
X174080000Y-221725000D03*
X173120000Y-221725000D03*
%TD*%
D16*
%TO.C,R46*%
X282025000Y-155800000D03*
X280375000Y-155800000D03*
%TD*%
D25*
%TO.C,J22*%
X161345000Y-212920000D03*
X164655000Y-215460000D03*
X161345000Y-218000000D03*
X164655000Y-220540000D03*
X161345000Y-223080000D03*
%TD*%
D37*
%TO.C,Q20*%
X375988000Y-180600000D03*
X377012000Y-180600000D03*
D38*
X376500000Y-179600000D03*
X376500000Y-178600000D03*
X376500000Y-177600000D03*
D39*
X376500000Y-180100000D03*
X376500000Y-179100000D03*
X376500000Y-178100000D03*
%TD*%
D37*
%TO.C,Q21*%
X375988000Y-184800000D03*
X377012000Y-184800000D03*
D38*
X376500000Y-183800000D03*
X376500000Y-182800000D03*
X376500000Y-181800000D03*
D39*
X376500000Y-184300000D03*
X376500000Y-183300000D03*
X376500000Y-182300000D03*
%TD*%
D50*
%TO.C,D15*%
X410600000Y-115500000D03*
X417400000Y-115500000D03*
%TD*%
D19*
%TO.C,R33*%
X183200000Y-183625000D03*
X183200000Y-181975000D03*
%TD*%
D37*
%TO.C,Q12*%
X287988000Y-184800000D03*
X289012000Y-184800000D03*
D38*
X288500000Y-183800000D03*
X288500000Y-182800000D03*
X288500000Y-181800000D03*
D39*
X288500000Y-184300000D03*
X288500000Y-183300000D03*
X288500000Y-182300000D03*
%TD*%
D37*
%TO.C,Q1*%
X199988000Y-176400000D03*
X201012000Y-176400000D03*
D38*
X200500000Y-175400000D03*
X200500000Y-174400000D03*
X200500000Y-173400000D03*
D39*
X200500000Y-175900000D03*
X200500000Y-174900000D03*
X200500000Y-173900000D03*
%TD*%
D15*
%TO.C,R29*%
X188875000Y-152600000D03*
X190525000Y-152600000D03*
%TD*%
D54*
%TO.C,C46*%
X358000000Y-182320000D03*
X358000000Y-183280000D03*
%TD*%
D15*
%TO.C,R27*%
X192375000Y-152600000D03*
X194025000Y-152600000D03*
%TD*%
D44*
%TO.C,C44*%
X355400000Y-182025000D03*
X355400000Y-183575000D03*
%TD*%
%TO.C,C38*%
X267700000Y-182025000D03*
X267700000Y-183575000D03*
%TD*%
D60*
%TO.C,U13*%
X252800001Y-288475000D03*
X252800001Y-308475000D03*
D61*
X269050001Y-261225000D03*
X289050001Y-261225000D03*
D60*
X305300001Y-288475000D03*
X305300001Y-308475000D03*
D62*
X271550001Y-260275000D03*
X274550001Y-260275000D03*
X277550001Y-260275000D03*
X280550001Y-260275000D03*
X283550001Y-260275000D03*
X286550001Y-260275000D03*
D63*
X251850001Y-290975000D03*
X251850001Y-293975000D03*
X251850001Y-296975000D03*
X251850001Y-299975000D03*
X251850001Y-302975000D03*
X251850001Y-305975000D03*
X306250001Y-305975000D03*
X306250001Y-302975000D03*
X306250001Y-299975000D03*
X306250001Y-296975000D03*
X306250001Y-293975000D03*
X306250001Y-290975000D03*
%TD*%
D51*
%TO.C,C77*%
X350080000Y-221725000D03*
X349120000Y-221725000D03*
%TD*%
D54*
%TO.C,C40*%
X270000000Y-182320000D03*
X270000000Y-183280000D03*
%TD*%
D16*
%TO.C,R150*%
X280325000Y-212500000D03*
X278675000Y-212500000D03*
%TD*%
D55*
%TO.C,Q14*%
X302012000Y-173400000D03*
X300988000Y-173400000D03*
D56*
X301500000Y-174400000D03*
X301500000Y-175400000D03*
X301500000Y-176400000D03*
D57*
X301500000Y-173900000D03*
X301500000Y-174900000D03*
X301500000Y-175900000D03*
%TD*%
D55*
%TO.C,Q24*%
X390012000Y-177600000D03*
X388988000Y-177600000D03*
D56*
X389500000Y-178600000D03*
X389500000Y-179600000D03*
X389500000Y-180600000D03*
D57*
X389500000Y-178100000D03*
X389500000Y-179100000D03*
X389500000Y-180100000D03*
%TD*%
D33*
%TO.C,C26*%
X186000000Y-201977780D03*
D34*
X186000000Y-194477780D03*
%TD*%
D60*
%TO.C,U11*%
X164800000Y-288475000D03*
X164800000Y-308475000D03*
D61*
X181050000Y-261225000D03*
X201050000Y-261225000D03*
D60*
X217300000Y-288475000D03*
X217300000Y-308475000D03*
D62*
X183550000Y-260275000D03*
X186550000Y-260275000D03*
X189550000Y-260275000D03*
X192550000Y-260275000D03*
X195550000Y-260275000D03*
X198550000Y-260275000D03*
D63*
X163850000Y-290975000D03*
X163850000Y-293975000D03*
X163850000Y-296975000D03*
X163850000Y-299975000D03*
X163850000Y-302975000D03*
X163850000Y-305975000D03*
X218250000Y-305975000D03*
X218250000Y-302975000D03*
X218250000Y-299975000D03*
X218250000Y-296975000D03*
X218250000Y-293975000D03*
X218250000Y-290975000D03*
%TD*%
D17*
%TO.C,R106*%
X183537500Y-231500000D03*
X177612500Y-231500000D03*
%TD*%
D33*
%TO.C,C24*%
X274000000Y-201977780D03*
D34*
X274000000Y-194477780D03*
%TD*%
D18*
%TO.C,J10*%
X426935000Y-107935000D03*
X426935000Y-102065000D03*
X421065000Y-107935000D03*
X421065000Y-102065000D03*
%TD*%
D37*
%TO.C,Q19*%
X375988000Y-176400000D03*
X377012000Y-176400000D03*
D38*
X376500000Y-175400000D03*
X376500000Y-174400000D03*
X376500000Y-173400000D03*
D39*
X376500000Y-175900000D03*
X376500000Y-174900000D03*
X376500000Y-173900000D03*
%TD*%
D17*
%TO.C,R140*%
X372037500Y-234724999D03*
X366112500Y-234724999D03*
%TD*%
D18*
%TO.C,J4*%
X196935000Y-107935000D03*
X196935000Y-102065000D03*
X191065000Y-107935000D03*
X191065000Y-102065000D03*
%TD*%
D44*
%TO.C,C39*%
X263800000Y-182025000D03*
X263800000Y-183575000D03*
%TD*%
D29*
%TO.C,D17*%
X204075000Y-244600000D03*
X204075000Y-251400000D03*
%TD*%
D18*
%TO.C,J9*%
X406935000Y-107935000D03*
X406935000Y-102065000D03*
X401065000Y-107935000D03*
X401065000Y-102065000D03*
%TD*%
D49*
%TO.C,Q30*%
X368137500Y-217950000D03*
X368137500Y-216050000D03*
X365862500Y-217000000D03*
%TD*%
D15*
%TO.C,R69*%
X368375000Y-152600000D03*
X370025000Y-152600000D03*
%TD*%
D14*
%TO.C,R64*%
X371500000Y-161637500D03*
X371500000Y-167562500D03*
%TD*%
%TO.C,R42*%
X279600000Y-172437500D03*
X279600000Y-178362500D03*
%TD*%
D16*
%TO.C,R17*%
X183525000Y-186000000D03*
X181875000Y-186000000D03*
%TD*%
D27*
%TO.C,J11*%
X454412500Y-147590000D03*
X459412500Y-147590000D03*
D28*
X454412500Y-142510000D03*
X459412500Y-142510000D03*
X454412500Y-137430000D03*
X459412500Y-137430000D03*
X454412500Y-132350000D03*
X459412500Y-132350000D03*
X454412500Y-127270000D03*
X459412500Y-127270000D03*
X454412500Y-122190000D03*
X459412500Y-122190000D03*
%TD*%
D15*
%TO.C,R120*%
X255425001Y-242500000D03*
X257075001Y-242500000D03*
%TD*%
D24*
%TO.C,R86*%
X229800000Y-254095000D03*
X229800000Y-255745000D03*
%TD*%
D15*
%TO.C,R49*%
X280375000Y-152600000D03*
X282025000Y-152600000D03*
%TD*%
D58*
%TO.C,J14*%
X266400000Y-324305000D03*
D59*
X271480000Y-324305000D03*
X276560000Y-324305000D03*
X281640000Y-324305000D03*
X286720000Y-324305000D03*
X291800000Y-324305000D03*
%TD*%
D47*
%TO.C,U14*%
X271500000Y-223950000D03*
X271500000Y-223300000D03*
X271500000Y-222650000D03*
X271500000Y-222000000D03*
X271500000Y-221350000D03*
X271500000Y-220700000D03*
X271500000Y-220050000D03*
X271500000Y-219400000D03*
X271500000Y-218750000D03*
X271500000Y-218100000D03*
D48*
X268600000Y-219725000D03*
D47*
X271500000Y-217450000D03*
X271500000Y-216800000D03*
X271500000Y-216150000D03*
X271500000Y-215500000D03*
X265700000Y-215500000D03*
X265700000Y-216150000D03*
X265700000Y-216800000D03*
X265700000Y-217450000D03*
X265700000Y-218100000D03*
X265700000Y-218750000D03*
X265700000Y-219400000D03*
X265700000Y-220050000D03*
X265700000Y-220700000D03*
X265700000Y-221350000D03*
X265700000Y-222000000D03*
X265700000Y-222650000D03*
X265700000Y-223300000D03*
X265700000Y-223950000D03*
%TD*%
D24*
%TO.C,R129*%
X287450000Y-223174999D03*
X287450000Y-224824999D03*
%TD*%
D66*
%TO.C,R11*%
X455037500Y-202000000D03*
X460962500Y-202000000D03*
%TD*%
D19*
%TO.C,R94*%
X330400000Y-261125000D03*
X330400000Y-259475000D03*
%TD*%
%TO.C,R73*%
X359200000Y-183625000D03*
X359200000Y-181975000D03*
%TD*%
D17*
%TO.C,R125*%
X284037500Y-234724999D03*
X278112500Y-234724999D03*
%TD*%
%TO.C,R138*%
X359537501Y-231500000D03*
X353612501Y-231500000D03*
%TD*%
D18*
%TO.C,J7*%
X321935000Y-107935000D03*
X321935000Y-102065000D03*
X316065000Y-107935000D03*
X316065000Y-102065000D03*
%TD*%
D16*
%TO.C,R43*%
X268150000Y-186000000D03*
X266500000Y-186000000D03*
%TD*%
D19*
%TO.C,R78*%
X226600000Y-261145000D03*
X226600000Y-259495000D03*
%TD*%
D20*
%TO.C,C74*%
X380100000Y-235249999D03*
X380100000Y-228749999D03*
%TD*%
D33*
%TO.C,C22*%
X362000000Y-201977780D03*
D34*
X362000000Y-194477780D03*
%TD*%
D25*
%TO.C,J24*%
X337690000Y-212920000D03*
X341000000Y-215460000D03*
X337690000Y-218000000D03*
X341000000Y-220540000D03*
X337690000Y-223080000D03*
%TD*%
D30*
%TO.C,U5*%
X184225000Y-172500000D03*
X183575000Y-172500000D03*
X182925000Y-172500000D03*
X182275000Y-172500000D03*
X181625000Y-172500000D03*
X180975000Y-172500000D03*
X180325000Y-172500000D03*
X179675000Y-172500000D03*
X179025000Y-172500000D03*
X178375000Y-172500000D03*
D31*
X180000000Y-175400000D03*
D30*
X177725000Y-172500000D03*
X177075000Y-172500000D03*
X176425000Y-172500000D03*
X175775000Y-172500000D03*
X175775000Y-178300000D03*
X176425000Y-178300000D03*
X177075000Y-178300000D03*
X177725000Y-178300000D03*
X178375000Y-178300000D03*
X179025000Y-178300000D03*
X179675000Y-178300000D03*
X180325000Y-178300000D03*
X180975000Y-178300000D03*
X181625000Y-178300000D03*
X182275000Y-178300000D03*
X182925000Y-178300000D03*
X183575000Y-178300000D03*
X184225000Y-178300000D03*
%TD*%
D15*
%TO.C,R50*%
X263775000Y-163200000D03*
X265425000Y-163200000D03*
%TD*%
%TO.C,R48*%
X276875000Y-155800000D03*
X278525000Y-155800000D03*
%TD*%
D32*
%TO.C,C66*%
X173875000Y-215400000D03*
X172325000Y-215400000D03*
%TD*%
D49*
%TO.C,Q29*%
X280137500Y-217950000D03*
X280137500Y-216050000D03*
X277862500Y-217000000D03*
%TD*%
D67*
%TO.C,D6*%
X451000000Y-200350000D03*
X451000000Y-203650000D03*
%TD*%
D24*
%TO.C,R144*%
X375450000Y-223174999D03*
X375450000Y-224824999D03*
%TD*%
D15*
%TO.C,R99*%
X366675000Y-214000000D03*
X368325000Y-214000000D03*
%TD*%
D13*
%TO.C,C51*%
X228000000Y-255000000D03*
X228000000Y-254040000D03*
%TD*%
D15*
%TO.C,R135*%
X343425001Y-242500000D03*
X345075001Y-242500000D03*
%TD*%
D16*
%TO.C,R115*%
X177825000Y-161500000D03*
X176175000Y-161500000D03*
%TD*%
M02*
