M48
; DRILL file {KiCad 7.0.9} date Tue Apr  1 16:19:51 2025
; FORMAT={-:-/ absolute / metric / decimal}
; #@! TF.CreationDate,2025-04-01T16:19:51-06:00
; #@! TF.GenerationSoftware,Kicad,Pcbnew,7.0.9
; #@! TF.FileFunction,Plated,1,4,PTH
FMAT,2
METRIC
; #@! TA.AperFunction,Plated,PTH,ComponentDrill
T1C0.200
; #@! TA.AperFunction,Plated,PTH,ComponentDrill
T2C0.203
; #@! TA.AperFunction,Plated,PTH,ViaDrill
T3C0.300
; #@! TA.AperFunction,Plated,PTH,ViaDrill
T4C0.350
; #@! TA.AperFunction,Plated,PTH,ViaDrill
T5C0.400
; #@! TA.AperFunction,Plated,PTH,ComponentDrill
T6C1.000
; #@! TA.AperFunction,Plated,PTH,ComponentDrill
T7C1.200
; #@! TA.AperFunction,Plated,PTH,ComponentDrill
T8C1.400
%
G90
G05
T1
X144.15Y-109.65
X144.15Y-112.35
X146.85Y-109.65
X146.85Y-112.35
T2
X127.21Y-91.45
X127.21Y-92.45
X127.21Y-93.75
X127.21Y-94.75
X127.71Y-91.45
X127.71Y-92.45
X127.71Y-93.75
X127.71Y-94.75
X128.21Y-91.45
X128.21Y-92.45
X128.21Y-93.75
X128.21Y-94.75
T3
X151.8Y-67.0
X151.8Y-68.3
X151.8Y-69.4
T4
X122.8Y-86.2
X125.5Y-86.05
X127.0Y-110.8
X128.4Y-95.85
X128.56Y-79.561
X130.7Y-126.8
X131.3Y-93.25
X131.5Y-100.0
X132.3Y-89.5
X132.4Y-95.3
X133.5Y-102.0
X134.4Y-94.15
X134.6Y-92.35
X135.5Y-104.0
X137.0Y-99.0
X137.09Y-111.07
X137.09Y-112.07
X137.99Y-106.97
X137.99Y-107.97
X138.5Y-100.5
X138.9Y-124.0
X140.0Y-102.0
X140.1Y-106.2
X140.4Y-105.08
X140.8Y-110.6
X141.0Y-125.5
X141.19Y-103.17
X141.2Y-117.2
X141.5Y-115.8
X141.69Y-105.8
X142.19Y-103.17
X142.3Y-118.0
X143.2Y-118.5
X143.892Y-123.394
X145.6Y-116.4
X145.639Y-103.6
X145.639Y-105.125
X145.8Y-123.0
X145.8Y-123.8
X146.9Y-80.2
X148.094Y-116.606
X148.1Y-79.2
X148.1Y-81.2
X148.5Y-117.3
X148.8Y-125.0
X149.3Y-80.2
X150.025Y-107.5
X150.4Y-110.9
X150.8Y-77.4
X150.9Y-83.1
X151.4Y-113.174
X151.8Y-66.1
X151.8Y-122.4
X152.65Y-127.65
X153.0Y-109.7
X153.0Y-110.7
X153.1Y-83.0
X153.9Y-77.4
X155.0Y-64.5
X155.1Y-80.0
X155.3Y-86.6
X156.32Y-64.8
X156.4Y-124.0
X157.7Y-66.8
X157.7Y-89.0
X157.8Y-67.8
X158.0Y-120.85
X160.0Y-120.85
X161.35Y-129.8
X161.6Y-123.55
X167.4Y-109.2
X169.2Y-109.2
T5
X121.5Y-99.5
X123.0Y-91.0
X123.0Y-93.0
X123.0Y-95.0
X123.0Y-97.5
X125.0Y-91.0
X125.0Y-93.0
X125.0Y-95.0
X125.0Y-97.5
X130.3Y-84.2
X132.4Y-115.2
X132.4Y-119.4
X133.8Y-127.849
X134.0Y-138.7
X136.4Y-131.2
X136.4Y-133.6
X136.6Y-129.0
X136.6Y-138.7
X138.0Y-64.4
X138.0Y-66.4
X139.2Y-138.7
X140.0Y-64.4
X140.0Y-66.4
X141.8Y-138.7
X142.0Y-64.4
X142.0Y-66.4
X144.0Y-64.4
X144.0Y-66.4
X144.4Y-138.7
X146.0Y-64.4
X146.0Y-66.4
X147.0Y-138.7
X149.6Y-138.7
X150.4Y-105.3
X151.2Y-104.6
X152.2Y-138.7
X154.8Y-138.7
X155.5Y-113.5
X157.4Y-138.7
X158.7Y-107.9
X160.0Y-138.7
X162.6Y-138.7
X163.5Y-69.5
X165.2Y-138.7
X167.8Y-138.7
T6
X129.6Y-118.0
X129.6Y-120.54
X129.76Y-75.42
X129.76Y-77.96
X129.76Y-80.5
X132.3Y-75.42
X132.3Y-77.96
X132.3Y-80.5
X173.71Y-97.42
X173.71Y-99.96
X173.71Y-102.5
X173.71Y-105.04
X173.71Y-107.58
X173.71Y-110.12
X173.71Y-112.66
X173.71Y-115.2
X173.71Y-117.74
X173.71Y-120.28
X173.71Y-122.82
X173.735Y-90.235
X173.735Y-92.775
X176.25Y-97.42
X176.25Y-99.96
X176.25Y-102.5
X176.25Y-105.04
X176.25Y-107.58
X176.25Y-110.12
X176.25Y-112.66
X176.25Y-115.2
X176.25Y-117.74
X176.25Y-120.28
X176.25Y-122.82
X176.275Y-90.235
X176.275Y-92.775
T7
X121.85Y-105.625
X121.85Y-113.375
X173.4Y-74.0
X173.4Y-76.5
X173.4Y-79.0
X173.4Y-81.5
X173.4Y-84.0
X173.4Y-86.5
X176.5Y-74.0
X176.5Y-76.5
X176.5Y-79.0
X176.5Y-81.5
X176.5Y-84.0
X176.5Y-86.5
T8
X125.65Y-105.775
X125.65Y-113.225
T0
M30
