%TF.GenerationSoftware,KiCad,Pcbnew,7.0.9*%
%TF.CreationDate,2025-04-01T16:19:29-06:00*%
%TF.ProjectId,Power_Supply_Brain,506f7765-725f-4537-9570-706c795f4272,rev?*%
%TF.SameCoordinates,Original*%
%TF.FileFunction,Soldermask,Bot*%
%TF.FilePolarity,Negative*%
%FSLAX46Y46*%
G04 Gerber Fmt 4.6, Leading zero omitted, Abs format (unit mm)*
G04 Created by KiCad (PCBNEW 7.0.9) date 2025-04-01 16:19:29*
%MOMM*%
%LPD*%
G01*
G04 APERTURE LIST*
G04 Aperture macros list*
%AMRoundRect*
0 Rectangle with rounded corners*
0 $1 Rounding radius*
0 $2 $3 $4 $5 $6 $7 $8 $9 X,Y pos of 4 corners*
0 Add a 4 corners polygon primitive as box body*
4,1,4,$2,$3,$4,$5,$6,$7,$8,$9,$2,$3,0*
0 Add four circle primitives for the rounded corners*
1,1,$1+$1,$2,$3*
1,1,$1+$1,$4,$5*
1,1,$1+$1,$6,$7*
1,1,$1+$1,$8,$9*
0 Add four rect primitives between the rounded corners*
20,1,$1+$1,$2,$3,$4,$5,0*
20,1,$1+$1,$4,$5,$6,$7,0*
20,1,$1+$1,$6,$7,$8,$9,0*
20,1,$1+$1,$8,$9,$2,$3,0*%
G04 Aperture macros list end*
%ADD10C,3.575000*%
%ADD11R,1.700000X1.700000*%
%ADD12O,1.700000X1.700000*%
%ADD13C,0.800000*%
%ADD14C,1.800000*%
%ADD15C,2.000000*%
%ADD16RoundRect,0.243750X-0.456250X0.243750X-0.456250X-0.243750X0.456250X-0.243750X0.456250X0.243750X0*%
%ADD17RoundRect,0.200000X0.200000X0.275000X-0.200000X0.275000X-0.200000X-0.275000X0.200000X-0.275000X0*%
%ADD18RoundRect,0.200000X-0.200000X-0.275000X0.200000X-0.275000X0.200000X0.275000X-0.200000X0.275000X0*%
%ADD19R,2.000000X2.000000*%
%ADD20R,1.050000X0.650000*%
%ADD21RoundRect,0.250000X-0.250000X-0.475000X0.250000X-0.475000X0.250000X0.475000X-0.250000X0.475000X0*%
%ADD22RoundRect,0.243750X0.243750X0.456250X-0.243750X0.456250X-0.243750X-0.456250X0.243750X-0.456250X0*%
G04 APERTURE END LIST*
D10*
X126287500Y-65500000D02*
G75*
G03*
X126287500Y-65500000I-1787500J0D01*
G01*
X176287500Y-140500000D02*
G75*
G03*
X176287500Y-140500000I-1787500J0D01*
G01*
X126287500Y-130500000D02*
G75*
G03*
X126287500Y-130500000I-1787500J0D01*
G01*
X176287500Y-65500000D02*
G75*
G03*
X176287500Y-65500000I-1787500J0D01*
G01*
D11*
%TO.C,J1*%
X132300000Y-80500000D03*
D12*
X129760000Y-80500000D03*
X132300000Y-77960000D03*
X129760000Y-77960000D03*
X132300000Y-75420000D03*
X129760000Y-75420000D03*
%TD*%
D13*
%TO.C,J3*%
X124600000Y-107000000D03*
X124600000Y-112000000D03*
D14*
X121850000Y-105625000D03*
D15*
X125650000Y-105775000D03*
X125650000Y-113225000D03*
D14*
X121850000Y-113375000D03*
%TD*%
D11*
%TO.C,J4*%
X129600000Y-120540000D03*
D12*
X129600000Y-118000000D03*
%TD*%
D16*
%TO.C,D14*%
X152200000Y-140262500D03*
X152200000Y-142137500D03*
%TD*%
D17*
%TO.C,R2*%
X170825000Y-107400000D03*
X169175000Y-107400000D03*
%TD*%
D18*
%TO.C,R8*%
X169175000Y-114200000D03*
X170825000Y-114200000D03*
%TD*%
D16*
%TO.C,D12*%
X147000000Y-140262500D03*
X147000000Y-142137500D03*
%TD*%
%TO.C,D7*%
X134000000Y-140262500D03*
X134000000Y-142137500D03*
%TD*%
D17*
%TO.C,R23*%
X170825000Y-104200000D03*
X169175000Y-104200000D03*
%TD*%
D16*
%TO.C,D9*%
X139200000Y-140262500D03*
X139200000Y-142137500D03*
%TD*%
D17*
%TO.C,R26*%
X170825000Y-102600000D03*
X169175000Y-102600000D03*
%TD*%
D18*
%TO.C,R10*%
X169175000Y-111000000D03*
X170825000Y-111000000D03*
%TD*%
D16*
%TO.C,D11*%
X144400000Y-140262500D03*
X144400000Y-142137500D03*
%TD*%
D11*
%TO.C,J2*%
X176275000Y-92775000D03*
D12*
X176275000Y-90235000D03*
X173735000Y-92775000D03*
X173735000Y-90235000D03*
%TD*%
D16*
%TO.C,D8*%
X136600000Y-140262500D03*
X136600000Y-142137500D03*
%TD*%
D17*
%TO.C,R6*%
X170825000Y-97800000D03*
X169175000Y-97800000D03*
%TD*%
D16*
%TO.C,D17*%
X160000000Y-140262500D03*
X160000000Y-142137500D03*
%TD*%
%TO.C,D19*%
X165200000Y-140262500D03*
X165200000Y-142137500D03*
%TD*%
%TO.C,D13*%
X149600000Y-140262500D03*
X149600000Y-142137500D03*
%TD*%
D17*
%TO.C,R3*%
X170825000Y-105800000D03*
X169175000Y-105800000D03*
%TD*%
D19*
%TO.C,J5*%
X176500000Y-74000000D03*
X173400000Y-74000000D03*
D15*
X176500000Y-76500000D03*
X173400000Y-76500000D03*
X176500000Y-79000000D03*
X173400000Y-79000000D03*
X176500000Y-81500000D03*
X173400000Y-81500000D03*
X176500000Y-84000000D03*
X173400000Y-84000000D03*
X176500000Y-86500000D03*
X173400000Y-86500000D03*
%TD*%
D16*
%TO.C,D15*%
X154800000Y-140262500D03*
X154800000Y-142137500D03*
%TD*%
D20*
%TO.C,SW1*%
X122925000Y-87275000D03*
X127075000Y-87275000D03*
X122925000Y-85125000D03*
X127050000Y-85125000D03*
%TD*%
D18*
%TO.C,R1*%
X169175000Y-99400000D03*
X170825000Y-99400000D03*
%TD*%
%TO.C,R9*%
X169175000Y-112600000D03*
X170825000Y-112600000D03*
%TD*%
%TO.C,R12*%
X169175000Y-122200000D03*
X170825000Y-122200000D03*
%TD*%
D21*
%TO.C,C26*%
X133050000Y-129000000D03*
X134950000Y-129000000D03*
%TD*%
D11*
%TO.C,J6*%
X176250000Y-97420000D03*
D12*
X173710000Y-97420000D03*
X176250000Y-99960000D03*
X173710000Y-99960000D03*
X176250000Y-102500000D03*
X173710000Y-102500000D03*
X176250000Y-105040000D03*
X173710000Y-105040000D03*
X176250000Y-107580000D03*
X173710000Y-107580000D03*
X176250000Y-110120000D03*
X173710000Y-110120000D03*
X176250000Y-112660000D03*
X173710000Y-112660000D03*
X176250000Y-115200000D03*
X173710000Y-115200000D03*
X176250000Y-117740000D03*
X173710000Y-117740000D03*
X176250000Y-120280000D03*
X173710000Y-120280000D03*
X176250000Y-122820000D03*
X173710000Y-122820000D03*
%TD*%
D17*
%TO.C,R22*%
X170825000Y-119000000D03*
X169175000Y-119000000D03*
%TD*%
D22*
%TO.C,D6*%
X134937500Y-133600000D03*
X133062500Y-133600000D03*
%TD*%
D16*
%TO.C,D10*%
X141800000Y-140262500D03*
X141800000Y-142137500D03*
%TD*%
D17*
%TO.C,R28*%
X170825000Y-101000000D03*
X169175000Y-101000000D03*
%TD*%
D16*
%TO.C,D18*%
X162600000Y-140262500D03*
X162600000Y-142137500D03*
%TD*%
%TO.C,D20*%
X167800000Y-140262500D03*
X167800000Y-142137500D03*
%TD*%
%TO.C,D16*%
X157400000Y-140262500D03*
X157400000Y-142137500D03*
%TD*%
D22*
%TO.C,D5*%
X134937500Y-131200000D03*
X133062500Y-131200000D03*
%TD*%
D17*
%TO.C,R7*%
X170825000Y-115800000D03*
X169175000Y-115800000D03*
%TD*%
D18*
%TO.C,R11*%
X169175000Y-120600000D03*
X170825000Y-120600000D03*
%TD*%
D17*
%TO.C,R17*%
X170825000Y-117400000D03*
X169175000Y-117400000D03*
%TD*%
M02*
