%TF.GenerationSoftware,KiCad,Pcbnew,7.0.9*%
%TF.CreationDate,2025-04-01T16:19:29-06:00*%
%TF.ProjectId,Power_Supply_Brain,506f7765-725f-4537-9570-706c795f4272,rev?*%
%TF.SameCoordinates,Original*%
%TF.FileFunction,Legend,Top*%
%TF.FilePolarity,Positive*%
%FSLAX46Y46*%
G04 Gerber Fmt 4.6, Leading zero omitted, Abs format (unit mm)*
G04 Created by KiCad (PCBNEW 7.0.9) date 2025-04-01 16:19:29*
%MOMM*%
%LPD*%
G01*
G04 APERTURE LIST*
G04 Aperture macros list*
%AMRoundRect*
0 Rectangle with rounded corners*
0 $1 Rounding radius*
0 $2 $3 $4 $5 $6 $7 $8 $9 X,Y pos of 4 corners*
0 Add a 4 corners polygon primitive as box body*
4,1,4,$2,$3,$4,$5,$6,$7,$8,$9,$2,$3,0*
0 Add four circle primitives for the rounded corners*
1,1,$1+$1,$2,$3*
1,1,$1+$1,$4,$5*
1,1,$1+$1,$6,$7*
1,1,$1+$1,$8,$9*
0 Add four rect primitives between the rounded corners*
20,1,$1+$1,$2,$3,$4,$5,0*
20,1,$1+$1,$4,$5,$6,$7,0*
20,1,$1+$1,$6,$7,$8,$9,0*
20,1,$1+$1,$8,$9,$2,$3,0*%
G04 Aperture macros list end*
%ADD10C,0.150000*%
%ADD11C,0.100000*%
%ADD12C,0.120000*%
%ADD13C,0.381000*%
%ADD14C,0.010000*%
%ADD15C,0.250000*%
%ADD16C,3.575000*%
%ADD17RoundRect,0.140000X0.170000X-0.140000X0.170000X0.140000X-0.170000X0.140000X-0.170000X-0.140000X0*%
%ADD18RoundRect,0.140000X0.140000X0.170000X-0.140000X0.170000X-0.140000X-0.170000X0.140000X-0.170000X0*%
%ADD19RoundRect,0.250000X-0.250000X-0.475000X0.250000X-0.475000X0.250000X0.475000X-0.250000X0.475000X0*%
%ADD20RoundRect,0.050000X0.050000X-0.387500X0.050000X0.387500X-0.050000X0.387500X-0.050000X-0.387500X0*%
%ADD21RoundRect,0.050000X0.387500X-0.050000X0.387500X0.050000X-0.387500X0.050000X-0.387500X-0.050000X0*%
%ADD22R,3.200000X3.200000*%
%ADD23RoundRect,0.250000X0.250000X0.475000X-0.250000X0.475000X-0.250000X-0.475000X0.250000X-0.475000X0*%
%ADD24RoundRect,0.135000X0.185000X-0.135000X0.185000X0.135000X-0.185000X0.135000X-0.185000X-0.135000X0*%
%ADD25RoundRect,0.225000X-0.250000X0.225000X-0.250000X-0.225000X0.250000X-0.225000X0.250000X0.225000X0*%
%ADD26RoundRect,0.150000X0.150000X-0.650000X0.150000X0.650000X-0.150000X0.650000X-0.150000X-0.650000X0*%
%ADD27RoundRect,0.225000X0.250000X-0.225000X0.250000X0.225000X-0.250000X0.225000X-0.250000X-0.225000X0*%
%ADD28RoundRect,0.135000X-0.135000X-0.185000X0.135000X-0.185000X0.135000X0.185000X-0.135000X0.185000X0*%
%ADD29RoundRect,0.200000X0.200000X0.275000X-0.200000X0.275000X-0.200000X-0.275000X0.200000X-0.275000X0*%
%ADD30RoundRect,0.250000X0.475000X-0.250000X0.475000X0.250000X-0.475000X0.250000X-0.475000X-0.250000X0*%
%ADD31R,1.700000X1.700000*%
%ADD32O,1.700000X1.700000*%
%ADD33R,1.500000X2.000000*%
%ADD34R,3.800000X2.000000*%
%ADD35RoundRect,0.250000X-0.450000X-0.800000X0.450000X-0.800000X0.450000X0.800000X-0.450000X0.800000X0*%
%ADD36RoundRect,0.135000X0.135000X0.185000X-0.135000X0.185000X-0.135000X-0.185000X0.135000X-0.185000X0*%
%ADD37RoundRect,0.200000X-0.200000X-0.275000X0.200000X-0.275000X0.200000X0.275000X-0.200000X0.275000X0*%
%ADD38C,0.800000*%
%ADD39R,1.300000X0.450000*%
%ADD40C,1.800000*%
%ADD41C,2.000000*%
%ADD42RoundRect,0.140000X-0.140000X-0.170000X0.140000X-0.170000X0.140000X0.170000X-0.140000X0.170000X0*%
%ADD43R,1.200000X1.400000*%
%ADD44RoundRect,0.135000X-0.185000X0.135000X-0.185000X-0.135000X0.185000X-0.135000X0.185000X0.135000X0*%
%ADD45R,5.400000X2.900000*%
%ADD46RoundRect,0.250000X-0.325000X-1.100000X0.325000X-1.100000X0.325000X1.100000X-0.325000X1.100000X0*%
%ADD47RoundRect,0.200000X0.275000X-0.200000X0.275000X0.200000X-0.275000X0.200000X-0.275000X-0.200000X0*%
%ADD48RoundRect,0.250000X0.325000X1.100000X-0.325000X1.100000X-0.325000X-1.100000X0.325000X-1.100000X0*%
%ADD49RoundRect,0.140000X-0.170000X0.140000X-0.170000X-0.140000X0.170000X-0.140000X0.170000X0.140000X0*%
%ADD50RoundRect,0.225000X0.225000X0.250000X-0.225000X0.250000X-0.225000X-0.250000X0.225000X-0.250000X0*%
%ADD51RoundRect,0.150000X-0.825000X-0.150000X0.825000X-0.150000X0.825000X0.150000X-0.825000X0.150000X0*%
%ADD52RoundRect,0.062500X-0.375000X-0.062500X0.375000X-0.062500X0.375000X0.062500X-0.375000X0.062500X0*%
%ADD53RoundRect,0.062500X-0.062500X-0.375000X0.062500X-0.375000X0.062500X0.375000X-0.062500X0.375000X0*%
%ADD54C,0.499999*%
%ADD55RoundRect,0.225000X-0.225000X-0.250000X0.225000X-0.250000X0.225000X0.250000X-0.225000X0.250000X0*%
%ADD56RoundRect,0.045000X0.305000X0.105000X-0.305000X0.105000X-0.305000X-0.105000X0.305000X-0.105000X0*%
%ADD57RoundRect,0.008000X0.392000X1.032000X-0.392000X1.032000X-0.392000X-1.032000X0.392000X-1.032000X0*%
%ADD58R,2.000000X2.000000*%
G04 APERTURE END LIST*
D10*
X156700000Y-69200000D02*
X155500000Y-69200000D01*
X155500000Y-69200000D02*
X154900000Y-68600000D01*
X136797617Y-141188152D02*
X136797617Y-139759580D01*
X138845236Y-140759580D02*
X138797617Y-140807200D01*
X138797617Y-140807200D02*
X138654760Y-140854819D01*
X138654760Y-140854819D02*
X138559522Y-140854819D01*
X138559522Y-140854819D02*
X138416665Y-140807200D01*
X138416665Y-140807200D02*
X138321427Y-140711961D01*
X138321427Y-140711961D02*
X138273808Y-140616723D01*
X138273808Y-140616723D02*
X138226189Y-140426247D01*
X138226189Y-140426247D02*
X138226189Y-140283390D01*
X138226189Y-140283390D02*
X138273808Y-140092914D01*
X138273808Y-140092914D02*
X138321427Y-139997676D01*
X138321427Y-139997676D02*
X138416665Y-139902438D01*
X138416665Y-139902438D02*
X138559522Y-139854819D01*
X138559522Y-139854819D02*
X138654760Y-139854819D01*
X138654760Y-139854819D02*
X138797617Y-139902438D01*
X138797617Y-139902438D02*
X138845236Y-139950057D01*
X139273808Y-140854819D02*
X139273808Y-139854819D01*
X139702379Y-140854819D02*
X139702379Y-140331009D01*
X139702379Y-140331009D02*
X139654760Y-140235771D01*
X139654760Y-140235771D02*
X139559522Y-140188152D01*
X139559522Y-140188152D02*
X139416665Y-140188152D01*
X139416665Y-140188152D02*
X139321427Y-140235771D01*
X139321427Y-140235771D02*
X139273808Y-140283390D01*
X140178570Y-140854819D02*
X140178570Y-140188152D01*
X140178570Y-140378628D02*
X140226189Y-140283390D01*
X140226189Y-140283390D02*
X140273808Y-140235771D01*
X140273808Y-140235771D02*
X140369046Y-140188152D01*
X140369046Y-140188152D02*
X140464284Y-140188152D01*
X140797618Y-140854819D02*
X140797618Y-140188152D01*
X140797618Y-139854819D02*
X140749999Y-139902438D01*
X140749999Y-139902438D02*
X140797618Y-139950057D01*
X140797618Y-139950057D02*
X140845237Y-139902438D01*
X140845237Y-139902438D02*
X140797618Y-139854819D01*
X140797618Y-139854819D02*
X140797618Y-139950057D01*
X141226189Y-140807200D02*
X141321427Y-140854819D01*
X141321427Y-140854819D02*
X141511903Y-140854819D01*
X141511903Y-140854819D02*
X141607141Y-140807200D01*
X141607141Y-140807200D02*
X141654760Y-140711961D01*
X141654760Y-140711961D02*
X141654760Y-140664342D01*
X141654760Y-140664342D02*
X141607141Y-140569104D01*
X141607141Y-140569104D02*
X141511903Y-140521485D01*
X141511903Y-140521485D02*
X141369046Y-140521485D01*
X141369046Y-140521485D02*
X141273808Y-140473866D01*
X141273808Y-140473866D02*
X141226189Y-140378628D01*
X141226189Y-140378628D02*
X141226189Y-140331009D01*
X141226189Y-140331009D02*
X141273808Y-140235771D01*
X141273808Y-140235771D02*
X141369046Y-140188152D01*
X141369046Y-140188152D02*
X141511903Y-140188152D01*
X141511903Y-140188152D02*
X141607141Y-140235771D01*
X142845237Y-140854819D02*
X142845237Y-139854819D01*
X142845237Y-139854819D02*
X143083332Y-139854819D01*
X143083332Y-139854819D02*
X143226189Y-139902438D01*
X143226189Y-139902438D02*
X143321427Y-139997676D01*
X143321427Y-139997676D02*
X143369046Y-140092914D01*
X143369046Y-140092914D02*
X143416665Y-140283390D01*
X143416665Y-140283390D02*
X143416665Y-140426247D01*
X143416665Y-140426247D02*
X143369046Y-140616723D01*
X143369046Y-140616723D02*
X143321427Y-140711961D01*
X143321427Y-140711961D02*
X143226189Y-140807200D01*
X143226189Y-140807200D02*
X143083332Y-140854819D01*
X143083332Y-140854819D02*
X142845237Y-140854819D01*
X144273808Y-140854819D02*
X144273808Y-140331009D01*
X144273808Y-140331009D02*
X144226189Y-140235771D01*
X144226189Y-140235771D02*
X144130951Y-140188152D01*
X144130951Y-140188152D02*
X143940475Y-140188152D01*
X143940475Y-140188152D02*
X143845237Y-140235771D01*
X144273808Y-140807200D02*
X144178570Y-140854819D01*
X144178570Y-140854819D02*
X143940475Y-140854819D01*
X143940475Y-140854819D02*
X143845237Y-140807200D01*
X143845237Y-140807200D02*
X143797618Y-140711961D01*
X143797618Y-140711961D02*
X143797618Y-140616723D01*
X143797618Y-140616723D02*
X143845237Y-140521485D01*
X143845237Y-140521485D02*
X143940475Y-140473866D01*
X143940475Y-140473866D02*
X144178570Y-140473866D01*
X144178570Y-140473866D02*
X144273808Y-140426247D01*
X145178570Y-140188152D02*
X145178570Y-140997676D01*
X145178570Y-140997676D02*
X145130951Y-141092914D01*
X145130951Y-141092914D02*
X145083332Y-141140533D01*
X145083332Y-141140533D02*
X144988094Y-141188152D01*
X144988094Y-141188152D02*
X144845237Y-141188152D01*
X144845237Y-141188152D02*
X144749999Y-141140533D01*
X145178570Y-140807200D02*
X145083332Y-140854819D01*
X145083332Y-140854819D02*
X144892856Y-140854819D01*
X144892856Y-140854819D02*
X144797618Y-140807200D01*
X144797618Y-140807200D02*
X144749999Y-140759580D01*
X144749999Y-140759580D02*
X144702380Y-140664342D01*
X144702380Y-140664342D02*
X144702380Y-140378628D01*
X144702380Y-140378628D02*
X144749999Y-140283390D01*
X144749999Y-140283390D02*
X144797618Y-140235771D01*
X144797618Y-140235771D02*
X144892856Y-140188152D01*
X144892856Y-140188152D02*
X145083332Y-140188152D01*
X145083332Y-140188152D02*
X145178570Y-140235771D01*
X145654761Y-140854819D02*
X145654761Y-139854819D01*
X146083332Y-140854819D02*
X146083332Y-140331009D01*
X146083332Y-140331009D02*
X146035713Y-140235771D01*
X146035713Y-140235771D02*
X145940475Y-140188152D01*
X145940475Y-140188152D02*
X145797618Y-140188152D01*
X145797618Y-140188152D02*
X145702380Y-140235771D01*
X145702380Y-140235771D02*
X145654761Y-140283390D01*
X146940475Y-140807200D02*
X146845237Y-140854819D01*
X146845237Y-140854819D02*
X146654761Y-140854819D01*
X146654761Y-140854819D02*
X146559523Y-140807200D01*
X146559523Y-140807200D02*
X146511904Y-140711961D01*
X146511904Y-140711961D02*
X146511904Y-140331009D01*
X146511904Y-140331009D02*
X146559523Y-140235771D01*
X146559523Y-140235771D02*
X146654761Y-140188152D01*
X146654761Y-140188152D02*
X146845237Y-140188152D01*
X146845237Y-140188152D02*
X146940475Y-140235771D01*
X146940475Y-140235771D02*
X146988094Y-140331009D01*
X146988094Y-140331009D02*
X146988094Y-140426247D01*
X146988094Y-140426247D02*
X146511904Y-140521485D01*
X147416666Y-140854819D02*
X147416666Y-140188152D01*
X147416666Y-140378628D02*
X147464285Y-140283390D01*
X147464285Y-140283390D02*
X147511904Y-140235771D01*
X147511904Y-140235771D02*
X147607142Y-140188152D01*
X147607142Y-140188152D02*
X147702380Y-140188152D01*
X148750000Y-139950057D02*
X148797619Y-139902438D01*
X148797619Y-139902438D02*
X148892857Y-139854819D01*
X148892857Y-139854819D02*
X149130952Y-139854819D01*
X149130952Y-139854819D02*
X149226190Y-139902438D01*
X149226190Y-139902438D02*
X149273809Y-139950057D01*
X149273809Y-139950057D02*
X149321428Y-140045295D01*
X149321428Y-140045295D02*
X149321428Y-140140533D01*
X149321428Y-140140533D02*
X149273809Y-140283390D01*
X149273809Y-140283390D02*
X148702381Y-140854819D01*
X148702381Y-140854819D02*
X149321428Y-140854819D01*
X149940476Y-139854819D02*
X150035714Y-139854819D01*
X150035714Y-139854819D02*
X150130952Y-139902438D01*
X150130952Y-139902438D02*
X150178571Y-139950057D01*
X150178571Y-139950057D02*
X150226190Y-140045295D01*
X150226190Y-140045295D02*
X150273809Y-140235771D01*
X150273809Y-140235771D02*
X150273809Y-140473866D01*
X150273809Y-140473866D02*
X150226190Y-140664342D01*
X150226190Y-140664342D02*
X150178571Y-140759580D01*
X150178571Y-140759580D02*
X150130952Y-140807200D01*
X150130952Y-140807200D02*
X150035714Y-140854819D01*
X150035714Y-140854819D02*
X149940476Y-140854819D01*
X149940476Y-140854819D02*
X149845238Y-140807200D01*
X149845238Y-140807200D02*
X149797619Y-140759580D01*
X149797619Y-140759580D02*
X149750000Y-140664342D01*
X149750000Y-140664342D02*
X149702381Y-140473866D01*
X149702381Y-140473866D02*
X149702381Y-140235771D01*
X149702381Y-140235771D02*
X149750000Y-140045295D01*
X149750000Y-140045295D02*
X149797619Y-139950057D01*
X149797619Y-139950057D02*
X149845238Y-139902438D01*
X149845238Y-139902438D02*
X149940476Y-139854819D01*
X150654762Y-139950057D02*
X150702381Y-139902438D01*
X150702381Y-139902438D02*
X150797619Y-139854819D01*
X150797619Y-139854819D02*
X151035714Y-139854819D01*
X151035714Y-139854819D02*
X151130952Y-139902438D01*
X151130952Y-139902438D02*
X151178571Y-139950057D01*
X151178571Y-139950057D02*
X151226190Y-140045295D01*
X151226190Y-140045295D02*
X151226190Y-140140533D01*
X151226190Y-140140533D02*
X151178571Y-140283390D01*
X151178571Y-140283390D02*
X150607143Y-140854819D01*
X150607143Y-140854819D02*
X151226190Y-140854819D01*
X152083333Y-140188152D02*
X152083333Y-140854819D01*
X151845238Y-139807200D02*
X151607143Y-140521485D01*
X151607143Y-140521485D02*
X152226190Y-140521485D01*
X153607143Y-141188152D02*
X153607143Y-139759580D01*
X155511905Y-140807200D02*
X155416667Y-140854819D01*
X155416667Y-140854819D02*
X155226191Y-140854819D01*
X155226191Y-140854819D02*
X155130953Y-140807200D01*
X155130953Y-140807200D02*
X155083334Y-140759580D01*
X155083334Y-140759580D02*
X155035715Y-140664342D01*
X155035715Y-140664342D02*
X155035715Y-140378628D01*
X155035715Y-140378628D02*
X155083334Y-140283390D01*
X155083334Y-140283390D02*
X155130953Y-140235771D01*
X155130953Y-140235771D02*
X155226191Y-140188152D01*
X155226191Y-140188152D02*
X155416667Y-140188152D01*
X155416667Y-140188152D02*
X155511905Y-140235771D01*
X155940477Y-140854819D02*
X155940477Y-139854819D01*
X156369048Y-140854819D02*
X156369048Y-140331009D01*
X156369048Y-140331009D02*
X156321429Y-140235771D01*
X156321429Y-140235771D02*
X156226191Y-140188152D01*
X156226191Y-140188152D02*
X156083334Y-140188152D01*
X156083334Y-140188152D02*
X155988096Y-140235771D01*
X155988096Y-140235771D02*
X155940477Y-140283390D01*
X156845239Y-140854819D02*
X156845239Y-140188152D01*
X156845239Y-140378628D02*
X156892858Y-140283390D01*
X156892858Y-140283390D02*
X156940477Y-140235771D01*
X156940477Y-140235771D02*
X157035715Y-140188152D01*
X157035715Y-140188152D02*
X157130953Y-140188152D01*
X157464287Y-140854819D02*
X157464287Y-140188152D01*
X157464287Y-139854819D02*
X157416668Y-139902438D01*
X157416668Y-139902438D02*
X157464287Y-139950057D01*
X157464287Y-139950057D02*
X157511906Y-139902438D01*
X157511906Y-139902438D02*
X157464287Y-139854819D01*
X157464287Y-139854819D02*
X157464287Y-139950057D01*
X157892858Y-140807200D02*
X157988096Y-140854819D01*
X157988096Y-140854819D02*
X158178572Y-140854819D01*
X158178572Y-140854819D02*
X158273810Y-140807200D01*
X158273810Y-140807200D02*
X158321429Y-140711961D01*
X158321429Y-140711961D02*
X158321429Y-140664342D01*
X158321429Y-140664342D02*
X158273810Y-140569104D01*
X158273810Y-140569104D02*
X158178572Y-140521485D01*
X158178572Y-140521485D02*
X158035715Y-140521485D01*
X158035715Y-140521485D02*
X157940477Y-140473866D01*
X157940477Y-140473866D02*
X157892858Y-140378628D01*
X157892858Y-140378628D02*
X157892858Y-140331009D01*
X157892858Y-140331009D02*
X157940477Y-140235771D01*
X157940477Y-140235771D02*
X158035715Y-140188152D01*
X158035715Y-140188152D02*
X158178572Y-140188152D01*
X158178572Y-140188152D02*
X158273810Y-140235771D01*
X159178572Y-140854819D02*
X159178572Y-139854819D01*
X159178572Y-140807200D02*
X159083334Y-140854819D01*
X159083334Y-140854819D02*
X158892858Y-140854819D01*
X158892858Y-140854819D02*
X158797620Y-140807200D01*
X158797620Y-140807200D02*
X158750001Y-140759580D01*
X158750001Y-140759580D02*
X158702382Y-140664342D01*
X158702382Y-140664342D02*
X158702382Y-140378628D01*
X158702382Y-140378628D02*
X158750001Y-140283390D01*
X158750001Y-140283390D02*
X158797620Y-140235771D01*
X158797620Y-140235771D02*
X158892858Y-140188152D01*
X158892858Y-140188152D02*
X159083334Y-140188152D01*
X159083334Y-140188152D02*
X159178572Y-140235771D01*
X160083334Y-140854819D02*
X160083334Y-140331009D01*
X160083334Y-140331009D02*
X160035715Y-140235771D01*
X160035715Y-140235771D02*
X159940477Y-140188152D01*
X159940477Y-140188152D02*
X159750001Y-140188152D01*
X159750001Y-140188152D02*
X159654763Y-140235771D01*
X160083334Y-140807200D02*
X159988096Y-140854819D01*
X159988096Y-140854819D02*
X159750001Y-140854819D01*
X159750001Y-140854819D02*
X159654763Y-140807200D01*
X159654763Y-140807200D02*
X159607144Y-140711961D01*
X159607144Y-140711961D02*
X159607144Y-140616723D01*
X159607144Y-140616723D02*
X159654763Y-140521485D01*
X159654763Y-140521485D02*
X159750001Y-140473866D01*
X159750001Y-140473866D02*
X159988096Y-140473866D01*
X159988096Y-140473866D02*
X160083334Y-140426247D01*
X160988096Y-140188152D02*
X160988096Y-140997676D01*
X160988096Y-140997676D02*
X160940477Y-141092914D01*
X160940477Y-141092914D02*
X160892858Y-141140533D01*
X160892858Y-141140533D02*
X160797620Y-141188152D01*
X160797620Y-141188152D02*
X160654763Y-141188152D01*
X160654763Y-141188152D02*
X160559525Y-141140533D01*
X160988096Y-140807200D02*
X160892858Y-140854819D01*
X160892858Y-140854819D02*
X160702382Y-140854819D01*
X160702382Y-140854819D02*
X160607144Y-140807200D01*
X160607144Y-140807200D02*
X160559525Y-140759580D01*
X160559525Y-140759580D02*
X160511906Y-140664342D01*
X160511906Y-140664342D02*
X160511906Y-140378628D01*
X160511906Y-140378628D02*
X160559525Y-140283390D01*
X160559525Y-140283390D02*
X160607144Y-140235771D01*
X160607144Y-140235771D02*
X160702382Y-140188152D01*
X160702382Y-140188152D02*
X160892858Y-140188152D01*
X160892858Y-140188152D02*
X160988096Y-140235771D01*
X161464287Y-140854819D02*
X161464287Y-139854819D01*
X161892858Y-140854819D02*
X161892858Y-140331009D01*
X161892858Y-140331009D02*
X161845239Y-140235771D01*
X161845239Y-140235771D02*
X161750001Y-140188152D01*
X161750001Y-140188152D02*
X161607144Y-140188152D01*
X161607144Y-140188152D02*
X161511906Y-140235771D01*
X161511906Y-140235771D02*
X161464287Y-140283390D01*
X162750001Y-140807200D02*
X162654763Y-140854819D01*
X162654763Y-140854819D02*
X162464287Y-140854819D01*
X162464287Y-140854819D02*
X162369049Y-140807200D01*
X162369049Y-140807200D02*
X162321430Y-140711961D01*
X162321430Y-140711961D02*
X162321430Y-140331009D01*
X162321430Y-140331009D02*
X162369049Y-140235771D01*
X162369049Y-140235771D02*
X162464287Y-140188152D01*
X162464287Y-140188152D02*
X162654763Y-140188152D01*
X162654763Y-140188152D02*
X162750001Y-140235771D01*
X162750001Y-140235771D02*
X162797620Y-140331009D01*
X162797620Y-140331009D02*
X162797620Y-140426247D01*
X162797620Y-140426247D02*
X162321430Y-140521485D01*
X163226192Y-140854819D02*
X163226192Y-140188152D01*
X163226192Y-140378628D02*
X163273811Y-140283390D01*
X163273811Y-140283390D02*
X163321430Y-140235771D01*
X163321430Y-140235771D02*
X163416668Y-140188152D01*
X163416668Y-140188152D02*
X163511906Y-140188152D01*
X163845240Y-140759580D02*
X163892859Y-140807200D01*
X163892859Y-140807200D02*
X163845240Y-140854819D01*
X163845240Y-140854819D02*
X163797621Y-140807200D01*
X163797621Y-140807200D02*
X163845240Y-140759580D01*
X163845240Y-140759580D02*
X163845240Y-140854819D01*
X164321430Y-140854819D02*
X164321430Y-140188152D01*
X164321430Y-139854819D02*
X164273811Y-139902438D01*
X164273811Y-139902438D02*
X164321430Y-139950057D01*
X164321430Y-139950057D02*
X164369049Y-139902438D01*
X164369049Y-139902438D02*
X164321430Y-139854819D01*
X164321430Y-139854819D02*
X164321430Y-139950057D01*
X164940477Y-140854819D02*
X164845239Y-140807200D01*
X164845239Y-140807200D02*
X164797620Y-140759580D01*
X164797620Y-140759580D02*
X164750001Y-140664342D01*
X164750001Y-140664342D02*
X164750001Y-140378628D01*
X164750001Y-140378628D02*
X164797620Y-140283390D01*
X164797620Y-140283390D02*
X164845239Y-140235771D01*
X164845239Y-140235771D02*
X164940477Y-140188152D01*
X164940477Y-140188152D02*
X165083334Y-140188152D01*
X165083334Y-140188152D02*
X165178572Y-140235771D01*
X165178572Y-140235771D02*
X165226191Y-140283390D01*
X165226191Y-140283390D02*
X165273810Y-140378628D01*
X165273810Y-140378628D02*
X165273810Y-140664342D01*
X165273810Y-140664342D02*
X165226191Y-140759580D01*
X165226191Y-140759580D02*
X165178572Y-140807200D01*
X165178572Y-140807200D02*
X165083334Y-140854819D01*
X165083334Y-140854819D02*
X164940477Y-140854819D01*
X166702382Y-141188152D02*
X166702382Y-139759580D01*
X139565475Y-142588152D02*
X139464285Y-143397676D01*
X139464285Y-143397676D02*
X139404761Y-143492914D01*
X139404761Y-143492914D02*
X139351189Y-143540533D01*
X139351189Y-143540533D02*
X139249999Y-143588152D01*
X139249999Y-143588152D02*
X139107142Y-143588152D01*
X139107142Y-143588152D02*
X139017856Y-143540533D01*
X139488094Y-143207200D02*
X139386904Y-143254819D01*
X139386904Y-143254819D02*
X139196428Y-143254819D01*
X139196428Y-143254819D02*
X139107142Y-143207200D01*
X139107142Y-143207200D02*
X139065475Y-143159580D01*
X139065475Y-143159580D02*
X139029761Y-143064342D01*
X139029761Y-143064342D02*
X139065475Y-142778628D01*
X139065475Y-142778628D02*
X139124999Y-142683390D01*
X139124999Y-142683390D02*
X139178570Y-142635771D01*
X139178570Y-142635771D02*
X139279761Y-142588152D01*
X139279761Y-142588152D02*
X139470237Y-142588152D01*
X139470237Y-142588152D02*
X139559523Y-142635771D01*
X139958332Y-143254819D02*
X140041666Y-142588152D01*
X140083332Y-142254819D02*
X140029761Y-142302438D01*
X140029761Y-142302438D02*
X140071428Y-142350057D01*
X140071428Y-142350057D02*
X140124999Y-142302438D01*
X140124999Y-142302438D02*
X140083332Y-142254819D01*
X140083332Y-142254819D02*
X140071428Y-142350057D01*
X140374999Y-142588152D02*
X140755951Y-142588152D01*
X140559522Y-142254819D02*
X140452380Y-143111961D01*
X140452380Y-143111961D02*
X140488094Y-143207200D01*
X140488094Y-143207200D02*
X140577380Y-143254819D01*
X140577380Y-143254819D02*
X140672618Y-143254819D01*
X141005951Y-143254819D02*
X141130951Y-142254819D01*
X141434523Y-143254819D02*
X141499999Y-142731009D01*
X141499999Y-142731009D02*
X141464285Y-142635771D01*
X141464285Y-142635771D02*
X141374999Y-142588152D01*
X141374999Y-142588152D02*
X141232142Y-142588152D01*
X141232142Y-142588152D02*
X141130951Y-142635771D01*
X141130951Y-142635771D02*
X141077380Y-142683390D01*
X142422618Y-142588152D02*
X142339285Y-143254819D01*
X141994047Y-142588152D02*
X141928571Y-143111961D01*
X141928571Y-143111961D02*
X141964285Y-143207200D01*
X141964285Y-143207200D02*
X142053571Y-143254819D01*
X142053571Y-143254819D02*
X142196428Y-143254819D01*
X142196428Y-143254819D02*
X142297618Y-143207200D01*
X142297618Y-143207200D02*
X142351190Y-143159580D01*
X142815475Y-143254819D02*
X142940475Y-142254819D01*
X142892856Y-142635771D02*
X142994047Y-142588152D01*
X142994047Y-142588152D02*
X143184523Y-142588152D01*
X143184523Y-142588152D02*
X143273809Y-142635771D01*
X143273809Y-142635771D02*
X143315475Y-142683390D01*
X143315475Y-142683390D02*
X143351190Y-142778628D01*
X143351190Y-142778628D02*
X143315475Y-143064342D01*
X143315475Y-143064342D02*
X143255952Y-143159580D01*
X143255952Y-143159580D02*
X143202380Y-143207200D01*
X143202380Y-143207200D02*
X143101190Y-143254819D01*
X143101190Y-143254819D02*
X142910713Y-143254819D01*
X142910713Y-143254819D02*
X142821428Y-143207200D01*
X143732142Y-143159580D02*
X143773809Y-143207200D01*
X143773809Y-143207200D02*
X143720237Y-143254819D01*
X143720237Y-143254819D02*
X143678571Y-143207200D01*
X143678571Y-143207200D02*
X143732142Y-143159580D01*
X143732142Y-143159580D02*
X143720237Y-143254819D01*
X144630951Y-143207200D02*
X144529761Y-143254819D01*
X144529761Y-143254819D02*
X144339285Y-143254819D01*
X144339285Y-143254819D02*
X144249999Y-143207200D01*
X144249999Y-143207200D02*
X144208332Y-143159580D01*
X144208332Y-143159580D02*
X144172618Y-143064342D01*
X144172618Y-143064342D02*
X144208332Y-142778628D01*
X144208332Y-142778628D02*
X144267856Y-142683390D01*
X144267856Y-142683390D02*
X144321427Y-142635771D01*
X144321427Y-142635771D02*
X144422618Y-142588152D01*
X144422618Y-142588152D02*
X144613094Y-142588152D01*
X144613094Y-142588152D02*
X144702380Y-142635771D01*
X145196428Y-143254819D02*
X145107142Y-143207200D01*
X145107142Y-143207200D02*
X145065475Y-143159580D01*
X145065475Y-143159580D02*
X145029761Y-143064342D01*
X145029761Y-143064342D02*
X145065475Y-142778628D01*
X145065475Y-142778628D02*
X145124999Y-142683390D01*
X145124999Y-142683390D02*
X145178570Y-142635771D01*
X145178570Y-142635771D02*
X145279761Y-142588152D01*
X145279761Y-142588152D02*
X145422618Y-142588152D01*
X145422618Y-142588152D02*
X145511904Y-142635771D01*
X145511904Y-142635771D02*
X145553570Y-142683390D01*
X145553570Y-142683390D02*
X145589285Y-142778628D01*
X145589285Y-142778628D02*
X145553570Y-143064342D01*
X145553570Y-143064342D02*
X145494047Y-143159580D01*
X145494047Y-143159580D02*
X145440475Y-143207200D01*
X145440475Y-143207200D02*
X145339285Y-143254819D01*
X145339285Y-143254819D02*
X145196428Y-143254819D01*
X145958332Y-143254819D02*
X146041666Y-142588152D01*
X146029761Y-142683390D02*
X146083332Y-142635771D01*
X146083332Y-142635771D02*
X146184523Y-142588152D01*
X146184523Y-142588152D02*
X146327380Y-142588152D01*
X146327380Y-142588152D02*
X146416666Y-142635771D01*
X146416666Y-142635771D02*
X146452380Y-142731009D01*
X146452380Y-142731009D02*
X146386904Y-143254819D01*
X146452380Y-142731009D02*
X146511904Y-142635771D01*
X146511904Y-142635771D02*
X146613094Y-142588152D01*
X146613094Y-142588152D02*
X146755951Y-142588152D01*
X146755951Y-142588152D02*
X146845237Y-142635771D01*
X146845237Y-142635771D02*
X146880951Y-142731009D01*
X146880951Y-142731009D02*
X146815475Y-143254819D01*
X148136903Y-142207200D02*
X147119046Y-143492914D01*
X148773808Y-143207200D02*
X148672618Y-143254819D01*
X148672618Y-143254819D02*
X148482142Y-143254819D01*
X148482142Y-143254819D02*
X148392856Y-143207200D01*
X148392856Y-143207200D02*
X148351189Y-143159580D01*
X148351189Y-143159580D02*
X148315475Y-143064342D01*
X148315475Y-143064342D02*
X148351189Y-142778628D01*
X148351189Y-142778628D02*
X148410713Y-142683390D01*
X148410713Y-142683390D02*
X148464284Y-142635771D01*
X148464284Y-142635771D02*
X148565475Y-142588152D01*
X148565475Y-142588152D02*
X148755951Y-142588152D01*
X148755951Y-142588152D02*
X148845237Y-142635771D01*
X149624999Y-143254819D02*
X149749999Y-142254819D01*
X149630951Y-143207200D02*
X149529761Y-143254819D01*
X149529761Y-143254819D02*
X149339285Y-143254819D01*
X149339285Y-143254819D02*
X149249999Y-143207200D01*
X149249999Y-143207200D02*
X149208332Y-143159580D01*
X149208332Y-143159580D02*
X149172618Y-143064342D01*
X149172618Y-143064342D02*
X149208332Y-142778628D01*
X149208332Y-142778628D02*
X149267856Y-142683390D01*
X149267856Y-142683390D02*
X149321427Y-142635771D01*
X149321427Y-142635771D02*
X149422618Y-142588152D01*
X149422618Y-142588152D02*
X149613094Y-142588152D01*
X149613094Y-142588152D02*
X149702380Y-142635771D01*
X150529761Y-143254819D02*
X150595237Y-142731009D01*
X150595237Y-142731009D02*
X150559523Y-142635771D01*
X150559523Y-142635771D02*
X150470237Y-142588152D01*
X150470237Y-142588152D02*
X150279761Y-142588152D01*
X150279761Y-142588152D02*
X150178570Y-142635771D01*
X150535713Y-143207200D02*
X150434523Y-143254819D01*
X150434523Y-143254819D02*
X150196427Y-143254819D01*
X150196427Y-143254819D02*
X150107142Y-143207200D01*
X150107142Y-143207200D02*
X150071427Y-143111961D01*
X150071427Y-143111961D02*
X150083332Y-143016723D01*
X150083332Y-143016723D02*
X150142856Y-142921485D01*
X150142856Y-142921485D02*
X150244047Y-142873866D01*
X150244047Y-142873866D02*
X150482142Y-142873866D01*
X150482142Y-142873866D02*
X150583332Y-142826247D01*
X151517856Y-142588152D02*
X151416666Y-143397676D01*
X151416666Y-143397676D02*
X151357142Y-143492914D01*
X151357142Y-143492914D02*
X151303570Y-143540533D01*
X151303570Y-143540533D02*
X151202380Y-143588152D01*
X151202380Y-143588152D02*
X151059523Y-143588152D01*
X151059523Y-143588152D02*
X150970237Y-143540533D01*
X151440475Y-143207200D02*
X151339285Y-143254819D01*
X151339285Y-143254819D02*
X151148809Y-143254819D01*
X151148809Y-143254819D02*
X151059523Y-143207200D01*
X151059523Y-143207200D02*
X151017856Y-143159580D01*
X151017856Y-143159580D02*
X150982142Y-143064342D01*
X150982142Y-143064342D02*
X151017856Y-142778628D01*
X151017856Y-142778628D02*
X151077380Y-142683390D01*
X151077380Y-142683390D02*
X151130951Y-142635771D01*
X151130951Y-142635771D02*
X151232142Y-142588152D01*
X151232142Y-142588152D02*
X151422618Y-142588152D01*
X151422618Y-142588152D02*
X151511904Y-142635771D01*
X151910713Y-143254819D02*
X152035713Y-142254819D01*
X152339285Y-143254819D02*
X152404761Y-142731009D01*
X152404761Y-142731009D02*
X152369047Y-142635771D01*
X152369047Y-142635771D02*
X152279761Y-142588152D01*
X152279761Y-142588152D02*
X152136904Y-142588152D01*
X152136904Y-142588152D02*
X152035713Y-142635771D01*
X152035713Y-142635771D02*
X151982142Y-142683390D01*
X153202380Y-143207200D02*
X153101190Y-143254819D01*
X153101190Y-143254819D02*
X152910713Y-143254819D01*
X152910713Y-143254819D02*
X152821428Y-143207200D01*
X152821428Y-143207200D02*
X152785713Y-143111961D01*
X152785713Y-143111961D02*
X152833333Y-142731009D01*
X152833333Y-142731009D02*
X152892856Y-142635771D01*
X152892856Y-142635771D02*
X152994047Y-142588152D01*
X152994047Y-142588152D02*
X153184523Y-142588152D01*
X153184523Y-142588152D02*
X153273809Y-142635771D01*
X153273809Y-142635771D02*
X153309523Y-142731009D01*
X153309523Y-142731009D02*
X153297618Y-142826247D01*
X153297618Y-142826247D02*
X152809523Y-142921485D01*
X153672618Y-143254819D02*
X153755952Y-142588152D01*
X153732142Y-142778628D02*
X153791666Y-142683390D01*
X153791666Y-142683390D02*
X153845237Y-142635771D01*
X153845237Y-142635771D02*
X153946428Y-142588152D01*
X153946428Y-142588152D02*
X154041666Y-142588152D01*
X155136904Y-142207200D02*
X154119047Y-143492914D01*
X155738095Y-142731009D02*
X155875000Y-142778628D01*
X155875000Y-142778628D02*
X155916666Y-142826247D01*
X155916666Y-142826247D02*
X155952381Y-142921485D01*
X155952381Y-142921485D02*
X155934523Y-143064342D01*
X155934523Y-143064342D02*
X155875000Y-143159580D01*
X155875000Y-143159580D02*
X155821428Y-143207200D01*
X155821428Y-143207200D02*
X155720238Y-143254819D01*
X155720238Y-143254819D02*
X155339285Y-143254819D01*
X155339285Y-143254819D02*
X155464285Y-142254819D01*
X155464285Y-142254819D02*
X155797619Y-142254819D01*
X155797619Y-142254819D02*
X155886904Y-142302438D01*
X155886904Y-142302438D02*
X155928571Y-142350057D01*
X155928571Y-142350057D02*
X155964285Y-142445295D01*
X155964285Y-142445295D02*
X155952381Y-142540533D01*
X155952381Y-142540533D02*
X155892857Y-142635771D01*
X155892857Y-142635771D02*
X155839285Y-142683390D01*
X155839285Y-142683390D02*
X155738095Y-142731009D01*
X155738095Y-142731009D02*
X155404762Y-142731009D01*
X156726190Y-143207200D02*
X156625000Y-143254819D01*
X156625000Y-143254819D02*
X156434523Y-143254819D01*
X156434523Y-143254819D02*
X156345238Y-143207200D01*
X156345238Y-143207200D02*
X156309523Y-143111961D01*
X156309523Y-143111961D02*
X156357143Y-142731009D01*
X156357143Y-142731009D02*
X156416666Y-142635771D01*
X156416666Y-142635771D02*
X156517857Y-142588152D01*
X156517857Y-142588152D02*
X156708333Y-142588152D01*
X156708333Y-142588152D02*
X156797619Y-142635771D01*
X156797619Y-142635771D02*
X156833333Y-142731009D01*
X156833333Y-142731009D02*
X156821428Y-142826247D01*
X156821428Y-142826247D02*
X156333333Y-142921485D01*
X157279762Y-142588152D02*
X157196428Y-143254819D01*
X157267857Y-142683390D02*
X157321428Y-142635771D01*
X157321428Y-142635771D02*
X157422619Y-142588152D01*
X157422619Y-142588152D02*
X157565476Y-142588152D01*
X157565476Y-142588152D02*
X157654762Y-142635771D01*
X157654762Y-142635771D02*
X157690476Y-142731009D01*
X157690476Y-142731009D02*
X157625000Y-143254819D01*
X158529762Y-143254819D02*
X158654762Y-142254819D01*
X158535714Y-143207200D02*
X158434524Y-143254819D01*
X158434524Y-143254819D02*
X158244048Y-143254819D01*
X158244048Y-143254819D02*
X158154762Y-143207200D01*
X158154762Y-143207200D02*
X158113095Y-143159580D01*
X158113095Y-143159580D02*
X158077381Y-143064342D01*
X158077381Y-143064342D02*
X158113095Y-142778628D01*
X158113095Y-142778628D02*
X158172619Y-142683390D01*
X158172619Y-142683390D02*
X158226190Y-142635771D01*
X158226190Y-142635771D02*
X158327381Y-142588152D01*
X158327381Y-142588152D02*
X158517857Y-142588152D01*
X158517857Y-142588152D02*
X158607143Y-142635771D01*
X159392857Y-143207200D02*
X159291667Y-143254819D01*
X159291667Y-143254819D02*
X159101190Y-143254819D01*
X159101190Y-143254819D02*
X159011905Y-143207200D01*
X159011905Y-143207200D02*
X158976190Y-143111961D01*
X158976190Y-143111961D02*
X159023810Y-142731009D01*
X159023810Y-142731009D02*
X159083333Y-142635771D01*
X159083333Y-142635771D02*
X159184524Y-142588152D01*
X159184524Y-142588152D02*
X159375000Y-142588152D01*
X159375000Y-142588152D02*
X159464286Y-142635771D01*
X159464286Y-142635771D02*
X159500000Y-142731009D01*
X159500000Y-142731009D02*
X159488095Y-142826247D01*
X159488095Y-142826247D02*
X159000000Y-142921485D01*
X159863095Y-143254819D02*
X159946429Y-142588152D01*
X159922619Y-142778628D02*
X159982143Y-142683390D01*
X159982143Y-142683390D02*
X160035714Y-142635771D01*
X160035714Y-142635771D02*
X160136905Y-142588152D01*
X160136905Y-142588152D02*
X160232143Y-142588152D01*
X160482143Y-143254819D02*
X160607143Y-142254819D01*
X160607143Y-142254819D02*
X160988096Y-142254819D01*
X160988096Y-142254819D02*
X161077381Y-142302438D01*
X161077381Y-142302438D02*
X161119048Y-142350057D01*
X161119048Y-142350057D02*
X161154762Y-142445295D01*
X161154762Y-142445295D02*
X161136905Y-142588152D01*
X161136905Y-142588152D02*
X161077381Y-142683390D01*
X161077381Y-142683390D02*
X161023810Y-142731009D01*
X161023810Y-142731009D02*
X160922620Y-142778628D01*
X160922620Y-142778628D02*
X160541667Y-142778628D01*
X161625001Y-143254819D02*
X161535715Y-143207200D01*
X161535715Y-143207200D02*
X161494048Y-143159580D01*
X161494048Y-143159580D02*
X161458334Y-143064342D01*
X161458334Y-143064342D02*
X161494048Y-142778628D01*
X161494048Y-142778628D02*
X161553572Y-142683390D01*
X161553572Y-142683390D02*
X161607143Y-142635771D01*
X161607143Y-142635771D02*
X161708334Y-142588152D01*
X161708334Y-142588152D02*
X161851191Y-142588152D01*
X161851191Y-142588152D02*
X161940477Y-142635771D01*
X161940477Y-142635771D02*
X161982143Y-142683390D01*
X161982143Y-142683390D02*
X162017858Y-142778628D01*
X162017858Y-142778628D02*
X161982143Y-143064342D01*
X161982143Y-143064342D02*
X161922620Y-143159580D01*
X161922620Y-143159580D02*
X161869048Y-143207200D01*
X161869048Y-143207200D02*
X161767858Y-143254819D01*
X161767858Y-143254819D02*
X161625001Y-143254819D01*
X162375001Y-142588152D02*
X162482143Y-143254819D01*
X162482143Y-143254819D02*
X162732143Y-142778628D01*
X162732143Y-142778628D02*
X162863096Y-143254819D01*
X162863096Y-143254819D02*
X163136905Y-142588152D01*
X163821429Y-143207200D02*
X163720239Y-143254819D01*
X163720239Y-143254819D02*
X163529762Y-143254819D01*
X163529762Y-143254819D02*
X163440477Y-143207200D01*
X163440477Y-143207200D02*
X163404762Y-143111961D01*
X163404762Y-143111961D02*
X163452382Y-142731009D01*
X163452382Y-142731009D02*
X163511905Y-142635771D01*
X163511905Y-142635771D02*
X163613096Y-142588152D01*
X163613096Y-142588152D02*
X163803572Y-142588152D01*
X163803572Y-142588152D02*
X163892858Y-142635771D01*
X163892858Y-142635771D02*
X163928572Y-142731009D01*
X163928572Y-142731009D02*
X163916667Y-142826247D01*
X163916667Y-142826247D02*
X163428572Y-142921485D01*
X164291667Y-143254819D02*
X164375001Y-142588152D01*
X164351191Y-142778628D02*
X164410715Y-142683390D01*
X164410715Y-142683390D02*
X164464286Y-142635771D01*
X164464286Y-142635771D02*
X164565477Y-142588152D01*
X164565477Y-142588152D02*
X164660715Y-142588152D01*
X144959580Y-121442857D02*
X145007200Y-121490476D01*
X145007200Y-121490476D02*
X145054819Y-121633333D01*
X145054819Y-121633333D02*
X145054819Y-121728571D01*
X145054819Y-121728571D02*
X145007200Y-121871428D01*
X145007200Y-121871428D02*
X144911961Y-121966666D01*
X144911961Y-121966666D02*
X144816723Y-122014285D01*
X144816723Y-122014285D02*
X144626247Y-122061904D01*
X144626247Y-122061904D02*
X144483390Y-122061904D01*
X144483390Y-122061904D02*
X144292914Y-122014285D01*
X144292914Y-122014285D02*
X144197676Y-121966666D01*
X144197676Y-121966666D02*
X144102438Y-121871428D01*
X144102438Y-121871428D02*
X144054819Y-121728571D01*
X144054819Y-121728571D02*
X144054819Y-121633333D01*
X144054819Y-121633333D02*
X144102438Y-121490476D01*
X144102438Y-121490476D02*
X144150057Y-121442857D01*
X144150057Y-121061904D02*
X144102438Y-121014285D01*
X144102438Y-121014285D02*
X144054819Y-120919047D01*
X144054819Y-120919047D02*
X144054819Y-120680952D01*
X144054819Y-120680952D02*
X144102438Y-120585714D01*
X144102438Y-120585714D02*
X144150057Y-120538095D01*
X144150057Y-120538095D02*
X144245295Y-120490476D01*
X144245295Y-120490476D02*
X144340533Y-120490476D01*
X144340533Y-120490476D02*
X144483390Y-120538095D01*
X144483390Y-120538095D02*
X145054819Y-121109523D01*
X145054819Y-121109523D02*
X145054819Y-120490476D01*
X144054819Y-119585714D02*
X144054819Y-120061904D01*
X144054819Y-120061904D02*
X144531009Y-120109523D01*
X144531009Y-120109523D02*
X144483390Y-120061904D01*
X144483390Y-120061904D02*
X144435771Y-119966666D01*
X144435771Y-119966666D02*
X144435771Y-119728571D01*
X144435771Y-119728571D02*
X144483390Y-119633333D01*
X144483390Y-119633333D02*
X144531009Y-119585714D01*
X144531009Y-119585714D02*
X144626247Y-119538095D01*
X144626247Y-119538095D02*
X144864342Y-119538095D01*
X144864342Y-119538095D02*
X144959580Y-119585714D01*
X144959580Y-119585714D02*
X145007200Y-119633333D01*
X145007200Y-119633333D02*
X145054819Y-119728571D01*
X145054819Y-119728571D02*
X145054819Y-119966666D01*
X145054819Y-119966666D02*
X145007200Y-120061904D01*
X145007200Y-120061904D02*
X144959580Y-120109523D01*
X157657142Y-66959580D02*
X157609523Y-67007200D01*
X157609523Y-67007200D02*
X157466666Y-67054819D01*
X157466666Y-67054819D02*
X157371428Y-67054819D01*
X157371428Y-67054819D02*
X157228571Y-67007200D01*
X157228571Y-67007200D02*
X157133333Y-66911961D01*
X157133333Y-66911961D02*
X157085714Y-66816723D01*
X157085714Y-66816723D02*
X157038095Y-66626247D01*
X157038095Y-66626247D02*
X157038095Y-66483390D01*
X157038095Y-66483390D02*
X157085714Y-66292914D01*
X157085714Y-66292914D02*
X157133333Y-66197676D01*
X157133333Y-66197676D02*
X157228571Y-66102438D01*
X157228571Y-66102438D02*
X157371428Y-66054819D01*
X157371428Y-66054819D02*
X157466666Y-66054819D01*
X157466666Y-66054819D02*
X157609523Y-66102438D01*
X157609523Y-66102438D02*
X157657142Y-66150057D01*
X158609523Y-67054819D02*
X158038095Y-67054819D01*
X158323809Y-67054819D02*
X158323809Y-66054819D01*
X158323809Y-66054819D02*
X158228571Y-66197676D01*
X158228571Y-66197676D02*
X158133333Y-66292914D01*
X158133333Y-66292914D02*
X158038095Y-66340533D01*
X159466666Y-66388152D02*
X159466666Y-67054819D01*
X159228571Y-66007200D02*
X158990476Y-66721485D01*
X158990476Y-66721485D02*
X159609523Y-66721485D01*
X128057142Y-99809580D02*
X128009523Y-99857200D01*
X128009523Y-99857200D02*
X127866666Y-99904819D01*
X127866666Y-99904819D02*
X127771428Y-99904819D01*
X127771428Y-99904819D02*
X127628571Y-99857200D01*
X127628571Y-99857200D02*
X127533333Y-99761961D01*
X127533333Y-99761961D02*
X127485714Y-99666723D01*
X127485714Y-99666723D02*
X127438095Y-99476247D01*
X127438095Y-99476247D02*
X127438095Y-99333390D01*
X127438095Y-99333390D02*
X127485714Y-99142914D01*
X127485714Y-99142914D02*
X127533333Y-99047676D01*
X127533333Y-99047676D02*
X127628571Y-98952438D01*
X127628571Y-98952438D02*
X127771428Y-98904819D01*
X127771428Y-98904819D02*
X127866666Y-98904819D01*
X127866666Y-98904819D02*
X128009523Y-98952438D01*
X128009523Y-98952438D02*
X128057142Y-99000057D01*
X128390476Y-98904819D02*
X129009523Y-98904819D01*
X129009523Y-98904819D02*
X128676190Y-99285771D01*
X128676190Y-99285771D02*
X128819047Y-99285771D01*
X128819047Y-99285771D02*
X128914285Y-99333390D01*
X128914285Y-99333390D02*
X128961904Y-99381009D01*
X128961904Y-99381009D02*
X129009523Y-99476247D01*
X129009523Y-99476247D02*
X129009523Y-99714342D01*
X129009523Y-99714342D02*
X128961904Y-99809580D01*
X128961904Y-99809580D02*
X128914285Y-99857200D01*
X128914285Y-99857200D02*
X128819047Y-99904819D01*
X128819047Y-99904819D02*
X128533333Y-99904819D01*
X128533333Y-99904819D02*
X128438095Y-99857200D01*
X128438095Y-99857200D02*
X128390476Y-99809580D01*
X129342857Y-98904819D02*
X129961904Y-98904819D01*
X129961904Y-98904819D02*
X129628571Y-99285771D01*
X129628571Y-99285771D02*
X129771428Y-99285771D01*
X129771428Y-99285771D02*
X129866666Y-99333390D01*
X129866666Y-99333390D02*
X129914285Y-99381009D01*
X129914285Y-99381009D02*
X129961904Y-99476247D01*
X129961904Y-99476247D02*
X129961904Y-99714342D01*
X129961904Y-99714342D02*
X129914285Y-99809580D01*
X129914285Y-99809580D02*
X129866666Y-99857200D01*
X129866666Y-99857200D02*
X129771428Y-99904819D01*
X129771428Y-99904819D02*
X129485714Y-99904819D01*
X129485714Y-99904819D02*
X129390476Y-99857200D01*
X129390476Y-99857200D02*
X129342857Y-99809580D01*
X124657142Y-89609580D02*
X124609523Y-89657200D01*
X124609523Y-89657200D02*
X124466666Y-89704819D01*
X124466666Y-89704819D02*
X124371428Y-89704819D01*
X124371428Y-89704819D02*
X124228571Y-89657200D01*
X124228571Y-89657200D02*
X124133333Y-89561961D01*
X124133333Y-89561961D02*
X124085714Y-89466723D01*
X124085714Y-89466723D02*
X124038095Y-89276247D01*
X124038095Y-89276247D02*
X124038095Y-89133390D01*
X124038095Y-89133390D02*
X124085714Y-88942914D01*
X124085714Y-88942914D02*
X124133333Y-88847676D01*
X124133333Y-88847676D02*
X124228571Y-88752438D01*
X124228571Y-88752438D02*
X124371428Y-88704819D01*
X124371428Y-88704819D02*
X124466666Y-88704819D01*
X124466666Y-88704819D02*
X124609523Y-88752438D01*
X124609523Y-88752438D02*
X124657142Y-88800057D01*
X125609523Y-89704819D02*
X125038095Y-89704819D01*
X125323809Y-89704819D02*
X125323809Y-88704819D01*
X125323809Y-88704819D02*
X125228571Y-88847676D01*
X125228571Y-88847676D02*
X125133333Y-88942914D01*
X125133333Y-88942914D02*
X125038095Y-88990533D01*
X126180952Y-89133390D02*
X126085714Y-89085771D01*
X126085714Y-89085771D02*
X126038095Y-89038152D01*
X126038095Y-89038152D02*
X125990476Y-88942914D01*
X125990476Y-88942914D02*
X125990476Y-88895295D01*
X125990476Y-88895295D02*
X126038095Y-88800057D01*
X126038095Y-88800057D02*
X126085714Y-88752438D01*
X126085714Y-88752438D02*
X126180952Y-88704819D01*
X126180952Y-88704819D02*
X126371428Y-88704819D01*
X126371428Y-88704819D02*
X126466666Y-88752438D01*
X126466666Y-88752438D02*
X126514285Y-88800057D01*
X126514285Y-88800057D02*
X126561904Y-88895295D01*
X126561904Y-88895295D02*
X126561904Y-88942914D01*
X126561904Y-88942914D02*
X126514285Y-89038152D01*
X126514285Y-89038152D02*
X126466666Y-89085771D01*
X126466666Y-89085771D02*
X126371428Y-89133390D01*
X126371428Y-89133390D02*
X126180952Y-89133390D01*
X126180952Y-89133390D02*
X126085714Y-89181009D01*
X126085714Y-89181009D02*
X126038095Y-89228628D01*
X126038095Y-89228628D02*
X125990476Y-89323866D01*
X125990476Y-89323866D02*
X125990476Y-89514342D01*
X125990476Y-89514342D02*
X126038095Y-89609580D01*
X126038095Y-89609580D02*
X126085714Y-89657200D01*
X126085714Y-89657200D02*
X126180952Y-89704819D01*
X126180952Y-89704819D02*
X126371428Y-89704819D01*
X126371428Y-89704819D02*
X126466666Y-89657200D01*
X126466666Y-89657200D02*
X126514285Y-89609580D01*
X126514285Y-89609580D02*
X126561904Y-89514342D01*
X126561904Y-89514342D02*
X126561904Y-89323866D01*
X126561904Y-89323866D02*
X126514285Y-89228628D01*
X126514285Y-89228628D02*
X126466666Y-89181009D01*
X126466666Y-89181009D02*
X126371428Y-89133390D01*
X139879819Y-115086904D02*
X140689342Y-115086904D01*
X140689342Y-115086904D02*
X140784580Y-115039285D01*
X140784580Y-115039285D02*
X140832200Y-114991666D01*
X140832200Y-114991666D02*
X140879819Y-114896428D01*
X140879819Y-114896428D02*
X140879819Y-114705952D01*
X140879819Y-114705952D02*
X140832200Y-114610714D01*
X140832200Y-114610714D02*
X140784580Y-114563095D01*
X140784580Y-114563095D02*
X140689342Y-114515476D01*
X140689342Y-114515476D02*
X139879819Y-114515476D01*
X139975057Y-114086904D02*
X139927438Y-114039285D01*
X139927438Y-114039285D02*
X139879819Y-113944047D01*
X139879819Y-113944047D02*
X139879819Y-113705952D01*
X139879819Y-113705952D02*
X139927438Y-113610714D01*
X139927438Y-113610714D02*
X139975057Y-113563095D01*
X139975057Y-113563095D02*
X140070295Y-113515476D01*
X140070295Y-113515476D02*
X140165533Y-113515476D01*
X140165533Y-113515476D02*
X140308390Y-113563095D01*
X140308390Y-113563095D02*
X140879819Y-114134523D01*
X140879819Y-114134523D02*
X140879819Y-113515476D01*
X135757142Y-84559580D02*
X135709523Y-84607200D01*
X135709523Y-84607200D02*
X135566666Y-84654819D01*
X135566666Y-84654819D02*
X135471428Y-84654819D01*
X135471428Y-84654819D02*
X135328571Y-84607200D01*
X135328571Y-84607200D02*
X135233333Y-84511961D01*
X135233333Y-84511961D02*
X135185714Y-84416723D01*
X135185714Y-84416723D02*
X135138095Y-84226247D01*
X135138095Y-84226247D02*
X135138095Y-84083390D01*
X135138095Y-84083390D02*
X135185714Y-83892914D01*
X135185714Y-83892914D02*
X135233333Y-83797676D01*
X135233333Y-83797676D02*
X135328571Y-83702438D01*
X135328571Y-83702438D02*
X135471428Y-83654819D01*
X135471428Y-83654819D02*
X135566666Y-83654819D01*
X135566666Y-83654819D02*
X135709523Y-83702438D01*
X135709523Y-83702438D02*
X135757142Y-83750057D01*
X136709523Y-84654819D02*
X136138095Y-84654819D01*
X136423809Y-84654819D02*
X136423809Y-83654819D01*
X136423809Y-83654819D02*
X136328571Y-83797676D01*
X136328571Y-83797676D02*
X136233333Y-83892914D01*
X136233333Y-83892914D02*
X136138095Y-83940533D01*
X137614285Y-83654819D02*
X137138095Y-83654819D01*
X137138095Y-83654819D02*
X137090476Y-84131009D01*
X137090476Y-84131009D02*
X137138095Y-84083390D01*
X137138095Y-84083390D02*
X137233333Y-84035771D01*
X137233333Y-84035771D02*
X137471428Y-84035771D01*
X137471428Y-84035771D02*
X137566666Y-84083390D01*
X137566666Y-84083390D02*
X137614285Y-84131009D01*
X137614285Y-84131009D02*
X137661904Y-84226247D01*
X137661904Y-84226247D02*
X137661904Y-84464342D01*
X137661904Y-84464342D02*
X137614285Y-84559580D01*
X137614285Y-84559580D02*
X137566666Y-84607200D01*
X137566666Y-84607200D02*
X137471428Y-84654819D01*
X137471428Y-84654819D02*
X137233333Y-84654819D01*
X137233333Y-84654819D02*
X137138095Y-84607200D01*
X137138095Y-84607200D02*
X137090476Y-84559580D01*
X135333333Y-111829580D02*
X135285714Y-111877200D01*
X135285714Y-111877200D02*
X135142857Y-111924819D01*
X135142857Y-111924819D02*
X135047619Y-111924819D01*
X135047619Y-111924819D02*
X134904762Y-111877200D01*
X134904762Y-111877200D02*
X134809524Y-111781961D01*
X134809524Y-111781961D02*
X134761905Y-111686723D01*
X134761905Y-111686723D02*
X134714286Y-111496247D01*
X134714286Y-111496247D02*
X134714286Y-111353390D01*
X134714286Y-111353390D02*
X134761905Y-111162914D01*
X134761905Y-111162914D02*
X134809524Y-111067676D01*
X134809524Y-111067676D02*
X134904762Y-110972438D01*
X134904762Y-110972438D02*
X135047619Y-110924819D01*
X135047619Y-110924819D02*
X135142857Y-110924819D01*
X135142857Y-110924819D02*
X135285714Y-110972438D01*
X135285714Y-110972438D02*
X135333333Y-111020057D01*
X135666667Y-110924819D02*
X136333333Y-110924819D01*
X136333333Y-110924819D02*
X135904762Y-111924819D01*
X146684580Y-102566666D02*
X146732200Y-102614285D01*
X146732200Y-102614285D02*
X146779819Y-102757142D01*
X146779819Y-102757142D02*
X146779819Y-102852380D01*
X146779819Y-102852380D02*
X146732200Y-102995237D01*
X146732200Y-102995237D02*
X146636961Y-103090475D01*
X146636961Y-103090475D02*
X146541723Y-103138094D01*
X146541723Y-103138094D02*
X146351247Y-103185713D01*
X146351247Y-103185713D02*
X146208390Y-103185713D01*
X146208390Y-103185713D02*
X146017914Y-103138094D01*
X146017914Y-103138094D02*
X145922676Y-103090475D01*
X145922676Y-103090475D02*
X145827438Y-102995237D01*
X145827438Y-102995237D02*
X145779819Y-102852380D01*
X145779819Y-102852380D02*
X145779819Y-102757142D01*
X145779819Y-102757142D02*
X145827438Y-102614285D01*
X145827438Y-102614285D02*
X145875057Y-102566666D01*
X145779819Y-102233332D02*
X145779819Y-101614285D01*
X145779819Y-101614285D02*
X146160771Y-101947618D01*
X146160771Y-101947618D02*
X146160771Y-101804761D01*
X146160771Y-101804761D02*
X146208390Y-101709523D01*
X146208390Y-101709523D02*
X146256009Y-101661904D01*
X146256009Y-101661904D02*
X146351247Y-101614285D01*
X146351247Y-101614285D02*
X146589342Y-101614285D01*
X146589342Y-101614285D02*
X146684580Y-101661904D01*
X146684580Y-101661904D02*
X146732200Y-101709523D01*
X146732200Y-101709523D02*
X146779819Y-101804761D01*
X146779819Y-101804761D02*
X146779819Y-102090475D01*
X146779819Y-102090475D02*
X146732200Y-102185713D01*
X146732200Y-102185713D02*
X146684580Y-102233332D01*
X154762295Y-112514285D02*
X154381342Y-112780952D01*
X154762295Y-112971428D02*
X153962295Y-112971428D01*
X153962295Y-112971428D02*
X153962295Y-112666666D01*
X153962295Y-112666666D02*
X154000390Y-112590476D01*
X154000390Y-112590476D02*
X154038485Y-112552381D01*
X154038485Y-112552381D02*
X154114676Y-112514285D01*
X154114676Y-112514285D02*
X154228961Y-112514285D01*
X154228961Y-112514285D02*
X154305152Y-112552381D01*
X154305152Y-112552381D02*
X154343247Y-112590476D01*
X154343247Y-112590476D02*
X154381342Y-112666666D01*
X154381342Y-112666666D02*
X154381342Y-112971428D01*
X154038485Y-112209524D02*
X154000390Y-112171428D01*
X154000390Y-112171428D02*
X153962295Y-112095238D01*
X153962295Y-112095238D02*
X153962295Y-111904762D01*
X153962295Y-111904762D02*
X154000390Y-111828571D01*
X154000390Y-111828571D02*
X154038485Y-111790476D01*
X154038485Y-111790476D02*
X154114676Y-111752381D01*
X154114676Y-111752381D02*
X154190866Y-111752381D01*
X154190866Y-111752381D02*
X154305152Y-111790476D01*
X154305152Y-111790476D02*
X154762295Y-112247619D01*
X154762295Y-112247619D02*
X154762295Y-111752381D01*
X153962295Y-111485714D02*
X153962295Y-110952380D01*
X153962295Y-110952380D02*
X154762295Y-111295238D01*
X132759580Y-114942857D02*
X132807200Y-114990476D01*
X132807200Y-114990476D02*
X132854819Y-115133333D01*
X132854819Y-115133333D02*
X132854819Y-115228571D01*
X132854819Y-115228571D02*
X132807200Y-115371428D01*
X132807200Y-115371428D02*
X132711961Y-115466666D01*
X132711961Y-115466666D02*
X132616723Y-115514285D01*
X132616723Y-115514285D02*
X132426247Y-115561904D01*
X132426247Y-115561904D02*
X132283390Y-115561904D01*
X132283390Y-115561904D02*
X132092914Y-115514285D01*
X132092914Y-115514285D02*
X131997676Y-115466666D01*
X131997676Y-115466666D02*
X131902438Y-115371428D01*
X131902438Y-115371428D02*
X131854819Y-115228571D01*
X131854819Y-115228571D02*
X131854819Y-115133333D01*
X131854819Y-115133333D02*
X131902438Y-114990476D01*
X131902438Y-114990476D02*
X131950057Y-114942857D01*
X132854819Y-113990476D02*
X132854819Y-114561904D01*
X132854819Y-114276190D02*
X131854819Y-114276190D01*
X131854819Y-114276190D02*
X131997676Y-114371428D01*
X131997676Y-114371428D02*
X132092914Y-114466666D01*
X132092914Y-114466666D02*
X132140533Y-114561904D01*
X132854819Y-113514285D02*
X132854819Y-113323809D01*
X132854819Y-113323809D02*
X132807200Y-113228571D01*
X132807200Y-113228571D02*
X132759580Y-113180952D01*
X132759580Y-113180952D02*
X132616723Y-113085714D01*
X132616723Y-113085714D02*
X132426247Y-113038095D01*
X132426247Y-113038095D02*
X132045295Y-113038095D01*
X132045295Y-113038095D02*
X131950057Y-113085714D01*
X131950057Y-113085714D02*
X131902438Y-113133333D01*
X131902438Y-113133333D02*
X131854819Y-113228571D01*
X131854819Y-113228571D02*
X131854819Y-113419047D01*
X131854819Y-113419047D02*
X131902438Y-113514285D01*
X131902438Y-113514285D02*
X131950057Y-113561904D01*
X131950057Y-113561904D02*
X132045295Y-113609523D01*
X132045295Y-113609523D02*
X132283390Y-113609523D01*
X132283390Y-113609523D02*
X132378628Y-113561904D01*
X132378628Y-113561904D02*
X132426247Y-113514285D01*
X132426247Y-113514285D02*
X132473866Y-113419047D01*
X132473866Y-113419047D02*
X132473866Y-113228571D01*
X132473866Y-113228571D02*
X132426247Y-113133333D01*
X132426247Y-113133333D02*
X132378628Y-113085714D01*
X132378628Y-113085714D02*
X132283390Y-113038095D01*
X139354819Y-120061904D02*
X140164342Y-120061904D01*
X140164342Y-120061904D02*
X140259580Y-120014285D01*
X140259580Y-120014285D02*
X140307200Y-119966666D01*
X140307200Y-119966666D02*
X140354819Y-119871428D01*
X140354819Y-119871428D02*
X140354819Y-119680952D01*
X140354819Y-119680952D02*
X140307200Y-119585714D01*
X140307200Y-119585714D02*
X140259580Y-119538095D01*
X140259580Y-119538095D02*
X140164342Y-119490476D01*
X140164342Y-119490476D02*
X139354819Y-119490476D01*
X139688152Y-118585714D02*
X140354819Y-118585714D01*
X139307200Y-118823809D02*
X140021485Y-119061904D01*
X140021485Y-119061904D02*
X140021485Y-118442857D01*
X132554819Y-89092857D02*
X132078628Y-89426190D01*
X132554819Y-89664285D02*
X131554819Y-89664285D01*
X131554819Y-89664285D02*
X131554819Y-89283333D01*
X131554819Y-89283333D02*
X131602438Y-89188095D01*
X131602438Y-89188095D02*
X131650057Y-89140476D01*
X131650057Y-89140476D02*
X131745295Y-89092857D01*
X131745295Y-89092857D02*
X131888152Y-89092857D01*
X131888152Y-89092857D02*
X131983390Y-89140476D01*
X131983390Y-89140476D02*
X132031009Y-89188095D01*
X132031009Y-89188095D02*
X132078628Y-89283333D01*
X132078628Y-89283333D02*
X132078628Y-89664285D01*
X131554819Y-88759523D02*
X131554819Y-88140476D01*
X131554819Y-88140476D02*
X131935771Y-88473809D01*
X131935771Y-88473809D02*
X131935771Y-88330952D01*
X131935771Y-88330952D02*
X131983390Y-88235714D01*
X131983390Y-88235714D02*
X132031009Y-88188095D01*
X132031009Y-88188095D02*
X132126247Y-88140476D01*
X132126247Y-88140476D02*
X132364342Y-88140476D01*
X132364342Y-88140476D02*
X132459580Y-88188095D01*
X132459580Y-88188095D02*
X132507200Y-88235714D01*
X132507200Y-88235714D02*
X132554819Y-88330952D01*
X132554819Y-88330952D02*
X132554819Y-88616666D01*
X132554819Y-88616666D02*
X132507200Y-88711904D01*
X132507200Y-88711904D02*
X132459580Y-88759523D01*
X131554819Y-87235714D02*
X131554819Y-87711904D01*
X131554819Y-87711904D02*
X132031009Y-87759523D01*
X132031009Y-87759523D02*
X131983390Y-87711904D01*
X131983390Y-87711904D02*
X131935771Y-87616666D01*
X131935771Y-87616666D02*
X131935771Y-87378571D01*
X131935771Y-87378571D02*
X131983390Y-87283333D01*
X131983390Y-87283333D02*
X132031009Y-87235714D01*
X132031009Y-87235714D02*
X132126247Y-87188095D01*
X132126247Y-87188095D02*
X132364342Y-87188095D01*
X132364342Y-87188095D02*
X132459580Y-87235714D01*
X132459580Y-87235714D02*
X132507200Y-87283333D01*
X132507200Y-87283333D02*
X132554819Y-87378571D01*
X132554819Y-87378571D02*
X132554819Y-87616666D01*
X132554819Y-87616666D02*
X132507200Y-87711904D01*
X132507200Y-87711904D02*
X132459580Y-87759523D01*
X134059580Y-96892857D02*
X134107200Y-96940476D01*
X134107200Y-96940476D02*
X134154819Y-97083333D01*
X134154819Y-97083333D02*
X134154819Y-97178571D01*
X134154819Y-97178571D02*
X134107200Y-97321428D01*
X134107200Y-97321428D02*
X134011961Y-97416666D01*
X134011961Y-97416666D02*
X133916723Y-97464285D01*
X133916723Y-97464285D02*
X133726247Y-97511904D01*
X133726247Y-97511904D02*
X133583390Y-97511904D01*
X133583390Y-97511904D02*
X133392914Y-97464285D01*
X133392914Y-97464285D02*
X133297676Y-97416666D01*
X133297676Y-97416666D02*
X133202438Y-97321428D01*
X133202438Y-97321428D02*
X133154819Y-97178571D01*
X133154819Y-97178571D02*
X133154819Y-97083333D01*
X133154819Y-97083333D02*
X133202438Y-96940476D01*
X133202438Y-96940476D02*
X133250057Y-96892857D01*
X133154819Y-96559523D02*
X133154819Y-95940476D01*
X133154819Y-95940476D02*
X133535771Y-96273809D01*
X133535771Y-96273809D02*
X133535771Y-96130952D01*
X133535771Y-96130952D02*
X133583390Y-96035714D01*
X133583390Y-96035714D02*
X133631009Y-95988095D01*
X133631009Y-95988095D02*
X133726247Y-95940476D01*
X133726247Y-95940476D02*
X133964342Y-95940476D01*
X133964342Y-95940476D02*
X134059580Y-95988095D01*
X134059580Y-95988095D02*
X134107200Y-96035714D01*
X134107200Y-96035714D02*
X134154819Y-96130952D01*
X134154819Y-96130952D02*
X134154819Y-96416666D01*
X134154819Y-96416666D02*
X134107200Y-96511904D01*
X134107200Y-96511904D02*
X134059580Y-96559523D01*
X133250057Y-95559523D02*
X133202438Y-95511904D01*
X133202438Y-95511904D02*
X133154819Y-95416666D01*
X133154819Y-95416666D02*
X133154819Y-95178571D01*
X133154819Y-95178571D02*
X133202438Y-95083333D01*
X133202438Y-95083333D02*
X133250057Y-95035714D01*
X133250057Y-95035714D02*
X133345295Y-94988095D01*
X133345295Y-94988095D02*
X133440533Y-94988095D01*
X133440533Y-94988095D02*
X133583390Y-95035714D01*
X133583390Y-95035714D02*
X134154819Y-95607142D01*
X134154819Y-95607142D02*
X134154819Y-94988095D01*
X141449580Y-101736666D02*
X141497200Y-101784285D01*
X141497200Y-101784285D02*
X141544819Y-101927142D01*
X141544819Y-101927142D02*
X141544819Y-102022380D01*
X141544819Y-102022380D02*
X141497200Y-102165237D01*
X141497200Y-102165237D02*
X141401961Y-102260475D01*
X141401961Y-102260475D02*
X141306723Y-102308094D01*
X141306723Y-102308094D02*
X141116247Y-102355713D01*
X141116247Y-102355713D02*
X140973390Y-102355713D01*
X140973390Y-102355713D02*
X140782914Y-102308094D01*
X140782914Y-102308094D02*
X140687676Y-102260475D01*
X140687676Y-102260475D02*
X140592438Y-102165237D01*
X140592438Y-102165237D02*
X140544819Y-102022380D01*
X140544819Y-102022380D02*
X140544819Y-101927142D01*
X140544819Y-101927142D02*
X140592438Y-101784285D01*
X140592438Y-101784285D02*
X140640057Y-101736666D01*
X141544819Y-100784285D02*
X141544819Y-101355713D01*
X141544819Y-101069999D02*
X140544819Y-101069999D01*
X140544819Y-101069999D02*
X140687676Y-101165237D01*
X140687676Y-101165237D02*
X140782914Y-101260475D01*
X140782914Y-101260475D02*
X140830533Y-101355713D01*
X151024580Y-125142857D02*
X151072200Y-125190476D01*
X151072200Y-125190476D02*
X151119819Y-125333333D01*
X151119819Y-125333333D02*
X151119819Y-125428571D01*
X151119819Y-125428571D02*
X151072200Y-125571428D01*
X151072200Y-125571428D02*
X150976961Y-125666666D01*
X150976961Y-125666666D02*
X150881723Y-125714285D01*
X150881723Y-125714285D02*
X150691247Y-125761904D01*
X150691247Y-125761904D02*
X150548390Y-125761904D01*
X150548390Y-125761904D02*
X150357914Y-125714285D01*
X150357914Y-125714285D02*
X150262676Y-125666666D01*
X150262676Y-125666666D02*
X150167438Y-125571428D01*
X150167438Y-125571428D02*
X150119819Y-125428571D01*
X150119819Y-125428571D02*
X150119819Y-125333333D01*
X150119819Y-125333333D02*
X150167438Y-125190476D01*
X150167438Y-125190476D02*
X150215057Y-125142857D01*
X150215057Y-124761904D02*
X150167438Y-124714285D01*
X150167438Y-124714285D02*
X150119819Y-124619047D01*
X150119819Y-124619047D02*
X150119819Y-124380952D01*
X150119819Y-124380952D02*
X150167438Y-124285714D01*
X150167438Y-124285714D02*
X150215057Y-124238095D01*
X150215057Y-124238095D02*
X150310295Y-124190476D01*
X150310295Y-124190476D02*
X150405533Y-124190476D01*
X150405533Y-124190476D02*
X150548390Y-124238095D01*
X150548390Y-124238095D02*
X151119819Y-124809523D01*
X151119819Y-124809523D02*
X151119819Y-124190476D01*
X150119819Y-123857142D02*
X150119819Y-123190476D01*
X150119819Y-123190476D02*
X151119819Y-123619047D01*
X157657142Y-68354819D02*
X157323809Y-67878628D01*
X157085714Y-68354819D02*
X157085714Y-67354819D01*
X157085714Y-67354819D02*
X157466666Y-67354819D01*
X157466666Y-67354819D02*
X157561904Y-67402438D01*
X157561904Y-67402438D02*
X157609523Y-67450057D01*
X157609523Y-67450057D02*
X157657142Y-67545295D01*
X157657142Y-67545295D02*
X157657142Y-67688152D01*
X157657142Y-67688152D02*
X157609523Y-67783390D01*
X157609523Y-67783390D02*
X157561904Y-67831009D01*
X157561904Y-67831009D02*
X157466666Y-67878628D01*
X157466666Y-67878628D02*
X157085714Y-67878628D01*
X158609523Y-68354819D02*
X158038095Y-68354819D01*
X158323809Y-68354819D02*
X158323809Y-67354819D01*
X158323809Y-67354819D02*
X158228571Y-67497676D01*
X158228571Y-67497676D02*
X158133333Y-67592914D01*
X158133333Y-67592914D02*
X158038095Y-67640533D01*
X159514285Y-67354819D02*
X159038095Y-67354819D01*
X159038095Y-67354819D02*
X158990476Y-67831009D01*
X158990476Y-67831009D02*
X159038095Y-67783390D01*
X159038095Y-67783390D02*
X159133333Y-67735771D01*
X159133333Y-67735771D02*
X159371428Y-67735771D01*
X159371428Y-67735771D02*
X159466666Y-67783390D01*
X159466666Y-67783390D02*
X159514285Y-67831009D01*
X159514285Y-67831009D02*
X159561904Y-67926247D01*
X159561904Y-67926247D02*
X159561904Y-68164342D01*
X159561904Y-68164342D02*
X159514285Y-68259580D01*
X159514285Y-68259580D02*
X159466666Y-68307200D01*
X159466666Y-68307200D02*
X159371428Y-68354819D01*
X159371428Y-68354819D02*
X159133333Y-68354819D01*
X159133333Y-68354819D02*
X159038095Y-68307200D01*
X159038095Y-68307200D02*
X158990476Y-68259580D01*
X147357142Y-122854819D02*
X147023809Y-122378628D01*
X146785714Y-122854819D02*
X146785714Y-121854819D01*
X146785714Y-121854819D02*
X147166666Y-121854819D01*
X147166666Y-121854819D02*
X147261904Y-121902438D01*
X147261904Y-121902438D02*
X147309523Y-121950057D01*
X147309523Y-121950057D02*
X147357142Y-122045295D01*
X147357142Y-122045295D02*
X147357142Y-122188152D01*
X147357142Y-122188152D02*
X147309523Y-122283390D01*
X147309523Y-122283390D02*
X147261904Y-122331009D01*
X147261904Y-122331009D02*
X147166666Y-122378628D01*
X147166666Y-122378628D02*
X146785714Y-122378628D01*
X147690476Y-121854819D02*
X148309523Y-121854819D01*
X148309523Y-121854819D02*
X147976190Y-122235771D01*
X147976190Y-122235771D02*
X148119047Y-122235771D01*
X148119047Y-122235771D02*
X148214285Y-122283390D01*
X148214285Y-122283390D02*
X148261904Y-122331009D01*
X148261904Y-122331009D02*
X148309523Y-122426247D01*
X148309523Y-122426247D02*
X148309523Y-122664342D01*
X148309523Y-122664342D02*
X148261904Y-122759580D01*
X148261904Y-122759580D02*
X148214285Y-122807200D01*
X148214285Y-122807200D02*
X148119047Y-122854819D01*
X148119047Y-122854819D02*
X147833333Y-122854819D01*
X147833333Y-122854819D02*
X147738095Y-122807200D01*
X147738095Y-122807200D02*
X147690476Y-122759580D01*
X149261904Y-122854819D02*
X148690476Y-122854819D01*
X148976190Y-122854819D02*
X148976190Y-121854819D01*
X148976190Y-121854819D02*
X148880952Y-121997676D01*
X148880952Y-121997676D02*
X148785714Y-122092914D01*
X148785714Y-122092914D02*
X148690476Y-122140533D01*
X157657142Y-69654819D02*
X157323809Y-69178628D01*
X157085714Y-69654819D02*
X157085714Y-68654819D01*
X157085714Y-68654819D02*
X157466666Y-68654819D01*
X157466666Y-68654819D02*
X157561904Y-68702438D01*
X157561904Y-68702438D02*
X157609523Y-68750057D01*
X157609523Y-68750057D02*
X157657142Y-68845295D01*
X157657142Y-68845295D02*
X157657142Y-68988152D01*
X157657142Y-68988152D02*
X157609523Y-69083390D01*
X157609523Y-69083390D02*
X157561904Y-69131009D01*
X157561904Y-69131009D02*
X157466666Y-69178628D01*
X157466666Y-69178628D02*
X157085714Y-69178628D01*
X158609523Y-69654819D02*
X158038095Y-69654819D01*
X158323809Y-69654819D02*
X158323809Y-68654819D01*
X158323809Y-68654819D02*
X158228571Y-68797676D01*
X158228571Y-68797676D02*
X158133333Y-68892914D01*
X158133333Y-68892914D02*
X158038095Y-68940533D01*
X159466666Y-68988152D02*
X159466666Y-69654819D01*
X159228571Y-68607200D02*
X158990476Y-69321485D01*
X158990476Y-69321485D02*
X159609523Y-69321485D01*
X153357142Y-83359580D02*
X153309523Y-83407200D01*
X153309523Y-83407200D02*
X153166666Y-83454819D01*
X153166666Y-83454819D02*
X153071428Y-83454819D01*
X153071428Y-83454819D02*
X152928571Y-83407200D01*
X152928571Y-83407200D02*
X152833333Y-83311961D01*
X152833333Y-83311961D02*
X152785714Y-83216723D01*
X152785714Y-83216723D02*
X152738095Y-83026247D01*
X152738095Y-83026247D02*
X152738095Y-82883390D01*
X152738095Y-82883390D02*
X152785714Y-82692914D01*
X152785714Y-82692914D02*
X152833333Y-82597676D01*
X152833333Y-82597676D02*
X152928571Y-82502438D01*
X152928571Y-82502438D02*
X153071428Y-82454819D01*
X153071428Y-82454819D02*
X153166666Y-82454819D01*
X153166666Y-82454819D02*
X153309523Y-82502438D01*
X153309523Y-82502438D02*
X153357142Y-82550057D01*
X153738095Y-82550057D02*
X153785714Y-82502438D01*
X153785714Y-82502438D02*
X153880952Y-82454819D01*
X153880952Y-82454819D02*
X154119047Y-82454819D01*
X154119047Y-82454819D02*
X154214285Y-82502438D01*
X154214285Y-82502438D02*
X154261904Y-82550057D01*
X154261904Y-82550057D02*
X154309523Y-82645295D01*
X154309523Y-82645295D02*
X154309523Y-82740533D01*
X154309523Y-82740533D02*
X154261904Y-82883390D01*
X154261904Y-82883390D02*
X153690476Y-83454819D01*
X153690476Y-83454819D02*
X154309523Y-83454819D01*
X154642857Y-82454819D02*
X155261904Y-82454819D01*
X155261904Y-82454819D02*
X154928571Y-82835771D01*
X154928571Y-82835771D02*
X155071428Y-82835771D01*
X155071428Y-82835771D02*
X155166666Y-82883390D01*
X155166666Y-82883390D02*
X155214285Y-82931009D01*
X155214285Y-82931009D02*
X155261904Y-83026247D01*
X155261904Y-83026247D02*
X155261904Y-83264342D01*
X155261904Y-83264342D02*
X155214285Y-83359580D01*
X155214285Y-83359580D02*
X155166666Y-83407200D01*
X155166666Y-83407200D02*
X155071428Y-83454819D01*
X155071428Y-83454819D02*
X154785714Y-83454819D01*
X154785714Y-83454819D02*
X154690476Y-83407200D01*
X154690476Y-83407200D02*
X154642857Y-83359580D01*
X156954819Y-92861904D02*
X157764342Y-92861904D01*
X157764342Y-92861904D02*
X157859580Y-92814285D01*
X157859580Y-92814285D02*
X157907200Y-92766666D01*
X157907200Y-92766666D02*
X157954819Y-92671428D01*
X157954819Y-92671428D02*
X157954819Y-92480952D01*
X157954819Y-92480952D02*
X157907200Y-92385714D01*
X157907200Y-92385714D02*
X157859580Y-92338095D01*
X157859580Y-92338095D02*
X157764342Y-92290476D01*
X157764342Y-92290476D02*
X156954819Y-92290476D01*
X156954819Y-91338095D02*
X156954819Y-91814285D01*
X156954819Y-91814285D02*
X157431009Y-91861904D01*
X157431009Y-91861904D02*
X157383390Y-91814285D01*
X157383390Y-91814285D02*
X157335771Y-91719047D01*
X157335771Y-91719047D02*
X157335771Y-91480952D01*
X157335771Y-91480952D02*
X157383390Y-91385714D01*
X157383390Y-91385714D02*
X157431009Y-91338095D01*
X157431009Y-91338095D02*
X157526247Y-91290476D01*
X157526247Y-91290476D02*
X157764342Y-91290476D01*
X157764342Y-91290476D02*
X157859580Y-91338095D01*
X157859580Y-91338095D02*
X157907200Y-91385714D01*
X157907200Y-91385714D02*
X157954819Y-91480952D01*
X157954819Y-91480952D02*
X157954819Y-91719047D01*
X157954819Y-91719047D02*
X157907200Y-91814285D01*
X157907200Y-91814285D02*
X157859580Y-91861904D01*
X156460714Y-114986104D02*
X156422618Y-115024200D01*
X156422618Y-115024200D02*
X156308333Y-115062295D01*
X156308333Y-115062295D02*
X156232142Y-115062295D01*
X156232142Y-115062295D02*
X156117856Y-115024200D01*
X156117856Y-115024200D02*
X156041666Y-114948009D01*
X156041666Y-114948009D02*
X156003571Y-114871819D01*
X156003571Y-114871819D02*
X155965475Y-114719438D01*
X155965475Y-114719438D02*
X155965475Y-114605152D01*
X155965475Y-114605152D02*
X156003571Y-114452771D01*
X156003571Y-114452771D02*
X156041666Y-114376580D01*
X156041666Y-114376580D02*
X156117856Y-114300390D01*
X156117856Y-114300390D02*
X156232142Y-114262295D01*
X156232142Y-114262295D02*
X156308333Y-114262295D01*
X156308333Y-114262295D02*
X156422618Y-114300390D01*
X156422618Y-114300390D02*
X156460714Y-114338485D01*
X156765475Y-114338485D02*
X156803571Y-114300390D01*
X156803571Y-114300390D02*
X156879761Y-114262295D01*
X156879761Y-114262295D02*
X157070237Y-114262295D01*
X157070237Y-114262295D02*
X157146428Y-114300390D01*
X157146428Y-114300390D02*
X157184523Y-114338485D01*
X157184523Y-114338485D02*
X157222618Y-114414676D01*
X157222618Y-114414676D02*
X157222618Y-114490866D01*
X157222618Y-114490866D02*
X157184523Y-114605152D01*
X157184523Y-114605152D02*
X156727380Y-115062295D01*
X156727380Y-115062295D02*
X157222618Y-115062295D01*
X157717857Y-114262295D02*
X157794047Y-114262295D01*
X157794047Y-114262295D02*
X157870238Y-114300390D01*
X157870238Y-114300390D02*
X157908333Y-114338485D01*
X157908333Y-114338485D02*
X157946428Y-114414676D01*
X157946428Y-114414676D02*
X157984523Y-114567057D01*
X157984523Y-114567057D02*
X157984523Y-114757533D01*
X157984523Y-114757533D02*
X157946428Y-114909914D01*
X157946428Y-114909914D02*
X157908333Y-114986104D01*
X157908333Y-114986104D02*
X157870238Y-115024200D01*
X157870238Y-115024200D02*
X157794047Y-115062295D01*
X157794047Y-115062295D02*
X157717857Y-115062295D01*
X157717857Y-115062295D02*
X157641666Y-115024200D01*
X157641666Y-115024200D02*
X157603571Y-114986104D01*
X157603571Y-114986104D02*
X157565476Y-114909914D01*
X157565476Y-114909914D02*
X157527380Y-114757533D01*
X157527380Y-114757533D02*
X157527380Y-114567057D01*
X157527380Y-114567057D02*
X157565476Y-114414676D01*
X157565476Y-114414676D02*
X157603571Y-114338485D01*
X157603571Y-114338485D02*
X157641666Y-114300390D01*
X157641666Y-114300390D02*
X157717857Y-114262295D01*
X169454819Y-84688094D02*
X168454819Y-84688094D01*
X168454819Y-84688094D02*
X168454819Y-84449999D01*
X168454819Y-84449999D02*
X168502438Y-84307142D01*
X168502438Y-84307142D02*
X168597676Y-84211904D01*
X168597676Y-84211904D02*
X168692914Y-84164285D01*
X168692914Y-84164285D02*
X168883390Y-84116666D01*
X168883390Y-84116666D02*
X169026247Y-84116666D01*
X169026247Y-84116666D02*
X169216723Y-84164285D01*
X169216723Y-84164285D02*
X169311961Y-84211904D01*
X169311961Y-84211904D02*
X169407200Y-84307142D01*
X169407200Y-84307142D02*
X169454819Y-84449999D01*
X169454819Y-84449999D02*
X169454819Y-84688094D01*
X168454819Y-83783332D02*
X168454819Y-83164285D01*
X168454819Y-83164285D02*
X168835771Y-83497618D01*
X168835771Y-83497618D02*
X168835771Y-83354761D01*
X168835771Y-83354761D02*
X168883390Y-83259523D01*
X168883390Y-83259523D02*
X168931009Y-83211904D01*
X168931009Y-83211904D02*
X169026247Y-83164285D01*
X169026247Y-83164285D02*
X169264342Y-83164285D01*
X169264342Y-83164285D02*
X169359580Y-83211904D01*
X169359580Y-83211904D02*
X169407200Y-83259523D01*
X169407200Y-83259523D02*
X169454819Y-83354761D01*
X169454819Y-83354761D02*
X169454819Y-83640475D01*
X169454819Y-83640475D02*
X169407200Y-83735713D01*
X169407200Y-83735713D02*
X169359580Y-83783332D01*
X134457142Y-113329580D02*
X134409523Y-113377200D01*
X134409523Y-113377200D02*
X134266666Y-113424819D01*
X134266666Y-113424819D02*
X134171428Y-113424819D01*
X134171428Y-113424819D02*
X134028571Y-113377200D01*
X134028571Y-113377200D02*
X133933333Y-113281961D01*
X133933333Y-113281961D02*
X133885714Y-113186723D01*
X133885714Y-113186723D02*
X133838095Y-112996247D01*
X133838095Y-112996247D02*
X133838095Y-112853390D01*
X133838095Y-112853390D02*
X133885714Y-112662914D01*
X133885714Y-112662914D02*
X133933333Y-112567676D01*
X133933333Y-112567676D02*
X134028571Y-112472438D01*
X134028571Y-112472438D02*
X134171428Y-112424819D01*
X134171428Y-112424819D02*
X134266666Y-112424819D01*
X134266666Y-112424819D02*
X134409523Y-112472438D01*
X134409523Y-112472438D02*
X134457142Y-112520057D01*
X135409523Y-113424819D02*
X134838095Y-113424819D01*
X135123809Y-113424819D02*
X135123809Y-112424819D01*
X135123809Y-112424819D02*
X135028571Y-112567676D01*
X135028571Y-112567676D02*
X134933333Y-112662914D01*
X134933333Y-112662914D02*
X134838095Y-112710533D01*
X136028571Y-112424819D02*
X136123809Y-112424819D01*
X136123809Y-112424819D02*
X136219047Y-112472438D01*
X136219047Y-112472438D02*
X136266666Y-112520057D01*
X136266666Y-112520057D02*
X136314285Y-112615295D01*
X136314285Y-112615295D02*
X136361904Y-112805771D01*
X136361904Y-112805771D02*
X136361904Y-113043866D01*
X136361904Y-113043866D02*
X136314285Y-113234342D01*
X136314285Y-113234342D02*
X136266666Y-113329580D01*
X136266666Y-113329580D02*
X136219047Y-113377200D01*
X136219047Y-113377200D02*
X136123809Y-113424819D01*
X136123809Y-113424819D02*
X136028571Y-113424819D01*
X136028571Y-113424819D02*
X135933333Y-113377200D01*
X135933333Y-113377200D02*
X135885714Y-113329580D01*
X135885714Y-113329580D02*
X135838095Y-113234342D01*
X135838095Y-113234342D02*
X135790476Y-113043866D01*
X135790476Y-113043866D02*
X135790476Y-112805771D01*
X135790476Y-112805771D02*
X135838095Y-112615295D01*
X135838095Y-112615295D02*
X135885714Y-112520057D01*
X135885714Y-112520057D02*
X135933333Y-112472438D01*
X135933333Y-112472438D02*
X136028571Y-112424819D01*
X157557142Y-65654819D02*
X157223809Y-65178628D01*
X156985714Y-65654819D02*
X156985714Y-64654819D01*
X156985714Y-64654819D02*
X157366666Y-64654819D01*
X157366666Y-64654819D02*
X157461904Y-64702438D01*
X157461904Y-64702438D02*
X157509523Y-64750057D01*
X157509523Y-64750057D02*
X157557142Y-64845295D01*
X157557142Y-64845295D02*
X157557142Y-64988152D01*
X157557142Y-64988152D02*
X157509523Y-65083390D01*
X157509523Y-65083390D02*
X157461904Y-65131009D01*
X157461904Y-65131009D02*
X157366666Y-65178628D01*
X157366666Y-65178628D02*
X156985714Y-65178628D01*
X158509523Y-65654819D02*
X157938095Y-65654819D01*
X158223809Y-65654819D02*
X158223809Y-64654819D01*
X158223809Y-64654819D02*
X158128571Y-64797676D01*
X158128571Y-64797676D02*
X158033333Y-64892914D01*
X158033333Y-64892914D02*
X157938095Y-64940533D01*
X158842857Y-64654819D02*
X159461904Y-64654819D01*
X159461904Y-64654819D02*
X159128571Y-65035771D01*
X159128571Y-65035771D02*
X159271428Y-65035771D01*
X159271428Y-65035771D02*
X159366666Y-65083390D01*
X159366666Y-65083390D02*
X159414285Y-65131009D01*
X159414285Y-65131009D02*
X159461904Y-65226247D01*
X159461904Y-65226247D02*
X159461904Y-65464342D01*
X159461904Y-65464342D02*
X159414285Y-65559580D01*
X159414285Y-65559580D02*
X159366666Y-65607200D01*
X159366666Y-65607200D02*
X159271428Y-65654819D01*
X159271428Y-65654819D02*
X158985714Y-65654819D01*
X158985714Y-65654819D02*
X158890476Y-65607200D01*
X158890476Y-65607200D02*
X158842857Y-65559580D01*
X142749580Y-101736666D02*
X142797200Y-101784285D01*
X142797200Y-101784285D02*
X142844819Y-101927142D01*
X142844819Y-101927142D02*
X142844819Y-102022380D01*
X142844819Y-102022380D02*
X142797200Y-102165237D01*
X142797200Y-102165237D02*
X142701961Y-102260475D01*
X142701961Y-102260475D02*
X142606723Y-102308094D01*
X142606723Y-102308094D02*
X142416247Y-102355713D01*
X142416247Y-102355713D02*
X142273390Y-102355713D01*
X142273390Y-102355713D02*
X142082914Y-102308094D01*
X142082914Y-102308094D02*
X141987676Y-102260475D01*
X141987676Y-102260475D02*
X141892438Y-102165237D01*
X141892438Y-102165237D02*
X141844819Y-102022380D01*
X141844819Y-102022380D02*
X141844819Y-101927142D01*
X141844819Y-101927142D02*
X141892438Y-101784285D01*
X141892438Y-101784285D02*
X141940057Y-101736666D01*
X141940057Y-101355713D02*
X141892438Y-101308094D01*
X141892438Y-101308094D02*
X141844819Y-101212856D01*
X141844819Y-101212856D02*
X141844819Y-100974761D01*
X141844819Y-100974761D02*
X141892438Y-100879523D01*
X141892438Y-100879523D02*
X141940057Y-100831904D01*
X141940057Y-100831904D02*
X142035295Y-100784285D01*
X142035295Y-100784285D02*
X142130533Y-100784285D01*
X142130533Y-100784285D02*
X142273390Y-100831904D01*
X142273390Y-100831904D02*
X142844819Y-101403332D01*
X142844819Y-101403332D02*
X142844819Y-100784285D01*
X127557142Y-126054819D02*
X127223809Y-125578628D01*
X126985714Y-126054819D02*
X126985714Y-125054819D01*
X126985714Y-125054819D02*
X127366666Y-125054819D01*
X127366666Y-125054819D02*
X127461904Y-125102438D01*
X127461904Y-125102438D02*
X127509523Y-125150057D01*
X127509523Y-125150057D02*
X127557142Y-125245295D01*
X127557142Y-125245295D02*
X127557142Y-125388152D01*
X127557142Y-125388152D02*
X127509523Y-125483390D01*
X127509523Y-125483390D02*
X127461904Y-125531009D01*
X127461904Y-125531009D02*
X127366666Y-125578628D01*
X127366666Y-125578628D02*
X126985714Y-125578628D01*
X127938095Y-125150057D02*
X127985714Y-125102438D01*
X127985714Y-125102438D02*
X128080952Y-125054819D01*
X128080952Y-125054819D02*
X128319047Y-125054819D01*
X128319047Y-125054819D02*
X128414285Y-125102438D01*
X128414285Y-125102438D02*
X128461904Y-125150057D01*
X128461904Y-125150057D02*
X128509523Y-125245295D01*
X128509523Y-125245295D02*
X128509523Y-125340533D01*
X128509523Y-125340533D02*
X128461904Y-125483390D01*
X128461904Y-125483390D02*
X127890476Y-126054819D01*
X127890476Y-126054819D02*
X128509523Y-126054819D01*
X129366666Y-125388152D02*
X129366666Y-126054819D01*
X129128571Y-125007200D02*
X128890476Y-125721485D01*
X128890476Y-125721485D02*
X129509523Y-125721485D01*
X132554819Y-96892857D02*
X132078628Y-97226190D01*
X132554819Y-97464285D02*
X131554819Y-97464285D01*
X131554819Y-97464285D02*
X131554819Y-97083333D01*
X131554819Y-97083333D02*
X131602438Y-96988095D01*
X131602438Y-96988095D02*
X131650057Y-96940476D01*
X131650057Y-96940476D02*
X131745295Y-96892857D01*
X131745295Y-96892857D02*
X131888152Y-96892857D01*
X131888152Y-96892857D02*
X131983390Y-96940476D01*
X131983390Y-96940476D02*
X132031009Y-96988095D01*
X132031009Y-96988095D02*
X132078628Y-97083333D01*
X132078628Y-97083333D02*
X132078628Y-97464285D01*
X131554819Y-96559523D02*
X131554819Y-95940476D01*
X131554819Y-95940476D02*
X131935771Y-96273809D01*
X131935771Y-96273809D02*
X131935771Y-96130952D01*
X131935771Y-96130952D02*
X131983390Y-96035714D01*
X131983390Y-96035714D02*
X132031009Y-95988095D01*
X132031009Y-95988095D02*
X132126247Y-95940476D01*
X132126247Y-95940476D02*
X132364342Y-95940476D01*
X132364342Y-95940476D02*
X132459580Y-95988095D01*
X132459580Y-95988095D02*
X132507200Y-96035714D01*
X132507200Y-96035714D02*
X132554819Y-96130952D01*
X132554819Y-96130952D02*
X132554819Y-96416666D01*
X132554819Y-96416666D02*
X132507200Y-96511904D01*
X132507200Y-96511904D02*
X132459580Y-96559523D01*
X131888152Y-95083333D02*
X132554819Y-95083333D01*
X131507200Y-95321428D02*
X132221485Y-95559523D01*
X132221485Y-95559523D02*
X132221485Y-94940476D01*
X127354819Y-109833333D02*
X128069104Y-109833333D01*
X128069104Y-109833333D02*
X128211961Y-109880952D01*
X128211961Y-109880952D02*
X128307200Y-109976190D01*
X128307200Y-109976190D02*
X128354819Y-110119047D01*
X128354819Y-110119047D02*
X128354819Y-110214285D01*
X127354819Y-109452380D02*
X127354819Y-108833333D01*
X127354819Y-108833333D02*
X127735771Y-109166666D01*
X127735771Y-109166666D02*
X127735771Y-109023809D01*
X127735771Y-109023809D02*
X127783390Y-108928571D01*
X127783390Y-108928571D02*
X127831009Y-108880952D01*
X127831009Y-108880952D02*
X127926247Y-108833333D01*
X127926247Y-108833333D02*
X128164342Y-108833333D01*
X128164342Y-108833333D02*
X128259580Y-108880952D01*
X128259580Y-108880952D02*
X128307200Y-108928571D01*
X128307200Y-108928571D02*
X128354819Y-109023809D01*
X128354819Y-109023809D02*
X128354819Y-109309523D01*
X128354819Y-109309523D02*
X128307200Y-109404761D01*
X128307200Y-109404761D02*
X128259580Y-109452380D01*
X151566667Y-112186104D02*
X151528571Y-112224200D01*
X151528571Y-112224200D02*
X151414286Y-112262295D01*
X151414286Y-112262295D02*
X151338095Y-112262295D01*
X151338095Y-112262295D02*
X151223809Y-112224200D01*
X151223809Y-112224200D02*
X151147619Y-112148009D01*
X151147619Y-112148009D02*
X151109524Y-112071819D01*
X151109524Y-112071819D02*
X151071428Y-111919438D01*
X151071428Y-111919438D02*
X151071428Y-111805152D01*
X151071428Y-111805152D02*
X151109524Y-111652771D01*
X151109524Y-111652771D02*
X151147619Y-111576580D01*
X151147619Y-111576580D02*
X151223809Y-111500390D01*
X151223809Y-111500390D02*
X151338095Y-111462295D01*
X151338095Y-111462295D02*
X151414286Y-111462295D01*
X151414286Y-111462295D02*
X151528571Y-111500390D01*
X151528571Y-111500390D02*
X151566667Y-111538485D01*
X152252381Y-111728961D02*
X152252381Y-112262295D01*
X152061905Y-111424200D02*
X151871428Y-111995628D01*
X151871428Y-111995628D02*
X152366667Y-111995628D01*
X148685714Y-68712295D02*
X148419047Y-68331342D01*
X148228571Y-68712295D02*
X148228571Y-67912295D01*
X148228571Y-67912295D02*
X148533333Y-67912295D01*
X148533333Y-67912295D02*
X148609523Y-67950390D01*
X148609523Y-67950390D02*
X148647618Y-67988485D01*
X148647618Y-67988485D02*
X148685714Y-68064676D01*
X148685714Y-68064676D02*
X148685714Y-68178961D01*
X148685714Y-68178961D02*
X148647618Y-68255152D01*
X148647618Y-68255152D02*
X148609523Y-68293247D01*
X148609523Y-68293247D02*
X148533333Y-68331342D01*
X148533333Y-68331342D02*
X148228571Y-68331342D01*
X148990475Y-67988485D02*
X149028571Y-67950390D01*
X149028571Y-67950390D02*
X149104761Y-67912295D01*
X149104761Y-67912295D02*
X149295237Y-67912295D01*
X149295237Y-67912295D02*
X149371428Y-67950390D01*
X149371428Y-67950390D02*
X149409523Y-67988485D01*
X149409523Y-67988485D02*
X149447618Y-68064676D01*
X149447618Y-68064676D02*
X149447618Y-68140866D01*
X149447618Y-68140866D02*
X149409523Y-68255152D01*
X149409523Y-68255152D02*
X148952380Y-68712295D01*
X148952380Y-68712295D02*
X149447618Y-68712295D01*
X150209523Y-68712295D02*
X149752380Y-68712295D01*
X149980952Y-68712295D02*
X149980952Y-67912295D01*
X149980952Y-67912295D02*
X149904761Y-68026580D01*
X149904761Y-68026580D02*
X149828571Y-68102771D01*
X149828571Y-68102771D02*
X149752380Y-68140866D01*
X153757142Y-121354819D02*
X153423809Y-120878628D01*
X153185714Y-121354819D02*
X153185714Y-120354819D01*
X153185714Y-120354819D02*
X153566666Y-120354819D01*
X153566666Y-120354819D02*
X153661904Y-120402438D01*
X153661904Y-120402438D02*
X153709523Y-120450057D01*
X153709523Y-120450057D02*
X153757142Y-120545295D01*
X153757142Y-120545295D02*
X153757142Y-120688152D01*
X153757142Y-120688152D02*
X153709523Y-120783390D01*
X153709523Y-120783390D02*
X153661904Y-120831009D01*
X153661904Y-120831009D02*
X153566666Y-120878628D01*
X153566666Y-120878628D02*
X153185714Y-120878628D01*
X154138095Y-120450057D02*
X154185714Y-120402438D01*
X154185714Y-120402438D02*
X154280952Y-120354819D01*
X154280952Y-120354819D02*
X154519047Y-120354819D01*
X154519047Y-120354819D02*
X154614285Y-120402438D01*
X154614285Y-120402438D02*
X154661904Y-120450057D01*
X154661904Y-120450057D02*
X154709523Y-120545295D01*
X154709523Y-120545295D02*
X154709523Y-120640533D01*
X154709523Y-120640533D02*
X154661904Y-120783390D01*
X154661904Y-120783390D02*
X154090476Y-121354819D01*
X154090476Y-121354819D02*
X154709523Y-121354819D01*
X155328571Y-120354819D02*
X155423809Y-120354819D01*
X155423809Y-120354819D02*
X155519047Y-120402438D01*
X155519047Y-120402438D02*
X155566666Y-120450057D01*
X155566666Y-120450057D02*
X155614285Y-120545295D01*
X155614285Y-120545295D02*
X155661904Y-120735771D01*
X155661904Y-120735771D02*
X155661904Y-120973866D01*
X155661904Y-120973866D02*
X155614285Y-121164342D01*
X155614285Y-121164342D02*
X155566666Y-121259580D01*
X155566666Y-121259580D02*
X155519047Y-121307200D01*
X155519047Y-121307200D02*
X155423809Y-121354819D01*
X155423809Y-121354819D02*
X155328571Y-121354819D01*
X155328571Y-121354819D02*
X155233333Y-121307200D01*
X155233333Y-121307200D02*
X155185714Y-121259580D01*
X155185714Y-121259580D02*
X155138095Y-121164342D01*
X155138095Y-121164342D02*
X155090476Y-120973866D01*
X155090476Y-120973866D02*
X155090476Y-120735771D01*
X155090476Y-120735771D02*
X155138095Y-120545295D01*
X155138095Y-120545295D02*
X155185714Y-120450057D01*
X155185714Y-120450057D02*
X155233333Y-120402438D01*
X155233333Y-120402438D02*
X155328571Y-120354819D01*
X159778628Y-111176190D02*
X160254819Y-111176190D01*
X159254819Y-111509523D02*
X159778628Y-111176190D01*
X159778628Y-111176190D02*
X159254819Y-110842857D01*
X160254819Y-109985714D02*
X160254819Y-110557142D01*
X160254819Y-110271428D02*
X159254819Y-110271428D01*
X159254819Y-110271428D02*
X159397676Y-110366666D01*
X159397676Y-110366666D02*
X159492914Y-110461904D01*
X159492914Y-110461904D02*
X159540533Y-110557142D01*
X135754819Y-89092857D02*
X135278628Y-89426190D01*
X135754819Y-89664285D02*
X134754819Y-89664285D01*
X134754819Y-89664285D02*
X134754819Y-89283333D01*
X134754819Y-89283333D02*
X134802438Y-89188095D01*
X134802438Y-89188095D02*
X134850057Y-89140476D01*
X134850057Y-89140476D02*
X134945295Y-89092857D01*
X134945295Y-89092857D02*
X135088152Y-89092857D01*
X135088152Y-89092857D02*
X135183390Y-89140476D01*
X135183390Y-89140476D02*
X135231009Y-89188095D01*
X135231009Y-89188095D02*
X135278628Y-89283333D01*
X135278628Y-89283333D02*
X135278628Y-89664285D01*
X134754819Y-88759523D02*
X134754819Y-88140476D01*
X134754819Y-88140476D02*
X135135771Y-88473809D01*
X135135771Y-88473809D02*
X135135771Y-88330952D01*
X135135771Y-88330952D02*
X135183390Y-88235714D01*
X135183390Y-88235714D02*
X135231009Y-88188095D01*
X135231009Y-88188095D02*
X135326247Y-88140476D01*
X135326247Y-88140476D02*
X135564342Y-88140476D01*
X135564342Y-88140476D02*
X135659580Y-88188095D01*
X135659580Y-88188095D02*
X135707200Y-88235714D01*
X135707200Y-88235714D02*
X135754819Y-88330952D01*
X135754819Y-88330952D02*
X135754819Y-88616666D01*
X135754819Y-88616666D02*
X135707200Y-88711904D01*
X135707200Y-88711904D02*
X135659580Y-88759523D01*
X134850057Y-87759523D02*
X134802438Y-87711904D01*
X134802438Y-87711904D02*
X134754819Y-87616666D01*
X134754819Y-87616666D02*
X134754819Y-87378571D01*
X134754819Y-87378571D02*
X134802438Y-87283333D01*
X134802438Y-87283333D02*
X134850057Y-87235714D01*
X134850057Y-87235714D02*
X134945295Y-87188095D01*
X134945295Y-87188095D02*
X135040533Y-87188095D01*
X135040533Y-87188095D02*
X135183390Y-87235714D01*
X135183390Y-87235714D02*
X135754819Y-87807142D01*
X135754819Y-87807142D02*
X135754819Y-87188095D01*
X135754819Y-96892857D02*
X135278628Y-97226190D01*
X135754819Y-97464285D02*
X134754819Y-97464285D01*
X134754819Y-97464285D02*
X134754819Y-97083333D01*
X134754819Y-97083333D02*
X134802438Y-96988095D01*
X134802438Y-96988095D02*
X134850057Y-96940476D01*
X134850057Y-96940476D02*
X134945295Y-96892857D01*
X134945295Y-96892857D02*
X135088152Y-96892857D01*
X135088152Y-96892857D02*
X135183390Y-96940476D01*
X135183390Y-96940476D02*
X135231009Y-96988095D01*
X135231009Y-96988095D02*
X135278628Y-97083333D01*
X135278628Y-97083333D02*
X135278628Y-97464285D01*
X134754819Y-96559523D02*
X134754819Y-95940476D01*
X134754819Y-95940476D02*
X135135771Y-96273809D01*
X135135771Y-96273809D02*
X135135771Y-96130952D01*
X135135771Y-96130952D02*
X135183390Y-96035714D01*
X135183390Y-96035714D02*
X135231009Y-95988095D01*
X135231009Y-95988095D02*
X135326247Y-95940476D01*
X135326247Y-95940476D02*
X135564342Y-95940476D01*
X135564342Y-95940476D02*
X135659580Y-95988095D01*
X135659580Y-95988095D02*
X135707200Y-96035714D01*
X135707200Y-96035714D02*
X135754819Y-96130952D01*
X135754819Y-96130952D02*
X135754819Y-96416666D01*
X135754819Y-96416666D02*
X135707200Y-96511904D01*
X135707200Y-96511904D02*
X135659580Y-96559523D01*
X134754819Y-95607142D02*
X134754819Y-94988095D01*
X134754819Y-94988095D02*
X135135771Y-95321428D01*
X135135771Y-95321428D02*
X135135771Y-95178571D01*
X135135771Y-95178571D02*
X135183390Y-95083333D01*
X135183390Y-95083333D02*
X135231009Y-95035714D01*
X135231009Y-95035714D02*
X135326247Y-94988095D01*
X135326247Y-94988095D02*
X135564342Y-94988095D01*
X135564342Y-94988095D02*
X135659580Y-95035714D01*
X135659580Y-95035714D02*
X135707200Y-95083333D01*
X135707200Y-95083333D02*
X135754819Y-95178571D01*
X135754819Y-95178571D02*
X135754819Y-95464285D01*
X135754819Y-95464285D02*
X135707200Y-95559523D01*
X135707200Y-95559523D02*
X135659580Y-95607142D01*
X156485714Y-107086104D02*
X156447618Y-107124200D01*
X156447618Y-107124200D02*
X156333333Y-107162295D01*
X156333333Y-107162295D02*
X156257142Y-107162295D01*
X156257142Y-107162295D02*
X156142856Y-107124200D01*
X156142856Y-107124200D02*
X156066666Y-107048009D01*
X156066666Y-107048009D02*
X156028571Y-106971819D01*
X156028571Y-106971819D02*
X155990475Y-106819438D01*
X155990475Y-106819438D02*
X155990475Y-106705152D01*
X155990475Y-106705152D02*
X156028571Y-106552771D01*
X156028571Y-106552771D02*
X156066666Y-106476580D01*
X156066666Y-106476580D02*
X156142856Y-106400390D01*
X156142856Y-106400390D02*
X156257142Y-106362295D01*
X156257142Y-106362295D02*
X156333333Y-106362295D01*
X156333333Y-106362295D02*
X156447618Y-106400390D01*
X156447618Y-106400390D02*
X156485714Y-106438485D01*
X156790475Y-106438485D02*
X156828571Y-106400390D01*
X156828571Y-106400390D02*
X156904761Y-106362295D01*
X156904761Y-106362295D02*
X157095237Y-106362295D01*
X157095237Y-106362295D02*
X157171428Y-106400390D01*
X157171428Y-106400390D02*
X157209523Y-106438485D01*
X157209523Y-106438485D02*
X157247618Y-106514676D01*
X157247618Y-106514676D02*
X157247618Y-106590866D01*
X157247618Y-106590866D02*
X157209523Y-106705152D01*
X157209523Y-106705152D02*
X156752380Y-107162295D01*
X156752380Y-107162295D02*
X157247618Y-107162295D01*
X158009523Y-107162295D02*
X157552380Y-107162295D01*
X157780952Y-107162295D02*
X157780952Y-106362295D01*
X157780952Y-106362295D02*
X157704761Y-106476580D01*
X157704761Y-106476580D02*
X157628571Y-106552771D01*
X157628571Y-106552771D02*
X157552380Y-106590866D01*
X149857142Y-83359580D02*
X149809523Y-83407200D01*
X149809523Y-83407200D02*
X149666666Y-83454819D01*
X149666666Y-83454819D02*
X149571428Y-83454819D01*
X149571428Y-83454819D02*
X149428571Y-83407200D01*
X149428571Y-83407200D02*
X149333333Y-83311961D01*
X149333333Y-83311961D02*
X149285714Y-83216723D01*
X149285714Y-83216723D02*
X149238095Y-83026247D01*
X149238095Y-83026247D02*
X149238095Y-82883390D01*
X149238095Y-82883390D02*
X149285714Y-82692914D01*
X149285714Y-82692914D02*
X149333333Y-82597676D01*
X149333333Y-82597676D02*
X149428571Y-82502438D01*
X149428571Y-82502438D02*
X149571428Y-82454819D01*
X149571428Y-82454819D02*
X149666666Y-82454819D01*
X149666666Y-82454819D02*
X149809523Y-82502438D01*
X149809523Y-82502438D02*
X149857142Y-82550057D01*
X150238095Y-82550057D02*
X150285714Y-82502438D01*
X150285714Y-82502438D02*
X150380952Y-82454819D01*
X150380952Y-82454819D02*
X150619047Y-82454819D01*
X150619047Y-82454819D02*
X150714285Y-82502438D01*
X150714285Y-82502438D02*
X150761904Y-82550057D01*
X150761904Y-82550057D02*
X150809523Y-82645295D01*
X150809523Y-82645295D02*
X150809523Y-82740533D01*
X150809523Y-82740533D02*
X150761904Y-82883390D01*
X150761904Y-82883390D02*
X150190476Y-83454819D01*
X150190476Y-83454819D02*
X150809523Y-83454819D01*
X151190476Y-82550057D02*
X151238095Y-82502438D01*
X151238095Y-82502438D02*
X151333333Y-82454819D01*
X151333333Y-82454819D02*
X151571428Y-82454819D01*
X151571428Y-82454819D02*
X151666666Y-82502438D01*
X151666666Y-82502438D02*
X151714285Y-82550057D01*
X151714285Y-82550057D02*
X151761904Y-82645295D01*
X151761904Y-82645295D02*
X151761904Y-82740533D01*
X151761904Y-82740533D02*
X151714285Y-82883390D01*
X151714285Y-82883390D02*
X151142857Y-83454819D01*
X151142857Y-83454819D02*
X151761904Y-83454819D01*
X135333333Y-108954819D02*
X135000000Y-108478628D01*
X134761905Y-108954819D02*
X134761905Y-107954819D01*
X134761905Y-107954819D02*
X135142857Y-107954819D01*
X135142857Y-107954819D02*
X135238095Y-108002438D01*
X135238095Y-108002438D02*
X135285714Y-108050057D01*
X135285714Y-108050057D02*
X135333333Y-108145295D01*
X135333333Y-108145295D02*
X135333333Y-108288152D01*
X135333333Y-108288152D02*
X135285714Y-108383390D01*
X135285714Y-108383390D02*
X135238095Y-108431009D01*
X135238095Y-108431009D02*
X135142857Y-108478628D01*
X135142857Y-108478628D02*
X134761905Y-108478628D01*
X136238095Y-107954819D02*
X135761905Y-107954819D01*
X135761905Y-107954819D02*
X135714286Y-108431009D01*
X135714286Y-108431009D02*
X135761905Y-108383390D01*
X135761905Y-108383390D02*
X135857143Y-108335771D01*
X135857143Y-108335771D02*
X136095238Y-108335771D01*
X136095238Y-108335771D02*
X136190476Y-108383390D01*
X136190476Y-108383390D02*
X136238095Y-108431009D01*
X136238095Y-108431009D02*
X136285714Y-108526247D01*
X136285714Y-108526247D02*
X136285714Y-108764342D01*
X136285714Y-108764342D02*
X136238095Y-108859580D01*
X136238095Y-108859580D02*
X136190476Y-108907200D01*
X136190476Y-108907200D02*
X136095238Y-108954819D01*
X136095238Y-108954819D02*
X135857143Y-108954819D01*
X135857143Y-108954819D02*
X135761905Y-108907200D01*
X135761905Y-108907200D02*
X135714286Y-108859580D01*
X136454819Y-69666666D02*
X136454819Y-70142856D01*
X136454819Y-70142856D02*
X135454819Y-70142856D01*
X136454819Y-68809523D02*
X136454819Y-69380951D01*
X136454819Y-69095237D02*
X135454819Y-69095237D01*
X135454819Y-69095237D02*
X135597676Y-69190475D01*
X135597676Y-69190475D02*
X135692914Y-69285713D01*
X135692914Y-69285713D02*
X135740533Y-69380951D01*
X149086104Y-63814285D02*
X149124200Y-63852381D01*
X149124200Y-63852381D02*
X149162295Y-63966666D01*
X149162295Y-63966666D02*
X149162295Y-64042857D01*
X149162295Y-64042857D02*
X149124200Y-64157143D01*
X149124200Y-64157143D02*
X149048009Y-64233333D01*
X149048009Y-64233333D02*
X148971819Y-64271428D01*
X148971819Y-64271428D02*
X148819438Y-64309524D01*
X148819438Y-64309524D02*
X148705152Y-64309524D01*
X148705152Y-64309524D02*
X148552771Y-64271428D01*
X148552771Y-64271428D02*
X148476580Y-64233333D01*
X148476580Y-64233333D02*
X148400390Y-64157143D01*
X148400390Y-64157143D02*
X148362295Y-64042857D01*
X148362295Y-64042857D02*
X148362295Y-63966666D01*
X148362295Y-63966666D02*
X148400390Y-63852381D01*
X148400390Y-63852381D02*
X148438485Y-63814285D01*
X148362295Y-63547619D02*
X148362295Y-63052381D01*
X148362295Y-63052381D02*
X148667057Y-63319047D01*
X148667057Y-63319047D02*
X148667057Y-63204762D01*
X148667057Y-63204762D02*
X148705152Y-63128571D01*
X148705152Y-63128571D02*
X148743247Y-63090476D01*
X148743247Y-63090476D02*
X148819438Y-63052381D01*
X148819438Y-63052381D02*
X149009914Y-63052381D01*
X149009914Y-63052381D02*
X149086104Y-63090476D01*
X149086104Y-63090476D02*
X149124200Y-63128571D01*
X149124200Y-63128571D02*
X149162295Y-63204762D01*
X149162295Y-63204762D02*
X149162295Y-63433333D01*
X149162295Y-63433333D02*
X149124200Y-63509524D01*
X149124200Y-63509524D02*
X149086104Y-63547619D01*
X148362295Y-62557142D02*
X148362295Y-62480952D01*
X148362295Y-62480952D02*
X148400390Y-62404761D01*
X148400390Y-62404761D02*
X148438485Y-62366666D01*
X148438485Y-62366666D02*
X148514676Y-62328571D01*
X148514676Y-62328571D02*
X148667057Y-62290476D01*
X148667057Y-62290476D02*
X148857533Y-62290476D01*
X148857533Y-62290476D02*
X149009914Y-62328571D01*
X149009914Y-62328571D02*
X149086104Y-62366666D01*
X149086104Y-62366666D02*
X149124200Y-62404761D01*
X149124200Y-62404761D02*
X149162295Y-62480952D01*
X149162295Y-62480952D02*
X149162295Y-62557142D01*
X149162295Y-62557142D02*
X149124200Y-62633333D01*
X149124200Y-62633333D02*
X149086104Y-62671428D01*
X149086104Y-62671428D02*
X149009914Y-62709523D01*
X149009914Y-62709523D02*
X148857533Y-62747619D01*
X148857533Y-62747619D02*
X148667057Y-62747619D01*
X148667057Y-62747619D02*
X148514676Y-62709523D01*
X148514676Y-62709523D02*
X148438485Y-62671428D01*
X148438485Y-62671428D02*
X148400390Y-62633333D01*
X148400390Y-62633333D02*
X148362295Y-62557142D01*
X128854819Y-102243094D02*
X127854819Y-102243094D01*
X127854819Y-102243094D02*
X127854819Y-102004999D01*
X127854819Y-102004999D02*
X127902438Y-101862142D01*
X127902438Y-101862142D02*
X127997676Y-101766904D01*
X127997676Y-101766904D02*
X128092914Y-101719285D01*
X128092914Y-101719285D02*
X128283390Y-101671666D01*
X128283390Y-101671666D02*
X128426247Y-101671666D01*
X128426247Y-101671666D02*
X128616723Y-101719285D01*
X128616723Y-101719285D02*
X128711961Y-101766904D01*
X128711961Y-101766904D02*
X128807200Y-101862142D01*
X128807200Y-101862142D02*
X128854819Y-102004999D01*
X128854819Y-102004999D02*
X128854819Y-102243094D01*
X128188152Y-100814523D02*
X128854819Y-100814523D01*
X127807200Y-101052618D02*
X128521485Y-101290713D01*
X128521485Y-101290713D02*
X128521485Y-100671666D01*
X158159580Y-72292857D02*
X158207200Y-72340476D01*
X158207200Y-72340476D02*
X158254819Y-72483333D01*
X158254819Y-72483333D02*
X158254819Y-72578571D01*
X158254819Y-72578571D02*
X158207200Y-72721428D01*
X158207200Y-72721428D02*
X158111961Y-72816666D01*
X158111961Y-72816666D02*
X158016723Y-72864285D01*
X158016723Y-72864285D02*
X157826247Y-72911904D01*
X157826247Y-72911904D02*
X157683390Y-72911904D01*
X157683390Y-72911904D02*
X157492914Y-72864285D01*
X157492914Y-72864285D02*
X157397676Y-72816666D01*
X157397676Y-72816666D02*
X157302438Y-72721428D01*
X157302438Y-72721428D02*
X157254819Y-72578571D01*
X157254819Y-72578571D02*
X157254819Y-72483333D01*
X157254819Y-72483333D02*
X157302438Y-72340476D01*
X157302438Y-72340476D02*
X157350057Y-72292857D01*
X158254819Y-71340476D02*
X158254819Y-71911904D01*
X158254819Y-71626190D02*
X157254819Y-71626190D01*
X157254819Y-71626190D02*
X157397676Y-71721428D01*
X157397676Y-71721428D02*
X157492914Y-71816666D01*
X157492914Y-71816666D02*
X157540533Y-71911904D01*
X157254819Y-71007142D02*
X157254819Y-70388095D01*
X157254819Y-70388095D02*
X157635771Y-70721428D01*
X157635771Y-70721428D02*
X157635771Y-70578571D01*
X157635771Y-70578571D02*
X157683390Y-70483333D01*
X157683390Y-70483333D02*
X157731009Y-70435714D01*
X157731009Y-70435714D02*
X157826247Y-70388095D01*
X157826247Y-70388095D02*
X158064342Y-70388095D01*
X158064342Y-70388095D02*
X158159580Y-70435714D01*
X158159580Y-70435714D02*
X158207200Y-70483333D01*
X158207200Y-70483333D02*
X158254819Y-70578571D01*
X158254819Y-70578571D02*
X158254819Y-70864285D01*
X158254819Y-70864285D02*
X158207200Y-70959523D01*
X158207200Y-70959523D02*
X158159580Y-71007142D01*
X153554819Y-65142857D02*
X153078628Y-65476190D01*
X153554819Y-65714285D02*
X152554819Y-65714285D01*
X152554819Y-65714285D02*
X152554819Y-65333333D01*
X152554819Y-65333333D02*
X152602438Y-65238095D01*
X152602438Y-65238095D02*
X152650057Y-65190476D01*
X152650057Y-65190476D02*
X152745295Y-65142857D01*
X152745295Y-65142857D02*
X152888152Y-65142857D01*
X152888152Y-65142857D02*
X152983390Y-65190476D01*
X152983390Y-65190476D02*
X153031009Y-65238095D01*
X153031009Y-65238095D02*
X153078628Y-65333333D01*
X153078628Y-65333333D02*
X153078628Y-65714285D01*
X153554819Y-64190476D02*
X153554819Y-64761904D01*
X153554819Y-64476190D02*
X152554819Y-64476190D01*
X152554819Y-64476190D02*
X152697676Y-64571428D01*
X152697676Y-64571428D02*
X152792914Y-64666666D01*
X152792914Y-64666666D02*
X152840533Y-64761904D01*
X152554819Y-63333333D02*
X152554819Y-63523809D01*
X152554819Y-63523809D02*
X152602438Y-63619047D01*
X152602438Y-63619047D02*
X152650057Y-63666666D01*
X152650057Y-63666666D02*
X152792914Y-63761904D01*
X152792914Y-63761904D02*
X152983390Y-63809523D01*
X152983390Y-63809523D02*
X153364342Y-63809523D01*
X153364342Y-63809523D02*
X153459580Y-63761904D01*
X153459580Y-63761904D02*
X153507200Y-63714285D01*
X153507200Y-63714285D02*
X153554819Y-63619047D01*
X153554819Y-63619047D02*
X153554819Y-63428571D01*
X153554819Y-63428571D02*
X153507200Y-63333333D01*
X153507200Y-63333333D02*
X153459580Y-63285714D01*
X153459580Y-63285714D02*
X153364342Y-63238095D01*
X153364342Y-63238095D02*
X153126247Y-63238095D01*
X153126247Y-63238095D02*
X153031009Y-63285714D01*
X153031009Y-63285714D02*
X152983390Y-63333333D01*
X152983390Y-63333333D02*
X152935771Y-63428571D01*
X152935771Y-63428571D02*
X152935771Y-63619047D01*
X152935771Y-63619047D02*
X152983390Y-63714285D01*
X152983390Y-63714285D02*
X153031009Y-63761904D01*
X153031009Y-63761904D02*
X153126247Y-63809523D01*
X123254819Y-92142857D02*
X122778628Y-92476190D01*
X123254819Y-92714285D02*
X122254819Y-92714285D01*
X122254819Y-92714285D02*
X122254819Y-92333333D01*
X122254819Y-92333333D02*
X122302438Y-92238095D01*
X122302438Y-92238095D02*
X122350057Y-92190476D01*
X122350057Y-92190476D02*
X122445295Y-92142857D01*
X122445295Y-92142857D02*
X122588152Y-92142857D01*
X122588152Y-92142857D02*
X122683390Y-92190476D01*
X122683390Y-92190476D02*
X122731009Y-92238095D01*
X122731009Y-92238095D02*
X122778628Y-92333333D01*
X122778628Y-92333333D02*
X122778628Y-92714285D01*
X123254819Y-91190476D02*
X123254819Y-91761904D01*
X123254819Y-91476190D02*
X122254819Y-91476190D01*
X122254819Y-91476190D02*
X122397676Y-91571428D01*
X122397676Y-91571428D02*
X122492914Y-91666666D01*
X122492914Y-91666666D02*
X122540533Y-91761904D01*
X122683390Y-90619047D02*
X122635771Y-90714285D01*
X122635771Y-90714285D02*
X122588152Y-90761904D01*
X122588152Y-90761904D02*
X122492914Y-90809523D01*
X122492914Y-90809523D02*
X122445295Y-90809523D01*
X122445295Y-90809523D02*
X122350057Y-90761904D01*
X122350057Y-90761904D02*
X122302438Y-90714285D01*
X122302438Y-90714285D02*
X122254819Y-90619047D01*
X122254819Y-90619047D02*
X122254819Y-90428571D01*
X122254819Y-90428571D02*
X122302438Y-90333333D01*
X122302438Y-90333333D02*
X122350057Y-90285714D01*
X122350057Y-90285714D02*
X122445295Y-90238095D01*
X122445295Y-90238095D02*
X122492914Y-90238095D01*
X122492914Y-90238095D02*
X122588152Y-90285714D01*
X122588152Y-90285714D02*
X122635771Y-90333333D01*
X122635771Y-90333333D02*
X122683390Y-90428571D01*
X122683390Y-90428571D02*
X122683390Y-90619047D01*
X122683390Y-90619047D02*
X122731009Y-90714285D01*
X122731009Y-90714285D02*
X122778628Y-90761904D01*
X122778628Y-90761904D02*
X122873866Y-90809523D01*
X122873866Y-90809523D02*
X123064342Y-90809523D01*
X123064342Y-90809523D02*
X123159580Y-90761904D01*
X123159580Y-90761904D02*
X123207200Y-90714285D01*
X123207200Y-90714285D02*
X123254819Y-90619047D01*
X123254819Y-90619047D02*
X123254819Y-90428571D01*
X123254819Y-90428571D02*
X123207200Y-90333333D01*
X123207200Y-90333333D02*
X123159580Y-90285714D01*
X123159580Y-90285714D02*
X123064342Y-90238095D01*
X123064342Y-90238095D02*
X122873866Y-90238095D01*
X122873866Y-90238095D02*
X122778628Y-90285714D01*
X122778628Y-90285714D02*
X122731009Y-90333333D01*
X122731009Y-90333333D02*
X122683390Y-90428571D01*
X151657142Y-77859580D02*
X151609523Y-77907200D01*
X151609523Y-77907200D02*
X151466666Y-77954819D01*
X151466666Y-77954819D02*
X151371428Y-77954819D01*
X151371428Y-77954819D02*
X151228571Y-77907200D01*
X151228571Y-77907200D02*
X151133333Y-77811961D01*
X151133333Y-77811961D02*
X151085714Y-77716723D01*
X151085714Y-77716723D02*
X151038095Y-77526247D01*
X151038095Y-77526247D02*
X151038095Y-77383390D01*
X151038095Y-77383390D02*
X151085714Y-77192914D01*
X151085714Y-77192914D02*
X151133333Y-77097676D01*
X151133333Y-77097676D02*
X151228571Y-77002438D01*
X151228571Y-77002438D02*
X151371428Y-76954819D01*
X151371428Y-76954819D02*
X151466666Y-76954819D01*
X151466666Y-76954819D02*
X151609523Y-77002438D01*
X151609523Y-77002438D02*
X151657142Y-77050057D01*
X152609523Y-77954819D02*
X152038095Y-77954819D01*
X152323809Y-77954819D02*
X152323809Y-76954819D01*
X152323809Y-76954819D02*
X152228571Y-77097676D01*
X152228571Y-77097676D02*
X152133333Y-77192914D01*
X152133333Y-77192914D02*
X152038095Y-77240533D01*
X152990476Y-77050057D02*
X153038095Y-77002438D01*
X153038095Y-77002438D02*
X153133333Y-76954819D01*
X153133333Y-76954819D02*
X153371428Y-76954819D01*
X153371428Y-76954819D02*
X153466666Y-77002438D01*
X153466666Y-77002438D02*
X153514285Y-77050057D01*
X153514285Y-77050057D02*
X153561904Y-77145295D01*
X153561904Y-77145295D02*
X153561904Y-77240533D01*
X153561904Y-77240533D02*
X153514285Y-77383390D01*
X153514285Y-77383390D02*
X152942857Y-77954819D01*
X152942857Y-77954819D02*
X153561904Y-77954819D01*
X156957142Y-121354819D02*
X156623809Y-120878628D01*
X156385714Y-121354819D02*
X156385714Y-120354819D01*
X156385714Y-120354819D02*
X156766666Y-120354819D01*
X156766666Y-120354819D02*
X156861904Y-120402438D01*
X156861904Y-120402438D02*
X156909523Y-120450057D01*
X156909523Y-120450057D02*
X156957142Y-120545295D01*
X156957142Y-120545295D02*
X156957142Y-120688152D01*
X156957142Y-120688152D02*
X156909523Y-120783390D01*
X156909523Y-120783390D02*
X156861904Y-120831009D01*
X156861904Y-120831009D02*
X156766666Y-120878628D01*
X156766666Y-120878628D02*
X156385714Y-120878628D01*
X157909523Y-121354819D02*
X157338095Y-121354819D01*
X157623809Y-121354819D02*
X157623809Y-120354819D01*
X157623809Y-120354819D02*
X157528571Y-120497676D01*
X157528571Y-120497676D02*
X157433333Y-120592914D01*
X157433333Y-120592914D02*
X157338095Y-120640533D01*
X158385714Y-121354819D02*
X158576190Y-121354819D01*
X158576190Y-121354819D02*
X158671428Y-121307200D01*
X158671428Y-121307200D02*
X158719047Y-121259580D01*
X158719047Y-121259580D02*
X158814285Y-121116723D01*
X158814285Y-121116723D02*
X158861904Y-120926247D01*
X158861904Y-120926247D02*
X158861904Y-120545295D01*
X158861904Y-120545295D02*
X158814285Y-120450057D01*
X158814285Y-120450057D02*
X158766666Y-120402438D01*
X158766666Y-120402438D02*
X158671428Y-120354819D01*
X158671428Y-120354819D02*
X158480952Y-120354819D01*
X158480952Y-120354819D02*
X158385714Y-120402438D01*
X158385714Y-120402438D02*
X158338095Y-120450057D01*
X158338095Y-120450057D02*
X158290476Y-120545295D01*
X158290476Y-120545295D02*
X158290476Y-120783390D01*
X158290476Y-120783390D02*
X158338095Y-120878628D01*
X158338095Y-120878628D02*
X158385714Y-120926247D01*
X158385714Y-120926247D02*
X158480952Y-120973866D01*
X158480952Y-120973866D02*
X158671428Y-120973866D01*
X158671428Y-120973866D02*
X158766666Y-120926247D01*
X158766666Y-120926247D02*
X158814285Y-120878628D01*
X158814285Y-120878628D02*
X158861904Y-120783390D01*
X146284580Y-117491666D02*
X146332200Y-117539285D01*
X146332200Y-117539285D02*
X146379819Y-117682142D01*
X146379819Y-117682142D02*
X146379819Y-117777380D01*
X146379819Y-117777380D02*
X146332200Y-117920237D01*
X146332200Y-117920237D02*
X146236961Y-118015475D01*
X146236961Y-118015475D02*
X146141723Y-118063094D01*
X146141723Y-118063094D02*
X145951247Y-118110713D01*
X145951247Y-118110713D02*
X145808390Y-118110713D01*
X145808390Y-118110713D02*
X145617914Y-118063094D01*
X145617914Y-118063094D02*
X145522676Y-118015475D01*
X145522676Y-118015475D02*
X145427438Y-117920237D01*
X145427438Y-117920237D02*
X145379819Y-117777380D01*
X145379819Y-117777380D02*
X145379819Y-117682142D01*
X145379819Y-117682142D02*
X145427438Y-117539285D01*
X145427438Y-117539285D02*
X145475057Y-117491666D01*
X145379819Y-116586904D02*
X145379819Y-117063094D01*
X145379819Y-117063094D02*
X145856009Y-117110713D01*
X145856009Y-117110713D02*
X145808390Y-117063094D01*
X145808390Y-117063094D02*
X145760771Y-116967856D01*
X145760771Y-116967856D02*
X145760771Y-116729761D01*
X145760771Y-116729761D02*
X145808390Y-116634523D01*
X145808390Y-116634523D02*
X145856009Y-116586904D01*
X145856009Y-116586904D02*
X145951247Y-116539285D01*
X145951247Y-116539285D02*
X146189342Y-116539285D01*
X146189342Y-116539285D02*
X146284580Y-116586904D01*
X146284580Y-116586904D02*
X146332200Y-116634523D01*
X146332200Y-116634523D02*
X146379819Y-116729761D01*
X146379819Y-116729761D02*
X146379819Y-116967856D01*
X146379819Y-116967856D02*
X146332200Y-117063094D01*
X146332200Y-117063094D02*
X146284580Y-117110713D01*
X127557142Y-124454819D02*
X127223809Y-123978628D01*
X126985714Y-124454819D02*
X126985714Y-123454819D01*
X126985714Y-123454819D02*
X127366666Y-123454819D01*
X127366666Y-123454819D02*
X127461904Y-123502438D01*
X127461904Y-123502438D02*
X127509523Y-123550057D01*
X127509523Y-123550057D02*
X127557142Y-123645295D01*
X127557142Y-123645295D02*
X127557142Y-123788152D01*
X127557142Y-123788152D02*
X127509523Y-123883390D01*
X127509523Y-123883390D02*
X127461904Y-123931009D01*
X127461904Y-123931009D02*
X127366666Y-123978628D01*
X127366666Y-123978628D02*
X126985714Y-123978628D01*
X127938095Y-123550057D02*
X127985714Y-123502438D01*
X127985714Y-123502438D02*
X128080952Y-123454819D01*
X128080952Y-123454819D02*
X128319047Y-123454819D01*
X128319047Y-123454819D02*
X128414285Y-123502438D01*
X128414285Y-123502438D02*
X128461904Y-123550057D01*
X128461904Y-123550057D02*
X128509523Y-123645295D01*
X128509523Y-123645295D02*
X128509523Y-123740533D01*
X128509523Y-123740533D02*
X128461904Y-123883390D01*
X128461904Y-123883390D02*
X127890476Y-124454819D01*
X127890476Y-124454819D02*
X128509523Y-124454819D01*
X129414285Y-123454819D02*
X128938095Y-123454819D01*
X128938095Y-123454819D02*
X128890476Y-123931009D01*
X128890476Y-123931009D02*
X128938095Y-123883390D01*
X128938095Y-123883390D02*
X129033333Y-123835771D01*
X129033333Y-123835771D02*
X129271428Y-123835771D01*
X129271428Y-123835771D02*
X129366666Y-123883390D01*
X129366666Y-123883390D02*
X129414285Y-123931009D01*
X129414285Y-123931009D02*
X129461904Y-124026247D01*
X129461904Y-124026247D02*
X129461904Y-124264342D01*
X129461904Y-124264342D02*
X129414285Y-124359580D01*
X129414285Y-124359580D02*
X129366666Y-124407200D01*
X129366666Y-124407200D02*
X129271428Y-124454819D01*
X129271428Y-124454819D02*
X129033333Y-124454819D01*
X129033333Y-124454819D02*
X128938095Y-124407200D01*
X128938095Y-124407200D02*
X128890476Y-124359580D01*
X158757142Y-131759580D02*
X158709523Y-131807200D01*
X158709523Y-131807200D02*
X158566666Y-131854819D01*
X158566666Y-131854819D02*
X158471428Y-131854819D01*
X158471428Y-131854819D02*
X158328571Y-131807200D01*
X158328571Y-131807200D02*
X158233333Y-131711961D01*
X158233333Y-131711961D02*
X158185714Y-131616723D01*
X158185714Y-131616723D02*
X158138095Y-131426247D01*
X158138095Y-131426247D02*
X158138095Y-131283390D01*
X158138095Y-131283390D02*
X158185714Y-131092914D01*
X158185714Y-131092914D02*
X158233333Y-130997676D01*
X158233333Y-130997676D02*
X158328571Y-130902438D01*
X158328571Y-130902438D02*
X158471428Y-130854819D01*
X158471428Y-130854819D02*
X158566666Y-130854819D01*
X158566666Y-130854819D02*
X158709523Y-130902438D01*
X158709523Y-130902438D02*
X158757142Y-130950057D01*
X159138095Y-130950057D02*
X159185714Y-130902438D01*
X159185714Y-130902438D02*
X159280952Y-130854819D01*
X159280952Y-130854819D02*
X159519047Y-130854819D01*
X159519047Y-130854819D02*
X159614285Y-130902438D01*
X159614285Y-130902438D02*
X159661904Y-130950057D01*
X159661904Y-130950057D02*
X159709523Y-131045295D01*
X159709523Y-131045295D02*
X159709523Y-131140533D01*
X159709523Y-131140533D02*
X159661904Y-131283390D01*
X159661904Y-131283390D02*
X159090476Y-131854819D01*
X159090476Y-131854819D02*
X159709523Y-131854819D01*
X160280952Y-131283390D02*
X160185714Y-131235771D01*
X160185714Y-131235771D02*
X160138095Y-131188152D01*
X160138095Y-131188152D02*
X160090476Y-131092914D01*
X160090476Y-131092914D02*
X160090476Y-131045295D01*
X160090476Y-131045295D02*
X160138095Y-130950057D01*
X160138095Y-130950057D02*
X160185714Y-130902438D01*
X160185714Y-130902438D02*
X160280952Y-130854819D01*
X160280952Y-130854819D02*
X160471428Y-130854819D01*
X160471428Y-130854819D02*
X160566666Y-130902438D01*
X160566666Y-130902438D02*
X160614285Y-130950057D01*
X160614285Y-130950057D02*
X160661904Y-131045295D01*
X160661904Y-131045295D02*
X160661904Y-131092914D01*
X160661904Y-131092914D02*
X160614285Y-131188152D01*
X160614285Y-131188152D02*
X160566666Y-131235771D01*
X160566666Y-131235771D02*
X160471428Y-131283390D01*
X160471428Y-131283390D02*
X160280952Y-131283390D01*
X160280952Y-131283390D02*
X160185714Y-131331009D01*
X160185714Y-131331009D02*
X160138095Y-131378628D01*
X160138095Y-131378628D02*
X160090476Y-131473866D01*
X160090476Y-131473866D02*
X160090476Y-131664342D01*
X160090476Y-131664342D02*
X160138095Y-131759580D01*
X160138095Y-131759580D02*
X160185714Y-131807200D01*
X160185714Y-131807200D02*
X160280952Y-131854819D01*
X160280952Y-131854819D02*
X160471428Y-131854819D01*
X160471428Y-131854819D02*
X160566666Y-131807200D01*
X160566666Y-131807200D02*
X160614285Y-131759580D01*
X160614285Y-131759580D02*
X160661904Y-131664342D01*
X160661904Y-131664342D02*
X160661904Y-131473866D01*
X160661904Y-131473866D02*
X160614285Y-131378628D01*
X160614285Y-131378628D02*
X160566666Y-131331009D01*
X160566666Y-131331009D02*
X160471428Y-131283390D01*
X150286104Y-63814285D02*
X150324200Y-63852381D01*
X150324200Y-63852381D02*
X150362295Y-63966666D01*
X150362295Y-63966666D02*
X150362295Y-64042857D01*
X150362295Y-64042857D02*
X150324200Y-64157143D01*
X150324200Y-64157143D02*
X150248009Y-64233333D01*
X150248009Y-64233333D02*
X150171819Y-64271428D01*
X150171819Y-64271428D02*
X150019438Y-64309524D01*
X150019438Y-64309524D02*
X149905152Y-64309524D01*
X149905152Y-64309524D02*
X149752771Y-64271428D01*
X149752771Y-64271428D02*
X149676580Y-64233333D01*
X149676580Y-64233333D02*
X149600390Y-64157143D01*
X149600390Y-64157143D02*
X149562295Y-64042857D01*
X149562295Y-64042857D02*
X149562295Y-63966666D01*
X149562295Y-63966666D02*
X149600390Y-63852381D01*
X149600390Y-63852381D02*
X149638485Y-63814285D01*
X150362295Y-63052381D02*
X150362295Y-63509524D01*
X150362295Y-63280952D02*
X149562295Y-63280952D01*
X149562295Y-63280952D02*
X149676580Y-63357143D01*
X149676580Y-63357143D02*
X149752771Y-63433333D01*
X149752771Y-63433333D02*
X149790866Y-63509524D01*
X149562295Y-62366666D02*
X149562295Y-62519047D01*
X149562295Y-62519047D02*
X149600390Y-62595238D01*
X149600390Y-62595238D02*
X149638485Y-62633333D01*
X149638485Y-62633333D02*
X149752771Y-62709523D01*
X149752771Y-62709523D02*
X149905152Y-62747619D01*
X149905152Y-62747619D02*
X150209914Y-62747619D01*
X150209914Y-62747619D02*
X150286104Y-62709523D01*
X150286104Y-62709523D02*
X150324200Y-62671428D01*
X150324200Y-62671428D02*
X150362295Y-62595238D01*
X150362295Y-62595238D02*
X150362295Y-62442857D01*
X150362295Y-62442857D02*
X150324200Y-62366666D01*
X150324200Y-62366666D02*
X150286104Y-62328571D01*
X150286104Y-62328571D02*
X150209914Y-62290476D01*
X150209914Y-62290476D02*
X150019438Y-62290476D01*
X150019438Y-62290476D02*
X149943247Y-62328571D01*
X149943247Y-62328571D02*
X149905152Y-62366666D01*
X149905152Y-62366666D02*
X149867057Y-62442857D01*
X149867057Y-62442857D02*
X149867057Y-62595238D01*
X149867057Y-62595238D02*
X149905152Y-62671428D01*
X149905152Y-62671428D02*
X149943247Y-62709523D01*
X149943247Y-62709523D02*
X150019438Y-62747619D01*
X135323333Y-107529580D02*
X135275714Y-107577200D01*
X135275714Y-107577200D02*
X135132857Y-107624819D01*
X135132857Y-107624819D02*
X135037619Y-107624819D01*
X135037619Y-107624819D02*
X134894762Y-107577200D01*
X134894762Y-107577200D02*
X134799524Y-107481961D01*
X134799524Y-107481961D02*
X134751905Y-107386723D01*
X134751905Y-107386723D02*
X134704286Y-107196247D01*
X134704286Y-107196247D02*
X134704286Y-107053390D01*
X134704286Y-107053390D02*
X134751905Y-106862914D01*
X134751905Y-106862914D02*
X134799524Y-106767676D01*
X134799524Y-106767676D02*
X134894762Y-106672438D01*
X134894762Y-106672438D02*
X135037619Y-106624819D01*
X135037619Y-106624819D02*
X135132857Y-106624819D01*
X135132857Y-106624819D02*
X135275714Y-106672438D01*
X135275714Y-106672438D02*
X135323333Y-106720057D01*
X135799524Y-107624819D02*
X135990000Y-107624819D01*
X135990000Y-107624819D02*
X136085238Y-107577200D01*
X136085238Y-107577200D02*
X136132857Y-107529580D01*
X136132857Y-107529580D02*
X136228095Y-107386723D01*
X136228095Y-107386723D02*
X136275714Y-107196247D01*
X136275714Y-107196247D02*
X136275714Y-106815295D01*
X136275714Y-106815295D02*
X136228095Y-106720057D01*
X136228095Y-106720057D02*
X136180476Y-106672438D01*
X136180476Y-106672438D02*
X136085238Y-106624819D01*
X136085238Y-106624819D02*
X135894762Y-106624819D01*
X135894762Y-106624819D02*
X135799524Y-106672438D01*
X135799524Y-106672438D02*
X135751905Y-106720057D01*
X135751905Y-106720057D02*
X135704286Y-106815295D01*
X135704286Y-106815295D02*
X135704286Y-107053390D01*
X135704286Y-107053390D02*
X135751905Y-107148628D01*
X135751905Y-107148628D02*
X135799524Y-107196247D01*
X135799524Y-107196247D02*
X135894762Y-107243866D01*
X135894762Y-107243866D02*
X136085238Y-107243866D01*
X136085238Y-107243866D02*
X136180476Y-107196247D01*
X136180476Y-107196247D02*
X136228095Y-107148628D01*
X136228095Y-107148628D02*
X136275714Y-107053390D01*
X135333333Y-110454819D02*
X135000000Y-109978628D01*
X134761905Y-110454819D02*
X134761905Y-109454819D01*
X134761905Y-109454819D02*
X135142857Y-109454819D01*
X135142857Y-109454819D02*
X135238095Y-109502438D01*
X135238095Y-109502438D02*
X135285714Y-109550057D01*
X135285714Y-109550057D02*
X135333333Y-109645295D01*
X135333333Y-109645295D02*
X135333333Y-109788152D01*
X135333333Y-109788152D02*
X135285714Y-109883390D01*
X135285714Y-109883390D02*
X135238095Y-109931009D01*
X135238095Y-109931009D02*
X135142857Y-109978628D01*
X135142857Y-109978628D02*
X134761905Y-109978628D01*
X136190476Y-109788152D02*
X136190476Y-110454819D01*
X135952381Y-109407200D02*
X135714286Y-110121485D01*
X135714286Y-110121485D02*
X136333333Y-110121485D01*
X155238095Y-129154819D02*
X155238095Y-129964342D01*
X155238095Y-129964342D02*
X155285714Y-130059580D01*
X155285714Y-130059580D02*
X155333333Y-130107200D01*
X155333333Y-130107200D02*
X155428571Y-130154819D01*
X155428571Y-130154819D02*
X155619047Y-130154819D01*
X155619047Y-130154819D02*
X155714285Y-130107200D01*
X155714285Y-130107200D02*
X155761904Y-130059580D01*
X155761904Y-130059580D02*
X155809523Y-129964342D01*
X155809523Y-129964342D02*
X155809523Y-129154819D01*
X156190476Y-129154819D02*
X156857142Y-129154819D01*
X156857142Y-129154819D02*
X156428571Y-130154819D01*
X147886104Y-65214285D02*
X147924200Y-65252381D01*
X147924200Y-65252381D02*
X147962295Y-65366666D01*
X147962295Y-65366666D02*
X147962295Y-65442857D01*
X147962295Y-65442857D02*
X147924200Y-65557143D01*
X147924200Y-65557143D02*
X147848009Y-65633333D01*
X147848009Y-65633333D02*
X147771819Y-65671428D01*
X147771819Y-65671428D02*
X147619438Y-65709524D01*
X147619438Y-65709524D02*
X147505152Y-65709524D01*
X147505152Y-65709524D02*
X147352771Y-65671428D01*
X147352771Y-65671428D02*
X147276580Y-65633333D01*
X147276580Y-65633333D02*
X147200390Y-65557143D01*
X147200390Y-65557143D02*
X147162295Y-65442857D01*
X147162295Y-65442857D02*
X147162295Y-65366666D01*
X147162295Y-65366666D02*
X147200390Y-65252381D01*
X147200390Y-65252381D02*
X147238485Y-65214285D01*
X147162295Y-64947619D02*
X147162295Y-64452381D01*
X147162295Y-64452381D02*
X147467057Y-64719047D01*
X147467057Y-64719047D02*
X147467057Y-64604762D01*
X147467057Y-64604762D02*
X147505152Y-64528571D01*
X147505152Y-64528571D02*
X147543247Y-64490476D01*
X147543247Y-64490476D02*
X147619438Y-64452381D01*
X147619438Y-64452381D02*
X147809914Y-64452381D01*
X147809914Y-64452381D02*
X147886104Y-64490476D01*
X147886104Y-64490476D02*
X147924200Y-64528571D01*
X147924200Y-64528571D02*
X147962295Y-64604762D01*
X147962295Y-64604762D02*
X147962295Y-64833333D01*
X147962295Y-64833333D02*
X147924200Y-64909524D01*
X147924200Y-64909524D02*
X147886104Y-64947619D01*
X147962295Y-63690476D02*
X147962295Y-64147619D01*
X147962295Y-63919047D02*
X147162295Y-63919047D01*
X147162295Y-63919047D02*
X147276580Y-63995238D01*
X147276580Y-63995238D02*
X147352771Y-64071428D01*
X147352771Y-64071428D02*
X147390866Y-64147619D01*
X141438095Y-123254819D02*
X141438095Y-124064342D01*
X141438095Y-124064342D02*
X141485714Y-124159580D01*
X141485714Y-124159580D02*
X141533333Y-124207200D01*
X141533333Y-124207200D02*
X141628571Y-124254819D01*
X141628571Y-124254819D02*
X141819047Y-124254819D01*
X141819047Y-124254819D02*
X141914285Y-124207200D01*
X141914285Y-124207200D02*
X141961904Y-124159580D01*
X141961904Y-124159580D02*
X142009523Y-124064342D01*
X142009523Y-124064342D02*
X142009523Y-123254819D01*
X142914285Y-123254819D02*
X142723809Y-123254819D01*
X142723809Y-123254819D02*
X142628571Y-123302438D01*
X142628571Y-123302438D02*
X142580952Y-123350057D01*
X142580952Y-123350057D02*
X142485714Y-123492914D01*
X142485714Y-123492914D02*
X142438095Y-123683390D01*
X142438095Y-123683390D02*
X142438095Y-124064342D01*
X142438095Y-124064342D02*
X142485714Y-124159580D01*
X142485714Y-124159580D02*
X142533333Y-124207200D01*
X142533333Y-124207200D02*
X142628571Y-124254819D01*
X142628571Y-124254819D02*
X142819047Y-124254819D01*
X142819047Y-124254819D02*
X142914285Y-124207200D01*
X142914285Y-124207200D02*
X142961904Y-124159580D01*
X142961904Y-124159580D02*
X143009523Y-124064342D01*
X143009523Y-124064342D02*
X143009523Y-123826247D01*
X143009523Y-123826247D02*
X142961904Y-123731009D01*
X142961904Y-123731009D02*
X142914285Y-123683390D01*
X142914285Y-123683390D02*
X142819047Y-123635771D01*
X142819047Y-123635771D02*
X142628571Y-123635771D01*
X142628571Y-123635771D02*
X142533333Y-123683390D01*
X142533333Y-123683390D02*
X142485714Y-123731009D01*
X142485714Y-123731009D02*
X142438095Y-123826247D01*
X169454819Y-74788094D02*
X168454819Y-74788094D01*
X168454819Y-74788094D02*
X168454819Y-74549999D01*
X168454819Y-74549999D02*
X168502438Y-74407142D01*
X168502438Y-74407142D02*
X168597676Y-74311904D01*
X168597676Y-74311904D02*
X168692914Y-74264285D01*
X168692914Y-74264285D02*
X168883390Y-74216666D01*
X168883390Y-74216666D02*
X169026247Y-74216666D01*
X169026247Y-74216666D02*
X169216723Y-74264285D01*
X169216723Y-74264285D02*
X169311961Y-74311904D01*
X169311961Y-74311904D02*
X169407200Y-74407142D01*
X169407200Y-74407142D02*
X169454819Y-74549999D01*
X169454819Y-74549999D02*
X169454819Y-74788094D01*
X169454819Y-73264285D02*
X169454819Y-73835713D01*
X169454819Y-73549999D02*
X168454819Y-73549999D01*
X168454819Y-73549999D02*
X168597676Y-73645237D01*
X168597676Y-73645237D02*
X168692914Y-73740475D01*
X168692914Y-73740475D02*
X168740533Y-73835713D01*
X135323333Y-106129580D02*
X135275714Y-106177200D01*
X135275714Y-106177200D02*
X135132857Y-106224819D01*
X135132857Y-106224819D02*
X135037619Y-106224819D01*
X135037619Y-106224819D02*
X134894762Y-106177200D01*
X134894762Y-106177200D02*
X134799524Y-106081961D01*
X134799524Y-106081961D02*
X134751905Y-105986723D01*
X134751905Y-105986723D02*
X134704286Y-105796247D01*
X134704286Y-105796247D02*
X134704286Y-105653390D01*
X134704286Y-105653390D02*
X134751905Y-105462914D01*
X134751905Y-105462914D02*
X134799524Y-105367676D01*
X134799524Y-105367676D02*
X134894762Y-105272438D01*
X134894762Y-105272438D02*
X135037619Y-105224819D01*
X135037619Y-105224819D02*
X135132857Y-105224819D01*
X135132857Y-105224819D02*
X135275714Y-105272438D01*
X135275714Y-105272438D02*
X135323333Y-105320057D01*
X135894762Y-105653390D02*
X135799524Y-105605771D01*
X135799524Y-105605771D02*
X135751905Y-105558152D01*
X135751905Y-105558152D02*
X135704286Y-105462914D01*
X135704286Y-105462914D02*
X135704286Y-105415295D01*
X135704286Y-105415295D02*
X135751905Y-105320057D01*
X135751905Y-105320057D02*
X135799524Y-105272438D01*
X135799524Y-105272438D02*
X135894762Y-105224819D01*
X135894762Y-105224819D02*
X136085238Y-105224819D01*
X136085238Y-105224819D02*
X136180476Y-105272438D01*
X136180476Y-105272438D02*
X136228095Y-105320057D01*
X136228095Y-105320057D02*
X136275714Y-105415295D01*
X136275714Y-105415295D02*
X136275714Y-105462914D01*
X136275714Y-105462914D02*
X136228095Y-105558152D01*
X136228095Y-105558152D02*
X136180476Y-105605771D01*
X136180476Y-105605771D02*
X136085238Y-105653390D01*
X136085238Y-105653390D02*
X135894762Y-105653390D01*
X135894762Y-105653390D02*
X135799524Y-105701009D01*
X135799524Y-105701009D02*
X135751905Y-105748628D01*
X135751905Y-105748628D02*
X135704286Y-105843866D01*
X135704286Y-105843866D02*
X135704286Y-106034342D01*
X135704286Y-106034342D02*
X135751905Y-106129580D01*
X135751905Y-106129580D02*
X135799524Y-106177200D01*
X135799524Y-106177200D02*
X135894762Y-106224819D01*
X135894762Y-106224819D02*
X136085238Y-106224819D01*
X136085238Y-106224819D02*
X136180476Y-106177200D01*
X136180476Y-106177200D02*
X136228095Y-106129580D01*
X136228095Y-106129580D02*
X136275714Y-106034342D01*
X136275714Y-106034342D02*
X136275714Y-105843866D01*
X136275714Y-105843866D02*
X136228095Y-105748628D01*
X136228095Y-105748628D02*
X136180476Y-105701009D01*
X136180476Y-105701009D02*
X136085238Y-105653390D01*
X125008557Y-92685714D02*
X125737128Y-92685714D01*
X125737128Y-92685714D02*
X125822842Y-92642857D01*
X125822842Y-92642857D02*
X125865700Y-92600000D01*
X125865700Y-92600000D02*
X125908557Y-92514285D01*
X125908557Y-92514285D02*
X125908557Y-92342857D01*
X125908557Y-92342857D02*
X125865700Y-92257142D01*
X125865700Y-92257142D02*
X125822842Y-92214285D01*
X125822842Y-92214285D02*
X125737128Y-92171428D01*
X125737128Y-92171428D02*
X125008557Y-92171428D01*
X125008557Y-91828571D02*
X125008557Y-91271428D01*
X125008557Y-91271428D02*
X125351414Y-91571428D01*
X125351414Y-91571428D02*
X125351414Y-91442857D01*
X125351414Y-91442857D02*
X125394271Y-91357143D01*
X125394271Y-91357143D02*
X125437128Y-91314285D01*
X125437128Y-91314285D02*
X125522842Y-91271428D01*
X125522842Y-91271428D02*
X125737128Y-91271428D01*
X125737128Y-91271428D02*
X125822842Y-91314285D01*
X125822842Y-91314285D02*
X125865700Y-91357143D01*
X125865700Y-91357143D02*
X125908557Y-91442857D01*
X125908557Y-91442857D02*
X125908557Y-91700000D01*
X125908557Y-91700000D02*
X125865700Y-91785714D01*
X125865700Y-91785714D02*
X125822842Y-91828571D01*
X124657142Y-87609580D02*
X124609523Y-87657200D01*
X124609523Y-87657200D02*
X124466666Y-87704819D01*
X124466666Y-87704819D02*
X124371428Y-87704819D01*
X124371428Y-87704819D02*
X124228571Y-87657200D01*
X124228571Y-87657200D02*
X124133333Y-87561961D01*
X124133333Y-87561961D02*
X124085714Y-87466723D01*
X124085714Y-87466723D02*
X124038095Y-87276247D01*
X124038095Y-87276247D02*
X124038095Y-87133390D01*
X124038095Y-87133390D02*
X124085714Y-86942914D01*
X124085714Y-86942914D02*
X124133333Y-86847676D01*
X124133333Y-86847676D02*
X124228571Y-86752438D01*
X124228571Y-86752438D02*
X124371428Y-86704819D01*
X124371428Y-86704819D02*
X124466666Y-86704819D01*
X124466666Y-86704819D02*
X124609523Y-86752438D01*
X124609523Y-86752438D02*
X124657142Y-86800057D01*
X125609523Y-87704819D02*
X125038095Y-87704819D01*
X125323809Y-87704819D02*
X125323809Y-86704819D01*
X125323809Y-86704819D02*
X125228571Y-86847676D01*
X125228571Y-86847676D02*
X125133333Y-86942914D01*
X125133333Y-86942914D02*
X125038095Y-86990533D01*
X125942857Y-86704819D02*
X126609523Y-86704819D01*
X126609523Y-86704819D02*
X126180952Y-87704819D01*
X160157142Y-121229580D02*
X160109523Y-121277200D01*
X160109523Y-121277200D02*
X159966666Y-121324819D01*
X159966666Y-121324819D02*
X159871428Y-121324819D01*
X159871428Y-121324819D02*
X159728571Y-121277200D01*
X159728571Y-121277200D02*
X159633333Y-121181961D01*
X159633333Y-121181961D02*
X159585714Y-121086723D01*
X159585714Y-121086723D02*
X159538095Y-120896247D01*
X159538095Y-120896247D02*
X159538095Y-120753390D01*
X159538095Y-120753390D02*
X159585714Y-120562914D01*
X159585714Y-120562914D02*
X159633333Y-120467676D01*
X159633333Y-120467676D02*
X159728571Y-120372438D01*
X159728571Y-120372438D02*
X159871428Y-120324819D01*
X159871428Y-120324819D02*
X159966666Y-120324819D01*
X159966666Y-120324819D02*
X160109523Y-120372438D01*
X160109523Y-120372438D02*
X160157142Y-120420057D01*
X160538095Y-120420057D02*
X160585714Y-120372438D01*
X160585714Y-120372438D02*
X160680952Y-120324819D01*
X160680952Y-120324819D02*
X160919047Y-120324819D01*
X160919047Y-120324819D02*
X161014285Y-120372438D01*
X161014285Y-120372438D02*
X161061904Y-120420057D01*
X161061904Y-120420057D02*
X161109523Y-120515295D01*
X161109523Y-120515295D02*
X161109523Y-120610533D01*
X161109523Y-120610533D02*
X161061904Y-120753390D01*
X161061904Y-120753390D02*
X160490476Y-121324819D01*
X160490476Y-121324819D02*
X161109523Y-121324819D01*
X161585714Y-121324819D02*
X161776190Y-121324819D01*
X161776190Y-121324819D02*
X161871428Y-121277200D01*
X161871428Y-121277200D02*
X161919047Y-121229580D01*
X161919047Y-121229580D02*
X162014285Y-121086723D01*
X162014285Y-121086723D02*
X162061904Y-120896247D01*
X162061904Y-120896247D02*
X162061904Y-120515295D01*
X162061904Y-120515295D02*
X162014285Y-120420057D01*
X162014285Y-120420057D02*
X161966666Y-120372438D01*
X161966666Y-120372438D02*
X161871428Y-120324819D01*
X161871428Y-120324819D02*
X161680952Y-120324819D01*
X161680952Y-120324819D02*
X161585714Y-120372438D01*
X161585714Y-120372438D02*
X161538095Y-120420057D01*
X161538095Y-120420057D02*
X161490476Y-120515295D01*
X161490476Y-120515295D02*
X161490476Y-120753390D01*
X161490476Y-120753390D02*
X161538095Y-120848628D01*
X161538095Y-120848628D02*
X161585714Y-120896247D01*
X161585714Y-120896247D02*
X161680952Y-120943866D01*
X161680952Y-120943866D02*
X161871428Y-120943866D01*
X161871428Y-120943866D02*
X161966666Y-120896247D01*
X161966666Y-120896247D02*
X162014285Y-120848628D01*
X162014285Y-120848628D02*
X162061904Y-120753390D01*
D11*
X152261904Y-70542580D02*
X152261904Y-69733057D01*
X152261904Y-69733057D02*
X152214285Y-69637819D01*
X152214285Y-69637819D02*
X152166666Y-69590200D01*
X152166666Y-69590200D02*
X152071428Y-69542580D01*
X152071428Y-69542580D02*
X151880952Y-69542580D01*
X151880952Y-69542580D02*
X151785714Y-69590200D01*
X151785714Y-69590200D02*
X151738095Y-69637819D01*
X151738095Y-69637819D02*
X151690476Y-69733057D01*
X151690476Y-69733057D02*
X151690476Y-70542580D01*
X150690476Y-69542580D02*
X151261904Y-69542580D01*
X150976190Y-69542580D02*
X150976190Y-70542580D01*
X150976190Y-70542580D02*
X151071428Y-70399723D01*
X151071428Y-70399723D02*
X151166666Y-70304485D01*
X151166666Y-70304485D02*
X151261904Y-70256866D01*
D10*
X169454819Y-79738094D02*
X168454819Y-79738094D01*
X168454819Y-79738094D02*
X168454819Y-79499999D01*
X168454819Y-79499999D02*
X168502438Y-79357142D01*
X168502438Y-79357142D02*
X168597676Y-79261904D01*
X168597676Y-79261904D02*
X168692914Y-79214285D01*
X168692914Y-79214285D02*
X168883390Y-79166666D01*
X168883390Y-79166666D02*
X169026247Y-79166666D01*
X169026247Y-79166666D02*
X169216723Y-79214285D01*
X169216723Y-79214285D02*
X169311961Y-79261904D01*
X169311961Y-79261904D02*
X169407200Y-79357142D01*
X169407200Y-79357142D02*
X169454819Y-79499999D01*
X169454819Y-79499999D02*
X169454819Y-79738094D01*
X168550057Y-78785713D02*
X168502438Y-78738094D01*
X168502438Y-78738094D02*
X168454819Y-78642856D01*
X168454819Y-78642856D02*
X168454819Y-78404761D01*
X168454819Y-78404761D02*
X168502438Y-78309523D01*
X168502438Y-78309523D02*
X168550057Y-78261904D01*
X168550057Y-78261904D02*
X168645295Y-78214285D01*
X168645295Y-78214285D02*
X168740533Y-78214285D01*
X168740533Y-78214285D02*
X168883390Y-78261904D01*
X168883390Y-78261904D02*
X169454819Y-78833332D01*
X169454819Y-78833332D02*
X169454819Y-78214285D01*
X151185714Y-108886104D02*
X151147618Y-108924200D01*
X151147618Y-108924200D02*
X151033333Y-108962295D01*
X151033333Y-108962295D02*
X150957142Y-108962295D01*
X150957142Y-108962295D02*
X150842856Y-108924200D01*
X150842856Y-108924200D02*
X150766666Y-108848009D01*
X150766666Y-108848009D02*
X150728571Y-108771819D01*
X150728571Y-108771819D02*
X150690475Y-108619438D01*
X150690475Y-108619438D02*
X150690475Y-108505152D01*
X150690475Y-108505152D02*
X150728571Y-108352771D01*
X150728571Y-108352771D02*
X150766666Y-108276580D01*
X150766666Y-108276580D02*
X150842856Y-108200390D01*
X150842856Y-108200390D02*
X150957142Y-108162295D01*
X150957142Y-108162295D02*
X151033333Y-108162295D01*
X151033333Y-108162295D02*
X151147618Y-108200390D01*
X151147618Y-108200390D02*
X151185714Y-108238485D01*
X151947618Y-108962295D02*
X151490475Y-108962295D01*
X151719047Y-108962295D02*
X151719047Y-108162295D01*
X151719047Y-108162295D02*
X151642856Y-108276580D01*
X151642856Y-108276580D02*
X151566666Y-108352771D01*
X151566666Y-108352771D02*
X151490475Y-108390866D01*
X152709523Y-108962295D02*
X152252380Y-108962295D01*
X152480952Y-108962295D02*
X152480952Y-108162295D01*
X152480952Y-108162295D02*
X152404761Y-108276580D01*
X152404761Y-108276580D02*
X152328571Y-108352771D01*
X152328571Y-108352771D02*
X152252380Y-108390866D01*
X141559580Y-117266666D02*
X141607200Y-117314285D01*
X141607200Y-117314285D02*
X141654819Y-117457142D01*
X141654819Y-117457142D02*
X141654819Y-117552380D01*
X141654819Y-117552380D02*
X141607200Y-117695237D01*
X141607200Y-117695237D02*
X141511961Y-117790475D01*
X141511961Y-117790475D02*
X141416723Y-117838094D01*
X141416723Y-117838094D02*
X141226247Y-117885713D01*
X141226247Y-117885713D02*
X141083390Y-117885713D01*
X141083390Y-117885713D02*
X140892914Y-117838094D01*
X140892914Y-117838094D02*
X140797676Y-117790475D01*
X140797676Y-117790475D02*
X140702438Y-117695237D01*
X140702438Y-117695237D02*
X140654819Y-117552380D01*
X140654819Y-117552380D02*
X140654819Y-117457142D01*
X140654819Y-117457142D02*
X140702438Y-117314285D01*
X140702438Y-117314285D02*
X140750057Y-117266666D01*
X140654819Y-116409523D02*
X140654819Y-116599999D01*
X140654819Y-116599999D02*
X140702438Y-116695237D01*
X140702438Y-116695237D02*
X140750057Y-116742856D01*
X140750057Y-116742856D02*
X140892914Y-116838094D01*
X140892914Y-116838094D02*
X141083390Y-116885713D01*
X141083390Y-116885713D02*
X141464342Y-116885713D01*
X141464342Y-116885713D02*
X141559580Y-116838094D01*
X141559580Y-116838094D02*
X141607200Y-116790475D01*
X141607200Y-116790475D02*
X141654819Y-116695237D01*
X141654819Y-116695237D02*
X141654819Y-116504761D01*
X141654819Y-116504761D02*
X141607200Y-116409523D01*
X141607200Y-116409523D02*
X141559580Y-116361904D01*
X141559580Y-116361904D02*
X141464342Y-116314285D01*
X141464342Y-116314285D02*
X141226247Y-116314285D01*
X141226247Y-116314285D02*
X141131009Y-116361904D01*
X141131009Y-116361904D02*
X141083390Y-116409523D01*
X141083390Y-116409523D02*
X141035771Y-116504761D01*
X141035771Y-116504761D02*
X141035771Y-116695237D01*
X141035771Y-116695237D02*
X141083390Y-116790475D01*
X141083390Y-116790475D02*
X141131009Y-116838094D01*
X141131009Y-116838094D02*
X141226247Y-116885713D01*
D12*
%TO.C,C25*%
X144240000Y-123507836D02*
X144240000Y-123292164D01*
X144960000Y-123507836D02*
X144960000Y-123292164D01*
%TO.C,C14*%
X155887836Y-67010000D02*
X155672164Y-67010000D01*
X155887836Y-66290000D02*
X155672164Y-66290000D01*
%TO.C,C33*%
X128438748Y-96715000D02*
X128961252Y-96715000D01*
X128438748Y-98185000D02*
X128961252Y-98185000D01*
%TO.C,C18*%
X129007836Y-89610000D02*
X128792164Y-89610000D01*
X129007836Y-88890000D02*
X128792164Y-88890000D01*
%TO.C,U2*%
X149110000Y-114610000D02*
X148460000Y-114610000D01*
X141890000Y-113960000D02*
X141890000Y-114610000D01*
X149110000Y-113960000D02*
X149110000Y-114610000D01*
X141890000Y-108040000D02*
X141890000Y-107390000D01*
X149110000Y-108040000D02*
X149110000Y-107390000D01*
X141890000Y-107390000D02*
X142540000Y-107390000D01*
X149110000Y-107390000D02*
X148460000Y-107390000D01*
%TO.C,C15*%
X133161252Y-84935000D02*
X132638748Y-84935000D01*
X133161252Y-83465000D02*
X132638748Y-83465000D01*
%TO.C,C7*%
X138807836Y-111360000D02*
X138592164Y-111360000D01*
X138807836Y-110640000D02*
X138592164Y-110640000D01*
%TO.C,C3*%
X145965000Y-104732836D02*
X145965000Y-104517164D01*
X146685000Y-104732836D02*
X146685000Y-104517164D01*
%TO.C,R27*%
X154020000Y-109853641D02*
X154020000Y-109546359D01*
X154780000Y-109853641D02*
X154780000Y-109546359D01*
%TO.C,C19*%
X132910000Y-117359420D02*
X132910000Y-117640580D01*
X131890000Y-117359420D02*
X131890000Y-117640580D01*
%TO.C,U4*%
X133475000Y-123325000D02*
X133735000Y-123325000D01*
X133735000Y-123325000D02*
X133735000Y-125000000D01*
X138925000Y-123325000D02*
X138665000Y-123325000D01*
X133475000Y-120600000D02*
X133475000Y-123325000D01*
X133475000Y-120600000D02*
X133475000Y-117875000D01*
X138925000Y-120600000D02*
X138925000Y-123325000D01*
X138925000Y-120600000D02*
X138925000Y-117875000D01*
X133475000Y-117875000D02*
X133735000Y-117875000D01*
X138925000Y-117875000D02*
X138665000Y-117875000D01*
%TO.C,R35*%
X131920000Y-91203641D02*
X131920000Y-90896359D01*
X132680000Y-91203641D02*
X132680000Y-90896359D01*
%TO.C,C32*%
X133140000Y-93757836D02*
X133140000Y-93542164D01*
X133860000Y-93757836D02*
X133860000Y-93542164D01*
%TO.C,C1*%
X140840000Y-104707836D02*
X140840000Y-104492164D01*
X141560000Y-104707836D02*
X141560000Y-104492164D01*
D13*
%TO.C,REF\u002A\u002A*%
X160801000Y-70794000D02*
X165500000Y-63809000D01*
X164600840Y-68200660D02*
X165799720Y-67400560D01*
X164600840Y-68200660D02*
X165901320Y-65399040D01*
X165002160Y-70199640D02*
X164900560Y-69300480D01*
X165002160Y-70199640D02*
X165601600Y-69501140D01*
X165002160Y-70199640D02*
X166201040Y-67100840D01*
X165400940Y-65200920D02*
X164600840Y-68200660D01*
X165500000Y-63809000D02*
X170199000Y-70794000D01*
X165799720Y-67400560D02*
X165002160Y-70199640D01*
X166201040Y-67100840D02*
X165601600Y-67499620D01*
X170199000Y-70794000D02*
X160801000Y-70794000D01*
D12*
%TO.C,C27*%
X151585000Y-124640580D02*
X151585000Y-124359420D01*
X152605000Y-124640580D02*
X152605000Y-124359420D01*
%TO.C,R15*%
X155546359Y-67320000D02*
X155853641Y-67320000D01*
X155546359Y-68080000D02*
X155853641Y-68080000D01*
%TO.C,R31*%
X148237258Y-124322500D02*
X147762742Y-124322500D01*
X148237258Y-123277500D02*
X147762742Y-123277500D01*
%TO.C,R14*%
X153820000Y-68353641D02*
X153820000Y-68046359D01*
X154580000Y-68353641D02*
X154580000Y-68046359D01*
%TO.C,C23*%
X152265000Y-85761252D02*
X152265000Y-85238748D01*
X153735000Y-85761252D02*
X153735000Y-85238748D01*
%TO.C,J1*%
X133570000Y-81770000D02*
X132300000Y-81770000D01*
X133570000Y-80500000D02*
X133570000Y-81770000D01*
X131257071Y-78340000D02*
X130802929Y-78340000D01*
X131257071Y-77580000D02*
X130802929Y-77580000D01*
X131257071Y-75800000D02*
X130802929Y-75800000D01*
X131257071Y-75040000D02*
X130802929Y-75040000D01*
X131190000Y-80880000D02*
X130802929Y-80880000D01*
X131190000Y-80120000D02*
X130802929Y-80120000D01*
X128717071Y-80880000D02*
X128320000Y-80880000D01*
X128717071Y-80120000D02*
X128320000Y-80120000D01*
X128717071Y-78340000D02*
X128320000Y-78340000D01*
X128717071Y-77580000D02*
X128320000Y-77580000D01*
X128717071Y-75800000D02*
X128320000Y-75800000D01*
X128717071Y-75040000D02*
X128320000Y-75040000D01*
X128320000Y-81830000D02*
X128320000Y-74090000D01*
X128320000Y-79230000D02*
X125660000Y-79230000D01*
X128320000Y-76690000D02*
X125660000Y-76690000D01*
X128320000Y-74090000D02*
X125660000Y-74090000D01*
X125660000Y-81830000D02*
X128320000Y-81830000D01*
X125660000Y-74090000D02*
X125660000Y-81830000D01*
%TO.C,U5*%
X156410000Y-88000000D02*
X156410000Y-94010000D01*
X149590000Y-90250000D02*
X149590000Y-94010000D01*
X156410000Y-94010000D02*
X155150000Y-94010000D01*
X149590000Y-94010000D02*
X150850000Y-94010000D01*
%TO.C,C20*%
X157107836Y-113860000D02*
X156892164Y-113860000D01*
X157107836Y-113140000D02*
X156892164Y-113140000D01*
%TO.C,D3*%
X161840000Y-82640000D02*
X161840000Y-85360000D01*
X161840000Y-82640000D02*
X166900000Y-82640000D01*
X161840000Y-85360000D02*
X166900000Y-85360000D01*
%TO.C,C10*%
X138807836Y-112360000D02*
X138592164Y-112360000D01*
X138807836Y-111640000D02*
X138592164Y-111640000D01*
%TO.C,R13*%
X155953641Y-65980000D02*
X155646359Y-65980000D01*
X155953641Y-65220000D02*
X155646359Y-65220000D01*
%TO.C,REF\u002A\u002A*%
D14*
X175676146Y-130315908D02*
X175691469Y-130341590D01*
X175725911Y-130400469D01*
X175777769Y-130489602D01*
X175845340Y-130606049D01*
X175926921Y-130746867D01*
X176020809Y-130909114D01*
X176125299Y-131089849D01*
X176238690Y-131286130D01*
X176359278Y-131495016D01*
X176483313Y-131710017D01*
X176609987Y-131929649D01*
X176731608Y-132140495D01*
X176846412Y-132339499D01*
X176952638Y-132523607D01*
X177048523Y-132689765D01*
X177132302Y-132834917D01*
X177202214Y-132956009D01*
X177256496Y-133049988D01*
X177293385Y-133113797D01*
X177310731Y-133143719D01*
X177339007Y-133194271D01*
X177354382Y-133225914D01*
X177355224Y-133231420D01*
X177336488Y-133221082D01*
X177284386Y-133191407D01*
X177201640Y-133143968D01*
X177090975Y-133080333D01*
X176955114Y-133002074D01*
X176796781Y-132910759D01*
X176618698Y-132807960D01*
X176423590Y-132695247D01*
X176214180Y-132574189D01*
X175993191Y-132446357D01*
X175909113Y-132397702D01*
X175684170Y-132267567D01*
X175469524Y-132143497D01*
X175267932Y-132027077D01*
X175082148Y-131919893D01*
X174914928Y-131823531D01*
X174769027Y-131739578D01*
X174647201Y-131669620D01*
X174552204Y-131615243D01*
X174486792Y-131578034D01*
X174453720Y-131559578D01*
X174450262Y-131557830D01*
X174460339Y-131542005D01*
X174495407Y-131499692D01*
X174551885Y-131434790D01*
X174626193Y-131351196D01*
X174714752Y-131252809D01*
X174813980Y-131143525D01*
X174920298Y-131027244D01*
X175030125Y-130907862D01*
X175139882Y-130789277D01*
X175245988Y-130675388D01*
X175344862Y-130570092D01*
X175432926Y-130477287D01*
X175506599Y-130400870D01*
X175562300Y-130344740D01*
X175581403Y-130326335D01*
X175644708Y-130266872D01*
X175676146Y-130315908D01*
G36*
X175676146Y-130315908D02*
G01*
X175691469Y-130341590D01*
X175725911Y-130400469D01*
X175777769Y-130489602D01*
X175845340Y-130606049D01*
X175926921Y-130746867D01*
X176020809Y-130909114D01*
X176125299Y-131089849D01*
X176238690Y-131286130D01*
X176359278Y-131495016D01*
X176483313Y-131710017D01*
X176609987Y-131929649D01*
X176731608Y-132140495D01*
X176846412Y-132339499D01*
X176952638Y-132523607D01*
X177048523Y-132689765D01*
X177132302Y-132834917D01*
X177202214Y-132956009D01*
X177256496Y-133049988D01*
X177293385Y-133113797D01*
X177310731Y-133143719D01*
X177339007Y-133194271D01*
X177354382Y-133225914D01*
X177355224Y-133231420D01*
X177336488Y-133221082D01*
X177284386Y-133191407D01*
X177201640Y-133143968D01*
X177090975Y-133080333D01*
X176955114Y-133002074D01*
X176796781Y-132910759D01*
X176618698Y-132807960D01*
X176423590Y-132695247D01*
X176214180Y-132574189D01*
X175993191Y-132446357D01*
X175909113Y-132397702D01*
X175684170Y-132267567D01*
X175469524Y-132143497D01*
X175267932Y-132027077D01*
X175082148Y-131919893D01*
X174914928Y-131823531D01*
X174769027Y-131739578D01*
X174647201Y-131669620D01*
X174552204Y-131615243D01*
X174486792Y-131578034D01*
X174453720Y-131559578D01*
X174450262Y-131557830D01*
X174460339Y-131542005D01*
X174495407Y-131499692D01*
X174551885Y-131434790D01*
X174626193Y-131351196D01*
X174714752Y-131252809D01*
X174813980Y-131143525D01*
X174920298Y-131027244D01*
X175030125Y-130907862D01*
X175139882Y-130789277D01*
X175245988Y-130675388D01*
X175344862Y-130570092D01*
X175432926Y-130477287D01*
X175506599Y-130400870D01*
X175562300Y-130344740D01*
X175581403Y-130326335D01*
X175644708Y-130266872D01*
X175676146Y-130315908D01*
G37*
X173220878Y-126076166D02*
X173251876Y-126126538D01*
X173299634Y-126206341D01*
X173362194Y-126312180D01*
X173437597Y-126440659D01*
X173523885Y-126588384D01*
X173619101Y-126751958D01*
X173721285Y-126927987D01*
X173828481Y-127113075D01*
X173938729Y-127303827D01*
X174050071Y-127496847D01*
X174160550Y-127688741D01*
X174268207Y-127876111D01*
X174371084Y-128055565D01*
X174467223Y-128223705D01*
X174554665Y-128377137D01*
X174631453Y-128512465D01*
X174695628Y-128626294D01*
X174745233Y-128715229D01*
X174778309Y-128775874D01*
X174792897Y-128804833D01*
X174793431Y-128806644D01*
X174775321Y-128831217D01*
X174724980Y-128868807D01*
X174648395Y-128915722D01*
X174551552Y-128968274D01*
X174450167Y-129018213D01*
X174312215Y-129078769D01*
X174167142Y-129133179D01*
X174009950Y-129182651D01*
X173835643Y-129228395D01*
X173639222Y-129271620D01*
X173415689Y-129313534D01*
X173160048Y-129355347D01*
X172895606Y-129394284D01*
X172665852Y-129428828D01*
X172472917Y-129463026D01*
X172311964Y-129498577D01*
X172178155Y-129537182D01*
X172066650Y-129580539D01*
X171972614Y-129630348D01*
X171891206Y-129688309D01*
X171817590Y-129756120D01*
X171793851Y-129781312D01*
X171742397Y-129839958D01*
X171704334Y-129887815D01*
X171686677Y-129915958D01*
X171686206Y-129918265D01*
X171680028Y-129932416D01*
X171658590Y-129932575D01*
X171617533Y-129916861D01*
X171552501Y-129883391D01*
X171459137Y-129830281D01*
X171394252Y-129792088D01*
X171297501Y-129732385D01*
X171222312Y-129681263D01*
X171173739Y-129642399D01*
X171156835Y-129619472D01*
X171156845Y-129619305D01*
X171167328Y-129597456D01*
X171196931Y-129542739D01*
X171243938Y-129458136D01*
X171306629Y-129346629D01*
X171383286Y-129211201D01*
X171472191Y-129054833D01*
X171571626Y-128880507D01*
X171679872Y-128691206D01*
X171795211Y-128489911D01*
X171915924Y-128279605D01*
X172040294Y-128063271D01*
X172166601Y-127843889D01*
X172293127Y-127624442D01*
X172418155Y-127407912D01*
X172539965Y-127197281D01*
X172656839Y-126995532D01*
X172767060Y-126805647D01*
X172868908Y-126630606D01*
X172960665Y-126473394D01*
X173040613Y-126336991D01*
X173107034Y-126224380D01*
X173158209Y-126138543D01*
X173192420Y-126082462D01*
X173207948Y-126059119D01*
X173208598Y-126058621D01*
X173220878Y-126076166D01*
G36*
X173220878Y-126076166D02*
G01*
X173251876Y-126126538D01*
X173299634Y-126206341D01*
X173362194Y-126312180D01*
X173437597Y-126440659D01*
X173523885Y-126588384D01*
X173619101Y-126751958D01*
X173721285Y-126927987D01*
X173828481Y-127113075D01*
X173938729Y-127303827D01*
X174050071Y-127496847D01*
X174160550Y-127688741D01*
X174268207Y-127876111D01*
X174371084Y-128055565D01*
X174467223Y-128223705D01*
X174554665Y-128377137D01*
X174631453Y-128512465D01*
X174695628Y-128626294D01*
X174745233Y-128715229D01*
X174778309Y-128775874D01*
X174792897Y-128804833D01*
X174793431Y-128806644D01*
X174775321Y-128831217D01*
X174724980Y-128868807D01*
X174648395Y-128915722D01*
X174551552Y-128968274D01*
X174450167Y-129018213D01*
X174312215Y-129078769D01*
X174167142Y-129133179D01*
X174009950Y-129182651D01*
X173835643Y-129228395D01*
X173639222Y-129271620D01*
X173415689Y-129313534D01*
X173160048Y-129355347D01*
X172895606Y-129394284D01*
X172665852Y-129428828D01*
X172472917Y-129463026D01*
X172311964Y-129498577D01*
X172178155Y-129537182D01*
X172066650Y-129580539D01*
X171972614Y-129630348D01*
X171891206Y-129688309D01*
X171817590Y-129756120D01*
X171793851Y-129781312D01*
X171742397Y-129839958D01*
X171704334Y-129887815D01*
X171686677Y-129915958D01*
X171686206Y-129918265D01*
X171680028Y-129932416D01*
X171658590Y-129932575D01*
X171617533Y-129916861D01*
X171552501Y-129883391D01*
X171459137Y-129830281D01*
X171394252Y-129792088D01*
X171297501Y-129732385D01*
X171222312Y-129681263D01*
X171173739Y-129642399D01*
X171156835Y-129619472D01*
X171156845Y-129619305D01*
X171167328Y-129597456D01*
X171196931Y-129542739D01*
X171243938Y-129458136D01*
X171306629Y-129346629D01*
X171383286Y-129211201D01*
X171472191Y-129054833D01*
X171571626Y-128880507D01*
X171679872Y-128691206D01*
X171795211Y-128489911D01*
X171915924Y-128279605D01*
X172040294Y-128063271D01*
X172166601Y-127843889D01*
X172293127Y-127624442D01*
X172418155Y-127407912D01*
X172539965Y-127197281D01*
X172656839Y-126995532D01*
X172767060Y-126805647D01*
X172868908Y-126630606D01*
X172960665Y-126473394D01*
X173040613Y-126336991D01*
X173107034Y-126224380D01*
X173158209Y-126138543D01*
X173192420Y-126082462D01*
X173207948Y-126059119D01*
X173208598Y-126058621D01*
X173220878Y-126076166D01*
G37*
X170740749Y-130392036D02*
X170784544Y-130408972D01*
X170851293Y-130442601D01*
X170947137Y-130495334D01*
X170954599Y-130499525D01*
X171042871Y-130550001D01*
X171117363Y-130594223D01*
X171170760Y-130627731D01*
X171195746Y-130646064D01*
X171196445Y-130646962D01*
X171190409Y-130672414D01*
X171162723Y-130729255D01*
X171115188Y-130814389D01*
X171049611Y-130924717D01*
X170967797Y-131057144D01*
X170871548Y-131208571D01*
X170847594Y-131245707D01*
X170785183Y-131348757D01*
X170739737Y-131437432D01*
X170715246Y-131503714D01*
X170712733Y-131516807D01*
X170713848Y-131574443D01*
X170726343Y-131665865D01*
X170748660Y-131785208D01*
X170779240Y-131926609D01*
X170816528Y-132084203D01*
X170858965Y-132252126D01*
X170904994Y-132424514D01*
X170953057Y-132595501D01*
X171001597Y-132759224D01*
X171049057Y-132909818D01*
X171093878Y-133041420D01*
X171134503Y-133148163D01*
X171162823Y-133211494D01*
X171196183Y-133278957D01*
X171227682Y-133343511D01*
X171229387Y-133347045D01*
X171281498Y-133412250D01*
X171357554Y-133456156D01*
X171446092Y-133477197D01*
X171535648Y-133473807D01*
X171614758Y-133444423D01*
X171659264Y-133405736D01*
X171723356Y-133299636D01*
X171770322Y-133167405D01*
X171796090Y-133022527D01*
X171799741Y-132940394D01*
X171785039Y-132787105D01*
X171741890Y-132660166D01*
X171667972Y-132553418D01*
X171644921Y-132529657D01*
X171576325Y-132463009D01*
X171571614Y-131991916D01*
X171566903Y-131520822D01*
X171686946Y-131339106D01*
X171743277Y-131256856D01*
X171797528Y-131182865D01*
X171841959Y-131127448D01*
X171861056Y-131107056D01*
X171915124Y-131056723D01*
X171988350Y-131096158D01*
X172034633Y-131124415D01*
X172059957Y-131146354D01*
X172061576Y-131150299D01*
X172078884Y-131167023D01*
X172108497Y-131179476D01*
X172137114Y-131190700D01*
X172180934Y-131212024D01*
X172243718Y-131245529D01*
X172329228Y-131293296D01*
X172441226Y-131357407D01*
X172583473Y-131439944D01*
X172660773Y-131485065D01*
X172751702Y-131539111D01*
X172811339Y-131577604D01*
X172844961Y-131605044D01*
X172857844Y-131625934D01*
X172855265Y-131644775D01*
X172853115Y-131649152D01*
X172832197Y-131676714D01*
X172787440Y-131728416D01*
X172724057Y-131798475D01*
X172647262Y-131881107D01*
X172580844Y-131951156D01*
X172427790Y-132117414D01*
X172308056Y-132261519D01*
X172220573Y-132384921D01*
X172164274Y-132489068D01*
X172145284Y-132541954D01*
X172137440Y-132588250D01*
X172129338Y-132667221D01*
X172121691Y-132769846D01*
X172115212Y-132887103D01*
X172112163Y-132961248D01*
X172107908Y-133089427D01*
X172106036Y-133183138D01*
X172107099Y-133249583D01*
X172111646Y-133295961D01*
X172120227Y-133329474D01*
X172133394Y-133357321D01*
X172143735Y-133374324D01*
X172203456Y-133439862D01*
X172280411Y-133485532D01*
X172361380Y-133505450D01*
X172422058Y-133498244D01*
X172476999Y-133467066D01*
X172545867Y-133411230D01*
X172619005Y-133340474D01*
X172686752Y-133264537D01*
X172739450Y-133193159D01*
X172758853Y-133158668D01*
X172787919Y-133111441D01*
X172840783Y-133039506D01*
X172912616Y-132948485D01*
X172998588Y-132844000D01*
X173093868Y-132731675D01*
X173193627Y-132617130D01*
X173293034Y-132505990D01*
X173387259Y-132403875D01*
X173471473Y-132316408D01*
X173537591Y-132252198D01*
X173610999Y-132188057D01*
X173672753Y-132140763D01*
X173716066Y-132115235D01*
X173730445Y-132112429D01*
X173752479Y-132123752D01*
X173807438Y-132154144D01*
X173892152Y-132201780D01*
X174003448Y-132264835D01*
X174138156Y-132341485D01*
X174293103Y-132429905D01*
X174465119Y-132528270D01*
X174651032Y-132634756D01*
X174847670Y-132747537D01*
X175051863Y-132864789D01*
X175260439Y-132984687D01*
X175470225Y-133105407D01*
X175678052Y-133225123D01*
X175880747Y-133342011D01*
X176075140Y-133454246D01*
X176258058Y-133560004D01*
X176426330Y-133657460D01*
X176576785Y-133744788D01*
X176706251Y-133820165D01*
X176811557Y-133881765D01*
X176889532Y-133927764D01*
X176937004Y-133956337D01*
X176950763Y-133965304D01*
X176932231Y-133967076D01*
X176873933Y-133968799D01*
X176777809Y-133970464D01*
X176645799Y-133972063D01*
X176479846Y-133973587D01*
X176281889Y-133975029D01*
X176053870Y-133976380D01*
X175797729Y-133977632D01*
X175515408Y-133978776D01*
X175208847Y-133979804D01*
X174879987Y-133980708D01*
X174530769Y-133981479D01*
X174163135Y-133982109D01*
X173779024Y-133982590D01*
X173380377Y-133982914D01*
X172969137Y-133983072D01*
X172796580Y-133983087D01*
X168622586Y-133983087D01*
X168920268Y-133466954D01*
X168983286Y-133357665D01*
X169064406Y-133216940D01*
X169160916Y-133049486D01*
X169270103Y-132860012D01*
X169389255Y-132653223D01*
X169515660Y-132433828D01*
X169646605Y-132206533D01*
X169779379Y-131976046D01*
X169911269Y-131747073D01*
X169944624Y-131689163D01*
X170066247Y-131478232D01*
X170182228Y-131277535D01*
X170290825Y-131090059D01*
X170390294Y-130918792D01*
X170478892Y-130766723D01*
X170554878Y-130636838D01*
X170616507Y-130532125D01*
X170662037Y-130455573D01*
X170689725Y-130410169D01*
X170697472Y-130398609D01*
X170713772Y-130389385D01*
X170740749Y-130392036D01*
G36*
X170740749Y-130392036D02*
G01*
X170784544Y-130408972D01*
X170851293Y-130442601D01*
X170947137Y-130495334D01*
X170954599Y-130499525D01*
X171042871Y-130550001D01*
X171117363Y-130594223D01*
X171170760Y-130627731D01*
X171195746Y-130646064D01*
X171196445Y-130646962D01*
X171190409Y-130672414D01*
X171162723Y-130729255D01*
X171115188Y-130814389D01*
X171049611Y-130924717D01*
X170967797Y-131057144D01*
X170871548Y-131208571D01*
X170847594Y-131245707D01*
X170785183Y-131348757D01*
X170739737Y-131437432D01*
X170715246Y-131503714D01*
X170712733Y-131516807D01*
X170713848Y-131574443D01*
X170726343Y-131665865D01*
X170748660Y-131785208D01*
X170779240Y-131926609D01*
X170816528Y-132084203D01*
X170858965Y-132252126D01*
X170904994Y-132424514D01*
X170953057Y-132595501D01*
X171001597Y-132759224D01*
X171049057Y-132909818D01*
X171093878Y-133041420D01*
X171134503Y-133148163D01*
X171162823Y-133211494D01*
X171196183Y-133278957D01*
X171227682Y-133343511D01*
X171229387Y-133347045D01*
X171281498Y-133412250D01*
X171357554Y-133456156D01*
X171446092Y-133477197D01*
X171535648Y-133473807D01*
X171614758Y-133444423D01*
X171659264Y-133405736D01*
X171723356Y-133299636D01*
X171770322Y-133167405D01*
X171796090Y-133022527D01*
X171799741Y-132940394D01*
X171785039Y-132787105D01*
X171741890Y-132660166D01*
X171667972Y-132553418D01*
X171644921Y-132529657D01*
X171576325Y-132463009D01*
X171571614Y-131991916D01*
X171566903Y-131520822D01*
X171686946Y-131339106D01*
X171743277Y-131256856D01*
X171797528Y-131182865D01*
X171841959Y-131127448D01*
X171861056Y-131107056D01*
X171915124Y-131056723D01*
X171988350Y-131096158D01*
X172034633Y-131124415D01*
X172059957Y-131146354D01*
X172061576Y-131150299D01*
X172078884Y-131167023D01*
X172108497Y-131179476D01*
X172137114Y-131190700D01*
X172180934Y-131212024D01*
X172243718Y-131245529D01*
X172329228Y-131293296D01*
X172441226Y-131357407D01*
X172583473Y-131439944D01*
X172660773Y-131485065D01*
X172751702Y-131539111D01*
X172811339Y-131577604D01*
X172844961Y-131605044D01*
X172857844Y-131625934D01*
X172855265Y-131644775D01*
X172853115Y-131649152D01*
X172832197Y-131676714D01*
X172787440Y-131728416D01*
X172724057Y-131798475D01*
X172647262Y-131881107D01*
X172580844Y-131951156D01*
X172427790Y-132117414D01*
X172308056Y-132261519D01*
X172220573Y-132384921D01*
X172164274Y-132489068D01*
X172145284Y-132541954D01*
X172137440Y-132588250D01*
X172129338Y-132667221D01*
X172121691Y-132769846D01*
X172115212Y-132887103D01*
X172112163Y-132961248D01*
X172107908Y-133089427D01*
X172106036Y-133183138D01*
X172107099Y-133249583D01*
X172111646Y-133295961D01*
X172120227Y-133329474D01*
X172133394Y-133357321D01*
X172143735Y-133374324D01*
X172203456Y-133439862D01*
X172280411Y-133485532D01*
X172361380Y-133505450D01*
X172422058Y-133498244D01*
X172476999Y-133467066D01*
X172545867Y-133411230D01*
X172619005Y-133340474D01*
X172686752Y-133264537D01*
X172739450Y-133193159D01*
X172758853Y-133158668D01*
X172787919Y-133111441D01*
X172840783Y-133039506D01*
X172912616Y-132948485D01*
X172998588Y-132844000D01*
X173093868Y-132731675D01*
X173193627Y-132617130D01*
X173293034Y-132505990D01*
X173387259Y-132403875D01*
X173471473Y-132316408D01*
X173537591Y-132252198D01*
X173610999Y-132188057D01*
X173672753Y-132140763D01*
X173716066Y-132115235D01*
X173730445Y-132112429D01*
X173752479Y-132123752D01*
X173807438Y-132154144D01*
X173892152Y-132201780D01*
X174003448Y-132264835D01*
X174138156Y-132341485D01*
X174293103Y-132429905D01*
X174465119Y-132528270D01*
X174651032Y-132634756D01*
X174847670Y-132747537D01*
X175051863Y-132864789D01*
X175260439Y-132984687D01*
X175470225Y-133105407D01*
X175678052Y-133225123D01*
X175880747Y-133342011D01*
X176075140Y-133454246D01*
X176258058Y-133560004D01*
X176426330Y-133657460D01*
X176576785Y-133744788D01*
X176706251Y-133820165D01*
X176811557Y-133881765D01*
X176889532Y-133927764D01*
X176937004Y-133956337D01*
X176950763Y-133965304D01*
X176932231Y-133967076D01*
X176873933Y-133968799D01*
X176777809Y-133970464D01*
X176645799Y-133972063D01*
X176479846Y-133973587D01*
X176281889Y-133975029D01*
X176053870Y-133976380D01*
X175797729Y-133977632D01*
X175515408Y-133978776D01*
X175208847Y-133979804D01*
X174879987Y-133980708D01*
X174530769Y-133981479D01*
X174163135Y-133982109D01*
X173779024Y-133982590D01*
X173380377Y-133982914D01*
X172969137Y-133983072D01*
X172796580Y-133983087D01*
X168622586Y-133983087D01*
X168920268Y-133466954D01*
X168983286Y-133357665D01*
X169064406Y-133216940D01*
X169160916Y-133049486D01*
X169270103Y-132860012D01*
X169389255Y-132653223D01*
X169515660Y-132433828D01*
X169646605Y-132206533D01*
X169779379Y-131976046D01*
X169911269Y-131747073D01*
X169944624Y-131689163D01*
X170066247Y-131478232D01*
X170182228Y-131277535D01*
X170290825Y-131090059D01*
X170390294Y-130918792D01*
X170478892Y-130766723D01*
X170554878Y-130636838D01*
X170616507Y-130532125D01*
X170662037Y-130455573D01*
X170689725Y-130410169D01*
X170697472Y-130398609D01*
X170713772Y-130389385D01*
X170740749Y-130392036D01*
G37*
D12*
%TO.C,C2*%
X141840000Y-104707836D02*
X141840000Y-104492164D01*
X142560000Y-104707836D02*
X142560000Y-104492164D01*
%TO.C,R24*%
X130962742Y-125077500D02*
X131437258Y-125077500D01*
X130962742Y-126122500D02*
X131437258Y-126122500D01*
%TO.C,R34*%
X131920000Y-93803641D02*
X131920000Y-93496359D01*
X132680000Y-93803641D02*
X132680000Y-93496359D01*
D10*
%TO.C,J3*%
X124450000Y-105350000D02*
X123050000Y-105350000D01*
X120650000Y-105350000D02*
X120500000Y-105350000D01*
X120500000Y-105350000D02*
X120500000Y-105650000D01*
X120500000Y-105650000D02*
X120050000Y-105650000D01*
X126625000Y-107700000D02*
X126200000Y-107700000D01*
X126200000Y-107700000D02*
X126200000Y-106975000D01*
X126625000Y-108425000D02*
X126625000Y-107700000D01*
X126200000Y-111300000D02*
X126200000Y-112025000D01*
X120500000Y-113350000D02*
X120500000Y-113650000D01*
X120050000Y-113350000D02*
X120500000Y-113350000D01*
X123050000Y-113650000D02*
X124450000Y-113650000D01*
X120500000Y-113650000D02*
X120650000Y-113650000D01*
D12*
%TO.C,C4*%
X151592164Y-110340000D02*
X151807836Y-110340000D01*
X151592164Y-111060000D02*
X151807836Y-111060000D01*
%TO.C,R21*%
X149353641Y-67680000D02*
X149046359Y-67680000D01*
X149353641Y-66920000D02*
X149046359Y-66920000D01*
%TO.C,R20*%
X154637258Y-122822500D02*
X154162742Y-122822500D01*
X154637258Y-121777500D02*
X154162742Y-121777500D01*
%TO.C,Y1*%
X155350000Y-112700000D02*
X158650000Y-112700000D01*
X158650000Y-112700000D02*
X158650000Y-108700000D01*
%TO.C,R32*%
X135680000Y-90896359D02*
X135680000Y-91203641D01*
X134920000Y-90896359D02*
X134920000Y-91203641D01*
%TO.C,R33*%
X135680000Y-93496359D02*
X135680000Y-93803641D01*
X134920000Y-93496359D02*
X134920000Y-93803641D01*
%TO.C,C21*%
X156892164Y-107540000D02*
X157107836Y-107540000D01*
X156892164Y-108260000D02*
X157107836Y-108260000D01*
%TO.C,C22*%
X149965000Y-85761252D02*
X149965000Y-85238748D01*
X151435000Y-85761252D02*
X151435000Y-85238748D01*
%TO.C,R5*%
X139346359Y-108620000D02*
X139653641Y-108620000D01*
X139346359Y-109380000D02*
X139653641Y-109380000D01*
%TO.C,L1*%
X149600000Y-68850000D02*
X149600000Y-81450000D01*
X146600000Y-68850000D02*
X149600000Y-68850000D01*
X137000000Y-68850000D02*
X140000000Y-68850000D01*
X149600000Y-81450000D02*
X146600000Y-81450000D01*
X140000000Y-81450000D02*
X137000000Y-81450000D01*
X137000000Y-81450000D02*
X137000000Y-68850000D01*
%TO.C,C30*%
X148440000Y-65607836D02*
X148440000Y-65392164D01*
X149160000Y-65607836D02*
X149160000Y-65392164D01*
%TO.C,D4*%
X121240000Y-100145000D02*
X121240000Y-102865000D01*
X121240000Y-100145000D02*
X126300000Y-100145000D01*
X121240000Y-102865000D02*
X126300000Y-102865000D01*
%TO.C,C13*%
X154088748Y-70290000D02*
X155511252Y-70290000D01*
X154088748Y-73010000D02*
X155511252Y-73010000D01*
%TO.C,R16*%
X153820000Y-65353641D02*
X153820000Y-65046359D01*
X154580000Y-65353641D02*
X154580000Y-65046359D01*
%TO.C,R18*%
X122277500Y-88637258D02*
X122277500Y-88162742D01*
X123322500Y-88637258D02*
X123322500Y-88162742D01*
%TO.C,C12*%
X153011252Y-81510000D02*
X151588748Y-81510000D01*
X153011252Y-78790000D02*
X151588748Y-78790000D01*
%TO.C,R19*%
X157837258Y-122822500D02*
X157362742Y-122822500D01*
X157837258Y-121777500D02*
X157362742Y-121777500D01*
%TO.C,C5*%
X147560000Y-117192164D02*
X147560000Y-117407836D01*
X146840000Y-117192164D02*
X146840000Y-117407836D01*
%TO.C,R25*%
X131437258Y-124522500D02*
X130962742Y-124522500D01*
X131437258Y-123477500D02*
X130962742Y-123477500D01*
%TO.C,C28*%
X159540580Y-130310000D02*
X159259420Y-130310000D01*
X159540580Y-129290000D02*
X159259420Y-129290000D01*
%TO.C,C16*%
X150360000Y-65392164D02*
X150360000Y-65607836D01*
X149640000Y-65392164D02*
X149640000Y-65607836D01*
%TO.C,C9*%
X139607836Y-108360000D02*
X139392164Y-108360000D01*
X139607836Y-107640000D02*
X139392164Y-107640000D01*
%TO.C,R4*%
X139346359Y-109620000D02*
X139653641Y-109620000D01*
X139346359Y-110380000D02*
X139653641Y-110380000D01*
%TO.C,U7*%
X157000000Y-123440000D02*
X153550000Y-123440000D01*
X157000000Y-123440000D02*
X158950000Y-123440000D01*
X157000000Y-128560000D02*
X155050000Y-128560000D01*
X157000000Y-128560000D02*
X158950000Y-128560000D01*
%TO.C,C31*%
X147240000Y-67007836D02*
X147240000Y-66792164D01*
X147960000Y-67007836D02*
X147960000Y-66792164D01*
%TO.C,J4*%
X130870000Y-121810000D02*
X129600000Y-121810000D01*
X130870000Y-120540000D02*
X130870000Y-121810000D01*
X128557071Y-118380000D02*
X128160000Y-118380000D01*
X128557071Y-117620000D02*
X128160000Y-117620000D01*
X128490000Y-120920000D02*
X128160000Y-120920000D01*
X128490000Y-120160000D02*
X128160000Y-120160000D01*
X128160000Y-121870000D02*
X128160000Y-116670000D01*
X128160000Y-119270000D02*
X125500000Y-119270000D01*
X128160000Y-116670000D02*
X125500000Y-116670000D01*
X125500000Y-121870000D02*
X128160000Y-121870000D01*
X125500000Y-116670000D02*
X125500000Y-121870000D01*
%TO.C,U6*%
X141890000Y-129360000D02*
X141890000Y-128885000D01*
X142365000Y-125140000D02*
X141890000Y-125140000D01*
X142365000Y-129360000D02*
X141890000Y-129360000D01*
X145635000Y-125140000D02*
X146110000Y-125140000D01*
X145635000Y-129360000D02*
X146110000Y-129360000D01*
X146110000Y-125140000D02*
X146110000Y-125615000D01*
X146110000Y-129360000D02*
X146110000Y-128885000D01*
%TO.C,D1*%
X161840000Y-72640000D02*
X161840000Y-75360000D01*
X161840000Y-72640000D02*
X166900000Y-72640000D01*
X161840000Y-75360000D02*
X166900000Y-75360000D01*
%TO.C,C8*%
X139607836Y-107360000D02*
X139392164Y-107360000D01*
X139607836Y-106640000D02*
X139392164Y-106640000D01*
D10*
%TO.C,U3*%
X130749999Y-91025000D02*
X130749999Y-91275000D01*
X130500000Y-91025000D02*
X130749999Y-91025000D01*
X126200001Y-91025000D02*
X126450000Y-91025000D01*
X126200001Y-91025000D02*
X126200001Y-91275000D01*
X130749999Y-94925000D02*
X130749999Y-95175000D01*
X126200001Y-94925000D02*
X126200001Y-95175000D01*
X130500000Y-95175000D02*
X130749999Y-95175000D01*
X126200001Y-95175000D02*
X126450000Y-95175000D01*
D15*
X129750001Y-90700000D02*
G75*
G03*
X129750001Y-90700000I-125001J0D01*
G01*
D12*
%TO.C,C17*%
X128961252Y-87985000D02*
X128438748Y-87985000D01*
X128961252Y-86515000D02*
X128438748Y-86515000D01*
%TO.C,C29*%
X160659420Y-121790000D02*
X160940580Y-121790000D01*
X160659420Y-122810000D02*
X160940580Y-122810000D01*
D11*
%TO.C,U1*%
X152810000Y-69150000D02*
X150810000Y-69150000D01*
X150810000Y-69150000D02*
X150810000Y-66150000D01*
X150810000Y-66150000D02*
X152810000Y-66150000D01*
X152810000Y-66150000D02*
X152810000Y-69150000D01*
D15*
X153435000Y-69350000D02*
G75*
G03*
X153435000Y-69350000I-125000J0D01*
G01*
D12*
%TO.C,D2*%
X161840000Y-77640000D02*
X161840000Y-80360000D01*
X161840000Y-77640000D02*
X166900000Y-77640000D01*
X161840000Y-80360000D02*
X166900000Y-80360000D01*
%TO.C,C11*%
X151592164Y-109340000D02*
X151807836Y-109340000D01*
X151592164Y-110060000D02*
X151807836Y-110060000D01*
%TO.C,C6*%
X142660000Y-116217164D02*
X142660000Y-116432836D01*
X141940000Y-116217164D02*
X141940000Y-116432836D01*
%TD*%
%LPC*%
D16*
X176287500Y-140500000D02*
G75*
G03*
X176287500Y-140500000I-1787500J0D01*
G01*
X176287500Y-65500000D02*
G75*
G03*
X176287500Y-65500000I-1787500J0D01*
G01*
X126287500Y-65500000D02*
G75*
G03*
X126287500Y-65500000I-1787500J0D01*
G01*
X126287500Y-130500000D02*
G75*
G03*
X126287500Y-130500000I-1787500J0D01*
G01*
%TO.C,U3*%
G36*
X130625001Y-92540001D02*
G01*
X130625001Y-92660001D01*
X130525001Y-92760001D01*
X130024999Y-92760001D01*
X129924999Y-92660001D01*
X129924999Y-92540001D01*
X130024999Y-92439999D01*
X130525001Y-92439999D01*
X130625001Y-92540001D01*
G37*
G36*
X130625001Y-93040000D02*
G01*
X130625001Y-93160000D01*
X130525001Y-93260000D01*
X130024999Y-93260000D01*
X129924999Y-93160000D01*
X129924999Y-93040000D01*
X130024999Y-92940000D01*
X130525001Y-92940000D01*
X130625001Y-93040000D01*
G37*
G36*
X130625001Y-93539999D02*
G01*
X130625001Y-93659999D01*
X130525001Y-93760001D01*
X130024999Y-93760001D01*
X129924999Y-93659999D01*
X129924999Y-93539999D01*
X130024999Y-93439999D01*
X130525001Y-93439999D01*
X130625001Y-93539999D01*
G37*
G36*
X129499999Y-91300001D02*
G01*
X129499999Y-91600000D01*
X129549999Y-91650000D01*
X129699999Y-91650000D01*
X129750001Y-91600000D01*
X129750001Y-91300001D01*
X129800001Y-91250001D01*
X129950001Y-91250001D01*
X130000001Y-91300001D01*
X130000001Y-91600000D01*
X130050000Y-91650000D01*
X130174999Y-91650000D01*
X130224999Y-91700000D01*
X130224999Y-92175001D01*
X130174999Y-92225000D01*
X129967999Y-92225000D01*
X129932000Y-92239999D01*
X129585000Y-92587001D01*
X129569999Y-92623001D01*
X129569999Y-92710001D01*
X129519999Y-92760003D01*
X129200000Y-92760001D01*
X129150000Y-92710001D01*
X129150000Y-91700000D01*
X129200000Y-91650000D01*
X129250000Y-91600000D01*
X129250000Y-91300001D01*
X129299999Y-91250001D01*
X129449999Y-91250001D01*
X129499999Y-91300001D01*
G37*
G36*
X129569999Y-93489999D02*
G01*
X129569999Y-93576999D01*
X129585000Y-93612999D01*
X129932000Y-93960001D01*
X129967999Y-93975000D01*
X130174999Y-93975000D01*
X130224999Y-94024999D01*
X130224999Y-94500000D01*
X130174999Y-94550000D01*
X130050000Y-94550000D01*
X130000001Y-94600000D01*
X130000001Y-94899999D01*
X129950001Y-94949999D01*
X129800001Y-94949999D01*
X129750001Y-94899999D01*
X129750001Y-94600000D01*
X129699999Y-94550000D01*
X129549999Y-94550000D01*
X129499999Y-94600000D01*
X129499999Y-94899999D01*
X129449999Y-94949999D01*
X129299999Y-94949999D01*
X129250000Y-94899999D01*
X129250000Y-94600000D01*
X129200000Y-94550000D01*
X129150000Y-94500000D01*
X129150000Y-93489999D01*
X129200000Y-93439999D01*
X129519999Y-93439997D01*
X129569999Y-93489999D01*
G37*
G36*
X128584997Y-91300001D02*
G01*
X128585000Y-91600000D01*
X128634999Y-91650000D01*
X128750001Y-91650000D01*
X128799998Y-91700000D01*
X128800000Y-92599998D01*
X128750001Y-92650001D01*
X126650002Y-92650001D01*
X126600000Y-92600001D01*
X126600000Y-91700000D01*
X126650002Y-91650000D01*
X126785001Y-91650000D01*
X126835001Y-91600000D01*
X126835001Y-91300001D01*
X126885000Y-91250001D01*
X127035000Y-91250001D01*
X127085000Y-91300001D01*
X127085000Y-91600000D01*
X127135000Y-91650000D01*
X127285000Y-91650000D01*
X127335000Y-91600000D01*
X127335000Y-91300001D01*
X127384999Y-91250001D01*
X127534999Y-91250001D01*
X127585002Y-91300001D01*
X127585002Y-91600000D01*
X127634999Y-91650000D01*
X127785001Y-91650000D01*
X127835001Y-91600000D01*
X127835001Y-91300001D01*
X127885001Y-91250001D01*
X128035001Y-91250001D01*
X128085001Y-91300001D01*
X128085001Y-91600000D01*
X128135003Y-91650000D01*
X128285000Y-91650000D01*
X128335003Y-91600000D01*
X128335000Y-91300001D01*
X128384997Y-91250001D01*
X128535000Y-91249999D01*
X128584997Y-91300001D01*
G37*
G36*
X128800000Y-93600002D02*
G01*
X128799998Y-94499997D01*
X128750001Y-94550000D01*
X128634999Y-94550000D01*
X128585000Y-94600000D01*
X128584997Y-94899999D01*
X128535000Y-94950001D01*
X128384997Y-94949999D01*
X128335000Y-94899999D01*
X128335005Y-94600000D01*
X128285000Y-94550000D01*
X128135003Y-94550000D01*
X128085001Y-94600000D01*
X128085001Y-94899999D01*
X128035001Y-94949999D01*
X127885001Y-94949999D01*
X127835001Y-94899999D01*
X127835001Y-94600000D01*
X127784999Y-94550000D01*
X127635001Y-94550000D01*
X127584999Y-94600000D01*
X127585002Y-94899999D01*
X127534999Y-94949999D01*
X127384999Y-94949999D01*
X127335000Y-94899999D01*
X127335000Y-94600000D01*
X127285000Y-94550000D01*
X127135000Y-94550000D01*
X127085000Y-94600000D01*
X127085000Y-94899999D01*
X127035000Y-94949999D01*
X126885000Y-94949999D01*
X126835001Y-94900001D01*
X126835001Y-94600000D01*
X126785001Y-94550000D01*
X126650002Y-94550000D01*
X126600000Y-94500000D01*
X126600000Y-93599996D01*
X126650002Y-93549999D01*
X128750001Y-93549999D01*
X128800000Y-93600002D01*
G37*
%TD*%
D17*
%TO.C,C25*%
X144600000Y-123880000D03*
X144600000Y-122920000D03*
%TD*%
D18*
%TO.C,C14*%
X156260000Y-66650000D03*
X155300000Y-66650000D03*
%TD*%
D19*
%TO.C,C33*%
X127750000Y-97450000D03*
X129650000Y-97450000D03*
%TD*%
D18*
%TO.C,C18*%
X129380000Y-89250000D03*
X128420000Y-89250000D03*
%TD*%
D20*
%TO.C,U2*%
X142900000Y-114437500D03*
X143300000Y-114437500D03*
X143700000Y-114437500D03*
X144100000Y-114437500D03*
X144500000Y-114437500D03*
X144900000Y-114437500D03*
X145300000Y-114437500D03*
X145700000Y-114437500D03*
X146100000Y-114437500D03*
X146500000Y-114437500D03*
X146900000Y-114437500D03*
X147300000Y-114437500D03*
X147700000Y-114437500D03*
X148100000Y-114437500D03*
D21*
X148937500Y-113600000D03*
X148937500Y-113200000D03*
X148937500Y-112800000D03*
X148937500Y-112400000D03*
X148937500Y-112000000D03*
X148937500Y-111600000D03*
X148937500Y-111200000D03*
X148937500Y-110800000D03*
X148937500Y-110400000D03*
X148937500Y-110000000D03*
X148937500Y-109600000D03*
X148937500Y-109200000D03*
X148937500Y-108800000D03*
X148937500Y-108400000D03*
D20*
X148100000Y-107562500D03*
X147700000Y-107562500D03*
X147300000Y-107562500D03*
X146900000Y-107562500D03*
X146500000Y-107562500D03*
X146100000Y-107562500D03*
X145700000Y-107562500D03*
X145300000Y-107562500D03*
X144900000Y-107562500D03*
X144500000Y-107562500D03*
X144100000Y-107562500D03*
X143700000Y-107562500D03*
X143300000Y-107562500D03*
X142900000Y-107562500D03*
D21*
X142062500Y-108400000D03*
X142062500Y-108800000D03*
X142062500Y-109200000D03*
X142062500Y-109600000D03*
X142062500Y-110000000D03*
X142062500Y-110400000D03*
X142062500Y-110800000D03*
X142062500Y-111200000D03*
X142062500Y-111600000D03*
X142062500Y-112000000D03*
X142062500Y-112400000D03*
X142062500Y-112800000D03*
X142062500Y-113200000D03*
X142062500Y-113600000D03*
D22*
X145500000Y-111000000D03*
%TD*%
D23*
%TO.C,C15*%
X133850000Y-84200000D03*
X131950000Y-84200000D03*
%TD*%
D18*
%TO.C,C7*%
X139180000Y-111000000D03*
X138220000Y-111000000D03*
%TD*%
D17*
%TO.C,C3*%
X146325000Y-105105000D03*
X146325000Y-104145000D03*
%TD*%
D24*
%TO.C,R27*%
X154400000Y-110210000D03*
X154400000Y-109190000D03*
%TD*%
D25*
%TO.C,C19*%
X132400000Y-116725000D03*
X132400000Y-118275000D03*
%TD*%
D26*
%TO.C,U4*%
X134295000Y-124200000D03*
X135565000Y-124200000D03*
X136835000Y-124200000D03*
X138105000Y-124200000D03*
X138105000Y-117000000D03*
X136835000Y-117000000D03*
X135565000Y-117000000D03*
X134295000Y-117000000D03*
%TD*%
D24*
%TO.C,R35*%
X132300000Y-91560000D03*
X132300000Y-90540000D03*
%TD*%
D17*
%TO.C,C32*%
X133500000Y-94130000D03*
X133500000Y-93170000D03*
%TD*%
%TO.C,C1*%
X141200000Y-105080000D03*
X141200000Y-104120000D03*
%TD*%
D27*
%TO.C,C27*%
X152095000Y-125275000D03*
X152095000Y-123725000D03*
%TD*%
D28*
%TO.C,R15*%
X155190000Y-67700000D03*
X156210000Y-67700000D03*
%TD*%
D29*
%TO.C,R31*%
X148825000Y-123800000D03*
X147175000Y-123800000D03*
%TD*%
D24*
%TO.C,R14*%
X154200000Y-68710000D03*
X154200000Y-67690000D03*
%TD*%
D30*
%TO.C,C23*%
X153000000Y-86450000D03*
X153000000Y-84550000D03*
%TD*%
D31*
%TO.C,J1*%
X132300000Y-80500000D03*
D32*
X129760000Y-80500000D03*
X132300000Y-77960000D03*
X129760000Y-77960000D03*
X132300000Y-75420000D03*
X129760000Y-75420000D03*
%TD*%
D33*
%TO.C,U5*%
X155300000Y-88950000D03*
X153000000Y-88950000D03*
D34*
X153000000Y-95250000D03*
D33*
X150700000Y-88950000D03*
%TD*%
D18*
%TO.C,C20*%
X157480000Y-113500000D03*
X156520000Y-113500000D03*
%TD*%
D35*
%TO.C,D3*%
X162800000Y-84000000D03*
X167200000Y-84000000D03*
%TD*%
D18*
%TO.C,C10*%
X139180000Y-112000000D03*
X138220000Y-112000000D03*
%TD*%
D36*
%TO.C,R13*%
X156310000Y-65600000D03*
X155290000Y-65600000D03*
%TD*%
D17*
%TO.C,C2*%
X142200000Y-105080000D03*
X142200000Y-104120000D03*
%TD*%
D37*
%TO.C,R24*%
X130375000Y-125600000D03*
X132025000Y-125600000D03*
%TD*%
D24*
%TO.C,R34*%
X132300000Y-94160000D03*
X132300000Y-93140000D03*
%TD*%
D38*
%TO.C,J3*%
X124600000Y-107000000D03*
X124600000Y-112000000D03*
D39*
X125700000Y-108200000D03*
X125700000Y-108850000D03*
X125700000Y-109500000D03*
X125700000Y-110150000D03*
X125700000Y-110800000D03*
D40*
X121850000Y-105625000D03*
D41*
X125650000Y-105775000D03*
X125650000Y-113225000D03*
D40*
X121850000Y-113375000D03*
%TD*%
D42*
%TO.C,C4*%
X151220000Y-110700000D03*
X152180000Y-110700000D03*
%TD*%
D36*
%TO.C,R21*%
X149710000Y-67300000D03*
X148690000Y-67300000D03*
%TD*%
D29*
%TO.C,R20*%
X155225000Y-122300000D03*
X153575000Y-122300000D03*
%TD*%
D43*
%TO.C,Y1*%
X157850000Y-111800000D03*
X157850000Y-109600000D03*
X156150000Y-109600000D03*
X156150000Y-111800000D03*
%TD*%
D44*
%TO.C,R32*%
X135300000Y-90540000D03*
X135300000Y-91560000D03*
%TD*%
%TO.C,R33*%
X135300000Y-93140000D03*
X135300000Y-94160000D03*
%TD*%
D42*
%TO.C,C21*%
X156520000Y-107900000D03*
X157480000Y-107900000D03*
%TD*%
D30*
%TO.C,C22*%
X150700000Y-86450000D03*
X150700000Y-84550000D03*
%TD*%
D28*
%TO.C,R5*%
X138990000Y-109000000D03*
X140010000Y-109000000D03*
%TD*%
D45*
%TO.C,L1*%
X143300000Y-70200000D03*
X143300000Y-80100000D03*
%TD*%
D17*
%TO.C,C30*%
X148800000Y-65980000D03*
X148800000Y-65020000D03*
%TD*%
D35*
%TO.C,D4*%
X122200000Y-101505000D03*
X126600000Y-101505000D03*
%TD*%
D46*
%TO.C,C13*%
X153325000Y-71650000D03*
X156275000Y-71650000D03*
%TD*%
D24*
%TO.C,R16*%
X154200000Y-65710000D03*
X154200000Y-64690000D03*
%TD*%
D47*
%TO.C,R18*%
X122800000Y-89225000D03*
X122800000Y-87575000D03*
%TD*%
D48*
%TO.C,C12*%
X153775000Y-80150000D03*
X150825000Y-80150000D03*
%TD*%
D29*
%TO.C,R19*%
X158425000Y-122300000D03*
X156775000Y-122300000D03*
%TD*%
D49*
%TO.C,C5*%
X147200000Y-116820000D03*
X147200000Y-117780000D03*
%TD*%
D29*
%TO.C,R25*%
X132025000Y-124000000D03*
X130375000Y-124000000D03*
%TD*%
D50*
%TO.C,C28*%
X160175000Y-129800000D03*
X158625000Y-129800000D03*
%TD*%
D49*
%TO.C,C16*%
X150000000Y-65020000D03*
X150000000Y-65980000D03*
%TD*%
D18*
%TO.C,C9*%
X139980000Y-108000000D03*
X139020000Y-108000000D03*
%TD*%
D28*
%TO.C,R4*%
X138990000Y-110000000D03*
X140010000Y-110000000D03*
%TD*%
D51*
%TO.C,U7*%
X154525000Y-124095000D03*
X154525000Y-125365000D03*
X154525000Y-126635000D03*
X154525000Y-127905000D03*
X159475000Y-127905000D03*
X159475000Y-126635000D03*
X159475000Y-125365000D03*
X159475000Y-124095000D03*
%TD*%
D17*
%TO.C,C31*%
X147600000Y-67380000D03*
X147600000Y-66420000D03*
%TD*%
D31*
%TO.C,J4*%
X129600000Y-120540000D03*
D32*
X129600000Y-118000000D03*
%TD*%
D52*
%TO.C,U6*%
X142062500Y-126000000D03*
X142062500Y-126500000D03*
X142062500Y-127000000D03*
X142062500Y-127500000D03*
X142062500Y-128000000D03*
X142062500Y-128500000D03*
D53*
X142750000Y-129187500D03*
X143250000Y-129187500D03*
X143750000Y-129187500D03*
X144250000Y-129187500D03*
X144750000Y-129187500D03*
X145250000Y-129187500D03*
D52*
X145937500Y-128500000D03*
X145937500Y-128000000D03*
X145937500Y-127500000D03*
X145937500Y-127000000D03*
X145937500Y-126500000D03*
X145937500Y-126000000D03*
D53*
X145250000Y-125312500D03*
X144750000Y-125312500D03*
X144250000Y-125312500D03*
X143750000Y-125312500D03*
X143250000Y-125312500D03*
X142750000Y-125312500D03*
%TD*%
D35*
%TO.C,D1*%
X162800000Y-74000000D03*
X167200000Y-74000000D03*
%TD*%
D18*
%TO.C,C8*%
X139980000Y-107000000D03*
X139020000Y-107000000D03*
%TD*%
D54*
%TO.C,U3*%
X128209999Y-91450001D03*
X127710000Y-91450001D03*
X127210001Y-91450001D03*
X128209999Y-94749999D03*
X127710000Y-94749999D03*
X127210001Y-94749999D03*
X128209999Y-92449999D03*
X127710000Y-92449999D03*
X127210001Y-92449999D03*
X128209999Y-93750001D03*
X127710000Y-93750001D03*
X127210001Y-93750001D03*
%TD*%
D23*
%TO.C,C17*%
X129650000Y-87250000D03*
X127750000Y-87250000D03*
%TD*%
D55*
%TO.C,C29*%
X160025000Y-122300000D03*
X161575000Y-122300000D03*
%TD*%
D56*
%TO.C,U1*%
X152800000Y-68650000D03*
X152800000Y-68150000D03*
X152800000Y-67650000D03*
X152800000Y-67150000D03*
X152800000Y-66650000D03*
X150820000Y-66650000D03*
X150820000Y-67150000D03*
X150820000Y-67650000D03*
D57*
X151810000Y-67650000D03*
D56*
X150820000Y-68150000D03*
X150820000Y-68650000D03*
%TD*%
D35*
%TO.C,D2*%
X162800000Y-79000000D03*
X167200000Y-79000000D03*
%TD*%
D42*
%TO.C,C11*%
X151220000Y-109700000D03*
X152180000Y-109700000D03*
%TD*%
D49*
%TO.C,C6*%
X142300000Y-115845000D03*
X142300000Y-116805000D03*
%TD*%
D31*
%TO.C,J2*%
X176275000Y-92775000D03*
D32*
X176275000Y-90235000D03*
X173735000Y-92775000D03*
X173735000Y-90235000D03*
%TD*%
D58*
%TO.C,J5*%
X176500000Y-74000000D03*
X173400000Y-74000000D03*
D41*
X176500000Y-76500000D03*
X173400000Y-76500000D03*
X176500000Y-79000000D03*
X173400000Y-79000000D03*
X176500000Y-81500000D03*
X173400000Y-81500000D03*
X176500000Y-84000000D03*
X173400000Y-84000000D03*
X176500000Y-86500000D03*
X173400000Y-86500000D03*
%TD*%
D31*
%TO.C,J6*%
X176250000Y-97420000D03*
D32*
X173710000Y-97420000D03*
X176250000Y-99960000D03*
X173710000Y-99960000D03*
X176250000Y-102500000D03*
X173710000Y-102500000D03*
X176250000Y-105040000D03*
X173710000Y-105040000D03*
X176250000Y-107580000D03*
X173710000Y-107580000D03*
X176250000Y-110120000D03*
X173710000Y-110120000D03*
X176250000Y-112660000D03*
X173710000Y-112660000D03*
X176250000Y-115200000D03*
X173710000Y-115200000D03*
X176250000Y-117740000D03*
X173710000Y-117740000D03*
X176250000Y-120280000D03*
X173710000Y-120280000D03*
X176250000Y-122820000D03*
X173710000Y-122820000D03*
%TD*%
%LPD*%
M02*
