%TF.GenerationSoftware,KiCad,Pcbnew,7.0.9*%
%TF.CreationDate,2025-04-01T16:19:53-06:00*%
%TF.ProjectId,Power_Supply_Brain,506f7765-725f-4537-9570-706c795f4272,rev?*%
%TF.SameCoordinates,Original*%
%TF.FileFunction,Drillmap*%
%TF.FilePolarity,Positive*%
%FSLAX45Y45*%
G04 Gerber Fmt 4.5, Leading zero omitted, Abs format (unit mm)*
G04 Created by KiCad (PCBNEW 7.0.9) date 2025-04-01 16:19:53*
%MOMM*%
%LPD*%
G01*
G04 APERTURE LIST*
%ADD10C,0.100000*%
%ADD11C,0.200000*%
%ADD12C,0.120000*%
%ADD13C,0.140000*%
G04 APERTURE END LIST*
D10*
X17450000Y-14500000D02*
G75*
G03*
X17900000Y-14050000I0J450000D01*
G01*
X17900000Y-6550000D02*
G75*
G03*
X17450000Y-6100000I-450000J0D01*
G01*
X12450000Y-6100000D02*
G75*
G03*
X12000000Y-6550000I0J-450000D01*
G01*
X12610000Y-6550000D02*
G75*
G03*
X12610000Y-6550000I-160000J0D01*
G01*
X17900000Y-14050000D02*
X17900000Y-6550000D01*
X17610000Y-6550000D02*
G75*
G03*
X17610000Y-6550000I-160000J0D01*
G01*
X13000000Y-14050000D02*
G75*
G03*
X13450000Y-14500000I450000J0D01*
G01*
X17610000Y-14050000D02*
G75*
G03*
X17610000Y-14050000I-160000J0D01*
G01*
X12000000Y-13050000D02*
X12000000Y-6550000D01*
X12450000Y-13500000D02*
X12550000Y-13500000D01*
X13000000Y-14050000D02*
X13000000Y-13950000D01*
X13450000Y-14500000D02*
X17450000Y-14500000D01*
X12610000Y-13050000D02*
G75*
G03*
X12610000Y-13050000I-160000J0D01*
G01*
X13000000Y-13950000D02*
G75*
G03*
X12550000Y-13500000I-450000J0D01*
G01*
X12450000Y-6100000D02*
X17450000Y-6100000D01*
X12000000Y-13050000D02*
G75*
G03*
X12450000Y-13500000I450000J0D01*
G01*
D11*
D10*
X14405000Y-10955000D02*
X14425000Y-10975000D01*
X14425000Y-10955000D02*
X14405000Y-10975000D01*
X14405000Y-11225000D02*
X14425000Y-11245000D01*
X14425000Y-11225000D02*
X14405000Y-11245000D01*
X14675000Y-10955000D02*
X14695000Y-10975000D01*
X14695000Y-10955000D02*
X14675000Y-10975000D01*
X14675000Y-11225000D02*
X14695000Y-11245000D01*
X14695000Y-11225000D02*
X14675000Y-11245000D01*
X12731160Y-9145000D02*
G75*
G03*
X12731160Y-9145000I-10160J0D01*
G01*
X12731160Y-9245000D02*
G75*
G03*
X12731160Y-9245000I-10160J0D01*
G01*
X12731160Y-9375000D02*
G75*
G03*
X12731160Y-9375000I-10160J0D01*
G01*
X12731160Y-9475000D02*
G75*
G03*
X12731160Y-9475000I-10160J0D01*
G01*
X12781160Y-9145000D02*
G75*
G03*
X12781160Y-9145000I-10160J0D01*
G01*
X12781160Y-9245000D02*
G75*
G03*
X12781160Y-9245000I-10160J0D01*
G01*
X12781160Y-9375000D02*
G75*
G03*
X12781160Y-9375000I-10160J0D01*
G01*
X12781160Y-9475000D02*
G75*
G03*
X12781160Y-9475000I-10160J0D01*
G01*
X12831160Y-9145000D02*
G75*
G03*
X12831160Y-9145000I-10160J0D01*
G01*
X12831160Y-9245000D02*
G75*
G03*
X12831160Y-9245000I-10160J0D01*
G01*
X12831160Y-9375000D02*
G75*
G03*
X12831160Y-9375000I-10160J0D01*
G01*
X12831160Y-9475000D02*
G75*
G03*
X12831160Y-9475000I-10160J0D01*
G01*
X15180000Y-6685000D02*
X15180000Y-6715000D01*
X15165000Y-6700000D02*
X15195000Y-6700000D01*
X15180000Y-6815000D02*
X15180000Y-6845000D01*
X15165000Y-6830000D02*
X15195000Y-6830000D01*
X15180000Y-6925000D02*
X15180000Y-6955000D01*
X15165000Y-6940000D02*
X15195000Y-6940000D01*
X12292374Y-8632375D02*
X12292374Y-8607626D01*
X12267625Y-8607626D01*
X12267625Y-8632375D01*
X12292374Y-8632375D01*
X12562374Y-8617375D02*
X12562374Y-8592626D01*
X12537625Y-8592626D01*
X12537625Y-8617375D01*
X12562374Y-8617375D01*
X12712374Y-11092375D02*
X12712374Y-11067626D01*
X12687625Y-11067626D01*
X12687625Y-11092375D01*
X12712374Y-11092375D01*
X12852374Y-9597375D02*
X12852374Y-9572626D01*
X12827625Y-9572626D01*
X12827625Y-9597375D01*
X12852374Y-9597375D01*
X12868380Y-7968430D02*
X12868380Y-7943681D01*
X12843631Y-7943681D01*
X12843631Y-7968430D01*
X12868380Y-7968430D01*
X13082374Y-12692374D02*
X13082374Y-12667625D01*
X13057625Y-12667625D01*
X13057625Y-12692374D01*
X13082374Y-12692374D01*
X13142374Y-9337375D02*
X13142374Y-9312626D01*
X13117625Y-9312626D01*
X13117625Y-9337375D01*
X13142374Y-9337375D01*
X13162374Y-10012375D02*
X13162374Y-9987626D01*
X13137625Y-9987626D01*
X13137625Y-10012375D01*
X13162374Y-10012375D01*
X13242374Y-8962375D02*
X13242374Y-8937626D01*
X13217625Y-8937626D01*
X13217625Y-8962375D01*
X13242374Y-8962375D01*
X13252374Y-9542375D02*
X13252374Y-9517626D01*
X13227625Y-9517626D01*
X13227625Y-9542375D01*
X13252374Y-9542375D01*
X13362374Y-10212375D02*
X13362374Y-10187626D01*
X13337625Y-10187626D01*
X13337625Y-10212375D01*
X13362374Y-10212375D01*
X13452374Y-9427375D02*
X13452374Y-9402626D01*
X13427625Y-9402626D01*
X13427625Y-9427375D01*
X13452374Y-9427375D01*
X13472374Y-9247375D02*
X13472374Y-9222626D01*
X13447625Y-9222626D01*
X13447625Y-9247375D01*
X13472374Y-9247375D01*
X13562374Y-10412375D02*
X13562374Y-10387626D01*
X13537625Y-10387626D01*
X13537625Y-10412375D01*
X13562374Y-10412375D01*
X13712374Y-9912375D02*
X13712374Y-9887626D01*
X13687625Y-9887626D01*
X13687625Y-9912375D01*
X13712374Y-9912375D01*
X13721374Y-11119375D02*
X13721374Y-11094626D01*
X13696625Y-11094626D01*
X13696625Y-11119375D01*
X13721374Y-11119375D01*
X13721374Y-11219374D02*
X13721374Y-11194625D01*
X13696625Y-11194625D01*
X13696625Y-11219374D01*
X13721374Y-11219374D01*
X13811374Y-10709375D02*
X13811374Y-10684626D01*
X13786625Y-10684626D01*
X13786625Y-10709375D01*
X13811374Y-10709375D01*
X13811374Y-10809375D02*
X13811374Y-10784626D01*
X13786625Y-10784626D01*
X13786625Y-10809375D01*
X13811374Y-10809375D01*
X13862374Y-10062375D02*
X13862374Y-10037626D01*
X13837625Y-10037626D01*
X13837625Y-10062375D01*
X13862374Y-10062375D01*
X13902424Y-12412374D02*
X13902424Y-12387625D01*
X13877675Y-12387625D01*
X13877675Y-12412374D01*
X13902424Y-12412374D01*
X14012374Y-10212375D02*
X14012374Y-10187626D01*
X13987625Y-10187626D01*
X13987625Y-10212375D01*
X14012374Y-10212375D01*
X14022374Y-10632375D02*
X14022374Y-10607626D01*
X13997625Y-10607626D01*
X13997625Y-10632375D01*
X14022374Y-10632375D01*
X14052374Y-10520375D02*
X14052374Y-10495626D01*
X14027625Y-10495626D01*
X14027625Y-10520375D01*
X14052374Y-10520375D01*
X14092374Y-11072375D02*
X14092374Y-11047626D01*
X14067625Y-11047626D01*
X14067625Y-11072375D01*
X14092374Y-11072375D01*
X14112374Y-12562374D02*
X14112374Y-12537625D01*
X14087625Y-12537625D01*
X14087625Y-12562374D01*
X14112374Y-12562374D01*
X14131374Y-10329375D02*
X14131374Y-10304626D01*
X14106625Y-10304626D01*
X14106625Y-10329375D01*
X14131374Y-10329375D01*
X14132374Y-11732374D02*
X14132374Y-11707625D01*
X14107625Y-11707625D01*
X14107625Y-11732374D01*
X14132374Y-11732374D01*
X14162374Y-11592374D02*
X14162374Y-11567625D01*
X14137625Y-11567625D01*
X14137625Y-11592374D01*
X14162374Y-11592374D01*
X14181374Y-10592375D02*
X14181374Y-10567626D01*
X14156625Y-10567626D01*
X14156625Y-10592375D01*
X14181374Y-10592375D01*
X14231374Y-10329375D02*
X14231374Y-10304626D01*
X14206625Y-10304626D01*
X14206625Y-10329375D01*
X14231374Y-10329375D01*
X14242374Y-11812374D02*
X14242374Y-11787625D01*
X14217625Y-11787625D01*
X14217625Y-11812374D01*
X14242374Y-11812374D01*
X14332374Y-11862374D02*
X14332374Y-11837625D01*
X14307625Y-11837625D01*
X14307625Y-11862374D01*
X14332374Y-11862374D01*
X14401567Y-12351796D02*
X14401567Y-12327047D01*
X14376818Y-12327047D01*
X14376818Y-12351796D01*
X14401567Y-12351796D01*
X14572324Y-11652374D02*
X14572324Y-11627625D01*
X14547575Y-11627625D01*
X14547575Y-11652374D01*
X14572324Y-11652374D01*
X14576319Y-10372375D02*
X14576319Y-10347626D01*
X14551570Y-10347626D01*
X14551570Y-10372375D01*
X14576319Y-10372375D01*
X14576319Y-10524875D02*
X14576319Y-10500126D01*
X14551570Y-10500126D01*
X14551570Y-10524875D01*
X14576319Y-10524875D01*
X14592374Y-12312374D02*
X14592374Y-12287625D01*
X14567625Y-12287625D01*
X14567625Y-12312374D01*
X14592374Y-12312374D01*
X14592374Y-12392374D02*
X14592374Y-12367625D01*
X14567625Y-12367625D01*
X14567625Y-12392374D01*
X14592374Y-12392374D01*
X14702374Y-8032374D02*
X14702374Y-8007625D01*
X14677625Y-8007625D01*
X14677625Y-8032374D01*
X14702374Y-8032374D01*
X14821751Y-11672998D02*
X14821751Y-11648249D01*
X14797002Y-11648249D01*
X14797002Y-11672998D01*
X14821751Y-11672998D01*
X14822374Y-7932374D02*
X14822374Y-7907625D01*
X14797625Y-7907625D01*
X14797625Y-7932374D01*
X14822374Y-7932374D01*
X14822374Y-8132374D02*
X14822374Y-8107625D01*
X14797625Y-8107625D01*
X14797625Y-8132374D01*
X14822374Y-8132374D01*
X14862374Y-11742374D02*
X14862374Y-11717625D01*
X14837625Y-11717625D01*
X14837625Y-11742374D01*
X14862374Y-11742374D01*
X14892374Y-12512374D02*
X14892374Y-12487625D01*
X14867625Y-12487625D01*
X14867625Y-12512374D01*
X14892374Y-12512374D01*
X14942374Y-8032374D02*
X14942374Y-8007625D01*
X14917625Y-8007625D01*
X14917625Y-8032374D01*
X14942374Y-8032374D01*
X15014874Y-10762375D02*
X15014874Y-10737626D01*
X14990125Y-10737626D01*
X14990125Y-10762375D01*
X15014874Y-10762375D01*
X15052374Y-11102375D02*
X15052374Y-11077626D01*
X15027625Y-11077626D01*
X15027625Y-11102375D01*
X15052374Y-11102375D01*
X15092374Y-7752374D02*
X15092374Y-7727625D01*
X15067625Y-7727625D01*
X15067625Y-7752374D01*
X15092374Y-7752374D01*
X15102374Y-8322374D02*
X15102374Y-8297625D01*
X15077625Y-8297625D01*
X15077625Y-8322374D01*
X15102374Y-8322374D01*
X15152374Y-11329824D02*
X15152374Y-11305075D01*
X15127625Y-11305075D01*
X15127625Y-11329824D01*
X15152374Y-11329824D01*
X15192374Y-6622374D02*
X15192374Y-6597625D01*
X15167625Y-6597625D01*
X15167625Y-6622374D01*
X15192374Y-6622374D01*
X15192374Y-12252374D02*
X15192374Y-12227625D01*
X15167625Y-12227625D01*
X15167625Y-12252374D01*
X15192374Y-12252374D01*
X15277374Y-12777374D02*
X15277374Y-12752625D01*
X15252625Y-12752625D01*
X15252625Y-12777374D01*
X15277374Y-12777374D01*
X15312374Y-10982375D02*
X15312374Y-10957626D01*
X15287625Y-10957626D01*
X15287625Y-10982375D01*
X15312374Y-10982375D01*
X15312374Y-11082375D02*
X15312374Y-11057626D01*
X15287625Y-11057626D01*
X15287625Y-11082375D01*
X15312374Y-11082375D01*
X15322374Y-8312374D02*
X15322374Y-8287625D01*
X15297625Y-8287625D01*
X15297625Y-8312374D01*
X15322374Y-8312374D01*
X15402374Y-7752374D02*
X15402374Y-7727625D01*
X15377625Y-7727625D01*
X15377625Y-7752374D01*
X15402374Y-7752374D01*
X15512374Y-6462374D02*
X15512374Y-6437625D01*
X15487625Y-6437625D01*
X15487625Y-6462374D01*
X15512374Y-6462374D01*
X15522374Y-8012374D02*
X15522374Y-7987625D01*
X15497625Y-7987625D01*
X15497625Y-8012374D01*
X15522374Y-8012374D01*
X15542374Y-8672375D02*
X15542374Y-8647626D01*
X15517625Y-8647626D01*
X15517625Y-8672375D01*
X15542374Y-8672375D01*
X15644374Y-6492374D02*
X15644374Y-6467625D01*
X15619625Y-6467625D01*
X15619625Y-6492374D01*
X15644374Y-6492374D01*
X15652374Y-12412374D02*
X15652374Y-12387625D01*
X15627625Y-12387625D01*
X15627625Y-12412374D01*
X15652374Y-12412374D01*
X15782374Y-6692374D02*
X15782374Y-6667625D01*
X15757625Y-6667625D01*
X15757625Y-6692374D01*
X15782374Y-6692374D01*
X15782374Y-8912375D02*
X15782374Y-8887626D01*
X15757625Y-8887626D01*
X15757625Y-8912375D01*
X15782374Y-8912375D01*
X15792374Y-6792374D02*
X15792374Y-6767625D01*
X15767625Y-6767625D01*
X15767625Y-6792374D01*
X15792374Y-6792374D01*
X15812374Y-12097374D02*
X15812374Y-12072625D01*
X15787625Y-12072625D01*
X15787625Y-12097374D01*
X15812374Y-12097374D01*
X16012374Y-12097374D02*
X16012374Y-12072625D01*
X15987625Y-12072625D01*
X15987625Y-12097374D01*
X16012374Y-12097374D01*
X16147374Y-12992374D02*
X16147374Y-12967625D01*
X16122625Y-12967625D01*
X16122625Y-12992374D01*
X16147374Y-12992374D01*
X16172374Y-12367374D02*
X16172374Y-12342625D01*
X16147625Y-12342625D01*
X16147625Y-12367374D01*
X16172374Y-12367374D01*
X16752374Y-10932375D02*
X16752374Y-10907626D01*
X16727625Y-10907626D01*
X16727625Y-10932375D01*
X16752374Y-10932375D01*
X16932375Y-10932375D02*
X16932375Y-10907626D01*
X16907626Y-10907626D01*
X16907626Y-10932375D01*
X16932375Y-10932375D01*
X12150000Y-9970000D02*
X12170000Y-9950000D01*
X12150000Y-9930000D01*
X12130000Y-9950000D01*
X12150000Y-9970000D01*
X12300000Y-9120000D02*
X12320000Y-9100000D01*
X12300000Y-9080000D01*
X12280000Y-9100000D01*
X12300000Y-9120000D01*
X12300000Y-9320000D02*
X12320000Y-9300000D01*
X12300000Y-9280000D01*
X12280000Y-9300000D01*
X12300000Y-9320000D01*
X12300000Y-9520000D02*
X12320000Y-9500000D01*
X12300000Y-9480000D01*
X12280000Y-9500000D01*
X12300000Y-9520000D01*
X12300000Y-9770000D02*
X12320000Y-9750000D01*
X12300000Y-9730000D01*
X12280000Y-9750000D01*
X12300000Y-9770000D01*
X12500000Y-9120000D02*
X12520000Y-9100000D01*
X12500000Y-9080000D01*
X12480000Y-9100000D01*
X12500000Y-9120000D01*
X12500000Y-9320000D02*
X12520000Y-9300000D01*
X12500000Y-9280000D01*
X12480000Y-9300000D01*
X12500000Y-9320000D01*
X12500000Y-9520000D02*
X12520000Y-9500000D01*
X12500000Y-9480000D01*
X12480000Y-9500000D01*
X12500000Y-9520000D01*
X12500000Y-9770000D02*
X12520000Y-9750000D01*
X12500000Y-9730000D01*
X12480000Y-9750000D01*
X12500000Y-9770000D01*
X13030000Y-8440000D02*
X13050000Y-8420000D01*
X13030000Y-8400000D01*
X13010000Y-8420000D01*
X13030000Y-8440000D01*
X13240000Y-11540000D02*
X13260000Y-11520000D01*
X13240000Y-11500000D01*
X13220000Y-11520000D01*
X13240000Y-11540000D01*
X13240000Y-11960000D02*
X13260000Y-11940000D01*
X13240000Y-11920000D01*
X13220000Y-11940000D01*
X13240000Y-11960000D01*
X13380000Y-12804950D02*
X13400000Y-12784950D01*
X13380000Y-12764950D01*
X13360000Y-12784950D01*
X13380000Y-12804950D01*
X13400000Y-13890000D02*
X13420000Y-13870000D01*
X13400000Y-13850000D01*
X13380000Y-13870000D01*
X13400000Y-13890000D01*
X13640000Y-13140000D02*
X13660000Y-13120000D01*
X13640000Y-13100000D01*
X13620000Y-13120000D01*
X13640000Y-13140000D01*
X13640000Y-13380000D02*
X13660000Y-13360000D01*
X13640000Y-13340000D01*
X13620000Y-13360000D01*
X13640000Y-13380000D01*
X13660000Y-12920000D02*
X13680000Y-12900000D01*
X13660000Y-12880000D01*
X13640000Y-12900000D01*
X13660000Y-12920000D01*
X13660000Y-13890000D02*
X13680000Y-13870000D01*
X13660000Y-13850000D01*
X13640000Y-13870000D01*
X13660000Y-13890000D01*
X13800000Y-6460000D02*
X13820000Y-6440000D01*
X13800000Y-6420000D01*
X13780000Y-6440000D01*
X13800000Y-6460000D01*
X13800000Y-6660000D02*
X13820000Y-6640000D01*
X13800000Y-6620000D01*
X13780000Y-6640000D01*
X13800000Y-6660000D01*
X13920000Y-13890000D02*
X13940000Y-13870000D01*
X13920000Y-13850000D01*
X13900000Y-13870000D01*
X13920000Y-13890000D01*
X14000000Y-6460000D02*
X14020000Y-6440000D01*
X14000000Y-6420000D01*
X13980000Y-6440000D01*
X14000000Y-6460000D01*
X14000000Y-6660000D02*
X14020000Y-6640000D01*
X14000000Y-6620000D01*
X13980000Y-6640000D01*
X14000000Y-6660000D01*
X14180000Y-13890000D02*
X14200000Y-13870000D01*
X14180000Y-13850000D01*
X14160000Y-13870000D01*
X14180000Y-13890000D01*
X14200000Y-6460000D02*
X14220000Y-6440000D01*
X14200000Y-6420000D01*
X14180000Y-6440000D01*
X14200000Y-6460000D01*
X14200000Y-6660000D02*
X14220000Y-6640000D01*
X14200000Y-6620000D01*
X14180000Y-6640000D01*
X14200000Y-6660000D01*
X14400000Y-6460000D02*
X14420000Y-6440000D01*
X14400000Y-6420000D01*
X14380000Y-6440000D01*
X14400000Y-6460000D01*
X14400000Y-6660000D02*
X14420000Y-6640000D01*
X14400000Y-6620000D01*
X14380000Y-6640000D01*
X14400000Y-6660000D01*
X14440000Y-13890000D02*
X14460000Y-13870000D01*
X14440000Y-13850000D01*
X14420000Y-13870000D01*
X14440000Y-13890000D01*
X14600000Y-6460000D02*
X14620000Y-6440000D01*
X14600000Y-6420000D01*
X14580000Y-6440000D01*
X14600000Y-6460000D01*
X14600000Y-6660000D02*
X14620000Y-6640000D01*
X14600000Y-6620000D01*
X14580000Y-6640000D01*
X14600000Y-6660000D01*
X14700000Y-13890000D02*
X14720000Y-13870000D01*
X14700000Y-13850000D01*
X14680000Y-13870000D01*
X14700000Y-13890000D01*
X14960000Y-13890000D02*
X14980000Y-13870000D01*
X14960000Y-13850000D01*
X14940000Y-13870000D01*
X14960000Y-13890000D01*
X15040000Y-10550000D02*
X15060000Y-10530000D01*
X15040000Y-10510000D01*
X15020000Y-10530000D01*
X15040000Y-10550000D01*
X15120000Y-10480000D02*
X15140000Y-10460000D01*
X15120000Y-10440000D01*
X15100000Y-10460000D01*
X15120000Y-10480000D01*
X15220000Y-13890000D02*
X15240000Y-13870000D01*
X15220000Y-13850000D01*
X15200000Y-13870000D01*
X15220000Y-13890000D01*
X15480000Y-13890000D02*
X15500000Y-13870000D01*
X15480000Y-13850000D01*
X15460000Y-13870000D01*
X15480000Y-13890000D01*
X15550000Y-11370000D02*
X15570000Y-11350000D01*
X15550000Y-11330000D01*
X15530000Y-11350000D01*
X15550000Y-11370000D01*
X15740000Y-13890000D02*
X15760000Y-13870000D01*
X15740000Y-13850000D01*
X15720000Y-13870000D01*
X15740000Y-13890000D01*
X15870000Y-10810000D02*
X15890000Y-10790000D01*
X15870000Y-10770000D01*
X15850000Y-10790000D01*
X15870000Y-10810000D01*
X16000000Y-13890000D02*
X16020000Y-13870000D01*
X16000000Y-13850000D01*
X15980000Y-13870000D01*
X16000000Y-13890000D01*
X16260000Y-13890000D02*
X16280000Y-13870000D01*
X16260000Y-13850000D01*
X16240000Y-13870000D01*
X16260000Y-13890000D01*
X16350000Y-6970000D02*
X16370000Y-6950000D01*
X16350000Y-6930000D01*
X16330000Y-6950000D01*
X16350000Y-6970000D01*
X16520000Y-13890000D02*
X16540000Y-13870000D01*
X16520000Y-13850000D01*
X16500000Y-13870000D01*
X16520000Y-13890000D01*
X16780000Y-13890000D02*
X16800000Y-13870000D01*
X16780000Y-13850000D01*
X16760000Y-13870000D01*
X16780000Y-13890000D01*
X12910000Y-11750000D02*
X13010000Y-11850000D01*
X13010000Y-11750000D02*
X12910000Y-11850000D01*
X13010000Y-11800000D02*
G75*
G03*
X13010000Y-11800000I-50000J0D01*
G01*
X12910000Y-12004000D02*
X13010000Y-12104000D01*
X13010000Y-12004000D02*
X12910000Y-12104000D01*
X13010000Y-12054000D02*
G75*
G03*
X13010000Y-12054000I-50000J0D01*
G01*
X12926000Y-7492000D02*
X13026000Y-7592000D01*
X13026000Y-7492000D02*
X12926000Y-7592000D01*
X13026000Y-7542000D02*
G75*
G03*
X13026000Y-7542000I-50000J0D01*
G01*
X12926000Y-7746000D02*
X13026000Y-7846000D01*
X13026000Y-7746000D02*
X12926000Y-7846000D01*
X13026000Y-7796000D02*
G75*
G03*
X13026000Y-7796000I-50000J0D01*
G01*
X12926000Y-8000000D02*
X13026000Y-8100000D01*
X13026000Y-8000000D02*
X12926000Y-8100000D01*
X13026000Y-8050000D02*
G75*
G03*
X13026000Y-8050000I-50000J0D01*
G01*
X13180000Y-7492000D02*
X13280000Y-7592000D01*
X13280000Y-7492000D02*
X13180000Y-7592000D01*
X13280000Y-7542000D02*
G75*
G03*
X13280000Y-7542000I-50000J0D01*
G01*
X13180000Y-7746000D02*
X13280000Y-7846000D01*
X13280000Y-7746000D02*
X13180000Y-7846000D01*
X13280000Y-7796000D02*
G75*
G03*
X13280000Y-7796000I-50000J0D01*
G01*
X13180000Y-8000000D02*
X13280000Y-8100000D01*
X13280000Y-8000000D02*
X13180000Y-8100000D01*
X13280000Y-8050000D02*
G75*
G03*
X13280000Y-8050000I-50000J0D01*
G01*
X17321000Y-9692000D02*
X17421000Y-9792000D01*
X17421000Y-9692000D02*
X17321000Y-9792000D01*
X17421000Y-9742000D02*
G75*
G03*
X17421000Y-9742000I-50000J0D01*
G01*
X17321000Y-9946000D02*
X17421000Y-10046000D01*
X17421000Y-9946000D02*
X17321000Y-10046000D01*
X17421000Y-9996000D02*
G75*
G03*
X17421000Y-9996000I-50000J0D01*
G01*
X17321000Y-10200000D02*
X17421000Y-10300000D01*
X17421000Y-10200000D02*
X17321000Y-10300000D01*
X17421000Y-10250000D02*
G75*
G03*
X17421000Y-10250000I-50000J0D01*
G01*
X17321000Y-10454000D02*
X17421000Y-10554000D01*
X17421000Y-10454000D02*
X17321000Y-10554000D01*
X17421000Y-10504000D02*
G75*
G03*
X17421000Y-10504000I-50000J0D01*
G01*
X17321000Y-10708000D02*
X17421000Y-10808000D01*
X17421000Y-10708000D02*
X17321000Y-10808000D01*
X17421000Y-10758000D02*
G75*
G03*
X17421000Y-10758000I-50000J0D01*
G01*
X17321000Y-10962000D02*
X17421000Y-11062000D01*
X17421000Y-10962000D02*
X17321000Y-11062000D01*
X17421000Y-11012000D02*
G75*
G03*
X17421000Y-11012000I-50000J0D01*
G01*
X17321000Y-11216000D02*
X17421000Y-11316000D01*
X17421000Y-11216000D02*
X17321000Y-11316000D01*
X17421000Y-11266000D02*
G75*
G03*
X17421000Y-11266000I-50000J0D01*
G01*
X17321000Y-11470000D02*
X17421000Y-11570000D01*
X17421000Y-11470000D02*
X17321000Y-11570000D01*
X17421000Y-11520000D02*
G75*
G03*
X17421000Y-11520000I-50000J0D01*
G01*
X17321000Y-11724000D02*
X17421000Y-11824000D01*
X17421000Y-11724000D02*
X17321000Y-11824000D01*
X17421000Y-11774000D02*
G75*
G03*
X17421000Y-11774000I-50000J0D01*
G01*
X17321000Y-11978000D02*
X17421000Y-12078000D01*
X17421000Y-11978000D02*
X17321000Y-12078000D01*
X17421000Y-12028000D02*
G75*
G03*
X17421000Y-12028000I-50000J0D01*
G01*
X17321000Y-12232000D02*
X17421000Y-12332000D01*
X17421000Y-12232000D02*
X17321000Y-12332000D01*
X17421000Y-12282000D02*
G75*
G03*
X17421000Y-12282000I-50000J0D01*
G01*
X17323500Y-8973500D02*
X17423500Y-9073500D01*
X17423500Y-8973500D02*
X17323500Y-9073500D01*
X17423500Y-9023500D02*
G75*
G03*
X17423500Y-9023500I-50000J0D01*
G01*
X17323500Y-9227500D02*
X17423500Y-9327500D01*
X17423500Y-9227500D02*
X17323500Y-9327500D01*
X17423500Y-9277500D02*
G75*
G03*
X17423500Y-9277500I-50000J0D01*
G01*
X17575000Y-9692000D02*
X17675000Y-9792000D01*
X17675000Y-9692000D02*
X17575000Y-9792000D01*
X17675000Y-9742000D02*
G75*
G03*
X17675000Y-9742000I-50000J0D01*
G01*
X17575000Y-9946000D02*
X17675000Y-10046000D01*
X17675000Y-9946000D02*
X17575000Y-10046000D01*
X17675000Y-9996000D02*
G75*
G03*
X17675000Y-9996000I-50000J0D01*
G01*
X17575000Y-10200000D02*
X17675000Y-10300000D01*
X17675000Y-10200000D02*
X17575000Y-10300000D01*
X17675000Y-10250000D02*
G75*
G03*
X17675000Y-10250000I-50000J0D01*
G01*
X17575000Y-10454000D02*
X17675000Y-10554000D01*
X17675000Y-10454000D02*
X17575000Y-10554000D01*
X17675000Y-10504000D02*
G75*
G03*
X17675000Y-10504000I-50000J0D01*
G01*
X17575000Y-10708000D02*
X17675000Y-10808000D01*
X17675000Y-10708000D02*
X17575000Y-10808000D01*
X17675000Y-10758000D02*
G75*
G03*
X17675000Y-10758000I-50000J0D01*
G01*
X17575000Y-10962000D02*
X17675000Y-11062000D01*
X17675000Y-10962000D02*
X17575000Y-11062000D01*
X17675000Y-11012000D02*
G75*
G03*
X17675000Y-11012000I-50000J0D01*
G01*
X17575000Y-11216000D02*
X17675000Y-11316000D01*
X17675000Y-11216000D02*
X17575000Y-11316000D01*
X17675000Y-11266000D02*
G75*
G03*
X17675000Y-11266000I-50000J0D01*
G01*
X17575000Y-11470000D02*
X17675000Y-11570000D01*
X17675000Y-11470000D02*
X17575000Y-11570000D01*
X17675000Y-11520000D02*
G75*
G03*
X17675000Y-11520000I-50000J0D01*
G01*
X17575000Y-11724000D02*
X17675000Y-11824000D01*
X17675000Y-11724000D02*
X17575000Y-11824000D01*
X17675000Y-11774000D02*
G75*
G03*
X17675000Y-11774000I-50000J0D01*
G01*
X17575000Y-11978000D02*
X17675000Y-12078000D01*
X17675000Y-11978000D02*
X17575000Y-12078000D01*
X17675000Y-12028000D02*
G75*
G03*
X17675000Y-12028000I-50000J0D01*
G01*
X17575000Y-12232000D02*
X17675000Y-12332000D01*
X17675000Y-12232000D02*
X17575000Y-12332000D01*
X17675000Y-12282000D02*
G75*
G03*
X17675000Y-12282000I-50000J0D01*
G01*
X17577500Y-8973500D02*
X17677500Y-9073500D01*
X17677500Y-8973500D02*
X17577500Y-9073500D01*
X17677500Y-9023500D02*
G75*
G03*
X17677500Y-9023500I-50000J0D01*
G01*
X17577500Y-9227500D02*
X17677500Y-9327500D01*
X17677500Y-9227500D02*
X17577500Y-9327500D01*
X17677500Y-9277500D02*
G75*
G03*
X17677500Y-9277500I-50000J0D01*
G01*
D12*
X12125000Y-10502500D02*
X12245000Y-10622500D01*
X12245000Y-10502500D02*
X12125000Y-10622500D01*
X12185000Y-10502500D02*
X12185000Y-10622500D01*
X12125000Y-10562500D02*
X12245000Y-10562500D01*
X12125000Y-11277500D02*
X12245000Y-11397500D01*
X12245000Y-11277500D02*
X12125000Y-11397500D01*
X12185000Y-11277500D02*
X12185000Y-11397500D01*
X12125000Y-11337500D02*
X12245000Y-11337500D01*
X17280000Y-7340000D02*
X17400000Y-7460000D01*
X17400000Y-7340000D02*
X17280000Y-7460000D01*
X17340000Y-7340000D02*
X17340000Y-7460000D01*
X17280000Y-7400000D02*
X17400000Y-7400000D01*
X17280000Y-7590000D02*
X17400000Y-7710000D01*
X17400000Y-7590000D02*
X17280000Y-7710000D01*
X17340000Y-7590000D02*
X17340000Y-7710000D01*
X17280000Y-7650000D02*
X17400000Y-7650000D01*
X17280000Y-7840000D02*
X17400000Y-7960000D01*
X17400000Y-7840000D02*
X17280000Y-7960000D01*
X17340000Y-7840000D02*
X17340000Y-7960000D01*
X17280000Y-7900000D02*
X17400000Y-7900000D01*
X17280000Y-8090000D02*
X17400000Y-8210000D01*
X17400000Y-8090000D02*
X17280000Y-8210000D01*
X17340000Y-8090000D02*
X17340000Y-8210000D01*
X17280000Y-8150000D02*
X17400000Y-8150000D01*
X17280000Y-8340000D02*
X17400000Y-8460000D01*
X17400000Y-8340000D02*
X17280000Y-8460000D01*
X17340000Y-8340000D02*
X17340000Y-8460000D01*
X17280000Y-8400000D02*
X17400000Y-8400000D01*
X17280000Y-8590000D02*
X17400000Y-8710000D01*
X17400000Y-8590000D02*
X17280000Y-8710000D01*
X17340000Y-8590000D02*
X17340000Y-8710000D01*
X17280000Y-8650000D02*
X17400000Y-8650000D01*
X17590000Y-7340000D02*
X17710000Y-7460000D01*
X17710000Y-7340000D02*
X17590000Y-7460000D01*
X17650000Y-7340000D02*
X17650000Y-7460000D01*
X17590000Y-7400000D02*
X17710000Y-7400000D01*
X17590000Y-7590000D02*
X17710000Y-7710000D01*
X17710000Y-7590000D02*
X17590000Y-7710000D01*
X17650000Y-7590000D02*
X17650000Y-7710000D01*
X17590000Y-7650000D02*
X17710000Y-7650000D01*
X17590000Y-7840000D02*
X17710000Y-7960000D01*
X17710000Y-7840000D02*
X17590000Y-7960000D01*
X17650000Y-7840000D02*
X17650000Y-7960000D01*
X17590000Y-7900000D02*
X17710000Y-7900000D01*
X17590000Y-8090000D02*
X17710000Y-8210000D01*
X17710000Y-8090000D02*
X17590000Y-8210000D01*
X17650000Y-8090000D02*
X17650000Y-8210000D01*
X17590000Y-8150000D02*
X17710000Y-8150000D01*
X17590000Y-8340000D02*
X17710000Y-8460000D01*
X17710000Y-8340000D02*
X17590000Y-8460000D01*
X17650000Y-8340000D02*
X17650000Y-8460000D01*
X17590000Y-8400000D02*
X17710000Y-8400000D01*
X17590000Y-8590000D02*
X17710000Y-8710000D01*
X17710000Y-8590000D02*
X17590000Y-8710000D01*
X17650000Y-8590000D02*
X17650000Y-8710000D01*
X17590000Y-8650000D02*
X17710000Y-8650000D01*
D13*
X12495000Y-10507500D02*
X12635000Y-10647500D01*
X12635000Y-10507500D02*
X12495000Y-10647500D01*
X12614498Y-10626998D02*
X12614498Y-10528002D01*
X12515502Y-10528002D01*
X12515502Y-10626998D01*
X12614498Y-10626998D01*
X12495000Y-11252500D02*
X12635000Y-11392500D01*
X12635000Y-11252500D02*
X12495000Y-11392500D01*
X12614498Y-11371998D02*
X12614498Y-11273002D01*
X12515502Y-11273002D01*
X12515502Y-11371998D01*
X12614498Y-11371998D01*
D11*
X12255777Y-14816484D02*
X12255777Y-14616484D01*
X12255777Y-14616484D02*
X12303396Y-14616484D01*
X12303396Y-14616484D02*
X12331967Y-14626008D01*
X12331967Y-14626008D02*
X12351015Y-14645055D01*
X12351015Y-14645055D02*
X12360539Y-14664103D01*
X12360539Y-14664103D02*
X12370062Y-14702198D01*
X12370062Y-14702198D02*
X12370062Y-14730769D01*
X12370062Y-14730769D02*
X12360539Y-14768865D01*
X12360539Y-14768865D02*
X12351015Y-14787912D01*
X12351015Y-14787912D02*
X12331967Y-14806960D01*
X12331967Y-14806960D02*
X12303396Y-14816484D01*
X12303396Y-14816484D02*
X12255777Y-14816484D01*
X12455777Y-14816484D02*
X12455777Y-14683150D01*
X12455777Y-14721246D02*
X12465301Y-14702198D01*
X12465301Y-14702198D02*
X12474824Y-14692674D01*
X12474824Y-14692674D02*
X12493872Y-14683150D01*
X12493872Y-14683150D02*
X12512920Y-14683150D01*
X12579586Y-14816484D02*
X12579586Y-14683150D01*
X12579586Y-14616484D02*
X12570062Y-14626008D01*
X12570062Y-14626008D02*
X12579586Y-14635531D01*
X12579586Y-14635531D02*
X12589110Y-14626008D01*
X12589110Y-14626008D02*
X12579586Y-14616484D01*
X12579586Y-14616484D02*
X12579586Y-14635531D01*
X12703396Y-14816484D02*
X12684348Y-14806960D01*
X12684348Y-14806960D02*
X12674824Y-14787912D01*
X12674824Y-14787912D02*
X12674824Y-14616484D01*
X12808158Y-14816484D02*
X12789110Y-14806960D01*
X12789110Y-14806960D02*
X12779586Y-14787912D01*
X12779586Y-14787912D02*
X12779586Y-14616484D01*
X13036729Y-14816484D02*
X13036729Y-14616484D01*
X13036729Y-14616484D02*
X13103396Y-14759341D01*
X13103396Y-14759341D02*
X13170062Y-14616484D01*
X13170062Y-14616484D02*
X13170062Y-14816484D01*
X13351015Y-14816484D02*
X13351015Y-14711722D01*
X13351015Y-14711722D02*
X13341491Y-14692674D01*
X13341491Y-14692674D02*
X13322443Y-14683150D01*
X13322443Y-14683150D02*
X13284348Y-14683150D01*
X13284348Y-14683150D02*
X13265301Y-14692674D01*
X13351015Y-14806960D02*
X13331967Y-14816484D01*
X13331967Y-14816484D02*
X13284348Y-14816484D01*
X13284348Y-14816484D02*
X13265301Y-14806960D01*
X13265301Y-14806960D02*
X13255777Y-14787912D01*
X13255777Y-14787912D02*
X13255777Y-14768865D01*
X13255777Y-14768865D02*
X13265301Y-14749817D01*
X13265301Y-14749817D02*
X13284348Y-14740293D01*
X13284348Y-14740293D02*
X13331967Y-14740293D01*
X13331967Y-14740293D02*
X13351015Y-14730769D01*
X13446253Y-14683150D02*
X13446253Y-14883150D01*
X13446253Y-14692674D02*
X13465301Y-14683150D01*
X13465301Y-14683150D02*
X13503396Y-14683150D01*
X13503396Y-14683150D02*
X13522443Y-14692674D01*
X13522443Y-14692674D02*
X13531967Y-14702198D01*
X13531967Y-14702198D02*
X13541491Y-14721246D01*
X13541491Y-14721246D02*
X13541491Y-14778388D01*
X13541491Y-14778388D02*
X13531967Y-14797436D01*
X13531967Y-14797436D02*
X13522443Y-14806960D01*
X13522443Y-14806960D02*
X13503396Y-14816484D01*
X13503396Y-14816484D02*
X13465301Y-14816484D01*
X13465301Y-14816484D02*
X13446253Y-14806960D01*
X13627205Y-14797436D02*
X13636729Y-14806960D01*
X13636729Y-14806960D02*
X13627205Y-14816484D01*
X13627205Y-14816484D02*
X13617682Y-14806960D01*
X13617682Y-14806960D02*
X13627205Y-14797436D01*
X13627205Y-14797436D02*
X13627205Y-14816484D01*
X13627205Y-14692674D02*
X13636729Y-14702198D01*
X13636729Y-14702198D02*
X13627205Y-14711722D01*
X13627205Y-14711722D02*
X13617682Y-14702198D01*
X13617682Y-14702198D02*
X13627205Y-14692674D01*
X13627205Y-14692674D02*
X13627205Y-14711722D01*
D10*
X11975000Y-15135000D02*
X11995000Y-15155000D01*
X11995000Y-15135000D02*
X11975000Y-15155000D01*
D11*
X12293872Y-15036484D02*
X12312920Y-15036484D01*
X12312920Y-15036484D02*
X12331967Y-15046008D01*
X12331967Y-15046008D02*
X12341491Y-15055531D01*
X12341491Y-15055531D02*
X12351015Y-15074579D01*
X12351015Y-15074579D02*
X12360539Y-15112674D01*
X12360539Y-15112674D02*
X12360539Y-15160293D01*
X12360539Y-15160293D02*
X12351015Y-15198388D01*
X12351015Y-15198388D02*
X12341491Y-15217436D01*
X12341491Y-15217436D02*
X12331967Y-15226960D01*
X12331967Y-15226960D02*
X12312920Y-15236484D01*
X12312920Y-15236484D02*
X12293872Y-15236484D01*
X12293872Y-15236484D02*
X12274824Y-15226960D01*
X12274824Y-15226960D02*
X12265301Y-15217436D01*
X12265301Y-15217436D02*
X12255777Y-15198388D01*
X12255777Y-15198388D02*
X12246253Y-15160293D01*
X12246253Y-15160293D02*
X12246253Y-15112674D01*
X12246253Y-15112674D02*
X12255777Y-15074579D01*
X12255777Y-15074579D02*
X12265301Y-15055531D01*
X12265301Y-15055531D02*
X12274824Y-15046008D01*
X12274824Y-15046008D02*
X12293872Y-15036484D01*
X12446253Y-15217436D02*
X12455777Y-15226960D01*
X12455777Y-15226960D02*
X12446253Y-15236484D01*
X12446253Y-15236484D02*
X12436729Y-15226960D01*
X12436729Y-15226960D02*
X12446253Y-15217436D01*
X12446253Y-15217436D02*
X12446253Y-15236484D01*
X12531967Y-15055531D02*
X12541491Y-15046008D01*
X12541491Y-15046008D02*
X12560539Y-15036484D01*
X12560539Y-15036484D02*
X12608158Y-15036484D01*
X12608158Y-15036484D02*
X12627205Y-15046008D01*
X12627205Y-15046008D02*
X12636729Y-15055531D01*
X12636729Y-15055531D02*
X12646253Y-15074579D01*
X12646253Y-15074579D02*
X12646253Y-15093627D01*
X12646253Y-15093627D02*
X12636729Y-15122198D01*
X12636729Y-15122198D02*
X12522443Y-15236484D01*
X12522443Y-15236484D02*
X12646253Y-15236484D01*
X12770062Y-15036484D02*
X12789110Y-15036484D01*
X12789110Y-15036484D02*
X12808158Y-15046008D01*
X12808158Y-15046008D02*
X12817682Y-15055531D01*
X12817682Y-15055531D02*
X12827205Y-15074579D01*
X12827205Y-15074579D02*
X12836729Y-15112674D01*
X12836729Y-15112674D02*
X12836729Y-15160293D01*
X12836729Y-15160293D02*
X12827205Y-15198388D01*
X12827205Y-15198388D02*
X12817682Y-15217436D01*
X12817682Y-15217436D02*
X12808158Y-15226960D01*
X12808158Y-15226960D02*
X12789110Y-15236484D01*
X12789110Y-15236484D02*
X12770062Y-15236484D01*
X12770062Y-15236484D02*
X12751015Y-15226960D01*
X12751015Y-15226960D02*
X12741491Y-15217436D01*
X12741491Y-15217436D02*
X12731967Y-15198388D01*
X12731967Y-15198388D02*
X12722443Y-15160293D01*
X12722443Y-15160293D02*
X12722443Y-15112674D01*
X12722443Y-15112674D02*
X12731967Y-15074579D01*
X12731967Y-15074579D02*
X12741491Y-15055531D01*
X12741491Y-15055531D02*
X12751015Y-15046008D01*
X12751015Y-15046008D02*
X12770062Y-15036484D01*
X12960539Y-15036484D02*
X12979586Y-15036484D01*
X12979586Y-15036484D02*
X12998634Y-15046008D01*
X12998634Y-15046008D02*
X13008158Y-15055531D01*
X13008158Y-15055531D02*
X13017682Y-15074579D01*
X13017682Y-15074579D02*
X13027205Y-15112674D01*
X13027205Y-15112674D02*
X13027205Y-15160293D01*
X13027205Y-15160293D02*
X13017682Y-15198388D01*
X13017682Y-15198388D02*
X13008158Y-15217436D01*
X13008158Y-15217436D02*
X12998634Y-15226960D01*
X12998634Y-15226960D02*
X12979586Y-15236484D01*
X12979586Y-15236484D02*
X12960539Y-15236484D01*
X12960539Y-15236484D02*
X12941491Y-15226960D01*
X12941491Y-15226960D02*
X12931967Y-15217436D01*
X12931967Y-15217436D02*
X12922443Y-15198388D01*
X12922443Y-15198388D02*
X12912920Y-15160293D01*
X12912920Y-15160293D02*
X12912920Y-15112674D01*
X12912920Y-15112674D02*
X12922443Y-15074579D01*
X12922443Y-15074579D02*
X12931967Y-15055531D01*
X12931967Y-15055531D02*
X12941491Y-15046008D01*
X12941491Y-15046008D02*
X12960539Y-15036484D01*
X13112920Y-15236484D02*
X13112920Y-15103150D01*
X13112920Y-15122198D02*
X13122443Y-15112674D01*
X13122443Y-15112674D02*
X13141491Y-15103150D01*
X13141491Y-15103150D02*
X13170063Y-15103150D01*
X13170063Y-15103150D02*
X13189110Y-15112674D01*
X13189110Y-15112674D02*
X13198634Y-15131722D01*
X13198634Y-15131722D02*
X13198634Y-15236484D01*
X13198634Y-15131722D02*
X13208158Y-15112674D01*
X13208158Y-15112674D02*
X13227205Y-15103150D01*
X13227205Y-15103150D02*
X13255777Y-15103150D01*
X13255777Y-15103150D02*
X13274824Y-15112674D01*
X13274824Y-15112674D02*
X13284348Y-15131722D01*
X13284348Y-15131722D02*
X13284348Y-15236484D01*
X13379586Y-15236484D02*
X13379586Y-15103150D01*
X13379586Y-15122198D02*
X13389110Y-15112674D01*
X13389110Y-15112674D02*
X13408158Y-15103150D01*
X13408158Y-15103150D02*
X13436729Y-15103150D01*
X13436729Y-15103150D02*
X13455777Y-15112674D01*
X13455777Y-15112674D02*
X13465301Y-15131722D01*
X13465301Y-15131722D02*
X13465301Y-15236484D01*
X13465301Y-15131722D02*
X13474824Y-15112674D01*
X13474824Y-15112674D02*
X13493872Y-15103150D01*
X13493872Y-15103150D02*
X13522443Y-15103150D01*
X13522443Y-15103150D02*
X13541491Y-15112674D01*
X13541491Y-15112674D02*
X13551015Y-15131722D01*
X13551015Y-15131722D02*
X13551015Y-15236484D01*
X13941491Y-15026960D02*
X13770063Y-15284103D01*
X14198634Y-15036484D02*
X14217682Y-15036484D01*
X14217682Y-15036484D02*
X14236729Y-15046008D01*
X14236729Y-15046008D02*
X14246253Y-15055531D01*
X14246253Y-15055531D02*
X14255777Y-15074579D01*
X14255777Y-15074579D02*
X14265301Y-15112674D01*
X14265301Y-15112674D02*
X14265301Y-15160293D01*
X14265301Y-15160293D02*
X14255777Y-15198388D01*
X14255777Y-15198388D02*
X14246253Y-15217436D01*
X14246253Y-15217436D02*
X14236729Y-15226960D01*
X14236729Y-15226960D02*
X14217682Y-15236484D01*
X14217682Y-15236484D02*
X14198634Y-15236484D01*
X14198634Y-15236484D02*
X14179586Y-15226960D01*
X14179586Y-15226960D02*
X14170063Y-15217436D01*
X14170063Y-15217436D02*
X14160539Y-15198388D01*
X14160539Y-15198388D02*
X14151015Y-15160293D01*
X14151015Y-15160293D02*
X14151015Y-15112674D01*
X14151015Y-15112674D02*
X14160539Y-15074579D01*
X14160539Y-15074579D02*
X14170063Y-15055531D01*
X14170063Y-15055531D02*
X14179586Y-15046008D01*
X14179586Y-15046008D02*
X14198634Y-15036484D01*
X14351015Y-15217436D02*
X14360539Y-15226960D01*
X14360539Y-15226960D02*
X14351015Y-15236484D01*
X14351015Y-15236484D02*
X14341491Y-15226960D01*
X14341491Y-15226960D02*
X14351015Y-15217436D01*
X14351015Y-15217436D02*
X14351015Y-15236484D01*
X14484348Y-15036484D02*
X14503396Y-15036484D01*
X14503396Y-15036484D02*
X14522444Y-15046008D01*
X14522444Y-15046008D02*
X14531967Y-15055531D01*
X14531967Y-15055531D02*
X14541491Y-15074579D01*
X14541491Y-15074579D02*
X14551015Y-15112674D01*
X14551015Y-15112674D02*
X14551015Y-15160293D01*
X14551015Y-15160293D02*
X14541491Y-15198388D01*
X14541491Y-15198388D02*
X14531967Y-15217436D01*
X14531967Y-15217436D02*
X14522444Y-15226960D01*
X14522444Y-15226960D02*
X14503396Y-15236484D01*
X14503396Y-15236484D02*
X14484348Y-15236484D01*
X14484348Y-15236484D02*
X14465301Y-15226960D01*
X14465301Y-15226960D02*
X14455777Y-15217436D01*
X14455777Y-15217436D02*
X14446253Y-15198388D01*
X14446253Y-15198388D02*
X14436729Y-15160293D01*
X14436729Y-15160293D02*
X14436729Y-15112674D01*
X14436729Y-15112674D02*
X14446253Y-15074579D01*
X14446253Y-15074579D02*
X14455777Y-15055531D01*
X14455777Y-15055531D02*
X14465301Y-15046008D01*
X14465301Y-15046008D02*
X14484348Y-15036484D01*
X14674825Y-15036484D02*
X14693872Y-15036484D01*
X14693872Y-15036484D02*
X14712920Y-15046008D01*
X14712920Y-15046008D02*
X14722444Y-15055531D01*
X14722444Y-15055531D02*
X14731967Y-15074579D01*
X14731967Y-15074579D02*
X14741491Y-15112674D01*
X14741491Y-15112674D02*
X14741491Y-15160293D01*
X14741491Y-15160293D02*
X14731967Y-15198388D01*
X14731967Y-15198388D02*
X14722444Y-15217436D01*
X14722444Y-15217436D02*
X14712920Y-15226960D01*
X14712920Y-15226960D02*
X14693872Y-15236484D01*
X14693872Y-15236484D02*
X14674825Y-15236484D01*
X14674825Y-15236484D02*
X14655777Y-15226960D01*
X14655777Y-15226960D02*
X14646253Y-15217436D01*
X14646253Y-15217436D02*
X14636729Y-15198388D01*
X14636729Y-15198388D02*
X14627206Y-15160293D01*
X14627206Y-15160293D02*
X14627206Y-15112674D01*
X14627206Y-15112674D02*
X14636729Y-15074579D01*
X14636729Y-15074579D02*
X14646253Y-15055531D01*
X14646253Y-15055531D02*
X14655777Y-15046008D01*
X14655777Y-15046008D02*
X14674825Y-15036484D01*
X14808158Y-15036484D02*
X14941491Y-15036484D01*
X14941491Y-15036484D02*
X14855777Y-15236484D01*
X15027206Y-15236484D02*
X15065301Y-15236484D01*
X15065301Y-15236484D02*
X15084348Y-15226960D01*
X15084348Y-15226960D02*
X15093872Y-15217436D01*
X15093872Y-15217436D02*
X15112920Y-15188865D01*
X15112920Y-15188865D02*
X15122444Y-15150769D01*
X15122444Y-15150769D02*
X15122444Y-15074579D01*
X15122444Y-15074579D02*
X15112920Y-15055531D01*
X15112920Y-15055531D02*
X15103396Y-15046008D01*
X15103396Y-15046008D02*
X15084348Y-15036484D01*
X15084348Y-15036484D02*
X15046253Y-15036484D01*
X15046253Y-15036484D02*
X15027206Y-15046008D01*
X15027206Y-15046008D02*
X15017682Y-15055531D01*
X15017682Y-15055531D02*
X15008158Y-15074579D01*
X15008158Y-15074579D02*
X15008158Y-15122198D01*
X15008158Y-15122198D02*
X15017682Y-15141246D01*
X15017682Y-15141246D02*
X15027206Y-15150769D01*
X15027206Y-15150769D02*
X15046253Y-15160293D01*
X15046253Y-15160293D02*
X15084348Y-15160293D01*
X15084348Y-15160293D02*
X15103396Y-15150769D01*
X15103396Y-15150769D02*
X15112920Y-15141246D01*
X15112920Y-15141246D02*
X15122444Y-15122198D01*
X15198634Y-15036484D02*
X15198634Y-15074579D01*
X15274825Y-15036484D02*
X15274825Y-15074579D01*
X15570063Y-15312674D02*
X15560539Y-15303150D01*
X15560539Y-15303150D02*
X15541491Y-15274579D01*
X15541491Y-15274579D02*
X15531968Y-15255531D01*
X15531968Y-15255531D02*
X15522444Y-15226960D01*
X15522444Y-15226960D02*
X15512920Y-15179341D01*
X15512920Y-15179341D02*
X15512920Y-15141246D01*
X15512920Y-15141246D02*
X15522444Y-15093627D01*
X15522444Y-15093627D02*
X15531968Y-15065055D01*
X15531968Y-15065055D02*
X15541491Y-15046008D01*
X15541491Y-15046008D02*
X15560539Y-15017436D01*
X15560539Y-15017436D02*
X15570063Y-15007912D01*
X15731968Y-15103150D02*
X15731968Y-15236484D01*
X15684348Y-15026960D02*
X15636729Y-15169817D01*
X15636729Y-15169817D02*
X15760539Y-15169817D01*
X15989110Y-15236484D02*
X15989110Y-15036484D01*
X16074825Y-15236484D02*
X16074825Y-15131722D01*
X16074825Y-15131722D02*
X16065301Y-15112674D01*
X16065301Y-15112674D02*
X16046253Y-15103150D01*
X16046253Y-15103150D02*
X16017682Y-15103150D01*
X16017682Y-15103150D02*
X15998634Y-15112674D01*
X15998634Y-15112674D02*
X15989110Y-15122198D01*
X16198634Y-15236484D02*
X16179587Y-15226960D01*
X16179587Y-15226960D02*
X16170063Y-15217436D01*
X16170063Y-15217436D02*
X16160539Y-15198388D01*
X16160539Y-15198388D02*
X16160539Y-15141246D01*
X16160539Y-15141246D02*
X16170063Y-15122198D01*
X16170063Y-15122198D02*
X16179587Y-15112674D01*
X16179587Y-15112674D02*
X16198634Y-15103150D01*
X16198634Y-15103150D02*
X16227206Y-15103150D01*
X16227206Y-15103150D02*
X16246253Y-15112674D01*
X16246253Y-15112674D02*
X16255777Y-15122198D01*
X16255777Y-15122198D02*
X16265301Y-15141246D01*
X16265301Y-15141246D02*
X16265301Y-15198388D01*
X16265301Y-15198388D02*
X16255777Y-15217436D01*
X16255777Y-15217436D02*
X16246253Y-15226960D01*
X16246253Y-15226960D02*
X16227206Y-15236484D01*
X16227206Y-15236484D02*
X16198634Y-15236484D01*
X16379587Y-15236484D02*
X16360539Y-15226960D01*
X16360539Y-15226960D02*
X16351015Y-15207912D01*
X16351015Y-15207912D02*
X16351015Y-15036484D01*
X16531968Y-15226960D02*
X16512920Y-15236484D01*
X16512920Y-15236484D02*
X16474825Y-15236484D01*
X16474825Y-15236484D02*
X16455777Y-15226960D01*
X16455777Y-15226960D02*
X16446253Y-15207912D01*
X16446253Y-15207912D02*
X16446253Y-15131722D01*
X16446253Y-15131722D02*
X16455777Y-15112674D01*
X16455777Y-15112674D02*
X16474825Y-15103150D01*
X16474825Y-15103150D02*
X16512920Y-15103150D01*
X16512920Y-15103150D02*
X16531968Y-15112674D01*
X16531968Y-15112674D02*
X16541491Y-15131722D01*
X16541491Y-15131722D02*
X16541491Y-15150769D01*
X16541491Y-15150769D02*
X16446253Y-15169817D01*
X16617682Y-15226960D02*
X16636730Y-15236484D01*
X16636730Y-15236484D02*
X16674825Y-15236484D01*
X16674825Y-15236484D02*
X16693872Y-15226960D01*
X16693872Y-15226960D02*
X16703396Y-15207912D01*
X16703396Y-15207912D02*
X16703396Y-15198388D01*
X16703396Y-15198388D02*
X16693872Y-15179341D01*
X16693872Y-15179341D02*
X16674825Y-15169817D01*
X16674825Y-15169817D02*
X16646253Y-15169817D01*
X16646253Y-15169817D02*
X16627206Y-15160293D01*
X16627206Y-15160293D02*
X16617682Y-15141246D01*
X16617682Y-15141246D02*
X16617682Y-15131722D01*
X16617682Y-15131722D02*
X16627206Y-15112674D01*
X16627206Y-15112674D02*
X16646253Y-15103150D01*
X16646253Y-15103150D02*
X16674825Y-15103150D01*
X16674825Y-15103150D02*
X16693872Y-15112674D01*
X16770063Y-15312674D02*
X16779587Y-15303150D01*
X16779587Y-15303150D02*
X16798634Y-15274579D01*
X16798634Y-15274579D02*
X16808158Y-15255531D01*
X16808158Y-15255531D02*
X16817682Y-15226960D01*
X16817682Y-15226960D02*
X16827206Y-15179341D01*
X16827206Y-15179341D02*
X16827206Y-15141246D01*
X16827206Y-15141246D02*
X16817682Y-15093627D01*
X16817682Y-15093627D02*
X16808158Y-15065055D01*
X16808158Y-15065055D02*
X16798634Y-15046008D01*
X16798634Y-15046008D02*
X16779587Y-15017436D01*
X16779587Y-15017436D02*
X16770063Y-15007912D01*
D10*
X11995000Y-15409000D02*
G75*
G03*
X11995000Y-15409000I-10160J0D01*
G01*
D11*
X12293872Y-15300484D02*
X12312920Y-15300484D01*
X12312920Y-15300484D02*
X12331967Y-15310008D01*
X12331967Y-15310008D02*
X12341491Y-15319531D01*
X12341491Y-15319531D02*
X12351015Y-15338579D01*
X12351015Y-15338579D02*
X12360539Y-15376674D01*
X12360539Y-15376674D02*
X12360539Y-15424293D01*
X12360539Y-15424293D02*
X12351015Y-15462388D01*
X12351015Y-15462388D02*
X12341491Y-15481436D01*
X12341491Y-15481436D02*
X12331967Y-15490960D01*
X12331967Y-15490960D02*
X12312920Y-15500484D01*
X12312920Y-15500484D02*
X12293872Y-15500484D01*
X12293872Y-15500484D02*
X12274824Y-15490960D01*
X12274824Y-15490960D02*
X12265301Y-15481436D01*
X12265301Y-15481436D02*
X12255777Y-15462388D01*
X12255777Y-15462388D02*
X12246253Y-15424293D01*
X12246253Y-15424293D02*
X12246253Y-15376674D01*
X12246253Y-15376674D02*
X12255777Y-15338579D01*
X12255777Y-15338579D02*
X12265301Y-15319531D01*
X12265301Y-15319531D02*
X12274824Y-15310008D01*
X12274824Y-15310008D02*
X12293872Y-15300484D01*
X12446253Y-15481436D02*
X12455777Y-15490960D01*
X12455777Y-15490960D02*
X12446253Y-15500484D01*
X12446253Y-15500484D02*
X12436729Y-15490960D01*
X12436729Y-15490960D02*
X12446253Y-15481436D01*
X12446253Y-15481436D02*
X12446253Y-15500484D01*
X12531967Y-15319531D02*
X12541491Y-15310008D01*
X12541491Y-15310008D02*
X12560539Y-15300484D01*
X12560539Y-15300484D02*
X12608158Y-15300484D01*
X12608158Y-15300484D02*
X12627205Y-15310008D01*
X12627205Y-15310008D02*
X12636729Y-15319531D01*
X12636729Y-15319531D02*
X12646253Y-15338579D01*
X12646253Y-15338579D02*
X12646253Y-15357627D01*
X12646253Y-15357627D02*
X12636729Y-15386198D01*
X12636729Y-15386198D02*
X12522443Y-15500484D01*
X12522443Y-15500484D02*
X12646253Y-15500484D01*
X12770062Y-15300484D02*
X12789110Y-15300484D01*
X12789110Y-15300484D02*
X12808158Y-15310008D01*
X12808158Y-15310008D02*
X12817682Y-15319531D01*
X12817682Y-15319531D02*
X12827205Y-15338579D01*
X12827205Y-15338579D02*
X12836729Y-15376674D01*
X12836729Y-15376674D02*
X12836729Y-15424293D01*
X12836729Y-15424293D02*
X12827205Y-15462388D01*
X12827205Y-15462388D02*
X12817682Y-15481436D01*
X12817682Y-15481436D02*
X12808158Y-15490960D01*
X12808158Y-15490960D02*
X12789110Y-15500484D01*
X12789110Y-15500484D02*
X12770062Y-15500484D01*
X12770062Y-15500484D02*
X12751015Y-15490960D01*
X12751015Y-15490960D02*
X12741491Y-15481436D01*
X12741491Y-15481436D02*
X12731967Y-15462388D01*
X12731967Y-15462388D02*
X12722443Y-15424293D01*
X12722443Y-15424293D02*
X12722443Y-15376674D01*
X12722443Y-15376674D02*
X12731967Y-15338579D01*
X12731967Y-15338579D02*
X12741491Y-15319531D01*
X12741491Y-15319531D02*
X12751015Y-15310008D01*
X12751015Y-15310008D02*
X12770062Y-15300484D01*
X12903396Y-15300484D02*
X13027205Y-15300484D01*
X13027205Y-15300484D02*
X12960539Y-15376674D01*
X12960539Y-15376674D02*
X12989110Y-15376674D01*
X12989110Y-15376674D02*
X13008158Y-15386198D01*
X13008158Y-15386198D02*
X13017682Y-15395722D01*
X13017682Y-15395722D02*
X13027205Y-15414769D01*
X13027205Y-15414769D02*
X13027205Y-15462388D01*
X13027205Y-15462388D02*
X13017682Y-15481436D01*
X13017682Y-15481436D02*
X13008158Y-15490960D01*
X13008158Y-15490960D02*
X12989110Y-15500484D01*
X12989110Y-15500484D02*
X12931967Y-15500484D01*
X12931967Y-15500484D02*
X12912920Y-15490960D01*
X12912920Y-15490960D02*
X12903396Y-15481436D01*
X13112920Y-15500484D02*
X13112920Y-15367150D01*
X13112920Y-15386198D02*
X13122443Y-15376674D01*
X13122443Y-15376674D02*
X13141491Y-15367150D01*
X13141491Y-15367150D02*
X13170063Y-15367150D01*
X13170063Y-15367150D02*
X13189110Y-15376674D01*
X13189110Y-15376674D02*
X13198634Y-15395722D01*
X13198634Y-15395722D02*
X13198634Y-15500484D01*
X13198634Y-15395722D02*
X13208158Y-15376674D01*
X13208158Y-15376674D02*
X13227205Y-15367150D01*
X13227205Y-15367150D02*
X13255777Y-15367150D01*
X13255777Y-15367150D02*
X13274824Y-15376674D01*
X13274824Y-15376674D02*
X13284348Y-15395722D01*
X13284348Y-15395722D02*
X13284348Y-15500484D01*
X13379586Y-15500484D02*
X13379586Y-15367150D01*
X13379586Y-15386198D02*
X13389110Y-15376674D01*
X13389110Y-15376674D02*
X13408158Y-15367150D01*
X13408158Y-15367150D02*
X13436729Y-15367150D01*
X13436729Y-15367150D02*
X13455777Y-15376674D01*
X13455777Y-15376674D02*
X13465301Y-15395722D01*
X13465301Y-15395722D02*
X13465301Y-15500484D01*
X13465301Y-15395722D02*
X13474824Y-15376674D01*
X13474824Y-15376674D02*
X13493872Y-15367150D01*
X13493872Y-15367150D02*
X13522443Y-15367150D01*
X13522443Y-15367150D02*
X13541491Y-15376674D01*
X13541491Y-15376674D02*
X13551015Y-15395722D01*
X13551015Y-15395722D02*
X13551015Y-15500484D01*
X13941491Y-15290960D02*
X13770063Y-15548103D01*
X14198634Y-15300484D02*
X14217682Y-15300484D01*
X14217682Y-15300484D02*
X14236729Y-15310008D01*
X14236729Y-15310008D02*
X14246253Y-15319531D01*
X14246253Y-15319531D02*
X14255777Y-15338579D01*
X14255777Y-15338579D02*
X14265301Y-15376674D01*
X14265301Y-15376674D02*
X14265301Y-15424293D01*
X14265301Y-15424293D02*
X14255777Y-15462388D01*
X14255777Y-15462388D02*
X14246253Y-15481436D01*
X14246253Y-15481436D02*
X14236729Y-15490960D01*
X14236729Y-15490960D02*
X14217682Y-15500484D01*
X14217682Y-15500484D02*
X14198634Y-15500484D01*
X14198634Y-15500484D02*
X14179586Y-15490960D01*
X14179586Y-15490960D02*
X14170063Y-15481436D01*
X14170063Y-15481436D02*
X14160539Y-15462388D01*
X14160539Y-15462388D02*
X14151015Y-15424293D01*
X14151015Y-15424293D02*
X14151015Y-15376674D01*
X14151015Y-15376674D02*
X14160539Y-15338579D01*
X14160539Y-15338579D02*
X14170063Y-15319531D01*
X14170063Y-15319531D02*
X14179586Y-15310008D01*
X14179586Y-15310008D02*
X14198634Y-15300484D01*
X14351015Y-15481436D02*
X14360539Y-15490960D01*
X14360539Y-15490960D02*
X14351015Y-15500484D01*
X14351015Y-15500484D02*
X14341491Y-15490960D01*
X14341491Y-15490960D02*
X14351015Y-15481436D01*
X14351015Y-15481436D02*
X14351015Y-15500484D01*
X14484348Y-15300484D02*
X14503396Y-15300484D01*
X14503396Y-15300484D02*
X14522444Y-15310008D01*
X14522444Y-15310008D02*
X14531967Y-15319531D01*
X14531967Y-15319531D02*
X14541491Y-15338579D01*
X14541491Y-15338579D02*
X14551015Y-15376674D01*
X14551015Y-15376674D02*
X14551015Y-15424293D01*
X14551015Y-15424293D02*
X14541491Y-15462388D01*
X14541491Y-15462388D02*
X14531967Y-15481436D01*
X14531967Y-15481436D02*
X14522444Y-15490960D01*
X14522444Y-15490960D02*
X14503396Y-15500484D01*
X14503396Y-15500484D02*
X14484348Y-15500484D01*
X14484348Y-15500484D02*
X14465301Y-15490960D01*
X14465301Y-15490960D02*
X14455777Y-15481436D01*
X14455777Y-15481436D02*
X14446253Y-15462388D01*
X14446253Y-15462388D02*
X14436729Y-15424293D01*
X14436729Y-15424293D02*
X14436729Y-15376674D01*
X14436729Y-15376674D02*
X14446253Y-15338579D01*
X14446253Y-15338579D02*
X14455777Y-15319531D01*
X14455777Y-15319531D02*
X14465301Y-15310008D01*
X14465301Y-15310008D02*
X14484348Y-15300484D01*
X14674825Y-15300484D02*
X14693872Y-15300484D01*
X14693872Y-15300484D02*
X14712920Y-15310008D01*
X14712920Y-15310008D02*
X14722444Y-15319531D01*
X14722444Y-15319531D02*
X14731967Y-15338579D01*
X14731967Y-15338579D02*
X14741491Y-15376674D01*
X14741491Y-15376674D02*
X14741491Y-15424293D01*
X14741491Y-15424293D02*
X14731967Y-15462388D01*
X14731967Y-15462388D02*
X14722444Y-15481436D01*
X14722444Y-15481436D02*
X14712920Y-15490960D01*
X14712920Y-15490960D02*
X14693872Y-15500484D01*
X14693872Y-15500484D02*
X14674825Y-15500484D01*
X14674825Y-15500484D02*
X14655777Y-15490960D01*
X14655777Y-15490960D02*
X14646253Y-15481436D01*
X14646253Y-15481436D02*
X14636729Y-15462388D01*
X14636729Y-15462388D02*
X14627206Y-15424293D01*
X14627206Y-15424293D02*
X14627206Y-15376674D01*
X14627206Y-15376674D02*
X14636729Y-15338579D01*
X14636729Y-15338579D02*
X14646253Y-15319531D01*
X14646253Y-15319531D02*
X14655777Y-15310008D01*
X14655777Y-15310008D02*
X14674825Y-15300484D01*
X14855777Y-15386198D02*
X14836729Y-15376674D01*
X14836729Y-15376674D02*
X14827206Y-15367150D01*
X14827206Y-15367150D02*
X14817682Y-15348103D01*
X14817682Y-15348103D02*
X14817682Y-15338579D01*
X14817682Y-15338579D02*
X14827206Y-15319531D01*
X14827206Y-15319531D02*
X14836729Y-15310008D01*
X14836729Y-15310008D02*
X14855777Y-15300484D01*
X14855777Y-15300484D02*
X14893872Y-15300484D01*
X14893872Y-15300484D02*
X14912920Y-15310008D01*
X14912920Y-15310008D02*
X14922444Y-15319531D01*
X14922444Y-15319531D02*
X14931967Y-15338579D01*
X14931967Y-15338579D02*
X14931967Y-15348103D01*
X14931967Y-15348103D02*
X14922444Y-15367150D01*
X14922444Y-15367150D02*
X14912920Y-15376674D01*
X14912920Y-15376674D02*
X14893872Y-15386198D01*
X14893872Y-15386198D02*
X14855777Y-15386198D01*
X14855777Y-15386198D02*
X14836729Y-15395722D01*
X14836729Y-15395722D02*
X14827206Y-15405246D01*
X14827206Y-15405246D02*
X14817682Y-15424293D01*
X14817682Y-15424293D02*
X14817682Y-15462388D01*
X14817682Y-15462388D02*
X14827206Y-15481436D01*
X14827206Y-15481436D02*
X14836729Y-15490960D01*
X14836729Y-15490960D02*
X14855777Y-15500484D01*
X14855777Y-15500484D02*
X14893872Y-15500484D01*
X14893872Y-15500484D02*
X14912920Y-15490960D01*
X14912920Y-15490960D02*
X14922444Y-15481436D01*
X14922444Y-15481436D02*
X14931967Y-15462388D01*
X14931967Y-15462388D02*
X14931967Y-15424293D01*
X14931967Y-15424293D02*
X14922444Y-15405246D01*
X14922444Y-15405246D02*
X14912920Y-15395722D01*
X14912920Y-15395722D02*
X14893872Y-15386198D01*
X15055777Y-15300484D02*
X15074825Y-15300484D01*
X15074825Y-15300484D02*
X15093872Y-15310008D01*
X15093872Y-15310008D02*
X15103396Y-15319531D01*
X15103396Y-15319531D02*
X15112920Y-15338579D01*
X15112920Y-15338579D02*
X15122444Y-15376674D01*
X15122444Y-15376674D02*
X15122444Y-15424293D01*
X15122444Y-15424293D02*
X15112920Y-15462388D01*
X15112920Y-15462388D02*
X15103396Y-15481436D01*
X15103396Y-15481436D02*
X15093872Y-15490960D01*
X15093872Y-15490960D02*
X15074825Y-15500484D01*
X15074825Y-15500484D02*
X15055777Y-15500484D01*
X15055777Y-15500484D02*
X15036729Y-15490960D01*
X15036729Y-15490960D02*
X15027206Y-15481436D01*
X15027206Y-15481436D02*
X15017682Y-15462388D01*
X15017682Y-15462388D02*
X15008158Y-15424293D01*
X15008158Y-15424293D02*
X15008158Y-15376674D01*
X15008158Y-15376674D02*
X15017682Y-15338579D01*
X15017682Y-15338579D02*
X15027206Y-15319531D01*
X15027206Y-15319531D02*
X15036729Y-15310008D01*
X15036729Y-15310008D02*
X15055777Y-15300484D01*
X15198634Y-15300484D02*
X15198634Y-15338579D01*
X15274825Y-15300484D02*
X15274825Y-15338579D01*
X15570063Y-15576674D02*
X15560539Y-15567150D01*
X15560539Y-15567150D02*
X15541491Y-15538579D01*
X15541491Y-15538579D02*
X15531968Y-15519531D01*
X15531968Y-15519531D02*
X15522444Y-15490960D01*
X15522444Y-15490960D02*
X15512920Y-15443341D01*
X15512920Y-15443341D02*
X15512920Y-15405246D01*
X15512920Y-15405246D02*
X15522444Y-15357627D01*
X15522444Y-15357627D02*
X15531968Y-15329055D01*
X15531968Y-15329055D02*
X15541491Y-15310008D01*
X15541491Y-15310008D02*
X15560539Y-15281436D01*
X15560539Y-15281436D02*
X15570063Y-15271912D01*
X15751015Y-15500484D02*
X15636729Y-15500484D01*
X15693872Y-15500484D02*
X15693872Y-15300484D01*
X15693872Y-15300484D02*
X15674825Y-15329055D01*
X15674825Y-15329055D02*
X15655777Y-15348103D01*
X15655777Y-15348103D02*
X15636729Y-15357627D01*
X15827206Y-15319531D02*
X15836729Y-15310008D01*
X15836729Y-15310008D02*
X15855777Y-15300484D01*
X15855777Y-15300484D02*
X15903396Y-15300484D01*
X15903396Y-15300484D02*
X15922444Y-15310008D01*
X15922444Y-15310008D02*
X15931968Y-15319531D01*
X15931968Y-15319531D02*
X15941491Y-15338579D01*
X15941491Y-15338579D02*
X15941491Y-15357627D01*
X15941491Y-15357627D02*
X15931968Y-15386198D01*
X15931968Y-15386198D02*
X15817682Y-15500484D01*
X15817682Y-15500484D02*
X15941491Y-15500484D01*
X16179587Y-15500484D02*
X16179587Y-15300484D01*
X16265301Y-15500484D02*
X16265301Y-15395722D01*
X16265301Y-15395722D02*
X16255777Y-15376674D01*
X16255777Y-15376674D02*
X16236730Y-15367150D01*
X16236730Y-15367150D02*
X16208158Y-15367150D01*
X16208158Y-15367150D02*
X16189110Y-15376674D01*
X16189110Y-15376674D02*
X16179587Y-15386198D01*
X16389110Y-15500484D02*
X16370063Y-15490960D01*
X16370063Y-15490960D02*
X16360539Y-15481436D01*
X16360539Y-15481436D02*
X16351015Y-15462388D01*
X16351015Y-15462388D02*
X16351015Y-15405246D01*
X16351015Y-15405246D02*
X16360539Y-15386198D01*
X16360539Y-15386198D02*
X16370063Y-15376674D01*
X16370063Y-15376674D02*
X16389110Y-15367150D01*
X16389110Y-15367150D02*
X16417682Y-15367150D01*
X16417682Y-15367150D02*
X16436730Y-15376674D01*
X16436730Y-15376674D02*
X16446253Y-15386198D01*
X16446253Y-15386198D02*
X16455777Y-15405246D01*
X16455777Y-15405246D02*
X16455777Y-15462388D01*
X16455777Y-15462388D02*
X16446253Y-15481436D01*
X16446253Y-15481436D02*
X16436730Y-15490960D01*
X16436730Y-15490960D02*
X16417682Y-15500484D01*
X16417682Y-15500484D02*
X16389110Y-15500484D01*
X16570063Y-15500484D02*
X16551015Y-15490960D01*
X16551015Y-15490960D02*
X16541491Y-15471912D01*
X16541491Y-15471912D02*
X16541491Y-15300484D01*
X16722444Y-15490960D02*
X16703396Y-15500484D01*
X16703396Y-15500484D02*
X16665301Y-15500484D01*
X16665301Y-15500484D02*
X16646253Y-15490960D01*
X16646253Y-15490960D02*
X16636730Y-15471912D01*
X16636730Y-15471912D02*
X16636730Y-15395722D01*
X16636730Y-15395722D02*
X16646253Y-15376674D01*
X16646253Y-15376674D02*
X16665301Y-15367150D01*
X16665301Y-15367150D02*
X16703396Y-15367150D01*
X16703396Y-15367150D02*
X16722444Y-15376674D01*
X16722444Y-15376674D02*
X16731968Y-15395722D01*
X16731968Y-15395722D02*
X16731968Y-15414769D01*
X16731968Y-15414769D02*
X16636730Y-15433817D01*
X16808158Y-15490960D02*
X16827206Y-15500484D01*
X16827206Y-15500484D02*
X16865301Y-15500484D01*
X16865301Y-15500484D02*
X16884349Y-15490960D01*
X16884349Y-15490960D02*
X16893873Y-15471912D01*
X16893873Y-15471912D02*
X16893873Y-15462388D01*
X16893873Y-15462388D02*
X16884349Y-15443341D01*
X16884349Y-15443341D02*
X16865301Y-15433817D01*
X16865301Y-15433817D02*
X16836730Y-15433817D01*
X16836730Y-15433817D02*
X16817682Y-15424293D01*
X16817682Y-15424293D02*
X16808158Y-15405246D01*
X16808158Y-15405246D02*
X16808158Y-15395722D01*
X16808158Y-15395722D02*
X16817682Y-15376674D01*
X16817682Y-15376674D02*
X16836730Y-15367150D01*
X16836730Y-15367150D02*
X16865301Y-15367150D01*
X16865301Y-15367150D02*
X16884349Y-15376674D01*
X16960539Y-15576674D02*
X16970063Y-15567150D01*
X16970063Y-15567150D02*
X16989111Y-15538579D01*
X16989111Y-15538579D02*
X16998634Y-15519531D01*
X16998634Y-15519531D02*
X17008158Y-15490960D01*
X17008158Y-15490960D02*
X17017682Y-15443341D01*
X17017682Y-15443341D02*
X17017682Y-15405246D01*
X17017682Y-15405246D02*
X17008158Y-15357627D01*
X17008158Y-15357627D02*
X16998634Y-15329055D01*
X16998634Y-15329055D02*
X16989111Y-15310008D01*
X16989111Y-15310008D02*
X16970063Y-15281436D01*
X16970063Y-15281436D02*
X16960539Y-15271912D01*
D10*
X11980000Y-15658000D02*
X11980000Y-15688000D01*
X11965000Y-15673000D02*
X11995000Y-15673000D01*
D11*
X12293872Y-15564484D02*
X12312920Y-15564484D01*
X12312920Y-15564484D02*
X12331967Y-15574008D01*
X12331967Y-15574008D02*
X12341491Y-15583531D01*
X12341491Y-15583531D02*
X12351015Y-15602579D01*
X12351015Y-15602579D02*
X12360539Y-15640674D01*
X12360539Y-15640674D02*
X12360539Y-15688293D01*
X12360539Y-15688293D02*
X12351015Y-15726388D01*
X12351015Y-15726388D02*
X12341491Y-15745436D01*
X12341491Y-15745436D02*
X12331967Y-15754960D01*
X12331967Y-15754960D02*
X12312920Y-15764484D01*
X12312920Y-15764484D02*
X12293872Y-15764484D01*
X12293872Y-15764484D02*
X12274824Y-15754960D01*
X12274824Y-15754960D02*
X12265301Y-15745436D01*
X12265301Y-15745436D02*
X12255777Y-15726388D01*
X12255777Y-15726388D02*
X12246253Y-15688293D01*
X12246253Y-15688293D02*
X12246253Y-15640674D01*
X12246253Y-15640674D02*
X12255777Y-15602579D01*
X12255777Y-15602579D02*
X12265301Y-15583531D01*
X12265301Y-15583531D02*
X12274824Y-15574008D01*
X12274824Y-15574008D02*
X12293872Y-15564484D01*
X12446253Y-15745436D02*
X12455777Y-15754960D01*
X12455777Y-15754960D02*
X12446253Y-15764484D01*
X12446253Y-15764484D02*
X12436729Y-15754960D01*
X12436729Y-15754960D02*
X12446253Y-15745436D01*
X12446253Y-15745436D02*
X12446253Y-15764484D01*
X12522443Y-15564484D02*
X12646253Y-15564484D01*
X12646253Y-15564484D02*
X12579586Y-15640674D01*
X12579586Y-15640674D02*
X12608158Y-15640674D01*
X12608158Y-15640674D02*
X12627205Y-15650198D01*
X12627205Y-15650198D02*
X12636729Y-15659722D01*
X12636729Y-15659722D02*
X12646253Y-15678769D01*
X12646253Y-15678769D02*
X12646253Y-15726388D01*
X12646253Y-15726388D02*
X12636729Y-15745436D01*
X12636729Y-15745436D02*
X12627205Y-15754960D01*
X12627205Y-15754960D02*
X12608158Y-15764484D01*
X12608158Y-15764484D02*
X12551015Y-15764484D01*
X12551015Y-15764484D02*
X12531967Y-15754960D01*
X12531967Y-15754960D02*
X12522443Y-15745436D01*
X12770062Y-15564484D02*
X12789110Y-15564484D01*
X12789110Y-15564484D02*
X12808158Y-15574008D01*
X12808158Y-15574008D02*
X12817682Y-15583531D01*
X12817682Y-15583531D02*
X12827205Y-15602579D01*
X12827205Y-15602579D02*
X12836729Y-15640674D01*
X12836729Y-15640674D02*
X12836729Y-15688293D01*
X12836729Y-15688293D02*
X12827205Y-15726388D01*
X12827205Y-15726388D02*
X12817682Y-15745436D01*
X12817682Y-15745436D02*
X12808158Y-15754960D01*
X12808158Y-15754960D02*
X12789110Y-15764484D01*
X12789110Y-15764484D02*
X12770062Y-15764484D01*
X12770062Y-15764484D02*
X12751015Y-15754960D01*
X12751015Y-15754960D02*
X12741491Y-15745436D01*
X12741491Y-15745436D02*
X12731967Y-15726388D01*
X12731967Y-15726388D02*
X12722443Y-15688293D01*
X12722443Y-15688293D02*
X12722443Y-15640674D01*
X12722443Y-15640674D02*
X12731967Y-15602579D01*
X12731967Y-15602579D02*
X12741491Y-15583531D01*
X12741491Y-15583531D02*
X12751015Y-15574008D01*
X12751015Y-15574008D02*
X12770062Y-15564484D01*
X12960539Y-15564484D02*
X12979586Y-15564484D01*
X12979586Y-15564484D02*
X12998634Y-15574008D01*
X12998634Y-15574008D02*
X13008158Y-15583531D01*
X13008158Y-15583531D02*
X13017682Y-15602579D01*
X13017682Y-15602579D02*
X13027205Y-15640674D01*
X13027205Y-15640674D02*
X13027205Y-15688293D01*
X13027205Y-15688293D02*
X13017682Y-15726388D01*
X13017682Y-15726388D02*
X13008158Y-15745436D01*
X13008158Y-15745436D02*
X12998634Y-15754960D01*
X12998634Y-15754960D02*
X12979586Y-15764484D01*
X12979586Y-15764484D02*
X12960539Y-15764484D01*
X12960539Y-15764484D02*
X12941491Y-15754960D01*
X12941491Y-15754960D02*
X12931967Y-15745436D01*
X12931967Y-15745436D02*
X12922443Y-15726388D01*
X12922443Y-15726388D02*
X12912920Y-15688293D01*
X12912920Y-15688293D02*
X12912920Y-15640674D01*
X12912920Y-15640674D02*
X12922443Y-15602579D01*
X12922443Y-15602579D02*
X12931967Y-15583531D01*
X12931967Y-15583531D02*
X12941491Y-15574008D01*
X12941491Y-15574008D02*
X12960539Y-15564484D01*
X13112920Y-15764484D02*
X13112920Y-15631150D01*
X13112920Y-15650198D02*
X13122443Y-15640674D01*
X13122443Y-15640674D02*
X13141491Y-15631150D01*
X13141491Y-15631150D02*
X13170063Y-15631150D01*
X13170063Y-15631150D02*
X13189110Y-15640674D01*
X13189110Y-15640674D02*
X13198634Y-15659722D01*
X13198634Y-15659722D02*
X13198634Y-15764484D01*
X13198634Y-15659722D02*
X13208158Y-15640674D01*
X13208158Y-15640674D02*
X13227205Y-15631150D01*
X13227205Y-15631150D02*
X13255777Y-15631150D01*
X13255777Y-15631150D02*
X13274824Y-15640674D01*
X13274824Y-15640674D02*
X13284348Y-15659722D01*
X13284348Y-15659722D02*
X13284348Y-15764484D01*
X13379586Y-15764484D02*
X13379586Y-15631150D01*
X13379586Y-15650198D02*
X13389110Y-15640674D01*
X13389110Y-15640674D02*
X13408158Y-15631150D01*
X13408158Y-15631150D02*
X13436729Y-15631150D01*
X13436729Y-15631150D02*
X13455777Y-15640674D01*
X13455777Y-15640674D02*
X13465301Y-15659722D01*
X13465301Y-15659722D02*
X13465301Y-15764484D01*
X13465301Y-15659722D02*
X13474824Y-15640674D01*
X13474824Y-15640674D02*
X13493872Y-15631150D01*
X13493872Y-15631150D02*
X13522443Y-15631150D01*
X13522443Y-15631150D02*
X13541491Y-15640674D01*
X13541491Y-15640674D02*
X13551015Y-15659722D01*
X13551015Y-15659722D02*
X13551015Y-15764484D01*
X13941491Y-15554960D02*
X13770063Y-15812103D01*
X14198634Y-15564484D02*
X14217682Y-15564484D01*
X14217682Y-15564484D02*
X14236729Y-15574008D01*
X14236729Y-15574008D02*
X14246253Y-15583531D01*
X14246253Y-15583531D02*
X14255777Y-15602579D01*
X14255777Y-15602579D02*
X14265301Y-15640674D01*
X14265301Y-15640674D02*
X14265301Y-15688293D01*
X14265301Y-15688293D02*
X14255777Y-15726388D01*
X14255777Y-15726388D02*
X14246253Y-15745436D01*
X14246253Y-15745436D02*
X14236729Y-15754960D01*
X14236729Y-15754960D02*
X14217682Y-15764484D01*
X14217682Y-15764484D02*
X14198634Y-15764484D01*
X14198634Y-15764484D02*
X14179586Y-15754960D01*
X14179586Y-15754960D02*
X14170063Y-15745436D01*
X14170063Y-15745436D02*
X14160539Y-15726388D01*
X14160539Y-15726388D02*
X14151015Y-15688293D01*
X14151015Y-15688293D02*
X14151015Y-15640674D01*
X14151015Y-15640674D02*
X14160539Y-15602579D01*
X14160539Y-15602579D02*
X14170063Y-15583531D01*
X14170063Y-15583531D02*
X14179586Y-15574008D01*
X14179586Y-15574008D02*
X14198634Y-15564484D01*
X14351015Y-15745436D02*
X14360539Y-15754960D01*
X14360539Y-15754960D02*
X14351015Y-15764484D01*
X14351015Y-15764484D02*
X14341491Y-15754960D01*
X14341491Y-15754960D02*
X14351015Y-15745436D01*
X14351015Y-15745436D02*
X14351015Y-15764484D01*
X14484348Y-15564484D02*
X14503396Y-15564484D01*
X14503396Y-15564484D02*
X14522444Y-15574008D01*
X14522444Y-15574008D02*
X14531967Y-15583531D01*
X14531967Y-15583531D02*
X14541491Y-15602579D01*
X14541491Y-15602579D02*
X14551015Y-15640674D01*
X14551015Y-15640674D02*
X14551015Y-15688293D01*
X14551015Y-15688293D02*
X14541491Y-15726388D01*
X14541491Y-15726388D02*
X14531967Y-15745436D01*
X14531967Y-15745436D02*
X14522444Y-15754960D01*
X14522444Y-15754960D02*
X14503396Y-15764484D01*
X14503396Y-15764484D02*
X14484348Y-15764484D01*
X14484348Y-15764484D02*
X14465301Y-15754960D01*
X14465301Y-15754960D02*
X14455777Y-15745436D01*
X14455777Y-15745436D02*
X14446253Y-15726388D01*
X14446253Y-15726388D02*
X14436729Y-15688293D01*
X14436729Y-15688293D02*
X14436729Y-15640674D01*
X14436729Y-15640674D02*
X14446253Y-15602579D01*
X14446253Y-15602579D02*
X14455777Y-15583531D01*
X14455777Y-15583531D02*
X14465301Y-15574008D01*
X14465301Y-15574008D02*
X14484348Y-15564484D01*
X14741491Y-15764484D02*
X14627206Y-15764484D01*
X14684348Y-15764484D02*
X14684348Y-15564484D01*
X14684348Y-15564484D02*
X14665301Y-15593055D01*
X14665301Y-15593055D02*
X14646253Y-15612103D01*
X14646253Y-15612103D02*
X14627206Y-15621627D01*
X14931967Y-15764484D02*
X14817682Y-15764484D01*
X14874825Y-15764484D02*
X14874825Y-15564484D01*
X14874825Y-15564484D02*
X14855777Y-15593055D01*
X14855777Y-15593055D02*
X14836729Y-15612103D01*
X14836729Y-15612103D02*
X14817682Y-15621627D01*
X15046253Y-15650198D02*
X15027206Y-15640674D01*
X15027206Y-15640674D02*
X15017682Y-15631150D01*
X15017682Y-15631150D02*
X15008158Y-15612103D01*
X15008158Y-15612103D02*
X15008158Y-15602579D01*
X15008158Y-15602579D02*
X15017682Y-15583531D01*
X15017682Y-15583531D02*
X15027206Y-15574008D01*
X15027206Y-15574008D02*
X15046253Y-15564484D01*
X15046253Y-15564484D02*
X15084348Y-15564484D01*
X15084348Y-15564484D02*
X15103396Y-15574008D01*
X15103396Y-15574008D02*
X15112920Y-15583531D01*
X15112920Y-15583531D02*
X15122444Y-15602579D01*
X15122444Y-15602579D02*
X15122444Y-15612103D01*
X15122444Y-15612103D02*
X15112920Y-15631150D01*
X15112920Y-15631150D02*
X15103396Y-15640674D01*
X15103396Y-15640674D02*
X15084348Y-15650198D01*
X15084348Y-15650198D02*
X15046253Y-15650198D01*
X15046253Y-15650198D02*
X15027206Y-15659722D01*
X15027206Y-15659722D02*
X15017682Y-15669246D01*
X15017682Y-15669246D02*
X15008158Y-15688293D01*
X15008158Y-15688293D02*
X15008158Y-15726388D01*
X15008158Y-15726388D02*
X15017682Y-15745436D01*
X15017682Y-15745436D02*
X15027206Y-15754960D01*
X15027206Y-15754960D02*
X15046253Y-15764484D01*
X15046253Y-15764484D02*
X15084348Y-15764484D01*
X15084348Y-15764484D02*
X15103396Y-15754960D01*
X15103396Y-15754960D02*
X15112920Y-15745436D01*
X15112920Y-15745436D02*
X15122444Y-15726388D01*
X15122444Y-15726388D02*
X15122444Y-15688293D01*
X15122444Y-15688293D02*
X15112920Y-15669246D01*
X15112920Y-15669246D02*
X15103396Y-15659722D01*
X15103396Y-15659722D02*
X15084348Y-15650198D01*
X15198634Y-15564484D02*
X15198634Y-15602579D01*
X15274825Y-15564484D02*
X15274825Y-15602579D01*
X15570063Y-15840674D02*
X15560539Y-15831150D01*
X15560539Y-15831150D02*
X15541491Y-15802579D01*
X15541491Y-15802579D02*
X15531968Y-15783531D01*
X15531968Y-15783531D02*
X15522444Y-15754960D01*
X15522444Y-15754960D02*
X15512920Y-15707341D01*
X15512920Y-15707341D02*
X15512920Y-15669246D01*
X15512920Y-15669246D02*
X15522444Y-15621627D01*
X15522444Y-15621627D02*
X15531968Y-15593055D01*
X15531968Y-15593055D02*
X15541491Y-15574008D01*
X15541491Y-15574008D02*
X15560539Y-15545436D01*
X15560539Y-15545436D02*
X15570063Y-15535912D01*
X15627206Y-15564484D02*
X15751015Y-15564484D01*
X15751015Y-15564484D02*
X15684348Y-15640674D01*
X15684348Y-15640674D02*
X15712920Y-15640674D01*
X15712920Y-15640674D02*
X15731968Y-15650198D01*
X15731968Y-15650198D02*
X15741491Y-15659722D01*
X15741491Y-15659722D02*
X15751015Y-15678769D01*
X15751015Y-15678769D02*
X15751015Y-15726388D01*
X15751015Y-15726388D02*
X15741491Y-15745436D01*
X15741491Y-15745436D02*
X15731968Y-15754960D01*
X15731968Y-15754960D02*
X15712920Y-15764484D01*
X15712920Y-15764484D02*
X15655777Y-15764484D01*
X15655777Y-15764484D02*
X15636729Y-15754960D01*
X15636729Y-15754960D02*
X15627206Y-15745436D01*
X15989110Y-15764484D02*
X15989110Y-15564484D01*
X16074825Y-15764484D02*
X16074825Y-15659722D01*
X16074825Y-15659722D02*
X16065301Y-15640674D01*
X16065301Y-15640674D02*
X16046253Y-15631150D01*
X16046253Y-15631150D02*
X16017682Y-15631150D01*
X16017682Y-15631150D02*
X15998634Y-15640674D01*
X15998634Y-15640674D02*
X15989110Y-15650198D01*
X16198634Y-15764484D02*
X16179587Y-15754960D01*
X16179587Y-15754960D02*
X16170063Y-15745436D01*
X16170063Y-15745436D02*
X16160539Y-15726388D01*
X16160539Y-15726388D02*
X16160539Y-15669246D01*
X16160539Y-15669246D02*
X16170063Y-15650198D01*
X16170063Y-15650198D02*
X16179587Y-15640674D01*
X16179587Y-15640674D02*
X16198634Y-15631150D01*
X16198634Y-15631150D02*
X16227206Y-15631150D01*
X16227206Y-15631150D02*
X16246253Y-15640674D01*
X16246253Y-15640674D02*
X16255777Y-15650198D01*
X16255777Y-15650198D02*
X16265301Y-15669246D01*
X16265301Y-15669246D02*
X16265301Y-15726388D01*
X16265301Y-15726388D02*
X16255777Y-15745436D01*
X16255777Y-15745436D02*
X16246253Y-15754960D01*
X16246253Y-15754960D02*
X16227206Y-15764484D01*
X16227206Y-15764484D02*
X16198634Y-15764484D01*
X16379587Y-15764484D02*
X16360539Y-15754960D01*
X16360539Y-15754960D02*
X16351015Y-15735912D01*
X16351015Y-15735912D02*
X16351015Y-15564484D01*
X16531968Y-15754960D02*
X16512920Y-15764484D01*
X16512920Y-15764484D02*
X16474825Y-15764484D01*
X16474825Y-15764484D02*
X16455777Y-15754960D01*
X16455777Y-15754960D02*
X16446253Y-15735912D01*
X16446253Y-15735912D02*
X16446253Y-15659722D01*
X16446253Y-15659722D02*
X16455777Y-15640674D01*
X16455777Y-15640674D02*
X16474825Y-15631150D01*
X16474825Y-15631150D02*
X16512920Y-15631150D01*
X16512920Y-15631150D02*
X16531968Y-15640674D01*
X16531968Y-15640674D02*
X16541491Y-15659722D01*
X16541491Y-15659722D02*
X16541491Y-15678769D01*
X16541491Y-15678769D02*
X16446253Y-15697817D01*
X16617682Y-15754960D02*
X16636730Y-15764484D01*
X16636730Y-15764484D02*
X16674825Y-15764484D01*
X16674825Y-15764484D02*
X16693872Y-15754960D01*
X16693872Y-15754960D02*
X16703396Y-15735912D01*
X16703396Y-15735912D02*
X16703396Y-15726388D01*
X16703396Y-15726388D02*
X16693872Y-15707341D01*
X16693872Y-15707341D02*
X16674825Y-15697817D01*
X16674825Y-15697817D02*
X16646253Y-15697817D01*
X16646253Y-15697817D02*
X16627206Y-15688293D01*
X16627206Y-15688293D02*
X16617682Y-15669246D01*
X16617682Y-15669246D02*
X16617682Y-15659722D01*
X16617682Y-15659722D02*
X16627206Y-15640674D01*
X16627206Y-15640674D02*
X16646253Y-15631150D01*
X16646253Y-15631150D02*
X16674825Y-15631150D01*
X16674825Y-15631150D02*
X16693872Y-15640674D01*
X16770063Y-15840674D02*
X16779587Y-15831150D01*
X16779587Y-15831150D02*
X16798634Y-15802579D01*
X16798634Y-15802579D02*
X16808158Y-15783531D01*
X16808158Y-15783531D02*
X16817682Y-15754960D01*
X16817682Y-15754960D02*
X16827206Y-15707341D01*
X16827206Y-15707341D02*
X16827206Y-15669246D01*
X16827206Y-15669246D02*
X16817682Y-15621627D01*
X16817682Y-15621627D02*
X16808158Y-15593055D01*
X16808158Y-15593055D02*
X16798634Y-15574008D01*
X16798634Y-15574008D02*
X16779587Y-15545436D01*
X16779587Y-15545436D02*
X16770063Y-15535912D01*
D10*
X11989874Y-15949374D02*
X11989874Y-15924625D01*
X11965125Y-15924625D01*
X11965125Y-15949374D01*
X11989874Y-15949374D01*
D11*
X12293872Y-15828484D02*
X12312920Y-15828484D01*
X12312920Y-15828484D02*
X12331967Y-15838008D01*
X12331967Y-15838008D02*
X12341491Y-15847531D01*
X12341491Y-15847531D02*
X12351015Y-15866579D01*
X12351015Y-15866579D02*
X12360539Y-15904674D01*
X12360539Y-15904674D02*
X12360539Y-15952293D01*
X12360539Y-15952293D02*
X12351015Y-15990388D01*
X12351015Y-15990388D02*
X12341491Y-16009436D01*
X12341491Y-16009436D02*
X12331967Y-16018960D01*
X12331967Y-16018960D02*
X12312920Y-16028484D01*
X12312920Y-16028484D02*
X12293872Y-16028484D01*
X12293872Y-16028484D02*
X12274824Y-16018960D01*
X12274824Y-16018960D02*
X12265301Y-16009436D01*
X12265301Y-16009436D02*
X12255777Y-15990388D01*
X12255777Y-15990388D02*
X12246253Y-15952293D01*
X12246253Y-15952293D02*
X12246253Y-15904674D01*
X12246253Y-15904674D02*
X12255777Y-15866579D01*
X12255777Y-15866579D02*
X12265301Y-15847531D01*
X12265301Y-15847531D02*
X12274824Y-15838008D01*
X12274824Y-15838008D02*
X12293872Y-15828484D01*
X12446253Y-16009436D02*
X12455777Y-16018960D01*
X12455777Y-16018960D02*
X12446253Y-16028484D01*
X12446253Y-16028484D02*
X12436729Y-16018960D01*
X12436729Y-16018960D02*
X12446253Y-16009436D01*
X12446253Y-16009436D02*
X12446253Y-16028484D01*
X12522443Y-15828484D02*
X12646253Y-15828484D01*
X12646253Y-15828484D02*
X12579586Y-15904674D01*
X12579586Y-15904674D02*
X12608158Y-15904674D01*
X12608158Y-15904674D02*
X12627205Y-15914198D01*
X12627205Y-15914198D02*
X12636729Y-15923722D01*
X12636729Y-15923722D02*
X12646253Y-15942769D01*
X12646253Y-15942769D02*
X12646253Y-15990388D01*
X12646253Y-15990388D02*
X12636729Y-16009436D01*
X12636729Y-16009436D02*
X12627205Y-16018960D01*
X12627205Y-16018960D02*
X12608158Y-16028484D01*
X12608158Y-16028484D02*
X12551015Y-16028484D01*
X12551015Y-16028484D02*
X12531967Y-16018960D01*
X12531967Y-16018960D02*
X12522443Y-16009436D01*
X12827205Y-15828484D02*
X12731967Y-15828484D01*
X12731967Y-15828484D02*
X12722443Y-15923722D01*
X12722443Y-15923722D02*
X12731967Y-15914198D01*
X12731967Y-15914198D02*
X12751015Y-15904674D01*
X12751015Y-15904674D02*
X12798634Y-15904674D01*
X12798634Y-15904674D02*
X12817682Y-15914198D01*
X12817682Y-15914198D02*
X12827205Y-15923722D01*
X12827205Y-15923722D02*
X12836729Y-15942769D01*
X12836729Y-15942769D02*
X12836729Y-15990388D01*
X12836729Y-15990388D02*
X12827205Y-16009436D01*
X12827205Y-16009436D02*
X12817682Y-16018960D01*
X12817682Y-16018960D02*
X12798634Y-16028484D01*
X12798634Y-16028484D02*
X12751015Y-16028484D01*
X12751015Y-16028484D02*
X12731967Y-16018960D01*
X12731967Y-16018960D02*
X12722443Y-16009436D01*
X12960539Y-15828484D02*
X12979586Y-15828484D01*
X12979586Y-15828484D02*
X12998634Y-15838008D01*
X12998634Y-15838008D02*
X13008158Y-15847531D01*
X13008158Y-15847531D02*
X13017682Y-15866579D01*
X13017682Y-15866579D02*
X13027205Y-15904674D01*
X13027205Y-15904674D02*
X13027205Y-15952293D01*
X13027205Y-15952293D02*
X13017682Y-15990388D01*
X13017682Y-15990388D02*
X13008158Y-16009436D01*
X13008158Y-16009436D02*
X12998634Y-16018960D01*
X12998634Y-16018960D02*
X12979586Y-16028484D01*
X12979586Y-16028484D02*
X12960539Y-16028484D01*
X12960539Y-16028484D02*
X12941491Y-16018960D01*
X12941491Y-16018960D02*
X12931967Y-16009436D01*
X12931967Y-16009436D02*
X12922443Y-15990388D01*
X12922443Y-15990388D02*
X12912920Y-15952293D01*
X12912920Y-15952293D02*
X12912920Y-15904674D01*
X12912920Y-15904674D02*
X12922443Y-15866579D01*
X12922443Y-15866579D02*
X12931967Y-15847531D01*
X12931967Y-15847531D02*
X12941491Y-15838008D01*
X12941491Y-15838008D02*
X12960539Y-15828484D01*
X13112920Y-16028484D02*
X13112920Y-15895150D01*
X13112920Y-15914198D02*
X13122443Y-15904674D01*
X13122443Y-15904674D02*
X13141491Y-15895150D01*
X13141491Y-15895150D02*
X13170063Y-15895150D01*
X13170063Y-15895150D02*
X13189110Y-15904674D01*
X13189110Y-15904674D02*
X13198634Y-15923722D01*
X13198634Y-15923722D02*
X13198634Y-16028484D01*
X13198634Y-15923722D02*
X13208158Y-15904674D01*
X13208158Y-15904674D02*
X13227205Y-15895150D01*
X13227205Y-15895150D02*
X13255777Y-15895150D01*
X13255777Y-15895150D02*
X13274824Y-15904674D01*
X13274824Y-15904674D02*
X13284348Y-15923722D01*
X13284348Y-15923722D02*
X13284348Y-16028484D01*
X13379586Y-16028484D02*
X13379586Y-15895150D01*
X13379586Y-15914198D02*
X13389110Y-15904674D01*
X13389110Y-15904674D02*
X13408158Y-15895150D01*
X13408158Y-15895150D02*
X13436729Y-15895150D01*
X13436729Y-15895150D02*
X13455777Y-15904674D01*
X13455777Y-15904674D02*
X13465301Y-15923722D01*
X13465301Y-15923722D02*
X13465301Y-16028484D01*
X13465301Y-15923722D02*
X13474824Y-15904674D01*
X13474824Y-15904674D02*
X13493872Y-15895150D01*
X13493872Y-15895150D02*
X13522443Y-15895150D01*
X13522443Y-15895150D02*
X13541491Y-15904674D01*
X13541491Y-15904674D02*
X13551015Y-15923722D01*
X13551015Y-15923722D02*
X13551015Y-16028484D01*
X13941491Y-15818960D02*
X13770063Y-16076103D01*
X14198634Y-15828484D02*
X14217682Y-15828484D01*
X14217682Y-15828484D02*
X14236729Y-15838008D01*
X14236729Y-15838008D02*
X14246253Y-15847531D01*
X14246253Y-15847531D02*
X14255777Y-15866579D01*
X14255777Y-15866579D02*
X14265301Y-15904674D01*
X14265301Y-15904674D02*
X14265301Y-15952293D01*
X14265301Y-15952293D02*
X14255777Y-15990388D01*
X14255777Y-15990388D02*
X14246253Y-16009436D01*
X14246253Y-16009436D02*
X14236729Y-16018960D01*
X14236729Y-16018960D02*
X14217682Y-16028484D01*
X14217682Y-16028484D02*
X14198634Y-16028484D01*
X14198634Y-16028484D02*
X14179586Y-16018960D01*
X14179586Y-16018960D02*
X14170063Y-16009436D01*
X14170063Y-16009436D02*
X14160539Y-15990388D01*
X14160539Y-15990388D02*
X14151015Y-15952293D01*
X14151015Y-15952293D02*
X14151015Y-15904674D01*
X14151015Y-15904674D02*
X14160539Y-15866579D01*
X14160539Y-15866579D02*
X14170063Y-15847531D01*
X14170063Y-15847531D02*
X14179586Y-15838008D01*
X14179586Y-15838008D02*
X14198634Y-15828484D01*
X14351015Y-16009436D02*
X14360539Y-16018960D01*
X14360539Y-16018960D02*
X14351015Y-16028484D01*
X14351015Y-16028484D02*
X14341491Y-16018960D01*
X14341491Y-16018960D02*
X14351015Y-16009436D01*
X14351015Y-16009436D02*
X14351015Y-16028484D01*
X14484348Y-15828484D02*
X14503396Y-15828484D01*
X14503396Y-15828484D02*
X14522444Y-15838008D01*
X14522444Y-15838008D02*
X14531967Y-15847531D01*
X14531967Y-15847531D02*
X14541491Y-15866579D01*
X14541491Y-15866579D02*
X14551015Y-15904674D01*
X14551015Y-15904674D02*
X14551015Y-15952293D01*
X14551015Y-15952293D02*
X14541491Y-15990388D01*
X14541491Y-15990388D02*
X14531967Y-16009436D01*
X14531967Y-16009436D02*
X14522444Y-16018960D01*
X14522444Y-16018960D02*
X14503396Y-16028484D01*
X14503396Y-16028484D02*
X14484348Y-16028484D01*
X14484348Y-16028484D02*
X14465301Y-16018960D01*
X14465301Y-16018960D02*
X14455777Y-16009436D01*
X14455777Y-16009436D02*
X14446253Y-15990388D01*
X14446253Y-15990388D02*
X14436729Y-15952293D01*
X14436729Y-15952293D02*
X14436729Y-15904674D01*
X14436729Y-15904674D02*
X14446253Y-15866579D01*
X14446253Y-15866579D02*
X14455777Y-15847531D01*
X14455777Y-15847531D02*
X14465301Y-15838008D01*
X14465301Y-15838008D02*
X14484348Y-15828484D01*
X14741491Y-16028484D02*
X14627206Y-16028484D01*
X14684348Y-16028484D02*
X14684348Y-15828484D01*
X14684348Y-15828484D02*
X14665301Y-15857055D01*
X14665301Y-15857055D02*
X14646253Y-15876103D01*
X14646253Y-15876103D02*
X14627206Y-15885627D01*
X14808158Y-15828484D02*
X14931967Y-15828484D01*
X14931967Y-15828484D02*
X14865301Y-15904674D01*
X14865301Y-15904674D02*
X14893872Y-15904674D01*
X14893872Y-15904674D02*
X14912920Y-15914198D01*
X14912920Y-15914198D02*
X14922444Y-15923722D01*
X14922444Y-15923722D02*
X14931967Y-15942769D01*
X14931967Y-15942769D02*
X14931967Y-15990388D01*
X14931967Y-15990388D02*
X14922444Y-16009436D01*
X14922444Y-16009436D02*
X14912920Y-16018960D01*
X14912920Y-16018960D02*
X14893872Y-16028484D01*
X14893872Y-16028484D02*
X14836729Y-16028484D01*
X14836729Y-16028484D02*
X14817682Y-16018960D01*
X14817682Y-16018960D02*
X14808158Y-16009436D01*
X15046253Y-15914198D02*
X15027206Y-15904674D01*
X15027206Y-15904674D02*
X15017682Y-15895150D01*
X15017682Y-15895150D02*
X15008158Y-15876103D01*
X15008158Y-15876103D02*
X15008158Y-15866579D01*
X15008158Y-15866579D02*
X15017682Y-15847531D01*
X15017682Y-15847531D02*
X15027206Y-15838008D01*
X15027206Y-15838008D02*
X15046253Y-15828484D01*
X15046253Y-15828484D02*
X15084348Y-15828484D01*
X15084348Y-15828484D02*
X15103396Y-15838008D01*
X15103396Y-15838008D02*
X15112920Y-15847531D01*
X15112920Y-15847531D02*
X15122444Y-15866579D01*
X15122444Y-15866579D02*
X15122444Y-15876103D01*
X15122444Y-15876103D02*
X15112920Y-15895150D01*
X15112920Y-15895150D02*
X15103396Y-15904674D01*
X15103396Y-15904674D02*
X15084348Y-15914198D01*
X15084348Y-15914198D02*
X15046253Y-15914198D01*
X15046253Y-15914198D02*
X15027206Y-15923722D01*
X15027206Y-15923722D02*
X15017682Y-15933246D01*
X15017682Y-15933246D02*
X15008158Y-15952293D01*
X15008158Y-15952293D02*
X15008158Y-15990388D01*
X15008158Y-15990388D02*
X15017682Y-16009436D01*
X15017682Y-16009436D02*
X15027206Y-16018960D01*
X15027206Y-16018960D02*
X15046253Y-16028484D01*
X15046253Y-16028484D02*
X15084348Y-16028484D01*
X15084348Y-16028484D02*
X15103396Y-16018960D01*
X15103396Y-16018960D02*
X15112920Y-16009436D01*
X15112920Y-16009436D02*
X15122444Y-15990388D01*
X15122444Y-15990388D02*
X15122444Y-15952293D01*
X15122444Y-15952293D02*
X15112920Y-15933246D01*
X15112920Y-15933246D02*
X15103396Y-15923722D01*
X15103396Y-15923722D02*
X15084348Y-15914198D01*
X15198634Y-15828484D02*
X15198634Y-15866579D01*
X15274825Y-15828484D02*
X15274825Y-15866579D01*
X15570063Y-16104674D02*
X15560539Y-16095150D01*
X15560539Y-16095150D02*
X15541491Y-16066579D01*
X15541491Y-16066579D02*
X15531968Y-16047531D01*
X15531968Y-16047531D02*
X15522444Y-16018960D01*
X15522444Y-16018960D02*
X15512920Y-15971341D01*
X15512920Y-15971341D02*
X15512920Y-15933246D01*
X15512920Y-15933246D02*
X15522444Y-15885627D01*
X15522444Y-15885627D02*
X15531968Y-15857055D01*
X15531968Y-15857055D02*
X15541491Y-15838008D01*
X15541491Y-15838008D02*
X15560539Y-15809436D01*
X15560539Y-15809436D02*
X15570063Y-15799912D01*
X15627206Y-15828484D02*
X15760539Y-15828484D01*
X15760539Y-15828484D02*
X15674825Y-16028484D01*
X15827206Y-15847531D02*
X15836729Y-15838008D01*
X15836729Y-15838008D02*
X15855777Y-15828484D01*
X15855777Y-15828484D02*
X15903396Y-15828484D01*
X15903396Y-15828484D02*
X15922444Y-15838008D01*
X15922444Y-15838008D02*
X15931968Y-15847531D01*
X15931968Y-15847531D02*
X15941491Y-15866579D01*
X15941491Y-15866579D02*
X15941491Y-15885627D01*
X15941491Y-15885627D02*
X15931968Y-15914198D01*
X15931968Y-15914198D02*
X15817682Y-16028484D01*
X15817682Y-16028484D02*
X15941491Y-16028484D01*
X16179587Y-16028484D02*
X16179587Y-15828484D01*
X16265301Y-16028484D02*
X16265301Y-15923722D01*
X16265301Y-15923722D02*
X16255777Y-15904674D01*
X16255777Y-15904674D02*
X16236730Y-15895150D01*
X16236730Y-15895150D02*
X16208158Y-15895150D01*
X16208158Y-15895150D02*
X16189110Y-15904674D01*
X16189110Y-15904674D02*
X16179587Y-15914198D01*
X16389110Y-16028484D02*
X16370063Y-16018960D01*
X16370063Y-16018960D02*
X16360539Y-16009436D01*
X16360539Y-16009436D02*
X16351015Y-15990388D01*
X16351015Y-15990388D02*
X16351015Y-15933246D01*
X16351015Y-15933246D02*
X16360539Y-15914198D01*
X16360539Y-15914198D02*
X16370063Y-15904674D01*
X16370063Y-15904674D02*
X16389110Y-15895150D01*
X16389110Y-15895150D02*
X16417682Y-15895150D01*
X16417682Y-15895150D02*
X16436730Y-15904674D01*
X16436730Y-15904674D02*
X16446253Y-15914198D01*
X16446253Y-15914198D02*
X16455777Y-15933246D01*
X16455777Y-15933246D02*
X16455777Y-15990388D01*
X16455777Y-15990388D02*
X16446253Y-16009436D01*
X16446253Y-16009436D02*
X16436730Y-16018960D01*
X16436730Y-16018960D02*
X16417682Y-16028484D01*
X16417682Y-16028484D02*
X16389110Y-16028484D01*
X16570063Y-16028484D02*
X16551015Y-16018960D01*
X16551015Y-16018960D02*
X16541491Y-15999912D01*
X16541491Y-15999912D02*
X16541491Y-15828484D01*
X16722444Y-16018960D02*
X16703396Y-16028484D01*
X16703396Y-16028484D02*
X16665301Y-16028484D01*
X16665301Y-16028484D02*
X16646253Y-16018960D01*
X16646253Y-16018960D02*
X16636730Y-15999912D01*
X16636730Y-15999912D02*
X16636730Y-15923722D01*
X16636730Y-15923722D02*
X16646253Y-15904674D01*
X16646253Y-15904674D02*
X16665301Y-15895150D01*
X16665301Y-15895150D02*
X16703396Y-15895150D01*
X16703396Y-15895150D02*
X16722444Y-15904674D01*
X16722444Y-15904674D02*
X16731968Y-15923722D01*
X16731968Y-15923722D02*
X16731968Y-15942769D01*
X16731968Y-15942769D02*
X16636730Y-15961817D01*
X16808158Y-16018960D02*
X16827206Y-16028484D01*
X16827206Y-16028484D02*
X16865301Y-16028484D01*
X16865301Y-16028484D02*
X16884349Y-16018960D01*
X16884349Y-16018960D02*
X16893873Y-15999912D01*
X16893873Y-15999912D02*
X16893873Y-15990388D01*
X16893873Y-15990388D02*
X16884349Y-15971341D01*
X16884349Y-15971341D02*
X16865301Y-15961817D01*
X16865301Y-15961817D02*
X16836730Y-15961817D01*
X16836730Y-15961817D02*
X16817682Y-15952293D01*
X16817682Y-15952293D02*
X16808158Y-15933246D01*
X16808158Y-15933246D02*
X16808158Y-15923722D01*
X16808158Y-15923722D02*
X16817682Y-15904674D01*
X16817682Y-15904674D02*
X16836730Y-15895150D01*
X16836730Y-15895150D02*
X16865301Y-15895150D01*
X16865301Y-15895150D02*
X16884349Y-15904674D01*
X16960539Y-16104674D02*
X16970063Y-16095150D01*
X16970063Y-16095150D02*
X16989111Y-16066579D01*
X16989111Y-16066579D02*
X16998634Y-16047531D01*
X16998634Y-16047531D02*
X17008158Y-16018960D01*
X17008158Y-16018960D02*
X17017682Y-15971341D01*
X17017682Y-15971341D02*
X17017682Y-15933246D01*
X17017682Y-15933246D02*
X17008158Y-15885627D01*
X17008158Y-15885627D02*
X16998634Y-15857055D01*
X16998634Y-15857055D02*
X16989111Y-15838008D01*
X16989111Y-15838008D02*
X16970063Y-15809436D01*
X16970063Y-15809436D02*
X16960539Y-15799912D01*
D10*
X11975000Y-16221000D02*
X11995000Y-16201000D01*
X11975000Y-16181000D01*
X11955000Y-16201000D01*
X11975000Y-16221000D01*
D11*
X12293872Y-16092484D02*
X12312920Y-16092484D01*
X12312920Y-16092484D02*
X12331967Y-16102008D01*
X12331967Y-16102008D02*
X12341491Y-16111531D01*
X12341491Y-16111531D02*
X12351015Y-16130579D01*
X12351015Y-16130579D02*
X12360539Y-16168674D01*
X12360539Y-16168674D02*
X12360539Y-16216293D01*
X12360539Y-16216293D02*
X12351015Y-16254388D01*
X12351015Y-16254388D02*
X12341491Y-16273436D01*
X12341491Y-16273436D02*
X12331967Y-16282960D01*
X12331967Y-16282960D02*
X12312920Y-16292484D01*
X12312920Y-16292484D02*
X12293872Y-16292484D01*
X12293872Y-16292484D02*
X12274824Y-16282960D01*
X12274824Y-16282960D02*
X12265301Y-16273436D01*
X12265301Y-16273436D02*
X12255777Y-16254388D01*
X12255777Y-16254388D02*
X12246253Y-16216293D01*
X12246253Y-16216293D02*
X12246253Y-16168674D01*
X12246253Y-16168674D02*
X12255777Y-16130579D01*
X12255777Y-16130579D02*
X12265301Y-16111531D01*
X12265301Y-16111531D02*
X12274824Y-16102008D01*
X12274824Y-16102008D02*
X12293872Y-16092484D01*
X12446253Y-16273436D02*
X12455777Y-16282960D01*
X12455777Y-16282960D02*
X12446253Y-16292484D01*
X12446253Y-16292484D02*
X12436729Y-16282960D01*
X12436729Y-16282960D02*
X12446253Y-16273436D01*
X12446253Y-16273436D02*
X12446253Y-16292484D01*
X12627205Y-16159150D02*
X12627205Y-16292484D01*
X12579586Y-16082960D02*
X12531967Y-16225817D01*
X12531967Y-16225817D02*
X12655777Y-16225817D01*
X12770062Y-16092484D02*
X12789110Y-16092484D01*
X12789110Y-16092484D02*
X12808158Y-16102008D01*
X12808158Y-16102008D02*
X12817682Y-16111531D01*
X12817682Y-16111531D02*
X12827205Y-16130579D01*
X12827205Y-16130579D02*
X12836729Y-16168674D01*
X12836729Y-16168674D02*
X12836729Y-16216293D01*
X12836729Y-16216293D02*
X12827205Y-16254388D01*
X12827205Y-16254388D02*
X12817682Y-16273436D01*
X12817682Y-16273436D02*
X12808158Y-16282960D01*
X12808158Y-16282960D02*
X12789110Y-16292484D01*
X12789110Y-16292484D02*
X12770062Y-16292484D01*
X12770062Y-16292484D02*
X12751015Y-16282960D01*
X12751015Y-16282960D02*
X12741491Y-16273436D01*
X12741491Y-16273436D02*
X12731967Y-16254388D01*
X12731967Y-16254388D02*
X12722443Y-16216293D01*
X12722443Y-16216293D02*
X12722443Y-16168674D01*
X12722443Y-16168674D02*
X12731967Y-16130579D01*
X12731967Y-16130579D02*
X12741491Y-16111531D01*
X12741491Y-16111531D02*
X12751015Y-16102008D01*
X12751015Y-16102008D02*
X12770062Y-16092484D01*
X12960539Y-16092484D02*
X12979586Y-16092484D01*
X12979586Y-16092484D02*
X12998634Y-16102008D01*
X12998634Y-16102008D02*
X13008158Y-16111531D01*
X13008158Y-16111531D02*
X13017682Y-16130579D01*
X13017682Y-16130579D02*
X13027205Y-16168674D01*
X13027205Y-16168674D02*
X13027205Y-16216293D01*
X13027205Y-16216293D02*
X13017682Y-16254388D01*
X13017682Y-16254388D02*
X13008158Y-16273436D01*
X13008158Y-16273436D02*
X12998634Y-16282960D01*
X12998634Y-16282960D02*
X12979586Y-16292484D01*
X12979586Y-16292484D02*
X12960539Y-16292484D01*
X12960539Y-16292484D02*
X12941491Y-16282960D01*
X12941491Y-16282960D02*
X12931967Y-16273436D01*
X12931967Y-16273436D02*
X12922443Y-16254388D01*
X12922443Y-16254388D02*
X12912920Y-16216293D01*
X12912920Y-16216293D02*
X12912920Y-16168674D01*
X12912920Y-16168674D02*
X12922443Y-16130579D01*
X12922443Y-16130579D02*
X12931967Y-16111531D01*
X12931967Y-16111531D02*
X12941491Y-16102008D01*
X12941491Y-16102008D02*
X12960539Y-16092484D01*
X13112920Y-16292484D02*
X13112920Y-16159150D01*
X13112920Y-16178198D02*
X13122443Y-16168674D01*
X13122443Y-16168674D02*
X13141491Y-16159150D01*
X13141491Y-16159150D02*
X13170063Y-16159150D01*
X13170063Y-16159150D02*
X13189110Y-16168674D01*
X13189110Y-16168674D02*
X13198634Y-16187722D01*
X13198634Y-16187722D02*
X13198634Y-16292484D01*
X13198634Y-16187722D02*
X13208158Y-16168674D01*
X13208158Y-16168674D02*
X13227205Y-16159150D01*
X13227205Y-16159150D02*
X13255777Y-16159150D01*
X13255777Y-16159150D02*
X13274824Y-16168674D01*
X13274824Y-16168674D02*
X13284348Y-16187722D01*
X13284348Y-16187722D02*
X13284348Y-16292484D01*
X13379586Y-16292484D02*
X13379586Y-16159150D01*
X13379586Y-16178198D02*
X13389110Y-16168674D01*
X13389110Y-16168674D02*
X13408158Y-16159150D01*
X13408158Y-16159150D02*
X13436729Y-16159150D01*
X13436729Y-16159150D02*
X13455777Y-16168674D01*
X13455777Y-16168674D02*
X13465301Y-16187722D01*
X13465301Y-16187722D02*
X13465301Y-16292484D01*
X13465301Y-16187722D02*
X13474824Y-16168674D01*
X13474824Y-16168674D02*
X13493872Y-16159150D01*
X13493872Y-16159150D02*
X13522443Y-16159150D01*
X13522443Y-16159150D02*
X13541491Y-16168674D01*
X13541491Y-16168674D02*
X13551015Y-16187722D01*
X13551015Y-16187722D02*
X13551015Y-16292484D01*
X13941491Y-16082960D02*
X13770063Y-16340103D01*
X14198634Y-16092484D02*
X14217682Y-16092484D01*
X14217682Y-16092484D02*
X14236729Y-16102008D01*
X14236729Y-16102008D02*
X14246253Y-16111531D01*
X14246253Y-16111531D02*
X14255777Y-16130579D01*
X14255777Y-16130579D02*
X14265301Y-16168674D01*
X14265301Y-16168674D02*
X14265301Y-16216293D01*
X14265301Y-16216293D02*
X14255777Y-16254388D01*
X14255777Y-16254388D02*
X14246253Y-16273436D01*
X14246253Y-16273436D02*
X14236729Y-16282960D01*
X14236729Y-16282960D02*
X14217682Y-16292484D01*
X14217682Y-16292484D02*
X14198634Y-16292484D01*
X14198634Y-16292484D02*
X14179586Y-16282960D01*
X14179586Y-16282960D02*
X14170063Y-16273436D01*
X14170063Y-16273436D02*
X14160539Y-16254388D01*
X14160539Y-16254388D02*
X14151015Y-16216293D01*
X14151015Y-16216293D02*
X14151015Y-16168674D01*
X14151015Y-16168674D02*
X14160539Y-16130579D01*
X14160539Y-16130579D02*
X14170063Y-16111531D01*
X14170063Y-16111531D02*
X14179586Y-16102008D01*
X14179586Y-16102008D02*
X14198634Y-16092484D01*
X14351015Y-16273436D02*
X14360539Y-16282960D01*
X14360539Y-16282960D02*
X14351015Y-16292484D01*
X14351015Y-16292484D02*
X14341491Y-16282960D01*
X14341491Y-16282960D02*
X14351015Y-16273436D01*
X14351015Y-16273436D02*
X14351015Y-16292484D01*
X14484348Y-16092484D02*
X14503396Y-16092484D01*
X14503396Y-16092484D02*
X14522444Y-16102008D01*
X14522444Y-16102008D02*
X14531967Y-16111531D01*
X14531967Y-16111531D02*
X14541491Y-16130579D01*
X14541491Y-16130579D02*
X14551015Y-16168674D01*
X14551015Y-16168674D02*
X14551015Y-16216293D01*
X14551015Y-16216293D02*
X14541491Y-16254388D01*
X14541491Y-16254388D02*
X14531967Y-16273436D01*
X14531967Y-16273436D02*
X14522444Y-16282960D01*
X14522444Y-16282960D02*
X14503396Y-16292484D01*
X14503396Y-16292484D02*
X14484348Y-16292484D01*
X14484348Y-16292484D02*
X14465301Y-16282960D01*
X14465301Y-16282960D02*
X14455777Y-16273436D01*
X14455777Y-16273436D02*
X14446253Y-16254388D01*
X14446253Y-16254388D02*
X14436729Y-16216293D01*
X14436729Y-16216293D02*
X14436729Y-16168674D01*
X14436729Y-16168674D02*
X14446253Y-16130579D01*
X14446253Y-16130579D02*
X14455777Y-16111531D01*
X14455777Y-16111531D02*
X14465301Y-16102008D01*
X14465301Y-16102008D02*
X14484348Y-16092484D01*
X14741491Y-16292484D02*
X14627206Y-16292484D01*
X14684348Y-16292484D02*
X14684348Y-16092484D01*
X14684348Y-16092484D02*
X14665301Y-16121055D01*
X14665301Y-16121055D02*
X14646253Y-16140103D01*
X14646253Y-16140103D02*
X14627206Y-16149627D01*
X14922444Y-16092484D02*
X14827206Y-16092484D01*
X14827206Y-16092484D02*
X14817682Y-16187722D01*
X14817682Y-16187722D02*
X14827206Y-16178198D01*
X14827206Y-16178198D02*
X14846253Y-16168674D01*
X14846253Y-16168674D02*
X14893872Y-16168674D01*
X14893872Y-16168674D02*
X14912920Y-16178198D01*
X14912920Y-16178198D02*
X14922444Y-16187722D01*
X14922444Y-16187722D02*
X14931967Y-16206769D01*
X14931967Y-16206769D02*
X14931967Y-16254388D01*
X14931967Y-16254388D02*
X14922444Y-16273436D01*
X14922444Y-16273436D02*
X14912920Y-16282960D01*
X14912920Y-16282960D02*
X14893872Y-16292484D01*
X14893872Y-16292484D02*
X14846253Y-16292484D01*
X14846253Y-16292484D02*
X14827206Y-16282960D01*
X14827206Y-16282960D02*
X14817682Y-16273436D01*
X14998634Y-16092484D02*
X15131967Y-16092484D01*
X15131967Y-16092484D02*
X15046253Y-16292484D01*
X15198634Y-16092484D02*
X15198634Y-16130579D01*
X15274825Y-16092484D02*
X15274825Y-16130579D01*
X15570063Y-16368674D02*
X15560539Y-16359150D01*
X15560539Y-16359150D02*
X15541491Y-16330579D01*
X15541491Y-16330579D02*
X15531968Y-16311531D01*
X15531968Y-16311531D02*
X15522444Y-16282960D01*
X15522444Y-16282960D02*
X15512920Y-16235341D01*
X15512920Y-16235341D02*
X15512920Y-16197246D01*
X15512920Y-16197246D02*
X15522444Y-16149627D01*
X15522444Y-16149627D02*
X15531968Y-16121055D01*
X15531968Y-16121055D02*
X15541491Y-16102008D01*
X15541491Y-16102008D02*
X15560539Y-16073436D01*
X15560539Y-16073436D02*
X15570063Y-16063912D01*
X15731968Y-16159150D02*
X15731968Y-16292484D01*
X15684348Y-16082960D02*
X15636729Y-16225817D01*
X15636729Y-16225817D02*
X15760539Y-16225817D01*
X15931968Y-16092484D02*
X15836729Y-16092484D01*
X15836729Y-16092484D02*
X15827206Y-16187722D01*
X15827206Y-16187722D02*
X15836729Y-16178198D01*
X15836729Y-16178198D02*
X15855777Y-16168674D01*
X15855777Y-16168674D02*
X15903396Y-16168674D01*
X15903396Y-16168674D02*
X15922444Y-16178198D01*
X15922444Y-16178198D02*
X15931968Y-16187722D01*
X15931968Y-16187722D02*
X15941491Y-16206769D01*
X15941491Y-16206769D02*
X15941491Y-16254388D01*
X15941491Y-16254388D02*
X15931968Y-16273436D01*
X15931968Y-16273436D02*
X15922444Y-16282960D01*
X15922444Y-16282960D02*
X15903396Y-16292484D01*
X15903396Y-16292484D02*
X15855777Y-16292484D01*
X15855777Y-16292484D02*
X15836729Y-16282960D01*
X15836729Y-16282960D02*
X15827206Y-16273436D01*
X16179587Y-16292484D02*
X16179587Y-16092484D01*
X16265301Y-16292484D02*
X16265301Y-16187722D01*
X16265301Y-16187722D02*
X16255777Y-16168674D01*
X16255777Y-16168674D02*
X16236730Y-16159150D01*
X16236730Y-16159150D02*
X16208158Y-16159150D01*
X16208158Y-16159150D02*
X16189110Y-16168674D01*
X16189110Y-16168674D02*
X16179587Y-16178198D01*
X16389110Y-16292484D02*
X16370063Y-16282960D01*
X16370063Y-16282960D02*
X16360539Y-16273436D01*
X16360539Y-16273436D02*
X16351015Y-16254388D01*
X16351015Y-16254388D02*
X16351015Y-16197246D01*
X16351015Y-16197246D02*
X16360539Y-16178198D01*
X16360539Y-16178198D02*
X16370063Y-16168674D01*
X16370063Y-16168674D02*
X16389110Y-16159150D01*
X16389110Y-16159150D02*
X16417682Y-16159150D01*
X16417682Y-16159150D02*
X16436730Y-16168674D01*
X16436730Y-16168674D02*
X16446253Y-16178198D01*
X16446253Y-16178198D02*
X16455777Y-16197246D01*
X16455777Y-16197246D02*
X16455777Y-16254388D01*
X16455777Y-16254388D02*
X16446253Y-16273436D01*
X16446253Y-16273436D02*
X16436730Y-16282960D01*
X16436730Y-16282960D02*
X16417682Y-16292484D01*
X16417682Y-16292484D02*
X16389110Y-16292484D01*
X16570063Y-16292484D02*
X16551015Y-16282960D01*
X16551015Y-16282960D02*
X16541491Y-16263912D01*
X16541491Y-16263912D02*
X16541491Y-16092484D01*
X16722444Y-16282960D02*
X16703396Y-16292484D01*
X16703396Y-16292484D02*
X16665301Y-16292484D01*
X16665301Y-16292484D02*
X16646253Y-16282960D01*
X16646253Y-16282960D02*
X16636730Y-16263912D01*
X16636730Y-16263912D02*
X16636730Y-16187722D01*
X16636730Y-16187722D02*
X16646253Y-16168674D01*
X16646253Y-16168674D02*
X16665301Y-16159150D01*
X16665301Y-16159150D02*
X16703396Y-16159150D01*
X16703396Y-16159150D02*
X16722444Y-16168674D01*
X16722444Y-16168674D02*
X16731968Y-16187722D01*
X16731968Y-16187722D02*
X16731968Y-16206769D01*
X16731968Y-16206769D02*
X16636730Y-16225817D01*
X16808158Y-16282960D02*
X16827206Y-16292484D01*
X16827206Y-16292484D02*
X16865301Y-16292484D01*
X16865301Y-16292484D02*
X16884349Y-16282960D01*
X16884349Y-16282960D02*
X16893873Y-16263912D01*
X16893873Y-16263912D02*
X16893873Y-16254388D01*
X16893873Y-16254388D02*
X16884349Y-16235341D01*
X16884349Y-16235341D02*
X16865301Y-16225817D01*
X16865301Y-16225817D02*
X16836730Y-16225817D01*
X16836730Y-16225817D02*
X16817682Y-16216293D01*
X16817682Y-16216293D02*
X16808158Y-16197246D01*
X16808158Y-16197246D02*
X16808158Y-16187722D01*
X16808158Y-16187722D02*
X16817682Y-16168674D01*
X16817682Y-16168674D02*
X16836730Y-16159150D01*
X16836730Y-16159150D02*
X16865301Y-16159150D01*
X16865301Y-16159150D02*
X16884349Y-16168674D01*
X16960539Y-16368674D02*
X16970063Y-16359150D01*
X16970063Y-16359150D02*
X16989111Y-16330579D01*
X16989111Y-16330579D02*
X16998634Y-16311531D01*
X16998634Y-16311531D02*
X17008158Y-16282960D01*
X17008158Y-16282960D02*
X17017682Y-16235341D01*
X17017682Y-16235341D02*
X17017682Y-16197246D01*
X17017682Y-16197246D02*
X17008158Y-16149627D01*
X17008158Y-16149627D02*
X16998634Y-16121055D01*
X16998634Y-16121055D02*
X16989111Y-16102008D01*
X16989111Y-16102008D02*
X16970063Y-16073436D01*
X16970063Y-16073436D02*
X16960539Y-16063912D01*
D10*
X11895000Y-16415000D02*
X11995000Y-16515000D01*
X11995000Y-16415000D02*
X11895000Y-16515000D01*
X11995000Y-16465000D02*
G75*
G03*
X11995000Y-16465000I-50000J0D01*
G01*
D11*
X12360539Y-16556484D02*
X12246253Y-16556484D01*
X12303396Y-16556484D02*
X12303396Y-16356484D01*
X12303396Y-16356484D02*
X12284348Y-16385055D01*
X12284348Y-16385055D02*
X12265301Y-16404103D01*
X12265301Y-16404103D02*
X12246253Y-16413627D01*
X12446253Y-16537436D02*
X12455777Y-16546960D01*
X12455777Y-16546960D02*
X12446253Y-16556484D01*
X12446253Y-16556484D02*
X12436729Y-16546960D01*
X12436729Y-16546960D02*
X12446253Y-16537436D01*
X12446253Y-16537436D02*
X12446253Y-16556484D01*
X12579586Y-16356484D02*
X12598634Y-16356484D01*
X12598634Y-16356484D02*
X12617682Y-16366008D01*
X12617682Y-16366008D02*
X12627205Y-16375531D01*
X12627205Y-16375531D02*
X12636729Y-16394579D01*
X12636729Y-16394579D02*
X12646253Y-16432674D01*
X12646253Y-16432674D02*
X12646253Y-16480293D01*
X12646253Y-16480293D02*
X12636729Y-16518388D01*
X12636729Y-16518388D02*
X12627205Y-16537436D01*
X12627205Y-16537436D02*
X12617682Y-16546960D01*
X12617682Y-16546960D02*
X12598634Y-16556484D01*
X12598634Y-16556484D02*
X12579586Y-16556484D01*
X12579586Y-16556484D02*
X12560539Y-16546960D01*
X12560539Y-16546960D02*
X12551015Y-16537436D01*
X12551015Y-16537436D02*
X12541491Y-16518388D01*
X12541491Y-16518388D02*
X12531967Y-16480293D01*
X12531967Y-16480293D02*
X12531967Y-16432674D01*
X12531967Y-16432674D02*
X12541491Y-16394579D01*
X12541491Y-16394579D02*
X12551015Y-16375531D01*
X12551015Y-16375531D02*
X12560539Y-16366008D01*
X12560539Y-16366008D02*
X12579586Y-16356484D01*
X12770062Y-16356484D02*
X12789110Y-16356484D01*
X12789110Y-16356484D02*
X12808158Y-16366008D01*
X12808158Y-16366008D02*
X12817682Y-16375531D01*
X12817682Y-16375531D02*
X12827205Y-16394579D01*
X12827205Y-16394579D02*
X12836729Y-16432674D01*
X12836729Y-16432674D02*
X12836729Y-16480293D01*
X12836729Y-16480293D02*
X12827205Y-16518388D01*
X12827205Y-16518388D02*
X12817682Y-16537436D01*
X12817682Y-16537436D02*
X12808158Y-16546960D01*
X12808158Y-16546960D02*
X12789110Y-16556484D01*
X12789110Y-16556484D02*
X12770062Y-16556484D01*
X12770062Y-16556484D02*
X12751015Y-16546960D01*
X12751015Y-16546960D02*
X12741491Y-16537436D01*
X12741491Y-16537436D02*
X12731967Y-16518388D01*
X12731967Y-16518388D02*
X12722443Y-16480293D01*
X12722443Y-16480293D02*
X12722443Y-16432674D01*
X12722443Y-16432674D02*
X12731967Y-16394579D01*
X12731967Y-16394579D02*
X12741491Y-16375531D01*
X12741491Y-16375531D02*
X12751015Y-16366008D01*
X12751015Y-16366008D02*
X12770062Y-16356484D01*
X12960539Y-16356484D02*
X12979586Y-16356484D01*
X12979586Y-16356484D02*
X12998634Y-16366008D01*
X12998634Y-16366008D02*
X13008158Y-16375531D01*
X13008158Y-16375531D02*
X13017682Y-16394579D01*
X13017682Y-16394579D02*
X13027205Y-16432674D01*
X13027205Y-16432674D02*
X13027205Y-16480293D01*
X13027205Y-16480293D02*
X13017682Y-16518388D01*
X13017682Y-16518388D02*
X13008158Y-16537436D01*
X13008158Y-16537436D02*
X12998634Y-16546960D01*
X12998634Y-16546960D02*
X12979586Y-16556484D01*
X12979586Y-16556484D02*
X12960539Y-16556484D01*
X12960539Y-16556484D02*
X12941491Y-16546960D01*
X12941491Y-16546960D02*
X12931967Y-16537436D01*
X12931967Y-16537436D02*
X12922443Y-16518388D01*
X12922443Y-16518388D02*
X12912920Y-16480293D01*
X12912920Y-16480293D02*
X12912920Y-16432674D01*
X12912920Y-16432674D02*
X12922443Y-16394579D01*
X12922443Y-16394579D02*
X12931967Y-16375531D01*
X12931967Y-16375531D02*
X12941491Y-16366008D01*
X12941491Y-16366008D02*
X12960539Y-16356484D01*
X13112920Y-16556484D02*
X13112920Y-16423150D01*
X13112920Y-16442198D02*
X13122443Y-16432674D01*
X13122443Y-16432674D02*
X13141491Y-16423150D01*
X13141491Y-16423150D02*
X13170063Y-16423150D01*
X13170063Y-16423150D02*
X13189110Y-16432674D01*
X13189110Y-16432674D02*
X13198634Y-16451722D01*
X13198634Y-16451722D02*
X13198634Y-16556484D01*
X13198634Y-16451722D02*
X13208158Y-16432674D01*
X13208158Y-16432674D02*
X13227205Y-16423150D01*
X13227205Y-16423150D02*
X13255777Y-16423150D01*
X13255777Y-16423150D02*
X13274824Y-16432674D01*
X13274824Y-16432674D02*
X13284348Y-16451722D01*
X13284348Y-16451722D02*
X13284348Y-16556484D01*
X13379586Y-16556484D02*
X13379586Y-16423150D01*
X13379586Y-16442198D02*
X13389110Y-16432674D01*
X13389110Y-16432674D02*
X13408158Y-16423150D01*
X13408158Y-16423150D02*
X13436729Y-16423150D01*
X13436729Y-16423150D02*
X13455777Y-16432674D01*
X13455777Y-16432674D02*
X13465301Y-16451722D01*
X13465301Y-16451722D02*
X13465301Y-16556484D01*
X13465301Y-16451722D02*
X13474824Y-16432674D01*
X13474824Y-16432674D02*
X13493872Y-16423150D01*
X13493872Y-16423150D02*
X13522443Y-16423150D01*
X13522443Y-16423150D02*
X13541491Y-16432674D01*
X13541491Y-16432674D02*
X13551015Y-16451722D01*
X13551015Y-16451722D02*
X13551015Y-16556484D01*
X13941491Y-16346960D02*
X13770063Y-16604103D01*
X14198634Y-16356484D02*
X14217682Y-16356484D01*
X14217682Y-16356484D02*
X14236729Y-16366008D01*
X14236729Y-16366008D02*
X14246253Y-16375531D01*
X14246253Y-16375531D02*
X14255777Y-16394579D01*
X14255777Y-16394579D02*
X14265301Y-16432674D01*
X14265301Y-16432674D02*
X14265301Y-16480293D01*
X14265301Y-16480293D02*
X14255777Y-16518388D01*
X14255777Y-16518388D02*
X14246253Y-16537436D01*
X14246253Y-16537436D02*
X14236729Y-16546960D01*
X14236729Y-16546960D02*
X14217682Y-16556484D01*
X14217682Y-16556484D02*
X14198634Y-16556484D01*
X14198634Y-16556484D02*
X14179586Y-16546960D01*
X14179586Y-16546960D02*
X14170063Y-16537436D01*
X14170063Y-16537436D02*
X14160539Y-16518388D01*
X14160539Y-16518388D02*
X14151015Y-16480293D01*
X14151015Y-16480293D02*
X14151015Y-16432674D01*
X14151015Y-16432674D02*
X14160539Y-16394579D01*
X14160539Y-16394579D02*
X14170063Y-16375531D01*
X14170063Y-16375531D02*
X14179586Y-16366008D01*
X14179586Y-16366008D02*
X14198634Y-16356484D01*
X14351015Y-16537436D02*
X14360539Y-16546960D01*
X14360539Y-16546960D02*
X14351015Y-16556484D01*
X14351015Y-16556484D02*
X14341491Y-16546960D01*
X14341491Y-16546960D02*
X14351015Y-16537436D01*
X14351015Y-16537436D02*
X14351015Y-16556484D01*
X14484348Y-16356484D02*
X14503396Y-16356484D01*
X14503396Y-16356484D02*
X14522444Y-16366008D01*
X14522444Y-16366008D02*
X14531967Y-16375531D01*
X14531967Y-16375531D02*
X14541491Y-16394579D01*
X14541491Y-16394579D02*
X14551015Y-16432674D01*
X14551015Y-16432674D02*
X14551015Y-16480293D01*
X14551015Y-16480293D02*
X14541491Y-16518388D01*
X14541491Y-16518388D02*
X14531967Y-16537436D01*
X14531967Y-16537436D02*
X14522444Y-16546960D01*
X14522444Y-16546960D02*
X14503396Y-16556484D01*
X14503396Y-16556484D02*
X14484348Y-16556484D01*
X14484348Y-16556484D02*
X14465301Y-16546960D01*
X14465301Y-16546960D02*
X14455777Y-16537436D01*
X14455777Y-16537436D02*
X14446253Y-16518388D01*
X14446253Y-16518388D02*
X14436729Y-16480293D01*
X14436729Y-16480293D02*
X14436729Y-16432674D01*
X14436729Y-16432674D02*
X14446253Y-16394579D01*
X14446253Y-16394579D02*
X14455777Y-16375531D01*
X14455777Y-16375531D02*
X14465301Y-16366008D01*
X14465301Y-16366008D02*
X14484348Y-16356484D01*
X14617682Y-16356484D02*
X14741491Y-16356484D01*
X14741491Y-16356484D02*
X14674825Y-16432674D01*
X14674825Y-16432674D02*
X14703396Y-16432674D01*
X14703396Y-16432674D02*
X14722444Y-16442198D01*
X14722444Y-16442198D02*
X14731967Y-16451722D01*
X14731967Y-16451722D02*
X14741491Y-16470769D01*
X14741491Y-16470769D02*
X14741491Y-16518388D01*
X14741491Y-16518388D02*
X14731967Y-16537436D01*
X14731967Y-16537436D02*
X14722444Y-16546960D01*
X14722444Y-16546960D02*
X14703396Y-16556484D01*
X14703396Y-16556484D02*
X14646253Y-16556484D01*
X14646253Y-16556484D02*
X14627206Y-16546960D01*
X14627206Y-16546960D02*
X14617682Y-16537436D01*
X14836729Y-16556484D02*
X14874825Y-16556484D01*
X14874825Y-16556484D02*
X14893872Y-16546960D01*
X14893872Y-16546960D02*
X14903396Y-16537436D01*
X14903396Y-16537436D02*
X14922444Y-16508865D01*
X14922444Y-16508865D02*
X14931967Y-16470769D01*
X14931967Y-16470769D02*
X14931967Y-16394579D01*
X14931967Y-16394579D02*
X14922444Y-16375531D01*
X14922444Y-16375531D02*
X14912920Y-16366008D01*
X14912920Y-16366008D02*
X14893872Y-16356484D01*
X14893872Y-16356484D02*
X14855777Y-16356484D01*
X14855777Y-16356484D02*
X14836729Y-16366008D01*
X14836729Y-16366008D02*
X14827206Y-16375531D01*
X14827206Y-16375531D02*
X14817682Y-16394579D01*
X14817682Y-16394579D02*
X14817682Y-16442198D01*
X14817682Y-16442198D02*
X14827206Y-16461246D01*
X14827206Y-16461246D02*
X14836729Y-16470769D01*
X14836729Y-16470769D02*
X14855777Y-16480293D01*
X14855777Y-16480293D02*
X14893872Y-16480293D01*
X14893872Y-16480293D02*
X14912920Y-16470769D01*
X14912920Y-16470769D02*
X14922444Y-16461246D01*
X14922444Y-16461246D02*
X14931967Y-16442198D01*
X15103396Y-16423150D02*
X15103396Y-16556484D01*
X15055777Y-16346960D02*
X15008158Y-16489817D01*
X15008158Y-16489817D02*
X15131967Y-16489817D01*
X15198634Y-16356484D02*
X15198634Y-16394579D01*
X15274825Y-16356484D02*
X15274825Y-16394579D01*
X15570063Y-16632674D02*
X15560539Y-16623150D01*
X15560539Y-16623150D02*
X15541491Y-16594579D01*
X15541491Y-16594579D02*
X15531968Y-16575531D01*
X15531968Y-16575531D02*
X15522444Y-16546960D01*
X15522444Y-16546960D02*
X15512920Y-16499341D01*
X15512920Y-16499341D02*
X15512920Y-16461246D01*
X15512920Y-16461246D02*
X15522444Y-16413627D01*
X15522444Y-16413627D02*
X15531968Y-16385055D01*
X15531968Y-16385055D02*
X15541491Y-16366008D01*
X15541491Y-16366008D02*
X15560539Y-16337436D01*
X15560539Y-16337436D02*
X15570063Y-16327912D01*
X15627206Y-16356484D02*
X15751015Y-16356484D01*
X15751015Y-16356484D02*
X15684348Y-16432674D01*
X15684348Y-16432674D02*
X15712920Y-16432674D01*
X15712920Y-16432674D02*
X15731968Y-16442198D01*
X15731968Y-16442198D02*
X15741491Y-16451722D01*
X15741491Y-16451722D02*
X15751015Y-16470769D01*
X15751015Y-16470769D02*
X15751015Y-16518388D01*
X15751015Y-16518388D02*
X15741491Y-16537436D01*
X15741491Y-16537436D02*
X15731968Y-16546960D01*
X15731968Y-16546960D02*
X15712920Y-16556484D01*
X15712920Y-16556484D02*
X15655777Y-16556484D01*
X15655777Y-16556484D02*
X15636729Y-16546960D01*
X15636729Y-16546960D02*
X15627206Y-16537436D01*
X15922444Y-16423150D02*
X15922444Y-16556484D01*
X15874825Y-16346960D02*
X15827206Y-16489817D01*
X15827206Y-16489817D02*
X15951015Y-16489817D01*
X16179587Y-16556484D02*
X16179587Y-16356484D01*
X16265301Y-16556484D02*
X16265301Y-16451722D01*
X16265301Y-16451722D02*
X16255777Y-16432674D01*
X16255777Y-16432674D02*
X16236730Y-16423150D01*
X16236730Y-16423150D02*
X16208158Y-16423150D01*
X16208158Y-16423150D02*
X16189110Y-16432674D01*
X16189110Y-16432674D02*
X16179587Y-16442198D01*
X16389110Y-16556484D02*
X16370063Y-16546960D01*
X16370063Y-16546960D02*
X16360539Y-16537436D01*
X16360539Y-16537436D02*
X16351015Y-16518388D01*
X16351015Y-16518388D02*
X16351015Y-16461246D01*
X16351015Y-16461246D02*
X16360539Y-16442198D01*
X16360539Y-16442198D02*
X16370063Y-16432674D01*
X16370063Y-16432674D02*
X16389110Y-16423150D01*
X16389110Y-16423150D02*
X16417682Y-16423150D01*
X16417682Y-16423150D02*
X16436730Y-16432674D01*
X16436730Y-16432674D02*
X16446253Y-16442198D01*
X16446253Y-16442198D02*
X16455777Y-16461246D01*
X16455777Y-16461246D02*
X16455777Y-16518388D01*
X16455777Y-16518388D02*
X16446253Y-16537436D01*
X16446253Y-16537436D02*
X16436730Y-16546960D01*
X16436730Y-16546960D02*
X16417682Y-16556484D01*
X16417682Y-16556484D02*
X16389110Y-16556484D01*
X16570063Y-16556484D02*
X16551015Y-16546960D01*
X16551015Y-16546960D02*
X16541491Y-16527912D01*
X16541491Y-16527912D02*
X16541491Y-16356484D01*
X16722444Y-16546960D02*
X16703396Y-16556484D01*
X16703396Y-16556484D02*
X16665301Y-16556484D01*
X16665301Y-16556484D02*
X16646253Y-16546960D01*
X16646253Y-16546960D02*
X16636730Y-16527912D01*
X16636730Y-16527912D02*
X16636730Y-16451722D01*
X16636730Y-16451722D02*
X16646253Y-16432674D01*
X16646253Y-16432674D02*
X16665301Y-16423150D01*
X16665301Y-16423150D02*
X16703396Y-16423150D01*
X16703396Y-16423150D02*
X16722444Y-16432674D01*
X16722444Y-16432674D02*
X16731968Y-16451722D01*
X16731968Y-16451722D02*
X16731968Y-16470769D01*
X16731968Y-16470769D02*
X16636730Y-16489817D01*
X16808158Y-16546960D02*
X16827206Y-16556484D01*
X16827206Y-16556484D02*
X16865301Y-16556484D01*
X16865301Y-16556484D02*
X16884349Y-16546960D01*
X16884349Y-16546960D02*
X16893873Y-16527912D01*
X16893873Y-16527912D02*
X16893873Y-16518388D01*
X16893873Y-16518388D02*
X16884349Y-16499341D01*
X16884349Y-16499341D02*
X16865301Y-16489817D01*
X16865301Y-16489817D02*
X16836730Y-16489817D01*
X16836730Y-16489817D02*
X16817682Y-16480293D01*
X16817682Y-16480293D02*
X16808158Y-16461246D01*
X16808158Y-16461246D02*
X16808158Y-16451722D01*
X16808158Y-16451722D02*
X16817682Y-16432674D01*
X16817682Y-16432674D02*
X16836730Y-16423150D01*
X16836730Y-16423150D02*
X16865301Y-16423150D01*
X16865301Y-16423150D02*
X16884349Y-16432674D01*
X16960539Y-16632674D02*
X16970063Y-16623150D01*
X16970063Y-16623150D02*
X16989111Y-16594579D01*
X16989111Y-16594579D02*
X16998634Y-16575531D01*
X16998634Y-16575531D02*
X17008158Y-16546960D01*
X17008158Y-16546960D02*
X17017682Y-16499341D01*
X17017682Y-16499341D02*
X17017682Y-16461246D01*
X17017682Y-16461246D02*
X17008158Y-16413627D01*
X17008158Y-16413627D02*
X16998634Y-16385055D01*
X16998634Y-16385055D02*
X16989111Y-16366008D01*
X16989111Y-16366008D02*
X16970063Y-16337436D01*
X16970063Y-16337436D02*
X16960539Y-16327912D01*
D12*
X11875000Y-16669000D02*
X11995000Y-16789000D01*
X11995000Y-16669000D02*
X11875000Y-16789000D01*
X11935000Y-16669000D02*
X11935000Y-16789000D01*
X11875000Y-16729000D02*
X11995000Y-16729000D01*
D11*
X12360539Y-16820484D02*
X12246253Y-16820484D01*
X12303396Y-16820484D02*
X12303396Y-16620484D01*
X12303396Y-16620484D02*
X12284348Y-16649055D01*
X12284348Y-16649055D02*
X12265301Y-16668103D01*
X12265301Y-16668103D02*
X12246253Y-16677627D01*
X12446253Y-16801436D02*
X12455777Y-16810960D01*
X12455777Y-16810960D02*
X12446253Y-16820484D01*
X12446253Y-16820484D02*
X12436729Y-16810960D01*
X12436729Y-16810960D02*
X12446253Y-16801436D01*
X12446253Y-16801436D02*
X12446253Y-16820484D01*
X12531967Y-16639531D02*
X12541491Y-16630008D01*
X12541491Y-16630008D02*
X12560539Y-16620484D01*
X12560539Y-16620484D02*
X12608158Y-16620484D01*
X12608158Y-16620484D02*
X12627205Y-16630008D01*
X12627205Y-16630008D02*
X12636729Y-16639531D01*
X12636729Y-16639531D02*
X12646253Y-16658579D01*
X12646253Y-16658579D02*
X12646253Y-16677627D01*
X12646253Y-16677627D02*
X12636729Y-16706198D01*
X12636729Y-16706198D02*
X12522443Y-16820484D01*
X12522443Y-16820484D02*
X12646253Y-16820484D01*
X12770062Y-16620484D02*
X12789110Y-16620484D01*
X12789110Y-16620484D02*
X12808158Y-16630008D01*
X12808158Y-16630008D02*
X12817682Y-16639531D01*
X12817682Y-16639531D02*
X12827205Y-16658579D01*
X12827205Y-16658579D02*
X12836729Y-16696674D01*
X12836729Y-16696674D02*
X12836729Y-16744293D01*
X12836729Y-16744293D02*
X12827205Y-16782389D01*
X12827205Y-16782389D02*
X12817682Y-16801436D01*
X12817682Y-16801436D02*
X12808158Y-16810960D01*
X12808158Y-16810960D02*
X12789110Y-16820484D01*
X12789110Y-16820484D02*
X12770062Y-16820484D01*
X12770062Y-16820484D02*
X12751015Y-16810960D01*
X12751015Y-16810960D02*
X12741491Y-16801436D01*
X12741491Y-16801436D02*
X12731967Y-16782389D01*
X12731967Y-16782389D02*
X12722443Y-16744293D01*
X12722443Y-16744293D02*
X12722443Y-16696674D01*
X12722443Y-16696674D02*
X12731967Y-16658579D01*
X12731967Y-16658579D02*
X12741491Y-16639531D01*
X12741491Y-16639531D02*
X12751015Y-16630008D01*
X12751015Y-16630008D02*
X12770062Y-16620484D01*
X12960539Y-16620484D02*
X12979586Y-16620484D01*
X12979586Y-16620484D02*
X12998634Y-16630008D01*
X12998634Y-16630008D02*
X13008158Y-16639531D01*
X13008158Y-16639531D02*
X13017682Y-16658579D01*
X13017682Y-16658579D02*
X13027205Y-16696674D01*
X13027205Y-16696674D02*
X13027205Y-16744293D01*
X13027205Y-16744293D02*
X13017682Y-16782389D01*
X13017682Y-16782389D02*
X13008158Y-16801436D01*
X13008158Y-16801436D02*
X12998634Y-16810960D01*
X12998634Y-16810960D02*
X12979586Y-16820484D01*
X12979586Y-16820484D02*
X12960539Y-16820484D01*
X12960539Y-16820484D02*
X12941491Y-16810960D01*
X12941491Y-16810960D02*
X12931967Y-16801436D01*
X12931967Y-16801436D02*
X12922443Y-16782389D01*
X12922443Y-16782389D02*
X12912920Y-16744293D01*
X12912920Y-16744293D02*
X12912920Y-16696674D01*
X12912920Y-16696674D02*
X12922443Y-16658579D01*
X12922443Y-16658579D02*
X12931967Y-16639531D01*
X12931967Y-16639531D02*
X12941491Y-16630008D01*
X12941491Y-16630008D02*
X12960539Y-16620484D01*
X13112920Y-16820484D02*
X13112920Y-16687150D01*
X13112920Y-16706198D02*
X13122443Y-16696674D01*
X13122443Y-16696674D02*
X13141491Y-16687150D01*
X13141491Y-16687150D02*
X13170063Y-16687150D01*
X13170063Y-16687150D02*
X13189110Y-16696674D01*
X13189110Y-16696674D02*
X13198634Y-16715722D01*
X13198634Y-16715722D02*
X13198634Y-16820484D01*
X13198634Y-16715722D02*
X13208158Y-16696674D01*
X13208158Y-16696674D02*
X13227205Y-16687150D01*
X13227205Y-16687150D02*
X13255777Y-16687150D01*
X13255777Y-16687150D02*
X13274824Y-16696674D01*
X13274824Y-16696674D02*
X13284348Y-16715722D01*
X13284348Y-16715722D02*
X13284348Y-16820484D01*
X13379586Y-16820484D02*
X13379586Y-16687150D01*
X13379586Y-16706198D02*
X13389110Y-16696674D01*
X13389110Y-16696674D02*
X13408158Y-16687150D01*
X13408158Y-16687150D02*
X13436729Y-16687150D01*
X13436729Y-16687150D02*
X13455777Y-16696674D01*
X13455777Y-16696674D02*
X13465301Y-16715722D01*
X13465301Y-16715722D02*
X13465301Y-16820484D01*
X13465301Y-16715722D02*
X13474824Y-16696674D01*
X13474824Y-16696674D02*
X13493872Y-16687150D01*
X13493872Y-16687150D02*
X13522443Y-16687150D01*
X13522443Y-16687150D02*
X13541491Y-16696674D01*
X13541491Y-16696674D02*
X13551015Y-16715722D01*
X13551015Y-16715722D02*
X13551015Y-16820484D01*
X13941491Y-16610960D02*
X13770063Y-16868103D01*
X14198634Y-16620484D02*
X14217682Y-16620484D01*
X14217682Y-16620484D02*
X14236729Y-16630008D01*
X14236729Y-16630008D02*
X14246253Y-16639531D01*
X14246253Y-16639531D02*
X14255777Y-16658579D01*
X14255777Y-16658579D02*
X14265301Y-16696674D01*
X14265301Y-16696674D02*
X14265301Y-16744293D01*
X14265301Y-16744293D02*
X14255777Y-16782389D01*
X14255777Y-16782389D02*
X14246253Y-16801436D01*
X14246253Y-16801436D02*
X14236729Y-16810960D01*
X14236729Y-16810960D02*
X14217682Y-16820484D01*
X14217682Y-16820484D02*
X14198634Y-16820484D01*
X14198634Y-16820484D02*
X14179586Y-16810960D01*
X14179586Y-16810960D02*
X14170063Y-16801436D01*
X14170063Y-16801436D02*
X14160539Y-16782389D01*
X14160539Y-16782389D02*
X14151015Y-16744293D01*
X14151015Y-16744293D02*
X14151015Y-16696674D01*
X14151015Y-16696674D02*
X14160539Y-16658579D01*
X14160539Y-16658579D02*
X14170063Y-16639531D01*
X14170063Y-16639531D02*
X14179586Y-16630008D01*
X14179586Y-16630008D02*
X14198634Y-16620484D01*
X14351015Y-16801436D02*
X14360539Y-16810960D01*
X14360539Y-16810960D02*
X14351015Y-16820484D01*
X14351015Y-16820484D02*
X14341491Y-16810960D01*
X14341491Y-16810960D02*
X14351015Y-16801436D01*
X14351015Y-16801436D02*
X14351015Y-16820484D01*
X14484348Y-16620484D02*
X14503396Y-16620484D01*
X14503396Y-16620484D02*
X14522444Y-16630008D01*
X14522444Y-16630008D02*
X14531967Y-16639531D01*
X14531967Y-16639531D02*
X14541491Y-16658579D01*
X14541491Y-16658579D02*
X14551015Y-16696674D01*
X14551015Y-16696674D02*
X14551015Y-16744293D01*
X14551015Y-16744293D02*
X14541491Y-16782389D01*
X14541491Y-16782389D02*
X14531967Y-16801436D01*
X14531967Y-16801436D02*
X14522444Y-16810960D01*
X14522444Y-16810960D02*
X14503396Y-16820484D01*
X14503396Y-16820484D02*
X14484348Y-16820484D01*
X14484348Y-16820484D02*
X14465301Y-16810960D01*
X14465301Y-16810960D02*
X14455777Y-16801436D01*
X14455777Y-16801436D02*
X14446253Y-16782389D01*
X14446253Y-16782389D02*
X14436729Y-16744293D01*
X14436729Y-16744293D02*
X14436729Y-16696674D01*
X14436729Y-16696674D02*
X14446253Y-16658579D01*
X14446253Y-16658579D02*
X14455777Y-16639531D01*
X14455777Y-16639531D02*
X14465301Y-16630008D01*
X14465301Y-16630008D02*
X14484348Y-16620484D01*
X14722444Y-16687150D02*
X14722444Y-16820484D01*
X14674825Y-16610960D02*
X14627206Y-16753817D01*
X14627206Y-16753817D02*
X14751015Y-16753817D01*
X14808158Y-16620484D02*
X14941491Y-16620484D01*
X14941491Y-16620484D02*
X14855777Y-16820484D01*
X15008158Y-16639531D02*
X15017682Y-16630008D01*
X15017682Y-16630008D02*
X15036729Y-16620484D01*
X15036729Y-16620484D02*
X15084348Y-16620484D01*
X15084348Y-16620484D02*
X15103396Y-16630008D01*
X15103396Y-16630008D02*
X15112920Y-16639531D01*
X15112920Y-16639531D02*
X15122444Y-16658579D01*
X15122444Y-16658579D02*
X15122444Y-16677627D01*
X15122444Y-16677627D02*
X15112920Y-16706198D01*
X15112920Y-16706198D02*
X14998634Y-16820484D01*
X14998634Y-16820484D02*
X15122444Y-16820484D01*
X15198634Y-16620484D02*
X15198634Y-16658579D01*
X15274825Y-16620484D02*
X15274825Y-16658579D01*
X15570063Y-16896674D02*
X15560539Y-16887150D01*
X15560539Y-16887150D02*
X15541491Y-16858579D01*
X15541491Y-16858579D02*
X15531968Y-16839531D01*
X15531968Y-16839531D02*
X15522444Y-16810960D01*
X15522444Y-16810960D02*
X15512920Y-16763341D01*
X15512920Y-16763341D02*
X15512920Y-16725246D01*
X15512920Y-16725246D02*
X15522444Y-16677627D01*
X15522444Y-16677627D02*
X15531968Y-16649055D01*
X15531968Y-16649055D02*
X15541491Y-16630008D01*
X15541491Y-16630008D02*
X15560539Y-16601436D01*
X15560539Y-16601436D02*
X15570063Y-16591912D01*
X15751015Y-16820484D02*
X15636729Y-16820484D01*
X15693872Y-16820484D02*
X15693872Y-16620484D01*
X15693872Y-16620484D02*
X15674825Y-16649055D01*
X15674825Y-16649055D02*
X15655777Y-16668103D01*
X15655777Y-16668103D02*
X15636729Y-16677627D01*
X15922444Y-16687150D02*
X15922444Y-16820484D01*
X15874825Y-16610960D02*
X15827206Y-16753817D01*
X15827206Y-16753817D02*
X15951015Y-16753817D01*
X16179587Y-16820484D02*
X16179587Y-16620484D01*
X16265301Y-16820484D02*
X16265301Y-16715722D01*
X16265301Y-16715722D02*
X16255777Y-16696674D01*
X16255777Y-16696674D02*
X16236730Y-16687150D01*
X16236730Y-16687150D02*
X16208158Y-16687150D01*
X16208158Y-16687150D02*
X16189110Y-16696674D01*
X16189110Y-16696674D02*
X16179587Y-16706198D01*
X16389110Y-16820484D02*
X16370063Y-16810960D01*
X16370063Y-16810960D02*
X16360539Y-16801436D01*
X16360539Y-16801436D02*
X16351015Y-16782389D01*
X16351015Y-16782389D02*
X16351015Y-16725246D01*
X16351015Y-16725246D02*
X16360539Y-16706198D01*
X16360539Y-16706198D02*
X16370063Y-16696674D01*
X16370063Y-16696674D02*
X16389110Y-16687150D01*
X16389110Y-16687150D02*
X16417682Y-16687150D01*
X16417682Y-16687150D02*
X16436730Y-16696674D01*
X16436730Y-16696674D02*
X16446253Y-16706198D01*
X16446253Y-16706198D02*
X16455777Y-16725246D01*
X16455777Y-16725246D02*
X16455777Y-16782389D01*
X16455777Y-16782389D02*
X16446253Y-16801436D01*
X16446253Y-16801436D02*
X16436730Y-16810960D01*
X16436730Y-16810960D02*
X16417682Y-16820484D01*
X16417682Y-16820484D02*
X16389110Y-16820484D01*
X16570063Y-16820484D02*
X16551015Y-16810960D01*
X16551015Y-16810960D02*
X16541491Y-16791912D01*
X16541491Y-16791912D02*
X16541491Y-16620484D01*
X16722444Y-16810960D02*
X16703396Y-16820484D01*
X16703396Y-16820484D02*
X16665301Y-16820484D01*
X16665301Y-16820484D02*
X16646253Y-16810960D01*
X16646253Y-16810960D02*
X16636730Y-16791912D01*
X16636730Y-16791912D02*
X16636730Y-16715722D01*
X16636730Y-16715722D02*
X16646253Y-16696674D01*
X16646253Y-16696674D02*
X16665301Y-16687150D01*
X16665301Y-16687150D02*
X16703396Y-16687150D01*
X16703396Y-16687150D02*
X16722444Y-16696674D01*
X16722444Y-16696674D02*
X16731968Y-16715722D01*
X16731968Y-16715722D02*
X16731968Y-16734769D01*
X16731968Y-16734769D02*
X16636730Y-16753817D01*
X16808158Y-16810960D02*
X16827206Y-16820484D01*
X16827206Y-16820484D02*
X16865301Y-16820484D01*
X16865301Y-16820484D02*
X16884349Y-16810960D01*
X16884349Y-16810960D02*
X16893873Y-16791912D01*
X16893873Y-16791912D02*
X16893873Y-16782389D01*
X16893873Y-16782389D02*
X16884349Y-16763341D01*
X16884349Y-16763341D02*
X16865301Y-16753817D01*
X16865301Y-16753817D02*
X16836730Y-16753817D01*
X16836730Y-16753817D02*
X16817682Y-16744293D01*
X16817682Y-16744293D02*
X16808158Y-16725246D01*
X16808158Y-16725246D02*
X16808158Y-16715722D01*
X16808158Y-16715722D02*
X16817682Y-16696674D01*
X16817682Y-16696674D02*
X16836730Y-16687150D01*
X16836730Y-16687150D02*
X16865301Y-16687150D01*
X16865301Y-16687150D02*
X16884349Y-16696674D01*
X16960539Y-16896674D02*
X16970063Y-16887150D01*
X16970063Y-16887150D02*
X16989111Y-16858579D01*
X16989111Y-16858579D02*
X16998634Y-16839531D01*
X16998634Y-16839531D02*
X17008158Y-16810960D01*
X17008158Y-16810960D02*
X17017682Y-16763341D01*
X17017682Y-16763341D02*
X17017682Y-16725246D01*
X17017682Y-16725246D02*
X17008158Y-16677627D01*
X17008158Y-16677627D02*
X16998634Y-16649055D01*
X16998634Y-16649055D02*
X16989111Y-16630008D01*
X16989111Y-16630008D02*
X16970063Y-16601436D01*
X16970063Y-16601436D02*
X16960539Y-16591912D01*
D13*
X11855000Y-16923000D02*
X11995000Y-17063000D01*
X11995000Y-16923000D02*
X11855000Y-17063000D01*
X11974498Y-17042498D02*
X11974498Y-16943502D01*
X11875502Y-16943502D01*
X11875502Y-17042498D01*
X11974498Y-17042498D01*
D11*
X12360539Y-17084484D02*
X12246253Y-17084484D01*
X12303396Y-17084484D02*
X12303396Y-16884484D01*
X12303396Y-16884484D02*
X12284348Y-16913055D01*
X12284348Y-16913055D02*
X12265301Y-16932103D01*
X12265301Y-16932103D02*
X12246253Y-16941627D01*
X12446253Y-17065436D02*
X12455777Y-17074960D01*
X12455777Y-17074960D02*
X12446253Y-17084484D01*
X12446253Y-17084484D02*
X12436729Y-17074960D01*
X12436729Y-17074960D02*
X12446253Y-17065436D01*
X12446253Y-17065436D02*
X12446253Y-17084484D01*
X12627205Y-16951150D02*
X12627205Y-17084484D01*
X12579586Y-16874960D02*
X12531967Y-17017817D01*
X12531967Y-17017817D02*
X12655777Y-17017817D01*
X12770062Y-16884484D02*
X12789110Y-16884484D01*
X12789110Y-16884484D02*
X12808158Y-16894008D01*
X12808158Y-16894008D02*
X12817682Y-16903531D01*
X12817682Y-16903531D02*
X12827205Y-16922579D01*
X12827205Y-16922579D02*
X12836729Y-16960674D01*
X12836729Y-16960674D02*
X12836729Y-17008293D01*
X12836729Y-17008293D02*
X12827205Y-17046389D01*
X12827205Y-17046389D02*
X12817682Y-17065436D01*
X12817682Y-17065436D02*
X12808158Y-17074960D01*
X12808158Y-17074960D02*
X12789110Y-17084484D01*
X12789110Y-17084484D02*
X12770062Y-17084484D01*
X12770062Y-17084484D02*
X12751015Y-17074960D01*
X12751015Y-17074960D02*
X12741491Y-17065436D01*
X12741491Y-17065436D02*
X12731967Y-17046389D01*
X12731967Y-17046389D02*
X12722443Y-17008293D01*
X12722443Y-17008293D02*
X12722443Y-16960674D01*
X12722443Y-16960674D02*
X12731967Y-16922579D01*
X12731967Y-16922579D02*
X12741491Y-16903531D01*
X12741491Y-16903531D02*
X12751015Y-16894008D01*
X12751015Y-16894008D02*
X12770062Y-16884484D01*
X12960539Y-16884484D02*
X12979586Y-16884484D01*
X12979586Y-16884484D02*
X12998634Y-16894008D01*
X12998634Y-16894008D02*
X13008158Y-16903531D01*
X13008158Y-16903531D02*
X13017682Y-16922579D01*
X13017682Y-16922579D02*
X13027205Y-16960674D01*
X13027205Y-16960674D02*
X13027205Y-17008293D01*
X13027205Y-17008293D02*
X13017682Y-17046389D01*
X13017682Y-17046389D02*
X13008158Y-17065436D01*
X13008158Y-17065436D02*
X12998634Y-17074960D01*
X12998634Y-17074960D02*
X12979586Y-17084484D01*
X12979586Y-17084484D02*
X12960539Y-17084484D01*
X12960539Y-17084484D02*
X12941491Y-17074960D01*
X12941491Y-17074960D02*
X12931967Y-17065436D01*
X12931967Y-17065436D02*
X12922443Y-17046389D01*
X12922443Y-17046389D02*
X12912920Y-17008293D01*
X12912920Y-17008293D02*
X12912920Y-16960674D01*
X12912920Y-16960674D02*
X12922443Y-16922579D01*
X12922443Y-16922579D02*
X12931967Y-16903531D01*
X12931967Y-16903531D02*
X12941491Y-16894008D01*
X12941491Y-16894008D02*
X12960539Y-16884484D01*
X13112920Y-17084484D02*
X13112920Y-16951150D01*
X13112920Y-16970198D02*
X13122443Y-16960674D01*
X13122443Y-16960674D02*
X13141491Y-16951150D01*
X13141491Y-16951150D02*
X13170063Y-16951150D01*
X13170063Y-16951150D02*
X13189110Y-16960674D01*
X13189110Y-16960674D02*
X13198634Y-16979722D01*
X13198634Y-16979722D02*
X13198634Y-17084484D01*
X13198634Y-16979722D02*
X13208158Y-16960674D01*
X13208158Y-16960674D02*
X13227205Y-16951150D01*
X13227205Y-16951150D02*
X13255777Y-16951150D01*
X13255777Y-16951150D02*
X13274824Y-16960674D01*
X13274824Y-16960674D02*
X13284348Y-16979722D01*
X13284348Y-16979722D02*
X13284348Y-17084484D01*
X13379586Y-17084484D02*
X13379586Y-16951150D01*
X13379586Y-16970198D02*
X13389110Y-16960674D01*
X13389110Y-16960674D02*
X13408158Y-16951150D01*
X13408158Y-16951150D02*
X13436729Y-16951150D01*
X13436729Y-16951150D02*
X13455777Y-16960674D01*
X13455777Y-16960674D02*
X13465301Y-16979722D01*
X13465301Y-16979722D02*
X13465301Y-17084484D01*
X13465301Y-16979722D02*
X13474824Y-16960674D01*
X13474824Y-16960674D02*
X13493872Y-16951150D01*
X13493872Y-16951150D02*
X13522443Y-16951150D01*
X13522443Y-16951150D02*
X13541491Y-16960674D01*
X13541491Y-16960674D02*
X13551015Y-16979722D01*
X13551015Y-16979722D02*
X13551015Y-17084484D01*
X13941491Y-16874960D02*
X13770063Y-17132103D01*
X14198634Y-16884484D02*
X14217682Y-16884484D01*
X14217682Y-16884484D02*
X14236729Y-16894008D01*
X14236729Y-16894008D02*
X14246253Y-16903531D01*
X14246253Y-16903531D02*
X14255777Y-16922579D01*
X14255777Y-16922579D02*
X14265301Y-16960674D01*
X14265301Y-16960674D02*
X14265301Y-17008293D01*
X14265301Y-17008293D02*
X14255777Y-17046389D01*
X14255777Y-17046389D02*
X14246253Y-17065436D01*
X14246253Y-17065436D02*
X14236729Y-17074960D01*
X14236729Y-17074960D02*
X14217682Y-17084484D01*
X14217682Y-17084484D02*
X14198634Y-17084484D01*
X14198634Y-17084484D02*
X14179586Y-17074960D01*
X14179586Y-17074960D02*
X14170063Y-17065436D01*
X14170063Y-17065436D02*
X14160539Y-17046389D01*
X14160539Y-17046389D02*
X14151015Y-17008293D01*
X14151015Y-17008293D02*
X14151015Y-16960674D01*
X14151015Y-16960674D02*
X14160539Y-16922579D01*
X14160539Y-16922579D02*
X14170063Y-16903531D01*
X14170063Y-16903531D02*
X14179586Y-16894008D01*
X14179586Y-16894008D02*
X14198634Y-16884484D01*
X14351015Y-17065436D02*
X14360539Y-17074960D01*
X14360539Y-17074960D02*
X14351015Y-17084484D01*
X14351015Y-17084484D02*
X14341491Y-17074960D01*
X14341491Y-17074960D02*
X14351015Y-17065436D01*
X14351015Y-17065436D02*
X14351015Y-17084484D01*
X14484348Y-16884484D02*
X14503396Y-16884484D01*
X14503396Y-16884484D02*
X14522444Y-16894008D01*
X14522444Y-16894008D02*
X14531967Y-16903531D01*
X14531967Y-16903531D02*
X14541491Y-16922579D01*
X14541491Y-16922579D02*
X14551015Y-16960674D01*
X14551015Y-16960674D02*
X14551015Y-17008293D01*
X14551015Y-17008293D02*
X14541491Y-17046389D01*
X14541491Y-17046389D02*
X14531967Y-17065436D01*
X14531967Y-17065436D02*
X14522444Y-17074960D01*
X14522444Y-17074960D02*
X14503396Y-17084484D01*
X14503396Y-17084484D02*
X14484348Y-17084484D01*
X14484348Y-17084484D02*
X14465301Y-17074960D01*
X14465301Y-17074960D02*
X14455777Y-17065436D01*
X14455777Y-17065436D02*
X14446253Y-17046389D01*
X14446253Y-17046389D02*
X14436729Y-17008293D01*
X14436729Y-17008293D02*
X14436729Y-16960674D01*
X14436729Y-16960674D02*
X14446253Y-16922579D01*
X14446253Y-16922579D02*
X14455777Y-16903531D01*
X14455777Y-16903531D02*
X14465301Y-16894008D01*
X14465301Y-16894008D02*
X14484348Y-16884484D01*
X14731967Y-16884484D02*
X14636729Y-16884484D01*
X14636729Y-16884484D02*
X14627206Y-16979722D01*
X14627206Y-16979722D02*
X14636729Y-16970198D01*
X14636729Y-16970198D02*
X14655777Y-16960674D01*
X14655777Y-16960674D02*
X14703396Y-16960674D01*
X14703396Y-16960674D02*
X14722444Y-16970198D01*
X14722444Y-16970198D02*
X14731967Y-16979722D01*
X14731967Y-16979722D02*
X14741491Y-16998770D01*
X14741491Y-16998770D02*
X14741491Y-17046389D01*
X14741491Y-17046389D02*
X14731967Y-17065436D01*
X14731967Y-17065436D02*
X14722444Y-17074960D01*
X14722444Y-17074960D02*
X14703396Y-17084484D01*
X14703396Y-17084484D02*
X14655777Y-17084484D01*
X14655777Y-17084484D02*
X14636729Y-17074960D01*
X14636729Y-17074960D02*
X14627206Y-17065436D01*
X14922444Y-16884484D02*
X14827206Y-16884484D01*
X14827206Y-16884484D02*
X14817682Y-16979722D01*
X14817682Y-16979722D02*
X14827206Y-16970198D01*
X14827206Y-16970198D02*
X14846253Y-16960674D01*
X14846253Y-16960674D02*
X14893872Y-16960674D01*
X14893872Y-16960674D02*
X14912920Y-16970198D01*
X14912920Y-16970198D02*
X14922444Y-16979722D01*
X14922444Y-16979722D02*
X14931967Y-16998770D01*
X14931967Y-16998770D02*
X14931967Y-17046389D01*
X14931967Y-17046389D02*
X14922444Y-17065436D01*
X14922444Y-17065436D02*
X14912920Y-17074960D01*
X14912920Y-17074960D02*
X14893872Y-17084484D01*
X14893872Y-17084484D02*
X14846253Y-17084484D01*
X14846253Y-17084484D02*
X14827206Y-17074960D01*
X14827206Y-17074960D02*
X14817682Y-17065436D01*
X15122444Y-17084484D02*
X15008158Y-17084484D01*
X15065301Y-17084484D02*
X15065301Y-16884484D01*
X15065301Y-16884484D02*
X15046253Y-16913055D01*
X15046253Y-16913055D02*
X15027206Y-16932103D01*
X15027206Y-16932103D02*
X15008158Y-16941627D01*
X15198634Y-16884484D02*
X15198634Y-16922579D01*
X15274825Y-16884484D02*
X15274825Y-16922579D01*
X15570063Y-17160674D02*
X15560539Y-17151150D01*
X15560539Y-17151150D02*
X15541491Y-17122579D01*
X15541491Y-17122579D02*
X15531968Y-17103531D01*
X15531968Y-17103531D02*
X15522444Y-17074960D01*
X15522444Y-17074960D02*
X15512920Y-17027341D01*
X15512920Y-17027341D02*
X15512920Y-16989246D01*
X15512920Y-16989246D02*
X15522444Y-16941627D01*
X15522444Y-16941627D02*
X15531968Y-16913055D01*
X15531968Y-16913055D02*
X15541491Y-16894008D01*
X15541491Y-16894008D02*
X15560539Y-16865436D01*
X15560539Y-16865436D02*
X15570063Y-16855912D01*
X15636729Y-16903531D02*
X15646253Y-16894008D01*
X15646253Y-16894008D02*
X15665301Y-16884484D01*
X15665301Y-16884484D02*
X15712920Y-16884484D01*
X15712920Y-16884484D02*
X15731968Y-16894008D01*
X15731968Y-16894008D02*
X15741491Y-16903531D01*
X15741491Y-16903531D02*
X15751015Y-16922579D01*
X15751015Y-16922579D02*
X15751015Y-16941627D01*
X15751015Y-16941627D02*
X15741491Y-16970198D01*
X15741491Y-16970198D02*
X15627206Y-17084484D01*
X15627206Y-17084484D02*
X15751015Y-17084484D01*
X15989110Y-17084484D02*
X15989110Y-16884484D01*
X16074825Y-17084484D02*
X16074825Y-16979722D01*
X16074825Y-16979722D02*
X16065301Y-16960674D01*
X16065301Y-16960674D02*
X16046253Y-16951150D01*
X16046253Y-16951150D02*
X16017682Y-16951150D01*
X16017682Y-16951150D02*
X15998634Y-16960674D01*
X15998634Y-16960674D02*
X15989110Y-16970198D01*
X16198634Y-17084484D02*
X16179587Y-17074960D01*
X16179587Y-17074960D02*
X16170063Y-17065436D01*
X16170063Y-17065436D02*
X16160539Y-17046389D01*
X16160539Y-17046389D02*
X16160539Y-16989246D01*
X16160539Y-16989246D02*
X16170063Y-16970198D01*
X16170063Y-16970198D02*
X16179587Y-16960674D01*
X16179587Y-16960674D02*
X16198634Y-16951150D01*
X16198634Y-16951150D02*
X16227206Y-16951150D01*
X16227206Y-16951150D02*
X16246253Y-16960674D01*
X16246253Y-16960674D02*
X16255777Y-16970198D01*
X16255777Y-16970198D02*
X16265301Y-16989246D01*
X16265301Y-16989246D02*
X16265301Y-17046389D01*
X16265301Y-17046389D02*
X16255777Y-17065436D01*
X16255777Y-17065436D02*
X16246253Y-17074960D01*
X16246253Y-17074960D02*
X16227206Y-17084484D01*
X16227206Y-17084484D02*
X16198634Y-17084484D01*
X16379587Y-17084484D02*
X16360539Y-17074960D01*
X16360539Y-17074960D02*
X16351015Y-17055912D01*
X16351015Y-17055912D02*
X16351015Y-16884484D01*
X16531968Y-17074960D02*
X16512920Y-17084484D01*
X16512920Y-17084484D02*
X16474825Y-17084484D01*
X16474825Y-17084484D02*
X16455777Y-17074960D01*
X16455777Y-17074960D02*
X16446253Y-17055912D01*
X16446253Y-17055912D02*
X16446253Y-16979722D01*
X16446253Y-16979722D02*
X16455777Y-16960674D01*
X16455777Y-16960674D02*
X16474825Y-16951150D01*
X16474825Y-16951150D02*
X16512920Y-16951150D01*
X16512920Y-16951150D02*
X16531968Y-16960674D01*
X16531968Y-16960674D02*
X16541491Y-16979722D01*
X16541491Y-16979722D02*
X16541491Y-16998770D01*
X16541491Y-16998770D02*
X16446253Y-17017817D01*
X16617682Y-17074960D02*
X16636730Y-17084484D01*
X16636730Y-17084484D02*
X16674825Y-17084484D01*
X16674825Y-17084484D02*
X16693872Y-17074960D01*
X16693872Y-17074960D02*
X16703396Y-17055912D01*
X16703396Y-17055912D02*
X16703396Y-17046389D01*
X16703396Y-17046389D02*
X16693872Y-17027341D01*
X16693872Y-17027341D02*
X16674825Y-17017817D01*
X16674825Y-17017817D02*
X16646253Y-17017817D01*
X16646253Y-17017817D02*
X16627206Y-17008293D01*
X16627206Y-17008293D02*
X16617682Y-16989246D01*
X16617682Y-16989246D02*
X16617682Y-16979722D01*
X16617682Y-16979722D02*
X16627206Y-16960674D01*
X16627206Y-16960674D02*
X16646253Y-16951150D01*
X16646253Y-16951150D02*
X16674825Y-16951150D01*
X16674825Y-16951150D02*
X16693872Y-16960674D01*
X16770063Y-17160674D02*
X16779587Y-17151150D01*
X16779587Y-17151150D02*
X16798634Y-17122579D01*
X16798634Y-17122579D02*
X16808158Y-17103531D01*
X16808158Y-17103531D02*
X16817682Y-17074960D01*
X16817682Y-17074960D02*
X16827206Y-17027341D01*
X16827206Y-17027341D02*
X16827206Y-16989246D01*
X16827206Y-16989246D02*
X16817682Y-16941627D01*
X16817682Y-16941627D02*
X16808158Y-16913055D01*
X16808158Y-16913055D02*
X16798634Y-16894008D01*
X16798634Y-16894008D02*
X16779587Y-16865436D01*
X16779587Y-16865436D02*
X16770063Y-16855912D01*
M02*
